<?xml version="1.0" encoding="UTF-8" standalone="no"?>
<!-- Created with Inkscape (http://www.inkscape.org/) -->

<svg
   xmlns:dc="http://purl.org/dc/elements/1.1/"
   xmlns:cc="http://creativecommons.org/ns#"
   xmlns:rdf="http://www.w3.org/1999/02/22-rdf-syntax-ns#"
   xmlns:svg="http://www.w3.org/2000/svg"
   xmlns="http://www.w3.org/2000/svg"
   xmlns:sodipodi="http://sodipodi.sourceforge.net/DTD/sodipodi-0.dtd"
   xmlns:inkscape="http://www.inkscape.org/namespaces/inkscape"
   viewBox="0 0 724.26501 250.265"
   version="1.1"
   id="svg821"
   inkscape:version="0.92.4 (f8dce91, 2019-08-02)"
   sodipodi:docname="data.svg">
  <defs
     id="defs815" />
  <sodipodi:namedview
     id="base"
     pagecolor="#ffffff"
     bordercolor="#666666"
     borderopacity="1.0"
     inkscape:pageopacity="0.0"
     inkscape:pageshadow="2"
     inkscape:zoom="1.7906017"
     inkscape:cx="840.14676"
     inkscape:cy="661.70226"
     inkscape:document-units="mm"
     inkscape:current-layer="layer1"
     showgrid="false"
     inkscape:window-width="1920"
     inkscape:window-height="1025"
     inkscape:window-x="0"
     inkscape:window-y="27"
     inkscape:window-maximized="1" />
  <metadata
     id="metadata818">
    <rdf:RDF>
      <cc:Work
         rdf:about="">
        <dc:format>image/svg+xml</dc:format>
        <dc:type
           rdf:resource="http://purl.org/dc/dcmitype/StillImage" />
        <dc:title></dc:title>
      </cc:Work>
    </rdf:RDF>
  </metadata>
  <g
     inkscape:label="Layer 1"
     inkscape:groupmode="layer"
     id="layer1"
     transform="translate(5.1563096,-40.8675)">
    <path
       style="fill:#f98e05;fill-opacity:1;stroke:none;stroke-width:0.26458332px;stroke-linecap:butt;stroke-linejoin:miter;stroke-opacity:1"
       d="m 6.8832392,257.92502 c 0,0 78.2593598,-75.33192 417.3413908,-9.12585 116.01931,22.65288 253.85615,-17.96155 253.85615,-17.96155 -143.26549,69.2413 -431.71769,76.75145 -671.1975408,27.0874 z"
       id="path1372"
       inkscape:connector-curvature="0"
       sodipodi:nodetypes="cscc" />
    <path
       style="fill:none;fill-opacity:1;stroke:#1b1b1b;stroke-width:8.35308647;stroke-linecap:round;stroke-linejoin:miter;stroke-miterlimit:4;stroke-dasharray:none;stroke-opacity:1"
       d="m 3.1034766,260.94883 c 0,0 55.1043524,-53.04123 217.7293934,-40.92701 162.62505,12.11422 209.18341,56.80737 359.5223,29.56994 50.15266,-9.08634 128.28772,-31.04665 128.28772,-31.04665"
       id="path1370"
       inkscape:connector-curvature="0"
       sodipodi:nodetypes="cssc" />
    <path
       id="path3701"
       d="m 186.95347,86.861055 -9.36574,-16.982466 c -0.72236,-1.309122 -0.24656,-2.954478 1.06192,-3.676153 l 7.89997,-4.356298 c 1.30784,-0.720969 2.95522,-0.245255 3.67622,1.063268 l 9.3664,16.982439 c 0.58689,1.062524 0.37239,2.340286 -0.42607,3.17217 -3.25205,1.945793 -9.33367,6.941134 -12.2127,3.79704 z m -5.8533,-19.165314 c -0.51461,-0.351054 -1.21567,-0.219612 -1.5674,0.295028 -0.35175,0.513957 -0.22029,1.215686 0.29364,1.566782 0.51464,0.351734 1.21573,0.220958 1.56747,-0.293681 0.35241,-0.514666 0.21955,-1.217009 -0.29371,-1.568129 z"
       inkscape:connector-curvature="0"
       style="stroke-width:0.6765244"
       sodipodi:nodetypes="ccccccccccccc" />
    <path
       id="path3703"
       d="m 157.81728,86.184883 c -1.10772,0.486397 -2.42795,0.406073 -3.40427,1.138559 -1.11187,0.833207 -2.05537,0.95714 -2.88234,1.996621 0.0877,2.030748 0.24178,1.321821 0,0 -5.85059,-5.197291 -1.74308,-10.164094 2.01936,-11.819084 3.76241,-1.654974 9.28456,1.784631 9.19081,6.206302 0.0965,0.220356 0.60908,0.840621 0.68275,1.064563 -2.50085,-0.171817 -3.17323,0.343165 -5.60631,1.413039 z"
       inkscape:connector-curvature="0"
       style="stroke-width:0.6765244"
       sodipodi:nodetypes="cccccccc" />
    <path
       id="path3705"
       d="m 187.38552,194.22372 c 0.1391,3.58763 0.20522,7.49222 0.16966,11.72776 -0.03,3.62599 -2.90995,6.56427 -6.49822,6.70406 -0.10679,0.004 -0.21374,0.005 -0.32274,0.006 -3.73641,-0.0318 -6.73961,-3.08459 -6.7098,-6.82094 0.0342,-4.0256 -0.0297,-7.71702 -0.15921,-11.09174 -0.20895,-5.36348 -1.59167,-12.3871 -2.03285,-16.17019 5.4067,-0.64834 10.61644,-2.51481 14.06228,-3.62129 0.54944,4.39227 1.2474,12.9695 1.49093,19.26796 z"
       inkscape:connector-curvature="0"
       style="stroke-width:0.6765244"
       sodipodi:nodetypes="cccccccccc" />
    <path
       id="path3707"
       d="m 159.05436,195.32282 c 0.13076,3.37264 0.35428,7.05989 0.69805,11.07152 0.31968,3.7228 -2.4402,6.99832 -6.16232,7.31797 -0.10729,0.0102 -0.21537,0.0153 -0.32286,0.0195 -3.5876,0.13975 -6.68571,-2.56743 -6.99512,-6.18228 -0.36253,-4.21672 -0.59898,-8.11472 -0.73807,-11.70234 -0.24419,-6.29844 -1.08808,-14.11411 -0.88174,-18.53636 3.52185,0.83635 9.08454,1.57961 14.52457,1.80809 -0.14696,3.80589 -0.32982,10.83918 -0.12252,16.20342 z"
       inkscape:connector-curvature="0"
       style="stroke-width:0.6765244"
       sodipodi:nodetypes="sccccscccs" />
    <path
       id="path3709"
       d="m 170.56585,108.1602 c -6.10133,4.57115 -14.75044,3.33202 -19.32222,-2.7693 -4.57047,-6.100732 -3.33204,-14.751721 2.76798,-19.323446 6.10072,-4.57047 14.75176,-3.330772 19.32349,2.769262 4.57175,6.100018 3.33209,14.752354 -2.76925,19.323484 z"
       inkscape:connector-curvature="0"
       style="stroke-width:0.64215446"
       sodipodi:nodetypes="ccccc" />
    <path
       id="path3711"
       d="m 126.62368,154.03747 c 1.6974,-24.32323 8.98696,-38.10249 16.97418,-45.69161 1.52071,-1.44754 3.04997,-2.65645 4.54702,-3.66572 0.44521,0.936 0.98811,1.84182 1.63422,2.70299 4.45532,5.949 12.31321,8.016 19.10917,5.02745 1.10769,-0.48707 2.16561,-1.1056 3.14061,-1.83737 3.14291,-2.35402 5.24473,-5.71641 6.0237,-9.53122 0.26784,-0.006 0.53648,-0.0104 0.80418,-0.0208 2.87465,-0.10545 5.66557,-0.51958 7.77228,-1.276258 0.83068,-0.297595 1.52937,-0.629363 2.11664,-0.989282 0.92454,-0.565965 1.56477,-1.200798 1.97101,-1.881397 6.6e-4,-6.93e-4 9.5e-4,-0.0013 8.9e-4,-0.003 0.46878,-0.796082 0.7912,-1.787581 0.73817,-3.469986 -0.0756,-2.331472 -1.08151,-5.961986 -3.78077,-10.849781 -1.17055,-2.129238 -0.39405,-4.802481 1.73323,-5.9716 2.12857,-1.170517 4.80181,-0.394009 5.97297,1.733855 3.09067,5.641049 4.67899,10.408055 4.86275,14.746137 0.13182,3.092988 -0.56114,5.992501 -1.9944,8.350659 -6.4e-4,0.001 -8.9e-4,0.003 -8.5e-4,0.004 -0.81443,1.34571 -1.81964,2.46792 -2.93731,3.41374 -1.72469,1.45953 -3.72057,2.49017 -5.73622,3.2027 -2.08516,0.73621 -4.25303,1.18992 -6.4239,1.46161 l 11.77161,62.97076 c 0,0 -0.0865,0.0562 -0.25459,0.15672 -1.65684,0.99177 -11.42704,6.38941 -28.80268,7.06307 -17.29994,0.67073 -27.44415,-3.91013 -29.24028,-4.79985 -0.19121,-0.0948 -0.29011,-0.14853 -0.29011,-0.14853 l 1.45745,-11.91473 c -0.92603,-0.24033 -1.62849,-1.05329 -1.66744,-2.05786 -0.0477,-1.15385 -0.55097,-2.17966 -1.33091,-2.91313 -0.71745,1.35007 -2.10957,2.27199 -3.70362,2.33379 -0.14603,0.006 -0.29299,0.004 -0.44093,-0.005 -0.98875,-0.0598 -1.87773,-0.44512 -2.57853,-1.04083 -0.27702,0.59096 -0.42396,1.25406 -0.39826,1.95176 l 1.98377,51.167 c 0.0476,1.22765 -0.90952,2.26338 -2.13852,2.31103 -1.22764,0.0476 -2.26342,-0.91087 -2.31102,-2.13852 l -1.98277,-51.16704 c -0.11354,-2.9285 1.2391,-5.56722 3.39958,-7.2244 z m 12.06016,1.48904 3.75977,-30.7287 c -3.19927,6.41842 -5.85472,15.46092 -6.92094,28.24604 1.23741,0.57151 2.31788,1.42465 3.16117,2.48266 z"
       inkscape:connector-curvature="0"
       style="stroke-width:0.6765244" />
    <g
       aria-label="01110011 01101000 01100101 00100000 01101100 01101001 01101011 01100101 01110011 00100000 01100110 01100101 01101101 01100100 01101111 01101101 "
       transform="matrix(0.3601545,0.04349572,-0.04349572,0.3601545,-119.88133,-48.267479)"
       style="font-style:normal;font-weight:normal;font-size:40px;line-height:1.25;font-family:sans-serif;letter-spacing:0px;word-spacing:0px;fill:#000000;fill-opacity:1;stroke:none"
       id="flowRoot4365">
      <path
         d="m 945.51078,226.53891 c 0,5.72 3.28,9.48 9.2,9.48 5.92,0 9.2,-3.76 9.2,-9.48 v -9.84 c 0,-5.72 -3.28,-9.48 -9.2,-9.48 -5.92,0 -9.2,3.76 -9.2,9.48 z m 13.12,0.68 c 0,2.44 -1.4,4.04 -3.92,4.04 -2.52,0 -3.92,-1.6 -3.92,-4.04 v -11.2 c 0,-2.44 1.4,-4.04 3.92,-4.04 2.52,0 3.92,1.6 3.92,4.04 z"
         style="font-style:normal;font-variant:normal;font-weight:bold;font-stretch:normal;font-family:'Simplon Norm';-inkscape-font-specification:'Simplon Norm Bold';fill:#f98e05;fill-opacity:1"
         id="path8076"
         inkscape:connector-curvature="0" />
      <path
         d="m 972.53453,207.61891 -5.36,4.64 v 6.4 l 5.36,-4.64 v 21.6 h 5.28 v -28 z"
         style="font-style:normal;font-variant:normal;font-weight:bold;font-stretch:normal;font-family:'Simplon Norm';-inkscape-font-specification:'Simplon Norm Bold';fill:#f98e05;fill-opacity:1"
         id="path8078"
         inkscape:connector-curvature="0" />
      <path
         d="m 987.22203,207.61891 -5.36,4.64 v 6.4 l 5.36,-4.64 v 21.6 h 5.28 v -28 z"
         style="font-style:normal;font-variant:normal;font-weight:bold;font-stretch:normal;font-family:'Simplon Norm';-inkscape-font-specification:'Simplon Norm Bold';fill:#f98e05;fill-opacity:1"
         id="path8080"
         inkscape:connector-curvature="0" />
      <path
         d="m 1001.9095,207.61891 -5.35997,4.64 v 6.4 l 5.35997,-4.64 v 21.6 h 5.28 v -28 z"
         style="font-style:normal;font-variant:normal;font-weight:bold;font-stretch:normal;font-family:'Simplon Norm';-inkscape-font-specification:'Simplon Norm Bold';fill:#f98e05;fill-opacity:1"
         id="path8082"
         inkscape:connector-curvature="0" />
      <path
         d="m 1011.917,226.53891 c 0,5.72 3.28,9.48 9.2,9.48 5.92,0 9.2,-3.76 9.2,-9.48 v -9.84 c 0,-5.72 -3.28,-9.48 -9.2,-9.48 -5.92,0 -9.2,3.76 -9.2,9.48 z m 13.12,0.68 c 0,2.44 -1.4,4.04 -3.92,4.04 -2.52,0 -3.92,-1.6 -3.92,-4.04 v -11.2 c 0,-2.44 1.4,-4.04 3.92,-4.04 2.52,0 3.92,1.6 3.92,4.04 z"
         style="font-style:normal;font-variant:normal;font-weight:bold;font-stretch:normal;font-family:'Simplon Norm';-inkscape-font-specification:'Simplon Norm Bold';fill:#f98e05;fill-opacity:1"
         id="path8084"
         inkscape:connector-curvature="0" />
      <path
         d="m 1034.2608,226.53891 c 0,5.72 3.28,9.48 9.2,9.48 5.92,0 9.2,-3.76 9.2,-9.48 v -9.84 c 0,-5.72 -3.28,-9.48 -9.2,-9.48 -5.92,0 -9.2,3.76 -9.2,9.48 z m 13.12,0.68 c 0,2.44 -1.4,4.04 -3.92,4.04 -2.52,0 -3.92,-1.6 -3.92,-4.04 v -11.2 c 0,-2.44 1.4,-4.04 3.92,-4.04 2.52,0 3.92,1.6 3.92,4.04 z"
         style="font-style:normal;font-variant:normal;font-weight:bold;font-stretch:normal;font-family:'Simplon Norm';-inkscape-font-specification:'Simplon Norm Bold';fill:#f98e05;fill-opacity:1"
         id="path8086"
         inkscape:connector-curvature="0" />
      <path
         d="m 1061.2845,207.61891 -5.36,4.64 v 6.4 l 5.36,-4.64 v 21.6 h 5.28 v -28 z"
         style="font-style:normal;font-variant:normal;font-weight:bold;font-stretch:normal;font-family:'Simplon Norm';-inkscape-font-specification:'Simplon Norm Bold';fill:#f98e05;fill-opacity:1"
         id="path8088"
         inkscape:connector-curvature="0" />
      <path
         d="m 1075.972,207.61891 -5.36,4.64 v 6.4 l 5.36,-4.64 v 21.6 h 5.28 v -28 z"
         style="font-style:normal;font-variant:normal;font-weight:bold;font-stretch:normal;font-family:'Simplon Norm';-inkscape-font-specification:'Simplon Norm Bold';fill:#f98e05;fill-opacity:1"
         id="path8090"
         inkscape:connector-curvature="0" />
      <path
         d="m 1094.417,226.53891 c 0,5.72 3.28,9.48 9.2,9.48 5.92,0 9.2,-3.76 9.2,-9.48 v -9.84 c 0,-5.72 -3.28,-9.48 -9.2,-9.48 -5.92,0 -9.2,3.76 -9.2,9.48 z m 13.12,0.68 c 0,2.44 -1.4,4.04 -3.92,4.04 -2.52,0 -3.92,-1.6 -3.92,-4.04 v -11.2 c 0,-2.44 1.4,-4.04 3.92,-4.04 2.52,0 3.92,1.6 3.92,4.04 z"
         style="font-style:normal;font-variant:normal;font-weight:bold;font-stretch:normal;font-family:'Simplon Norm';-inkscape-font-specification:'Simplon Norm Bold';fill:#f98e05;fill-opacity:1"
         id="path8092"
         inkscape:connector-curvature="0" />
      <path
         d="m 1121.4408,207.61891 -5.36,4.64 v 6.4 l 5.36,-4.64 v 21.6 h 5.28 v -28 z"
         style="font-style:normal;font-variant:normal;font-weight:bold;font-stretch:normal;font-family:'Simplon Norm';-inkscape-font-specification:'Simplon Norm Bold';fill:#f98e05;fill-opacity:1"
         id="path8094"
         inkscape:connector-curvature="0" />
      <path
         d="m 1136.1283,207.61891 -5.36,4.64 v 6.4 l 5.36,-4.64 v 21.6 h 5.28 v -28 z"
         style="font-style:normal;font-variant:normal;font-weight:bold;font-stretch:normal;font-family:'Simplon Norm';-inkscape-font-specification:'Simplon Norm Bold';fill:#f98e05;fill-opacity:1"
         id="path8096"
         inkscape:connector-curvature="0" />
      <path
         d="m 1146.1358,226.53891 c 0,5.72 3.28,9.48 9.2,9.48 5.92,0 9.2,-3.76 9.2,-9.48 v -9.84 c 0,-5.72 -3.28,-9.48 -9.2,-9.48 -5.92,0 -9.2,3.76 -9.2,9.48 z m 13.12,0.68 c 0,2.44 -1.4,4.04 -3.92,4.04 -2.52,0 -3.92,-1.6 -3.92,-4.04 v -11.2 c 0,-2.44 1.4,-4.04 3.92,-4.04 2.52,0 3.92,1.6 3.92,4.04 z"
         style="font-style:normal;font-variant:normal;font-weight:bold;font-stretch:normal;font-family:'Simplon Norm';-inkscape-font-specification:'Simplon Norm Bold';fill:#f98e05;fill-opacity:1"
         id="path8098"
         inkscape:connector-curvature="0" />
      <path
         d="m 1173.1595,207.61891 -5.36,4.64 v 6.4 l 5.36,-4.64 v 21.6 h 5.28 v -28 z"
         style="font-style:normal;font-variant:normal;font-weight:bold;font-stretch:normal;font-family:'Simplon Norm';-inkscape-font-specification:'Simplon Norm Bold';fill:#f98e05;fill-opacity:1"
         id="path8100"
         inkscape:connector-curvature="0" />
      <path
         d="m 1183.167,226.53891 c 0,5.72 3.28,9.48 9.2,9.48 5.92,0 9.2,-3.76 9.2,-9.48 v -9.84 c 0,-5.72 -3.28,-9.48 -9.2,-9.48 -5.92,0 -9.2,3.76 -9.2,9.48 z m 13.12,0.68 c 0,2.44 -1.4,4.04 -3.92,4.04 -2.52,0 -3.92,-1.6 -3.92,-4.04 v -11.2 c 0,-2.44 1.4,-4.04 3.92,-4.04 2.52,0 3.92,1.6 3.92,4.04 z"
         style="font-style:normal;font-variant:normal;font-weight:bold;font-stretch:normal;font-family:'Simplon Norm';-inkscape-font-specification:'Simplon Norm Bold';fill:#f98e05;fill-opacity:1"
         id="path8102"
         inkscape:connector-curvature="0" />
      <path
         d="m 1205.5108,226.53891 c 0,5.72 3.28,9.48 9.2,9.48 5.92,0 9.2,-3.76 9.2,-9.48 v -9.84 c 0,-5.72 -3.28,-9.48 -9.2,-9.48 -5.92,0 -9.2,3.76 -9.2,9.48 z m 13.12,0.68 c 0,2.44 -1.4,4.04 -3.92,4.04 -2.52,0 -3.92,-1.6 -3.92,-4.04 v -11.2 c 0,-2.44 1.4,-4.04 3.92,-4.04 2.52,0 3.92,1.6 3.92,4.04 z"
         style="font-style:normal;font-variant:normal;font-weight:bold;font-stretch:normal;font-family:'Simplon Norm';-inkscape-font-specification:'Simplon Norm Bold';fill:#f98e05;fill-opacity:1"
         id="path8104"
         inkscape:connector-curvature="0" />
      <path
         d="m 1227.8545,226.53891 c 0,5.72 3.28,9.48 9.2,9.48 5.92,0 9.2,-3.76 9.2,-9.48 v -9.84 c 0,-5.72 -3.28,-9.48 -9.2,-9.48 -5.92,0 -9.2,3.76 -9.2,9.48 z m 13.12,0.68 c 0,2.44 -1.4,4.04 -3.92,4.04 -2.52,0 -3.92,-1.6 -3.92,-4.04 v -11.2 c 0,-2.44 1.4,-4.04 3.92,-4.04 2.52,0 3.92,1.6 3.92,4.04 z"
         style="font-style:normal;font-variant:normal;font-weight:bold;font-stretch:normal;font-family:'Simplon Norm';-inkscape-font-specification:'Simplon Norm Bold';fill:#f98e05;fill-opacity:1"
         id="path8106"
         inkscape:connector-curvature="0" />
      <path
         d="m 1258.6358,226.53891 c 0,5.72 3.28,9.48 9.2,9.48 5.92,0 9.2,-3.76 9.2,-9.48 v -9.84 c 0,-5.72 -3.28,-9.48 -9.2,-9.48 -5.92,0 -9.2,3.76 -9.2,9.48 z m 13.12,0.68 c 0,2.44 -1.4,4.04 -3.92,4.04 -2.52,0 -3.92,-1.6 -3.92,-4.04 v -11.2 c 0,-2.44 1.4,-4.04 3.92,-4.04 2.52,0 3.92,1.6 3.92,4.04 z"
         style="font-style:normal;font-variant:normal;font-weight:bold;font-stretch:normal;font-family:'Simplon Norm';-inkscape-font-specification:'Simplon Norm Bold';fill:#f98e05;fill-opacity:1"
         id="path8108"
         inkscape:connector-curvature="0" />
      <path
         d="m 1285.6595,207.61891 -5.36,4.64 v 6.4 l 5.36,-4.64 v 21.6 h 5.28 v -28 z"
         style="font-style:normal;font-variant:normal;font-weight:bold;font-stretch:normal;font-family:'Simplon Norm';-inkscape-font-specification:'Simplon Norm Bold';fill:#f98e05;fill-opacity:1"
         id="path8110"
         inkscape:connector-curvature="0" />
      <path
         d="m 1300.347,207.61891 -5.36,4.64 v 6.4 l 5.36,-4.64 v 21.6 h 5.28 v -28 z"
         style="font-style:normal;font-variant:normal;font-weight:bold;font-stretch:normal;font-family:'Simplon Norm';-inkscape-font-specification:'Simplon Norm Bold';fill:#f98e05;fill-opacity:1"
         id="path8112"
         inkscape:connector-curvature="0" />
      <path
         d="m 1310.3545,226.53891 c 0,5.72 3.28,9.48 9.2,9.48 5.92,0 9.2,-3.76 9.2,-9.48 v -9.84 c 0,-5.72 -3.28,-9.48 -9.2,-9.48 -5.92,0 -9.2,3.76 -9.2,9.48 z m 13.12,0.68 c 0,2.44 -1.4,4.04 -3.92,4.04 -2.52,0 -3.92,-1.6 -3.92,-4.04 v -11.2 c 0,-2.44 1.4,-4.04 3.92,-4.04 2.52,0 3.92,1.6 3.92,4.04 z"
         style="font-style:normal;font-variant:normal;font-weight:bold;font-stretch:normal;font-family:'Simplon Norm';-inkscape-font-specification:'Simplon Norm Bold';fill:#f98e05;fill-opacity:1"
         id="path8114"
         inkscape:connector-curvature="0" />
      <path
         d="m 1332.6983,226.53891 c 0,5.72 3.28,9.48 9.2,9.48 5.92,0 9.2,-3.76 9.2,-9.48 v -9.84 c 0,-5.72 -3.28,-9.48 -9.2,-9.48 -5.92,0 -9.2,3.76 -9.2,9.48 z m 13.12,0.68 c 0,2.44 -1.4,4.04 -3.92,4.04 -2.52,0 -3.92,-1.6 -3.92,-4.04 v -11.2 c 0,-2.44 1.4,-4.04 3.92,-4.04 2.52,0 3.92,1.6 3.92,4.04 z"
         style="font-style:normal;font-variant:normal;font-weight:bold;font-stretch:normal;font-family:'Simplon Norm';-inkscape-font-specification:'Simplon Norm Bold';fill:#f98e05;fill-opacity:1"
         id="path8116"
         inkscape:connector-curvature="0" />
      <path
         d="m 1359.722,207.61891 -5.36,4.64 v 6.4 l 5.36,-4.64 v 21.6 h 5.28 v -28 z"
         style="font-style:normal;font-variant:normal;font-weight:bold;font-stretch:normal;font-family:'Simplon Norm';-inkscape-font-specification:'Simplon Norm Bold';fill:#f98e05;fill-opacity:1"
         id="path8118"
         inkscape:connector-curvature="0" />
      <path
         d="m 1369.7295,226.53891 c 0,5.72 3.28,9.48 9.2,9.48 5.92,0 9.2,-3.76 9.2,-9.48 v -9.84 c 0,-5.72 -3.28,-9.48 -9.2,-9.48 -5.92,0 -9.2,3.76 -9.2,9.48 z m 13.12,0.68 c 0,2.44 -1.4,4.04 -3.92,4.04 -2.52,0 -3.92,-1.6 -3.92,-4.04 v -11.2 c 0,-2.44 1.4,-4.04 3.92,-4.04 2.52,0 3.92,1.6 3.92,4.04 z"
         style="font-style:normal;font-variant:normal;font-weight:bold;font-stretch:normal;font-family:'Simplon Norm';-inkscape-font-specification:'Simplon Norm Bold';fill:#f98e05;fill-opacity:1"
         id="path8120"
         inkscape:connector-curvature="0" />
      <path
         d="m 1396.7533,207.61891 -5.36,4.64 v 6.4 l 5.36,-4.64 v 21.6 h 5.28 v -28 z"
         style="font-style:normal;font-variant:normal;font-weight:bold;font-stretch:normal;font-family:'Simplon Norm';-inkscape-font-specification:'Simplon Norm Bold';fill:#f98e05;fill-opacity:1"
         id="path8122"
         inkscape:connector-curvature="0" />
      <path
         d="m 1415.1983,226.53891 c 0,5.72 3.28,9.48 9.2,9.48 5.92,0 9.2,-3.76 9.2,-9.48 v -9.84 c 0,-5.72 -3.28,-9.48 -9.2,-9.48 -5.92,0 -9.2,3.76 -9.2,9.48 z m 13.12,0.68 c 0,2.44 -1.4,4.04 -3.92,4.04 -2.52,0 -3.92,-1.6 -3.92,-4.04 v -11.2 c 0,-2.44 1.4,-4.04 3.92,-4.04 2.52,0 3.92,1.6 3.92,4.04 z"
         style="font-style:normal;font-variant:normal;font-weight:bold;font-stretch:normal;font-family:'Simplon Norm';-inkscape-font-specification:'Simplon Norm Bold';fill:#f98e05;fill-opacity:1"
         id="path8124"
         inkscape:connector-curvature="0" />
      <path
         d="m 1437.542,226.53891 c 0,5.72 3.28,9.48 9.2,9.48 5.92,0 9.2,-3.76 9.2,-9.48 v -9.84 c 0,-5.72 -3.28,-9.48 -9.2,-9.48 -5.92,0 -9.2,3.76 -9.2,9.48 z m 13.12,0.68 c 0,2.44 -1.4,4.04 -3.92,4.04 -2.52,0 -3.92,-1.6 -3.92,-4.04 v -11.2 c 0,-2.44 1.4,-4.04 3.92,-4.04 2.52,0 3.92,1.6 3.92,4.04 z"
         style="font-style:normal;font-variant:normal;font-weight:bold;font-stretch:normal;font-family:'Simplon Norm';-inkscape-font-specification:'Simplon Norm Bold';fill:#f98e05;fill-opacity:1"
         id="path8126"
         inkscape:connector-curvature="0" />
      <path
         d="m 1464.5658,207.61891 -5.36,4.64 v 6.4 l 5.36,-4.64 v 21.6 h 5.28 v -28 z"
         style="font-style:normal;font-variant:normal;font-weight:bold;font-stretch:normal;font-family:'Simplon Norm';-inkscape-font-specification:'Simplon Norm Bold';fill:#f98e05;fill-opacity:1"
         id="path8128"
         inkscape:connector-curvature="0" />
      <path
         d="m 1474.5733,226.53891 c 0,5.72 3.28,9.48 9.2,9.48 5.92,0 9.2,-3.76 9.2,-9.48 v -9.84 c 0,-5.72 -3.28,-9.48 -9.2,-9.48 -5.92,0 -9.2,3.76 -9.2,9.48 z m 13.12,0.68 c 0,2.44 -1.4,4.04 -3.92,4.04 -2.52,0 -3.92,-1.6 -3.92,-4.04 v -11.2 c 0,-2.44 1.4,-4.04 3.92,-4.04 2.52,0 3.92,1.6 3.92,4.04 z"
         style="font-style:normal;font-variant:normal;font-weight:bold;font-stretch:normal;font-family:'Simplon Norm';-inkscape-font-specification:'Simplon Norm Bold';fill:#f98e05;fill-opacity:1"
         id="path8130"
         inkscape:connector-curvature="0" />
      <path
         d="m 1496.917,226.53891 c 0,5.72 3.28,9.48 9.2,9.48 5.92,0 9.2,-3.76 9.2,-9.48 v -9.84 c 0,-5.72 -3.28,-9.48 -9.2,-9.48 -5.92,0 -9.2,3.76 -9.2,9.48 z m 13.12,0.68 c 0,2.44 -1.4,4.04 -3.92,4.04 -2.52,0 -3.92,-1.6 -3.92,-4.04 v -11.2 c 0,-2.44 1.4,-4.04 3.92,-4.04 2.52,0 3.92,1.6 3.92,4.04 z"
         style="font-style:normal;font-variant:normal;font-weight:bold;font-stretch:normal;font-family:'Simplon Norm';-inkscape-font-specification:'Simplon Norm Bold';fill:#f98e05;fill-opacity:1"
         id="path8132"
         inkscape:connector-curvature="0" />
      <path
         d="m 1519.2608,226.53891 c 0,5.72 3.28,9.48 9.2,9.48 5.92,0 9.2,-3.76 9.2,-9.48 v -9.84 c 0,-5.72 -3.28,-9.48 -9.2,-9.48 -5.92,0 -9.2,3.76 -9.2,9.48 z m 13.12,0.68 c 0,2.44 -1.4,4.04 -3.92,4.04 -2.52,0 -3.92,-1.6 -3.92,-4.04 v -11.2 c 0,-2.44 1.4,-4.04 3.92,-4.04 2.52,0 3.92,1.6 3.92,4.04 z"
         style="font-style:normal;font-variant:normal;font-weight:bold;font-stretch:normal;font-family:'Simplon Norm';-inkscape-font-specification:'Simplon Norm Bold';fill:#f98e05;fill-opacity:1"
         id="path8134"
         inkscape:connector-curvature="0" />
      <path
         d="m 1541.6045,226.53891 c 0,5.72 3.28,9.48 9.2,9.48 5.92,0 9.2,-3.76 9.2,-9.48 v -9.84 c 0,-5.72 -3.28,-9.48 -9.2,-9.48 -5.92,0 -9.2,3.76 -9.2,9.48 z m 13.12,0.68 c 0,2.44 -1.4,4.04 -3.92,4.04 -2.52,0 -3.92,-1.6 -3.92,-4.04 v -11.2 c 0,-2.44 1.4,-4.04 3.92,-4.04 2.52,0 3.92,1.6 3.92,4.04 z"
         style="font-style:normal;font-variant:normal;font-weight:bold;font-stretch:normal;font-family:'Simplon Norm';-inkscape-font-specification:'Simplon Norm Bold';fill:#f98e05;fill-opacity:1"
         id="path8136"
         inkscape:connector-curvature="0" />
      <path
         d="m 1563.9483,226.53891 c 0,5.72 3.28,9.48 9.2,9.48 5.92,0 9.2,-3.76 9.2,-9.48 v -9.84 c 0,-5.72 -3.28,-9.48 -9.2,-9.48 -5.92,0 -9.2,3.76 -9.2,9.48 z m 13.12,0.68 c 0,2.44 -1.4,4.04 -3.92,4.04 -2.52,0 -3.92,-1.6 -3.92,-4.04 v -11.2 c 0,-2.44 1.4,-4.04 3.92,-4.04 2.52,0 3.92,1.6 3.92,4.04 z"
         style="font-style:normal;font-variant:normal;font-weight:bold;font-stretch:normal;font-family:'Simplon Norm';-inkscape-font-specification:'Simplon Norm Bold';fill:#f98e05;fill-opacity:1"
         id="path8138"
         inkscape:connector-curvature="0" />
      <path
         d="m 1594.7295,226.53891 c 0,5.72 3.28,9.48 9.2,9.48 5.92,0 9.2,-3.76 9.2,-9.48 v -9.84 c 0,-5.72 -3.28,-9.48 -9.2,-9.48 -5.92,0 -9.2,3.76 -9.2,9.48 z m 13.12,0.68 c 0,2.44 -1.4,4.04 -3.92,4.04 -2.52,0 -3.92,-1.6 -3.92,-4.04 v -11.2 c 0,-2.44 1.4,-4.04 3.92,-4.04 2.52,0 3.92,1.6 3.92,4.04 z"
         style="font-style:normal;font-variant:normal;font-weight:bold;font-stretch:normal;font-family:'Simplon Norm';-inkscape-font-specification:'Simplon Norm Bold';fill:#f98e05;fill-opacity:1"
         id="path8140"
         inkscape:connector-curvature="0" />
      <path
         d="m 1621.7533,207.61891 -5.36,4.64 v 6.4 l 5.36,-4.64 v 21.6 h 5.28 v -28 z"
         style="font-style:normal;font-variant:normal;font-weight:bold;font-stretch:normal;font-family:'Simplon Norm';-inkscape-font-specification:'Simplon Norm Bold';fill:#f98e05;fill-opacity:1"
         id="path8142"
         inkscape:connector-curvature="0" />
      <path
         d="m 1636.4408,207.61891 -5.36,4.64 v 6.4 l 5.36,-4.64 v 21.6 h 5.28 v -28 z"
         style="font-style:normal;font-variant:normal;font-weight:bold;font-stretch:normal;font-family:'Simplon Norm';-inkscape-font-specification:'Simplon Norm Bold';fill:#f98e05;fill-opacity:1"
         id="path8144"
         inkscape:connector-curvature="0" />
      <path
         d="m 1646.4483,226.53891 c 0,5.72 3.28,9.48 9.2,9.48 5.92,0 9.2,-3.76 9.2,-9.48 v -9.84 c 0,-5.72 -3.28,-9.48 -9.2,-9.48 -5.92,0 -9.2,3.76 -9.2,9.48 z m 13.12,0.68 c 0,2.44 -1.4,4.04 -3.92,4.04 -2.52,0 -3.92,-1.6 -3.92,-4.04 v -11.2 c 0,-2.44 1.4,-4.04 3.92,-4.04 2.52,0 3.92,1.6 3.92,4.04 z"
         style="font-style:normal;font-variant:normal;font-weight:bold;font-stretch:normal;font-family:'Simplon Norm';-inkscape-font-specification:'Simplon Norm Bold';fill:#f98e05;fill-opacity:1"
         id="path8146"
         inkscape:connector-curvature="0" />
      <path
         d="m 1673.472,207.61891 -5.36,4.64 v 6.4 l 5.36,-4.64 v 21.6 h 5.28 v -28 z"
         style="font-style:normal;font-variant:normal;font-weight:bold;font-stretch:normal;font-family:'Simplon Norm';-inkscape-font-specification:'Simplon Norm Bold';fill:#f98e05;fill-opacity:1"
         id="path8148"
         inkscape:connector-curvature="0" />
      <path
         d="m 1688.1595,207.61891 -5.36,4.64 v 6.4 l 5.36,-4.64 v 21.6 h 5.28 v -28 z"
         style="font-style:normal;font-variant:normal;font-weight:bold;font-stretch:normal;font-family:'Simplon Norm';-inkscape-font-specification:'Simplon Norm Bold';fill:#f98e05;fill-opacity:1"
         id="path8150"
         inkscape:connector-curvature="0" />
      <path
         d="m 1698.167,226.53891 c 0,5.72 3.28,9.48 9.2,9.48 5.92,0 9.2,-3.76 9.2,-9.48 v -9.84 c 0,-5.72 -3.28,-9.48 -9.2,-9.48 -5.92,0 -9.2,3.76 -9.2,9.48 z m 13.12,0.68 c 0,2.44 -1.4,4.04 -3.92,4.04 -2.52,0 -3.92,-1.6 -3.92,-4.04 v -11.2 c 0,-2.44 1.4,-4.04 3.92,-4.04 2.52,0 3.92,1.6 3.92,4.04 z"
         style="font-style:normal;font-variant:normal;font-weight:bold;font-stretch:normal;font-family:'Simplon Norm';-inkscape-font-specification:'Simplon Norm Bold';fill:#f98e05;fill-opacity:1"
         id="path8152"
         inkscape:connector-curvature="0" />
      <path
         d="m 1720.5108,226.53891 c 0,5.72 3.28,9.48 9.2,9.48 5.92,0 9.2,-3.76 9.2,-9.48 v -9.84 c 0,-5.72 -3.28,-9.48 -9.2,-9.48 -5.92,0 -9.2,3.76 -9.2,9.48 z m 13.12,0.68 c 0,2.44 -1.4,4.04 -3.92,4.04 -2.52,0 -3.92,-1.6 -3.92,-4.04 v -11.2 c 0,-2.44 1.4,-4.04 3.92,-4.04 2.52,0 3.92,1.6 3.92,4.04 z"
         style="font-style:normal;font-variant:normal;font-weight:bold;font-stretch:normal;font-family:'Simplon Norm';-inkscape-font-specification:'Simplon Norm Bold';fill:#f98e05;fill-opacity:1"
         id="path8154"
         inkscape:connector-curvature="0" />
      <path
         d="m 1751.292,226.53891 c 0,5.72 3.28,9.48 9.2,9.48 5.92,0 9.2,-3.76 9.2,-9.48 v -9.84 c 0,-5.72 -3.28,-9.48 -9.2,-9.48 -5.92,0 -9.2,3.76 -9.2,9.48 z m 13.12,0.68 c 0,2.44 -1.4,4.04 -3.92,4.04 -2.52,0 -3.92,-1.6 -3.92,-4.04 v -11.2 c 0,-2.44 1.4,-4.04 3.92,-4.04 2.52,0 3.92,1.6 3.92,4.04 z"
         style="font-style:normal;font-variant:normal;font-weight:bold;font-stretch:normal;font-family:'Simplon Norm';-inkscape-font-specification:'Simplon Norm Bold';fill:#f98e05;fill-opacity:1"
         id="path8156"
         inkscape:connector-curvature="0" />
      <path
         d="m 1778.3158,207.61891 -5.36,4.64 v 6.4 l 5.36,-4.64 v 21.6 h 5.28 v -28 z"
         style="font-style:normal;font-variant:normal;font-weight:bold;font-stretch:normal;font-family:'Simplon Norm';-inkscape-font-specification:'Simplon Norm Bold';fill:#f98e05;fill-opacity:1"
         id="path8158"
         inkscape:connector-curvature="0" />
      <path
         d="m 1793.0033,207.61891 -5.36,4.64 v 6.4 l 5.36,-4.64 v 21.6 h 5.28 v -28 z"
         style="font-style:normal;font-variant:normal;font-weight:bold;font-stretch:normal;font-family:'Simplon Norm';-inkscape-font-specification:'Simplon Norm Bold';fill:#f98e05;fill-opacity:1"
         id="path8160"
         inkscape:connector-curvature="0" />
      <path
         d="m 1803.0108,226.53891 c 0,5.72 3.28,9.48 9.2,9.48 5.92,0 9.2,-3.76 9.2,-9.48 v -9.84 c 0,-5.72 -3.28,-9.48 -9.2,-9.48 -5.92,0 -9.2,3.76 -9.2,9.48 z m 13.12,0.68 c 0,2.44 -1.4,4.04 -3.92,4.04 -2.52,0 -3.92,-1.6 -3.92,-4.04 v -11.2 c 0,-2.44 1.4,-4.04 3.92,-4.04 2.52,0 3.92,1.6 3.92,4.04 z"
         style="font-style:normal;font-variant:normal;font-weight:bold;font-stretch:normal;font-family:'Simplon Norm';-inkscape-font-specification:'Simplon Norm Bold';fill:#f98e05;fill-opacity:1"
         id="path8162"
         inkscape:connector-curvature="0" />
      <path
         d="m 1830.0345,207.61891 -5.36,4.64 v 6.4 l 5.36,-4.64 v 21.6 h 5.28 v -28 z"
         style="font-style:normal;font-variant:normal;font-weight:bold;font-stretch:normal;font-family:'Simplon Norm';-inkscape-font-specification:'Simplon Norm Bold';fill:#f98e05;fill-opacity:1"
         id="path8164"
         inkscape:connector-curvature="0" />
      <path
         d="m 1840.042,226.53891 c 0,5.72 3.28,9.48 9.2,9.48 5.92,0 9.2,-3.76 9.2,-9.48 v -9.84 c 0,-5.72 -3.28,-9.48 -9.2,-9.48 -5.92,0 -9.2,3.76 -9.2,9.48 z m 13.12,0.68 c 0,2.44 -1.4,4.04 -3.92,4.04 -2.52,0 -3.92,-1.6 -3.92,-4.04 v -11.2 c 0,-2.44 1.4,-4.04 3.92,-4.04 2.52,0 3.92,1.6 3.92,4.04 z"
         style="font-style:normal;font-variant:normal;font-weight:bold;font-stretch:normal;font-family:'Simplon Norm';-inkscape-font-specification:'Simplon Norm Bold';fill:#f98e05;fill-opacity:1"
         id="path8166"
         inkscape:connector-curvature="0" />
      <path
         d="m 1862.3858,226.53891 c 0,5.72 3.28,9.48 9.2,9.48 5.92,0 9.2,-3.76 9.2,-9.48 v -9.84 c 0,-5.72 -3.28,-9.48 -9.2,-9.48 -5.92,0 -9.2,3.76 -9.2,9.48 z m 13.12,0.68 c 0,2.44 -1.4,4.04 -3.92,4.04 -2.52,0 -3.92,-1.6 -3.92,-4.04 v -11.2 c 0,-2.44 1.4,-4.04 3.92,-4.04 2.52,0 3.92,1.6 3.92,4.04 z"
         style="font-style:normal;font-variant:normal;font-weight:bold;font-stretch:normal;font-family:'Simplon Norm';-inkscape-font-specification:'Simplon Norm Bold';fill:#f98e05;fill-opacity:1"
         id="path8168"
         inkscape:connector-curvature="0" />
      <path
         d="m 1889.4095,207.61891 -5.36,4.64 v 6.4 l 5.36,-4.64 v 21.6 h 5.28 v -28 z"
         style="font-style:normal;font-variant:normal;font-weight:bold;font-stretch:normal;font-family:'Simplon Norm';-inkscape-font-specification:'Simplon Norm Bold';fill:#f98e05;fill-opacity:1"
         id="path8170"
         inkscape:connector-curvature="0" />
      <path
         d="m 1907.8545,226.53891 c 0,5.72 3.28,9.48 9.2,9.48 5.92,0 9.2,-3.76 9.2,-9.48 v -9.84 c 0,-5.72 -3.28,-9.48 -9.2,-9.48 -5.92,0 -9.2,3.76 -9.2,9.48 z m 13.12,0.68 c 0,2.44 -1.4,4.04 -3.92,4.04 -2.52,0 -3.92,-1.6 -3.92,-4.04 v -11.2 c 0,-2.44 1.4,-4.04 3.92,-4.04 2.52,0 3.92,1.6 3.92,4.04 z"
         style="font-style:normal;font-variant:normal;font-weight:bold;font-stretch:normal;font-family:'Simplon Norm';-inkscape-font-specification:'Simplon Norm Bold';fill:#f98e05;fill-opacity:1"
         id="path8172"
         inkscape:connector-curvature="0" />
      <path
         d="m 1934.8783,207.61891 -5.36,4.64 v 6.4 l 5.36,-4.64 v 21.6 h 5.28 v -28 z"
         style="font-style:normal;font-variant:normal;font-weight:bold;font-stretch:normal;font-family:'Simplon Norm';-inkscape-font-specification:'Simplon Norm Bold';fill:#f98e05;fill-opacity:1"
         id="path8174"
         inkscape:connector-curvature="0" />
      <path
         d="m 1949.5658,207.61891 -5.36,4.64 v 6.4 l 5.36,-4.64 v 21.6 h 5.28 v -28 z"
         style="font-style:normal;font-variant:normal;font-weight:bold;font-stretch:normal;font-family:'Simplon Norm';-inkscape-font-specification:'Simplon Norm Bold';fill:#f98e05;fill-opacity:1"
         id="path8176"
         inkscape:connector-curvature="0" />
      <path
         d="m 1959.5733,226.53891 c 0,5.72 3.28,9.48 9.2,9.48 5.92,0 9.2,-3.76 9.2,-9.48 v -9.84 c 0,-5.72 -3.28,-9.48 -9.2,-9.48 -5.92,0 -9.2,3.76 -9.2,9.48 z m 13.12,0.68 c 0,2.44 -1.4,4.04 -3.92,4.04 -2.52,0 -3.92,-1.6 -3.92,-4.04 v -11.2 c 0,-2.44 1.4,-4.04 3.92,-4.04 2.52,0 3.92,1.6 3.92,4.04 z"
         style="font-style:normal;font-variant:normal;font-weight:bold;font-stretch:normal;font-family:'Simplon Norm';-inkscape-font-specification:'Simplon Norm Bold';fill:#f98e05;fill-opacity:1"
         id="path8178"
         inkscape:connector-curvature="0" />
      <path
         d="m 1986.597,207.61891 -5.36,4.64 v 6.4 l 5.36,-4.64 v 21.6 h 5.28 v -28 z"
         style="font-style:normal;font-variant:normal;font-weight:bold;font-stretch:normal;font-family:'Simplon Norm';-inkscape-font-specification:'Simplon Norm Bold';fill:#f98e05;fill-opacity:1"
         id="path8180"
         inkscape:connector-curvature="0" />
      <path
         d="m 1996.6045,226.53891 c 0,5.72 3.28,9.48 9.2,9.48 5.92,0 9.2,-3.76 9.2,-9.48 v -9.84 c 0,-5.72 -3.28,-9.48 -9.2,-9.48 -5.92,0 -9.2,3.76 -9.2,9.48 z m 13.12,0.68 c 0,2.44 -1.4,4.04 -3.92,4.04 -2.52,0 -3.92,-1.6 -3.92,-4.04 v -11.2 c 0,-2.44 1.4,-4.04 3.92,-4.04 2.52,0 3.92,1.6 3.92,4.04 z"
         style="font-style:normal;font-variant:normal;font-weight:bold;font-stretch:normal;font-family:'Simplon Norm';-inkscape-font-specification:'Simplon Norm Bold';fill:#f98e05;fill-opacity:1"
         id="path8182"
         inkscape:connector-curvature="0" />
      <path
         d="m 2023.6283,207.61891 -5.36,4.64 v 6.4 l 5.36,-4.64 v 21.6 h 5.28 v -28 z"
         style="font-style:normal;font-variant:normal;font-weight:bold;font-stretch:normal;font-family:'Simplon Norm';-inkscape-font-specification:'Simplon Norm Bold';fill:#f98e05;fill-opacity:1"
         id="path8184"
         inkscape:connector-curvature="0" />
      <path
         d="m 2038.3158,207.61891 -5.36,4.64 v 6.4 l 5.36,-4.64 v 21.6 h 5.28 v -28 z"
         style="font-style:normal;font-variant:normal;font-weight:bold;font-stretch:normal;font-family:'Simplon Norm';-inkscape-font-specification:'Simplon Norm Bold';fill:#f98e05;fill-opacity:1"
         id="path8186"
         inkscape:connector-curvature="0" />
      <path
         d="m 2056.7608,226.53891 c 0,5.72 3.28,9.48 9.2,9.48 5.92,0 9.2,-3.76 9.2,-9.48 v -9.84 c 0,-5.72 -3.28,-9.48 -9.2,-9.48 -5.92,0 -9.2,3.76 -9.2,9.48 z m 13.12,0.68 c 0,2.44 -1.4,4.04 -3.92,4.04 -2.52,0 -3.92,-1.6 -3.92,-4.04 v -11.2 c 0,-2.44 1.4,-4.04 3.92,-4.04 2.52,0 3.92,1.6 3.92,4.04 z"
         style="font-style:normal;font-variant:normal;font-weight:bold;font-stretch:normal;font-family:'Simplon Norm';-inkscape-font-specification:'Simplon Norm Bold';fill:#f98e05;fill-opacity:1"
         id="path8188"
         inkscape:connector-curvature="0" />
      <path
         d="m 2083.7845,207.61891 -5.36,4.64 v 6.4 l 5.36,-4.64 v 21.6 h 5.28 v -28 z"
         style="font-style:normal;font-variant:normal;font-weight:bold;font-stretch:normal;font-family:'Simplon Norm';-inkscape-font-specification:'Simplon Norm Bold';fill:#f98e05;fill-opacity:1"
         id="path8190"
         inkscape:connector-curvature="0" />
      <path
         d="m 2098.472,207.61891 -5.36,4.64 v 6.4 l 5.36,-4.64 v 21.6 h 5.28 v -28 z"
         style="font-style:normal;font-variant:normal;font-weight:bold;font-stretch:normal;font-family:'Simplon Norm';-inkscape-font-specification:'Simplon Norm Bold';fill:#f98e05;fill-opacity:1"
         id="path8192"
         inkscape:connector-curvature="0" />
      <path
         d="m 2108.4795,226.53891 c 0,5.72 3.28,9.48 9.2,9.48 5.92,0 9.2,-3.76 9.2,-9.48 v -9.84 c 0,-5.72 -3.28,-9.48 -9.2,-9.48 -5.92,0 -9.2,3.76 -9.2,9.48 z m 13.12,0.68 c 0,2.44 -1.4,4.04 -3.92,4.04 -2.52,0 -3.92,-1.6 -3.92,-4.04 v -11.2 c 0,-2.44 1.4,-4.04 3.92,-4.04 2.52,0 3.92,1.6 3.92,4.04 z"
         style="font-style:normal;font-variant:normal;font-weight:bold;font-stretch:normal;font-family:'Simplon Norm';-inkscape-font-specification:'Simplon Norm Bold';fill:#f98e05;fill-opacity:1"
         id="path8194"
         inkscape:connector-curvature="0" />
      <path
         d="m 2130.8233,226.53891 c 0,5.72 3.28,9.48 9.2,9.48 5.92,0 9.2,-3.76 9.2,-9.48 v -9.84 c 0,-5.72 -3.28,-9.48 -9.2,-9.48 -5.92,0 -9.2,3.76 -9.2,9.48 z m 13.12,0.68 c 0,2.44 -1.4,4.04 -3.92,4.04 -2.52,0 -3.92,-1.6 -3.92,-4.04 v -11.2 c 0,-2.44 1.4,-4.04 3.92,-4.04 2.52,0 3.92,1.6 3.92,4.04 z"
         style="font-style:normal;font-variant:normal;font-weight:bold;font-stretch:normal;font-family:'Simplon Norm';-inkscape-font-specification:'Simplon Norm Bold';fill:#f98e05;fill-opacity:1"
         id="path8196"
         inkscape:connector-curvature="0" />
      <path
         d="m 2157.847,207.61891 -5.36,4.64 v 6.4 l 5.36,-4.64 v 21.6 h 5.28 v -28 z"
         style="font-style:normal;font-variant:normal;font-weight:bold;font-stretch:normal;font-family:'Simplon Norm';-inkscape-font-specification:'Simplon Norm Bold';fill:#f98e05;fill-opacity:1"
         id="path8198"
         inkscape:connector-curvature="0" />
      <path
         d="m 2167.8545,226.53891 c 0,5.72 3.28,9.48 9.2,9.48 5.92,0 9.2,-3.76 9.2,-9.48 v -9.84 c 0,-5.72 -3.28,-9.48 -9.2,-9.48 -5.92,0 -9.2,3.76 -9.2,9.48 z m 13.12,0.68 c 0,2.44 -1.4,4.04 -3.92,4.04 -2.52,0 -3.92,-1.6 -3.92,-4.04 v -11.2 c 0,-2.44 1.4,-4.04 3.92,-4.04 2.52,0 3.92,1.6 3.92,4.04 z"
         style="font-style:normal;font-variant:normal;font-weight:bold;font-stretch:normal;font-family:'Simplon Norm';-inkscape-font-specification:'Simplon Norm Bold';fill:#f98e05;fill-opacity:1"
         id="path8200"
         inkscape:connector-curvature="0" />
      <path
         d="m 2194.8783,207.61891 -5.36,4.64 v 6.4 l 5.36,-4.64 v 21.6 h 5.28 v -28 z"
         style="font-style:normal;font-variant:normal;font-weight:bold;font-stretch:normal;font-family:'Simplon Norm';-inkscape-font-specification:'Simplon Norm Bold';fill:#f98e05;fill-opacity:1"
         id="path8202"
         inkscape:connector-curvature="0" />
      <path
         d="m 945.51078,278.38829 c 0,5.72 3.28,9.48 9.2,9.48 5.92,0 9.2,-3.76 9.2,-9.48 v -9.84 c 0,-5.72 -3.28,-9.48 -9.2,-9.48 -5.92,0 -9.2,3.76 -9.2,9.48 z m 13.12,0.68 c 0,2.44 -1.4,4.04 -3.92,4.04 -2.52,0 -3.92,-1.6 -3.92,-4.04 v -11.2 c 0,-2.44 1.4,-4.04 3.92,-4.04 2.52,0 3.92,1.6 3.92,4.04 z"
         style="font-style:normal;font-variant:normal;font-weight:bold;font-stretch:normal;font-family:'Simplon Norm';-inkscape-font-specification:'Simplon Norm Bold';fill:#f98e05;fill-opacity:1"
         id="path8204"
         inkscape:connector-curvature="0" />
      <path
         d="m 972.53453,259.46829 -5.36,4.64 v 6.4 l 5.36,-4.64 v 21.6 h 5.28 v -28 z"
         style="font-style:normal;font-variant:normal;font-weight:bold;font-stretch:normal;font-family:'Simplon Norm';-inkscape-font-specification:'Simplon Norm Bold';fill:#f98e05;fill-opacity:1"
         id="path8206"
         inkscape:connector-curvature="0" />
      <path
         d="m 987.22203,259.46829 -5.36,4.64 v 6.4 l 5.36,-4.64 v 21.6 h 5.28 v -28 z"
         style="font-style:normal;font-variant:normal;font-weight:bold;font-stretch:normal;font-family:'Simplon Norm';-inkscape-font-specification:'Simplon Norm Bold';fill:#f98e05;fill-opacity:1"
         id="path8208"
         inkscape:connector-curvature="0" />
      <path
         d="m 1001.9095,259.46829 -5.35997,4.64 v 6.4 l 5.35997,-4.64 v 21.6 h 5.28 v -28 z"
         style="font-style:normal;font-variant:normal;font-weight:bold;font-stretch:normal;font-family:'Simplon Norm';-inkscape-font-specification:'Simplon Norm Bold';fill:#f98e05;fill-opacity:1"
         id="path8210"
         inkscape:connector-curvature="0" />
      <path
         d="m 1011.917,278.38829 c 0,5.72 3.28,9.48 9.2,9.48 5.92,0 9.2,-3.76 9.2,-9.48 v -9.84 c 0,-5.72 -3.28,-9.48 -9.2,-9.48 -5.92,0 -9.2,3.76 -9.2,9.48 z m 13.12,0.68 c 0,2.44 -1.4,4.04 -3.92,4.04 -2.52,0 -3.92,-1.6 -3.92,-4.04 v -11.2 c 0,-2.44 1.4,-4.04 3.92,-4.04 2.52,0 3.92,1.6 3.92,4.04 z"
         style="font-style:normal;font-variant:normal;font-weight:bold;font-stretch:normal;font-family:'Simplon Norm';-inkscape-font-specification:'Simplon Norm Bold';fill:#f98e05;fill-opacity:1"
         id="path8212"
         inkscape:connector-curvature="0" />
      <path
         d="m 1034.2608,278.38829 c 0,5.72 3.28,9.48 9.2,9.48 5.92,0 9.2,-3.76 9.2,-9.48 v -9.84 c 0,-5.72 -3.28,-9.48 -9.2,-9.48 -5.92,0 -9.2,3.76 -9.2,9.48 z m 13.12,0.68 c 0,2.44 -1.4,4.04 -3.92,4.04 -2.52,0 -3.92,-1.6 -3.92,-4.04 v -11.2 c 0,-2.44 1.4,-4.04 3.92,-4.04 2.52,0 3.92,1.6 3.92,4.04 z"
         style="font-style:normal;font-variant:normal;font-weight:bold;font-stretch:normal;font-family:'Simplon Norm';-inkscape-font-specification:'Simplon Norm Bold';fill:#f98e05;fill-opacity:1"
         id="path8214"
         inkscape:connector-curvature="0" />
      <path
         d="m 1061.2845,259.46829 -5.36,4.64 v 6.4 l 5.36,-4.64 v 21.6 h 5.28 v -28 z"
         style="font-style:normal;font-variant:normal;font-weight:bold;font-stretch:normal;font-family:'Simplon Norm';-inkscape-font-specification:'Simplon Norm Bold';fill:#f98e05;fill-opacity:1"
         id="path8216"
         inkscape:connector-curvature="0" />
      <path
         d="m 1075.972,259.46829 -5.36,4.64 v 6.4 l 5.36,-4.64 v 21.6 h 5.28 v -28 z"
         style="font-style:normal;font-variant:normal;font-weight:bold;font-stretch:normal;font-family:'Simplon Norm';-inkscape-font-specification:'Simplon Norm Bold';fill:#f98e05;fill-opacity:1"
         id="path8218"
         inkscape:connector-curvature="0" />
      <path
         d="m 1094.417,278.38829 c 0,5.72 3.28,9.48 9.2,9.48 5.92,0 9.2,-3.76 9.2,-9.48 v -9.84 c 0,-5.72 -3.28,-9.48 -9.2,-9.48 -5.92,0 -9.2,3.76 -9.2,9.48 z m 13.12,0.68 c 0,2.44 -1.4,4.04 -3.92,4.04 -2.52,0 -3.92,-1.6 -3.92,-4.04 v -11.2 c 0,-2.44 1.4,-4.04 3.92,-4.04 2.52,0 3.92,1.6 3.92,4.04 z"
         style="font-style:normal;font-variant:normal;font-weight:bold;font-stretch:normal;font-family:'Simplon Norm';-inkscape-font-specification:'Simplon Norm Bold';fill:#f98e05;fill-opacity:1"
         id="path8220"
         inkscape:connector-curvature="0" />
      <path
         d="m 1116.7608,278.38829 c 0,5.72 3.28,9.48 9.2,9.48 5.92,0 9.2,-3.76 9.2,-9.48 v -9.84 c 0,-5.72 -3.28,-9.48 -9.2,-9.48 -5.92,0 -9.2,3.76 -9.2,9.48 z m 13.12,0.68 c 0,2.44 -1.4,4.04 -3.92,4.04 -2.52,0 -3.92,-1.6 -3.92,-4.04 v -11.2 c 0,-2.44 1.4,-4.04 3.92,-4.04 2.52,0 3.92,1.6 3.92,4.04 z"
         style="font-style:normal;font-variant:normal;font-weight:bold;font-stretch:normal;font-family:'Simplon Norm';-inkscape-font-specification:'Simplon Norm Bold';fill:#f98e05;fill-opacity:1"
         id="path8222"
         inkscape:connector-curvature="0" />
      <path
         d="m 1143.7845,259.46829 -5.36,4.64 v 6.4 l 5.36,-4.64 v 21.6 h 5.28 v -28 z"
         style="font-style:normal;font-variant:normal;font-weight:bold;font-stretch:normal;font-family:'Simplon Norm';-inkscape-font-specification:'Simplon Norm Bold';fill:#f98e05;fill-opacity:1"
         id="path8224"
         inkscape:connector-curvature="0" />
      <path
         d="m 1153.792,278.38829 c 0,5.72 3.28,9.48 9.2,9.48 5.92,0 9.2,-3.76 9.2,-9.48 v -9.84 c 0,-5.72 -3.28,-9.48 -9.2,-9.48 -5.92,0 -9.2,3.76 -9.2,9.48 z m 13.12,0.68 c 0,2.44 -1.4,4.04 -3.92,4.04 -2.52,0 -3.92,-1.6 -3.92,-4.04 v -11.2 c 0,-2.44 1.4,-4.04 3.92,-4.04 2.52,0 3.92,1.6 3.92,4.04 z"
         style="font-style:normal;font-variant:normal;font-weight:bold;font-stretch:normal;font-family:'Simplon Norm';-inkscape-font-specification:'Simplon Norm Bold';fill:#f98e05;fill-opacity:1"
         id="path8226"
         inkscape:connector-curvature="0" />
      <path
         d="m 1176.1358,278.38829 c 0,5.72 3.28,9.48 9.2,9.48 5.92,0 9.2,-3.76 9.2,-9.48 v -9.84 c 0,-5.72 -3.28,-9.48 -9.2,-9.48 -5.92,0 -9.2,3.76 -9.2,9.48 z m 13.12,0.68 c 0,2.44 -1.4,4.04 -3.92,4.04 -2.52,0 -3.92,-1.6 -3.92,-4.04 v -11.2 c 0,-2.44 1.4,-4.04 3.92,-4.04 2.52,0 3.92,1.6 3.92,4.04 z"
         style="font-style:normal;font-variant:normal;font-weight:bold;font-stretch:normal;font-family:'Simplon Norm';-inkscape-font-specification:'Simplon Norm Bold';fill:#f98e05;fill-opacity:1"
         id="path8228"
         inkscape:connector-curvature="0" />
      <path
         d="m 1198.4795,278.38829 c 0,5.72 3.28,9.48 9.2,9.48 5.92,0 9.2,-3.76 9.2,-9.48 v -9.84 c 0,-5.72 -3.28,-9.48 -9.2,-9.48 -5.92,0 -9.2,3.76 -9.2,9.48 z m 13.12,0.68 c 0,2.44 -1.4,4.04 -3.92,4.04 -2.52,0 -3.92,-1.6 -3.92,-4.04 v -11.2 c 0,-2.44 1.4,-4.04 3.92,-4.04 2.52,0 3.92,1.6 3.92,4.04 z"
         style="font-style:normal;font-variant:normal;font-weight:bold;font-stretch:normal;font-family:'Simplon Norm';-inkscape-font-specification:'Simplon Norm Bold';fill:#f98e05;fill-opacity:1"
         id="path8230"
         inkscape:connector-curvature="0" />
      <path
         d="m 1220.8233,278.38829 c 0,5.72 3.28,9.48 9.2,9.48 5.92,0 9.2,-3.76 9.2,-9.48 v -9.84 c 0,-5.72 -3.28,-9.48 -9.2,-9.48 -5.92,0 -9.2,3.76 -9.2,9.48 z m 13.12,0.68 c 0,2.44 -1.4,4.04 -3.92,4.04 -2.52,0 -3.92,-1.6 -3.92,-4.04 v -11.2 c 0,-2.44 1.4,-4.04 3.92,-4.04 2.52,0 3.92,1.6 3.92,4.04 z"
         style="font-style:normal;font-variant:normal;font-weight:bold;font-stretch:normal;font-family:'Simplon Norm';-inkscape-font-specification:'Simplon Norm Bold';fill:#f98e05;fill-opacity:1"
         id="path8232"
         inkscape:connector-curvature="0" />
      <path
         d="m 1243.167,278.38829 c 0,5.72 3.28,9.48 9.2,9.48 5.92,0 9.2,-3.76 9.2,-9.48 v -9.84 c 0,-5.72 -3.28,-9.48 -9.2,-9.48 -5.92,0 -9.2,3.76 -9.2,9.48 z m 13.12,0.68 c 0,2.44 -1.4,4.04 -3.92,4.04 -2.52,0 -3.92,-1.6 -3.92,-4.04 v -11.2 c 0,-2.44 1.4,-4.04 3.92,-4.04 2.52,0 3.92,1.6 3.92,4.04 z"
         style="font-style:normal;font-variant:normal;font-weight:bold;font-stretch:normal;font-family:'Simplon Norm';-inkscape-font-specification:'Simplon Norm Bold';fill:#f98e05;fill-opacity:1"
         id="path8234"
         inkscape:connector-curvature="0" />
      <path
         d="m 1273.9483,278.38829 c 0,5.72 3.28,9.48 9.2,9.48 5.92,0 9.2,-3.76 9.2,-9.48 v -9.84 c 0,-5.72 -3.28,-9.48 -9.2,-9.48 -5.92,0 -9.2,3.76 -9.2,9.48 z m 13.12,0.68 c 0,2.44 -1.4,4.04 -3.92,4.04 -2.52,0 -3.92,-1.6 -3.92,-4.04 v -11.2 c 0,-2.44 1.4,-4.04 3.92,-4.04 2.52,0 3.92,1.6 3.92,4.04 z"
         style="font-style:normal;font-variant:normal;font-weight:bold;font-stretch:normal;font-family:'Simplon Norm';-inkscape-font-specification:'Simplon Norm Bold';fill:#f98e05;fill-opacity:1"
         id="path8236"
         inkscape:connector-curvature="0" />
      <path
         d="m 1300.972,259.46829 -5.36,4.64 v 6.4 l 5.36,-4.64 v 21.6 h 5.28 v -28 z"
         style="font-style:normal;font-variant:normal;font-weight:bold;font-stretch:normal;font-family:'Simplon Norm';-inkscape-font-specification:'Simplon Norm Bold';fill:#f98e05;fill-opacity:1"
         id="path8238"
         inkscape:connector-curvature="0" />
      <path
         d="m 1315.6595,259.46829 -5.36,4.64 v 6.4 l 5.36,-4.64 v 21.6 h 5.28 v -28 z"
         style="font-style:normal;font-variant:normal;font-weight:bold;font-stretch:normal;font-family:'Simplon Norm';-inkscape-font-specification:'Simplon Norm Bold';fill:#f98e05;fill-opacity:1"
         id="path8240"
         inkscape:connector-curvature="0" />
      <path
         d="m 1325.667,278.38829 c 0,5.72 3.28,9.48 9.2,9.48 5.92,0 9.2,-3.76 9.2,-9.48 v -9.84 c 0,-5.72 -3.28,-9.48 -9.2,-9.48 -5.92,0 -9.2,3.76 -9.2,9.48 z m 13.12,0.68 c 0,2.44 -1.4,4.04 -3.92,4.04 -2.52,0 -3.92,-1.6 -3.92,-4.04 v -11.2 c 0,-2.44 1.4,-4.04 3.92,-4.04 2.52,0 3.92,1.6 3.92,4.04 z"
         style="font-style:normal;font-variant:normal;font-weight:bold;font-stretch:normal;font-family:'Simplon Norm';-inkscape-font-specification:'Simplon Norm Bold';fill:#f98e05;fill-opacity:1"
         id="path8242"
         inkscape:connector-curvature="0" />
      <path
         d="m 1348.0108,278.38829 c 0,5.72 3.28,9.48 9.2,9.48 5.92,0 9.2,-3.76 9.2,-9.48 v -9.84 c 0,-5.72 -3.28,-9.48 -9.2,-9.48 -5.92,0 -9.2,3.76 -9.2,9.48 z m 13.12,0.68 c 0,2.44 -1.4,4.04 -3.92,4.04 -2.52,0 -3.92,-1.6 -3.92,-4.04 v -11.2 c 0,-2.44 1.4,-4.04 3.92,-4.04 2.52,0 3.92,1.6 3.92,4.04 z"
         style="font-style:normal;font-variant:normal;font-weight:bold;font-stretch:normal;font-family:'Simplon Norm';-inkscape-font-specification:'Simplon Norm Bold';fill:#f98e05;fill-opacity:1"
         id="path8244"
         inkscape:connector-curvature="0" />
      <path
         d="m 1375.0345,259.46829 -5.36,4.64 v 6.4 l 5.36,-4.64 v 21.6 h 5.28 v -28 z"
         style="font-style:normal;font-variant:normal;font-weight:bold;font-stretch:normal;font-family:'Simplon Norm';-inkscape-font-specification:'Simplon Norm Bold';fill:#f98e05;fill-opacity:1"
         id="path8246"
         inkscape:connector-curvature="0" />
      <path
         d="m 1389.722,259.46829 -5.36,4.64 v 6.4 l 5.36,-4.64 v 21.6 h 5.28 v -28 z"
         style="font-style:normal;font-variant:normal;font-weight:bold;font-stretch:normal;font-family:'Simplon Norm';-inkscape-font-specification:'Simplon Norm Bold';fill:#f98e05;fill-opacity:1"
         id="path8248"
         inkscape:connector-curvature="0" />
      <path
         d="m 1399.7295,278.38829 c 0,5.72 3.28,9.48 9.2,9.48 5.92,0 9.2,-3.76 9.2,-9.48 v -9.84 c 0,-5.72 -3.28,-9.48 -9.2,-9.48 -5.92,0 -9.2,3.76 -9.2,9.48 z m 13.12,0.68 c 0,2.44 -1.4,4.04 -3.92,4.04 -2.52,0 -3.92,-1.6 -3.92,-4.04 v -11.2 c 0,-2.44 1.4,-4.04 3.92,-4.04 2.52,0 3.92,1.6 3.92,4.04 z"
         style="font-style:normal;font-variant:normal;font-weight:bold;font-stretch:normal;font-family:'Simplon Norm';-inkscape-font-specification:'Simplon Norm Bold';fill:#f98e05;fill-opacity:1"
         id="path8250"
         inkscape:connector-curvature="0" />
      <path
         d="m 1430.5108,278.38829 c 0,5.72 3.28,9.48 9.2,9.48 5.92,0 9.2,-3.76 9.2,-9.48 v -9.84 c 0,-5.72 -3.28,-9.48 -9.2,-9.48 -5.92,0 -9.2,3.76 -9.2,9.48 z m 13.12,0.68 c 0,2.44 -1.4,4.04 -3.92,4.04 -2.52,0 -3.92,-1.6 -3.92,-4.04 v -11.2 c 0,-2.44 1.4,-4.04 3.92,-4.04 2.52,0 3.92,1.6 3.92,4.04 z"
         style="font-style:normal;font-variant:normal;font-weight:bold;font-stretch:normal;font-family:'Simplon Norm';-inkscape-font-specification:'Simplon Norm Bold';fill:#f98e05;fill-opacity:1"
         id="path8252"
         inkscape:connector-curvature="0" />
      <path
         d="m 1457.5345,259.46829 -5.36,4.64 v 6.4 l 5.36,-4.64 v 21.6 h 5.28 v -28 z"
         style="font-style:normal;font-variant:normal;font-weight:bold;font-stretch:normal;font-family:'Simplon Norm';-inkscape-font-specification:'Simplon Norm Bold';fill:#f98e05;fill-opacity:1"
         id="path8254"
         inkscape:connector-curvature="0" />
      <path
         d="m 1472.222,259.46829 -5.36,4.64 v 6.4 l 5.36,-4.64 v 21.6 h 5.28 v -28 z"
         style="font-style:normal;font-variant:normal;font-weight:bold;font-stretch:normal;font-family:'Simplon Norm';-inkscape-font-specification:'Simplon Norm Bold';fill:#f98e05;fill-opacity:1"
         id="path8256"
         inkscape:connector-curvature="0" />
      <path
         d="m 1482.2295,278.38829 c 0,5.72 3.28,9.48 9.2,9.48 5.92,0 9.2,-3.76 9.2,-9.48 v -9.84 c 0,-5.72 -3.28,-9.48 -9.2,-9.48 -5.92,0 -9.2,3.76 -9.2,9.48 z m 13.12,0.68 c 0,2.44 -1.4,4.04 -3.92,4.04 -2.52,0 -3.92,-1.6 -3.92,-4.04 v -11.2 c 0,-2.44 1.4,-4.04 3.92,-4.04 2.52,0 3.92,1.6 3.92,4.04 z"
         style="font-style:normal;font-variant:normal;font-weight:bold;font-stretch:normal;font-family:'Simplon Norm';-inkscape-font-specification:'Simplon Norm Bold';fill:#f98e05;fill-opacity:1"
         id="path8258"
         inkscape:connector-curvature="0" />
      <path
         d="m 1504.5733,278.38829 c 0,5.72 3.28,9.48 9.2,9.48 5.92,0 9.2,-3.76 9.2,-9.48 v -9.84 c 0,-5.72 -3.28,-9.48 -9.2,-9.48 -5.92,0 -9.2,3.76 -9.2,9.48 z m 13.12,0.68 c 0,2.44 -1.4,4.04 -3.92,4.04 -2.52,0 -3.92,-1.6 -3.92,-4.04 v -11.2 c 0,-2.44 1.4,-4.04 3.92,-4.04 2.52,0 3.92,1.6 3.92,4.04 z"
         style="font-style:normal;font-variant:normal;font-weight:bold;font-stretch:normal;font-family:'Simplon Norm';-inkscape-font-specification:'Simplon Norm Bold';fill:#f98e05;fill-opacity:1"
         id="path8260"
         inkscape:connector-curvature="0" />
      <path
         d="m 1531.597,259.46829 -5.36,4.64 v 6.4 l 5.36,-4.64 v 21.6 h 5.28 v -28 z"
         style="font-style:normal;font-variant:normal;font-weight:bold;font-stretch:normal;font-family:'Simplon Norm';-inkscape-font-specification:'Simplon Norm Bold';fill:#f98e05;fill-opacity:1"
         id="path8262"
         inkscape:connector-curvature="0" />
      <path
         d="m 1541.6045,278.38829 c 0,5.72 3.28,9.48 9.2,9.48 5.92,0 9.2,-3.76 9.2,-9.48 v -9.84 c 0,-5.72 -3.28,-9.48 -9.2,-9.48 -5.92,0 -9.2,3.76 -9.2,9.48 z m 13.12,0.68 c 0,2.44 -1.4,4.04 -3.92,4.04 -2.52,0 -3.92,-1.6 -3.92,-4.04 v -11.2 c 0,-2.44 1.4,-4.04 3.92,-4.04 2.52,0 3.92,1.6 3.92,4.04 z"
         style="font-style:normal;font-variant:normal;font-weight:bold;font-stretch:normal;font-family:'Simplon Norm';-inkscape-font-specification:'Simplon Norm Bold';fill:#f98e05;fill-opacity:1"
         id="path8264"
         inkscape:connector-curvature="0" />
      <path
         d="m 1568.6283,259.46829 -5.36,4.64 v 6.4 l 5.36,-4.64 v 21.6 h 5.28 v -28 z"
         style="font-style:normal;font-variant:normal;font-weight:bold;font-stretch:normal;font-family:'Simplon Norm';-inkscape-font-specification:'Simplon Norm Bold';fill:#f98e05;fill-opacity:1"
         id="path8266"
         inkscape:connector-curvature="0" />
      <path
         d="m 1587.0733,278.38829 c 0,5.72 3.28,9.48 9.2,9.48 5.92,0 9.2,-3.76 9.2,-9.48 v -9.84 c 0,-5.72 -3.28,-9.48 -9.2,-9.48 -5.92,0 -9.2,3.76 -9.2,9.48 z m 13.12,0.68 c 0,2.44 -1.4,4.04 -3.92,4.04 -2.52,0 -3.92,-1.6 -3.92,-4.04 v -11.2 c 0,-2.44 1.4,-4.04 3.92,-4.04 2.52,0 3.92,1.6 3.92,4.04 z"
         style="font-style:normal;font-variant:normal;font-weight:bold;font-stretch:normal;font-family:'Simplon Norm';-inkscape-font-specification:'Simplon Norm Bold';fill:#f98e05;fill-opacity:1"
         id="path8268"
         inkscape:connector-curvature="0" />
      <path
         d="m 1614.097,259.46829 -5.36,4.64 v 6.4 l 5.36,-4.64 v 21.6 h 5.28 v -28 z"
         style="font-style:normal;font-variant:normal;font-weight:bold;font-stretch:normal;font-family:'Simplon Norm';-inkscape-font-specification:'Simplon Norm Bold';fill:#f98e05;fill-opacity:1"
         id="path8270"
         inkscape:connector-curvature="0" />
      <path
         d="m 1628.7845,259.46829 -5.36,4.64 v 6.4 l 5.36,-4.64 v 21.6 h 5.28 v -28 z"
         style="font-style:normal;font-variant:normal;font-weight:bold;font-stretch:normal;font-family:'Simplon Norm';-inkscape-font-specification:'Simplon Norm Bold';fill:#f98e05;fill-opacity:1"
         id="path8272"
         inkscape:connector-curvature="0" />
      <path
         d="m 1638.792,278.38829 c 0,5.72 3.28,9.48 9.2,9.48 5.92,0 9.2,-3.76 9.2,-9.48 v -9.84 c 0,-5.72 -3.28,-9.48 -9.2,-9.48 -5.92,0 -9.2,3.76 -9.2,9.48 z m 13.12,0.68 c 0,2.44 -1.4,4.04 -3.92,4.04 -2.52,0 -3.92,-1.6 -3.92,-4.04 v -11.2 c 0,-2.44 1.4,-4.04 3.92,-4.04 2.52,0 3.92,1.6 3.92,4.04 z"
         style="font-style:normal;font-variant:normal;font-weight:bold;font-stretch:normal;font-family:'Simplon Norm';-inkscape-font-specification:'Simplon Norm Bold';fill:#f98e05;fill-opacity:1"
         id="path8274"
         inkscape:connector-curvature="0" />
      <path
         d="m 1665.8158,259.46829 -5.36,4.64 v 6.4 l 5.36,-4.64 v 21.6 h 5.28 v -28 z"
         style="font-style:normal;font-variant:normal;font-weight:bold;font-stretch:normal;font-family:'Simplon Norm';-inkscape-font-specification:'Simplon Norm Bold';fill:#f98e05;fill-opacity:1"
         id="path8276"
         inkscape:connector-curvature="0" />
      <path
         d="m 1680.5033,259.46829 -5.36,4.64 v 6.4 l 5.36,-4.64 v 21.6 h 5.28 v -28 z"
         style="font-style:normal;font-variant:normal;font-weight:bold;font-stretch:normal;font-family:'Simplon Norm';-inkscape-font-specification:'Simplon Norm Bold';fill:#f98e05;fill-opacity:1"
         id="path8278"
         inkscape:connector-curvature="0" />
      <path
         d="m 1690.5108,278.38829 c 0,5.72 3.28,9.48 9.2,9.48 5.92,0 9.2,-3.76 9.2,-9.48 v -9.84 c 0,-5.72 -3.28,-9.48 -9.2,-9.48 -5.92,0 -9.2,3.76 -9.2,9.48 z m 13.12,0.68 c 0,2.44 -1.4,4.04 -3.92,4.04 -2.52,0 -3.92,-1.6 -3.92,-4.04 v -11.2 c 0,-2.44 1.4,-4.04 3.92,-4.04 2.52,0 3.92,1.6 3.92,4.04 z"
         style="font-style:normal;font-variant:normal;font-weight:bold;font-stretch:normal;font-family:'Simplon Norm';-inkscape-font-specification:'Simplon Norm Bold';fill:#f98e05;fill-opacity:1"
         id="path8280"
         inkscape:connector-curvature="0" />
      <path
         d="m 1717.5345,259.46829 -5.36,4.64 v 6.4 l 5.36,-4.64 v 21.6 h 5.28 v -28 z"
         style="font-style:normal;font-variant:normal;font-weight:bold;font-stretch:normal;font-family:'Simplon Norm';-inkscape-font-specification:'Simplon Norm Bold';fill:#f98e05;fill-opacity:1"
         id="path8282"
         inkscape:connector-curvature="0" />
      <path
         d="m 1735.9795,278.38829 c 0,5.72 3.28,9.48 9.2,9.48 5.92,0 9.2,-3.76 9.2,-9.48 v -9.84 c 0,-5.72 -3.28,-9.48 -9.2,-9.48 -5.92,0 -9.2,3.76 -9.2,9.48 z m 13.12,0.68 c 0,2.44 -1.4,4.04 -3.92,4.04 -2.52,0 -3.92,-1.6 -3.92,-4.04 v -11.2 c 0,-2.44 1.4,-4.04 3.92,-4.04 2.52,0 3.92,1.6 3.92,4.04 z"
         style="font-style:normal;font-variant:normal;font-weight:bold;font-stretch:normal;font-family:'Simplon Norm';-inkscape-font-specification:'Simplon Norm Bold';fill:#f98e05;fill-opacity:1"
         id="path8284"
         inkscape:connector-curvature="0" />
      <path
         d="m 1763.0033,259.46829 -5.36,4.64 v 6.4 l 5.36,-4.64 v 21.6 h 5.28 v -28 z"
         style="font-style:normal;font-variant:normal;font-weight:bold;font-stretch:normal;font-family:'Simplon Norm';-inkscape-font-specification:'Simplon Norm Bold';fill:#f98e05;fill-opacity:1"
         id="path8286"
         inkscape:connector-curvature="0" />
      <path
         d="m 1777.6908,259.46829 -5.36,4.64 v 6.4 l 5.36,-4.64 v 21.6 h 5.28 v -28 z"
         style="font-style:normal;font-variant:normal;font-weight:bold;font-stretch:normal;font-family:'Simplon Norm';-inkscape-font-specification:'Simplon Norm Bold';fill:#f98e05;fill-opacity:1"
         id="path8288"
         inkscape:connector-curvature="0" />
      <path
         d="m 1787.6983,278.38829 c 0,5.72 3.28,9.48 9.2,9.48 5.92,0 9.2,-3.76 9.2,-9.48 v -9.84 c 0,-5.72 -3.28,-9.48 -9.2,-9.48 -5.92,0 -9.2,3.76 -9.2,9.48 z m 13.12,0.68 c 0,2.44 -1.4,4.04 -3.92,4.04 -2.52,0 -3.92,-1.6 -3.92,-4.04 v -11.2 c 0,-2.44 1.4,-4.04 3.92,-4.04 2.52,0 3.92,1.6 3.92,4.04 z"
         style="font-style:normal;font-variant:normal;font-weight:bold;font-stretch:normal;font-family:'Simplon Norm';-inkscape-font-specification:'Simplon Norm Bold';fill:#f98e05;fill-opacity:1"
         id="path8290"
         inkscape:connector-curvature="0" />
      <path
         d="m 1810.042,278.38829 c 0,5.72 3.28,9.48 9.2,9.48 5.92,0 9.2,-3.76 9.2,-9.48 v -9.84 c 0,-5.72 -3.28,-9.48 -9.2,-9.48 -5.92,0 -9.2,3.76 -9.2,9.48 z m 13.12,0.68 c 0,2.44 -1.4,4.04 -3.92,4.04 -2.52,0 -3.92,-1.6 -3.92,-4.04 v -11.2 c 0,-2.44 1.4,-4.04 3.92,-4.04 2.52,0 3.92,1.6 3.92,4.04 z"
         style="font-style:normal;font-variant:normal;font-weight:bold;font-stretch:normal;font-family:'Simplon Norm';-inkscape-font-specification:'Simplon Norm Bold';fill:#f98e05;fill-opacity:1"
         id="path8292"
         inkscape:connector-curvature="0" />
      <path
         d="m 1837.0658,259.46829 -5.36,4.64 v 6.4 l 5.36,-4.64 v 21.6 h 5.28 v -28 z"
         style="font-style:normal;font-variant:normal;font-weight:bold;font-stretch:normal;font-family:'Simplon Norm';-inkscape-font-specification:'Simplon Norm Bold';fill:#f98e05;fill-opacity:1"
         id="path8294"
         inkscape:connector-curvature="0" />
      <path
         d="m 1847.0733,278.38829 c 0,5.72 3.28,9.48 9.2,9.48 5.92,0 9.2,-3.76 9.2,-9.48 v -9.84 c 0,-5.72 -3.28,-9.48 -9.2,-9.48 -5.92,0 -9.2,3.76 -9.2,9.48 z m 13.12,0.68 c 0,2.44 -1.4,4.04 -3.92,4.04 -2.52,0 -3.92,-1.6 -3.92,-4.04 v -11.2 c 0,-2.44 1.4,-4.04 3.92,-4.04 2.52,0 3.92,1.6 3.92,4.04 z"
         style="font-style:normal;font-variant:normal;font-weight:bold;font-stretch:normal;font-family:'Simplon Norm';-inkscape-font-specification:'Simplon Norm Bold';fill:#f98e05;fill-opacity:1"
         id="path8296"
         inkscape:connector-curvature="0" />
      <path
         d="m 1869.417,278.38829 c 0,5.72 3.28,9.48 9.2,9.48 5.92,0 9.2,-3.76 9.2,-9.48 v -9.84 c 0,-5.72 -3.28,-9.48 -9.2,-9.48 -5.92,0 -9.2,3.76 -9.2,9.48 z m 13.12,0.68 c 0,2.44 -1.4,4.04 -3.92,4.04 -2.52,0 -3.92,-1.6 -3.92,-4.04 v -11.2 c 0,-2.44 1.4,-4.04 3.92,-4.04 2.52,0 3.92,1.6 3.92,4.04 z"
         style="font-style:normal;font-variant:normal;font-weight:bold;font-stretch:normal;font-family:'Simplon Norm';-inkscape-font-specification:'Simplon Norm Bold';fill:#f98e05;fill-opacity:1"
         id="path8298"
         inkscape:connector-curvature="0" />
      <path
         d="m 1900.1983,278.38829 c 0,5.72 3.28,9.48 9.2,9.48 5.92,0 9.2,-3.76 9.2,-9.48 v -9.84 c 0,-5.72 -3.28,-9.48 -9.2,-9.48 -5.92,0 -9.2,3.76 -9.2,9.48 z m 13.12,0.68 c 0,2.44 -1.4,4.04 -3.92,4.04 -2.52,0 -3.92,-1.6 -3.92,-4.04 v -11.2 c 0,-2.44 1.4,-4.04 3.92,-4.04 2.52,0 3.92,1.6 3.92,4.04 z"
         style="font-style:normal;font-variant:normal;font-weight:bold;font-stretch:normal;font-family:'Simplon Norm';-inkscape-font-specification:'Simplon Norm Bold';fill:#f98e05;fill-opacity:1"
         id="path8300"
         inkscape:connector-curvature="0" />
      <path
         d="m 1927.222,259.46829 -5.36,4.64 v 6.4 l 5.36,-4.64 v 21.6 h 5.28 v -28 z"
         style="font-style:normal;font-variant:normal;font-weight:bold;font-stretch:normal;font-family:'Simplon Norm';-inkscape-font-specification:'Simplon Norm Bold';fill:#f98e05;fill-opacity:1"
         id="path8302"
         inkscape:connector-curvature="0" />
      <path
         d="m 1941.9095,259.46829 -5.36,4.64 v 6.4 l 5.36,-4.64 v 21.6 h 5.28 v -28 z"
         style="font-style:normal;font-variant:normal;font-weight:bold;font-stretch:normal;font-family:'Simplon Norm';-inkscape-font-specification:'Simplon Norm Bold';fill:#f98e05;fill-opacity:1"
         id="path8304"
         inkscape:connector-curvature="0" />
      <path
         d="m 1951.917,278.38829 c 0,5.72 3.28,9.48 9.2,9.48 5.92,0 9.2,-3.76 9.2,-9.48 v -9.84 c 0,-5.72 -3.28,-9.48 -9.2,-9.48 -5.92,0 -9.2,3.76 -9.2,9.48 z m 13.12,0.68 c 0,2.44 -1.4,4.04 -3.92,4.04 -2.52,0 -3.92,-1.6 -3.92,-4.04 v -11.2 c 0,-2.44 1.4,-4.04 3.92,-4.04 2.52,0 3.92,1.6 3.92,4.04 z"
         style="font-style:normal;font-variant:normal;font-weight:bold;font-stretch:normal;font-family:'Simplon Norm';-inkscape-font-specification:'Simplon Norm Bold';fill:#f98e05;fill-opacity:1"
         id="path8306"
         inkscape:connector-curvature="0" />
      <path
         d="m 1978.9408,259.46829 -5.36,4.64 v 6.4 l 5.36,-4.64 v 21.6 h 5.28 v -28 z"
         style="font-style:normal;font-variant:normal;font-weight:bold;font-stretch:normal;font-family:'Simplon Norm';-inkscape-font-specification:'Simplon Norm Bold';fill:#f98e05;fill-opacity:1"
         id="path8308"
         inkscape:connector-curvature="0" />
      <path
         d="m 1993.6283,259.46829 -5.36,4.64 v 6.4 l 5.36,-4.64 v 21.6 h 5.28 v -28 z"
         style="font-style:normal;font-variant:normal;font-weight:bold;font-stretch:normal;font-family:'Simplon Norm';-inkscape-font-specification:'Simplon Norm Bold';fill:#f98e05;fill-opacity:1"
         id="path8310"
         inkscape:connector-curvature="0" />
      <path
         d="m 2008.3158,259.46829 -5.36,4.64 v 6.4 l 5.36,-4.64 v 21.6 h 5.28 v -28 z"
         style="font-style:normal;font-variant:normal;font-weight:bold;font-stretch:normal;font-family:'Simplon Norm';-inkscape-font-specification:'Simplon Norm Bold';fill:#f98e05;fill-opacity:1"
         id="path8312"
         inkscape:connector-curvature="0" />
      <path
         d="m 2023.0033,259.46829 -5.36,4.64 v 6.4 l 5.36,-4.64 v 21.6 h 5.28 v -28 z"
         style="font-style:normal;font-variant:normal;font-weight:bold;font-stretch:normal;font-family:'Simplon Norm';-inkscape-font-specification:'Simplon Norm Bold';fill:#f98e05;fill-opacity:1"
         id="path8314"
         inkscape:connector-curvature="0" />
      <path
         d="m 2041.4483,278.38829 c 0,5.72 3.28,9.48 9.2,9.48 5.92,0 9.2,-3.76 9.2,-9.48 v -9.84 c 0,-5.72 -3.28,-9.48 -9.2,-9.48 -5.92,0 -9.2,3.76 -9.2,9.48 z m 13.12,0.68 c 0,2.44 -1.4,4.04 -3.92,4.04 -2.52,0 -3.92,-1.6 -3.92,-4.04 v -11.2 c 0,-2.44 1.4,-4.04 3.92,-4.04 2.52,0 3.92,1.6 3.92,4.04 z"
         style="font-style:normal;font-variant:normal;font-weight:bold;font-stretch:normal;font-family:'Simplon Norm';-inkscape-font-specification:'Simplon Norm Bold';fill:#f98e05;fill-opacity:1"
         id="path8316"
         inkscape:connector-curvature="0" />
      <path
         d="m 2068.472,259.46829 -5.36,4.64 v 6.4 l 5.36,-4.64 v 21.6 h 5.28 v -28 z"
         style="font-style:normal;font-variant:normal;font-weight:bold;font-stretch:normal;font-family:'Simplon Norm';-inkscape-font-specification:'Simplon Norm Bold';fill:#f98e05;fill-opacity:1"
         id="path8318"
         inkscape:connector-curvature="0" />
      <path
         d="m 2083.1595,259.46829 -5.36,4.64 v 6.4 l 5.36,-4.64 v 21.6 h 5.28 v -28 z"
         style="font-style:normal;font-variant:normal;font-weight:bold;font-stretch:normal;font-family:'Simplon Norm';-inkscape-font-specification:'Simplon Norm Bold';fill:#f98e05;fill-opacity:1"
         id="path8320"
         inkscape:connector-curvature="0" />
      <path
         d="m 2093.167,278.38829 c 0,5.72 3.28,9.48 9.2,9.48 5.92,0 9.2,-3.76 9.2,-9.48 v -9.84 c 0,-5.72 -3.28,-9.48 -9.2,-9.48 -5.92,0 -9.2,3.76 -9.2,9.48 z m 13.12,0.68 c 0,2.44 -1.4,4.04 -3.92,4.04 -2.52,0 -3.92,-1.6 -3.92,-4.04 v -11.2 c 0,-2.44 1.4,-4.04 3.92,-4.04 2.52,0 3.92,1.6 3.92,4.04 z"
         style="font-style:normal;font-variant:normal;font-weight:bold;font-stretch:normal;font-family:'Simplon Norm';-inkscape-font-specification:'Simplon Norm Bold';fill:#f98e05;fill-opacity:1"
         id="path8322"
         inkscape:connector-curvature="0" />
      <path
         d="m 2120.1908,259.46829 -5.36,4.64 v 6.4 l 5.36,-4.64 v 21.6 h 5.28 v -28 z"
         style="font-style:normal;font-variant:normal;font-weight:bold;font-stretch:normal;font-family:'Simplon Norm';-inkscape-font-specification:'Simplon Norm Bold';fill:#f98e05;fill-opacity:1"
         id="path8324"
         inkscape:connector-curvature="0" />
      <path
         d="m 2134.8783,259.46829 -5.36,4.64 v 6.4 l 5.36,-4.64 v 21.6 h 5.28 v -28 z"
         style="font-style:normal;font-variant:normal;font-weight:bold;font-stretch:normal;font-family:'Simplon Norm';-inkscape-font-specification:'Simplon Norm Bold';fill:#f98e05;fill-opacity:1"
         id="path8326"
         inkscape:connector-curvature="0" />
      <path
         d="m 2144.8858,278.38829 c 0,5.72 3.28,9.48 9.2,9.48 5.92,0 9.2,-3.76 9.2,-9.48 v -9.84 c 0,-5.72 -3.28,-9.48 -9.2,-9.48 -5.92,0 -9.2,3.76 -9.2,9.48 z m 13.12,0.68 c 0,2.44 -1.4,4.04 -3.92,4.04 -2.52,0 -3.92,-1.6 -3.92,-4.04 v -11.2 c 0,-2.44 1.4,-4.04 3.92,-4.04 2.52,0 3.92,1.6 3.92,4.04 z"
         style="font-style:normal;font-variant:normal;font-weight:bold;font-stretch:normal;font-family:'Simplon Norm';-inkscape-font-specification:'Simplon Norm Bold';fill:#f98e05;fill-opacity:1"
         id="path8328"
         inkscape:connector-curvature="0" />
      <path
         d="m 2171.9095,259.46829 -5.36,4.64 v 6.4 l 5.36,-4.64 v 21.6 h 5.28 v -28 z"
         style="font-style:normal;font-variant:normal;font-weight:bold;font-stretch:normal;font-family:'Simplon Norm';-inkscape-font-specification:'Simplon Norm Bold';fill:#f98e05;fill-opacity:1"
         id="path8330"
         inkscape:connector-curvature="0" />
    </g>
  </g>
</svg>
