<?xml version="1.0" encoding="UTF-8" standalone="no"?>
<svg
   xmlns:dc="http://purl.org/dc/elements/1.1/"
   xmlns:cc="http://creativecommons.org/ns#"
   xmlns:rdf="http://www.w3.org/1999/02/22-rdf-syntax-ns#"
   xmlns:svg="http://www.w3.org/2000/svg"
   xmlns="http://www.w3.org/2000/svg"
   xmlns:sodipodi="http://sodipodi.sourceforge.net/DTD/sodipodi-0.dtd"
   xmlns:inkscape="http://www.inkscape.org/namespaces/inkscape"
   version="1.1"
   x="0px"
   y="0px"
   viewBox="0 0 78.203003 90.000252"
   enable-background="new 0 0 100 100"
   xml:space="preserve"
   id="svg20961"
   sodipodi:docname="cube.svg"
   width="78.203003"
   height="90.000252"
   inkscape:version="0.92.4 (f8dce91, 2019-08-02)"><metadata
     id="metadata20967"><rdf:RDF><cc:Work
         rdf:about=""><dc:format>image/svg+xml</dc:format><dc:type
           rdf:resource="http://purl.org/dc/dcmitype/StillImage" /><dc:title></dc:title></cc:Work></rdf:RDF></metadata><defs
     id="defs20965" /><sodipodi:namedview
     pagecolor="#ffffff"
     bordercolor="#666666"
     borderopacity="1"
     objecttolerance="10"
     gridtolerance="10"
     guidetolerance="10"
     inkscape:pageopacity="0"
     inkscape:pageshadow="2"
     inkscape:window-width="1920"
     inkscape:window-height="1025"
     id="namedview20963"
     showgrid="false"
     inkscape:zoom="6.752"
     inkscape:cx="39.102"
     inkscape:cy="50.272512"
     inkscape:window-x="0"
     inkscape:window-y="27"
     inkscape:window-maximized="1"
     inkscape:current-layer="svg20961" /><g
     id="g20955"
     transform="translate(-10.898,-4.99975)"><g
       id="g20953"><path
         d="M 88.613,27.142 50.489,5.131 c -0.303,-0.175 -0.675,-0.175 -0.979,0 L 11.387,27.142 c -0.303,0.175 -0.489,0.498 -0.489,0.847 V 72.01 c 0,0.352 0.186,0.674 0.489,0.848 L 49.511,94.87 C 49.663,94.957 49.831,95 50,95 c 0.169,0 0.338,-0.043 0.489,-0.131 L 88.611,72.857 c 0.304,-0.174 0.49,-0.498 0.49,-0.848 v -44.02 c 0.001,-0.349 -0.185,-0.672 -0.488,-0.847 z m -1.468,44.14 -0.142,0.245 -16.963,9.795 V 62.417 l 1.833,1.06 0.734,-1.271 -1.834,-1.06 16.371,-9.453 V 71.282 Z M 50.979,70.316 V 50.729 l 0.142,-0.246 16.964,-9.794 v 18.904 l -1.834,-1.059 -0.732,1.271 1.834,1.061 z M 50.142,7.19 67.105,16.984 50.734,26.436 v -2.117 h -1.466 v 2.118 L 32.896,16.985 49.859,7.19 Z M 32.65,60.864 34.484,59.804 33.75,58.533 31.916,59.592 V 40.689 l 16.964,9.794 0.142,0.246 v 19.588 z m -2.69,0.894 -0.162,-0.281 0.162,0.094 z M 49.267,29.543 v 2.117 h 1.467 V 29.544 L 67.105,38.996 50.142,48.79 H 49.858 L 32.895,38.996 Z m 0.57,-2.777 h 0.326 L 50,26.86 Z M 31.916,60.439 v -0.188 l 0.163,0.282 z M 50,29.119 l 0.161,0.093 h -0.322 z m 19.063,8.746 -0.164,-0.094 h 0.326 z m -38.125,0 -0.163,-0.094 H 31.1 Z M 29.96,39.56 v 0.187 l -0.162,-0.281 z m 38.124,20.881 -0.163,0.094 0.163,-0.283 z M 70.04,40.689 86.167,50 70.04,59.311 Z M 87.145,48.306 71.018,38.995 87.145,29.684 Z M 69.796,37.441 v -2.117 h -1.467 v 2.117 L 51.958,27.989 68.922,18.195 h 0.283 l 16.964,9.794 z M 30.797,18.195 h 0.283 l 16.964,9.794 -16.371,9.452 v -2.117 h -1.467 v 2.117 L 13.835,27.989 Z m -1.571,20.941 -1.833,1.059 0.734,1.271 1.833,-1.059 V 59.31 L 12.997,49.517 12.855,49.272 V 29.684 Z M 12.855,71.282 V 51.695 l 16.371,9.451 -1.833,1.059 0.734,1.271 1.833,-1.06 V 81.321 L 12.997,71.526 Z M 31.916,82.287 V 62.7 l 16.371,9.452 -1.833,1.059 0.734,1.271 1.834,-1.061 V 92.326 L 32.059,82.532 Z m 17.106,-9.523 -0.163,-0.281 0.163,0.095 z m 1.957,-0.188 0.162,-0.094 -0.162,0.281 z M 70.202,61.477 70.04,61.758 V 61.57 Z m -19.223,11.946 1.832,1.06 0.734,-1.271 -1.833,-1.06 16.372,-9.452 v 19.587 l -0.143,0.247 -16.963,9.793 V 73.423 Z"
         id="path20885"
         style="fill:#1b1b1b;fill-opacity:1"
         inkscape:connector-curvature="0" /><rect
         x="49.266998"
         y="14.531"
         width="1.467"
         height="2.447"
         id="rect20887"
         style="fill:#f98e05;fill-opacity:1" /><rect
         x="49.266998"
         y="19.424"
         width="1.467"
         height="2.447"
         id="rect20889"
         style="fill:#f98e05;fill-opacity:1" /><rect
         x="49.266998"
         y="9.6359997"
         width="1.467"
         height="2.447"
         id="rect20891"
         style="fill:#f98e05;fill-opacity:1" /><rect
         x="49.266998"
         y="34.105999"
         width="1.467"
         height="2.447"
         id="rect20893"
         style="fill:#f98e05;fill-opacity:1" /><rect
         x="49.266998"
         y="39"
         width="1.467"
         height="2.447"
         id="rect20895"
         style="fill:#f98e05;fill-opacity:1" /><rect
         x="49.266998"
         y="43.894001"
         width="1.467"
         height="2.447"
         id="rect20897"
         style="fill:#f98e05;fill-opacity:1" /><rect
         x="36.560001"
         y="56.111"
         transform="matrix(-0.4999,-0.8661,0.8661,-0.4999,6.2801,118.2952)"
         width="1.4680001"
         height="2.447"
         id="rect20899"
         style="fill:#f98e05;fill-opacity:1" /><rect
         x="40.796001"
         y="53.661999"
         transform="matrix(-0.5002,-0.8659,0.8659,-0.5002,14.7786,118.3004)"
         width="1.466"
         height="2.447"
         id="rect20901"
         style="fill:#f98e05;fill-opacity:1" /><rect
         x="44.549999"
         y="51.712002"
         transform="matrix(0.866,-0.5,0.5,0.866,-20.0913,29.9167)"
         width="2.447"
         height="1.467"
         id="rect20903"
         style="fill:#f98e05;fill-opacity:1" /><rect
         x="23.846001"
         y="63.446999"
         transform="matrix(-0.5002,-0.8659,0.8659,-0.5002,-19.1239,118.3039)"
         width="1.466"
         height="2.448"
         id="rect20905"
         style="fill:#f98e05;fill-opacity:1" /><rect
         x="19.608999"
         y="65.897003"
         transform="matrix(-0.5002,-0.8659,0.8659,-0.5002,-27.6024,118.3079)"
         width="1.467"
         height="2.447"
         id="rect20907"
         style="fill:#f98e05;fill-opacity:1" /><rect
         x="15.369"
         y="68.344002"
         transform="matrix(-0.4999,-0.8661,0.8661,-0.4999,-36.0993,118.2909)"
         width="1.4680001"
         height="2.447"
         id="rect20909"
         style="fill:#f98e05;fill-opacity:1" /><rect
         x="61.486"
         y="56.599998"
         transform="matrix(-0.866,-0.5,0.5,-0.866,88.3472,138.343)"
         width="2.447"
         height="1.467"
         id="rect20911"
         style="fill:#f98e05;fill-opacity:1" /><rect
         x="78.424004"
         y="66.389999"
         transform="matrix(0.8663,0.4996,-0.4996,0.8663,44.1845,-30.8136)"
         width="2.447"
         height="1.4680001"
         id="rect20913"
         style="fill:#f98e05;fill-opacity:1" /><rect
         x="82.675003"
         y="68.838997"
         transform="matrix(0.8662,0.4997,-0.4997,0.8662,45.9968,-32.6168)"
         width="2.447"
         height="1.4680001"
         id="rect20915"
         style="fill:#f98e05;fill-opacity:1" /><rect
         x="74.189003"
         y="63.945"
         transform="matrix(0.866,0.5,-0.5,0.866,42.4476,-29.0427)"
         width="2.447"
         height="1.467"
         id="rect20917"
         style="fill:#f98e05;fill-opacity:1" /><rect
         x="57.247002"
         y="54.153"
         transform="matrix(-0.8658,-0.5003,0.5003,-0.8658,81.6354,131.663)"
         width="2.448"
         height="1.466"
         id="rect20919"
         style="fill:#f98e05;fill-opacity:1" /><rect
         x="53.007999"
         y="51.706001"
         transform="matrix(-0.8658,-0.5003,0.5003,-0.8658,74.9487,124.9773)"
         width="2.448"
         height="1.467"
         id="rect20921"
         style="fill:#f98e05;fill-opacity:1" /><rect
         x="59.376999"
         y="77.391998"
         transform="matrix(-0.8663,-0.4996,0.4996,-0.8663,74.0676,176.0787)"
         width="2.447"
         height="1.4680001"
         id="rect20923"
         style="fill:#f98e05;fill-opacity:1" /><rect
         x="55.132999"
         y="74.943001"
         transform="matrix(-0.8662,-0.4997,0.4997,-0.8662,67.3511,169.3886)"
         width="2.447"
         height="1.467"
         id="rect20925"
         style="fill:#f98e05;fill-opacity:1" /><rect
         x="64.102997"
         y="79.358002"
         transform="matrix(0.5004,-0.8658,0.8658,0.5004,-37.3751,96.3901)"
         width="1.467"
         height="2.448"
         id="rect20927"
         style="fill:#f98e05;fill-opacity:1" /><rect
         x="38.669998"
         y="76.898003"
         transform="matrix(-0.5,-0.866,0.866,-0.5,-8.5538,151.3054)"
         width="1.466"
         height="2.448"
         id="rect20929"
         style="fill:#f98e05;fill-opacity:1" /><rect
         x="34.428001"
         y="79.348"
         transform="matrix(-0.4996,-0.8662,0.8662,-0.4996,-17.0629,151.2867)"
         width="1.4680001"
         height="2.447"
         id="rect20931"
         style="fill:#f98e05;fill-opacity:1" /><rect
         x="42.903999"
         y="74.453003"
         transform="matrix(-0.4999,-0.8661,0.8661,-0.4999,-0.0876,151.3029)"
         width="1.467"
         height="2.447"
         id="rect20933"
         style="fill:#f98e05;fill-opacity:1" /><rect
         x="68.328003"
         y="30.43"
         width="1.467"
         height="2.447"
         id="rect20935"
         style="fill:#f98e05;fill-opacity:1" /><rect
         x="68.328003"
         y="20.642"
         width="1.467"
         height="2.447"
         id="rect20937"
         style="fill:#f98e05;fill-opacity:1" /><rect
         x="68.328003"
         y="25.535999"
         width="1.467"
         height="2.447"
         id="rect20939"
         style="fill:#f98e05;fill-opacity:1" /><rect
         x="30.204"
         y="20.642"
         width="1.467"
         height="2.447"
         id="rect20941"
         style="fill:#f98e05;fill-opacity:1" /><rect
         x="30.204"
         y="30.43"
         width="1.467"
         height="2.447"
         id="rect20943"
         style="fill:#f98e05;fill-opacity:1" /><rect
         x="30.204"
         y="25.535999"
         width="1.467"
         height="2.447"
         id="rect20945"
         style="fill:#f98e05;fill-opacity:1" /><rect
         x="19.611"
         y="43.890999"
         transform="matrix(0.4999,0.8661,-0.8661,0.4999,49.246,4.9405)"
         width="1.467"
         height="2.447"
         id="rect20947"
         style="fill:#f98e05;fill-opacity:1" /><rect
         x="14.883"
         y="46.824001"
         transform="matrix(-0.8659,0.5003,-0.5003,-0.8659,53.8438,80.679)"
         width="2.447"
         height="1.467"
         id="rect20949"
         style="fill:#f98e05;fill-opacity:1" /><rect
         x="23.85"
         y="41.444"
         transform="matrix(0.4999,0.8661,-0.8661,0.4999,49.2465,0.0456)"
         width="1.467"
         height="2.447"
         id="rect20951"
         style="fill:#f98e05;fill-opacity:1" /></g></g></svg>