<?xml version="1.0" encoding="UTF-8" standalone="no"?>
<!-- Created with Inkscape (http://www.inkscape.org/) -->

<svg
   xmlns:dc="http://purl.org/dc/elements/1.1/"
   xmlns:cc="http://creativecommons.org/ns#"
   xmlns:rdf="http://www.w3.org/1999/02/22-rdf-syntax-ns#"
   xmlns:svg="http://www.w3.org/2000/svg"
   xmlns="http://www.w3.org/2000/svg"
   xmlns:sodipodi="http://sodipodi.sourceforge.net/DTD/sodipodi-0.dtd"
   xmlns:inkscape="http://www.inkscape.org/namespaces/inkscape"
   viewBox="0 0 344 323.13699"
   version="1.1"
   id="svg18649"
   inkscape:version="0.92.4 (f8dce91, 2019-08-02)"
   sodipodi:docname="deco.svg">
  <defs
     id="defs18643" />
  <sodipodi:namedview
     id="base"
     pagecolor="#ffffff"
     bordercolor="#666666"
     borderopacity="1.0"
     inkscape:pageopacity="0.0"
     inkscape:pageshadow="2"
     inkscape:zoom="0.35"
     inkscape:cx="591.94587"
     inkscape:cy="764.02309"
     inkscape:document-units="mm"
     inkscape:current-layer="layer1"
     showgrid="false"
     inkscape:window-width="1920"
     inkscape:window-height="1025"
     inkscape:window-x="0"
     inkscape:window-y="27"
     inkscape:window-maximized="1" />
  <metadata
     id="metadata18646">
    <rdf:RDF>
      <cc:Work
         rdf:about="">
        <dc:format>image/svg+xml</dc:format>
        <dc:type
           rdf:resource="http://purl.org/dc/dcmitype/StillImage" />
        <dc:title></dc:title>
      </cc:Work>
    </rdf:RDF>
  </metadata>
  <g
     inkscape:label="Layer 1"
     inkscape:groupmode="layer"
     id="layer1"
     transform="translate(183.8333,47.184513)">
    <path
       style="display:inline;fill:#f98305;fill-opacity:1;stroke-width:0.30194893"
       id="path19983-7"
       d="M 101.58947,9.90008 A 45.407083,45.407083 0 0 0 59.370951,-35.392258 v 6.389236 c 20.037338,1.6275 35.844371,18.452099 35.844371,38.903102 0,20.45098 -15.807033,37.27556 -35.844371,38.903072 V 55.19241 A 45.407083,45.407083 0 0 0 101.58947,9.90008 Z"
       class="cls-1"
       inkscape:connector-curvature="0" />
    <path
       style="display:inline;fill:#f98305;fill-opacity:1;stroke-width:0.30194893"
       id="path19985-9"
       d="m 17.152485,9.90008 c 0,-20.451003 15.807019,-37.275602 35.844328,-38.903102 v -6.389236 a 45.404063,45.404063 0 0 0 0,90.584668 V 48.803152 C 32.959504,47.17564 17.152485,30.35106 17.152485,9.90008 Z"
       class="cls-1"
       inkscape:connector-curvature="0" />
    <path
       style="display:inline;fill:#f98305;fill-opacity:1;stroke-width:0.30194893"
       id="path19987-2"
       d="M 40.650147,-17.003576 A 31.070547,31.070547 0 0 0 27.826379,22.581925 l 5.561894,-3.212741 A 24.687346,24.687346 0 0 1 75.790939,-5.1128289 l 5.564917,-3.2097163 A 31.070547,31.070547 0 0 0 40.650147,-17.003576 Z"
       class="cls-1"
       inkscape:connector-curvature="0" />
    <path
       style="display:inline;fill:#f98305;fill-opacity:1;stroke-width:0.30194893"
       id="path19989-0"
       d="m 68.532084,31.287092 a 24.732638,24.732638 0 0 1 -31.958243,-6.3862 l -5.564917,3.209717 A 31.070547,31.070547 0 0 0 84.541409,-2.7817754 l -5.56189,3.20065495 A 24.729619,24.729619 0 0 1 68.532084,31.287092 Z"
       class="cls-1"
       inkscape:connector-curvature="0" />
    <path
       style="display:inline;fill:#f98305;fill-opacity:1;stroke-width:0.30194893"
       id="path19991-2"
       d="m 64.546358,-4.5934691 a 16.730991,16.730991 0 0 0 -20.991487,3.5176986 l 5.688717,3.2852083 A 10.353829,10.353829 0 0 1 66.309732,12.062015 L 71.99845,15.3442 A 16.730991,16.730991 0 0 0 64.546358,-4.5934691 Z"
       class="cls-1"
       inkscape:connector-curvature="0" />
    <path
       style="display:inline;fill:#f98305;fill-opacity:1;stroke-width:0.30194893"
       id="path19993-3"
       d="M 51.006963,18.867946 A 10.371946,10.371946 0 0 1 46.058021,7.732085 L 40.369337,4.464999 a 16.727972,16.727972 0 0 0 28.443556,16.41997 l -5.691742,-3.285208 a 10.365907,10.365907 0 0 1 -12.114188,1.268185 z"
       class="cls-1"
       inkscape:connector-curvature="0" />
    <path
       style="display:inline;fill:#1b1b1b;fill-opacity:1;stroke-width:0.25288805"
       id="path19983-7-4"
       d="m 115.71276,179.50122 a 38.029309,38.029309 0 0 0 37.93321,-35.35883 h -5.35111 c -1.36305,16.78166 -15.45399,30.02036 -32.5821,30.02036 -17.1281,0 -31.219036,-13.2387 -32.582095,-30.02036 h -5.351112 a 38.029309,38.029309 0 0 0 37.933207,35.35883 z"
       class="cls-1"
       inkscape:connector-curvature="0" />
    <path
       style="display:inline;fill:#1b1b1b;fill-opacity:1;stroke-width:0.25288805"
       id="path19985-9-4"
       d="m 115.71276,108.78362 c 17.12811,0 31.21905,13.23868 32.5821,30.02031 h 5.35111 a 38.026779,38.026779 0 0 0 -75.866417,0 h 5.351112 C 84.493724,122.0223 98.58466,108.78362 115.71276,108.78362 Z"
       class="cls-1"
       inkscape:connector-curvature="0" />
    <path
       style="display:inline;fill:#1b1b1b;fill-opacity:1;stroke-width:0.25288805"
       id="path19987-2-3"
       d="m 138.24509,128.46337 a 26.022183,26.022183 0 0 0 -33.15363,-10.74015 l 2.69074,4.65819 a 20.676128,20.676128 0 0 1 20.50415,35.51305 l 2.6882,4.66072 a 26.022183,26.022183 0 0 0 7.27054,-34.09181 z"
       class="cls-1"
       inkscape:connector-curvature="0" />
    <path
       style="display:inline;fill:#1b1b1b;fill-opacity:1;stroke-width:0.25288805"
       id="path19989-0-0"
       d="m 97.800712,151.81504 a 20.714062,20.714062 0 0 1 5.348578,-26.76566 l -2.68821,-4.66072 a 26.022183,26.022183 0 0 0 25.87299,44.8345 l -2.68062,-4.65821 a 20.711533,20.711533 0 0 1 -25.852738,-8.74991 z"
       class="cls-1"
       inkscape:connector-curvature="0" />
    <path
       style="display:inline;fill:#1b1b1b;fill-opacity:1;stroke-width:0.25288805"
       id="path19991-2-7"
       d="m 127.85139,148.4769 a 14.012528,14.012528 0 0 0 -2.94614,-17.58076 l -2.75142,4.7644 a 8.6715321,8.6715321 0 0 1 -8.25174,14.29324 l -2.7489,4.76439 a 14.012528,14.012528 0 0 0 16.6982,-6.24127 z"
       class="cls-1"
       inkscape:connector-curvature="0" />
    <path
       style="display:inline;fill:#1b1b1b;fill-opacity:1;stroke-width:0.25288805"
       id="path19993-3-8"
       d="m 108.20198,137.13741 a 8.6867051,8.6867051 0 0 1 9.32652,-4.14484 l 2.73624,-4.76438 a 14.01,14.01 0 0 0 -13.75204,23.82202 l 2.75142,-4.76693 a 8.6816475,8.6816475 0 0 1 -1.06214,-10.14587 z"
       class="cls-1"
       inkscape:connector-curvature="0" />
    <path
       style="display:inline;fill:#1b1b1b;fill-opacity:1;stroke-width:0.43027329"
       id="path19983-7-4-6"
       d="M -116.91872,84.114573 A 64.704506,64.704506 0 0 0 -52.377642,23.95373 h -9.104611 c -2.319161,28.552937 -26.294005,51.07775 -55.436467,51.07775 -29.14239,0 -53.11726,-22.524813 -55.43642,-51.07775 h -9.10455 a 64.704506,64.704506 0 0 0 64.54097,60.160843 z"
       class="cls-1"
       inkscape:connector-curvature="0" />
    <path
       style="display:inline;fill:#1b1b1b;fill-opacity:1;stroke-width:0.43027329"
       id="path19985-9-4-8"
       d="m -116.91872,-36.207039 c 29.142462,0 53.117306,22.524796 55.436467,51.07769 h 9.104611 a 64.700201,64.700201 0 0 0 -129.082048,0 h 9.10455 c 2.31916,-28.552894 26.29403,-51.07769 55.43642,-51.07769 z"
       class="cls-1"
       inkscape:connector-curvature="0" />
    <path
       style="display:inline;fill:#1b1b1b;fill-opacity:1;stroke-width:0.43027329"
       id="path19987-2-3-8"
       d="M -78.581306,-2.7231639 A 44.275128,44.275128 0 0 0 -134.99019,-20.996869 l 4.57813,7.925632 a 35.179148,35.179148 0 0 1 34.886579,60.423235 l 4.57381,7.929924 a 44.275128,44.275128 0 0 0 12.370365,-58.0050859 z"
       class="cls-1"
       inkscape:connector-curvature="0" />
    <path
       style="display:inline;fill:#1b1b1b;fill-opacity:1;stroke-width:0.43027329"
       id="path19989-0-0-4"
       d="m -147.39495,37.008253 a 35.243691,35.243691 0 0 1 9.10025,-45.540124 l -4.5738,-7.929932 a 44.275128,44.275128 0 0 0 44.021326,76.28312 l -4.560906,-7.925627 a 35.239386,35.239386 0 0 1 -43.98687,-14.887437 z"
       class="cls-1"
       inkscape:connector-curvature="0" />
    <path
       style="display:inline;fill:#1b1b1b;fill-opacity:1;stroke-width:0.43027329"
       id="path19991-2-7-3"
       d="M -96.265542,31.328625 A 23.841445,23.841445 0 0 0 -101.27821,1.4160261 l -4.68139,8.1063378 a 14.754073,14.754073 0 0 1 -14.03985,24.3190671 l -4.67707,8.106332 a 23.841445,23.841445 0 0 0 28.410978,-10.619138 z"
       class="cls-1"
       inkscape:connector-curvature="0" />
    <path
       style="display:inline;fill:#1b1b1b;fill-opacity:1;stroke-width:0.43027329"
       id="path19993-3-8-1"
       d="m -129.69783,12.03517 a 14.779889,14.779889 0 0 1 15.86853,-7.0521969 l 4.65555,-8.1062885 a 23.837144,23.837144 0 0 0 -23.39829,40.5316894 l 4.68138,-8.110633 a 14.771284,14.771284 0 0 1 -1.80717,-17.262571 z"
       class="cls-1"
       inkscape:connector-curvature="0" />
    <path
       style="display:inline;fill:#f98e05;fill-opacity:1;stroke-width:0.28181902"
       id="path19983-7-4-4"
       d="m 38.392076,143.66698 a 42.379945,42.379945 0 0 0 3.314983,-57.694689 l -4.309594,4.121681 c 11.828277,14.565238 10.677033,36.080698 -3.117334,49.273608 -13.794344,13.19287 -35.3398158,13.38441 -49.363614,0.91897 l -4.309595,4.12168 a 42.379945,42.379945 0 0 0 57.785154,-0.74125 z"
       class="cls-1"
       inkscape:connector-curvature="0" />
    <path
       style="display:inline;fill:#f98e05;fill-opacity:1;stroke-width:0.28181902"
       id="path19985-9-4-9"
       d="M -16.07806,86.713585 C -2.283705,73.520704 19.261744,73.329149 33.285519,85.794557 l 4.309595,-4.12167 a 42.377127,42.377127 0 0 0 -61.100137,58.435933 l 4.309582,-4.12168 C -31.023683,121.42192 -29.872427,99.906469 -16.07806,86.713585 Z"
       class="cls-1"
       inkscape:connector-curvature="0" />
    <path
       style="display:inline;fill:#f98e05;fill-opacity:1;stroke-width:0.28181902"
       id="path19987-2-3-2"
       d="m 17.227021,85.207465 a 28.999177,28.999177 0 0 0 -34.973392,16.886765 l 5.754989,1.67902 a 23.041523,23.041523 0 0 1 43.867215,12.80764 l 5.754898,1.68298 A 28.999177,28.999177 0 0 0 17.227021,85.207465 Z"
       class="cls-1"
       inkscape:connector-curvature="0" />
    <path
       style="display:inline;fill:#f98e05;fill-opacity:1;stroke-width:0.28181902"
       id="path19989-0-0-0"
       d="M 2.6411004,135.16624 A 23.083796,23.083796 0 0 1 -13.667578,109.49042 l -5.754909,-1.683 A 28.999177,28.999177 0 0 0 35.94844,123.98689 L 30.2016,122.30008 A 23.080978,23.080978 0 0 1 2.6411004,135.16624 Z"
       class="cls-1"
       inkscape:connector-curvature="0" />
    <path
       style="display:inline;fill:#f98e05;fill-opacity:1;stroke-width:0.28181902"
       id="path19991-2-7-6"
       d="M 24.271684,109.33137 A 15.61559,15.61559 0 0 0 8.3574131,97.441698 l 1.4538626,5.956362 a 9.6635745,9.6635745 0 0 1 4.3637113,17.86713 l 1.455906,5.95442 a 15.61559,15.61559 0 0 0 8.640791,-17.88824 z"
       class="cls-1"
       inkscape:connector-curvature="0" />
    <path
       style="display:inline;fill:#f98e05;fill-opacity:1;stroke-width:0.28181902"
       id="path19993-3-8-8"
       d="M -0.28752102,115.33385 A 9.6804834,9.6804834 0 0 1 4.0311803,104.81202 L 2.5650948,98.867384 a 15.612774,15.612774 0 0 0 7.2735133,29.777866 l -1.4558368,-5.95841 a 9.6748467,9.6748467 0 0 1 -8.67029232,-7.35299 z"
       class="cls-1"
       inkscape:connector-curvature="0" />
    <path
       style="display:inline;fill:#f98e05;fill-opacity:1;stroke-width:0.39236856"
       id="path19983-7-4-9"
       d="m -114.09952,223.18395 a 59.004383,59.004383 0 0 0 58.855289,-54.861 h -8.30253 c -2.11484,26.0376 -23.97764,46.57808 -50.552759,46.57808 -26.57511,0 -48.43789,-20.54048 -50.55275,-46.57808 h -8.30253 a 59.004383,59.004383 0 0 0 58.85528,54.861 z"
       class="cls-1"
       inkscape:connector-curvature="0" />
    <path
       style="display:inline;fill:#f98e05;fill-opacity:1;stroke-width:0.39236856"
       id="path19985-9-4-2"
       d="m -114.09952,113.46201 c 26.575119,0 48.437919,20.54051 50.552759,46.57803 h 8.30253 a 59.000459,59.000459 0 0 0 -117.710569,0 h 8.30253 c 2.11486,-26.03752 23.97764,-46.57803 50.55275,-46.57803 z"
       class="cls-1"
       inkscape:connector-curvature="0" />
    <path
       style="display:inline;fill:#f98e05;fill-opacity:1;stroke-width:0.39236856"
       id="path19987-2-3-6"
       d="m -79.139471,143.99616 a 40.374726,40.374726 0 0 0 -51.439519,-16.6639 l 4.17481,7.22743 a 32.080054,32.080054 0 0 1 31.813239,55.10027 l 4.17087,7.23133 a 40.374726,40.374726 0 0 0 11.2806,-52.89513 z"
       class="cls-1"
       inkscape:connector-curvature="0" />
    <path
       style="display:inline;fill:#f98e05;fill-opacity:1;stroke-width:0.39236856"
       id="path19989-0-0-6"
       d="m -141.89096,180.22745 a 32.138909,32.138909 0 0 1 8.29858,-41.52828 l -4.17089,-7.23137 a 40.374726,40.374726 0 0 0 40.143239,69.56301 l -4.159099,-7.22742 a 32.134985,32.134985 0 0 1 -40.11183,-13.57594 z"
       class="cls-1"
       inkscape:connector-curvature="0" />
    <path
       style="display:inline;fill:#f98e05;fill-opacity:1;stroke-width:0.39236856"
       id="path19991-2-7-4"
       d="m -95.265811,175.04817 a 21.741142,21.741142 0 0 0 -4.57109,-27.27747 l -4.268979,7.39222 a 13.454318,13.454318 0 0 1 -12.80296,22.17671 l -4.26508,7.39218 a 21.741142,21.741142 0 0 0 25.908109,-9.68364 z"
       class="cls-1"
       inkscape:connector-curvature="0" />
    <path
       style="display:inline;fill:#f98e05;fill-opacity:1;stroke-width:0.39236856"
       id="path19993-3-8-9"
       d="m -125.75286,157.45434 a 13.47786,13.47786 0 0 1 14.47054,-6.43091 l 4.24544,-7.39217 a 21.737219,21.737219 0 0 0 -21.33699,36.96106 l 4.26898,-7.39614 a 13.470012,13.470012 0 0 1 -1.64797,-15.74184 z"
       class="cls-1"
       inkscape:connector-curvature="0" />
    <path
       style="display:inline;fill:#1b1b1b;fill-opacity:1;stroke-width:0.27009866"
       id="path19983-7-4-5"
       d="m 10.725867,265.96546 a 40.617437,40.617437 0 0 0 40.514834,-37.76523 h -5.715285 c -1.455827,17.92373 -16.505746,32.06345 -34.799549,32.06345 -18.2937808,0 -33.343711,-14.13972 -34.799531,-32.06345 h -5.71529 a 40.617437,40.617437 0 0 0 40.514821,37.76523 z"
       class="cls-1"
       inkscape:connector-curvature="0" />
    <path
       style="display:inline;fill:#1b1b1b;fill-opacity:1;stroke-width:0.27009866"
       id="path19985-9-4-0"
       d="m 10.725867,190.43511 c 18.293803,0 33.343722,14.13965 34.799549,32.06333 h 5.715285 a 40.614736,40.614736 0 0 0 -81.029655,0 h 5.71529 c 1.45582,-17.92368 16.5057502,-32.06333 34.799531,-32.06333 z"
       class="cls-1"
       inkscape:connector-curvature="0" />
    <path
       style="display:inline;fill:#1b1b1b;fill-opacity:1;stroke-width:0.27009866"
       id="path19987-2-3-4"
       d="M 34.791698,211.45417 A 27.793153,27.793153 0 0 0 -0.61829381,199.9831 l 2.87387001,4.9752 a 22.083266,22.083266 0 0 1 21.8996148,37.9299 l 2.871149,4.97789 a 27.793153,27.793153 0 0 0 7.765358,-36.41192 z"
       class="cls-1"
       inkscape:connector-curvature="0" />
    <path
       style="display:inline;fill:#1b1b1b;fill-opacity:1;stroke-width:0.27009866"
       id="path19989-0-0-8"
       d="m -8.4052038,236.39502 a 22.123782,22.123782 0 0 1 5.71257,-28.58719 l -2.87115,-4.97791 a 27.793153,27.793153 0 0 0 27.6338088,47.88572 l -2.863047,-4.97521 a 22.121081,22.121081 0 0 1 -27.6121818,-9.34541 z"
       class="cls-1"
       inkscape:connector-curvature="0" />
    <path
       style="display:inline;fill:#1b1b1b;fill-opacity:1;stroke-width:0.27009866"
       id="path19991-2-7-7"
       d="M 23.690621,232.82971 A 14.966167,14.966167 0 0 0 20.54398,214.05247 l -2.938687,5.08865 a 9.2616834,9.2616834 0 0 1 -8.8133108,15.26597 l -2.935993,5.08867 a 14.966167,14.966167 0 0 0 17.8346318,-6.66605 z"
       class="cls-1"
       inkscape:connector-curvature="0" />
    <path
       style="display:inline;fill:#1b1b1b;fill-opacity:1;stroke-width:0.27009866"
       id="path19993-3-8-17"
       d="m 2.7039262,220.71851 a 9.2778892,9.2778892 0 0 1 9.9612568,-4.42694 l 2.922471,-5.08859 A 14.963467,14.963467 0 0 0 0.89967619,236.64621 l 2.93868501,-5.09136 a 9.2724868,9.2724868 0 0 1 -1.134435,-10.83634 z"
       class="cls-1"
       inkscape:connector-curvature="0" />
  </g>
</svg>
