<?xml version="1.0" encoding="UTF-8" standalone="no"?>
<!-- Created with Inkscape (http://www.inkscape.org/) -->

<svg
   xmlns:dc="http://purl.org/dc/elements/1.1/"
   xmlns:cc="http://creativecommons.org/ns#"
   xmlns:rdf="http://www.w3.org/1999/02/22-rdf-syntax-ns#"
   xmlns:svg="http://www.w3.org/2000/svg"
   xmlns="http://www.w3.org/2000/svg"
   xmlns:sodipodi="http://sodipodi.sourceforge.net/DTD/sodipodi-0.dtd"
   xmlns:inkscape="http://www.inkscape.org/namespaces/inkscape"

   viewBox="0 0 101.1852 208.54056"
   version="1.1"
   id="svg19370"
   inkscape:version="0.92.4 (f8dce91, 2019-08-02)"
   sodipodi:docname="oldlady.svg">
  <defs
     id="defs19364" />
  <sodipodi:namedview
     id="base"
     pagecolor="#ffffff"
     bordercolor="#666666"
     borderopacity="1.0"
     inkscape:pageopacity="0.0"
     inkscape:pageshadow="2"
     inkscape:zoom="0.35"
     inkscape:cx="-128.78404"
     inkscape:cy="228.37813"
     inkscape:document-units="mm"
     inkscape:current-layer="layer1"
     showgrid="false"
     inkscape:window-width="1920"
     inkscape:window-height="1025"
     inkscape:window-x="0"
     inkscape:window-y="27"
     inkscape:window-maximized="1" />
  <metadata
     id="metadata19367">
    <rdf:RDF>
      <cc:Work
         rdf:about="">
        <dc:format>image/svg+xml</dc:format>
        <dc:type
           rdf:resource="http://purl.org/dc/dcmitype/StillImage" />
        <dc:title></dc:title>
      </cc:Work>
    </rdf:RDF>
  </metadata>
  <g
     inkscape:label="Layer 1"
     inkscape:groupmode="layer"
     id="layer1"
     transform="translate(-6.1038714,-0.71781494)">
    <path
       d="m 75.097986,166.6432 c 1.63667,-6.66605 4.87403,5.46977 6.65637,5.3219 -0.17318,3.36857 -0.28072,11.8569 -0.28072,16.0518 0,3.94581 0.0933,8.26248 0.31314,12.96267 0.2048,4.36253 -3.16614,8.06401 -7.52868,8.26881 -0.12494,0.007 -0.25067,0.01 -0.37481,0.01 -4.19885,0 -7.69552,-3.30136 -7.89479,-7.53895 -0.23011,-4.94137 -0.32895,-17.28089 -0.32895,-21.47736 -7.9e-4,-4.357 0.10833,-8.30914 0.28783,-11.8841 3.57258,0.5464 5.88405,2.45232 9.12293,2.45232 0.009,-8e-4 -1.11087,-10.2756 0.0277,-4.16658 z"
       id="path901"
       inkscape:connector-curvature="0"
       sodipodi:nodetypes="ccsccsccccc"
       style="fill:#1b1b1b;fill-opacity:1;stroke:none;stroke-width:0.79074419;stroke-opacity:1" />
    <path
       d="m 21.501236,111.56775 2.49401,-6.09584 c -1.44864,-1.54433 -1.85034,-3.88967 -0.82317,-5.876812 0.8801,-1.70089 2.57782,-2.69961 4.36332,-2.77235 l 2.14529,-5.24105 c 2.12078,-5.18966 8.03712,-7.67971 13.22915,-5.56289 5.18807,2.11998 7.67734,8.03871 5.55972,13.23073 -0.54166,1.330032 -2.05989,1.968172 -3.38992,1.424922 -1.33161,-0.54403 -1.96895,-2.059892 -1.42887,-3.389922 1.02876,-2.53117 -0.18345,-5.41027 -2.70751,-6.44694 -2.52801,-1.02559 -5.41027,0.18425 -6.44456,2.71067 l -2.06622,5.0497 13.41498,6.938782 13.48772,-10.074082 5.30826,-3.96637 c 1.22645,0.26885 2.48531,0.41909 3.74813,0.43648 4.96192,0.068 9.6542,-1.8021 13.20938,-5.2624 0.0372,-0.0356 0.0712,-0.0735 0.10833,-0.10991 4.93899,0.84056 7.30174,5.3051 10.59993,9.66606 3.92367,5.212582 6.7664,10.935992 8.760664,18.913812 4.00037,15.95563 6.22315,34.55552 6.2192,44.61141 0,3.32903 -0.068,5.71313 -0.10596,6.77352 -0.0126,0.008 -0.0253,0.0158 -0.0387,0.023 -0.36928,0.22299 -0.92675,0.54561 -1.65582,0.93545 -1.46129,0.77808 -3.61607,1.82662 -6.368654,2.87197 -5.50675,2.09389 -13.39758,4.19174 -22.91181,4.19174 -11.74176,-0.004 -25.95539,-3.17879 -41.31639,-13.56206 6.88954,-9.51338 12.66298,-20.58866 15.9675,-32.64038 12.99193,-1.65582 20.86537,-8.24035 24.62931,-12.38622 5.2964,-5.77718 7.42351,-11.48952 7.95093,-13.10421 l 0.003,-0.0142 0.0229,-0.0696 c 0.5219,-1.7175 0.34556,-3.535422 -0.49737,-5.120082 -0.84452,-1.58465 -2.256,-2.74467 -3.97191,-3.26814 -0.63813,-0.19452 -1.30078,-0.29416 -1.96421,-0.29416 -2.9558,0 -5.53363,1.89858 -6.41452,4.7247 -0.0443,0.13205 -0.0949,0.26727 -0.16763,0.45072 -0.14945,0.38668 -0.41356,1.012162 -0.81842,1.803692 -0.73381,1.44074 -2.02905,3.61291 -4.03596,5.78904 -3.09814,3.29503 -6.65569,5.57712 -10.85139,6.93008 -2.71897,1.44479 -6.22199,1.48278 -10.31367,1.50637 -0.72274,0 -1.46129,-0.0206 -2.21171,-0.0593 l -13.69569,-7.08428 -2.49559,6.09822 -1.00898,2.46554 -13.902873,33.97432 c -0.54244,1.33004 -2.0598904,1.96896 -3.3930804,1.42571 -1.32845,-0.54323 -1.96737,-2.06147 -1.42572,-3.39229 L 20.491356,114.03408 Z"
       id="path903"
       inkscape:connector-curvature="0"
       sodipodi:nodetypes="ccccccccccccccccccccccccccccccccccsccccccccccccccc"
       style="fill:#1b1b1b;fill-opacity:1;stroke:none;stroke-width:0.79074419;stroke-opacity:1" />
    <path
       d="m 78.260056,59.870502 c 1.64396,-0.67055 6.05669,-2.031474 7.91177,-1.572842 4.66381,1.151324 7.51049,5.865741 6.3568,10.530338 -0.78284,3.17405 -5.0855,4.81547 -8.0326,5.61807 0.14708,-0.90619 -2.52075,-1.43702 -2.5081,-2.37326 0.068,-5.26715 -0.0881,-8.71196 -3.72787,-12.202306 z"
       id="path911"
       inkscape:connector-curvature="0"
       sodipodi:nodetypes="cccccc"
       style="fill:#1b1b1b;fill-opacity:1;stroke:none;stroke-width:0.79074419;stroke-opacity:1" />
    <path
       d="m 67.794936,89.113748 c -9.38613,-0.12731 -16.89188,-7.83864 -16.76536,-17.22478 0.1281,-9.386923 7.83944,-16.891874 17.22241,-16.766938 9.38692,0.127312 16.89267,7.83944 16.76773,17.223988 -0.12494,9.38693 -7.83786,16.89425 -17.22478,16.76773 z"
       id="path913"
       inkscape:connector-curvature="0"
       sodipodi:nodetypes="ccccc"
       style="fill:#1b1b1b;fill-opacity:1;stroke:none;stroke-width:0.79074419;stroke-opacity:1" />
    <path
       inkscape:connector-curvature="0"
       d="m 35.970436,115.93072 c 3.51238,0.66804 6.66281,0.95576 9.49185,0.95576 11.26639,-0.0536 17.56572,-4.36407 21.60075,-8.65622 1.98729,-2.15487 3.32643,-4.33882 4.14292,-5.94273 0.41016,-0.80196 0.68947,-1.45699 0.85552,-1.88322 0.0834,-0.2135 0.14081,-0.36884 0.17065,-0.459142 0.0161,-0.0444 0.0237,-0.0719 0.0268,-0.0811 h 7.9e-4 c 0.81343,-2.61171 3.58202,-4.07864 6.20062,-3.27898 2.62778,0.79966 4.10695,3.579722 3.3073,6.206732 -0.1454,0.43618 -1.92072,6.21745 -7.38748,12.17932 -5.39101,5.93968 -14.80709,11.86327 -28.72959,11.86327 -0.0628,0 -0.12549,0 -0.18824,0 -3.50473,0 -7.28188,-0.35813 -11.35134,-1.1333 -2.69741,-0.51422 -4.47044,-3.11752 -3.95621,-5.8157 0.51423,-2.69895 3.11752,-4.46892 5.81571,-3.95468 z"
       id="path915"
       style="fill:#1b1b1b;fill-opacity:1;stroke:none;stroke-width:0.76522434;stroke-opacity:1" />
    <path
       style="fill:none;stroke:#f98e05;stroke-width:0.1879286;stroke-linecap:butt;stroke-linejoin:miter;stroke-miterlimit:4;stroke-dasharray:none;stroke-opacity:1"
       d="m 69.529056,1.4644871 c 0,0 -14.79043,23.8432549 -0.0924,42.4251949"
       id="path11773-6-2"
       inkscape:connector-curvature="0"
       sodipodi:nodetypes="cc" />
    <path
       style="fill:none;stroke:#f98e05;stroke-width:1.87928605;stroke-linecap:butt;stroke-linejoin:miter;stroke-miterlimit:4;stroke-dasharray:none;stroke-opacity:1"
       d="m 69.529056,1.4644871 c 0,0 -21.80998,25.8332589 -0.0924,42.4251949"
       id="path11773-0-6"
       inkscape:connector-curvature="0"
       sodipodi:nodetypes="cc" />
    <path
       style="fill:none;stroke:#f98e05;stroke-width:0.46982151;stroke-linecap:butt;stroke-linejoin:miter;stroke-miterlimit:4;stroke-dasharray:none;stroke-opacity:1"
       d="m 69.529056,1.4644871 c 0,0 -10.33649,17.1789359 -0.0924,42.4251949"
       id="path11773-6-6-1"
       inkscape:connector-curvature="0"
       sodipodi:nodetypes="cc" />
    <path
       style="fill:none;stroke:#f98e05;stroke-width:1.87928605;stroke-linecap:butt;stroke-linejoin:miter;stroke-miterlimit:4;stroke-dasharray:none;stroke-opacity:1"
       d="m 69.529056,1.4644871 c 0,0 -21.80998,25.8332589 -0.0924,42.4251949"
       id="path11773-8"
       inkscape:connector-curvature="0"
       sodipodi:nodetypes="cc" />
    <path
       style="fill:none;stroke:#f98e05;stroke-width:0.93964303;stroke-linecap:butt;stroke-linejoin:miter;stroke-miterlimit:4;stroke-dasharray:none;stroke-opacity:1"
       d="m 69.529056,1.4644871 c 0,0 -27.12273,31.8022529 -0.0924,42.4251949"
       id="path11773-3-7"
       inkscape:connector-curvature="0"
       sodipodi:nodetypes="cc" />
    <path
       style="fill:none;stroke:#f98e05;stroke-width:0.1879286;stroke-linecap:butt;stroke-linejoin:miter;stroke-miterlimit:4;stroke-dasharray:none;stroke-opacity:1"
       d="m 69.436636,43.889692 c 0,0 14.79043,-23.843261 0.0924,-42.4252049"
       id="path11773-6-2-2"
       inkscape:connector-curvature="0"
       sodipodi:nodetypes="cc" />
    <path
       style="fill:none;stroke:#f98e05;stroke-width:1.87928605;stroke-linecap:butt;stroke-linejoin:miter;stroke-miterlimit:4;stroke-dasharray:none;stroke-opacity:1"
       d="m 69.436636,43.889692 c 0,0 21.81,-25.833267 0.0924,-42.4252049"
       id="path11773-0-6-0"
       inkscape:connector-curvature="0"
       sodipodi:nodetypes="cc" />
    <path
       style="fill:none;stroke:#f98e05;stroke-width:0.46982151;stroke-linecap:butt;stroke-linejoin:miter;stroke-miterlimit:4;stroke-dasharray:none;stroke-opacity:1"
       d="m 69.436636,43.889692 c 0,0 10.3365,-17.17894 0.0924,-42.4252049"
       id="path11773-6-6-1-2"
       inkscape:connector-curvature="0"
       sodipodi:nodetypes="cc" />
    <path
       style="fill:none;stroke:#f98e05;stroke-width:1.87928605;stroke-linecap:butt;stroke-linejoin:miter;stroke-miterlimit:4;stroke-dasharray:none;stroke-opacity:1"
       d="m 69.436636,43.889692 c 0,0 21.81,-25.833267 0.0924,-42.4252049"
       id="path11773-8-3"
       inkscape:connector-curvature="0"
       sodipodi:nodetypes="cc" />
    <path
       style="fill:none;stroke:#f98e05;stroke-width:0.93964303;stroke-linecap:butt;stroke-linejoin:miter;stroke-miterlimit:4;stroke-dasharray:none;stroke-opacity:1"
       d="m 69.436636,43.889692 c 0,0 27.12274,-31.80226 0.0924,-42.4252049"
       id="path11773-3-7-7"
       inkscape:connector-curvature="0"
       sodipodi:nodetypes="cc" />
  </g>
</svg>
