<?xml version="1.0" encoding="UTF-8" standalone="no"?>
<svg
   xmlns:dc="http://purl.org/dc/elements/1.1/"
   xmlns:cc="http://creativecommons.org/ns#"
   xmlns:rdf="http://www.w3.org/1999/02/22-rdf-syntax-ns#"
   xmlns:svg="http://www.w3.org/2000/svg"
   xmlns="http://www.w3.org/2000/svg"
   xmlns:sodipodi="http://sodipodi.sourceforge.net/DTD/sodipodi-0.dtd"
   xmlns:inkscape="http://www.inkscape.org/namespaces/inkscape"
   data-name="Layer 1"
   viewBox="0 0 277 239"
   x="0px"
   y="0px"
   version="1.1"
   id="svg52"
   sodipodi:docname="algorithmdom.svg"
   width="277"
   height="239"
   inkscape:version="0.92.3 (2405546, 2018-03-11)">
  <metadata
     id="metadata58">
    <rdf:RDF>
      <cc:Work
         rdf:about="">
        <dc:format>image/svg+xml</dc:format>
        <dc:type
           rdf:resource="http://purl.org/dc/dcmitype/StillImage" />
        <dc:title>17</dc:title>
      </cc:Work>
    </rdf:RDF>
  </metadata>
  <defs
     id="defs56" />
  <sodipodi:namedview
     pagecolor="#ffffff"
     bordercolor="#666666"
     borderopacity="1"
     objecttolerance="10"
     gridtolerance="10"
     guidetolerance="10"
     inkscape:pageopacity="0"
     inkscape:pageshadow="2"
     inkscape:window-width="1871"
     inkscape:window-height="1025"
     id="namedview54"
     showgrid="false"
     showguides="false"
     inkscape:snap-page="true"
     inkscape:zoom="2.8284271"
     inkscape:cx="45.363354"
     inkscape:cy="147.1363"
     inkscape:window-x="49"
     inkscape:window-y="27"
     inkscape:window-maximized="1"
     inkscape:current-layer="layer1"
     inkscape:measure-start="0,0"
     inkscape:measure-end="0,0" />
  <title
     id="title42">17</title>
  <g
     id="g4660"
     transform="translate(12.35728,-22.862558)" />
  <g
     inkscape:groupmode="layer"
     id="layer1"
     inkscape:label="Layer 1"
     style="display:inline"
     transform="translate(20.85965)">
    <rect
       style="opacity:1;fill:#fa9900;fill-opacity:1;stroke:none;stroke-width:3.22970009;stroke-miterlimit:4;stroke-dasharray:none;stroke-opacity:0.94117647"
       id="rect5361"
       width="277"
       height="239"
       x="-20.85965"
       y="0" />
  </g>
  <g
     inkscape:groupmode="layer"
     id="layer3"
     inkscape:label="Layer 2"
     transform="translate(20.85965)">
    <path
       inkscape:connector-curvature="0"
       id="path24"
       d="m 222.93435,213.35385 h -24.38941 l 15.99735,-18.30623 c 3.93377,-3.58164 5.76954,-9.28576 3.93377,-14.72455 -1.83576,-5.70412 -6.94966,-9.15311 -12.58808,-9.28577 v -0.13265 l -48.25433,2.52043 c -4.98279,-0.39797 -10.6212,5.83675 -11.40796,11.27556 l -2.36026,10.8776 -6.55631,21.2246 h -18.22649 c -3.40927,0 -6.29404,2.91838 -6.29404,6.36737 0,3.449 2.88477,6.36738 6.29404,6.36738 h 21.89803 c 0.13112,0 0.26226,-0.13265 0.39337,-0.13265 2.88478,0.13265 5.50729,-1.45919 6.42517,-4.37758 l 6.5563,-20.95928 2.88477,-0.13265 -5.37617,17.24497 c -1.049,3.31635 0.78676,6.89799 4.06491,7.95924 3.27815,1.06122 6.81855,-0.79594 7.86756,-4.11228 l 6.94966,-22.28582 14.29273,-1.7245 -11.40795,16.0511 c -2.36026,3.05103 -1.44238,7.69391 1.96689,10.47964 1.18014,0.92858 2.4914,1.45919 3.80265,1.7245 0.52451,0.13266 0.91787,0.13266 1.44238,0.26531 0.13113,0 0.39339,0 0.5245,0 h 41.17354 c 4.19604,0 7.73642,-3.44899 7.73642,-7.82657 v -0.53062 c 0.39339,-4.24491 -3.14702,-7.82655 -7.34304,-7.82655 z"
       style="fill:#1b1b1b;fill-opacity:1;stroke-width:1.31887603" />
    <ellipse
       id="circle26"
       cy="187.88432"
       cx="127.4747"
       rx="14.686101"
       ry="14.857215"
       style="fill:#1b1b1b;fill-opacity:1;stroke-width:1.31887603" />
    <circle
       style="opacity:1;fill:#ffffff;fill-opacity:1;stroke:#1b1b1b;stroke-width:3;stroke-miterlimit:4;stroke-dasharray:none;stroke-opacity:1"
       id="path4944"
       cx="98.225098"
       cy="29.672132"
       r="19.637341" />
    <path
       style="fill:none;stroke:#1b1b1b;stroke-width:3;stroke-linecap:butt;stroke-linejoin:miter;stroke-miterlimit:4;stroke-dasharray:none;stroke-opacity:1"
       d="m 98.52968,50.767424 v 20.32637"
       id="path4948"
       inkscape:connector-curvature="0" />
    <path
       style="fill:none;stroke:#1b1b1b;stroke-width:3;stroke-linecap:butt;stroke-linejoin:miter;stroke-miterlimit:4;stroke-dasharray:none;stroke-opacity:1"
       d="M 29.038606,59.928472 H 166.84451"
       id="path5388"
       inkscape:connector-curvature="0" />
    <path
       style="fill:none;stroke:#1b1b1b;stroke-width:3.16054845;stroke-linecap:butt;stroke-linejoin:miter;stroke-miterlimit:4;stroke-dasharray:none;stroke-opacity:1"
       d="M 30.780225,58.588625 V 71.361888"
       id="path5390"
       inkscape:connector-curvature="0" />
    <path
       style="fill:none;stroke:#1b1b1b;stroke-width:3;stroke-linecap:butt;stroke-linejoin:miter;stroke-miterlimit:4;stroke-dasharray:none;stroke-opacity:1"
       d="M 165.21292,58.513983 V 71.287246"
       id="path5390-6"
       inkscape:connector-curvature="0" />
    <rect
       style="opacity:1;fill:#ffffff;fill-opacity:1;stroke:#1b1b1b;stroke-width:3;stroke-miterlimit:4;stroke-dasharray:none;stroke-opacity:1"
       id="rect5427"
       width="45.920246"
       height="27.893198"
       x="75.686707"
       y="72.645638" />
    <rect
       style="opacity:1;fill:#fa9900;fill-opacity:1;stroke:none;stroke-width:1.28813767;stroke-miterlimit:4;stroke-dasharray:none;stroke-opacity:1"
       id="rect5425"
       width="14.749227"
       height="14.749227"
       x="-8.1001339"
       y="111.76926" />
    <rect
       style="opacity:1;fill:#ffffff;fill-opacity:1;stroke:#1b1b1b;stroke-width:3;stroke-miterlimit:4;stroke-dasharray:none;stroke-opacity:1"
       id="rect5427-3"
       width="45.920246"
       height="27.893198"
       x="142.33824"
       y="72.51339" />
    <rect
       style="opacity:1;fill:#ffffff;fill-opacity:1;stroke:#1b1b1b;stroke-width:3;stroke-miterlimit:4;stroke-dasharray:none;stroke-opacity:1"
       id="rect5427-6"
       width="45.920246"
       height="27.893198"
       x="8.267992"
       y="72.51339" />
    <path
       style="fill:none;stroke:#1b1b1b;stroke-width:3;stroke-linecap:butt;stroke-linejoin:miter;stroke-miterlimit:4;stroke-dasharray:none;stroke-opacity:1"
       d="m 30.742008,101.64916 v 12.77326"
       id="path5390-9"
       inkscape:connector-curvature="0" />
    <path
       style="fill:none;stroke:#1b1b1b;stroke-width:3;stroke-linecap:butt;stroke-linejoin:miter;stroke-miterlimit:4;stroke-dasharray:none;stroke-opacity:1"
       d="M 29.172645,113.97342 H 100.24359"
       id="path5388-1"
       inkscape:connector-curvature="0" />
    <path
       style="fill:none;stroke:#1b1b1b;stroke-width:3;stroke-linecap:butt;stroke-linejoin:miter;stroke-miterlimit:4;stroke-dasharray:none;stroke-opacity:1"
       d="m 98.66013,112.37356 v 12.77326"
       id="path5390-9-2"
       inkscape:connector-curvature="0" />
    <rect
       style="opacity:1;fill:#ffffff;fill-opacity:1;stroke:#1b1b1b;stroke-width:3;stroke-miterlimit:4;stroke-dasharray:none;stroke-opacity:1"
       id="rect5427-6-7"
       width="45.920246"
       height="27.893198"
       x="75.713081"
       y="124.52202" />
    <path
       style="fill:none;stroke:#1b1b1b;stroke-width:3.27959561;stroke-linecap:butt;stroke-linejoin:miter;stroke-miterlimit:4;stroke-dasharray:none;stroke-opacity:1"
       d="m 121.89246,137.62398 c 0,0 30.78487,8.20246 25.54338,43.02724 -5.2415,34.82479 -5.2415,34.82479 -5.2415,34.82479"
       id="path5541"
       inkscape:connector-curvature="0" />
  </g>
</svg>
