<?xml version="1.0" encoding="UTF-8" standalone="no"?>
<svg
   xmlns:dc="http://purl.org/dc/elements/1.1/"
   xmlns:cc="http://creativecommons.org/ns#"
   xmlns:rdf="http://www.w3.org/1999/02/22-rdf-syntax-ns#"
   xmlns:svg="http://www.w3.org/2000/svg"
   xmlns="http://www.w3.org/2000/svg"
   xmlns:sodipodi="http://sodipodi.sourceforge.net/DTD/sodipodi-0.dtd"
   xmlns:inkscape="http://www.inkscape.org/namespaces/inkscape"
   data-name="Layer 1"
   viewBox="0 0 308 160"
   x="0px"
   y="0px"
   version="1.1"
   id="svg52"
   sodipodi:docname="algorithmdom.svg"
   width="308"
   height="160"
   inkscape:version="0.92.5 (2060ec1f9f, 2020-04-08)"
   inkscape:export-filename="/home/urania/git/pornhub.tracking.exposed/static/images/algorithmdom.png"
   inkscape:export-xdpi="71"
   inkscape:export-ydpi="71">
  <metadata
     id="metadata58">
    <rdf:RDF>
      <cc:Work
         rdf:about="">
        <dc:format>image/svg+xml</dc:format>
        <dc:type
           rdf:resource="http://purl.org/dc/dcmitype/StillImage" />
        <dc:title>17</dc:title>
      </cc:Work>
    </rdf:RDF>
  </metadata>
  <defs
     id="defs56" />
  <sodipodi:namedview
     pagecolor="#ffffff"
     bordercolor="#666666"
     borderopacity="1"
     objecttolerance="10"
     gridtolerance="10"
     guidetolerance="10"
     inkscape:pageopacity="0"
     inkscape:pageshadow="2"
     inkscape:window-width="1920"
     inkscape:window-height="1016"
     id="namedview54"
     showgrid="false"
     showguides="false"
     inkscape:snap-page="true"
     inkscape:zoom="1.4142136"
     inkscape:cx="-80.005265"
     inkscape:cy="84.094749"
     inkscape:window-x="0"
     inkscape:window-y="27"
     inkscape:window-maximized="1"
     inkscape:current-layer="layer1"
     inkscape:measure-start="0,0"
     inkscape:measure-end="0,0" />
  <title
     id="title42">17</title>
  <g
     id="g4660"
     transform="translate(12.35728,-101.86256)" />
  <g
     inkscape:groupmode="layer"
     id="layer1"
     inkscape:label="Layer 1"
     style="display:inline"
     transform="translate(20.85965,-79)">
    <rect
       style="opacity:1;fill:#f98e05;fill-opacity:1;stroke:none;stroke-width:2.78649783;stroke-miterlimit:4;stroke-dasharray:none;stroke-opacity:0.94117647"
       id="rect5361"
       width="308"
       height="160"
       x="-20.85965"
       y="79" />
  </g>
  <g
     inkscape:groupmode="layer"
     id="layer3"
     inkscape:label="Layer 2"
     transform="translate(20.85965,-79)">
    <path
       inkscape:connector-curvature="0"
       id="path24"
       d="M 49.423578,217.49797 H 64.37077 l -9.804072,-11.21908 c -2.41083,-2.19503 -3.53589,-5.69084 -2.41083,-9.02403 1.12506,-3.4958 4.25914,-5.60954 7.71468,-5.69084 v -0.0813 l 29.572952,1.54467 c 3.05373,-0.2439 6.50927,3.57708 6.99144,6.91029 l 1.4465,6.6664 4.01807,13.00762 h 11.17021 c 2.08939,0 3.85734,1.78855 3.85734,3.90228 0,2.11374 -1.76795,3.90229 -3.85734,3.90229 H 99.64938 c -0.0804,0 -0.16072,-0.0813 -0.24107,-0.0813 -1.76796,0.0813 -3.37518,-0.89427 -3.93771,-2.68282 l -4.01807,-12.84502 -1.76794,-0.0813 3.29481,10.56869 c 0.64289,2.03244 -0.48217,4.22747 -2.4912,4.87786 -2.00903,0.65038 -4.17879,-0.48779 -4.82168,-2.52023 l -4.25914,-13.658 -8.75939,-1.05687 6.99143,9.83701 c 1.4465,1.86985 0.88397,4.71526 -1.20542,6.42251 -0.72325,0.56909 -1.52687,0.89428 -2.33047,1.05687 -0.32145,0.0813 -0.56253,0.0813 -0.88397,0.1626 -0.0804,0 -0.2411,0 -0.32145,0 H 49.664658 c -2.57156,0 -4.74131,-2.11373 -4.74131,-4.79656 v -0.32519 c -0.24109,-2.60152 1.92867,-4.79655 4.50023,-4.79655 z"
       style="fill:#1b1b1b;fill-opacity:1;stroke-width:0.808281" />
    <ellipse
       id="circle26"
       cy="201.88881"
       cx="-107.92659"
       rx="9.0004644"
       ry="9.1053324"
       style="fill:#1b1b1b;fill-opacity:1;stroke-width:0.808281"
       transform="scale(-1,1)" />
    <circle
       style="opacity:1;fill:#ffffff;fill-opacity:1;stroke:#1b1b1b;stroke-width:1.83856785;stroke-miterlimit:4;stroke-dasharray:none;stroke-opacity:1"
       id="path4944"
       cx="-125.85239"
       cy="104.92754"
       r="12.034861"
       transform="scale(-1,1)" />
    <path
       style="fill:none;stroke:#1b1b1b;stroke-width:1.83856785;stroke-linecap:butt;stroke-linejoin:miter;stroke-miterlimit:4;stroke-dasharray:none;stroke-opacity:1"
       d="m 125.66572,117.85591 v 12.45714"
       id="path4948"
       inkscape:connector-curvature="0" />
    <path
       style="fill:none;stroke:#1b1b1b;stroke-width:1.83856785;stroke-linecap:butt;stroke-linejoin:miter;stroke-miterlimit:4;stroke-dasharray:none;stroke-opacity:1"
       d="M 168.25374,123.47032 H 83.79857"
       id="path5388"
       inkscape:connector-curvature="0" />
    <path
       style="fill:none;stroke:#1b1b1b;stroke-width:1.93696094;stroke-linecap:butt;stroke-linejoin:miter;stroke-miterlimit:4;stroke-dasharray:none;stroke-opacity:1"
       d="m 167.18638,122.64918 v 7.82817"
       id="path5390"
       inkscape:connector-curvature="0" />
    <path
       style="fill:none;stroke:#1b1b1b;stroke-width:1.83856785;stroke-linecap:butt;stroke-linejoin:miter;stroke-miterlimit:4;stroke-dasharray:none;stroke-opacity:1"
       d="m 84.7985,122.60344 v 7.82817"
       id="path5390-6"
       inkscape:connector-curvature="0" />
    <rect
       style="opacity:1;fill:#ffffff;fill-opacity:1;stroke:#1b1b1b;stroke-width:1.83856785;stroke-miterlimit:4;stroke-dasharray:none;stroke-opacity:1"
       id="rect5427"
       width="28.142496"
       height="17.094513"
       x="-139.66516"
       y="131.2641"
       transform="scale(-1,1)" />
    <rect
       style="opacity:1;fill:#fa9900;fill-opacity:1;stroke:none;stroke-width:0.78944284;stroke-miterlimit:4;stroke-dasharray:none;stroke-opacity:1"
       id="rect5425"
       width="9.0391512"
       height="9.0391512"
       x="-191.01443"
       y="155.24124"
       transform="scale(-1,1)" />
    <rect
       style="opacity:1;fill:#ffffff;fill-opacity:1;stroke:#1b1b1b;stroke-width:1.83856785;stroke-miterlimit:4;stroke-dasharray:none;stroke-opacity:1"
       id="rect5427-3"
       width="28.142496"
       height="17.094513"
       x="-98.817383"
       y="131.18306"
       transform="scale(-1,1)" />
    <rect
       style="opacity:1;fill:#ffffff;fill-opacity:1;stroke:#1b1b1b;stroke-width:1.83856785;stroke-miterlimit:4;stroke-dasharray:none;stroke-opacity:1"
       id="rect5427-6"
       width="28.142496"
       height="17.094513"
       x="-180.98312"
       y="131.18306"
       transform="scale(-1,1)" />
    <path
       style="fill:none;stroke:#1b1b1b;stroke-width:1.83856785;stroke-linecap:butt;stroke-linejoin:miter;stroke-miterlimit:4;stroke-dasharray:none;stroke-opacity:1"
       d="m 167.2098,149.03909 v 7.82816"
       id="path5390-9"
       inkscape:connector-curvature="0" />
    <path
       style="fill:none;stroke:#1b1b1b;stroke-width:1.83856785;stroke-linecap:butt;stroke-linejoin:miter;stroke-miterlimit:4;stroke-dasharray:none;stroke-opacity:1"
       d="M 168.17159,156.59208 H 124.61534"
       id="path5388-1"
       inkscape:connector-curvature="0" />
    <path
       style="fill:none;stroke:#1b1b1b;stroke-width:1.83856785;stroke-linecap:butt;stroke-linejoin:miter;stroke-miterlimit:4;stroke-dasharray:none;stroke-opacity:1"
       d="m 125.58577,155.6116 v 7.82817"
       id="path5390-9-2"
       inkscape:connector-curvature="0" />
    <rect
       style="opacity:1;fill:#ffffff;fill-opacity:1;stroke:#1b1b1b;stroke-width:1.83856785;stroke-miterlimit:4;stroke-dasharray:none;stroke-opacity:1"
       id="rect5427-6-7"
       width="28.142496"
       height="17.094513"
       x="-139.649"
       y="163.05685"
       transform="scale(-1,1)" />
    <path
       style="fill:none;stroke:#1b1b1b;stroke-width:2.00991964;stroke-linecap:butt;stroke-linejoin:miter;stroke-miterlimit:4;stroke-dasharray:none;stroke-opacity:1"
       d="m 111.3477,171.08647 c 0,0 -18.86669,5.02692 -15.65441,26.3695 3.21228,21.34258 3.21228,21.34258 3.21228,21.34258"
       id="path5541"
       inkscape:connector-curvature="0" />
  </g>
</svg>
