<?xml version="1.0" encoding="UTF-8" standalone="no"?>
<!-- Created with Inkscape (http://www.inkscape.org/) -->

<svg
   xmlns:dc="http://purl.org/dc/elements/1.1/"
   xmlns:cc="http://creativecommons.org/ns#"
   xmlns:rdf="http://www.w3.org/1999/02/22-rdf-syntax-ns#"
   xmlns:svg="http://www.w3.org/2000/svg"
   xmlns="http://www.w3.org/2000/svg"
   xmlns:sodipodi="http://sodipodi.sourceforge.net/DTD/sodipodi-0.dtd"
   xmlns:inkscape="http://www.inkscape.org/namespaces/inkscape"
   width="441.59589mm"
   height="51.884567mm"
   viewBox="0 0 441.59589 51.884567"
   version="1.1"
   id="svg5608"
   inkscape:version="0.92.3 (2405546, 2018-03-11)"
   sodipodi:docname="hotvideos.svg">
  <defs
     id="defs5602" />
  <sodipodi:namedview
     id="base"
     pagecolor="#ffffff"
     bordercolor="#666666"
     borderopacity="1.0"
     inkscape:pageopacity="0.0"
     inkscape:pageshadow="2"
     inkscape:zoom="3.7830691"
     inkscape:cx="1659.1284"
     inkscape:cy="89.842684"
     inkscape:document-units="mm"
     inkscape:current-layer="layer1"
     showgrid="false"
     inkscape:window-width="1871"
     inkscape:window-height="1025"
     inkscape:window-x="49"
     inkscape:window-y="27"
     inkscape:window-maximized="1"
     showguides="true"
     inkscape:measure-start="0,0"
     inkscape:measure-end="0,0"
     inkscape:guide-bbox="true">
    <sodipodi:guide
       position="154.77458,12.728863"
       orientation="0,1"
       id="guide6364"
       inkscape:locked="false" />
  </sodipodi:namedview>
  <metadata
     id="metadata5605">
    <rdf:RDF>
      <cc:Work
         rdf:about="">
        <dc:format>image/svg+xml</dc:format>
        <dc:type
           rdf:resource="http://purl.org/dc/dcmitype/StillImage" />
        <dc:title></dc:title>
      </cc:Work>
    </rdf:RDF>
  </metadata>
  <g
     inkscape:label="Layer 1"
     inkscape:groupmode="layer"
     id="layer1"
     transform="translate(98.695892,-104.2059)">
    <rect
       style="fill:none;fill-opacity:1;stroke:none;stroke-width:0.58045584;stroke-linecap:round;stroke-linejoin:round;stroke-miterlimit:4;stroke-dasharray:none;stroke-opacity:1;paint-order:stroke fill markers"
       id="rect6168"
       width="441.59589"
       height="51.884567"
       x="-98.695892"
       y="104.2059" />
    <g
       aria-label="Hot videos"
       transform="matrix(0.26458333,0,0,0.26458333,-114.4237,105.16315)"
       style="font-style:normal;font-weight:normal;font-size:40px;line-height:1.25;font-family:sans-serif;letter-spacing:0px;word-spacing:0px;fill:#000000;fill-opacity:1;stroke:none"
       id="flowRoot6185">
      <path
         d="m 474.2057,127.29938 h -10.4 v -11.2 h -5.36 v 27.99999 h 5.36 v -11.47999 h 10.4 v 11.47999 h 5.36 v -27.99999 h -5.36 z"
         style="font-style:normal;font-variant:normal;font-weight:bold;font-stretch:normal;font-family:'Simplon Norm';-inkscape-font-specification:'Simplon Norm Bold'"
         id="path6279"
         inkscape:connector-curvature="0" />
      <path
         d="m 483.93383,135.01937 c 0,5.72 3.28,9.48001 9.2,9.48001 5.92,0 9.2,-3.76001 9.2,-9.48001 v -2.64 c 0,-5.71999 -3.28,-9.47999 -9.2,-9.47999 -5.92,0 -9.2,3.76 -9.2,9.47999 z m 13.12,0.68 c 0,2.44 -1.4,4.04 -3.92,4.04 -2.52,0 -3.92,-1.6 -3.92,-4.04 v -4 c 0,-2.44 1.4,-4.03999 3.92,-4.03999 2.52,0 3.92,1.59999 3.92,4.03999 z"
         style="font-style:normal;font-variant:normal;font-weight:bold;font-stretch:normal;font-family:'Simplon Norm';-inkscape-font-specification:'Simplon Norm Bold'"
         id="path6281"
         inkscape:connector-curvature="0" />
      <path
         d="m 514.28695,139.33938 c -1.28,0 -1.52,-0.68001 -1.52,-1.64001 v -9.47999 h 5.08 v -4.76 h -5.08 v -4.68 h -5.28 v 4.68 h -2.92 v 4.76 h 2.92 v 10.59999 c 0,3.32 1.6,5.28 5.28,5.28 h 5.08 v -4.75999 z"
         style="font-style:normal;font-variant:normal;font-weight:bold;font-stretch:normal;font-family:'Simplon Norm';-inkscape-font-specification:'Simplon Norm Bold'"
         id="path6283"
         inkscape:connector-curvature="0" />
      <path
         d="m 537.05195,136.61938 -4.6,-13.16 h -5.56 l 7.44,20.63999 h 5.44 l 7.44,-20.63999 h -5.56 z"
         style="font-style:normal;font-variant:normal;font-weight:bold;font-stretch:normal;font-family:'Simplon Norm';-inkscape-font-specification:'Simplon Norm Bold'"
         id="path6285"
         inkscape:connector-curvature="0" />
      <path
         d="m 554.54133,116.09938 h -5.28 v 4.68 h 5.28 z m 0,7.36 h -5.28 v 20.63999 h 5.28 z"
         style="font-style:normal;font-variant:normal;font-weight:bold;font-stretch:normal;font-family:'Simplon Norm';-inkscape-font-specification:'Simplon Norm Bold'"
         id="path6287"
         inkscape:connector-curvature="0" />
      <path
         d="m 571.81945,142.13937 v 1.96 h 5.28 v -27.99999 h -5.28 v 9.16 c -0.92,-1.4 -3,-2.36 -4.84,-2.36 -4.2,0 -8.28,2.88 -8.28,8.95999 v 3.68 c 0,6.08001 4.08,8.96001 8.28,8.96001 1.84,0 3.92,-0.96001 4.84,-2.36001 z m -7.84,-10.07999 c 0,-2.80001 1.92,-4 3.92,-4 2,0 3.92,1.19999 3.92,4 v 3.28 c 0,2.79999 -1.92,4 -3.92,4 -2,0 -3.92,-1.20001 -3.92,-4 z"
         style="font-style:normal;font-variant:normal;font-weight:bold;font-stretch:normal;font-family:'Simplon Norm';-inkscape-font-specification:'Simplon Norm Bold'"
         id="path6289"
         inkscape:connector-curvature="0" />
      <path
         d="m 599.67758,135.57937 v -3.2 c 0,-5.71999 -3.28,-9.47999 -9.2,-9.47999 -5.92,0 -9.2,3.76 -9.2,9.47999 v 2.64 c 0,5.72 3.28,9.48001 9.2,9.48001 5.04,0 8.16,-2.72 9,-7.04 h -5.36 c -0.52,1.39999 -1.8,2.27999 -3.64,2.27999 -2.52,0 -3.92,-1.6 -3.92,-4.04 v -0.12 z m -9.2,-7.91999 c 2.36,0 3.72,1.35999 3.88,3.52 v 0.04 h -7.8 v -0.04 c 0.2,-2.12 1.56,-3.52 3.92,-3.52 z"
         style="font-style:normal;font-variant:normal;font-weight:bold;font-stretch:normal;font-family:'Simplon Norm';-inkscape-font-specification:'Simplon Norm Bold'"
         id="path6291"
         inkscape:connector-curvature="0" />
      <path
         d="m 603.15258,135.01937 c 0,5.72 3.28,9.48001 9.2,9.48001 5.92,0 9.2,-3.76001 9.2,-9.48001 v -2.64 c 0,-5.71999 -3.28,-9.47999 -9.2,-9.47999 -5.92,0 -9.2,3.76 -9.2,9.47999 z m 13.12,0.68 c 0,2.44 -1.4,4.04 -3.92,4.04 -2.52,0 -3.92,-1.6 -3.92,-4.04 v -4 c 0,-2.44 1.4,-4.03999 3.92,-4.03999 2.52,0 3.92,1.59999 3.92,4.03999 z"
         style="font-style:normal;font-variant:normal;font-weight:bold;font-stretch:normal;font-family:'Simplon Norm';-inkscape-font-specification:'Simplon Norm Bold'"
         id="path6293"
         inkscape:connector-curvature="0" />
      <path
         d="m 633.2657,144.49938 c 4.32,0 8.04,-1.76001 8.04,-6.36001 0,-4.28 -2.76,-5.84 -5,-6.35999 l -4.64,-1.04001 c -0.88,-0.2 -1.6,-0.64 -1.6,-1.51999 0.04,-0.96001 0.92,-1.56 2.44,-1.56 1.32,0 2.48,0.59999 2.76,1.91999 h 5.4 c -0.36,-4.67999 -3.8,-6.67999 -8,-6.67999 -4.24,0 -7.88,2.32 -7.88,6.35999 0,4.04 2.84,5.80001 5.08,6.32 l 4.32,0.96 c 1.24,0.28 1.84,0.76 1.84,1.6 0,1.36001 -1.56,1.6 -2.6,1.6 -1.72,0 -3.6,-0.72 -3.84,-2.32 h -5.28 c 0.2,4.88 4.68,7.08001 8.96,7.08001 z"
         style="font-style:normal;font-variant:normal;font-weight:bold;font-stretch:normal;font-family:'Simplon Norm';-inkscape-font-specification:'Simplon Norm Bold'"
         id="path6295"
         inkscape:connector-curvature="0" />
    </g>
    <g
       aria-label="Total videos"
       transform="matrix(0.26458333,0,0,0.26458333,158.30329,105.12948)"
       style="font-style:normal;font-weight:normal;font-size:40px;line-height:1.25;font-family:sans-serif;letter-spacing:0px;word-spacing:0px;fill:#000000;fill-opacity:1;stroke:none"
       id="flowRoot6185-2">
      <path
         d="m 476.9257,121.41938 v -5.32 h -21.12 v 5.32 h 7.8 v 22.67999 h 5.52 v -22.67999 z"
         style="font-style:normal;font-variant:normal;font-weight:bold;font-stretch:normal;font-family:'Simplon Norm';-inkscape-font-specification:'Simplon Norm Bold'"
         id="path6256"
         inkscape:connector-curvature="0" />
      <path
         d="m 476.6682,135.01937 c 0,5.72 3.28,9.48001 9.2,9.48001 5.92,0 9.2,-3.76001 9.2,-9.48001 v -2.64 c 0,-5.71999 -3.28,-9.47999 -9.2,-9.47999 -5.92,0 -9.2,3.76 -9.2,9.47999 z m 13.12,0.68 c 0,2.44 -1.4,4.04 -3.92,4.04 -2.52,0 -3.92,-1.6 -3.92,-4.04 v -4 c 0,-2.44 1.4,-4.03999 3.92,-4.03999 2.52,0 3.92,1.59999 3.92,4.03999 z"
         style="font-style:normal;font-variant:normal;font-weight:bold;font-stretch:normal;font-family:'Simplon Norm';-inkscape-font-specification:'Simplon Norm Bold'"
         id="path6258"
         inkscape:connector-curvature="0" />
      <path
         d="m 507.02133,139.33938 c -1.28,0 -1.52,-0.68001 -1.52,-1.64001 v -9.47999 h 5.08 v -4.76 h -5.08 v -4.68 h -5.28 v 4.68 h -2.92 v 4.76 h 2.92 v 10.59999 c 0,3.32 1.6,5.28 5.28,5.28 h 5.08 v -4.75999 z"
         style="font-style:normal;font-variant:normal;font-weight:bold;font-stretch:normal;font-family:'Simplon Norm';-inkscape-font-specification:'Simplon Norm Bold'"
         id="path6260"
         inkscape:connector-curvature="0" />
      <path
         d="m 526.38883,130.69937 c -3.12,0.24 -7.24,0.56 -9.28,1.52001 -2.88,1.35999 -3.92,3.15999 -3.92,6.15999 0,3.80001 2.8,6.12001 7.52,6.12001 3.16,0 4.8,-1.20001 5.76,-2.76001 v 2.36 h 5.28 v -11.72 c 0,-5.71999 -3.28,-9.47999 -9.2,-9.47999 -5.04,0 -8.12,2.72 -8.96,7.03999 h 5.32 c 0.52,-1.4 1.8,-2.27999 3.64,-2.27999 2.16,0 3.48,1.15999 3.84,2.99999 z m -6.8,5.32 c 1,-0.51999 3.88,-0.76 6.88,-0.95999 v 0.67999 c 0,2.60001 -2.16,4.12 -4.88,4.12 -2.36,0 -3.12,-1.07999 -3.12,-2.07999 0,-0.88 0.24,-1.32 1.12,-1.76001 z"
         style="font-style:normal;font-variant:normal;font-weight:bold;font-stretch:normal;font-family:'Simplon Norm';-inkscape-font-specification:'Simplon Norm Bold'"
         id="path6262"
         inkscape:connector-curvature="0" />
      <path
         d="m 543.01258,139.33938 c -1.28,0 -1.52,-0.68001 -1.52,-1.64001 v -21.59999 h -5.28 v 22.71999 c 0,3.32 1.6,5.28 5.28,5.28 h 2.56 v -4.75999 z"
         style="font-style:normal;font-variant:normal;font-weight:bold;font-stretch:normal;font-family:'Simplon Norm';-inkscape-font-specification:'Simplon Norm Bold'"
         id="path6264"
         inkscape:connector-curvature="0" />
      <path
         d="m 563.38008,136.61938 -4.6,-13.16 h -5.56 l 7.44,20.63999 h 5.44 l 7.44,-20.63999 h -5.56 z"
         style="font-style:normal;font-variant:normal;font-weight:bold;font-stretch:normal;font-family:'Simplon Norm';-inkscape-font-specification:'Simplon Norm Bold'"
         id="path6266"
         inkscape:connector-curvature="0" />
      <path
         d="m 580.86945,116.09938 h -5.28 v 4.68 h 5.28 z m 0,7.36 h -5.28 v 20.63999 h 5.28 z"
         style="font-style:normal;font-variant:normal;font-weight:bold;font-stretch:normal;font-family:'Simplon Norm';-inkscape-font-specification:'Simplon Norm Bold'"
         id="path6268"
         inkscape:connector-curvature="0" />
      <path
         d="m 598.14758,142.13937 v 1.96 h 5.28 v -27.99999 h -5.28 v 9.16 c -0.92,-1.4 -3,-2.36 -4.84,-2.36 -4.2,0 -8.28,2.88 -8.28,8.95999 v 3.68 c 0,6.08001 4.08,8.96001 8.28,8.96001 1.84,0 3.92,-0.96001 4.84,-2.36001 z m -7.84,-10.07999 c 0,-2.80001 1.92,-4 3.92,-4 2,0 3.92,1.19999 3.92,4 v 3.28 c 0,2.79999 -1.92,4 -3.92,4 -2,0 -3.92,-1.20001 -3.92,-4 z"
         style="font-style:normal;font-variant:normal;font-weight:bold;font-stretch:normal;font-family:'Simplon Norm';-inkscape-font-specification:'Simplon Norm Bold'"
         id="path6270"
         inkscape:connector-curvature="0" />
      <path
         d="m 626.0057,135.57937 v -3.2 c 0,-5.71999 -3.28,-9.47999 -9.2,-9.47999 -5.92,0 -9.2,3.76 -9.2,9.47999 v 2.64 c 0,5.72 3.28,9.48001 9.2,9.48001 5.04,0 8.16,-2.72 9,-7.04 h -5.36 c -0.52,1.39999 -1.8,2.27999 -3.64,2.27999 -2.52,0 -3.92,-1.6 -3.92,-4.04 v -0.12 z m -9.2,-7.91999 c 2.36,0 3.72,1.35999 3.88,3.52 v 0.04 h -7.8 v -0.04 c 0.2,-2.12 1.56,-3.52 3.92,-3.52 z"
         style="font-style:normal;font-variant:normal;font-weight:bold;font-stretch:normal;font-family:'Simplon Norm';-inkscape-font-specification:'Simplon Norm Bold'"
         id="path6272"
         inkscape:connector-curvature="0" />
      <path
         d="m 629.4807,135.01937 c 0,5.72 3.28,9.48001 9.2,9.48001 5.92,0 9.2,-3.76001 9.2,-9.48001 v -2.64 c 0,-5.71999 -3.28,-9.47999 -9.2,-9.47999 -5.92,0 -9.2,3.76 -9.2,9.47999 z m 13.12,0.68 c 0,2.44 -1.4,4.04 -3.92,4.04 -2.52,0 -3.92,-1.6 -3.92,-4.04 v -4 c 0,-2.44 1.4,-4.03999 3.92,-4.03999 2.52,0 3.92,1.59999 3.92,4.03999 z"
         style="font-style:normal;font-variant:normal;font-weight:bold;font-stretch:normal;font-family:'Simplon Norm';-inkscape-font-specification:'Simplon Norm Bold'"
         id="path6274"
         inkscape:connector-curvature="0" />
      <path
         d="m 659.59383,144.49938 c 4.32,0 8.04,-1.76001 8.04,-6.36001 0,-4.28 -2.76,-5.84 -5,-6.35999 l -4.64,-1.04001 c -0.88,-0.2 -1.6,-0.64 -1.6,-1.51999 0.04,-0.96001 0.92,-1.56 2.44,-1.56 1.32,0 2.48,0.59999 2.76,1.91999 h 5.4 c -0.36,-4.67999 -3.8,-6.67999 -8,-6.67999 -4.24,0 -7.88,2.32 -7.88,6.35999 0,4.04 2.84,5.80001 5.08,6.32 l 4.32,0.96 c 1.24,0.28 1.84,0.76 1.84,1.6 0,1.36001 -1.56,1.6 -2.6,1.6 -1.72,0 -3.6,-0.72 -3.84,-2.32 h -5.28 c 0.2,4.88 4.68,7.08001 8.96,7.08001 z"
         style="font-style:normal;font-variant:normal;font-weight:bold;font-stretch:normal;font-family:'Simplon Norm';-inkscape-font-specification:'Simplon Norm Bold'"
         id="path6276"
         inkscape:connector-curvature="0" />
    </g>
    <rect
       style="fill:#ffffff;fill-opacity:1;stroke:#1b1b1b;stroke-width:4;stroke-linecap:round;stroke-linejoin:round;stroke-miterlimit:4;stroke-dasharray:none;stroke-opacity:1;paint-order:stroke fill markers"
       id="rect6313"
       width="434.03784"
       height="15.378085"
       x="-95.161697"
       y="107.66629" />
    <rect
       style="fill:#fa9900;fill-opacity:1;stroke:#1b1b1b;stroke-width:4.009;stroke-linecap:round;stroke-linejoin:round;stroke-miterlimit:4;stroke-dasharray:none;stroke-opacity:1;paint-order:stroke fill markers"
       id="rect6313-6"
       width="158.48015"
       height="15.322835"
       x="-96.179214"
       y="107.78188" />
    <rect
       style="fill:#1b1b1b;fill-opacity:1;stroke:none;stroke-width:5.52958679;stroke-linecap:round;stroke-linejoin:round;stroke-miterlimit:4;stroke-dasharray:none;stroke-opacity:1;paint-order:stroke fill markers"
       id="rect6347"
       width="2.0010421"
       height="20.992186"
       x="62.300934"
       y="123.10472" />
    <rect
       style="fill:#1b1b1b;fill-opacity:1;stroke:none;stroke-width:5.52958679;stroke-linecap:round;stroke-linejoin:round;stroke-miterlimit:4;stroke-dasharray:none;stroke-opacity:1;paint-order:stroke fill markers"
       id="rect6347-6"
       width="2.0010421"
       height="20.992186"
       x="338.87616"
       y="123.04437" />
  </g>
</svg>
