<?xml version="1.0" encoding="UTF-8" standalone="no"?>
<!-- Created with Inkscape (http://www.inkscape.org/) -->

<svg
   xmlns:dc="http://purl.org/dc/elements/1.1/"
   xmlns:cc="http://creativecommons.org/ns#"
   xmlns:rdf="http://www.w3.org/1999/02/22-rdf-syntax-ns#"
   xmlns:svg="http://www.w3.org/2000/svg"
   xmlns="http://www.w3.org/2000/svg"
   xmlns:sodipodi="http://sodipodi.sourceforge.net/DTD/sodipodi-0.dtd"
   xmlns:inkscape="http://www.inkscape.org/namespaces/inkscape"
   width="165.55356mm"
   height="166.30951mm"
   viewBox="0 0 165.55356 166.30951"
   version="1.1"
   id="svg2666"
   inkscape:version="0.92.3 (2405546, 2018-03-11)"
   sodipodi:docname="potrex-logob.svg">
  <defs
     id="defs2660" />
  <sodipodi:namedview
     id="base"
     pagecolor="#ffffff"
     bordercolor="#666666"
     borderopacity="1.0"
     inkscape:pageopacity="0.0"
     inkscape:pageshadow="2"
     inkscape:zoom="0.35"
     inkscape:cx="-608.74995"
     inkscape:cy="62.678517"
     inkscape:document-units="mm"
     inkscape:current-layer="layer1"
     showgrid="false"
     inkscape:window-width="1871"
     inkscape:window-height="1025"
     inkscape:window-x="49"
     inkscape:window-y="27"
     inkscape:window-maximized="1" />
  <metadata
     id="metadata2663">
    <rdf:RDF>
      <cc:Work
         rdf:about="">
        <dc:format>image/svg+xml</dc:format>
        <dc:type
           rdf:resource="http://purl.org/dc/dcmitype/StillImage" />
        <dc:title></dc:title>
      </cc:Work>
    </rdf:RDF>
  </metadata>
  <g
     inkscape:label="Layer 1"
     inkscape:groupmode="layer"
     id="layer1"
     transform="translate(-0.8031854,0.89249021)">
    <rect
       style="fill:#f98e05;fill-opacity:1;stroke:none;stroke-width:7.47858191;stroke-linecap:round;stroke-linejoin:round;stroke-miterlimit:4;stroke-dasharray:none;stroke-opacity:1;paint-order:stroke fill markers"
       id="rect823"
       width="165.55356"
       height="166.30951"
       x="0.8031854"
       y="-0.89249021"
       rx="55"
       ry="55" />
  </g>
  <g
     inkscape:groupmode="layer"
     id="layer3"
     inkscape:label="Layer 2"
     transform="translate(-0.75594055,0.85045111)">
    <g
       id="g3266"
       transform="translate(0.85994027,-0.62535154)">
      <path
         class="cls-1"
         inkscape:connector-curvature="0"
         style="display:inline;fill:#1b1b1b;fill-opacity:1;stroke-width:0.49297428"
         id="path21020"
         d="M 157.9638,83.732845 A 75.716703,72.583352 0 0 0 87.564103,11.332915 v 10.213221 c 33.412427,2.601571 59.770777,29.495727 59.770777,62.186709 0,32.691015 -26.35835,59.585175 -59.770777,62.186745 v 10.21323 A 75.716703,72.583352 0 0 0 157.96381,83.732845 Z" />
      <path
         class="cls-1"
         inkscape:connector-curvature="0"
         style="display:inline;fill:#1b1b1b;fill-opacity:1;stroke-width:0.49297428"
         id="path21022"
         d="m 17.164363,83.732845 c 0,-32.690982 26.358358,-59.585137 59.770784,-62.186709 V 11.332915 a 75.71167,72.578525 0 0 0 0,144.799895 V 145.91959 C 43.522721,143.31802 17.164363,116.42385 17.164363,83.732845 Z" />
      <path
         class="cls-1"
         inkscape:connector-curvature="0"
         style="display:inline;fill:#1b1b1b;fill-opacity:1;stroke-width:0.49297428"
         id="path21024"
         d="M 56.34693,40.727296 A 51.81041,49.666361 0 0 0 34.963186,104.00485 l 9.274515,-5.135589 A 41.166364,39.462792 0 0 1 114.94457,59.734686 l 9.27953,-5.130739 A 51.81041,49.666361 0 0 0 56.34693,40.727296 Z" />
      <path
         class="cls-1"
         inkscape:connector-curvature="0"
         style="display:inline;fill:#1b1b1b;fill-opacity:1;stroke-width:0.49297428"
         id="path21026"
         d="m 102.84037,117.92012 a 41.241891,39.535191 0 0 1 -53.290718,-10.2084 l -9.279556,5.13074 A 51.81041,49.666361 0 0 0 129.53605,63.460856 l -9.2745,5.116268 a 41.236855,39.530365 0 0 1 -17.42118,49.342996 z" />
      <path
         class="cls-1"
         inkscape:connector-curvature="0"
         style="display:inline;fill:#1b1b1b;fill-opacity:1;stroke-width:0.49297428"
         id="path21028"
         d="M 96.194128,60.564878 A 27.899072,26.744537 0 0 0 61.190622,66.18793 l 9.485997,5.251409 a 17.2651,16.550627 0 0 1 28.457964,15.749407 l 9.485977,5.246578 A 27.899072,26.744537 0 0 0 96.194128,60.564878 Z" />
      <path
         class="cls-1"
         inkscape:connector-curvature="0"
         style="display:inline;fill:#1b1b1b;fill-opacity:1;stroke-width:0.49297428"
         id="path21030"
         d="M 74.120572,98.068042 A 17.29531,16.579585 0 0 1 65.868178,80.267317 l -9.486009,-5.222449 a 27.894039,26.739712 0 0 0 47.429951,26.247392 l -9.491018,-5.251408 a 17.285241,16.569933 0 0 1 -20.20053,2.02719 z" />
    </g>
  </g>
</svg>
