<?xml version="1.0" encoding="UTF-8" standalone="no"?>
<svg
   xmlns:dc="http://purl.org/dc/elements/1.1/"
   xmlns:cc="http://creativecommons.org/ns#"
   xmlns:rdf="http://www.w3.org/1999/02/22-rdf-syntax-ns#"
   xmlns:svg="http://www.w3.org/2000/svg"
   xmlns="http://www.w3.org/2000/svg"
   xmlns:sodipodi="http://sodipodi.sourceforge.net/DTD/sodipodi-0.dtd"
   xmlns:inkscape="http://www.inkscape.org/namespaces/inkscape"
   width="1462.4526"
   height="412.57883"
   version="1.1"
   id="svg220"
   sodipodi:docname="topcategories.svg"
   inkscape:version="0.92.3 (2405546, 2018-03-11)">
  <metadata
     id="metadata226">
    <rdf:RDF>
      <cc:Work
         rdf:about="">
        <dc:format>image/svg+xml</dc:format>
        <dc:type
           rdf:resource="http://purl.org/dc/dcmitype/StillImage" />
        <dc:title></dc:title>
      </cc:Work>
    </rdf:RDF>
  </metadata>
  <defs
     id="defs224" />
  <sodipodi:namedview
     pagecolor="#ffffff"
     bordercolor="#666666"
     borderopacity="1"
     objecttolerance="10"
     gridtolerance="10"
     guidetolerance="10"
     inkscape:pageopacity="0"
     inkscape:pageshadow="2"
     inkscape:window-width="1871"
     inkscape:window-height="1025"
     id="namedview222"
     showgrid="false"
     inkscape:zoom="1.1125147"
     inkscape:cx="535.23398"
     inkscape:cy="346.7428"
     inkscape:window-x="49"
     inkscape:window-y="27"
     inkscape:window-maximized="1"
     inkscape:current-layer="svg220" />
  <g
     aria-label="teen
japanese	
blonde
asian	
lesbian	
amateur	
casting 
"
     transform="matrix(1.2137187,0,0,1.2137187,-176.84753,-172.99492)"
     style="font-style:normal;font-weight:normal;font-size:40px;line-height:1.25;font-family:sans-serif;letter-spacing:0px;word-spacing:0px;fill:#000000;fill-opacity:1;stroke:none"
     id="flowRoot1033">
    <path
       d="m 202.29016,162.16343 c -0.59733,0 -0.70933,-0.31733 -0.70933,-0.76533 v -4.424 h 2.37067 v -2.22133 h -2.37067 v -2.184 h -2.464 v 2.184 h -1.36267 v 2.22133 h 1.36267 v 4.94667 c 0,1.54933 0.74667,2.464 2.464,2.464 h 2.37067 v -2.22134 z"
       style="font-style:normal;font-variant:normal;font-weight:bold;font-stretch:normal;font-size:18.66666603px;font-family:'Simplon Norm';-inkscape-font-specification:'Simplon Norm Bold';text-align:end;text-anchor:end"
       id="path5503"
       inkscape:connector-curvature="0" />
    <path
       d="m 213.811,160.40877 v -1.49334 c 0,-2.66933 -1.53067,-4.424 -4.29334,-4.424 -2.76266,0 -4.29333,1.75467 -4.29333,4.424 v 1.232 c 0,2.66934 1.53067,4.424 4.29333,4.424 2.352,0 3.808,-1.26933 4.2,-3.28533 h -2.50133 c -0.24267,0.65333 -0.84,1.064 -1.69867,1.064 -1.176,0 -1.82933,-0.74667 -1.82933,-1.88533 v -0.056 z m -4.29334,-3.696 c 1.10134,0 1.736,0.63466 1.81067,1.64266 v 0.0187 h -3.64 v -0.0187 c 0.0933,-0.98933 0.728,-1.64266 1.82933,-1.64266 z"
       style="font-style:normal;font-variant:normal;font-weight:bold;font-stretch:normal;font-size:18.66666603px;font-family:'Simplon Norm';-inkscape-font-specification:'Simplon Norm Bold';text-align:end;text-anchor:end"
       id="path5505"
       inkscape:connector-curvature="0" />
    <path
       d="m 224.01933,160.40877 v -1.49334 c 0,-2.66933 -1.53067,-4.424 -4.29333,-4.424 -2.76267,0 -4.29334,1.75467 -4.29334,4.424 v 1.232 c 0,2.66934 1.53067,4.424 4.29334,4.424 2.352,0 3.808,-1.26933 4.2,-3.28533 h -2.50134 c -0.24266,0.65333 -0.84,1.064 -1.69866,1.064 -1.176,0 -1.82934,-0.74667 -1.82934,-1.88533 v -0.056 z m -4.29333,-3.696 c 1.10133,0 1.736,0.63466 1.81066,1.64266 v 0.0187 h -3.64 v -0.0187 c 0.0933,-0.98933 0.728,-1.64266 1.82934,-1.64266 z"
       style="font-style:normal;font-variant:normal;font-weight:bold;font-stretch:normal;font-size:18.66666603px;font-family:'Simplon Norm';-inkscape-font-specification:'Simplon Norm Bold';text-align:end;text-anchor:end"
       id="path5507"
       inkscape:connector-curvature="0" />
    <path
       d="m 234.52633,158.67277 c 0,-2.83734 -1.904,-4.18134 -3.864,-4.18134 -0.85867,0 -1.82934,0.448 -2.25867,1.10134 v -0.84 h -2.464 v 9.632 h 2.464 v -5.61867 c 0,-1.30667 0.896,-1.86667 1.82933,-1.86667 0.93334,0 1.82934,0.56 1.82934,1.86667 v 5.61867 h 2.464 z"
       style="font-style:normal;font-variant:normal;font-weight:bold;font-stretch:normal;font-size:18.66666603px;font-family:'Simplon Norm';-inkscape-font-specification:'Simplon Norm Bold';text-align:end;text-anchor:end"
       id="path5509"
       inkscape:connector-curvature="0" />
    <path
       d="m 159.33875,215.5981 v 2.22133 h 1.19466 c 1.71734,0 2.464,-0.91466 2.464,-2.464 v -10.60266 h -2.464 v 10.08 c 0,0.448 -0.112,0.76533 -0.70933,0.76533 z m 3.65866,-14.28 h -2.464 v 2.184 h 2.464 z"
       style="font-style:normal;font-variant:normal;font-weight:bold;font-stretch:normal;font-size:18.66666603px;font-family:'Simplon Norm';-inkscape-font-specification:'Simplon Norm Bold';text-align:end;text-anchor:end"
       id="path5511"
       inkscape:connector-curvature="0" />
    <path
       d="m 171.04187,208.13143 c -1.456,0.112 -3.37866,0.26134 -4.33066,0.70934 -1.344,0.63466 -1.82934,1.47466 -1.82934,2.87466 0,1.77334 1.30667,2.856 3.50934,2.856 1.47466,0 2.24,-0.56 2.688,-1.288 v 1.10134 h 2.464 v -5.46934 c 0,-2.66933 -1.53067,-4.424 -4.29334,-4.424 -2.352,0 -3.78933,1.26934 -4.18133,3.28534 h 2.48267 c 0.24266,-0.65334 0.84,-1.064 1.69866,-1.064 1.008,0 1.624,0.54133 1.792,1.4 z m -3.17333,2.48267 c 0.46667,-0.24267 1.81067,-0.35467 3.21067,-0.448 v 0.31733 c 0,1.21334 -1.008,1.92267 -2.27734,1.92267 -1.10133,0 -1.456,-0.504 -1.456,-0.97067 0,-0.41066 0.112,-0.616 0.52267,-0.82133 z"
       style="font-style:normal;font-variant:normal;font-weight:bold;font-stretch:normal;font-size:18.66666603px;font-family:'Simplon Norm';-inkscape-font-specification:'Simplon Norm Bold';text-align:end;text-anchor:end"
       id="path5513"
       inkscape:connector-curvature="0" />
    <path
       d="m 178.12762,213.4701 c 0.42934,0.65333 1.4,1.10133 2.25867,1.10133 1.96,0 3.864,-1.344 3.864,-4.18133 v -1.71733 c 0,-2.83734 -1.904,-4.18134 -3.864,-4.18134 -0.85867,0 -1.82933,0.448 -2.25867,1.10134 v -0.84 h -2.464 v 13.06666 h 2.464 z m 3.65867,-3.17333 c 0,1.30666 -0.896,1.86666 -1.82933,1.86666 -0.93334,0 -1.82934,-0.56 -1.82934,-1.86666 v -1.53067 c 0,-1.30667 0.896,-1.86667 1.82934,-1.86667 0.93333,0 1.82933,0.56 1.82933,1.86667 z"
       style="font-style:normal;font-variant:normal;font-weight:bold;font-stretch:normal;font-size:18.66666603px;font-family:'Simplon Norm';-inkscape-font-specification:'Simplon Norm Bold';text-align:end;text-anchor:end"
       id="path5515"
       inkscape:connector-curvature="0" />
    <path
       d="m 192.00541,208.13143 c -1.456,0.112 -3.37866,0.26134 -4.33066,0.70934 -1.344,0.63466 -1.82934,1.47466 -1.82934,2.87466 0,1.77334 1.30667,2.856 3.50934,2.856 1.47466,0 2.24,-0.56 2.688,-1.288 v 1.10134 h 2.464 v -5.46934 c 0,-2.66933 -1.53067,-4.424 -4.29334,-4.424 -2.352,0 -3.78933,1.26934 -4.18133,3.28534 h 2.48267 c 0.24266,-0.65334 0.84,-1.064 1.69866,-1.064 1.008,0 1.624,0.54133 1.792,1.4 z m -3.17333,2.48267 c 0.46667,-0.24267 1.81067,-0.35467 3.21067,-0.448 v 0.31733 c 0,1.21334 -1.008,1.92267 -2.27734,1.92267 -1.10133,0 -1.456,-0.504 -1.456,-0.97067 0,-0.41066 0.112,-0.616 0.52267,-0.82133 z"
       style="font-style:normal;font-variant:normal;font-weight:bold;font-stretch:normal;font-size:18.66666603px;font-family:'Simplon Norm';-inkscape-font-specification:'Simplon Norm Bold';text-align:end;text-anchor:end"
       id="path5517"
       inkscape:connector-curvature="0" />
    <path
       d="m 205.21383,208.67277 c 0,-2.83734 -1.904,-4.18134 -3.864,-4.18134 -0.85867,0 -1.82933,0.448 -2.25867,1.10134 v -0.84 h -2.464 v 9.632 h 2.464 v -5.61867 c 0,-1.30667 0.896,-1.86667 1.82934,-1.86667 0.93333,0 1.82933,0.56 1.82933,1.86667 v 5.61867 h 2.464 z"
       style="font-style:normal;font-variant:normal;font-weight:bold;font-stretch:normal;font-size:18.66666603px;font-family:'Simplon Norm';-inkscape-font-specification:'Simplon Norm Bold';text-align:end;text-anchor:end"
       id="path5519"
       inkscape:connector-curvature="0" />
    <path
       d="m 215.59745,210.40877 v -1.49334 c 0,-2.66933 -1.53066,-4.424 -4.29333,-4.424 -2.76267,0 -4.29333,1.75467 -4.29333,4.424 v 1.232 c 0,2.66934 1.53066,4.424 4.29333,4.424 2.352,0 3.808,-1.26933 4.2,-3.28533 h -2.50133 c -0.24267,0.65333 -0.84,1.064 -1.69867,1.064 -1.176,0 -1.82933,-0.74667 -1.82933,-1.88533 v -0.056 z m -4.29333,-3.696 c 1.10133,0 1.736,0.63466 1.81067,1.64266 v 0.0187 h -3.64 v -0.0187 c 0.0933,-0.98933 0.728,-1.64266 1.82933,-1.64266 z"
       style="font-style:normal;font-variant:normal;font-weight:bold;font-stretch:normal;font-size:18.66666603px;font-family:'Simplon Norm';-inkscape-font-specification:'Simplon Norm Bold';text-align:end;text-anchor:end"
       id="path5521"
       inkscape:connector-curvature="0" />
    <path
       d="m 221.02712,214.57143 c 2.016,0 3.752,-0.82133 3.752,-2.968 0,-1.99733 -1.288,-2.72533 -2.33333,-2.968 l -2.16533,-0.48533 c -0.41067,-0.0933 -0.74667,-0.29867 -0.74667,-0.70933 0.0187,-0.448 0.42933,-0.728 1.13867,-0.728 0.616,0 1.15733,0.28 1.288,0.896 h 2.52 c -0.168,-2.184 -1.77334,-3.11734 -3.73334,-3.11734 -1.97866,0 -3.67733,1.08267 -3.67733,2.968 0,1.88534 1.32533,2.70667 2.37067,2.94934 l 2.016,0.448 c 0.57866,0.13066 0.85866,0.35466 0.85866,0.74666 0,0.63467 -0.728,0.74667 -1.21333,0.74667 -0.80267,0 -1.68,-0.336 -1.792,-1.08267 h -2.464 c 0.0933,2.27734 2.184,3.304 4.18133,3.304 z"
       style="font-style:normal;font-variant:normal;font-weight:bold;font-stretch:normal;font-size:18.66666603px;font-family:'Simplon Norm';-inkscape-font-specification:'Simplon Norm Bold';text-align:end;text-anchor:end"
       id="path5523"
       inkscape:connector-curvature="0" />
    <path
       d="m 234.70162,210.40877 v -1.49334 c 0,-2.66933 -1.53067,-4.424 -4.29334,-4.424 -2.76266,0 -4.29333,1.75467 -4.29333,4.424 v 1.232 c 0,2.66934 1.53067,4.424 4.29333,4.424 2.352,0 3.808,-1.26933 4.2,-3.28533 h -2.50133 c -0.24267,0.65333 -0.84,1.064 -1.69867,1.064 -1.176,0 -1.82933,-0.74667 -1.82933,-1.88533 v -0.056 z m -4.29334,-3.696 c 1.10134,0 1.736,0.63466 1.81067,1.64266 v 0.0187 h -3.64 v -0.0187 c 0.0933,-0.98933 0.728,-1.64266 1.82933,-1.64266 z"
       style="font-style:normal;font-variant:normal;font-weight:bold;font-stretch:normal;font-size:18.66666603px;font-family:'Simplon Norm';-inkscape-font-specification:'Simplon Norm Bold';text-align:end;text-anchor:end"
       id="path5525"
       inkscape:connector-curvature="0" />
    <path
       d="m 181.62762,263.4701 c 0.42933,0.65333 1.4,1.10133 2.25867,1.10133 1.96,0 3.864,-1.344 3.864,-4.18133 v -1.71733 c 0,-2.83734 -1.904,-4.18134 -3.864,-4.18134 -0.85867,0 -1.82934,0.448 -2.25867,1.10134 v -4.27467 h -2.464 v 13.06667 h 2.464 z m 3.65867,-3.17333 c 0,1.30666 -0.896,1.86666 -1.82934,1.86666 -0.93333,0 -1.82933,-0.56 -1.82933,-1.86666 v -1.53067 c 0,-1.30667 0.896,-1.86667 1.82933,-1.86667 0.93334,0 1.82934,0.56 1.82934,1.86667 z"
       style="font-style:normal;font-variant:normal;font-weight:bold;font-stretch:normal;font-size:18.66666603px;font-family:'Simplon Norm';-inkscape-font-specification:'Simplon Norm Bold';text-align:end;text-anchor:end"
       id="path5527"
       inkscape:connector-curvature="0" />
    <path
       d="m 192.83608,262.16343 c -0.59733,0 -0.70933,-0.31733 -0.70933,-0.76533 v -10.08 h -2.464 v 10.60267 c 0,1.54933 0.74666,2.464 2.464,2.464 h 1.19466 v -2.22134 z"
       style="font-style:normal;font-variant:normal;font-weight:bold;font-stretch:normal;font-size:18.66666603px;font-family:'Simplon Norm';-inkscape-font-specification:'Simplon Norm Bold';text-align:end;text-anchor:end"
       id="path5529"
       inkscape:connector-curvature="0" />
    <path
       d="m 194.65141,260.14743 c 0,2.66934 1.53067,4.424 4.29334,4.424 2.76266,0 4.29333,-1.75466 4.29333,-4.424 v -1.232 c 0,-2.66933 -1.53067,-4.424 -4.29333,-4.424 -2.76267,0 -4.29334,1.75467 -4.29334,4.424 z m 6.12267,0.31734 c 0,1.13866 -0.65333,1.88533 -1.82933,1.88533 -1.176,0 -1.82934,-0.74667 -1.82934,-1.88533 v -1.86667 c 0,-1.13867 0.65334,-1.88533 1.82934,-1.88533 1.176,0 1.82933,0.74666 1.82933,1.88533 z"
       style="font-style:normal;font-variant:normal;font-weight:bold;font-stretch:normal;font-size:18.66666603px;font-family:'Simplon Norm';-inkscape-font-specification:'Simplon Norm Bold';text-align:end;text-anchor:end"
       id="path5531"
       inkscape:connector-curvature="0" />
    <path
       d="m 213.78154,258.67277 c 0,-2.83734 -1.904,-4.18134 -3.864,-4.18134 -0.85867,0 -1.82934,0.448 -2.25867,1.10134 v -0.84 h -2.464 v 9.632 h 2.464 v -5.61867 c 0,-1.30667 0.896,-1.86667 1.82933,-1.86667 0.93334,0 1.82934,0.56 1.82934,1.86667 v 5.61867 h 2.464 z"
       style="font-style:normal;font-variant:normal;font-weight:bold;font-stretch:normal;font-size:18.66666603px;font-family:'Simplon Norm';-inkscape-font-specification:'Simplon Norm Bold';text-align:end;text-anchor:end"
       id="path5533"
       inkscape:connector-curvature="0" />
    <path
       d="m 221.70116,263.4701 v 0.91467 h 2.464 V 251.3181 h -2.464 v 4.27467 c -0.42933,-0.65334 -1.4,-1.10134 -2.25867,-1.10134 -1.96,0 -3.864,1.344 -3.864,4.18134 v 1.71733 c 0,2.83733 1.904,4.18133 3.864,4.18133 0.85867,0 1.82934,-0.448 2.25867,-1.10133 z m -3.65867,-4.704 c 0,-1.30667 0.896,-1.86667 1.82934,-1.86667 0.93333,0 1.82933,0.56 1.82933,1.86667 v 1.53067 c 0,1.30666 -0.896,1.86666 -1.82933,1.86666 -0.93334,0 -1.82934,-0.56 -1.82934,-1.86666 z"
       style="font-style:normal;font-variant:normal;font-weight:bold;font-stretch:normal;font-size:18.66666603px;font-family:'Simplon Norm';-inkscape-font-specification:'Simplon Norm Bold';text-align:end;text-anchor:end"
       id="path5535"
       inkscape:connector-curvature="0" />
    <path
       d="m 234.70162,260.40877 v -1.49334 c 0,-2.66933 -1.53067,-4.424 -4.29333,-4.424 -2.76267,0 -4.29333,1.75467 -4.29333,4.424 v 1.232 c 0,2.66934 1.53066,4.424 4.29333,4.424 2.352,0 3.808,-1.26933 4.2,-3.28533 h -2.50134 c -0.24266,0.65333 -0.84,1.064 -1.69866,1.064 -1.176,0 -1.82934,-0.74667 -1.82934,-1.88533 v -0.056 z m -4.29333,-3.696 c 1.10133,0 1.736,0.63466 1.81066,1.64266 v 0.0187 h -3.64 v -0.0187 c 0.0933,-0.98933 0.728,-1.64266 1.82934,-1.64266 z"
       style="font-style:normal;font-variant:normal;font-weight:bold;font-stretch:normal;font-size:18.66666603px;font-family:'Simplon Norm';-inkscape-font-specification:'Simplon Norm Bold';text-align:end;text-anchor:end"
       id="path5537"
       inkscape:connector-curvature="0" />
    <path
       d="m 197.29187,308.13143 c -1.456,0.112 -3.37867,0.26134 -4.33067,0.70934 -1.344,0.63466 -1.82933,1.47466 -1.82933,2.87466 0,1.77334 1.30667,2.856 3.50933,2.856 1.47467,0 2.24,-0.56 2.688,-1.288 v 1.10134 h 2.464 v -5.46934 c 0,-2.66933 -1.53066,-4.424 -4.29333,-4.424 -2.352,0 -3.78933,1.26934 -4.18133,3.28534 h 2.48266 c 0.24267,-0.65334 0.84,-1.064 1.69867,-1.064 1.008,0 1.624,0.54133 1.792,1.4 z m -3.17333,2.48267 c 0.46666,-0.24267 1.81066,-0.35467 3.21066,-0.448 v 0.31733 c 0,1.21334 -1.008,1.92267 -2.27733,1.92267 -1.10133,0 -1.456,-0.504 -1.456,-0.97067 0,-0.41066 0.112,-0.616 0.52267,-0.82133 z"
       style="font-style:normal;font-variant:normal;font-weight:bold;font-stretch:normal;font-size:18.66666603px;font-family:'Simplon Norm';-inkscape-font-specification:'Simplon Norm Bold';text-align:end;text-anchor:end"
       id="path5539"
       inkscape:connector-curvature="0" />
    <path
       d="m 205.42295,314.57143 c 2.016,0 3.752,-0.82133 3.752,-2.968 0,-1.99733 -1.288,-2.72533 -2.33333,-2.968 l -2.16533,-0.48533 c -0.41067,-0.0933 -0.74667,-0.29867 -0.74667,-0.70933 0.0187,-0.448 0.42933,-0.728 1.13867,-0.728 0.616,0 1.15733,0.28 1.288,0.896 h 2.52 c -0.168,-2.184 -1.77334,-3.11734 -3.73334,-3.11734 -1.97866,0 -3.67733,1.08267 -3.67733,2.968 0,1.88534 1.32533,2.70667 2.37067,2.94934 l 2.016,0.448 c 0.57866,0.13066 0.85866,0.35466 0.85866,0.74666 0,0.63467 -0.728,0.74667 -1.21333,0.74667 -0.80267,0 -1.68,-0.336 -1.792,-1.08267 h -2.464 c 0.0933,2.27734 2.184,3.304 4.18133,3.304 z"
       style="font-style:normal;font-variant:normal;font-weight:bold;font-stretch:normal;font-size:18.66666603px;font-family:'Simplon Norm';-inkscape-font-specification:'Simplon Norm Bold';text-align:end;text-anchor:end"
       id="path5541"
       inkscape:connector-curvature="0" />
    <path
       d="m 213.27345,301.3181 h -2.464 v 2.184 h 2.464 z m 0,3.43467 h -2.464 v 9.632 h 2.464 z"
       style="font-style:normal;font-variant:normal;font-weight:bold;font-stretch:normal;font-size:18.66666603px;font-family:'Simplon Norm';-inkscape-font-specification:'Simplon Norm Bold';text-align:end;text-anchor:end"
       id="path5543"
       inkscape:connector-curvature="0" />
    <path
       d="m 221.31791,308.13143 c -1.456,0.112 -3.37866,0.26134 -4.33066,0.70934 -1.344,0.63466 -1.82934,1.47466 -1.82934,2.87466 0,1.77334 1.30667,2.856 3.50934,2.856 1.47466,0 2.24,-0.56 2.688,-1.288 v 1.10134 h 2.464 v -5.46934 c 0,-2.66933 -1.53067,-4.424 -4.29334,-4.424 -2.352,0 -3.78933,1.26934 -4.18133,3.28534 h 2.48267 c 0.24266,-0.65334 0.84,-1.064 1.69866,-1.064 1.008,0 1.624,0.54133 1.792,1.4 z m -3.17333,2.48267 c 0.46667,-0.24267 1.81067,-0.35467 3.21067,-0.448 v 0.31733 c 0,1.21334 -1.008,1.92267 -2.27734,1.92267 -1.10133,0 -1.456,-0.504 -1.456,-0.97067 0,-0.41066 0.112,-0.616 0.52267,-0.82133 z"
       style="font-style:normal;font-variant:normal;font-weight:bold;font-stretch:normal;font-size:18.66666603px;font-family:'Simplon Norm';-inkscape-font-specification:'Simplon Norm Bold';text-align:end;text-anchor:end"
       id="path5545"
       inkscape:connector-curvature="0" />
    <path
       d="m 234.52633,308.67277 c 0,-2.83734 -1.904,-4.18134 -3.864,-4.18134 -0.85867,0 -1.82933,0.448 -2.25867,1.10134 v -0.84 h -2.464 v 9.632 h 2.464 v -5.61867 c 0,-1.30667 0.896,-1.86667 1.82934,-1.86667 0.93333,0 1.82933,0.56 1.82933,1.86667 v 5.61867 h 2.464 z"
       style="font-style:normal;font-variant:normal;font-weight:bold;font-stretch:normal;font-size:18.66666603px;font-family:'Simplon Norm';-inkscape-font-specification:'Simplon Norm Bold';text-align:end;text-anchor:end"
       id="path5547"
       inkscape:connector-curvature="0" />
    <path
       d="m 179.05483,362.16343 c -0.59733,0 -0.70933,-0.31733 -0.70933,-0.76533 v -10.08 h -2.464 v 10.60267 c 0,1.54933 0.74666,2.464 2.464,2.464 h 1.19466 v -2.22134 z"
       style="font-style:normal;font-variant:normal;font-weight:bold;font-stretch:normal;font-size:18.66666603px;font-family:'Simplon Norm';-inkscape-font-specification:'Simplon Norm Bold';text-align:end;text-anchor:end"
       id="path5549"
       inkscape:connector-curvature="0" />
    <path
       d="m 189.45683,360.40877 v -1.49334 c 0,-2.66933 -1.53067,-4.424 -4.29333,-4.424 -2.76267,0 -4.29334,1.75467 -4.29334,4.424 v 1.232 c 0,2.66934 1.53067,4.424 4.29334,4.424 2.352,0 3.808,-1.26933 4.2,-3.28533 h -2.50134 c -0.24266,0.65333 -0.84,1.064 -1.69866,1.064 -1.176,0 -1.82934,-0.74667 -1.82934,-1.88533 v -0.056 z m -4.29333,-3.696 c 1.10133,0 1.736,0.63466 1.81066,1.64266 v 0.0187 h -3.64 v -0.0187 c 0.0933,-0.98933 0.728,-1.64266 1.82934,-1.64266 z"
       style="font-style:normal;font-variant:normal;font-weight:bold;font-stretch:normal;font-size:18.66666603px;font-family:'Simplon Norm';-inkscape-font-specification:'Simplon Norm Bold';text-align:end;text-anchor:end"
       id="path5551"
       inkscape:connector-curvature="0" />
    <path
       d="m 194.8865,364.57143 c 2.016,0 3.752,-0.82133 3.752,-2.968 0,-1.99733 -1.288,-2.72533 -2.33334,-2.968 l -2.16533,-0.48533 c -0.41067,-0.0933 -0.74667,-0.29867 -0.74667,-0.70933 0.0187,-0.448 0.42934,-0.728 1.13867,-0.728 0.616,0 1.15733,0.28 1.288,0.896 h 2.52 c -0.168,-2.184 -1.77333,-3.11734 -3.73333,-3.11734 -1.97867,0 -3.67734,1.08267 -3.67734,2.968 0,1.88534 1.32534,2.70667 2.37067,2.94934 l 2.016,0.448 c 0.57867,0.13066 0.85867,0.35466 0.85867,0.74666 0,0.63467 -0.728,0.74667 -1.21334,0.74667 -0.80266,0 -1.68,-0.336 -1.792,-1.08267 h -2.464 c 0.0933,2.27734 2.184,3.304 4.18134,3.304 z"
       style="font-style:normal;font-variant:normal;font-weight:bold;font-stretch:normal;font-size:18.66666603px;font-family:'Simplon Norm';-inkscape-font-specification:'Simplon Norm Bold';text-align:end;text-anchor:end"
       id="path5553"
       inkscape:connector-curvature="0" />
    <path
       d="m 202.737,363.4701 c 0.42933,0.65333 1.4,1.10133 2.25866,1.10133 1.96,0 3.864,-1.344 3.864,-4.18133 v -1.71733 c 0,-2.83734 -1.904,-4.18134 -3.864,-4.18134 -0.85866,0 -1.82933,0.448 -2.25866,1.10134 v -4.27467 h -2.464 v 13.06667 h 2.464 z m 3.65866,-3.17333 c 0,1.30666 -0.896,1.86666 -1.82933,1.86666 -0.93333,0 -1.82933,-0.56 -1.82933,-1.86666 v -1.53067 c 0,-1.30667 0.896,-1.86667 1.82933,-1.86667 0.93333,0 1.82933,0.56 1.82933,1.86667 z"
       style="font-style:normal;font-variant:normal;font-weight:bold;font-stretch:normal;font-size:18.66666603px;font-family:'Simplon Norm';-inkscape-font-specification:'Simplon Norm Bold';text-align:end;text-anchor:end"
       id="path5555"
       inkscape:connector-curvature="0" />
    <path
       d="m 213.27346,351.3181 h -2.464 v 2.184 h 2.464 z m 0,3.43467 h -2.464 v 9.632 h 2.464 z"
       style="font-style:normal;font-variant:normal;font-weight:bold;font-stretch:normal;font-size:18.66666603px;font-family:'Simplon Norm';-inkscape-font-specification:'Simplon Norm Bold';text-align:end;text-anchor:end"
       id="path5557"
       inkscape:connector-curvature="0" />
    <path
       d="m 221.31791,358.13143 c -1.456,0.112 -3.37866,0.26134 -4.33066,0.70934 -1.344,0.63466 -1.82934,1.47466 -1.82934,2.87466 0,1.77334 1.30667,2.856 3.50934,2.856 1.47466,0 2.24,-0.56 2.688,-1.288 v 1.10134 h 2.464 v -5.46934 c 0,-2.66933 -1.53067,-4.424 -4.29334,-4.424 -2.352,0 -3.78933,1.26934 -4.18133,3.28534 h 2.48267 c 0.24266,-0.65334 0.84,-1.064 1.69866,-1.064 1.008,0 1.624,0.54133 1.792,1.4 z m -3.17333,2.48267 c 0.46667,-0.24267 1.81067,-0.35467 3.21067,-0.448 v 0.31733 c 0,1.21334 -1.008,1.92267 -2.27734,1.92267 -1.10133,0 -1.456,-0.504 -1.456,-0.97067 0,-0.41066 0.112,-0.616 0.52267,-0.82133 z"
       style="font-style:normal;font-variant:normal;font-weight:bold;font-stretch:normal;font-size:18.66666603px;font-family:'Simplon Norm';-inkscape-font-specification:'Simplon Norm Bold';text-align:end;text-anchor:end"
       id="path5559"
       inkscape:connector-curvature="0" />
    <path
       d="m 234.52633,358.67277 c 0,-2.83734 -1.904,-4.18134 -3.864,-4.18134 -0.85867,0 -1.82933,0.448 -2.25867,1.10134 v -0.84 h -2.464 v 9.632 h 2.464 v -5.61867 c 0,-1.30667 0.896,-1.86667 1.82934,-1.86667 0.93333,0 1.82933,0.56 1.82933,1.86667 v 5.61867 h 2.464 z"
       style="font-style:normal;font-variant:normal;font-weight:bold;font-stretch:normal;font-size:18.66666603px;font-family:'Simplon Norm';-inkscape-font-specification:'Simplon Norm Bold';text-align:end;text-anchor:end"
       id="path5561"
       inkscape:connector-curvature="0" />
    <path
       d="m 170.56791,408.13143 c -1.456,0.112 -3.37866,0.26134 -4.33066,0.70934 -1.344,0.63466 -1.82934,1.47466 -1.82934,2.87466 0,1.77334 1.30667,2.856 3.50934,2.856 1.47466,0 2.24,-0.56 2.688,-1.288 v 1.10134 h 2.464 v -5.46934 c 0,-2.66933 -1.53067,-4.424 -4.29334,-4.424 -2.352,0 -3.78933,1.26934 -4.18133,3.28534 h 2.48267 c 0.24266,-0.65334 0.84,-1.064 1.69866,-1.064 1.008,0 1.624,0.54133 1.792,1.4 z m -3.17333,2.48267 c 0.46667,-0.24267 1.81067,-0.35467 3.21067,-0.448 v 0.31733 c 0,1.21334 -1.008,1.92267 -2.27734,1.92267 -1.10133,0 -1.456,-0.504 -1.456,-0.97067 0,-0.41066 0.112,-0.616 0.52267,-0.82133 z"
       style="font-style:normal;font-variant:normal;font-weight:bold;font-stretch:normal;font-size:18.66666603px;font-family:'Simplon Norm';-inkscape-font-specification:'Simplon Norm Bold';text-align:end;text-anchor:end"
       id="path5563"
       inkscape:connector-curvature="0" />
    <path
       d="m 183.66433,408.7661 c 0,-1.288 0.896,-1.86667 1.77333,-1.86667 0.87734,0 1.77334,0.57867 1.77334,1.86667 v 5.61867 h 2.464 v -5.712 c 0,-2.81867 -1.792,-4.18134 -4.23734,-4.18134 -1.32533,0 -2.31466,0.42934 -3.00533,1.26934 -0.672,-0.896 -1.58667,-1.26934 -2.59467,-1.26934 -0.84,0 -1.71733,0.41067 -2.184,1.064 v -0.80266 h -2.464 v 9.632 h 2.464 v -5.61867 c 0,-1.288 0.896,-1.86667 1.77334,-1.86667 0.87733,0 1.77333,0.57867 1.77333,1.86667 v 5.61867 h 2.464 z"
       style="font-style:normal;font-variant:normal;font-weight:bold;font-stretch:normal;font-size:18.66666603px;font-family:'Simplon Norm';-inkscape-font-specification:'Simplon Norm Bold';text-align:end;text-anchor:end"
       id="path5565"
       inkscape:connector-curvature="0" />
    <path
       d="m 197.58354,408.13143 c -1.456,0.112 -3.37867,0.26134 -4.33067,0.70934 -1.344,0.63466 -1.82933,1.47466 -1.82933,2.87466 0,1.77334 1.30667,2.856 3.50933,2.856 1.47467,0 2.24,-0.56 2.688,-1.288 v 1.10134 h 2.464 v -5.46934 c 0,-2.66933 -1.53066,-4.424 -4.29333,-4.424 -2.352,0 -3.78933,1.26934 -4.18133,3.28534 h 2.48266 c 0.24267,-0.65334 0.84,-1.064 1.69867,-1.064 1.008,0 1.624,0.54133 1.792,1.4 z m -3.17333,2.48267 c 0.46666,-0.24267 1.81066,-0.35467 3.21066,-0.448 v 0.31733 c 0,1.21334 -1.008,1.92267 -2.27733,1.92267 -1.10133,0 -1.456,-0.504 -1.456,-0.97067 0,-0.41066 0.112,-0.616 0.52267,-0.82133 z"
       style="font-style:normal;font-variant:normal;font-weight:bold;font-stretch:normal;font-size:18.66666603px;font-family:'Simplon Norm';-inkscape-font-specification:'Simplon Norm Bold';text-align:end;text-anchor:end"
       id="path5567"
       inkscape:connector-curvature="0" />
    <path
       d="m 205.82662,412.16343 c -0.59733,0 -0.70933,-0.31733 -0.70933,-0.76533 v -4.424 h 2.37066 v -2.22133 h -2.37066 v -2.184 h -2.464 v 2.184 h -1.36267 v 2.22133 h 1.36267 v 4.94667 c 0,1.54933 0.74666,2.464 2.464,2.464 h 2.37066 v -2.22134 z"
       style="font-style:normal;font-variant:normal;font-weight:bold;font-stretch:normal;font-size:18.66666603px;font-family:'Simplon Norm';-inkscape-font-specification:'Simplon Norm Bold';text-align:end;text-anchor:end"
       id="path5569"
       inkscape:connector-curvature="0" />
    <path
       d="m 217.34746,410.40877 v -1.49334 c 0,-2.66933 -1.53067,-4.424 -4.29334,-4.424 -2.76266,0 -4.29333,1.75467 -4.29333,4.424 v 1.232 c 0,2.66934 1.53067,4.424 4.29333,4.424 2.352,0 3.808,-1.26933 4.2,-3.28533 h -2.50133 c -0.24267,0.65333 -0.84,1.064 -1.69867,1.064 -1.176,0 -1.82933,-0.74667 -1.82933,-1.88533 v -0.056 z m -4.29334,-3.696 c 1.10134,0 1.736,0.63466 1.81067,1.64266 v 0.0187 h -3.64 v -0.0187 c 0.0933,-0.98933 0.728,-1.64266 1.82933,-1.64266 z"
       style="font-style:normal;font-variant:normal;font-weight:bold;font-stretch:normal;font-size:18.66666603px;font-family:'Simplon Norm';-inkscape-font-specification:'Simplon Norm Bold';text-align:end;text-anchor:end"
       id="path5571"
       inkscape:connector-curvature="0" />
    <path
       d="m 223.37445,412.16343 c -0.896,0 -1.77333,-0.57866 -1.77333,-1.86666 v -5.544 h -2.464 v 5.63733 c 0,2.89333 1.88533,4.18133 3.67733,4.18133 1.176,0 1.92267,-0.57866 2.33334,-1.232 v 1.04534 h 2.464 v -9.632 h -2.464 v 5.544 c 0,1.288 -0.87734,1.86666 -1.77334,1.86666 z"
       style="font-style:normal;font-variant:normal;font-weight:bold;font-stretch:normal;font-size:18.66666603px;font-family:'Simplon Norm';-inkscape-font-specification:'Simplon Norm Bold';text-align:end;text-anchor:end"
       id="path5573"
       inkscape:connector-curvature="0" />
    <path
       d="m 232.30471,408.85943 c 0,-1.30666 0.896,-1.86666 1.82933,-1.86666 h 1.15733 v -2.408 h -0.74666 c -1.13867,0 -1.96,0.57866 -2.24,1.21333 v -1.04533 h -2.464 v 9.632 h 2.464 z"
       style="font-style:normal;font-variant:normal;font-weight:bold;font-stretch:normal;font-size:18.66666603px;font-family:'Simplon Norm';-inkscape-font-specification:'Simplon Norm Bold';text-align:end;text-anchor:end"
       id="path5575"
       inkscape:connector-curvature="0" />
    <path
       d="m 180.42946,460.87543 c -0.13067,0.91467 -0.76534,1.47467 -1.792,1.47467 -1.176,0 -1.82934,-0.74667 -1.82934,-1.88533 v -1.86667 c 0,-1.13867 0.65334,-1.88533 1.82934,-1.88533 1.02666,0 1.64266,0.57866 1.792,1.47466 h 2.46399 c -0.26133,-2.25866 -1.75466,-3.696 -4.25599,-3.696 -2.76267,0 -4.29334,1.75467 -4.29334,4.424 v 1.232 c 0,2.66934 1.53067,4.424 4.29334,4.424 2.50133,0 3.99466,-1.43733 4.25599,-3.696 z"
       style="font-style:normal;font-variant:normal;font-weight:bold;font-stretch:normal;font-size:18.66666603px;font-family:'Simplon Norm';-inkscape-font-specification:'Simplon Norm Bold';text-align:end;text-anchor:end"
       id="path5577"
       inkscape:connector-curvature="0" />
    <path
       d="m 190.36479,458.13143 c -1.456,0.112 -3.37867,0.26134 -4.33067,0.70934 -1.344,0.63466 -1.82933,1.47466 -1.82933,2.87466 0,1.77334 1.30666,2.856 3.50933,2.856 1.47467,0 2.24,-0.56 2.688,-1.288 v 1.10134 h 2.464 v -5.46934 c 0,-2.66933 -1.53067,-4.424 -4.29333,-4.424 -2.352,0 -3.78934,1.26934 -4.18134,3.28534 h 2.48267 c 0.24267,-0.65334 0.84,-1.064 1.69867,-1.064 1.008,0 1.624,0.54133 1.792,1.4 z m -3.17334,2.48267 c 0.46667,-0.24267 1.81067,-0.35467 3.21067,-0.448 v 0.31733 c 0,1.21334 -1.008,1.92267 -2.27733,1.92267 -1.10134,0 -1.456,-0.504 -1.456,-0.97067 0,-0.41066 0.112,-0.616 0.52266,-0.82133 z"
       style="font-style:normal;font-variant:normal;font-weight:bold;font-stretch:normal;font-size:18.66666603px;font-family:'Simplon Norm';-inkscape-font-specification:'Simplon Norm Bold';text-align:end;text-anchor:end"
       id="path5579"
       inkscape:connector-curvature="0" />
    <path
       d="m 198.49587,464.57143 c 2.016,0 3.752,-0.82133 3.752,-2.968 0,-1.99733 -1.288,-2.72533 -2.33333,-2.968 l -2.16533,-0.48533 c -0.41067,-0.0933 -0.74667,-0.29867 -0.74667,-0.70933 0.0187,-0.448 0.42933,-0.728 1.13867,-0.728 0.616,0 1.15733,0.28 1.288,0.896 h 2.51999 c -0.168,-2.184 -1.77333,-3.11734 -3.73333,-3.11734 -1.97866,0 -3.67733,1.08267 -3.67733,2.968 0,1.88534 1.32533,2.70667 2.37067,2.94934 l 2.016,0.448 c 0.57866,0.13066 0.85866,0.35466 0.85866,0.74666 0,0.63467 -0.728,0.74667 -1.21333,0.74667 -0.80267,0 -1.68,-0.336 -1.792,-1.08267 h -2.464 c 0.0933,2.27734 2.184,3.304 4.18133,3.304 z"
       style="font-style:normal;font-variant:normal;font-weight:bold;font-stretch:normal;font-size:18.66666603px;font-family:'Simplon Norm';-inkscape-font-specification:'Simplon Norm Bold';text-align:end;text-anchor:end"
       id="path5581"
       inkscape:connector-curvature="0" />
    <path
       d="m 207.5037,462.16343 c -0.59733,0 -0.70933,-0.31733 -0.70933,-0.76533 v -4.424 h 2.37067 v -2.22133 h -2.37067 v -2.184 h -2.464 v 2.184 h -1.36267 v 2.22133 h 1.36267 v 4.94667 c 0,1.54933 0.74667,2.464 2.464,2.464 h 2.37067 v -2.22134 z"
       style="font-style:normal;font-variant:normal;font-weight:bold;font-stretch:normal;font-size:18.66666603px;font-family:'Simplon Norm';-inkscape-font-specification:'Simplon Norm Bold';text-align:end;text-anchor:end"
       id="path5583"
       inkscape:connector-curvature="0" />
    <path
       d="m 213.20054,451.3181 h -2.464 v 2.184 h 2.464 z m 0,3.43467 h -2.464 v 9.632 h 2.464 z"
       style="font-style:normal;font-variant:normal;font-weight:bold;font-stretch:normal;font-size:18.66666603px;font-family:'Simplon Norm';-inkscape-font-specification:'Simplon Norm Bold';text-align:end;text-anchor:end"
       id="path5585"
       inkscape:connector-curvature="0" />
    <path
       d="m 224.02633,458.67277 c 0,-2.83734 -1.904,-4.18134 -3.864,-4.18134 -0.85867,0 -1.82933,0.448 -2.25867,1.10134 v -0.84 h -2.464 v 9.632 h 2.464 v -5.61867 c 0,-1.30667 0.896,-1.86667 1.82934,-1.86667 0.93333,0 1.82933,0.56 1.82933,1.86667 v 5.61867 h 2.464 z"
       style="font-style:normal;font-variant:normal;font-weight:bold;font-stretch:normal;font-size:18.66666603px;font-family:'Simplon Norm';-inkscape-font-specification:'Simplon Norm Bold';text-align:end;text-anchor:end"
       id="path5587"
       inkscape:connector-curvature="0" />
    <path
       d="m 225.86062,464.44077 c 0.29867,2.184 1.792,3.56533 4.23733,3.56533 2.76267,0 4.29334,-1.75467 4.29334,-4.424 v -8.82933 h -2.464 v 0.84 c -0.42934,-0.65334 -1.4,-1.10134 -2.25867,-1.10134 -1.96,0 -3.864,1.344 -3.864,4.18134 v 1.02666 c 0,2.83734 1.904,4.18134 3.864,4.18134 0.85867,0 1.82933,-0.448 2.25867,-1.10134 v 1.12 c 0,1.13867 -0.65334,1.88534 -1.82934,1.88534 -0.98933,0 -1.58666,-0.504 -1.77333,-1.344 z m 2.408,-5.67467 c 0,-1.30667 0.896,-1.86667 1.82933,-1.86667 0.93334,0 1.82934,0.56 1.82934,1.86667 v 0.84 c 0,1.30667 -0.896,1.86667 -1.82934,1.86667 -0.93333,0 -1.82933,-0.56 -1.82933,-1.86667 z"
       style="font-style:normal;font-variant:normal;font-weight:bold;font-stretch:normal;font-size:18.66666603px;font-family:'Simplon Norm';-inkscape-font-specification:'Simplon Norm Bold';text-align:end;text-anchor:end"
       id="path5589"
       inkscape:connector-curvature="0" />
  </g>
  <rect
     id="rect170-3"
     style="fill:#fa9900;fill-opacity:1;stroke-width:5.03296332;stroke:#1b1b1b;stroke-opacity:1;stroke-miterlimit:4;stroke-dasharray:none"
     height="1322.297"
     y="-1452.2472"
     width="26.834373"
     x="2.0657015"
     class="bar"
     transform="matrix(0.16106423,0.98694393,-1,0,0,0)" />
  <rect
     id="rect170-3-6"
     style="fill:#fa9900;fill-opacity:1;stroke-width:5.00459812;stroke:#1b1b1b;stroke-opacity:1;stroke-miterlimit:4;stroke-dasharray:none"
     height="491.76416"
     y="-618.22461"
     width="26.532755"
     x="63.097694"
     class="bar"
     transform="matrix(0.06058095,0.99816329,-1,0,0,0)" />
  <rect
     id="rect170-3-7"
     style="fill:#fa9900;fill-opacity:1;stroke-width:5.00439952;stroke:#1b1b1b;stroke-opacity:1;stroke-miterlimit:4;stroke-dasharray:none"
     height="481.01291"
     y="-603.9389"
     width="26.530649"
     x="124.14304"
     class="bar"
     transform="matrix(0.0592612,0.99824251,-1,0,0,0)" />
  <rect
     id="rect170-3-6-5"
     style="fill:#fa9900;fill-opacity:1;stroke-width:5.00310415;stroke:#1b1b1b;stroke-opacity:1;stroke-miterlimit:4;stroke-dasharray:none"
     height="403.9624"
     y="-525.02856"
     width="26.516916"
     x="185.09752"
     class="bar"
     transform="matrix(0.04979429,0.99875949,-1,0,0,0)" />
  <rect
     id="rect170-3-3"
     style="fill:#fa9900;fill-opacity:1;stroke-width:5.00274381;stroke:#1b1b1b;stroke-opacity:1;stroke-miterlimit:4;stroke-dasharray:none"
     height="379.77216"
     y="-498.53366"
     width="26.513096"
     x="246.08083"
     class="bar"
     transform="matrix(0.04681923,0.99890338,-1,0,0,0)" />
  <rect
     id="rect170-3-6-56"
     style="fill:#fa9900;fill-opacity:1;stroke-width:5.00124863;stroke:#1b1b1b;stroke-opacity:1;stroke-miterlimit:4;stroke-dasharray:none"
     height="256.13297"
     y="-376.71893"
     width="26.49725"
     x="306.90726"
     class="bar"
     transform="matrix(0.03159557,0.99950074,-1,0,0,0)" />
  <rect
     id="rect170-3-2"
     style="fill:#fa9900;fill-opacity:1;stroke-width:5.00091626;stroke:#1b1b1b;stroke-opacity:1;stroke-miterlimit:4;stroke-dasharray:none"
     height="219.39958"
     y="-340.62497"
     width="26.493729"
     x="367.83185"
     class="bar"
     transform="matrix(0.02706788,0.9996336,-1,0,0,0)" />
  <rect
     style="fill:none;fill-opacity:1;stroke:none;stroke-width:2.26771665;stroke-linecap:round;stroke-linejoin:round;stroke-miterlimit:4;stroke-dasharray:none;stroke-opacity:1;paint-order:stroke fill markers"
     id="rect5596"
     width="1442.6776"
     height="352.35492"
     x="14.381845"
     y="2.6226044e-06" />
  <rect
     style="fill:none;fill-opacity:1;stroke:none;stroke-width:3.36009383;stroke-linecap:round;stroke-linejoin:round;stroke-miterlimit:4;stroke-dasharray:none;stroke-opacity:1;paint-order:stroke fill markers"
     id="rect5598"
     width="1439.9635"
     height="341.32751"
     x="22.471613"
     y="2.0387447" />
  <rect
     style="fill:none;fill-opacity:1;stroke:none;stroke-width:2.26771665;stroke-linecap:round;stroke-linejoin:round;stroke-miterlimit:4;stroke-dasharray:none;stroke-opacity:1;paint-order:stroke fill markers"
     id="rect6366"
     width="1462.4526"
     height="412.57883"
     x="0"
     y="0" />
</svg>
