<?xml version="1.0" encoding="UTF-8" standalone="no"?>
<!-- Created with Inkscape (http://www.inkscape.org/) -->

<svg
   xmlns:dc="http://purl.org/dc/elements/1.1/"
   xmlns:cc="http://creativecommons.org/ns#"
   xmlns:rdf="http://www.w3.org/1999/02/22-rdf-syntax-ns#"
   xmlns:svg="http://www.w3.org/2000/svg"
   xmlns="http://www.w3.org/2000/svg"
   xmlns:sodipodi="http://sodipodi.sourceforge.net/DTD/sodipodi-0.dtd"
   xmlns:inkscape="http://www.inkscape.org/namespaces/inkscape"
   width="273.55038mm"
   height="124.9248mm"
   viewBox="0 0 273.55038 124.92481"
   version="1.1"
   id="svg844"
   inkscape:version="0.92.3 (2405546, 2018-03-11)"
   sodipodi:docname="user.svg">
  <defs
     id="defs838" />
  <sodipodi:namedview
     id="base"
     pagecolor="#ffffff"
     bordercolor="#666666"
     borderopacity="1.0"
     inkscape:pageopacity="0.0"
     inkscape:pageshadow="2"
     inkscape:zoom="0.69783855"
     inkscape:cx="636.20609"
     inkscape:cy="147.19805"
     inkscape:document-units="mm"
     inkscape:current-layer="layer1"
     showgrid="false"
     inkscape:window-width="1871"
     inkscape:window-height="1025"
     inkscape:window-x="49"
     inkscape:window-y="27"
     inkscape:window-maximized="1" />
  <metadata
     id="metadata841">
    <rdf:RDF>
      <cc:Work
         rdf:about="">
        <dc:format>image/svg+xml</dc:format>
        <dc:type
           rdf:resource="http://purl.org/dc/dcmitype/StillImage" />
        <dc:title />
      </cc:Work>
    </rdf:RDF>
  </metadata>
  <g
     inkscape:groupmode="layer"
     id="layer2"
     inkscape:label="Layer 2"
     transform="translate(-34.950384,-3.1579687)">
    <circle
       style="fill:#fa9900;fill-opacity:1;stroke:#1b1b1b;stroke-width:11.3037796;stroke-linecap:round;stroke-linejoin:round;stroke-miterlimit:4;stroke-dasharray:none;stroke-opacity:1;paint-order:markers stroke fill"
       id="path1401"
       cx="101.05549"
       cy="66.255936"
       r="53.509014" />
    <text
       xml:space="preserve"
       style="font-style:normal;font-weight:normal;font-size:54.92698669px;line-height:1.25;font-family:sans-serif;letter-spacing:0px;word-spacing:0px;fill:#ffffff;fill-opacity:0;stroke:none;stroke-width:1.37317479"
       x="76.51963"
       y="100.01603"
       id="text2015"><tspan
         sodipodi:role="line"
         id="tspan2013"
         x="76.51963"
         y="100.01603"
         style="font-style:normal;font-variant:normal;font-weight:normal;font-stretch:normal;font-size:91.54499054px;font-family:'Simplon Norm';-inkscape-font-specification:'Simplon Norm';fill:#ffffff;fill-opacity:0;stroke-width:1.37317479">?</tspan></text>
  </g>
  <g
     inkscape:label="Layer 1"
     inkscape:groupmode="layer"
     id="layer1"
     transform="translate(-43.26586,-71.104396)">
    <g
       transform="matrix(0.47129648,0,0,0.47129648,12.37636,80.762491)"
       style="image-rendering:optimizeQuality;shape-rendering:geometricPrecision;text-rendering:geometricPrecision"
       id="g10" />
    <path
       style="fill:#1b1b1b;fill-opacity:1;stroke-width:0.34013784;image-rendering:optimizeQuality;shape-rendering:geometricPrecision;text-rendering:geometricPrecision"
       inkscape:connector-curvature="0"
       class="fil0"
       d="m 108.84381,87.747043 c 13.94563,0 25.1702,11.22457 25.1702,25.170187 0,13.94566 -11.22457,25.1702 -25.1702,25.1702 -13.945647,0 -25.170198,-11.22454 -25.170198,-25.1702 0,-13.945617 11.224551,-25.170187 25.170198,-25.170187 z"
       id="path6" />
    <path
       style="fill:#1b1b1b;fill-opacity:1;stroke-width:0.3315838;image-rendering:optimizeQuality;shape-rendering:geometricPrecision;text-rendering:geometricPrecision"
       inkscape:connector-curvature="0"
       class="fil0"
       d="m 87.592269,140.63756 h 43.769051 c 16.91077,0 24.36661,12.2385 24.36661,29.14931 0,3.64741 -39.62572,24.17665 -44.73231,22.73812 l -25.966371,-7.31468 c -5.106607,-1.43853 -21.599187,-12.05127 -21.599187,-15.69872 0,-16.91077 7.251448,-28.87403 24.162207,-28.87403 z"
       id="path8"
       sodipodi:nodetypes="sssssss" />
    <g
       aria-label="?"
       transform="matrix(1.6127746,0,0,1.4738046,-15.740843,-43.17794)"
       style="font-style:normal;font-weight:normal;font-size:40px;line-height:1.25;font-family:sans-serif;letter-spacing:0px;word-spacing:0px;fill:#ffffff;fill-opacity:1;stroke:none"
       id="flowRoot2017">
      <path
         d="m 68.189484,105.14358 v -0.192 c 0.48,-5.184002 3.84,-8.544002 9.408,-8.544002 6.048,0 9.408,3.840002 9.408,9.696002 0,4.416 -2.688,6.72 -4.704,8.544 l -4.992,4.608 c -4.704,4.32 -6.048,6.432 -6.048,11.616 v 2.112 h 12.672 v -0.384 c 0,-2.016 0.768,-3.264 3.36,-5.664 l 4.992,-4.608 c 3.648,-3.36 7.392,-8.736 7.392,-15.456 0,-13.248002 -8.16,-21.888002 -22.08,-21.888002 -13.248,0 -20.928,7.776 -21.984,19.968002 v 0.192 z m 1.728,48 h 15.36 v -15.36 h -15.36 z"
         style="font-style:normal;font-variant:normal;font-weight:bold;font-stretch:normal;font-size:96px;font-family:'Simplon Norm';-inkscape-font-specification:'Simplon Norm Bold';fill:#ffffff;fill-opacity:1"
         id="path2063"
         inkscape:connector-curvature="0" />
    </g>
    <g
       aria-label="Not a free member
Visits count: 934875
Operating system: MacOS
Browser: Firefox
Screen: 1920 x 1080
"
       transform="matrix(0.26458333,0,0,0.26458333,-0.05371952,56.280173)"
       style="font-style:normal;font-weight:normal;font-size:40px;line-height:1.25;font-family:sans-serif;letter-spacing:0px;word-spacing:0px;fill:#000000;fill-opacity:1;stroke:none"
       id="flowRoot6933">
      <path
         d="m 736.63602,107.44313 h -5.36 v 18.04 l -10.4,-18.04 h -5.36 v 27.99999 h 5.36 v -18.03999 l 10.4,18.03999 h 5.36 z"
         style="font-style:normal;font-variant:normal;font-weight:bold;font-stretch:normal;line-height:2.25;font-family:'Simplon Norm';-inkscape-font-specification:'Simplon Norm Bold'"
         id="path7096" />
      <path
         d="m 741.00414,126.36313 c 0,5.71999 3.28,9.48 9.2,9.48 5.92,0 9.2,-3.76001 9.2,-9.48 v -2.64 c 0,-5.72 -3.28,-9.48 -9.2,-9.48 -5.92,0 -9.2,3.76 -9.2,9.48 z m 13.12,0.68 c 0,2.43999 -1.4,4.03999 -3.92,4.03999 -2.52,0 -3.92,-1.6 -3.92,-4.03999 v -4 c 0,-2.44 1.4,-4.04 3.92,-4.04 2.52,0 3.92,1.6 3.92,4.04 z"
         style="font-style:normal;font-variant:normal;font-weight:bold;font-stretch:normal;line-height:2.25;font-family:'Simplon Norm';-inkscape-font-specification:'Simplon Norm Bold'"
         id="path7098" />
      <path
         d="m 771.35727,130.68313 c -1.28,0 -1.52,-0.68001 -1.52,-1.64001 v -9.47999 h 5.08 v -4.76 h -5.08 v -4.68 h -5.28 v 4.68 h -2.92 v 4.76 h 2.92 v 10.59999 c 0,3.32 1.6,5.28 5.28,5.28 h 5.08 v -4.75999 z"
         style="font-style:normal;font-variant:normal;font-weight:bold;font-stretch:normal;line-height:2.25;font-family:'Simplon Norm';-inkscape-font-specification:'Simplon Norm Bold'"
         id="path7100" />
      <path
         d="m 799.16227,122.04313 c -3.12,0.24 -7.24,0.56 -9.28,1.52 -2.88,1.36 -3.92,3.16 -3.92,6.15999 0,3.80001 2.8,6.12001 7.52,6.12001 3.16,0 4.8,-1.20001 5.76,-2.76001 v 2.36 h 5.28 v -11.71999 c 0,-5.72 -3.28,-9.48 -9.2,-9.48 -5.04,0 -8.12,2.72 -8.96,7.04 h 5.32 c 0.52,-1.4 1.8,-2.28 3.64,-2.28 2.16,0 3.48,1.16 3.84,3 z m -6.8,5.32 c 1,-0.52 3.88,-0.76 6.88,-0.96 v 0.68 c 0,2.6 -2.16,4.11999 -4.88,4.11999 -2.36,0 -3.12,-1.07999 -3.12,-2.07999 0,-0.88 0.24,-1.32 1.12,-1.76 z"
         style="font-style:normal;font-variant:normal;font-weight:bold;font-stretch:normal;line-height:2.25;font-family:'Simplon Norm';-inkscape-font-specification:'Simplon Norm Bold'"
         id="path7102" />
      <path
         d="m 828.90352,112.20313 v -4.76 h -5.08 c -3.68,0 -5.28,1.96 -5.28,5.28 v 2.08 h -2.92 v 4.76 h 2.92 v 15.87999 h 5.28 v -15.87999 h 5.08 v -4.76 h -5.08 v -0.96 c 0,-0.96 0.24,-1.64 1.52,-1.64 z"
         style="font-style:normal;font-variant:normal;font-weight:bold;font-stretch:normal;line-height:2.25;font-family:'Simplon Norm';-inkscape-font-specification:'Simplon Norm Bold'"
         id="path7104" />
      <path
         d="m 836.53352,123.60313 c 0,-2.8 1.92,-4 3.92,-4 h 2.48 v -5.16 h -1.6 c -2.44,0 -4.2,1.24 -4.8,2.6 v -2.24 h -5.28 v 20.63999 h 5.28 z"
         style="font-style:normal;font-variant:normal;font-weight:bold;font-stretch:normal;line-height:2.25;font-family:'Simplon Norm';-inkscape-font-specification:'Simplon Norm Bold'"
         id="path7106" />
      <path
         d="m 863.46664,126.92313 v -3.2 c 0,-5.72 -3.28,-9.48 -9.2,-9.48 -5.92,0 -9.2,3.76 -9.2,9.48 v 2.64 c 0,5.71999 3.28,9.48 9.2,9.48 5.04,0 8.16,-2.72 9,-7.04 h -5.36 c -0.52,1.39999 -1.8,2.27999 -3.64,2.27999 -2.52,0 -3.92,-1.6 -3.92,-4.03999 v -0.12 z m -9.2,-7.92 c 2.36,0 3.72,1.36 3.88,3.52 v 0.04 h -7.8 v -0.04 c 0.2,-2.12 1.56,-3.52 3.92,-3.52 z"
         style="font-style:normal;font-variant:normal;font-weight:bold;font-stretch:normal;line-height:2.25;font-family:'Simplon Norm';-inkscape-font-specification:'Simplon Norm Bold'"
         id="path7108" />
      <path
         d="m 885.34164,126.92313 v -3.2 c 0,-5.72 -3.28,-9.48 -9.2,-9.48 -5.92,0 -9.2,3.76 -9.2,9.48 v 2.64 c 0,5.71999 3.28,9.48 9.2,9.48 5.04,0 8.16,-2.72 9,-7.04 h -5.36 c -0.52,1.39999 -1.8,2.27999 -3.64,2.27999 -2.52,0 -3.92,-1.6 -3.92,-4.03999 v -0.12 z m -9.2,-7.92 c 2.36,0 3.72,1.36 3.88,3.52 v 0.04 h -7.8 v -0.04 c 0.2,-2.12 1.56,-3.52 3.92,-3.52 z"
         style="font-style:normal;font-variant:normal;font-weight:bold;font-stretch:normal;line-height:2.25;font-family:'Simplon Norm';-inkscape-font-specification:'Simplon Norm Bold'"
         id="path7110" />
      <path
         d="m 916.05414,123.40313 c 0,-2.76 1.92,-4 3.8,-4 1.88,0 3.8,1.24 3.8,4 v 12.03999 h 5.28 v -12.23999 c 0,-6.04 -3.84,-8.96 -9.08,-8.96 -2.84,0 -4.96,0.92 -6.44,2.72 -1.44,-1.92 -3.4,-2.72 -5.56,-2.72 -1.8,0 -3.68,0.88 -4.68,2.28 v -1.72 h -5.28 v 20.63999 h 5.28 v -12.03999 c 0,-2.76 1.92,-4 3.8,-4 1.88,0 3.8,1.24 3.8,4 v 12.03999 h 5.28 z"
         style="font-style:normal;font-variant:normal;font-weight:bold;font-stretch:normal;line-height:2.25;font-family:'Simplon Norm';-inkscape-font-specification:'Simplon Norm Bold'"
         id="path7112" />
      <path
         d="m 951.20102,126.92313 v -3.2 c 0,-5.72 -3.28,-9.48 -9.2,-9.48 -5.92,0 -9.2,3.76 -9.2,9.48 v 2.64 c 0,5.71999 3.28,9.48 9.2,9.48 5.04,0 8.16,-2.72 9,-7.04 h -5.36 c -0.52,1.39999 -1.8,2.27999 -3.64,2.27999 -2.52,0 -3.92,-1.6 -3.92,-4.03999 v -0.12 z m -9.2,-7.92 c 2.36,0 3.72,1.36 3.88,3.52 v 0.04 h -7.8 v -0.04 c 0.2,-2.12 1.56,-3.52 3.92,-3.52 z"
         style="font-style:normal;font-variant:normal;font-weight:bold;font-stretch:normal;line-height:2.25;font-family:'Simplon Norm';-inkscape-font-specification:'Simplon Norm Bold'"
         id="path7114" />
      <path
         d="m 973.47602,123.40313 c 0,-2.76 1.92,-4 3.8,-4 1.88,0 3.8,1.24 3.8,4 v 12.03999 h 5.28 v -12.23999 c 0,-6.04 -3.84,-8.96 -9.08,-8.96 -2.84,0 -4.96,0.92 -6.44,2.72 -1.44,-1.92 -3.4,-2.72 -5.56,-2.72 -1.8,0 -3.68,0.88 -4.68,2.28 v -1.72 h -5.28 v 20.63999 h 5.28 v -12.03999 c 0,-2.76 1.92,-4 3.8,-4 1.88,0 3.8,1.24 3.8,4 v 12.03999 h 5.28 z"
         style="font-style:normal;font-variant:normal;font-weight:bold;font-stretch:normal;line-height:2.25;font-family:'Simplon Norm';-inkscape-font-specification:'Simplon Norm Bold'"
         id="path7116" />
      <path
         d="m 996.14289,133.48312 c 0.92,1.4 3,2.36001 4.84001,2.36001 4.2,0 8.28,-2.88 8.28,-8.96 v -3.68 c 0,-6.08 -4.08,-8.96 -8.28,-8.96 -1.84001,0 -3.92001,0.96 -4.84001,2.36 v -9.16 h -5.28 v 27.99999 h 5.28 z m 7.84001,-6.79999 c 0,2.79999 -1.92,4 -3.92,4 -2.00001,0 -3.92001,-1.20001 -3.92001,-4 v -3.28 c 0,-2.8 1.92,-4 3.92001,-4 2,0 3.92,1.2 3.92,4 z"
         style="font-style:normal;font-variant:normal;font-weight:bold;font-stretch:normal;line-height:2.25;font-family:'Simplon Norm';-inkscape-font-specification:'Simplon Norm Bold'"
         id="path7118" />
      <path
         d="m 1031.201,126.92313 v -3.2 c 0,-5.72 -3.28,-9.48 -9.2,-9.48 -5.92,0 -9.2,3.76 -9.2,9.48 v 2.64 c 0,5.71999 3.28,9.48 9.2,9.48 5.04,0 8.16,-2.72 9,-7.04 h -5.36 c -0.52,1.39999 -1.8,2.27999 -3.64,2.27999 -2.52,0 -3.92,-1.6 -3.92,-4.03999 v -0.12 z m -9.2,-7.92 c 2.36,0 3.72,1.36 3.88,3.52 v 0.04 h -7.8 v -0.04 c 0.2,-2.12 1.56,-3.52 3.92,-3.52 z"
         style="font-style:normal;font-variant:normal;font-weight:bold;font-stretch:normal;line-height:2.25;font-family:'Simplon Norm';-inkscape-font-specification:'Simplon Norm Bold'"
         id="path7120" />
      <path
         d="m 1040.596,123.60313 c 0,-2.8 1.92,-4 3.92,-4 h 2.48 v -5.16 h -1.6 c -2.44,0 -4.2,1.24 -4.8,2.6 v -2.24 h -5.28 v 20.63999 h 5.28 z"
         style="font-style:normal;font-variant:normal;font-weight:bold;font-stretch:normal;line-height:2.25;font-family:'Simplon Norm';-inkscape-font-specification:'Simplon Norm Bold'"
         id="path7122" />
      <path
         d="m 725.47602,216.92312 -6.96,-19.48 h -5.64 l 10,28 h 5.2 l 10,-28 h -5.64 z"
         style="font-style:normal;font-variant:normal;font-weight:bold;font-stretch:normal;line-height:2.25;font-family:'Simplon Norm';-inkscape-font-specification:'Simplon Norm Bold'"
         id="path7124" />
      <path
         d="m 745.75227,197.44312 h -5.28 v 4.68001 h 5.28 z m 0,7.36001 h -5.28 v 20.63999 h 5.28 z"
         style="font-style:normal;font-variant:normal;font-weight:bold;font-stretch:normal;line-height:2.25;font-family:'Simplon Norm';-inkscape-font-specification:'Simplon Norm Bold'"
         id="path7126" />
      <path
         d="m 758.07039,225.84313 c 4.32,0 8.04,-1.76001 8.04,-6.36001 0,-4.28 -2.76,-5.84 -5,-6.35999 l -4.64,-1.04001 c -0.88,-0.2 -1.6,-0.64 -1.6,-1.51999 0.04,-0.96001 0.92,-1.56001 2.44,-1.56001 1.32,0 2.48,0.6 2.76,1.92 h 5.4 c -0.36,-4.67999 -3.8,-6.67999 -8,-6.67999 -4.24,0 -7.88,2.32 -7.88,6.35999 0,4.04 2.84,5.80001 5.08,6.32 l 4.32,0.96 c 1.24,0.28 1.84,0.76 1.84,1.6 0,1.36001 -1.56,1.6 -2.6,1.6 -1.72,0 -3.6,-0.72 -3.84,-2.32 h -5.28 c 0.2,4.88 4.68,7.08001 8.96,7.08001 z"
         style="font-style:normal;font-variant:normal;font-weight:bold;font-stretch:normal;line-height:2.25;font-family:'Simplon Norm';-inkscape-font-specification:'Simplon Norm Bold'"
         id="path7128" />
      <path
         d="m 774.89289,197.44312 h -5.28 v 4.68001 h 5.28 z m 0,7.36001 h -5.28 v 20.63999 h 5.28 z"
         style="font-style:normal;font-variant:normal;font-weight:bold;font-stretch:normal;line-height:2.25;font-family:'Simplon Norm';-inkscape-font-specification:'Simplon Norm Bold'"
         id="path7130" />
      <path
         d="m 787.45102,220.68313 c -1.28,0 -1.52,-0.68001 -1.52,-1.64001 v -9.47999 h 5.08 v -4.76 h -5.08 v -4.68 h -5.28 v 4.68 h -2.92 v 4.76 h 2.92 v 10.59999 c 0,3.32 1.6,5.28 5.28,5.28 h 5.08 v -4.75999 z"
         style="font-style:normal;font-variant:normal;font-weight:bold;font-stretch:normal;line-height:2.25;font-family:'Simplon Norm';-inkscape-font-specification:'Simplon Norm Bold'"
         id="path7132" />
      <path
         d="m 801.89852,225.84313 c 4.32,0 8.04,-1.76001 8.04,-6.36001 0,-4.28 -2.76,-5.84 -5,-6.35999 l -4.64,-1.04001 c -0.88,-0.2 -1.6,-0.64 -1.6,-1.51999 0.04,-0.96001 0.92,-1.56001 2.44,-1.56001 1.32,0 2.48,0.6 2.76,1.92 h 5.4 c -0.36,-4.67999 -3.8,-6.67999 -8,-6.67999 -4.24,0 -7.88,2.32 -7.88,6.35999 0,4.04 2.84,5.80001 5.08,6.32 l 4.32,0.96 c 1.24,0.28 1.84,0.76 1.84,1.6 0,1.36001 -1.56,1.6 -2.6,1.6 -1.72,0 -3.6,-0.72 -3.84,-2.32 h -5.28 c 0.2,4.88 4.68,7.08001 8.96,7.08001 z"
         style="font-style:normal;font-variant:normal;font-weight:bold;font-stretch:normal;line-height:2.25;font-family:'Simplon Norm';-inkscape-font-specification:'Simplon Norm Bold'"
         id="path7134" />
      <path
         d="m 834.27852,217.92312 c -0.28,1.96 -1.64,3.16 -3.84,3.16 -2.52,0 -3.92,-1.6 -3.92,-4.04 v -4 c 0,-2.44 1.4,-4.04 3.92,-4.04 2.2,0 3.52,1.24001 3.84,3.16 h 5.28 c -0.56,-4.84 -3.76,-7.91999 -9.12,-7.91999 -5.92,0 -9.2,3.75999 -9.2,9.47999 v 2.64 c 0,5.72 3.28,9.48001 9.2,9.48001 5.36,0 8.56,-3.08001 9.12,-7.92001 z"
         style="font-style:normal;font-variant:normal;font-weight:bold;font-stretch:normal;line-height:2.25;font-family:'Simplon Norm';-inkscape-font-specification:'Simplon Norm Bold'"
         id="path7136" />
      <path
         d="m 842.72289,216.36312 c 0,5.72 3.28,9.48001 9.2,9.48001 5.92,0 9.2,-3.76001 9.2,-9.48001 v -2.64 c 0,-5.72 -3.28,-9.47999 -9.2,-9.47999 -5.92,0 -9.2,3.75999 -9.2,9.47999 z m 13.12,0.68 c 0,2.44 -1.4,4.04 -3.92,4.04 -2.52,0 -3.92,-1.6 -3.92,-4.04 v -4 c 0,-2.44 1.4,-4.04 3.92,-4.04 2.52,0 3.92,1.6 3.92,4.04 z"
         style="font-style:normal;font-variant:normal;font-weight:bold;font-stretch:normal;line-height:2.25;font-family:'Simplon Norm';-inkscape-font-specification:'Simplon Norm Bold'"
         id="path7138" />
      <path
         d="m 874.11602,220.68313 c -1.92,0 -3.8,-1.24001 -3.8,-4 v -11.88 h -5.28 v 12.07999 c 0,6.2 4.04,8.96001 7.88,8.96001 2.52,0 4.12,-1.24001 5,-2.64001 v 2.24 h 5.28 v -20.63999 h -5.28 v 11.88 c 0,2.75999 -1.88,4 -3.8,4 z"
         style="font-style:normal;font-variant:normal;font-weight:bold;font-stretch:normal;line-height:2.25;font-family:'Simplon Norm';-inkscape-font-specification:'Simplon Norm Bold'"
         id="path7140" />
      <path
         d="m 906.37227,213.20312 c 0,-6.07999 -4.08,-8.95999 -8.28,-8.95999 -1.84,0 -3.92,0.95999 -4.84,2.35999 v -1.79999 h -5.28 v 20.63999 h 5.28 v -12.03999 c 0,-2.80001 1.92,-4 3.92,-4 2,0 3.92,1.19999 3.92,4 v 12.03999 h 5.28 z"
         style="font-style:normal;font-variant:normal;font-weight:bold;font-stretch:normal;line-height:2.25;font-family:'Simplon Norm';-inkscape-font-specification:'Simplon Norm Bold'"
         id="path7142" />
      <path
         d="m 918.62289,220.68313 c -1.28,0 -1.52,-0.68001 -1.52,-1.64001 v -9.47999 h 5.08 v -4.76 h -5.08 v -4.68 h -5.28 v 4.68 h -2.92 v 4.76 h 2.92 v 10.59999 c 0,3.32 1.6,5.28 5.28,5.28 h 5.08 v -4.75999 z"
         style="font-style:normal;font-variant:normal;font-weight:bold;font-stretch:normal;line-height:2.25;font-family:'Simplon Norm';-inkscape-font-specification:'Simplon Norm Bold'"
         id="path7144" />
      <path
         d="m 925.95039,211.20312 h 6.4 v -6.39999 h -6.4 z m 0,14.24 h 6.4 v -6.4 h -6.4 z"
         style="font-style:normal;font-variant:normal;font-weight:bold;font-stretch:normal;line-height:2.25;font-family:'Simplon Norm';-inkscape-font-specification:'Simplon Norm Bold'"
         id="path7146" />
      <path
         d="m 963.73914,206.28312 c 0,-5.59999 -3.36,-9.24 -9.2,-9.24 -5.84,0 -9.2,3.64001 -9.2,9.20001 v 0.08 c 0,5.44 3.32,9.16 8.96,9.16 1.88,0 3.48,-0.67999 4.16,-1.23999 v 2.79999 c 0,2.44 -1.4,4.04 -3.92,4.04 -2.36,0 -3.76,-1.44 -3.92,-3.6 v -0.04 h -5.24 v 0.04 c 0.4,5.08001 3.6,8.36001 9.16,8.36001 5.92,0 9.2,-3.76001 9.2,-9.48001 z m -5.28,0.56001 c -0.04,2.35999 -1.44,3.87999 -3.92,3.87999 -2.52,0 -3.92,-1.59999 -3.92,-4.03999 v -0.84 c 0,-2.44 1.4,-4.04 3.92,-4.04 2.52,0 3.92,1.6 3.92,4.04 z"
         style="font-style:normal;font-variant:normal;font-weight:bold;font-stretch:normal;line-height:2.25;font-family:'Simplon Norm';-inkscape-font-specification:'Simplon Norm Bold'"
         id="path7148" />
      <path
         d="m 980.12852,217.60312 c 0,2.20001 -1.48,3.48 -3.76,3.48 -2.36,0 -3.96,-1.44 -4.12,-3.6 v -0.04 h -5.24 v 0.04 c 0.4,5.08001 3.76,8.36001 9.32,8.36001 5.64,0 9.08,-3 9.08,-7.96001 0,-2.19999 -1.12,-5.16 -2.96,-6.31999 2.04,-1.44 2.96,-3.84001 2.96,-5.92001 0,-4.79999 -3.44,-8.6 -9.2,-8.6 -5.56,0 -8.8,3.28 -9.2,8.36001 v 0.04 h 5.24 v -0.04 c 0.16,-2.16 1.6,-3.6 3.96,-3.6 2.52,0 3.92,1.6 3.92,4.04 0,2.07999 -1.56,3.28 -4.12,3.28 h -2.32 v 4.75999 h 2.32 c 2.44,0 4.12,1.44 4.12,3.72 z"
         style="font-style:normal;font-variant:normal;font-weight:bold;font-stretch:normal;line-height:2.25;font-family:'Simplon Norm';-inkscape-font-specification:'Simplon Norm Bold'"
         id="path7150" />
      <path
         d="m 1007.4929,219.08312 v -4.67999 h -2.92 v -16.96001 h -5.28001 l -12.08,16.96001 v 4.67999 h 12.08 v 6.36 h 5.28001 v -6.36 z m -14.16001,-4.67999 5.96,-8.36001 v 8.36001 z"
         style="font-style:normal;font-variant:normal;font-weight:bold;font-stretch:normal;line-height:2.25;font-family:'Simplon Norm';-inkscape-font-specification:'Simplon Norm Bold'"
         id="path7152" />
      <path
         d="m 1018.9941,225.84313 c 5.24,0 9.2,-3.24001 9.2,-8.52001 0,-2.35999 -0.96,-4.63999 -2.72,-6 1.72,-1.56 2.44,-3.51999 2.44,-5.88 0,-5.12 -3.56,-8.4 -8.92,-8.4 -5.36,0 -8.92,3.28 -8.92,8.4 0,2.36001 0.72,4.32 2.44,5.88 -1.76,1.36001 -2.72,3.64001 -2.72,6 0,5.28 3.96,8.52001 9.2,8.52001 z m 0,-24.04 c 2.28,0 3.64,1.71999 3.64,3.63999 0,1.92 -1.36,3.64 -3.64,3.64 -2.28,0 -3.64,-1.72 -3.64,-3.64 0,-1.92 1.36,-3.63999 3.64,-3.63999 z m 0,11.76 c 2.28,0 3.92,1.51999 3.92,3.75999 0,2.20001 -1.64,3.76 -3.92,3.76 -2.28,0 -3.92,-1.55999 -3.92,-3.76 0,-2.24 1.64,-3.75999 3.92,-3.75999 z"
         style="font-style:normal;font-variant:normal;font-weight:bold;font-stretch:normal;line-height:2.25;font-family:'Simplon Norm';-inkscape-font-specification:'Simplon Norm Bold'"
         id="path7154" />
      <path
         d="m 1048.3054,202.20312 v -4.76 h -18.16 v 4.76 h 12.6 l -8.72,23.24 h 5.56 z"
         style="font-style:normal;font-variant:normal;font-weight:bold;font-stretch:normal;line-height:2.25;font-family:'Simplon Norm';-inkscape-font-specification:'Simplon Norm Bold'"
         id="path7156" />
      <path
         d="m 1056.2973,214.04312 c 0.56,-1.4 1.8,-2.16 3.56,-2.16 2.52,0 3.92,1.6 3.92,4.04 v 1.52 c 0,2.12001 -1.28,3.64 -3.92,3.64 -2.28,0 -3.8,-1.48 -3.96,-3.6 v -0.04 h -5.24 v 0.04 c 0.4,5.08001 3.36,8.36001 9.44,8.36001 5.24,0 8.96,-3 8.96,-7.96001 v -1.28 c 0,-5.72 -3.16,-9.47999 -8.8,-9.47999 -1.52,0 -3.2,0.44 -3.96,0.91999 v -5.84 h 11.68 v -4.76 h -16.96 v 16.6 z"
         style="font-style:normal;font-variant:normal;font-weight:bold;font-stretch:normal;line-height:2.25;font-family:'Simplon Norm';-inkscape-font-specification:'Simplon Norm Bold'"
         id="path7158" />
      <path
         d="m 735.79602,305.48313 v -8.08001 c 0,-6.2 -3.84,-10.35999 -10.56,-10.35999 -6.72,0 -10.56,4.15999 -10.56,10.35999 v 8.08001 c 0,6.2 3.84,10.35999 10.56,10.35999 6.72,0 10.56,-4.15999 10.56,-10.35999 z m -5.36,0 c 0,3.23999 -2.28,5.03999 -5.2,5.03999 -2.92,0 -5.2,-1.8 -5.2,-5.03999 v -8.08001 c 0,-3.23999 2.28,-5.03999 5.2,-5.03999 2.92,0 5.2,1.8 5.2,5.03999 z"
         style="font-style:normal;font-variant:normal;font-weight:bold;font-stretch:normal;line-height:2.25;font-family:'Simplon Norm';-inkscape-font-specification:'Simplon Norm Bold'"
         id="path7160" />
      <path
         d="m 745.20539,313.48313 c 0.92,1.39999 3,2.35999 4.84,2.35999 4.2,0 8.28,-2.88 8.28,-8.96 v -3.68 c 0,-6.07999 -4.08,-8.95999 -8.28,-8.95999 -1.84,0 -3.92,0.95999 -4.84,2.36 v -1.8 h -5.28 v 28 h 5.28 z m 7.84,-6.8 c 0,2.8 -1.92,4 -3.92,4 -2,0 -3.92,-1.2 -3.92,-4 v -3.28001 c 0,-2.79999 1.92,-4 3.92,-4 2,0 3.92,1.20001 3.92,4 z"
         style="font-style:normal;font-variant:normal;font-weight:bold;font-stretch:normal;line-height:2.25;font-family:'Simplon Norm';-inkscape-font-specification:'Simplon Norm Bold'"
         id="path7162" />
      <path
         d="m 780.26352,306.92313 v -3.20001 c 0,-5.72 -3.28,-9.47999 -9.2,-9.47999 -5.92,0 -9.2,3.75999 -9.2,9.47999 v 2.64001 c 0,5.71999 3.28,9.47999 9.2,9.47999 5.04,0 8.16,-2.71999 9,-7.03999 h -5.36 c -0.52,1.39999 -1.8,2.27999 -3.64,2.27999 -2.52,0 -3.92,-1.59999 -3.92,-4.03999 v -0.12 z m -9.2,-7.92001 c 2.36,0 3.72,1.36001 3.88,3.52 v 0.04 h -7.8 v -0.04 c 0.2,-2.12 1.56,-3.52 3.92,-3.52 z"
         style="font-style:normal;font-variant:normal;font-weight:bold;font-stretch:normal;line-height:2.25;font-family:'Simplon Norm';-inkscape-font-specification:'Simplon Norm Bold'"
         id="path7164" />
      <path
         d="m 789.65852,303.60313 c 0,-2.8 1.92,-4 3.92,-4 h 2.48 v -5.16001 h -1.6 c -2.44,0 -4.2,1.24001 -4.8,2.60001 v -2.24 h -5.28 v 20.63999 h 5.28 z"
         style="font-style:normal;font-variant:normal;font-weight:bold;font-stretch:normal;line-height:2.25;font-family:'Simplon Norm';-inkscape-font-specification:'Simplon Norm Bold'"
         id="path7166" />
      <path
         d="m 811.11539,302.04313 c -3.12,0.23999 -7.24,0.56 -9.28,1.52 -2.88,1.36 -3.92,3.15999 -3.92,6.15999 0,3.8 2.8,6.12 7.52,6.12 3.16,0 4.8,-1.2 5.76,-2.76 v 2.36 h 5.28 v -11.72 c 0,-5.72 -3.28,-9.47999 -9.2,-9.47999 -5.04,0 -8.12,2.71999 -8.96,7.03999 h 5.32 c 0.52,-1.4 1.8,-2.28 3.64,-2.28 2.16,0 3.48,1.16001 3.84,3 z m -6.8,5.32 c 1,-0.52001 3.88,-0.76 6.88,-0.96001 v 0.68 c 0,2.60001 -2.16,4.12 -4.88,4.12 -2.36,0 -3.12,-1.07999 -3.12,-2.07999 0,-0.88 0.24,-1.32 1.12,-1.76 z"
         style="font-style:normal;font-variant:normal;font-weight:bold;font-stretch:normal;line-height:2.25;font-family:'Simplon Norm';-inkscape-font-specification:'Simplon Norm Bold'"
         id="path7168" />
      <path
         d="m 828.77914,310.68313 c -1.28,0 -1.52,-0.68001 -1.52,-1.64 v -9.48 h 5.08 v -4.76 h -5.08 v -4.68 h -5.28 v 4.68 h -2.92 v 4.76 h 2.92 v 10.6 c 0,3.32 1.6,5.27999 5.28,5.27999 h 5.08 v -4.75999 z"
         style="font-style:normal;font-variant:normal;font-weight:bold;font-stretch:normal;line-height:2.25;font-family:'Simplon Norm';-inkscape-font-specification:'Simplon Norm Bold'"
         id="path7170" />
      <path
         d="m 840.98664,287.44312 h -5.28 v 4.68001 h 5.28 z m 0,7.36001 h -5.28 v 20.63999 h 5.28 z"
         style="font-style:normal;font-variant:normal;font-weight:bold;font-stretch:normal;line-height:2.25;font-family:'Simplon Norm';-inkscape-font-specification:'Simplon Norm Bold'"
         id="path7172" />
      <path
         d="m 864.18477,303.20312 c 0,-6.07999 -4.08,-8.95999 -8.28,-8.95999 -1.84,0 -3.92,0.95999 -4.84,2.36 v -1.8 h -5.28 v 20.63999 h 5.28 v -12.04 c 0,-2.79999 1.92,-4 3.92,-4 2,0 3.92,1.20001 3.92,4 v 12.04 h 5.28 z"
         style="font-style:normal;font-variant:normal;font-weight:bold;font-stretch:normal;line-height:2.25;font-family:'Simplon Norm';-inkscape-font-specification:'Simplon Norm Bold'"
         id="path7174" />
      <path
         d="m 868.11539,315.56313 c 0.64,4.68 3.84,7.63999 9.08,7.63999 5.92,0 9.2,-3.76 9.2,-9.48 v -18.91999 h -5.28 v 1.8 c -0.92,-1.40001 -3,-2.36 -4.84,-2.36 -4.2,0 -8.28,2.88 -8.28,8.95999 v 2.2 c 0,6.08001 4.08,8.96001 8.28,8.96001 1.84,0 3.92,-0.96001 4.84,-2.36001 v 2.4 c 0,2.44 -1.4,4.04 -3.92,4.04 -2.12,0 -3.4,-1.07999 -3.8,-2.87999 z m 5.16,-12.16001 c 0,-2.79999 1.92,-4 3.92,-4 2,0 3.92,1.20001 3.92,4 v 1.8 c 0,2.8 -1.92,4 -3.92,4 -2,0 -3.92,-1.2 -3.92,-4 z"
         style="font-style:normal;font-variant:normal;font-weight:bold;font-stretch:normal;line-height:2.25;font-family:'Simplon Norm';-inkscape-font-specification:'Simplon Norm Bold'"
         id="path7176" />
      <path
         d="m 907.13289,315.84312 c 4.32,0 8.04,-1.76 8.04,-6.35999 0,-4.28001 -2.76,-5.84001 -5,-6.36 l -4.64,-1.04001 c -0.88,-0.2 -1.6,-0.64 -1.6,-1.51999 0.04,-0.96 0.92,-1.56001 2.44,-1.56001 1.32,0 2.48,0.60001 2.76,1.92001 h 5.4 c -0.36,-4.68 -3.8,-6.68 -8,-6.68 -4.24,0 -7.88,2.32 -7.88,6.36 0,4.03999 2.84,5.79999 5.08,6.32 l 4.32,0.95999 c 1.24,0.28001 1.84,0.76 1.84,1.60001 0,1.35999 -1.56,1.59999 -2.6,1.59999 -1.72,0 -3.6,-0.71999 -3.84,-2.32 h -5.28 c 0.2,4.88 4.68,7.08 8.96,7.08 z"
         style="font-style:normal;font-variant:normal;font-weight:bold;font-stretch:normal;line-height:2.25;font-family:'Simplon Norm';-inkscape-font-specification:'Simplon Norm Bold'"
         id="path7178" />
      <path
         d="m 936.23539,294.80313 h -5.56 l -4.6,13.15999 -4.6,-13.15999 h -5.56 l 7.36,20.63999 -0.6,1.68001 c -0.16,0.44 -0.44,0.92 -1.4,0.92 h -2.2 v 4.76 h 3.92 c 3.68,0 4,-2.28001 5.12,-5.40001 z"
         style="font-style:normal;font-variant:normal;font-weight:bold;font-stretch:normal;line-height:2.25;font-family:'Simplon Norm';-inkscape-font-specification:'Simplon Norm Bold'"
         id="path7180" />
      <path
         d="m 945.80477,315.84312 c 4.32,0 8.04,-1.76 8.04,-6.35999 0,-4.28001 -2.76,-5.84001 -5,-6.36 l -4.64,-1.04001 c -0.88,-0.2 -1.6,-0.64 -1.6,-1.51999 0.04,-0.96 0.92,-1.56001 2.44,-1.56001 1.32,0 2.48,0.60001 2.76,1.92001 h 5.4 c -0.36,-4.68 -3.8,-6.68 -8,-6.68 -4.24,0 -7.88,2.32 -7.88,6.36 0,4.03999 2.84,5.79999 5.08,6.32 l 4.32,0.95999 c 1.24,0.28001 1.84,0.76 1.84,1.60001 0,1.35999 -1.56,1.59999 -2.6,1.59999 -1.72,0 -3.6,-0.71999 -3.84,-2.32 h -5.28 c 0.2,4.88 4.68,7.08 8.96,7.08 z"
         style="font-style:normal;font-variant:normal;font-weight:bold;font-stretch:normal;line-height:2.25;font-family:'Simplon Norm';-inkscape-font-specification:'Simplon Norm Bold'"
         id="path7182" />
      <path
         d="m 965.10727,310.68313 c -1.28,0 -1.52,-0.68001 -1.52,-1.64 v -9.48 h 5.08 v -4.76 h -5.08 v -4.68 h -5.28 v 4.68 h -2.92 v 4.76 h 2.92 v 10.6 c 0,3.32 1.6,5.27999 5.28,5.27999 h 5.08 v -4.75999 z"
         style="font-style:normal;font-variant:normal;font-weight:bold;font-stretch:normal;line-height:2.25;font-family:'Simplon Norm';-inkscape-font-specification:'Simplon Norm Bold'"
         id="path7184" />
      <path
         d="m 989.79477,306.92313 v -3.20001 c 0,-5.72 -3.28,-9.47999 -9.2,-9.47999 -5.92,0 -9.2,3.75999 -9.2,9.47999 v 2.64001 c 0,5.71999 3.28,9.47999 9.2,9.47999 5.04,0 8.16,-2.71999 9,-7.03999 h -5.36 c -0.52,1.39999 -1.8,2.27999 -3.64,2.27999 -2.52,0 -3.92,-1.59999 -3.92,-4.03999 v -0.12 z m -9.2,-7.92001 c 2.36,0 3.72,1.36001 3.88,3.52 v 0.04 h -7.8 v -0.04 c 0.2,-2.12 1.56,-3.52 3.92,-3.52 z"
         style="font-style:normal;font-variant:normal;font-weight:bold;font-stretch:normal;line-height:2.25;font-family:'Simplon Norm';-inkscape-font-specification:'Simplon Norm Bold'"
         id="path7186" />
      <path
         d="m 1012.0698,303.40312 c 0,-2.76 1.92,-4 3.8,-4 1.88,0 3.8,1.24 3.8,4 v 12.04 h 5.28 v -12.24 c 0,-6.03999 -3.84,-8.95999 -9.08,-8.95999 -2.84,0 -4.96,0.92 -6.44,2.71999 -1.44,-1.91999 -3.4,-2.71999 -5.56,-2.71999 -1.8,0 -3.68,0.88 -4.68003,2.27999 v -1.71999 h -5.28 v 20.63999 h 5.28 v -12.04 c 0,-2.76 1.92003,-4 3.80003,-4 1.88,0 3.8,1.24 3.8,4 v 12.04 h 5.28 z"
         style="font-style:normal;font-variant:normal;font-weight:bold;font-stretch:normal;line-height:2.25;font-family:'Simplon Norm';-inkscape-font-specification:'Simplon Norm Bold'"
         id="path7188" />
      <path
         d="m 1029.8566,301.20312 h 6.4 v -6.39999 h -6.4 z m 0,14.24 h 6.4 v -6.39999 h -6.4 z"
         style="font-style:normal;font-variant:normal;font-weight:bold;font-stretch:normal;line-height:2.25;font-family:'Simplon Norm';-inkscape-font-specification:'Simplon Norm Bold'"
         id="path7190" />
      <path
         d="m 1064.5254,307.92313 4.84,-10.08001 v 17.6 h 5.32 v -28 h -5.36 l -6.92,14.4 -6.92,-14.4 h -5.36 v 28 h 5.32 v -17.6 l 4.84,10.08001 z"
         style="font-style:normal;font-variant:normal;font-weight:bold;font-stretch:normal;line-height:2.25;font-family:'Simplon Norm';-inkscape-font-specification:'Simplon Norm Bold'"
         id="path7192" />
      <path
         d="m 1092.131,302.04313 c -3.12,0.23999 -7.24,0.56 -9.28,1.52 -2.88,1.36 -3.92,3.15999 -3.92,6.15999 0,3.8 2.8,6.12 7.52,6.12 3.16,0 4.8,-1.2 5.76,-2.76 v 2.36 h 5.28 v -11.72 c 0,-5.72 -3.28,-9.47999 -9.2,-9.47999 -5.04,0 -8.12,2.71999 -8.96,7.03999 h 5.32 c 0.52,-1.4 1.8,-2.28 3.64,-2.28 2.16,0 3.48,1.16001 3.84,3 z m -6.8,5.32 c 1,-0.52001 3.88,-0.76 6.88,-0.96001 v 0.68 c 0,2.60001 -2.16,4.12 -4.88,4.12 -2.36,0 -3.12,-1.07999 -3.12,-2.07999 0,-0.88 0.24,-1.32 1.12,-1.76 z"
         style="font-style:normal;font-variant:normal;font-weight:bold;font-stretch:normal;line-height:2.25;font-family:'Simplon Norm';-inkscape-font-specification:'Simplon Norm Bold'"
         id="path7194" />
      <path
         d="m 1114.4348,307.92313 c -0.28,1.95999 -1.64,3.15999 -3.84,3.15999 -2.52,0 -3.92,-1.59999 -3.92,-4.03999 v -4 c 0,-2.44 1.4,-4.04001 3.92,-4.04001 2.2,0 3.52,1.24001 3.84,3.16001 h 5.28 c -0.56,-4.84001 -3.76,-7.92 -9.12,-7.92 -5.92,0 -9.2,3.75999 -9.2,9.47999 v 2.64001 c 0,5.71999 3.28,9.47999 9.2,9.47999 5.36,0 8.56,-3.08 9.12,-7.91999 z"
         style="font-style:normal;font-variant:normal;font-weight:bold;font-stretch:normal;line-height:2.25;font-family:'Simplon Norm';-inkscape-font-specification:'Simplon Norm Bold'"
         id="path7196" />
      <path
         d="m 1143.9991,305.48313 v -8.08001 c 0,-6.2 -3.84,-10.35999 -10.56,-10.35999 -6.72,0 -10.56,4.15999 -10.56,10.35999 v 8.08001 c 0,6.2 3.84,10.35999 10.56,10.35999 6.72,0 10.56,-4.15999 10.56,-10.35999 z m -5.36,0 c 0,3.23999 -2.28,5.03999 -5.2,5.03999 -2.92,0 -5.2,-1.8 -5.2,-5.03999 v -8.08001 c 0,-3.23999 2.28,-5.03999 5.2,-5.03999 2.92,0 5.2,1.8 5.2,5.03999 z"
         style="font-style:normal;font-variant:normal;font-weight:bold;font-stretch:normal;line-height:2.25;font-family:'Simplon Norm';-inkscape-font-specification:'Simplon Norm Bold'"
         id="path7198" />
      <path
         d="m 1156.9285,315.84312 c 6.08,0 9.36,-3.08 9.36,-8.12 0,-4.72 -2.32,-7.35999 -6.64,-8.52 l -4.56,-1.24 c -1.52,-0.39999 -2.8,-1.12 -2.8,-2.76 0,-1.95999 1.6,-2.83999 3.84,-2.83999 1.8,0 3.76,0.83999 4.24,2.71999 h 5.52 c -0.6,-4.76 -4.08,-8.03999 -9.68,-8.03999 -4.88,0 -9.28,2.56 -9.28,8.15999 0,4.12 2.12,7.12 6.4,8.28001 l 4.72,1.27999 c 1.96,0.52 2.88,1.40001 2.88,2.96 0,1.92 -1.64,2.8 -4,2.8 -2.68,0 -4.52,-1.56 -4.84,-3.91999 h -5.52 c 0.28,5.56 4.24,9.23999 10.36,9.23999 z"
         style="font-style:normal;font-variant:normal;font-weight:bold;font-stretch:normal;line-height:2.25;font-family:'Simplon Norm';-inkscape-font-specification:'Simplon Norm Bold'"
         id="path7200" />
      <path
         d="m 715.51602,405.44312 h 12.24 c 5.76,0 8.88,-3.24 8.88,-8.19999 0,-2.48001 -1.24,-4.64 -3.2,-6.12 1.68,-1.28001 2.52,-3.32 2.52,-5.64 0,-4.84001 -3.16,-8.04001 -8.84,-8.04001 h -11.6 z m 5.36,-5.31999 v -6.16001 h 7.04 c 2.04,0 3.36,1.08001 3.36,3.08001 0,1.95999 -1.16,3.08 -3.36,3.08 z m 9.72,-14.44 c 0,1.92 -1.32,2.95999 -3.36,2.95999 h -6.36 v -5.88 h 6.36 c 2.04,0 3.36,0.96 3.36,2.92001 z"
         style="font-style:normal;font-variant:normal;font-weight:bold;font-stretch:normal;line-height:2.25;font-family:'Simplon Norm';-inkscape-font-specification:'Simplon Norm Bold'"
         id="path7202" />
      <path
         d="m 745.59602,393.60313 c 0,-2.8 1.92,-4 3.92,-4 h 2.48 v -5.16001 h -1.6 c -2.44,0 -4.2,1.24001 -4.8,2.60001 v -2.24 h -5.28 v 20.63999 h 5.28 z"
         style="font-style:normal;font-variant:normal;font-weight:bold;font-stretch:normal;line-height:2.25;font-family:'Simplon Norm';-inkscape-font-specification:'Simplon Norm Bold'"
         id="path7204" />
      <path
         d="m 754.12914,396.36313 c 0,5.71999 3.28,9.47999 9.2,9.47999 5.92,0 9.2,-3.76 9.2,-9.47999 v -2.64001 c 0,-5.72 -3.28,-9.47999 -9.2,-9.47999 -5.92,0 -9.2,3.75999 -9.2,9.47999 z m 13.12,0.68 c 0,2.44 -1.4,4.03999 -3.92,4.03999 -2.52,0 -3.92,-1.59999 -3.92,-4.03999 v -4 c 0,-2.44 1.4,-4.04001 3.92,-4.04001 2.52,0 3.92,1.60001 3.92,4.04001 z"
         style="font-style:normal;font-variant:normal;font-weight:bold;font-stretch:normal;line-height:2.25;font-family:'Simplon Norm';-inkscape-font-specification:'Simplon Norm Bold'"
         id="path7206" />
      <path
         d="m 791.68414,405.44312 h 5.36 l 5.44,-20.63999 h -5.48 l -3.08,13.07999 -3,-13.07999 h -5.2 l -3,13.07999 -3.08,-13.07999 h -5.48 l 5.44,20.63999 h 5.36 l 3.36,-14.68 z"
         style="font-style:normal;font-variant:normal;font-weight:bold;font-stretch:normal;line-height:2.25;font-family:'Simplon Norm';-inkscape-font-specification:'Simplon Norm Bold'"
         id="path7208" />
      <path
         d="m 812.13289,405.84312 c 4.32,0 8.04,-1.76 8.04,-6.35999 0,-4.28001 -2.76,-5.84001 -5,-6.36 l -4.64,-1.04001 c -0.88,-0.2 -1.6,-0.64 -1.6,-1.51999 0.04,-0.96 0.92,-1.56001 2.44,-1.56001 1.32,0 2.48,0.60001 2.76,1.92001 h 5.4 c -0.36,-4.68 -3.8,-6.68 -8,-6.68 -4.24,0 -7.88,2.32 -7.88,6.36 0,4.03999 2.84,5.79999 5.08,6.32 l 4.32,0.95999 c 1.24,0.28001 1.84,0.76 1.84,1.60001 0,1.35999 -1.56,1.59999 -2.6,1.59999 -1.72,0 -3.6,-0.71999 -3.84,-2.32 h -5.28 c 0.2,4.88 4.68,7.08 8.96,7.08 z"
         style="font-style:normal;font-variant:normal;font-weight:bold;font-stretch:normal;line-height:2.25;font-family:'Simplon Norm';-inkscape-font-specification:'Simplon Norm Bold'"
         id="path7210" />
      <path
         d="m 841.43539,396.92313 v -3.20001 c 0,-5.72 -3.28,-9.47999 -9.2,-9.47999 -5.92,0 -9.2,3.75999 -9.2,9.47999 v 2.64001 c 0,5.71999 3.28,9.47999 9.2,9.47999 5.04,0 8.16,-2.71999 9,-7.03999 h -5.36 c -0.52,1.39999 -1.8,2.27999 -3.64,2.27999 -2.52,0 -3.92,-1.59999 -3.92,-4.03999 v -0.12 z m -9.2,-7.92001 c 2.36,0 3.72,1.36001 3.88,3.52 v 0.04 h -7.8 v -0.04 c 0.2,-2.12 1.56,-3.52 3.92,-3.52 z"
         style="font-style:normal;font-variant:normal;font-weight:bold;font-stretch:normal;line-height:2.25;font-family:'Simplon Norm';-inkscape-font-specification:'Simplon Norm Bold'"
         id="path7212" />
      <path
         d="m 850.83039,393.60313 c 0,-2.8 1.92,-4 3.92,-4 h 2.48 v -5.16001 h -1.6 c -2.44,0 -4.2,1.24001 -4.8,2.60001 v -2.24 h -5.28 v 20.63999 h 5.28 z"
         style="font-style:normal;font-variant:normal;font-weight:bold;font-stretch:normal;line-height:2.25;font-family:'Simplon Norm';-inkscape-font-specification:'Simplon Norm Bold'"
         id="path7214" />
      <path
         d="m 860.48164,391.20312 h 6.4 v -6.39999 h -6.4 z m 0,14.24 h 6.4 v -6.39999 h -6.4 z"
         style="font-style:normal;font-variant:normal;font-weight:bold;font-stretch:normal;line-height:2.25;font-family:'Simplon Norm';-inkscape-font-specification:'Simplon Norm Bold'"
         id="path7216" />
      <path
         d="m 886.11039,382.76312 h 11.68 v -5.32 h -17.04 v 28 h 5.36 v -11.48 h 11.68 v -5.32 h -11.68 z"
         style="font-style:normal;font-variant:normal;font-weight:bold;font-stretch:normal;line-height:2.25;font-family:'Simplon Norm';-inkscape-font-specification:'Simplon Norm Bold'"
         id="path7218" />
      <path
         d="m 907.00227,377.44312 h -5.28 v 4.68001 h 5.28 z m 0,7.36001 h -5.28 v 20.63999 h 5.28 z"
         style="font-style:normal;font-variant:normal;font-weight:bold;font-stretch:normal;line-height:2.25;font-family:'Simplon Norm';-inkscape-font-specification:'Simplon Norm Bold'"
         id="path7220" />
      <path
         d="m 917.08039,393.60313 c 0,-2.8 1.92,-4 3.92,-4 h 2.48 v -5.16001 h -1.6 c -2.44,0 -4.2,1.24001 -4.8,2.60001 v -2.24 h -5.28 v 20.63999 h 5.28 z"
         style="font-style:normal;font-variant:normal;font-weight:bold;font-stretch:normal;line-height:2.25;font-family:'Simplon Norm';-inkscape-font-specification:'Simplon Norm Bold'"
         id="path7222" />
      <path
         d="m 944.01352,396.92313 v -3.20001 c 0,-5.72 -3.28,-9.47999 -9.2,-9.47999 -5.92,0 -9.2,3.75999 -9.2,9.47999 v 2.64001 c 0,5.71999 3.28,9.47999 9.2,9.47999 5.04,0 8.16,-2.71999 9,-7.03999 h -5.36 c -0.52,1.39999 -1.8,2.27999 -3.64,2.27999 -2.52,0 -3.92,-1.59999 -3.92,-4.03999 v -0.12 z m -9.2,-7.92001 c 2.36,0 3.72,1.36001 3.88,3.52 v 0.04 h -7.8 v -0.04 c 0.2,-2.12 1.56,-3.52 3.92,-3.52 z"
         style="font-style:normal;font-variant:normal;font-weight:bold;font-stretch:normal;line-height:2.25;font-family:'Simplon Norm';-inkscape-font-specification:'Simplon Norm Bold'"
         id="path7224" />
      <path
         d="m 959.52852,382.20312 v -4.76 h -5.08 c -3.68,0 -5.28,1.96 -5.28,5.28 v 2.08001 h -2.92 v 4.76 h 2.92 v 15.87999 h 5.28 v -15.87999 h 5.08 v -4.76 h -5.08 v -0.96001 c 0,-0.96 0.24,-1.64 1.52,-1.64 z"
         style="font-style:normal;font-variant:normal;font-weight:bold;font-stretch:normal;line-height:2.25;font-family:'Simplon Norm';-inkscape-font-specification:'Simplon Norm Bold'"
         id="path7226" />
      <path
         d="m 961.00414,396.36313 c 0,5.71999 3.28,9.47999 9.2,9.47999 5.92,0 9.2,-3.76 9.2,-9.47999 v -2.64001 c 0,-5.72 -3.28,-9.47999 -9.2,-9.47999 -5.92,0 -9.2,3.75999 -9.2,9.47999 z m 13.12,0.68 c 0,2.44 -1.4,4.03999 -3.92,4.03999 -2.52,0 -3.92,-1.59999 -3.92,-4.03999 v -4 c 0,-2.44 1.4,-4.04001 3.92,-4.04001 2.52,0 3.92,1.60001 3.92,4.04001 z"
         style="font-style:normal;font-variant:normal;font-weight:bold;font-stretch:normal;line-height:2.25;font-family:'Simplon Norm';-inkscape-font-specification:'Simplon Norm Bold'"
         id="path7228" />
      <path
         d="m 990.77039,390.64312 -3.8,-5.83999 h -6 l 6.68,10.03999 -7,10.6 h 6.04 l 4.08,-6.31999 4.08,6.31999 h 6.04001 l -7.00001,-10.6 6.68001,-10.03999 h -6.00001 z"
         style="font-style:normal;font-variant:normal;font-weight:bold;font-stretch:normal;line-height:2.25;font-family:'Simplon Norm';-inkscape-font-specification:'Simplon Norm Bold'"
         id="path7230" />
      <path
         d="m 724.11602,495.84312 c 6.08,0 9.36,-3.08 9.36,-8.12 0,-4.72 -2.32,-7.35999 -6.64,-8.52 l -4.56,-1.24 c -1.52,-0.39999 -2.8,-1.12 -2.8,-2.76 0,-1.95999 1.6,-2.83999 3.84,-2.83999 1.8,0 3.76,0.83999 4.24,2.71999 h 5.52 c -0.6,-4.76 -4.08,-8.03999 -9.68,-8.03999 -4.88,0 -9.28,2.56 -9.28,8.15999 0,4.12 2.12,7.12 6.4,8.28001 l 4.72,1.27999 c 1.96,0.52 2.88,1.40001 2.88,2.96 0,1.92 -1.64,2.8 -4,2.8 -2.68,0 -4.52,-1.56 -4.84,-3.91999 h -5.52 c 0.28,5.56 4.24,9.23999 10.36,9.23999 z"
         style="font-style:normal;font-variant:normal;font-weight:bold;font-stretch:normal;line-height:2.25;font-family:'Simplon Norm';-inkscape-font-specification:'Simplon Norm Bold'"
         id="path7232" />
      <path
         d="m 749.35664,487.92313 c -0.28,1.95999 -1.64,3.15999 -3.84,3.15999 -2.52,0 -3.92,-1.59999 -3.92,-4.03999 v -4 c 0,-2.44 1.4,-4.04001 3.92,-4.04001 2.2,0 3.52,1.24001 3.84,3.16001 h 5.28 c -0.56,-4.84001 -3.76,-7.92 -9.12,-7.92 -5.92,0 -9.2,3.75999 -9.2,9.47999 v 2.64001 c 0,5.71999 3.28,9.47999 9.2,9.47999 5.36,0 8.56,-3.08 9.12,-7.91999 z"
         style="font-style:normal;font-variant:normal;font-weight:bold;font-stretch:normal;line-height:2.25;font-family:'Simplon Norm';-inkscape-font-specification:'Simplon Norm Bold'"
         id="path7234" />
      <path
         d="m 763.72102,483.60313 c 0,-2.8 1.92,-4 3.92,-4 h 2.48 v -5.16001 h -1.6 c -2.44,0 -4.2,1.24001 -4.8,2.60001 v -2.24 h -5.28 v 20.63999 h 5.28 z"
         style="font-style:normal;font-variant:normal;font-weight:bold;font-stretch:normal;line-height:2.25;font-family:'Simplon Norm';-inkscape-font-specification:'Simplon Norm Bold'"
         id="path7236" />
      <path
         d="m 790.65414,486.92313 v -3.20001 c 0,-5.72 -3.28,-9.47999 -9.2,-9.47999 -5.92,0 -9.2,3.75999 -9.2,9.47999 v 2.64001 c 0,5.71999 3.28,9.47999 9.2,9.47999 5.04,0 8.16,-2.71999 9,-7.03999 h -5.36 c -0.52,1.39999 -1.8,2.27999 -3.64,2.27999 -2.52,0 -3.92,-1.59999 -3.92,-4.03999 v -0.12 z m -9.2,-7.92001 c 2.36,0 3.72,1.36001 3.88,3.52 v 0.04 h -7.8 v -0.04 c 0.2,-2.12 1.56,-3.52 3.92,-3.52 z"
         style="font-style:normal;font-variant:normal;font-weight:bold;font-stretch:normal;line-height:2.25;font-family:'Simplon Norm';-inkscape-font-specification:'Simplon Norm Bold'"
         id="path7238" />
      <path
         d="m 812.52914,486.92313 v -3.20001 c 0,-5.72 -3.28,-9.47999 -9.2,-9.47999 -5.92,0 -9.2,3.75999 -9.2,9.47999 v 2.64001 c 0,5.71999 3.28,9.47999 9.2,9.47999 5.04,0 8.16,-2.71999 9,-7.03999 h -5.36 c -0.52,1.39999 -1.8,2.27999 -3.64,2.27999 -2.52,0 -3.92,-1.59999 -3.92,-4.03999 v -0.12 z m -9.2,-7.92001 c 2.36,0 3.72,1.36001 3.88,3.52 v 0.04 h -7.8 v -0.04 c 0.2,-2.12 1.56,-3.52 3.92,-3.52 z"
         style="font-style:normal;font-variant:normal;font-weight:bold;font-stretch:normal;line-height:2.25;font-family:'Simplon Norm';-inkscape-font-specification:'Simplon Norm Bold'"
         id="path7240" />
      <path
         d="m 835.04414,483.20312 c 0,-6.07999 -4.08,-8.95999 -8.28,-8.95999 -1.84,0 -3.92,0.95999 -4.84,2.36 v -1.8 h -5.28 v 20.63999 h 5.28 v -12.04 c 0,-2.79999 1.92,-4 3.92,-4 2,0 3.92,1.20001 3.92,4 v 12.04 h 5.28 z"
         style="font-style:normal;font-variant:normal;font-weight:bold;font-stretch:normal;line-height:2.25;font-family:'Simplon Norm';-inkscape-font-specification:'Simplon Norm Bold'"
         id="path7242" />
      <path
         d="m 839.93477,481.20312 h 6.4 v -6.39999 h -6.4 z m 0,14.24 h 6.4 v -6.39999 h -6.4 z"
         style="font-style:normal;font-variant:normal;font-weight:bold;font-stretch:normal;line-height:2.25;font-family:'Simplon Norm';-inkscape-font-specification:'Simplon Norm Bold'"
         id="path7244" />
      <path
         d="m 864.24352,467.44312 -5.36,4.64 v 6.40001 l 5.36,-4.64001 v 21.6 h 5.28 v -28 z"
         style="font-style:normal;font-variant:normal;font-weight:bold;font-stretch:normal;line-height:2.25;font-family:'Simplon Norm';-inkscape-font-specification:'Simplon Norm Bold'"
         id="path7246" />
      <path
         d="m 892.41102,476.28312 c 0,-5.59999 -3.36,-9.23999 -9.2,-9.23999 -5.84,0 -9.2,3.64 -9.2,9.2 v 0.08 c 0,5.44 3.32,9.16001 8.96,9.16001 1.88,0 3.48,-0.68 4.16,-1.24 v 2.8 c 0,2.44 -1.4,4.03999 -3.92,4.03999 -2.36,0 -3.76,-1.44 -3.92,-3.59999 v -0.04 h -5.24 v 0.04 c 0.4,5.08 3.6,8.35999 9.16,8.35999 5.92,0 9.2,-3.76 9.2,-9.47999 z m -5.28,0.56 c -0.04,2.36 -1.44,3.88 -3.92,3.88 -2.52,0 -3.92,-1.59999 -3.92,-4.03999 v -0.84001 c 0,-2.44 1.4,-4.03999 3.92,-4.03999 2.52,0 3.92,1.59999 3.92,4.03999 z"
         style="font-style:normal;font-variant:normal;font-weight:bold;font-stretch:normal;line-height:2.25;font-family:'Simplon Norm';-inkscape-font-specification:'Simplon Norm Bold'"
         id="path7248" />
      <path
         d="m 901.00039,476.24313 v -0.40001 c 0,-2.44 1.44,-4.03999 3.96,-4.03999 2.52,0 3.92,1.59999 3.92,3.63999 0,1.64 -0.88,3.32 -2.6,4.96 l -10.56,10.28001 v 4.75999 h 18.4 v -4.75999 h -10.92 l 6.52,-6.36001 c 2.76,-2.68 4.4,-5.27999 4.4,-8.95999 0,-4.88 -3.52,-8.32 -9.16,-8.32 -5.8,0 -9.08,3.59999 -9.24,9.12 v 0.08 z"
         style="font-style:normal;font-variant:normal;font-weight:bold;font-stretch:normal;line-height:2.25;font-family:'Simplon Norm';-inkscape-font-specification:'Simplon Norm Bold'"
         id="path7250" />
      <path
         d="m 917.61039,486.36313 c 0,5.71999 3.28,9.47999 9.2,9.47999 5.92,0 9.2,-3.76 9.2,-9.47999 v -9.84001 c 0,-5.71999 -3.28,-9.47999 -9.2,-9.47999 -5.92,0 -9.2,3.76 -9.2,9.47999 z m 13.12,0.68 c 0,2.44 -1.4,4.03999 -3.92,4.03999 -2.52,0 -3.92,-1.59999 -3.92,-4.03999 v -11.20001 c 0,-2.44 1.4,-4.03999 3.92,-4.03999 2.52,0 3.92,1.59999 3.92,4.03999 z"
         style="font-style:normal;font-variant:normal;font-weight:bold;font-stretch:normal;line-height:2.25;font-family:'Simplon Norm';-inkscape-font-specification:'Simplon Norm Bold'"
         id="path7252" />
      <path
         d="m 956.55164,480.64312 -3.8,-5.83999 h -6 l 6.68,10.03999 -7,10.6 h 6.04 l 4.08,-6.31999 4.08,6.31999 h 6.04 l -7,-10.6 6.68,-10.03999 h -6 z"
         style="font-style:normal;font-variant:normal;font-weight:bold;font-stretch:normal;line-height:2.25;font-family:'Simplon Norm';-inkscape-font-specification:'Simplon Norm Bold'"
         id="path7254" />
      <path
         d="m 981.74352,467.44312 -5.36,4.64 v 6.40001 l 5.36,-4.64001 v 21.6 h 5.28 v -28 z"
         style="font-style:normal;font-variant:normal;font-weight:bold;font-stretch:normal;line-height:2.25;font-family:'Simplon Norm';-inkscape-font-specification:'Simplon Norm Bold'"
         id="path7256" />
      <path
         d="m 991.75102,486.36313 c 0,5.71999 3.28,9.47999 9.19998,9.47999 5.92,0 9.2,-3.76 9.2,-9.47999 v -9.84001 c 0,-5.71999 -3.28,-9.47999 -9.2,-9.47999 -5.91998,0 -9.19998,3.76 -9.19998,9.47999 z m 13.11998,0.68 c 0,2.44 -1.4,4.03999 -3.92,4.03999 -2.51998,0 -3.91998,-1.59999 -3.91998,-4.03999 v -11.20001 c 0,-2.44 1.4,-4.03999 3.91998,-4.03999 2.52,0 3.92,1.59999 3.92,4.03999 z"
         style="font-style:normal;font-variant:normal;font-weight:bold;font-stretch:normal;line-height:2.25;font-family:'Simplon Norm';-inkscape-font-specification:'Simplon Norm Bold'"
         id="path7258" />
      <path
         d="m 1023.1348,495.84312 c 5.24,0 9.2,-3.23999 9.2,-8.52 0,-2.36 -0.96,-4.63999 -2.72,-6 1.72,-1.56 2.44,-3.51999 2.44,-5.88 0,-5.12 -3.56,-8.39999 -8.92,-8.39999 -5.36,0 -8.92,3.27999 -8.92,8.39999 0,2.36001 0.72,4.32 2.44,5.88 -1.76,1.36001 -2.72,3.64 -2.72,6 0,5.28001 3.96,8.52 9.2,8.52 z m 0,-24.03999 c 2.28,0 3.64,1.71999 3.64,3.63999 0,1.92001 -1.36,3.64 -3.64,3.64 -2.28,0 -3.64,-1.71999 -3.64,-3.64 0,-1.92 1.36,-3.63999 3.64,-3.63999 z m 0,11.76 c 2.28,0 3.92,1.51999 3.92,3.75999 0,2.2 -1.64,3.76 -3.92,3.76 -2.28,0 -3.92,-1.56 -3.92,-3.76 0,-2.24 1.64,-3.75999 3.92,-3.75999 z"
         style="font-style:normal;font-variant:normal;font-weight:bold;font-stretch:normal;line-height:2.25;font-family:'Simplon Norm';-inkscape-font-specification:'Simplon Norm Bold'"
         id="path7260" />
      <path
         d="m 1036.126,486.36313 c 0,5.71999 3.28,9.47999 9.2,9.47999 5.92,0 9.2,-3.76 9.2,-9.47999 v -9.84001 c 0,-5.71999 -3.28,-9.47999 -9.2,-9.47999 -5.92,0 -9.2,3.76 -9.2,9.47999 z m 13.12,0.68 c 0,2.44 -1.4,4.03999 -3.92,4.03999 -2.52,0 -3.92,-1.59999 -3.92,-4.03999 v -11.20001 c 0,-2.44 1.4,-4.03999 3.92,-4.03999 2.52,0 3.92,1.59999 3.92,4.03999 z"
         style="font-style:normal;font-variant:normal;font-weight:bold;font-stretch:normal;line-height:2.25;font-family:'Simplon Norm';-inkscape-font-specification:'Simplon Norm Bold'"
         id="path7262" />
    </g>
  </g>
</svg>
