<?xml version="1.0" encoding="UTF-8" standalone="no"?>
<svg
   xmlns:dc="http://purl.org/dc/elements/1.1/"
   xmlns:cc="http://creativecommons.org/ns#"
   xmlns:rdf="http://www.w3.org/1999/02/22-rdf-syntax-ns#"
   xmlns:svg="http://www.w3.org/2000/svg"
   xmlns="http://www.w3.org/2000/svg"
   xmlns:sodipodi="http://sodipodi.sourceforge.net/DTD/sodipodi-0.dtd"
   xmlns:inkscape="http://www.inkscape.org/namespaces/inkscape"
   data-name="Layer 1"
   viewBox="0 0 316.55884 288.13623"
   x="0px"
   y="0px"
   version="1.1"
   id="svg12"
   sodipodi:docname="radar.svg"
   width="316.55884"
   height="288.13623"
   inkscape:version="0.92.3 (2405546, 2018-03-11)">
  <metadata
     id="metadata18">
    <rdf:RDF>
      <cc:Work
         rdf:about="">
        <dc:format>image/svg+xml</dc:format>
        <dc:type
           rdf:resource="http://purl.org/dc/dcmitype/StillImage" />
        <dc:title>Radar chart</dc:title>
      </cc:Work>
    </rdf:RDF>
  </metadata>
  <defs
     id="defs16" />
  <sodipodi:namedview
     pagecolor="#ffffff"
     bordercolor="#666666"
     borderopacity="1"
     objecttolerance="10"
     gridtolerance="10"
     guidetolerance="10"
     inkscape:pageopacity="0"
     inkscape:pageshadow="2"
     inkscape:window-width="723"
     inkscape:window-height="417"
     id="namedview14"
     showgrid="false"
     inkscape:lockguides="true"
     showguides="false"
     inkscape:zoom="2.4014868"
     inkscape:cx="145.89016"
     inkscape:cy="130.18956"
     inkscape:window-x="49"
     inkscape:window-y="27"
     inkscape:window-maximized="0"
     inkscape:current-layer="layer3"
     inkscape:measure-start="0,0"
     inkscape:measure-end="0,0" />
  <title
     id="title2">Radar chart</title>
  <g
     inkscape:groupmode="layer"
     id="layer3"
     inkscape:label="sfondo"
     style="display:inline"
     transform="translate(13.941417,21.857664)">
    <rect
       style="display:inline;fill:#fa9900;fill-opacity:1;stroke-width:2.33079481;stroke-miterlimit:4;stroke-dasharray:none"
       id="rect897"
       width="316.55884"
       height="288.13623"
       x="-13.941417"
       y="-21.857664" />
  </g>
  <g
     inkscape:groupmode="layer"
     id="layer2"
     inkscape:label="Layer 2"
     style="display:inline"
     transform="translate(-4.9335832,41.982664)">
    <path
       inkscape:connector-curvature="0"
       d="M 301.28875,98.151935 H 165.28791 c 0,0 0.66512,-8.26269 0.20041,-119.423503 -0.004,-3.886 -5.83131,-3.886 -5.83592,0 V 98.352345 c 0,0 53.92814,-0.20041 -131.800436,-0.20041 -3.895223,-0.005 -3.895226,5.836055 0,5.835915 123.750676,-0.004 131.800436,-0.20041 131.800436,-0.20041 v 117.62392 c 0.004,3.886 5.83131,3.886 5.83592,0 V 103.78744 c 0,0 -76.393192,0.20041 135.80043,0.20041 3.88601,-0.004 3.88601,-5.831315 0,-5.835915 z"
       id="path4"
       style="fill:#1b1b1b;fill-opacity:1;stroke-width:2.91796017"
       sodipodi:nodetypes="ccccccscccccc" />
    <path
       style="fill:none;stroke:#1b1b1b;stroke-width:2.5;stroke-linecap:round;stroke-linejoin:miter;stroke-miterlimit:4;stroke-dasharray:none;stroke-opacity:1"
       d="M 193.45475,-15.325491 131.05331,217.55984"
       id="path1442"
       inkscape:connector-curvature="0" />
    <path
       style="display:inline;fill:none;stroke:#1b1b1b;stroke-width:2.5;stroke-linecap:round;stroke-linejoin:miter;stroke-miterlimit:4;stroke-dasharray:none;stroke-opacity:1"
       d="M 222.52919,-3.2824639 101.97887,205.51681"
       id="path1442-5"
       inkscape:connector-curvature="0" />
    <path
       style="display:inline;fill:none;stroke:#1b1b1b;stroke-width:2.5;stroke-linecap:round;stroke-linejoin:miter;stroke-miterlimit:4;stroke-dasharray:none;stroke-opacity:1"
       d="M 247.49597,15.875223 77.012074,186.35912"
       id="path1442-5-5"
       inkscape:connector-curvature="0" />
    <path
       style="display:inline;fill:none;stroke:#1b1b1b;stroke-width:2.5;stroke-linecap:round;stroke-linejoin:miter;stroke-miterlimit:4;stroke-dasharray:none;stroke-opacity:1"
       d="M 266.65366,40.84201 57.854383,161.39233"
       id="path1442-5-6"
       inkscape:connector-curvature="0" />
    <path
       style="display:inline;fill:none;stroke:#1b1b1b;stroke-width:2.5;stroke-linecap:round;stroke-linejoin:miter;stroke-miterlimit:4;stroke-dasharray:none;stroke-opacity:1"
       d="M 278.69669,69.91645 45.811354,132.31789"
       id="path1442-5-2"
       inkscape:connector-curvature="0" />
    <path
       style="display:inline;fill:none;stroke:#1b1b1b;stroke-width:2.5;stroke-linecap:round;stroke-linejoin:miter;stroke-miterlimit:4;stroke-dasharray:none;stroke-opacity:1"
       d="M 278.69669,132.31788 45.811352,69.916456"
       id="path1442-5-2-9"
       inkscape:connector-curvature="0" />
    <path
       style="display:inline;fill:none;stroke:#1b1b1b;stroke-width:2.5;stroke-linecap:round;stroke-linejoin:miter;stroke-miterlimit:4;stroke-dasharray:none;stroke-opacity:1"
       d="M 247.49597,186.35911 77.012068,15.875226"
       id="path1442-5-2-1"
       inkscape:connector-curvature="0" />
    <path
       style="display:inline;fill:none;stroke:#1b1b1b;stroke-width:2.5;stroke-linecap:round;stroke-linejoin:miter;stroke-miterlimit:4;stroke-dasharray:none;stroke-opacity:1"
       d="M 266.65366,161.39232 57.854378,40.842018"
       id="path1442-5-2-1-2"
       inkscape:connector-curvature="0" />
    <path
       style="display:inline;fill:none;stroke:#1b1b1b;stroke-width:2.5;stroke-linecap:round;stroke-linejoin:miter;stroke-miterlimit:4;stroke-dasharray:none;stroke-opacity:1"
       d="M 222.52918,205.5168 101.97886,-3.2824677"
       id="path1442-5-2-1-7"
       inkscape:connector-curvature="0" />
    <path
       style="display:inline;fill:none;stroke:#1b1b1b;stroke-width:2.5;stroke-linecap:round;stroke-linejoin:miter;stroke-miterlimit:4;stroke-dasharray:none;stroke-opacity:1"
       d="M 193.45474,217.55983 131.0533,-15.325495"
       id="path1442-5-2-1-0"
       inkscape:connector-curvature="0" />
  </g>
  <g
     inkscape:groupmode="layer"
     id="layer4"
     inkscape:label="Layer 3"
     style="display:none"
     transform="translate(13.941417,21.857664)">
    <path
       inkscape:connector-curvature="0"
       d="m 126.51125,182.60877 a 23.859087,23.859087 0 0 1 -8.92687,-2.70511 38.845407,38.845407 0 0 0 -10.54993,-3.27318 76.987485,76.987485 0 0 0 -12.335311,0 c -7.70957,0.32461 -14.98633,0.64922 -18.93579,-3.35434 -6.60048,-6.60048 -1.32551,-17.96195 4.24702,-29.97264 4.11178,-9.11623 8.41291,-18.39476 8.41291,-26.18548 0,-7.79073 -6.60048,-18.502969 -12.98455,-28.782394 -8.33174,-13.52556 -16.23067,-26.077279 -10.9557,-34.81479 6.46522,-10.820448 25.37396,0 43.687561,10.41468 8.54816,4.869202 17.39387,9.90071 20.82936,9.90071 a 82.91168,82.91168 0 0 0 14.98632,-2.921521 c 14.60761,-3.597799 31.13584,-7.655467 33.59749,2.245243 1.73128,6.952137 -3.51664,16.582336 -8.60225,25.887921 -3.67895,6.816881 -7.52021,13.850171 -7.52021,18.070151 0,4.67984 2.4346,11.63197 4.57164,17.74553 3.21908,9.17033 5.08561,14.95927 3.24613,18.63822 -2.29934,4.57164 -8.68341,5.00446 -14.87811,5.41022 a 26.672404,26.672404 0 0 0 -7.98008,1.19025 c -1.86653,0.94679 -4.27408,5.41023 -6.41112,9.11623 -2.89447,5.19381 -5.87009,10.54994 -9.81956,12.52467 a 8.1153358,8.1153358 0 0 1 -3.67895,0.86563 z m -25.23869,-11.71313 a 51.613535,51.613535 0 0 1 6.43816,0.35166 43.065382,43.065382 0 0 1 12.03775,3.78716 c 3.40844,1.46076 6.35701,2.70511 8.11534,1.89358 2.4346,-1.2173 5.13971,-6.05945 7.49316,-10.33353 2.70511,-4.95035 5.41022,-9.6302 8.73751,-11.30737 a 28.322522,28.322522 0 0 1 10.03596,-1.75832 c 3.78716,-0.24346 9.49495,-0.62218 10.38763,-2.4346 0.89269,-1.81243 -1.75832,-9.41379 -3.51664,-14.41825 -2.46165,-6.87098 -4.95036,-13.95837 -4.95036,-19.55795 0,-5.59958 4.00357,-12.90339 8.11534,-20.640007 4.11177,-7.736621 9.33264,-17.069257 8.11534,-21.965509 -1.2173,-4.896253 -17.31272,-0.676278 -27.05112,1.677169 a 82.587067,82.587067 0 0 1 -16.23068,3.056777 c -4.62574,0 -11.95659,-4.030617 -23.53447,-10.63109 C 92.480939,61.230405 72.841829,50.031241 69.081719,56.28005 c -3.7601,6.248809 3.81421,17.745534 10.82045,29.188157 6.78983,10.820448 13.79607,22.208973 13.79607,31.649813 0,9.00802 -4.57163,18.93578 -8.98097,28.32252 -4.761,10.25237 -9.27854,19.93667 -5.41023,23.88613 2.29935,2.3264 8.73752,2.02884 14.93223,1.78538 2.46165,-0.13526 4.76099,-0.21641 7.033291,-0.21641 z"
       id="path6"
       style="display:inline;fill:#1b1b1b;fill-opacity:1;stroke-width:2.70511198" />
  </g>
  <g
     inkscape:groupmode="layer"
     id="layer5"
     inkscape:label="Layer 4"
     transform="translate(13.941417,21.857664)">
    <path
       style="display:inline;fill:#1b1b1b;fill-opacity:0.30980392;stroke:#1b1b1b;stroke-width:3;stroke-linecap:butt;stroke-linejoin:miter;stroke-miterlimit:4;stroke-dasharray:none;stroke-opacity:1"
       d="M 92.019696,120.98961 C 92.527238,99.195186 65.191712,70.742601 81.626688,56.41968 96.708139,43.276342 119.10799,72.031282 139.01911,73.9664 c 17.60507,1.710998 41.81101,-19.326443 52.78315,-5.452797 11.02224,13.936995 -13.77209,32.972267 -17.54805,50.335207 -2.05173,9.43443 3.29645,21.26111 -2.68489,28.84013 -7.04813,8.93075 -21.53373,7.35122 -32.31796,10.97541 -19.72212,6.62789 -43.696936,33.5387 -59.229291,19.6954 -14.585033,-12.999 11.542777,-37.83836 11.997627,-57.37014 z"
       id="path893-7"
       inkscape:connector-curvature="0"
       sodipodi:nodetypes="aaaaaaaaa" />
  </g>
  <g
     inkscape:groupmode="layer"
     id="layer1"
     inkscape:label="Layer 1"
     style="display:inline"
     transform="translate(-4.9335832,41.982664)">
    <path
       style="fill:#f9f9f9;fill-opacity:0.63137255;stroke:#ffffff;stroke-width:3;stroke-linecap:butt;stroke-linejoin:miter;stroke-miterlimit:4;stroke-dasharray:none;stroke-opacity:1"
       d="m 137.41263,98.647733 c 0.12073,-13.647143 -23.7698,-28.279917 -14.49467,-38.291467 8.78027,-9.477399 24.34837,9.493981 37.18926,10.91725 9.8543,1.092239 23.33064,-9.538414 29.68159,-1.924899 6.36501,7.630371 -8.92738,19.12778 -7.23331,28.918903 4.27604,24.71391 57.38275,43.02654 41.7214,62.61695 -14.25069,17.82586 -41.45635,-20.55669 -63.93742,-24.48667 -12.57348,-2.19801 -31.02082,11.24664 -38.28508,0.75121 -7.86354,-11.36127 15.236,-24.68466 15.35823,-38.501277 z"
       id="path893"
       inkscape:connector-curvature="0"
       sodipodi:nodetypes="aaaaaaaaa" />
  </g>
</svg>
