<svg clip-rule="evenodd" fill-rule="evenodd" viewBox="0 0 560 400" xmlns="http://www.w3.org/2000/svg"><path d="m105.144 150h349.711v100h-349.711z"/><path d="m439.154 221.778c-.682.193-1.259.298-1.836.298-2.046 0-3.008-.875-3.008-3.393v-19.006c0-9.985-7.956-14.846-17.363-14.846-7.187 0-11.051.875-18.727 3.969l-1.714 10.072 9.985 1.067 1.416-4.931c2.046-1.067 4.074-1.259 6.697-1.259 7.082 0 7.187 5.333 7.187 9.792v1.451c-2.239-.297-4.757-.385-7.187-.385-9.984 0-20.371 2.518-20.371 13.289 0 9.11 7.169 12.52 13.482 12.52 7.081 0 11.54-4.266 14.058-8.725.577 5.333 3.777 8.725 9.6 8.725 2.71 0 5.525-.769 7.851-2.046zm-26.858-.279c-3.777 0-5.141-2.239-5.141-5.054 0-4.756 3.882-6.015 8.341-6.015 2.028 0 4.266.297 6.312.577-.297 7.292-5.053 10.492-9.512 10.492zm-16.804-58.787-18.919 66.742h-12.328l18.92-66.742zm-25.406 0-18.92 66.742h-12.31l18.92-66.742zm-52.527 22.994h13.097v15.702h-13.097zm0 28.029h13.097v15.719h-13.097zm-19.059-.577 9.897.962-2.711 15.334h-38.223l-1.259-6.592 24.06-27.644h-13.674l-1.941 6.784-9.022-.979 1.556-15.335h38.416l.979 6.592-24.27 27.662h14.163zm-62.686-28.327c-15.72 0-23.483 10.579-23.483 23.378 0 13.971 9.32 22.207 22.801 22.207 13.971 0 24.06-8.83 24.06-22.801 0-12.222-7.676-22.784-23.378-22.784zm-.297 35.986c-6.785 0-10.282-5.823-10.282-13.394 0-8.254 3.969-12.992 10.387-12.992 5.91 0 10.666 3.969 10.666 12.799 0 8.341-4.267 13.587-10.771 13.587zm-34.447-.875h5.823v9.512h-18.343v-24.637c0-7.571-2.517-10.474-7.466-10.474-6.015 0-8.445 4.267-8.445 10.387v15.212h5.822v9.512h-18.325v-24.637c0-7.571-2.518-10.474-7.466-10.474-6.015 0-8.445 4.267-8.445 10.387v15.212h8.34v9.512h-26.665v-9.512h5.822v-24.742h-5.822v-9.512h18.325v6.592c2.622-4.651 7.186-7.466 13.289-7.466 6.312 0 12.117 3.007 14.268 9.407 2.43-5.823 7.379-9.407 14.268-9.407 7.851 0 15.038 4.756 15.038 15.125v20.003z" fill="#fff"/></svg>