<?xml version="1.0" encoding="UTF-8" standalone="no"?>
<svg
   xmlns:dc="http://purl.org/dc/elements/1.1/"
   xmlns:cc="http://creativecommons.org/ns#"
   xmlns:rdf="http://www.w3.org/1999/02/22-rdf-syntax-ns#"
   xmlns:svg="http://www.w3.org/2000/svg"
   xmlns="http://www.w3.org/2000/svg"
   id="svg880"
   version="1.1"
   viewBox="0 0 226.93739 122.03009"
   height="122.03009mm"
   width="226.93739mm">
  <defs
     id="defs874" />
  <metadata
     id="metadata877">
    <rdf:RDF>
      <cc:Work
         rdf:about="">
        <dc:format>image/svg+xml</dc:format>
        <dc:type
           rdf:resource="http://purl.org/dc/dcmitype/StillImage" />
        <dc:title></dc:title>
      </cc:Work>
    </rdf:RDF>
  </metadata>
  <g
     transform="translate(-5.8619905,-50.483398)"
     id="layer1">
    <rect
       y="41.964985"
       x="5.653779"
       height="130.4444"
       width="236.7363"
       id="rect844"
       style="fill:#000000;fill-opacity:0.9953052;stroke:none;stroke-width:2.08258867;stroke-linecap:round;stroke-miterlimit:4;stroke-dasharray:none;stroke-opacity:1" />
    <flowRoot
       transform="matrix(0.29857639,0,0,0.29857639,-11.911012,-54.50511)"
       style="font-style:normal;font-weight:normal;font-size:40px;line-height:1.25;font-family:sans-serif;letter-spacing:0px;word-spacing:0px;fill:#ffffff;fill-opacity:0.94117647;stroke:none"
       id="flowRoot815"
       xml:space="preserve"><flowRegion
         style="fill:#ffffff;fill-opacity:0.94117647"
         id="flowRegion817"><rect
           style="fill:#ffffff;fill-opacity:0.94117647"
           y="379.66254"
           x="122.85714"
           height="305.71429"
           width="822.85712"
           id="rect819" /></flowRegion><flowPara
         style="font-style:normal;font-variant:normal;font-weight:bold;font-stretch:normal;font-family:Arial;-inkscape-font-specification:'Arial Bold';letter-spacing:9.55676174px;fill:#f98e05;fill-opacity:1"
         id="flowPara823">K N O W L E D G E    I S</flowPara></flowRoot>    <rect
       ry="4.5700917"
       y="83.811668"
       x="120.71951"
       height="52.009228"
       width="102.02964"
       id="rect9938"
       style="fill:#f98e05;fill-opacity:1;stroke:none;stroke-width:2.27878237;stroke-linecap:round;stroke-miterlimit:4;stroke-dasharray:none;stroke-opacity:1" />
    <g
       id="flowRoot825"
       style="font-style:normal;font-weight:normal;font-size:40px;line-height:1.25;font-family:sans-serif;letter-spacing:0px;word-spacing:0px;fill:#000000;fill-opacity:1;stroke:none"
       transform="matrix(0.96627077,0,0,0.96627077,-124.16207,-396.31236)"
       aria-label="Freedom">
      <path
         id="path1650"
         style="font-style:normal;font-variant:normal;font-weight:bold;font-stretch:normal;font-family:Arial;-inkscape-font-specification:'Arial Bold';letter-spacing:-2px;fill:#ffffff;fill-opacity:1"
         d="m 154.9668,537.18543 v -34.35937 h 23.55468 v 5.8125 H 161.9043 v 8.13281 h 14.34375 v 5.8125 H 161.9043 v 14.60156 z" />
      <path
         id="path1652"
         style="font-style:normal;font-variant:normal;font-weight:bold;font-stretch:normal;font-family:Arial;-inkscape-font-specification:'Arial Bold';letter-spacing:-2px;fill:#ffffff;fill-opacity:1"
         d="m 186.87856,537.18543 h -6.58593 v -24.89062 h 6.11718 v 1.89614 c 0.94051,-0.82092 1.57431,-1.49843 2.55149,-1.92081 0.96883,-0.41878 2.05789,-0.53783 3.12039,-0.53783 1.5,0 2.94531,0.41406 4.33594,1.24218 l -2.03907,5.74219 c -1.10937,-0.71875 -2.14062,-1.07812 -3.09375,-1.07812 -0.92187,0 -1.70312,0.25781 -2.34375,0.77343 -0.64062,0.5 -1.14843,1.41406 -1.52343,2.74219 -0.35938,1.32813 -0.53907,4.10938 -0.53907,8.34375 z" />
      <path
         id="path1654"
         style="font-style:normal;font-variant:normal;font-weight:bold;font-stretch:normal;font-family:Arial;-inkscape-font-specification:'Arial Bold';letter-spacing:-2px;fill:#ffffff;fill-opacity:1"
         d="m 213.28711,529.8112 6.5625,0.55392 c -0.84375,2.40625 -2.17969,4.24218 -4.00781,5.50781 -1.8125,1.25 -4.08594,1.875 -6.82032,1.875 -4.32812,0 -7.53124,-1.41406 -9.60937,-4.24219 -1.64063,-2.26562 -2.46094,-5.12499 -2.46094,-8.57812 0,-4.125 1.07813,-7.35156 3.23438,-9.67969 2.15625,-2.34375 4.88281,-3.51562 8.17968,-3.51562 3.70313,0 6.625,1.22656 8.76563,3.67968 2.14063,2.4375 3.16406,6.17969 3.07031,11.22657 h -16.5 c 0.0469,1.95312 0.57812,3.47656 1.59375,4.57031 1.01563,1.07813 2.28125,1.61719 3.79688,1.61719 1.03125,0 1.89843,-0.28125 2.60156,-0.84375 0.70313,-0.5625 1.23438,-0.92111 1.59375,-2.17111 z m 0.375,-7.20389 c -0.0469,-1.90625 -0.53905,-3.35157 -1.47656,-4.33594 -0.9375,-1 -2.07813,-1.5 -3.42188,-1.5 -1.4375,0 -2.625,0.52344 -3.5625,1.57031 -0.9375,1.04687 -1.39844,2.46875 -1.38281,4.26563 z" />
      <path
         id="path1656"
         style="font-style:normal;font-variant:normal;font-weight:bold;font-stretch:normal;font-size:48px;font-family:Arial;-inkscape-font-specification:'Arial Bold';letter-spacing:-2px;fill:#ffffff;fill-opacity:1"
         d="m 240.1964,529.8112 6.5625,0.55392 c -0.84375,2.40625 -2.17969,4.24218 -4.00781,5.50781 -1.8125,1.25 -4.08594,1.875 -6.82032,1.875 -4.32812,0 -7.53124,-1.41406 -9.60937,-4.24219 -1.64063,-2.26562 -2.46094,-5.12499 -2.46094,-8.57812 0,-4.125 1.07813,-7.35156 3.23438,-9.67969 2.15625,-2.34375 4.88281,-3.51562 8.17968,-3.51562 3.70313,0 6.625,1.22656 8.76563,3.67968 2.14063,2.4375 3.16406,6.17969 3.07031,11.22657 h -16.5 c 0.0469,1.95312 0.57812,3.47656 1.59375,4.57031 1.01563,1.07813 2.28125,1.61719 3.79688,1.61719 1.03125,0 1.89843,-0.28125 2.60156,-0.84375 0.70313,-0.5625 1.23438,-0.92111 1.59375,-2.17111 z m 0.375,-7.20389 c -0.0469,-1.90625 -0.53905,-3.35157 -1.47656,-4.33594 -0.9375,-1 -2.07813,-1.5 -3.42188,-1.5 -1.4375,0 -2.625,0.52344 -3.5625,1.57031 -0.9375,1.04687 -1.39844,2.46875 -1.38281,4.26563 z" />
      <path
         id="path1658"
         style="font-style:normal;font-variant:normal;font-weight:bold;font-stretch:normal;font-size:48px;font-family:Arial;-inkscape-font-specification:'Arial Bold';letter-spacing:-1.5px"
         d="m 283.18673,537.18543 h -6.11719 v -3.65625 q -1.52343,2.13281 -3.60937,3.1875 -2.0625,1.03125 -4.17188,1.03125 -4.28906,0 -7.35937,-3.44531 -3.04688,-3.46875 -3.04688,-9.65625 0,-6.32813 2.97657,-9.60938 2.97656,-3.30468 7.52343,-3.30468 4.17188,0 7.21875,3.46875 v -12.375 h 6.58594 z m -17.57812,-12.98437 q 0,3.98437 1.10156,5.76562 1.59375,2.57813 4.45312,2.57813 2.27344,0 3.86719,-1.92188 1.59375,-1.94531 1.59375,-5.78906 0,-4.28906 -1.54687,-6.16406 -1.54688,-1.89844 -3.96094,-1.89844 -2.34375,0 -3.9375,1.875 -1.57031,1.85156 -1.57031,5.55469 z" />
      <path
         id="path1660"
         style="font-style:normal;font-variant:normal;font-weight:bold;font-stretch:normal;font-family:Arial;-inkscape-font-specification:'Arial Bold';letter-spacing:-2.76999998px;stroke-width:1.00227845"
         d="m 286.1525,524.15781 q 0,-3.28125 1.62457,-6.35157 1.62455,-3.07031 4.59115,-4.6875 2.99014,-1.61718 6.66307,-1.61718 5.67422,0 9.30005,3.67968 3.62584,3.65625 3.62584,9.25782 0,5.64843 -3.67293,9.375 -3.64937,3.70312 -9.20586,3.70312 -3.43749,0 -6.5689,-1.54687 -3.10787,-1.54688 -4.73242,-4.52344 -1.62457,-3 -1.62457,-7.28906 z m 6.7808,0.35156 q 0,3.70312 1.76582,5.67187 1.76583,1.96875 4.35573,1.96875 2.58988,0 4.33216,-1.96875 1.76583,-1.96875 1.76583,-5.71875 0,-3.65625 -1.76583,-5.625 -1.74228,-1.96875 -4.33216,-1.96875 -2.5899,0 -4.35573,1.96875 -1.76582,1.96875 -1.76582,5.67188 z" />
      <path
         id="path1662"
         style="font-style:normal;font-variant:normal;font-weight:bold;font-stretch:normal;font-family:Arial;-inkscape-font-specification:'Arial Bold';letter-spacing:-2.76999998px"
         d="m 315.3792,512.29481 h 6.07031 v 3.39843 q 3.25781,-3.96093 7.75781,-3.96093 2.39063,0 4.14844,0.98437 1.75781,0.98438 2.88281,2.97656 1.64063,-1.99218 3.53906,-2.97656 1.89844,-0.98437 4.05469,-0.98437 2.74219,0 4.64063,1.125 1.89843,1.10156 2.83593,3.25781 0.67969,1.59375 0.67969,5.15625 v 15.91406 h -6.58594 v -14.22656 q 0,-3.70313 -0.67968,-4.78125 -0.91407,-1.40625 -2.8125,-1.40625 -1.38282,0 -2.60157,0.84375 -1.21875,0.84375 -1.75781,2.48437 -0.53906,1.61719 -0.53906,5.13282 v 11.95312 h -6.58594 v -13.64062 q 0,-3.63282 -0.35156,-4.6875 -0.35156,-1.05469 -1.10156,-1.57032 -0.72657,-0.51562 -1.99219,-0.51562 -1.52344,0 -2.74219,0.82031 -1.21875,0.82031 -1.75781,2.36719 -0.51563,1.54687 -0.51563,5.13281 v 12.09375 h -6.58593 z" />
    </g>
    <flowRoot
       transform="matrix(0.71504116,0,0,0.71504116,-312.67354,-299.85845)"
       style="font-style:normal;font-weight:normal;font-size:40px;line-height:1.25;font-family:sans-serif;letter-spacing:0px;word-spacing:0px;fill:#ffffff;fill-opacity:1;stroke:none"
       id="flowRoot10012"
       xml:space="preserve"><flowRegion
         style="fill:#ffffff;fill-opacity:1"
         id="flowRegion10014"><rect
           style="fill:#ffffff;fill-opacity:1"
           y="598.74927"
           x="507.74527"
           height="95.729378"
           width="414.54617"
           id="rect10016" /></flowRegion><flowPara
         style="font-style:normal;font-variant:normal;font-weight:500;font-stretch:normal;font-size:13.33333397px;font-family:'Simplon Norm';-inkscape-font-specification:'Simplon Norm Medium';letter-spacing:2.32000041px;fill:#ffffff;fill-opacity:1"
         id="flowPara10018">pornhub.tracking.exposed</flowPara></flowRoot>  </g>
</svg>
