<?xml version="1.0" encoding="UTF-8" standalone="no"?>
<svg
   xmlns:dc="http://purl.org/dc/elements/1.1/"
   xmlns:cc="http://creativecommons.org/ns#"
   xmlns:rdf="http://www.w3.org/1999/02/22-rdf-syntax-ns#"
   xmlns:svg="http://www.w3.org/2000/svg"
   xmlns="http://www.w3.org/2000/svg"
   id="svg10115"
   version="1.1"
   viewBox="0 0 212.86095 112.24593"
   height="112.24593mm"
   width="212.86095mm">
  <defs
     id="defs10109" />
  <metadata
     id="metadata10112">
    <rdf:RDF>
      <cc:Work
         rdf:about="">
        <dc:format>image/svg+xml</dc:format>
        <dc:type
           rdf:resource="http://purl.org/dc/dcmitype/StillImage" />
        <dc:title></dc:title>
      </cc:Work>
    </rdf:RDF>
  </metadata>
  <g
     transform="translate(2.4762597,0.30223095)"
     id="layer1">
    <rect
       y="-0.30223095"
       x="-2.4762597"
       height="112.24593"
       width="212.86095"
       id="rect844"
       style="fill:#000000;fill-opacity:0.9953052;stroke:none;stroke-width:1.83185768;stroke-linecap:round;stroke-miterlimit:4;stroke-dasharray:none;stroke-opacity:1" />
    <g
       id="flowRoot815"
       style="font-style:normal;font-weight:normal;font-size:40px;line-height:1.25;font-family:sans-serif;letter-spacing:0px;word-spacing:0px;fill:#ffffff;fill-opacity:0.94117647;stroke:none"
       transform="matrix(0.29248559,0,0,0.29248559,-20.555108,-100.88151)"
       aria-label="K N O W L E D G E     I S">
      <path
         id="path11041"
         style="font-style:normal;font-variant:normal;font-weight:bold;font-stretch:normal;font-family:'Simplon Norm';-inkscape-font-specification:'Simplon Norm Bold';letter-spacing:9.85261345px;fill:#f98e05;fill-opacity:1"
         d="m 130.89742,408.98211 3.6,-4.2 7.96,12.12 h 6.56 l -10.84,-16.44 9.84,-11.56 h -6.84 l -10.28,12.08 v -12.08 h -5.44 v 28 h 5.44 z" />
      <path
         id="path11043"
         style="font-style:normal;font-variant:normal;font-weight:bold;font-stretch:normal;font-family:'Simplon Norm';-inkscape-font-specification:'Simplon Norm Bold';letter-spacing:9.85261345px;fill:#f98e05;fill-opacity:1"
         d="m 200.5014,388.90211 h -5.36 v 18.04 l -10.4,-18.04 h -5.36 v 28 h 5.36 v -18.04 l 10.4,18.04 h 5.36 z" />
      <path
         id="path11045"
         style="font-style:normal;font-variant:normal;font-weight:bold;font-stretch:normal;font-family:'Simplon Norm';-inkscape-font-specification:'Simplon Norm Bold';letter-spacing:9.85261345px;fill:#f98e05;fill-opacity:1"
         d="m 254.13225,406.94211 v -8.08 c 0,-6.2 -3.84,-10.36 -10.56,-10.36 -6.72,0 -10.56,4.16 -10.56,10.36 v 8.08 c 0,6.2 3.84,10.36 10.56,10.36 6.72,0 10.56,-4.16 10.56,-10.36 z m -5.36,0 c 0,3.24 -2.28,5.04 -5.2,5.04 -2.92,0 -5.2,-1.8 -5.2,-5.04 v -8.08 c 0,-3.24 2.28,-5.04 5.2,-5.04 2.92,0 5.2,1.8 5.2,5.04 z" />
      <path
         id="path11047"
         style="font-style:normal;font-variant:normal;font-weight:bold;font-stretch:normal;font-family:'Simplon Norm';-inkscape-font-specification:'Simplon Norm Bold';letter-spacing:9.85261345px;fill:#f98e05;fill-opacity:1"
         d="m 302.64435,416.90211 h 5.8 l 5.16,-28 h -5.4 l -3.24,18.96 -3.32,-14.96 h -5.2 l -3.32,14.96 -3.24,-18.96 h -5.4 l 5.16,28 h 5.8 l 3.6,-16.24 z" />
      <path
         id="path11049"
         style="font-style:normal;font-variant:normal;font-weight:bold;font-stretch:normal;font-family:'Simplon Norm';-inkscape-font-specification:'Simplon Norm Bold';letter-spacing:9.85261345px;fill:#f98e05;fill-opacity:1"
         d="m 350.1852,388.90211 h -5.36 v 28 h 17.04 v -5.32 h -11.68 z" />
      <path
         id="path11051"
         style="font-style:normal;font-variant:normal;font-weight:bold;font-stretch:normal;font-family:'Simplon Norm';-inkscape-font-specification:'Simplon Norm Bold';letter-spacing:9.85261345px;fill:#f98e05;fill-opacity:1"
         d="m 397.93729,394.22211 h 11.68 v -5.32 h -17.04 v 28 h 17.04 v -5.32 h -11.68 v -6.16 h 11.68 v -5.32 h -11.68 z" />
      <path
         id="path11053"
         style="font-style:normal;font-variant:normal;font-weight:bold;font-stretch:normal;font-family:'Simplon Norm';-inkscape-font-specification:'Simplon Norm Bold';letter-spacing:9.85261345px;fill:#f98e05;fill-opacity:1"
         d="m 452.84253,416.90211 c 6.72,0 10.56,-4.16 10.56,-10.36 v -7.28 c 0,-6.2 -3.84,-10.36 -10.56,-10.36 h -10.56 v 28 z m 5.2,-10.36 c 0,3.24 -2.28,5.04 -5.2,5.04 h -5.2 v -17.36 h 5.2 c 2.92,0 5.2,1.8 5.2,5.04 z" />
      <path
         id="path11055"
         style="font-style:normal;font-variant:normal;font-weight:bold;font-stretch:normal;font-family:'Simplon Norm';-inkscape-font-specification:'Simplon Norm Bold';letter-spacing:9.85261345px;fill:#f98e05;fill-opacity:1"
         d="m 505.61401,406.22211 h 5.2 v 0.72 c 0,3.24 -2.28,5.04 -5.2,5.04 -2.92,0 -5.2,-1.8 -5.2,-5.04 v -8.08 c 0,-3.24 2.28,-5.04 5.2,-5.04 2.56,0 4.64,1.4 5.12,3.92 h 5.4 c -0.44,-5.56 -4.2,-9.24 -10.52,-9.24 -6.72,0 -10.56,4.16 -10.56,10.36 v 8.08 c 0,6.2 3.84,10.36 10.56,10.36 6.72,0 10.56,-4.16 10.56,-10.36 v -6.04 h -10.56 z" />
      <path
         id="path11057"
         style="font-style:normal;font-variant:normal;font-weight:bold;font-stretch:normal;font-family:'Simplon Norm';-inkscape-font-specification:'Simplon Norm Bold';letter-spacing:9.85261345px;fill:#f98e05;fill-opacity:1"
         d="m 553.92799,394.22211 h 11.68 v -5.32 h -17.04 v 28 h 17.04 v -5.32 h -11.68 v -6.16 h 11.68 v -5.32 h -11.68 z" />
      <path
         id="path11059"
         style="font-style:normal;font-variant:normal;font-weight:bold;font-stretch:normal;font-family:'Simplon Norm';-inkscape-font-specification:'Simplon Norm Bold';letter-spacing:9.85261345px;fill:#f98e05;fill-opacity:1"
         d="m 676.79368,388.90211 h -5.36 v 28 h 5.36 z" />
      <path
         id="path11061"
         style="font-style:normal;font-variant:normal;font-weight:bold;font-stretch:normal;font-family:'Simplon Norm';-inkscape-font-specification:'Simplon Norm Bold';letter-spacing:9.85261345px;fill:#f98e05;fill-opacity:1"
         d="m 718.72325,417.30211 c 6.08,0 9.36,-3.08 9.36,-8.12 0,-4.72 -2.32,-7.36 -6.64,-8.52 l -4.56,-1.24 c -1.52,-0.4 -2.8,-1.12 -2.8,-2.76 0,-1.96 1.6,-2.84 3.84,-2.84 1.8,0 3.76,0.84 4.24,2.72 h 5.52 c -0.6,-4.76 -4.08,-8.04 -9.68,-8.04 -4.88,0 -9.28,2.56 -9.28,8.16 0,4.12 2.12,7.12 6.4,8.28 l 4.72,1.28 c 1.96,0.52 2.88,1.4 2.88,2.96 0,1.92 -1.64,2.8 -4,2.8 -2.68,0 -4.52,-1.56 -4.84,-3.92 h -5.52 c 0.28,5.56 4.24,9.24 10.36,9.24 z" />
    </g>
    <rect
       ry="4.3702435"
       y="31.69187"
       x="102.64865"
       height="49.734886"
       width="90.10144"
       id="rect9938"
       style="fill:#f98e05;fill-opacity:1;stroke:none;stroke-width:2.09409285;stroke-linecap:round;stroke-miterlimit:4;stroke-dasharray:none;stroke-opacity:1" />
    <g
       id="flowRoot10012"
       style="font-style:normal;font-weight:normal;font-size:40px;line-height:1.25;font-family:sans-serif;letter-spacing:0px;word-spacing:0px;fill:#ffffff;fill-opacity:1;stroke:none"
       transform="matrix(0.67678938,0,0,0.67678938,-328.30262,-330.43446)"
       aria-label="pornhub.tracking.exposed">
      <path
         id="path11064"
         style="font-style:normal;font-variant:normal;font-weight:500;font-stretch:normal;font-size:13.33333397px;font-family:'Simplon Norm';-inkscape-font-specification:'Simplon Norm Medium';letter-spacing:4.74062109px;fill:#ffffff;fill-opacity:1"
         d="m 512.99943,631.39396 c 0,1.04 -0.6,1.52 -1.46667,1.52 -0.86667,0 -1.46667,-0.48 -1.46667,-1.52 v -1.44 c 0,-1.04 0.6,-1.52 1.46667,-1.52 0.86667,0 1.46667,0.48 1.46667,1.52 z m 1.4,-1.46667 c 0,-2.12 -1.54667,-2.85333 -2.73334,-2.85333 -0.72,0 -1.4,0.38666 -1.6,0.78666 v -0.6 h -1.4 v 9.33334 h 1.4 v -3.10667 c 0.2,0.4 0.88,0.78667 1.6,0.78667 1.18667,0 2.73334,-0.73334 2.73334,-2.85334 z" />
      <path
         id="path11066"
         style="font-style:normal;font-variant:normal;font-weight:500;font-stretch:normal;font-size:13.33333397px;font-family:'Simplon Norm';-inkscape-font-specification:'Simplon Norm Medium';letter-spacing:4.74062109px;fill:#ffffff;fill-opacity:1"
         d="m 524.94922,631.39396 c 0,1.04 -0.6,1.53333 -1.46667,1.53333 -0.86667,0 -1.46667,-0.49333 -1.46667,-1.53333 v -1.44 c 0,-1.04 0.6,-1.53334 1.46667,-1.53334 0.86667,0 1.46667,0.49334 1.46667,1.53334 z m -4.33334,0.0267 c 0,2.26667 1.66667,2.85334 2.86667,2.85334 1.2,0 2.86667,-0.58667 2.86667,-2.85334 v -1.49333 c 0,-2.26667 -1.66667,-2.85333 -2.86667,-2.85333 -1.2,0 -2.86667,0.58666 -2.86667,2.85333 z" />
      <path
         id="path11068"
         style="font-style:normal;font-variant:normal;font-weight:500;font-stretch:normal;font-size:13.33333397px;font-family:'Simplon Norm';-inkscape-font-specification:'Simplon Norm Medium';letter-spacing:4.74062109px;fill:#ffffff;fill-opacity:1"
         d="m 536.264,628.50062 v -1.36 h -0.53333 c -0.72,0 -1.4,0.38667 -1.6,0.78667 v -0.66667 h -1.4 v 6.88 h 1.4 v -4.12 c 0,-1.04 0.6,-1.52 1.46667,-1.52 z" />
      <path
         id="path11070"
         style="font-style:normal;font-variant:normal;font-weight:500;font-stretch:normal;font-size:13.33333397px;font-family:'Simplon Norm';-inkscape-font-specification:'Simplon Norm Medium';letter-spacing:4.74062109px;fill:#ffffff;fill-opacity:1"
         d="m 543.48067,629.95396 c 0,-1.04 0.6,-1.52 1.46666,-1.52 0.86667,0 1.46667,0.48 1.46667,1.52 v 4.18666 h 1.4 v -4.21333 c 0,-2.12 -1.54667,-2.85333 -2.73333,-2.85333 -0.72,0 -1.4,0.38666 -1.6,0.78666 v -0.6 h -1.4 v 6.88 h 1.4 z" />
      <path
         id="path11072"
         style="font-style:normal;font-variant:normal;font-weight:500;font-stretch:normal;font-size:13.33333397px;font-family:'Simplon Norm';-inkscape-font-specification:'Simplon Norm Medium';letter-spacing:4.74062109px;fill:#ffffff;fill-opacity:1"
         d="m 555.69524,629.95396 c 0,-1.04 0.6,-1.52 1.46667,-1.52 0.86667,0 1.46667,0.48 1.46667,1.52 v 4.18666 h 1.4 v -4.21333 c 0,-2.12 -1.54667,-2.85333 -2.73334,-2.85333 -0.72,0 -1.4,0.38666 -1.6,0.78666 v -3.05333 h -1.4 v 9.33333 h 1.4 z" />
      <path
         id="path11074"
         style="font-style:normal;font-variant:normal;font-weight:500;font-stretch:normal;font-size:13.33333397px;font-family:'Simplon Norm';-inkscape-font-specification:'Simplon Norm Medium';letter-spacing:4.74062109px;fill:#ffffff;fill-opacity:1"
         d="m 567.81649,627.26062 h -1.4 v 4.16 c 0,2.02667 1.46667,2.85334 2.65333,2.85334 0.72,0 1.4,-0.38667 1.6,-0.78667 v 0.65333 h 1.4 v -6.88 h -1.4 v 4.13334 c 0,1.04 -0.6,1.52 -1.42666,1.52 -0.82667,0 -1.42667,-0.48 -1.42667,-1.52 z" />
      <path
         id="path11076"
         style="font-style:normal;font-variant:normal;font-weight:500;font-stretch:normal;font-size:13.33333397px;font-family:'Simplon Norm';-inkscape-font-specification:'Simplon Norm Medium';letter-spacing:4.74062109px;fill:#ffffff;fill-opacity:1"
         d="m 582.97961,631.39396 c 0,1.04 -0.6,1.52 -1.46666,1.52 -0.86667,0 -1.46667,-0.48 -1.46667,-1.52 v -1.44 c 0,-1.04 0.6,-1.52 1.46667,-1.52 0.86666,0 1.46666,0.48 1.46666,1.52 z m 1.4,-1.46667 c 0,-2.12 -1.54666,-2.85333 -2.73333,-2.85333 -0.72,0 -1.4,0.38666 -1.6,0.78666 v -3.05333 h -1.4 v 9.33333 h 1.4 v -0.65333 c 0.2,0.4 0.88,0.78667 1.6,0.78667 1.18667,0 2.73333,-0.73334 2.73333,-2.85334 z" />
      <path
         id="path11078"
         style="font-style:normal;font-variant:normal;font-weight:500;font-stretch:normal;font-size:13.33333397px;font-family:'Simplon Norm';-inkscape-font-specification:'Simplon Norm Medium';letter-spacing:4.74062109px;fill:#ffffff;fill-opacity:1"
         d="m 590.60357,634.14062 h 1.78666 v -1.78666 h -1.78666 z" />
      <path
         id="path11080"
         style="font-style:normal;font-variant:normal;font-weight:500;font-stretch:normal;font-size:13.33333397px;font-family:'Simplon Norm';-inkscape-font-specification:'Simplon Norm Medium';letter-spacing:4.74062109px;fill:#ffffff;fill-opacity:1"
         d="m 600.39439,628.58062 h 1.69334 v -1.32 h -1.69334 v -1.56 h -1.4 v 1.56 h -0.97333 v 1.32 h 0.97333 v 3.92 c 0,1.08 0.49334,1.64 1.64,1.64 h 1.45334 v -1.34666 h -1.05334 c -0.54666,0 -0.64,-0.14667 -0.64,-0.65334 z" />
      <path
         id="path11082"
         style="font-style:normal;font-variant:normal;font-weight:500;font-stretch:normal;font-size:13.33333397px;font-family:'Simplon Norm';-inkscape-font-specification:'Simplon Norm Medium';letter-spacing:4.74062109px;fill:#ffffff;fill-opacity:1"
         d="m 611.74002,628.50062 v -1.36 h -0.53334 c -0.72,0 -1.4,0.38667 -1.6,0.78667 v -0.66667 h -1.4 v 6.88 h 1.4 v -4.12 c 0,-1.04 0.6,-1.52 1.46667,-1.52 z" />
      <path
         id="path11084"
         style="font-style:normal;font-variant:normal;font-weight:500;font-stretch:normal;font-size:13.33333397px;font-family:'Simplon Norm';-inkscape-font-specification:'Simplon Norm Medium';letter-spacing:4.74062109px;fill:#ffffff;fill-opacity:1"
         d="m 620.10522,628.42062 c 0.81334,0 1.38667,0.44 1.45334,1.33334 v 0.0133 c -1.16,0.08 -2.06667,0.14667 -2.89334,0.4 -1.14666,0.36 -1.49333,1.28 -1.49333,2.06667 0,1.41333 1.09333,2.04 2.34667,2.04 0.90666,0 1.61333,-0.25334 2.05333,-0.78667 v 0.65333 h 1.4 v -4.21333 c 0,-2.26667 -1.66667,-2.85333 -2.86667,-2.85333 -1.10666,0 -2.58666,0.49333 -2.82666,2.32 h 1.42666 c 0.18667,-0.65334 0.70667,-0.97334 1.4,-0.97334 z m -0.36,4.50667 c -0.74666,0 -1.17333,-0.25333 -1.17333,-0.81333 0,-0.34667 0.16,-0.53334 0.33333,-0.64 0.50667,-0.30667 1.44,-0.38667 2.66667,-0.46667 v 0.38667 c 0,1.28 -1.02667,1.53333 -1.82667,1.53333 z" />
      <path
         id="path11086"
         style="font-style:normal;font-variant:normal;font-weight:500;font-stretch:normal;font-size:13.33333397px;font-family:'Simplon Norm';-inkscape-font-specification:'Simplon Norm Medium';letter-spacing:4.74062109px;fill:#ffffff;fill-opacity:1"
         d="m 634.99209,631.79396 h -1.41333 c -0.13334,0.76 -0.69334,1.13333 -1.44,1.13333 -0.86667,0 -1.46667,-0.49333 -1.46667,-1.53333 v -1.44 c 0,-1.04 0.6,-1.53334 1.46667,-1.53334 0.74666,0 1.29333,0.37334 1.42666,1.13334 h 1.42667 c -0.17333,-1.96 -1.72,-2.48 -2.85333,-2.48 -1.2,0 -2.86667,0.58666 -2.86667,2.85333 v 1.49333 c 0,2.26667 1.66667,2.85334 2.86667,2.85334 1.13333,0 2.68,-0.52 2.85333,-2.48 z" />
      <path
         id="path11088"
         style="font-style:normal;font-variant:normal;font-weight:500;font-stretch:normal;font-size:13.33333397px;font-family:'Simplon Norm';-inkscape-font-specification:'Simplon Norm Medium';letter-spacing:4.74062109px;fill:#ffffff;fill-opacity:1"
         d="m 642.65667,624.80729 h -1.4 v 9.33333 h 1.4 v -2.24 l 0.85333,-0.93333 2.16,3.17333 h 1.62667 l -2.85333,-4.18666 2.48,-2.69334 H 645.23 l -2.57333,2.8 z" />
      <path
         id="path11090"
         style="font-style:normal;font-variant:normal;font-weight:500;font-stretch:normal;font-size:13.33333397px;font-family:'Simplon Norm';-inkscape-font-specification:'Simplon Norm Medium';letter-spacing:4.74062109px;fill:#ffffff;fill-opacity:1"
         d="m 654.4025,624.80729 h -1.4 v 1.42667 h 1.4 z m 0,2.45333 h -1.4 v 6.88 h 1.4 z" />
      <path
         id="path11092"
         style="font-style:normal;font-variant:normal;font-weight:500;font-stretch:normal;font-size:13.33333397px;font-family:'Simplon Norm';-inkscape-font-specification:'Simplon Norm Medium';letter-spacing:4.74062109px;fill:#ffffff;fill-opacity:1"
         d="m 662.37229,629.95396 c 0,-1.04 0.6,-1.52 1.46667,-1.52 0.86667,0 1.46667,0.48 1.46667,1.52 v 4.18666 h 1.4 v -4.21333 c 0,-2.12 -1.54667,-2.85333 -2.73334,-2.85333 -0.72,0 -1.4,0.38666 -1.6,0.78666 v -0.6 h -1.4 v 6.88 h 1.4 z" />
      <path
         id="path11094"
         style="font-style:normal;font-variant:normal;font-weight:500;font-stretch:normal;font-size:13.33333397px;font-family:'Simplon Norm';-inkscape-font-specification:'Simplon Norm Medium';letter-spacing:4.74062109px;fill:#ffffff;fill-opacity:1"
         d="m 675.84021,635.38063 c -0.73333,0 -1.28,-0.36 -1.42667,-1.10667 h -1.41333 c 0.18667,1.93333 1.70667,2.45333 2.84,2.45333 1.2,0 2.86667,-0.58666 2.86667,-2.85333 v -6.61334 h -1.4 v 0.6 c -0.2,-0.4 -0.88,-0.78666 -1.6,-0.78666 -1.18667,0 -2.73334,0.73333 -2.73334,2.85333 v 1.09333 c 0,2.12 1.54667,2.85334 2.73334,2.85334 0.72,0 1.4,-0.38667 1.6,-0.78667 v 0.76 c 0,1.04 -0.6,1.53334 -1.46667,1.53334 z m -1.46667,-5.42667 c 0,-1.04 0.6,-1.52 1.46667,-1.52 0.86667,0 1.46667,0.48 1.46667,1.52 v 1.04 c 0,1.04 -0.6,1.52 -1.46667,1.52 -0.86667,0 -1.46667,-0.48 -1.46667,-1.52 z" />
      <path
         id="path11096"
         style="font-style:normal;font-variant:normal;font-weight:500;font-stretch:normal;font-size:13.33333397px;font-family:'Simplon Norm';-inkscape-font-specification:'Simplon Norm Medium';letter-spacing:4.74062109px;fill:#ffffff;fill-opacity:1"
         d="m 685.43062,634.14062 h 1.78667 v -1.78666 h -1.78667 z" />
      <path
         id="path11098"
         style="font-style:normal;font-variant:normal;font-weight:500;font-stretch:normal;font-size:13.33333397px;font-family:'Simplon Norm';-inkscape-font-specification:'Simplon Norm Medium';letter-spacing:4.74062109px;fill:#ffffff;fill-opacity:1"
         d="m 696.31165,632.92729 c -0.86666,0 -1.46666,-0.49333 -1.46666,-1.53333 v -0.22667 h 4.33333 v -1.24 c 0,-2.26667 -1.66667,-2.85333 -2.86667,-2.85333 -1.2,0 -2.86666,0.58666 -2.86666,2.85333 v 1.49333 c 0,2.26667 1.66666,2.85334 2.86666,2.85334 1.10667,0 2.58667,-0.49334 2.82667,-2.32 h -1.42667 c -0.18666,0.65333 -0.70666,0.97333 -1.4,0.97333 z m 0,-4.50667 c 0.85334,0 1.45334,0.49334 1.46667,1.49334 v 0.0133 h -2.93333 v -0.0133 c 0,-1 0.6,-1.49334 1.46666,-1.49334 z" />
      <path
         id="path11100"
         style="font-style:normal;font-variant:normal;font-weight:500;font-stretch:normal;font-size:13.33333397px;font-family:'Simplon Norm';-inkscape-font-specification:'Simplon Norm Medium';letter-spacing:4.74062109px;fill:#ffffff;fill-opacity:1"
         d="m 709.2727,634.14062 h 1.54666 l -2.33333,-3.53333 2.22667,-3.34667 h -1.54667 l -1.50667,2.29334 -1.50666,-2.29334 h -1.54667 l 2.22667,3.34667 -2.33334,3.53333 h 1.54667 l 1.61333,-2.46666 z" />
      <path
         id="path11102"
         style="font-style:normal;font-variant:normal;font-weight:500;font-stretch:normal;font-size:13.33333397px;font-family:'Simplon Norm';-inkscape-font-specification:'Simplon Norm Medium';letter-spacing:4.74062109px;fill:#ffffff;fill-opacity:1"
         d="m 720.93581,631.39396 c 0,1.04 -0.6,1.52 -1.46666,1.52 -0.86667,0 -1.46667,-0.48 -1.46667,-1.52 v -1.44 c 0,-1.04 0.6,-1.52 1.46667,-1.52 0.86666,0 1.46666,0.48 1.46666,1.52 z m 1.4,-1.46667 c 0,-2.12 -1.54666,-2.85333 -2.73333,-2.85333 -0.72,0 -1.4,0.38666 -1.6,0.78666 v -0.6 h -1.4 v 9.33334 h 1.4 v -3.10667 c 0.2,0.4 0.88,0.78667 1.6,0.78667 1.18667,0 2.73333,-0.73334 2.73333,-2.85334 z" />
      <path
         id="path11104"
         style="font-style:normal;font-variant:normal;font-weight:500;font-stretch:normal;font-size:13.33333397px;font-family:'Simplon Norm';-inkscape-font-specification:'Simplon Norm Medium';letter-spacing:4.74062109px;fill:#ffffff;fill-opacity:1"
         d="m 732.88561,631.39396 c 0,1.04 -0.6,1.53333 -1.46667,1.53333 -0.86667,0 -1.46667,-0.49333 -1.46667,-1.53333 v -1.44 c 0,-1.04 0.6,-1.53334 1.46667,-1.53334 0.86667,0 1.46667,0.49334 1.46667,1.53334 z m -4.33334,0.0267 c 0,2.26667 1.66667,2.85334 2.86667,2.85334 1.2,0 2.86667,-0.58667 2.86667,-2.85334 v -1.49333 c 0,-2.26667 -1.66667,-2.85333 -2.86667,-2.85333 -1.2,0 -2.86667,0.58666 -2.86667,2.85333 z" />
      <path
         id="path11106"
         style="font-style:normal;font-variant:normal;font-weight:500;font-stretch:normal;font-size:13.33333397px;font-family:'Simplon Norm';-inkscape-font-specification:'Simplon Norm Medium';letter-spacing:4.74062109px;fill:#ffffff;fill-opacity:1"
         d="m 743.12039,634.27396 c 1.49333,0 2.54667,-0.66667 2.56,-2.02667 0,-1.30667 -0.62667,-1.84 -1.88,-2.16 l -1.26667,-0.32 c -0.37333,-0.0933 -0.77333,-0.22667 -0.77333,-0.64 0,-0.54667 0.56,-0.70667 0.98667,-0.70667 0.64,0 1.16,0.25334 1.26666,0.85334 h 1.46667 c -0.13333,-1.53334 -1.16,-2.2 -2.64,-2.2 -1.4,0 -2.49333,0.66666 -2.49333,2.02666 0,1.32 0.84,1.82667 1.74666,2.05334 l 1.30667,0.33333 c 0.45333,0.10667 0.86667,0.25333 0.86667,0.72 0,0.56 -0.52,0.72 -1.13334,0.72 -0.74666,0 -1.4,-0.30667 -1.50666,-0.98667 h -1.44 c 0.08,1.57334 1.34666,2.33334 2.93333,2.33334 z" />
      <path
         id="path11108"
         style="font-style:normal;font-variant:normal;font-weight:500;font-stretch:normal;font-size:13.33333397px;font-family:'Simplon Norm';-inkscape-font-specification:'Simplon Norm Medium';letter-spacing:4.74062109px;fill:#ffffff;fill-opacity:1"
         d="m 754.51997,632.92729 c -0.86667,0 -1.46667,-0.49333 -1.46667,-1.53333 v -0.22667 h 4.33333 v -1.24 c 0,-2.26667 -1.66666,-2.85333 -2.86666,-2.85333 -1.2,0 -2.86667,0.58666 -2.86667,2.85333 v 1.49333 c 0,2.26667 1.66667,2.85334 2.86667,2.85334 1.10666,0 2.58666,-0.49334 2.82666,-2.32 h -1.42666 c -0.18667,0.65333 -0.70667,0.97333 -1.4,0.97333 z m 0,-4.50667 c 0.85333,0 1.45333,0.49334 1.46666,1.49334 v 0.0133 h -2.93333 v -0.0133 c 0,-1 0.6,-1.49334 1.46667,-1.49334 z" />
      <path
         id="path11110"
         style="font-style:normal;font-variant:normal;font-weight:500;font-stretch:normal;font-size:13.33333397px;font-family:'Simplon Norm';-inkscape-font-specification:'Simplon Norm Medium';letter-spacing:4.74062109px;fill:#ffffff;fill-opacity:1"
         d="m 764.92934,629.95396 c 0,-1.04 0.6,-1.52 1.46667,-1.52 0.86666,0 1.46666,0.48 1.46666,1.52 v 1.44 c 0,1.04 -0.69333,1.52 -1.56,1.52 -0.77333,0 -1.37333,-0.48 -1.37333,-1.52 z m -1.4,1.46666 c 0,2.12 1.54667,2.85334 2.73333,2.85334 0.72,0 1.4,-0.38667 1.6,-0.78667 v 0.65333 h 1.4 v -9.33333 h -1.4 v 3.05333 c -0.2,-0.4 -0.88,-0.78666 -1.6,-0.78666 -1.18666,0 -2.73333,0.73333 -2.73333,2.85333 z" />
    </g>
    <path
       d="M 21.408102,45.124917 H 34.359113 V 39.225998 H 15.46483 v 31.046944 h 5.943272 V 57.543695 h 12.951011 v -5.89892 H 21.408102 Z"
       style="font-style:normal;font-weight:normal;font-size:40px;line-height:1.25;font-family:sans-serif;letter-spacing:-2px;word-spacing:0px;fill:#ffffff;fill-opacity:1;stroke:none;stroke-width:0.92401618"
       id="path10735" />
    <path
       d="m 44.312886,57.14452 c 0,-3.104695 2.128933,-4.435278 4.346572,-4.435278 h 2.749872 v -5.721508 h -1.774111 c -2.705519,0 -4.657041,1.374936 -5.322333,2.88293 v -2.483755 h -5.854567 v 22.886033 h 5.854567 z"
       style="font-style:normal;font-weight:normal;font-size:40px;line-height:1.25;font-family:sans-serif;letter-spacing:-2px;word-spacing:0px;fill:#ffffff;fill-opacity:1;stroke:none;stroke-width:0.92401618"
       id="path10737" />
    <path
       d="m 73.916324,60.8258 v -3.548222 c 0,-6.342447 -3.636928,-10.511608 -10.201139,-10.511608 -6.564211,0 -10.201139,4.169161 -10.201139,10.511608 v 2.927283 c 0,6.342448 3.636928,10.511609 10.201139,10.511609 5.58845,0 9.047967,-3.015989 9.979375,-7.806089 h -5.943272 c -0.576586,1.552347 -1.995875,2.528108 -4.036103,2.528108 -2.794225,0 -4.346572,-1.774111 -4.346572,-4.47963 V 60.8258 Z M 63.715185,52.04395 c 2.616814,0 4.124808,1.507995 4.30222,3.903045 v 0.04435 h -8.648792 v -0.04435 c 0.221764,-2.350697 1.729758,-3.903045 4.346572,-3.903045 z"
       style="font-style:normal;font-weight:normal;font-size:40px;line-height:1.25;font-family:sans-serif;letter-spacing:-2px;word-spacing:0px;fill:#ffffff;fill-opacity:1;stroke:none;stroke-width:0.92401618"
       id="path10739" />
    <path
       d="m 97.911215,60.8258 v -3.548222 c 0,-6.342447 -3.636928,-10.511608 -10.201139,-10.511608 -6.564211,0 -10.201139,4.169161 -10.201139,10.511608 v 2.927283 c 0,6.342448 3.636928,10.511609 10.201139,10.511609 5.58845,0 9.047967,-3.015989 9.979375,-7.806089 h -5.943272 c -0.576586,1.552347 -1.995875,2.528108 -4.036103,2.528108 -2.794225,0 -4.346572,-1.774111 -4.346572,-4.47963 V 60.8258 Z M 87.710076,52.04395 c 2.616814,0 4.124808,1.507995 4.302219,3.903045 v 0.04435 h -8.648791 v -0.04435 c 0.221764,-2.350697 1.729758,-3.903045 4.346572,-3.903045 z"
       style="font-style:normal;font-weight:normal;font-size:40px;line-height:1.25;font-family:sans-serif;letter-spacing:-2px;word-spacing:0px;fill:#ffffff;fill-opacity:1;stroke:none;stroke-width:0.92401618"
       id="path10741" />
    <path
       d="m 121.37536,68.099656 v 2.173286 h 5.85456 V 39.225998 h -5.85456 v 10.156786 c -1.02012,-1.552347 -3.32646,-2.616814 -5.36669,-2.616814 -4.65704,0 -9.18103,3.1934 -9.18103,9.935022 v 4.080456 c 0,6.741622 4.52399,9.935022 9.18103,9.935022 2.04023,0 4.34657,-1.064467 5.36669,-2.616814 z m -8.69315,-11.1769 c 0,-3.104694 2.12893,-4.435278 4.34657,-4.435278 2.21764,0 4.34658,1.330584 4.34658,4.435278 v 3.636928 c 0,3.104694 -2.12894,4.435277 -4.34658,4.435277 -2.21764,0 -4.34657,-1.330583 -4.34657,-4.435277 z"
       style="font-style:normal;font-weight:normal;font-size:48px;line-height:1.25;font-family:sans-serif;letter-spacing:-1.5px;word-spacing:0px;fill:#000000;fill-opacity:1;stroke:none;stroke-width:0.92401618"
       id="path10743" />
    <path
       d="m 129.94751,60.204861 c 0,6.342448 3.63693,10.511609 10.20114,10.511609 6.56421,0 10.20114,-4.169161 10.20114,-10.511609 v -2.927283 c 0,-6.342447 -3.63693,-10.511608 -10.20114,-10.511608 -6.56421,0 -10.20114,4.169161 -10.20114,10.511608 z m 14.54771,0.753998 c 0,2.705519 -1.55234,4.47963 -4.34657,4.47963 -2.79422,0 -4.34657,-1.774111 -4.34657,-4.47963 v -4.435278 c 0,-2.705519 1.55235,-4.479631 4.34657,-4.479631 2.79423,0 4.34657,1.774112 4.34657,4.479631 z"
       style="font-style:normal;font-weight:normal;font-size:40px;line-height:1.25;font-family:sans-serif;letter-spacing:-2.76999998px;word-spacing:0px;fill:#000000;fill-opacity:1;stroke:none;stroke-width:0.92401618"
       id="path10745" />
    <path
       d="m 173.63418,56.922756 c 0,-3.060342 2.12893,-4.435278 4.21351,-4.435278 2.08458,0 4.21351,1.374936 4.21351,4.435278 v 13.350186 h 5.85457 v -13.57195 c 0,-6.697269 -4.25787,-9.935022 -10.06808,-9.935022 -3.14905,0 -5.49974,1.020114 -7.1408,3.015989 -1.5967,-2.128934 -3.76998,-3.015989 -6.16503,-3.015989 -1.99588,0 -4.08046,0.975761 -5.18928,2.528108 v -1.907169 h -5.85456 v 22.886033 h 5.85456 V 56.922756 c 0,-3.060342 2.12894,-4.435278 4.21352,-4.435278 2.08458,0 4.21351,1.374936 4.21351,4.435278 v 13.350186 h 5.85457 z"
       style="font-style:normal;font-weight:normal;font-size:40px;line-height:1.25;font-family:sans-serif;letter-spacing:-2.76999998px;word-spacing:0px;fill:#000000;fill-opacity:1;stroke:none;stroke-width:0.92401618"
       id="path10747" />
  </g>
</svg>
