<?xml version="1.0" standalone="no"?>
<!DOCTYPE svg PUBLIC "-//W3C//DTD SVG 1.1//EN" "http://www.w3.org/Graphics/SVG/1.1/DTD/svg11.dtd" >
<svg xmlns="http://www.w3.org/2000/svg" xmlns:xlink="http://www.w3.org/1999/xlink" version="1.1">
<metadata>
Created by FontForge 20170910 at Sun Sep 15 00:45:56 2013
 By Jimmy Wärting
Copyright (c) 2011 Swiss Typefaces Sa`rl. All rights reserved.
</metadata>
<defs>
<font id="SimplonNorm" horiz-adv-x="558" >
  <font-face 
    font-family="Simplon Norm"
    font-weight="400"
    font-stretch="normal"
    units-per-em="1000"
    panose-1="2 11 5 0 3 0 0 0 0 0"
    ascent="806"
    descent="-194"
    x-height="516"
    cap-height="700"
    bbox="-225 -229 1081 874"
    underline-thickness="65"
    underline-position="-100"
    stemh="63"
    stemv="65"
    unicode-range="U+0020-FB04"
  />
<missing-glyph horiz-adv-x="500" 
d="M443 0h-387v700h387v-700zM249 408l106 238h-212zM388 96v507l-113 -253zM111 98l112 252l-112 251v-503zM143 54h212l-106 237z" />
    <glyph glyph-name=".notdef" horiz-adv-x="500" 
d="M443 0h-387v700h387v-700zM249 408l106 238h-212zM388 96v507l-113 -253zM111 98l112 252l-112 251v-503zM143 54h212l-106 237z" />
    <glyph glyph-name=".null" horiz-adv-x="0" 
 />
    <glyph glyph-name="CR" horiz-adv-x="0" 
 />
    <glyph glyph-name="space" unicode=" " horiz-adv-x="225" 
 />
    <glyph glyph-name="exclam" unicode="!" horiz-adv-x="275" 
d="M175 700v-490h-75v490h75zM85 0v105h105v-105h-105z" />
    <glyph glyph-name="quotedbl" unicode="&#x22;" horiz-adv-x="404" 
d="M324 476h-75v224h75v-224zM155 476h-75v224h75v-224z" />
    <glyph glyph-name="numbersign" unicode="#" horiz-adv-x="700" 
d="M169 0h-68l51 206h-69v65h85l39 158h-85v65h101l52 206h68l-52 -206h188l52 206h68l-52 -206h71v-65h-87l-39 -158h86v-65h-102l-51 -206h-68l51 206h-188zM275 429l-39 -158h188l39 158h-188z" />
    <glyph glyph-name="dollar" unicode="$" horiz-adv-x="504" 
d="M235 -100v91c-108 9 -185 90 -194 216h75c11 -81 53 -134 119 -144v257l-43 16c-88 33 -139 93 -139 189c0 90 58 175 182 184v91h43v-91c91 -9 165 -76 170 -186h-74c-8 65 -45 105 -96 113v-250l43 -16c90 -33 136 -107 136 -197c0 -96 -54 -174 -179 -182v-91h-43z
M128 526c0 -69 39 -99 82 -115l25 -9v235c-77 -8 -107 -55 -107 -111zM299 296l-21 8v-241c66 6 104 43 104 110c0 49 -23 101 -83 123z" />
    <glyph glyph-name="percent" unicode="%" horiz-adv-x="840" 
d="M625 700h71l-481 -700h-71zM194 351c38 0 62 20 62 65v162c0 45 -24 65 -62 65c-37 0 -61 -20 -61 -65v-162c0 -45 24 -65 61 -65zM194 288c-51 0 -126 25 -126 126v166c0 101 75 126 126 126c52 0 127 -25 127 -126v-166c0 -101 -75 -126 -127 -126zM645 57
c38 0 62 20 62 65v162c0 45 -24 65 -62 65c-37 0 -61 -20 -61 -65v-162c0 -45 24 -65 61 -65zM645 -6c-51 0 -126 25 -126 126v166c0 101 75 126 126 126c52 0 127 -25 127 -126v-166c0 -101 -75 -126 -127 -126z" />
    <glyph glyph-name="ampersand" unicode="&#x26;" horiz-adv-x="593" 
d="M383 628h-132c-69 0 -122 -43 -122 -120s53 -120 122 -120h132v80h75v-80h127v-72h-127v-316h-207c-101 0 -197 56 -197 193c0 73 38 133 85 159c-47 24 -85 81 -85 156c0 139 96 192 197 192h132v-72zM251 72h132v244h-132c-77 0 -122 -47 -122 -122s45 -122 122 -122z
" />
    <glyph glyph-name="quotesingle" unicode="'" horiz-adv-x="235" 
d="M155 476h-75v224h75v-224z" />
    <glyph glyph-name="parenleft" unicode="(" horiz-adv-x="274" 
d="M96 9v568c0 88 27 123 123 123h16v-64h-22c-41 0 -52 -16 -52 -51v-584c0 -35 11 -51 52 -51h22v-64h-16c-96 0 -123 35 -123 123z" />
    <glyph glyph-name="parenright" unicode=")" horiz-adv-x="274" 
d="M178 577v-568c0 -88 -27 -123 -123 -123h-16v64h22c41 0 52 16 52 51v584c0 35 -11 51 -52 51h-22v64h16c96 0 123 -35 123 -123z" />
    <glyph glyph-name="asterisk" unicode="*" horiz-adv-x="475" 
d="M311 376l-73 100l-74 -100l-52 38l73 100l-118 39l20 61l118 -38v124h65v-124l118 38l20 -61l-118 -39l73 -100z" />
    <glyph glyph-name="plus" unicode="+" 
d="M249 78v170h-172v65h172v169h65v-169h167v-65h-167v-170h-65z" />
    <glyph glyph-name="comma" unicode="," horiz-adv-x="275" 
d="M85 0v105h105v-105l-35 -94h-64l35 94h-41z" />
    <glyph glyph-name="hyphen" unicode="-" horiz-adv-x="400" 
d="M345 248h-290v65h290v-65z" />
    <glyph glyph-name="period" unicode="." horiz-adv-x="275" 
d="M85 0v105h105v-105h-105z" />
    <glyph glyph-name="slash" unicode="/" horiz-adv-x="345" 
d="M278 700h72l-283 -700h-72z" />
    <glyph glyph-name="zero" unicode="0" horiz-adv-x="532" 
d="M393 191v318c0 86 -60 129 -127 129s-127 -43 -127 -129v-318c0 -86 60 -129 127 -129s127 43 127 129zM468 508v-316c0 -152 -106 -202 -202 -202s-202 50 -202 202v316c0 152 106 202 202 202s202 -50 202 -202z" />
    <glyph glyph-name="one" unicode="1" horiz-adv-x="341" 
d="M181 700h75v-700h-75v605l-134 -115v95z" />
    <glyph glyph-name="two" unicode="2" horiz-adv-x="505" 
d="M48 508c0 152 106 202 202 202s202 -51 202 -199c0 -84 -41 -146 -102 -213l-205 -226h307v-72h-404v72l249 274c44 48 80 105 80 166c0 82 -60 126 -127 126s-127 -43 -127 -129v-19h-75v18z" />
    <glyph glyph-name="three" unicode="3" horiz-adv-x="511" 
d="M47 192v8h75v-9c0 -86 62 -129 132 -129c72 0 122 45 122 124c0 67 -46 130 -122 130h-50v72h50c69 0 122 45 122 126c0 78 -58 124 -127 124c-67 0 -127 -43 -127 -129v-9h-75v8c0 152 106 202 202 202c101 0 202 -57 202 -196c0 -78 -38 -138 -85 -162
c47 -26 85 -86 85 -166c0 -140 -101 -196 -197 -196c-99 0 -207 50 -207 202z" />
    <glyph glyph-name="four" unicode="4" horiz-adv-x="512" 
d="M484 189h-73v-189h-75v189h-321v70l321 441h75v-441h73v-70zM101 259h235v322z" />
    <glyph glyph-name="five" unicode="5" horiz-adv-x="512" 
d="M148 296h-75v404h368v-72h-293v-224c30 26 76 40 118 40c96 0 202 -50 202 -202v-50c0 -152 -106 -202 -202 -202s-202 50 -202 202v8h75v-9c0 -86 60 -129 127 -129s127 43 127 129v52c0 86 -60 129 -127 129c-51 0 -99 -25 -118 -76z" />
    <glyph glyph-name="six" unicode="6" horiz-adv-x="526" 
d="M64 508c0 152 106 202 202 202s202 -50 202 -202v-8h-75v9c0 86 -60 129 -127 129s-127 -43 -127 -129v-121c26 30 80 49 127 49c96 0 202 -50 202 -202v-43c0 -152 -106 -202 -202 -202s-202 50 -202 202v316zM139 236v-45c0 -86 60 -129 127 -129s127 43 127 129v45
c0 86 -60 129 -127 129s-127 -43 -127 -129z" />
    <glyph glyph-name="seven" unicode="7" horiz-adv-x="440" 
d="M416 628l-221 -628h-79l221 628h-319v72h398v-72z" />
    <glyph glyph-name="eight" unicode="8" horiz-adv-x="524" 
d="M262 317c-67 0 -127 -50 -127 -128s60 -127 127 -127s127 49 127 127s-60 128 -127 128zM262 -10c-103 0 -202 62 -202 199c0 74 27 128 82 163c-45 36 -75 85 -75 161c0 138 97 197 195 197s195 -59 195 -197c0 -76 -30 -125 -75 -161c55 -35 82 -89 82 -163
c0 -137 -99 -199 -202 -199zM262 638c-76 0 -120 -52 -120 -125c0 -83 54 -125 120 -125s120 42 120 125c0 73 -44 125 -120 125z" />
    <glyph glyph-name="nine" unicode="9" horiz-adv-x="526" 
d="M462 508v-316c0 -152 -106 -202 -202 -202s-202 50 -202 202v8h75v-9c0 -86 60 -129 127 -129s127 43 127 129v121c-26 -30 -80 -49 -127 -49c-96 0 -202 50 -202 202v43c0 152 106 202 202 202s202 -50 202 -202zM387 464v45c0 86 -60 129 -127 129s-127 -43 -127 -129
v-45c0 -86 60 -129 127 -129s127 43 127 129z" />
    <glyph glyph-name="colon" unicode=":" horiz-adv-x="275" 
d="M85 411v105h105v-105h-105zM85 0v105h105v-105h-105z" />
    <glyph glyph-name="semicolon" unicode=";" horiz-adv-x="275" 
d="M85 411v105h105v-105h-105zM85 0v105h105v-105l-35 -94h-64l35 94h-41z" />
    <glyph glyph-name="less" unicode="&#x3c;" 
d="M145 259l336 -189v-75l-404 227v74l404 227v-75z" />
    <glyph glyph-name="equal" unicode="=" 
d="M481 140h-404v65h404v-65zM481 345h-404v65h404v-65z" />
    <glyph glyph-name="greater" unicode="&#x3e;" 
d="M77 70l336 189l-336 189v75l404 -227v-74l-404 -227v75z" />
    <glyph glyph-name="question" unicode="?" horiz-adv-x="502" 
d="M117 509v-9h-75v8c0 152 106 202 202 202s202 -50 202 -202c0 -59 -34 -118 -69 -150l-60 -55c-28 -26 -36 -42 -36 -71v-22h-75v22c0 55 18 82 58 119l60 55c20 19 47 58 47 103c0 86 -60 129 -127 129s-127 -43 -127 -129zM192 0v105h105v-105h-105z" />
    <glyph glyph-name="at" unicode="@" horiz-adv-x="888" 
d="M571 186v67c-113 -8 -177 -15 -212 -34c-38 -21 -45 -44 -45 -74c0 -47 36 -83 112 -83c81 0 145 43 145 124zM444 458c-59 0 -112 -33 -124 -100h-77c13 129 111 172 201 172c96 0 202 -50 202 -202v-217c0 -35 22 -57 54 -57s53 22 53 57v257c0 163 -144 278 -309 278
s-309 -115 -309 -278v-220c0 -163 144 -278 309 -278c70 0 137 20 191 57l35 -56c-62 -41 -140 -65 -226 -65c-210 0 -374 141 -374 342v220c0 201 164 342 374 342s374 -141 374 -342v-262c0 -78 -45 -116 -118 -116c-68 0 -107 25 -129 63c-33 -43 -91 -63 -161 -63
c-88 0 -171 47 -171 153c0 52 22 122 112 148c59 17 133 23 220 29v9c0 86 -60 129 -127 129z" />
    <glyph glyph-name="A" unicode="A" horiz-adv-x="566" 
d="M474 0l-64 197h-254l-64 -197h-78l225 700h88l225 -700h-78zM387 268l-104 325l-104 -325h208z" />
    <glyph glyph-name="B" unicode="B" horiz-adv-x="579" 
d="M80 0v700h233c149 0 202 -99 202 -192c0 -68 -32 -122 -77 -150c64 -32 94 -98 94 -162c0 -97 -52 -196 -202 -196h-250zM330 316h-173v-240h173c76 0 124 45 124 120s-48 120 -124 120zM437 508c0 67 -45 116 -124 116h-156v-232h156c79 0 124 49 124 116z" />
    <glyph glyph-name="C" unicode="C" horiz-adv-x="559" 
d="M285 710c128 0 217 -82 225 -217h-77c-8 93 -70 141 -148 141c-83 0 -149 -55 -149 -161v-246c0 -106 66 -161 149 -161c78 0 140 48 148 141h77c-8 -135 -97 -217 -225 -217c-134 0 -226 90 -226 237v246c0 147 92 237 226 237z" />
    <glyph glyph-name="D" unicode="D" horiz-adv-x="591" 
d="M80 700h226c134 0 226 -90 226 -237v-226c0 -147 -92 -237 -226 -237h-226v700zM306 624h-149v-548h149c83 0 149 55 149 161v226c0 106 -66 160 -149 161z" />
    <glyph glyph-name="E" unicode="E" horiz-adv-x="542" 
d="M157 316v-240h321v-76h-398v700h398v-76h-321v-232h321v-76h-321z" />
    <glyph glyph-name="F" unicode="F" horiz-adv-x="532" 
d="M157 316v-316h-77v700h398v-76h-321v-232h321v-76h-321z" />
    <glyph glyph-name="G" unicode="G" horiz-adv-x="566" 
d="M285 710c128 0 217 -82 225 -217h-77c-8 93 -70 141 -148 141c-83 0 -149 -55 -149 -161v-246c0 -106 66 -161 149 -161s149 55 149 161v69h-149v76h226v-145c0 -147 -92 -237 -226 -237s-226 90 -226 237v246c0 147 92 237 226 237z" />
    <glyph glyph-name="H" unicode="H" horiz-adv-x="612" 
d="M455 392v308h77v-700h-77v316h-298v-316h-77v700h77v-308h298z" />
    <glyph glyph-name="I" unicode="I" horiz-adv-x="237" 
d="M80 0v700h77v-700h-77z" />
    <glyph glyph-name="J" unicode="J" horiz-adv-x="473" 
d="M14 192v8h77v-8c0 -77 51 -126 117 -126s117 49 117 126v508h77v-508c0 -150 -100 -202 -194 -202s-194 52 -194 202z" />
    <glyph glyph-name="K" unicode="K" horiz-adv-x="610" 
d="M157 206v-206h-77v700h77v-380l323 380h98l-246 -288l272 -412h-91l-232 352z" />
    <glyph glyph-name="L" unicode="L" horiz-adv-x="493" 
d="M80 0v700h77v-624h321v-76h-398z" />
    <glyph glyph-name="M" unicode="M" horiz-adv-x="718" 
d="M359 276l202 424h77v-700h-76v538l-167 -350h-72l-167 350v-538h-76v700h77z" />
    <glyph glyph-name="N" unicode="N" horiz-adv-x="612" 
d="M532 700v-700h-77l-298 551v-551h-77v700h77l298 -551v551h77z" />
    <glyph glyph-name="O" unicode="O" horiz-adv-x="570" 
d="M434 227v246c0 106 -66 161 -149 161s-149 -55 -149 -161v-246c0 -106 66 -161 149 -161s149 55 149 161zM511 473v-246c0 -147 -92 -237 -226 -237s-226 90 -226 237v246c0 147 92 237 226 237s226 -90 226 -237z" />
    <glyph glyph-name="P" unicode="P" horiz-adv-x="561" 
d="M532 486c0 -124 -64 -214 -226 -214h-149v-272h-77v700h226c162 0 226 -90 226 -214zM453 486c0 76 -39 138 -147 138h-149v-276h149c108 0 147 62 147 138z" />
    <glyph glyph-name="Q" unicode="Q" horiz-adv-x="581" 
d="M511 473v-246c0 -57 -14 -105 -39 -143l78 -79l-51 -50l-75 77c-37 -28 -85 -42 -139 -42c-134 0 -226 90 -226 237v246c0 147 92 237 226 237s226 -90 226 -237zM368 89l-78 80l50 50l76 -77c11 23 18 51 18 85v246c0 106 -66 161 -149 161s-149 -55 -149 -161v-246
c0 -106 66 -161 149 -161c31 0 60 8 83 23z" />
    <glyph glyph-name="R" unicode="R" horiz-adv-x="572" 
d="M268 317h-111v-317h-77v700h238c149 0 202 -99 202 -192c0 -85 -44 -173 -164 -189l187 -319h-89zM442 508c0 67 -45 116 -124 116h-161v-233h161c79 0 124 50 124 117z" />
    <glyph glyph-name="S" unicode="S" horiz-adv-x="517" 
d="M263 -10c-127 0 -217 83 -227 217h79c12 -90 73 -141 148 -141c79 0 134 37 134 111c0 63 -34 101 -113 123l-89 25c-104 29 -147 114 -147 199c0 120 95 186 207 186c121 0 196 -68 211 -187h-79c-15 67 -57 111 -132 111c-84 0 -129 -49 -129 -110
c0 -64 32 -104 104 -124l82 -23c99 -28 163 -89 163 -200c0 -112 -72 -187 -212 -187z" />
    <glyph glyph-name="T" unicode="T" horiz-adv-x="479" 
d="M201 624h-187v76h451v-76h-187v-624h-77v624z" />
    <glyph glyph-name="U" unicode="U" horiz-adv-x="594" 
d="M71 227v473h77v-473c0 -106 66 -161 149 -161s149 55 149 161v473h77v-473c0 -147 -92 -237 -226 -237s-226 90 -226 237z" />
    <glyph glyph-name="V" unicode="V" horiz-adv-x="566" 
d="M283 107l191 593h78l-225 -700h-88l-225 700h78z" />
    <glyph glyph-name="W" unicode="W" horiz-adv-x="726" 
d="M496 0l-133 479l-133 -479h-74l-129 700h76l99 -546l124 446h74l124 -446l99 546h76l-129 -700h-74z" />
    <glyph glyph-name="X" unicode="X" horiz-adv-x="564" 
d="M282 417l164 283h85l-197 -338l212 -362h-88l-176 304l-176 -304h-88l212 362l-197 338h85z" />
    <glyph glyph-name="Y" unicode="Y" horiz-adv-x="545" 
d="M311 278v-278h-77v279l-231 421h84l186 -339l185 339h84z" />
    <glyph glyph-name="Z" unicode="Z" horiz-adv-x="537" 
d="M496 0h-457v76l362 548h-357v76h447v-76l-362 -548h367v-76z" />
    <glyph glyph-name="bracketleft" unicode="[" horiz-adv-x="274" 
d="M96 -114v814h139v-64h-74v-686h74v-64h-139z" />
    <glyph glyph-name="backslash" unicode="\" horiz-adv-x="345" 
d="M-5 700h72l283 -700h-72z" />
    <glyph glyph-name="bracketright" unicode="]" horiz-adv-x="274" 
d="M178 700v-814h-139v64h74v686h-74v64h139z" />
    <glyph glyph-name="asciicircum" unicode="^" horiz-adv-x="616" 
d="M343 700l208 -400h-75l-168 323l-168 -323h-75l208 400h70z" />
    <glyph glyph-name="underscore" unicode="_" horiz-adv-x="404" 
d="M404 -125h-404v65h404v-65z" />
    <glyph glyph-name="grave" unicode="`" horiz-adv-x="304" 
d="M53 700h108l77 -129h-67z" />
    <glyph glyph-name="a" unicode="a" horiz-adv-x="527" 
d="M257 458c-59 0 -112 -33 -124 -100h-77c13 129 111 172 201 172c96 0 202 -50 202 -202v-328h-75v53c-33 -43 -91 -63 -161 -63c-88 0 -171 47 -171 153c0 52 22 122 112 148c59 17 133 23 220 29v9c0 86 -60 129 -127 129zM384 186v67c-113 -8 -177 -15 -212 -34
c-38 -21 -45 -44 -45 -74c0 -47 36 -83 112 -83c81 0 145 43 145 124z" />
    <glyph glyph-name="b" unicode="b" horiz-adv-x="540" 
d="M277 -10c-47 0 -101 21 -127 63v-53h-75v700h75v-233c26 42 80 63 127 63c96 0 202 -50 202 -202v-136c0 -152 -106 -202 -202 -202zM404 191v138c0 86 -60 129 -127 129s-127 -43 -127 -129v-138c0 -86 60 -129 127 -129s127 43 127 129z" />
    <glyph glyph-name="c" unicode="c" horiz-adv-x="515" 
d="M263 530c91 0 190 -44 201 -177h-76c-10 70 -65 105 -125 105c-67 0 -127 -43 -127 -129v-138c0 -86 60 -129 127 -129c60 0 115 35 125 105h76c-11 -133 -110 -177 -201 -177c-96 0 -202 49 -202 202v136c0 152 106 202 202 202z" />
    <glyph glyph-name="d" unicode="d" horiz-adv-x="540" 
d="M263 -10c-96 0 -202 50 -202 202v136c0 152 106 202 202 202c47 0 101 -21 127 -63v233h75v-700h-75v53c-26 -42 -80 -63 -127 -63zM136 329v-138c0 -86 60 -129 127 -129s127 43 127 129v138c0 86 -60 129 -127 129s-127 -43 -127 -129z" />
    <glyph glyph-name="e" unicode="e" horiz-adv-x="521" 
d="M263 62c59 0 112 33 124 100h77c-13 -129 -111 -172 -201 -172c-96 0 -202 50 -202 202v136c0 152 106 202 202 202s202 -50 202 -202v-87h-329v-50c0 -86 60 -129 127 -129zM390 310v19c0 86 -60 129 -127 129s-127 -43 -127 -129v-19h254z" />
    <glyph glyph-name="f" unicode="f" horiz-adv-x="317" 
d="M303 628h-79c-36 0 -48 -12 -48 -45v-67h127v-72h-127v-444h-75v444h-73v72h73v61c0 88 27 123 123 123h79v-72z" />
    <glyph glyph-name="g" unicode="g" horiz-adv-x="539" 
d="M262 -122c67 0 127 43 127 129v66c-26 -42 -80 -63 -127 -63c-96 0 -202 50 -202 202v116c0 152 106 202 202 202c47 0 101 -21 127 -63v49h75v-508c0 -153 -106 -202 -202 -202c-91 0 -190 44 -201 177h76c10 -70 65 -105 125 -105zM135 329v-118
c0 -86 60 -129 127 -129s127 43 127 129v118c0 86 -60 129 -127 129s-127 -43 -127 -129z" />
    <glyph glyph-name="h" unicode="h" horiz-adv-x="547" 
d="M277 530c96 0 202 -50 202 -202v-328h-75v329c0 86 -60 129 -127 129s-127 -43 -127 -129v-329h-75v700h75v-233c26 42 80 63 127 63z" />
    <glyph glyph-name="i" unicode="i" horiz-adv-x="225" 
d="M150 700v-97h-75v97h75zM150 516v-516h-75v516h75z" />
    <glyph glyph-name="j" unicode="j" horiz-adv-x="225" 
d="M150 700v-97h-75v97h75zM75 -67v583h75v-577c0 -88 -27 -123 -123 -123h-16v72h16c36 0 48 12 48 45z" />
    <glyph glyph-name="k" unicode="k" horiz-adv-x="505" 
d="M150 700v-428l225 244h93l-186 -202l213 -314h-88l-176 259l-81 -88v-171h-75v700h75z" />
    <glyph glyph-name="l" unicode="l" horiz-adv-x="254" 
d="M148 700v-583c0 -33 12 -45 48 -45h16v-72h-16c-96 0 -123 35 -123 123v577h75z" />
    <glyph glyph-name="m" unicode="m" horiz-adv-x="846" 
d="M778 0h-75v335c0 77 -60 123 -119 123c-61 0 -120 -46 -120 -129v-329h-75v335c0 77 -60 123 -119 123c-61 0 -120 -46 -120 -129v-329h-75v516h75v-49c25 42 82 63 120 63c58 0 121 -24 156 -81c35 57 99 81 157 81c93 0 195 -56 195 -202v-328z" />
    <glyph glyph-name="n" unicode="n" horiz-adv-x="547" 
d="M277 530c96 0 202 -50 202 -202v-328h-75v329c0 86 -60 129 -127 129s-127 -43 -127 -129v-329h-75v516h75v-49c26 42 80 63 127 63z" />
    <glyph glyph-name="o" unicode="o" horiz-adv-x="526" 
d="M390 191v138c0 86 -60 129 -127 129s-127 -43 -127 -129v-138c0 -86 60 -129 127 -129s127 43 127 129zM465 328v-136c0 -152 -106 -202 -202 -202s-202 50 -202 202v136c0 152 106 202 202 202s202 -50 202 -202z" />
    <glyph glyph-name="p" unicode="p" horiz-adv-x="540" 
d="M277 -10c-47 0 -101 21 -127 63v-237h-75v700h75v-49c26 42 80 63 127 63c96 0 202 -50 202 -202v-136c0 -152 -106 -202 -202 -202zM404 191v138c0 86 -60 129 -127 129s-127 -43 -127 -129v-138c0 -86 60 -129 127 -129s127 43 127 129z" />
    <glyph glyph-name="q" unicode="q" horiz-adv-x="540" 
d="M263 -10c-96 0 -202 50 -202 202v136c0 152 106 202 202 202c47 0 101 -21 127 -63v49h75v-700h-75v237c-26 -42 -80 -63 -127 -63zM136 329v-138c0 -86 60 -129 127 -129s127 43 127 129v138c0 86 -60 129 -127 129s-127 -43 -127 -129z" />
    <glyph glyph-name="r" unicode="r" horiz-adv-x="327" 
d="M150 516v-54c26 42 80 63 127 63h33v-72h-33c-67 0 -127 -43 -127 -129v-324h-75v516h75z" />
    <glyph glyph-name="s" unicode="s" horiz-adv-x="471" 
d="M415 365h-77c-9 60 -49 93 -113 93c-56 0 -97 -28 -97 -75c0 -43 29 -62 71 -72l97 -24c78 -19 132 -58 132 -153c0 -102 -77 -144 -182 -144c-108 0 -199 50 -207 175h77c7 -73 61 -103 130 -103c72 0 105 29 106 74c0 33 -15 62 -72 76l-101 25
c-56 13 -127 51 -127 143c0 95 79 150 174 150c104 0 181 -50 189 -165z" />
    <glyph glyph-name="t" unicode="t" horiz-adv-x="341" 
d="M174 444v-327c0 -33 12 -45 48 -45h79v-72h-79c-96 0 -123 35 -123 123v321h-73v72h73v117h75v-117h127v-72h-127z" />
    <glyph glyph-name="u" unicode="u" horiz-adv-x="541" 
d="M267 -10c-85 0 -199 46 -199 199v327h75v-322c0 -92 63 -132 124 -132c63 0 124 44 124 129v325h75v-516h-75v53c-26 -41 -80 -63 -124 -63z" />
    <glyph glyph-name="v" unicode="v" horiz-adv-x="468" 
d="M462 516l-186 -516h-84l-186 516h80l148 -419l148 419h80z" />
    <glyph glyph-name="w" unicode="w" horiz-adv-x="684" 
d="M379 516l114 -402l100 402h78l-136 -516h-78l-115 405l-115 -405h-78l-136 516h78l100 -402l114 402h74z" />
    <glyph glyph-name="x" unicode="x" horiz-adv-x="474" 
d="M374 0l-137 209l-137 -209h-85l175 265l-167 251h87l127 -191l127 191h87l-167 -251l175 -265h-85z" />
    <glyph glyph-name="y" unicode="y" horiz-adv-x="468" 
d="M462 516l-234 -647c-14 -40 -49 -52 -114 -53h-29v72h38c32 0 39 12 45 30l27 74l-189 524h80l148 -419l148 419h80z" />
    <glyph glyph-name="z" unicode="z" horiz-adv-x="466" 
d="M421 444l-291 -372h298v-72h-389v72l291 372h-284v72h375v-72z" />
    <glyph glyph-name="braceleft" unicode="{" horiz-adv-x="306" 
d="M128 9v201c0 35 -11 51 -52 51h-22v64h22c41 0 52 16 52 51v201c0 88 27 123 123 123h16v-64h-22c-41 0 -52 -16 -52 -51v-201c0 -42 -4 -73 -33 -91c29 -18 33 -50 33 -91v-201c0 -35 11 -51 52 -51h22v-64h-16c-96 0 -123 35 -123 123z" />
    <glyph glyph-name="bar" unicode="|" horiz-adv-x="225" 
d="M80 -100v800h65v-800h-65z" />
    <glyph glyph-name="braceright" unicode="}" horiz-adv-x="306" 
d="M178 210v-201c0 -88 -27 -123 -123 -123h-16v64h22c41 0 52 16 52 51v201c0 41 4 73 33 91c-29 18 -33 49 -33 91v201c0 35 -11 51 -52 51h-22v64h16c96 0 123 -35 123 -123v-201c0 -35 11 -51 52 -51h22v-64h-22c-41 0 -52 -16 -52 -51z" />
    <glyph glyph-name="asciitilde" unicode="~" horiz-adv-x="524" 
d="M102 225l-42 46c44 49 94 65 132 65c69 0 97 -46 146 -46c26 0 48 13 84 46l42 -46c-44 -49 -94 -65 -132 -65c-69 0 -97 46 -146 46c-26 0 -48 -13 -84 -46z" />
    <glyph glyph-name="uni00A0" unicode="&#xa0;" horiz-adv-x="225" 
 />
    <glyph glyph-name="exclamdown" unicode="&#xa1;" horiz-adv-x="245" 
d="M160 306v-490h-75v490h75zM70 411v105h105v-105h-105z" />
    <glyph glyph-name="cent" unicode="&#xa2;" horiz-adv-x="525" 
d="M246 -100v720h43v-720h-43zM268 530c91 0 190 -44 201 -177h-76c-10 70 -65 105 -125 105c-67 0 -127 -43 -127 -129v-138c0 -86 60 -129 127 -129c60 0 115 35 125 105h76c-11 -133 -110 -177 -201 -177c-96 0 -202 49 -202 202v136c0 152 106 202 202 202z" />
    <glyph glyph-name="sterling" unicode="&#xa3;" horiz-adv-x="588" 
d="M65 377h64v131c0 152 106 202 202 202s202 -50 202 -202h-75v1c0 86 -60 129 -127 129s-127 -43 -127 -129v-132h254v-53h-254v-201c0 -27 -2 -40 -11 -51h340v-72h-468v72h16c36 0 48 11 48 44v208h-64v53z" />
    <glyph glyph-name="currency" unicode="&#xa4;" horiz-adv-x="717" 
d="M65 84l85 85c-38 46 -61 106 -61 171s23 124 61 171l-85 85l38 38l85 -86c46 39 106 62 171 62c64 0 124 -23 170 -61l85 85l38 -38l-85 -85c38 -46 62 -106 62 -171s-24 -125 -62 -172l85 -84l-38 -38l-85 85c-46 -38 -106 -61 -170 -61c-65 0 -125 23 -171 61l-85 -85z
M161 340c0 -109 89 -198 198 -198s198 89 198 198s-89 198 -198 198s-198 -89 -198 -198z" />
    <glyph glyph-name="yen" unicode="&#xa5;" horiz-adv-x="587" 
d="M360 332h135v-53h-164v-86h164v-53h-164v-140h-75v140h-164v53h164v86h-164v53h135l-203 368h83l187 -341l186 341h83z" />
    <glyph glyph-name="brokenbar" unicode="&#xa6;" horiz-adv-x="225" 
d="M145 700v-339h-65v339h65zM80 -100v339h65v-339h-65z" />
    <glyph glyph-name="section" unicode="&#xa7;" horiz-adv-x="548" 
d="M87 -20h66c4 -69 53 -112 121 -112c67 0 114 39 115 101c0 52 -34 88 -71 100l-107 36c-67 23 -149 57 -149 168c0 75 34 121 90 144c-33 27 -59 70 -59 132c0 100 82 161 181 161c100 0 172 -50 186 -164h-66c-9 69 -56 102 -120 102c-67 0 -114 -39 -115 -101
c0 -52 34 -88 71 -100l107 -36c67 -23 149 -57 149 -168c0 -75 -35 -121 -91 -144c33 -28 60 -71 60 -132c0 -100 -82 -161 -181 -161c-109 0 -177 63 -187 174zM321 348l-81 27c-59 -3 -111 -31 -112 -100c0 -57 39 -87 99 -107l81 -27c59 2 111 31 112 100
c0 57 -39 87 -99 107z" />
    <glyph glyph-name="dieresis" unicode="&#xa8;" horiz-adv-x="408" 
d="M142 684v-97h-75v97h75zM341 684v-97h-75v97h75z" />
    <glyph glyph-name="copyright" unicode="&#xa9;" horiz-adv-x="810" 
d="M45 350c0 199 161 360 360 360s360 -161 360 -360s-161 -360 -360 -360s-360 161 -360 360zM110 350c0 -164 131 -296 295 -296s295 132 295 296s-131 296 -295 296s-295 -132 -295 -296zM405 135c-92 0 -153 58 -153 149v132c0 90 61 149 153 149c87 0 148 -53 153 -137
h-68c-6 49 -48 69 -85 69c-40 0 -85 -24 -85 -81v-132c0 -58 45 -82 85 -82c37 0 79 21 85 70h68c-6 -84 -66 -137 -153 -137z" />
    <glyph glyph-name="ordfeminine" unicode="&#xaa;" horiz-adv-x="323" 
d="M132 395c-56 0 -103 27 -103 89c0 35 15 75 65 91c36 11 75 14 125 17c-3 36 -26 54 -60 54c-30 0 -50 -13 -59 -39h-66c11 81 77 101 125 101c51 0 126 -24 126 -125v-182h-65v28c-19 -23 -49 -34 -88 -34zM142 458c32 0 78 7 78 65v12c-51 -3 -92 -7 -114 -21
c-4 -2 -12 -9 -12 -24c0 -24 18 -32 48 -32z" />
    <glyph glyph-name="guillemotleft" unicode="&#xab;" horiz-adv-x="468" 
d="M224 89l-167 147v74l167 147v-87l-110 -97l110 -97v-87zM403 89l-167 147v74l167 147v-87l-110 -97l110 -97v-87z" />
    <glyph glyph-name="logicalnot" unicode="&#xac;" 
d="M416 78v170h-339v65h404v-235h-65z" />
    <glyph glyph-name="uni00AD" unicode="&#xad;" horiz-adv-x="400" 
d="M345 248h-290v65h290v-65z" />
    <glyph glyph-name="registered" unicode="&#xae;" horiz-adv-x="810" 
d="M45 350c0 199 161 360 360 360s360 -161 360 -360s-161 -360 -360 -360s-360 161 -360 360zM110 350c0 -164 131 -296 295 -296s295 132 295 296s-131 296 -295 296s-295 -132 -295 -296zM579 141h-76l-104 177h-65v-177h-68v418h170c81 0 130 -45 130 -121
c0 -64 -34 -105 -93 -117zM334 491v-107h102c36 0 60 18 60 53c0 36 -24 54 -60 54h-102z" />
    <glyph glyph-name="macron" unicode="&#xaf;" horiz-adv-x="426" 
d="M64 603v65h298v-65h-298z" />
    <glyph glyph-name="degree" unicode="&#xb0;" horiz-adv-x="414" 
d="M51 549c0 86 70 156 156 156s156 -70 156 -156s-70 -156 -156 -156s-156 70 -156 156zM110 549c0 -54 43 -98 97 -98s97 44 97 98s-43 98 -97 98s-97 -44 -97 -98z" />
    <glyph glyph-name="plusminus" unicode="&#xb1;" 
d="M481 307h-167v-144h-65v144h-172v65h172v144h65v-144h167v-65zM481 0h-404v65h404v-65z" />
    <glyph glyph-name="twosuperior" unicode="&#xb2;" horiz-adv-x="309" 
d="M27 401v63l148 152c29 30 39 46 39 69c0 45 -24 65 -61 65s-61 -20 -61 -64v-4h-65v5c0 101 75 126 126 126s126 -25 126 -126c0 -43 -14 -70 -55 -112l-108 -111h163v-63h-252z" />
    <glyph glyph-name="threesuperior" unicode="&#xb3;" horiz-adv-x="312" 
d="M157 395c-54 0 -130 24 -131 122h65c1 -40 28 -59 64 -59c35 0 59 18 59 56s-27 60 -62 60h-35v59h35c40 0 62 23 62 56c0 35 -24 61 -62 61c-36 0 -60 -19 -61 -59h-65c2 96 76 122 126 122c51 0 127 -31 127 -124c0 -37 -19 -70 -48 -85c30 -16 48 -54 48 -90
c0 -88 -64 -119 -122 -119z" />
    <glyph glyph-name="acute" unicode="&#xb4;" horiz-adv-x="304" 
d="M143 700h108l-118 -129h-67z" />
    <glyph glyph-name="mu" unicode="&#xb5;" horiz-adv-x="548" 
d="M274 -10c-44 0 -98 22 -124 63v-237h-75v700h75v-325c0 -85 61 -129 124 -129s124 44 124 129v325h75v-516h-75v53c-26 -41 -80 -63 -124 -63z" />
    <glyph glyph-name="mu" unicode="&#x3bc;" horiz-adv-x="548" 
d="M274 -10c-44 0 -98 22 -124 63v-237h-75v700h75v-325c0 -85 61 -129 124 -129s124 44 124 129v325h75v-516h-75v53c-26 -41 -80 -63 -124 -63z" />
    <glyph glyph-name="paragraph" unicode="&#xb6;" horiz-adv-x="566" 
d="M481 700v-787h-64v723h-110v-723h-65v387h-10c-110 0 -199 90 -199 200c0 109 89 200 199 200h249z" />
    <glyph glyph-name="periodcentered" unicode="&#xb7;" horiz-adv-x="285" 
d="M90 238v105h105v-105h-105z" />
    <glyph glyph-name="cedilla" unicode="&#xb8;" horiz-adv-x="268" 
d="M55 -158l71 158h65l-38 -158h-98z" />
    <glyph glyph-name="onesuperior" unicode="&#xb9;" horiz-adv-x="217" 
d="M104 401v322l-78 -67v84l78 67h65v-406h-65z" />
    <glyph glyph-name="ordmasculine" unicode="&#xba;" horiz-adv-x="321" 
d="M161 458c37 0 61 20 61 65v58c0 44 -24 65 -61 65c-38 0 -62 -21 -62 -65v-58c0 -45 24 -65 62 -65zM161 395c-52 0 -127 25 -127 126v62c0 101 75 125 127 125c51 0 126 -24 126 -125v-62c0 -101 -75 -126 -126 -126z" />
    <glyph glyph-name="guillemotright" unicode="&#xbb;" horiz-adv-x="468" 
d="M411 236l-167 -147v87l110 97l-110 97v87l167 -147v-74zM232 236l-167 -147v87l110 97l-110 97v87l167 -147v-74z" />
    <glyph glyph-name="onequarter" unicode="&#xbc;" horiz-adv-x="718" 
d="M144 294v322l-78 -67v84l78 67h65v-406h-65zM553 700h71l-481 -700h-71zM575 0v98h-179v63l179 245h65v-245h43v-63h-43v-98h-65zM475 161h100v138z" />
    <glyph glyph-name="onehalf" unicode="&#xbd;" horiz-adv-x="754" 
d="M144 294v322l-78 -67v84l78 67h65v-406h-65zM553 700h71l-481 -700h-71zM446 0v63l148 152c29 30 39 46 39 69c0 45 -24 65 -61 65s-61 -20 -61 -64v-4h-65v5c0 101 75 126 126 126s126 -25 126 -126c0 -43 -14 -70 -55 -112l-108 -111h163v-63h-252z" />
    <glyph glyph-name="threequarters" unicode="&#xbe;" horiz-adv-x="773" 
d="M177 288c-54 0 -130 24 -131 122h65c1 -40 28 -59 64 -59c35 0 59 18 59 56s-27 60 -62 60h-35v59h35c40 0 62 23 62 56c0 35 -24 61 -62 61c-36 0 -60 -19 -61 -59h-65c2 96 76 122 126 122c51 0 127 -31 127 -124c0 -37 -19 -70 -48 -85c30 -16 48 -54 48 -90
c0 -88 -64 -119 -122 -119zM608 700h71l-481 -700h-71zM630 0v98h-179v63l179 245h65v-245h43v-63h-43v-98h-65zM530 161h100v138z" />
    <glyph glyph-name="questiondown" unicode="&#xbf;" horiz-adv-x="484" 
d="M377 7v9h75v-8c0 -152 -106 -202 -202 -202s-202 50 -202 202c0 59 34 118 69 150l60 55c28 26 36 42 36 71v22h75v-22c0 -55 -18 -82 -58 -119l-60 -55c-20 -19 -47 -58 -47 -103c0 -86 60 -129 127 -129s127 43 127 129zM198 411v105h105v-105h-105z" />
    <glyph glyph-name="Agrave" unicode="&#xc0;" horiz-adv-x="566" 
d="M474 0l-64 197h-254l-64 -197h-78l225 700h88l225 -700h-78zM387 268l-104 325l-104 -325h208zM148 854h110l92 -109h-74z" />
    <glyph glyph-name="Aacute" unicode="&#xc1;" horiz-adv-x="566" 
d="M474 0l-64 197h-254l-64 -197h-78l225 700h88l225 -700h-78zM387 268l-104 325l-104 -325h208zM308 854h110l-128 -109h-74z" />
    <glyph glyph-name="Acircumflex" unicode="&#xc2;" horiz-adv-x="566" 
d="M474 0l-64 197h-254l-64 -197h-78l225 700h88l225 -700h-78zM387 268l-104 325l-104 -325h208zM342 745l-59 51l-59 -51h-99l125 109h66l125 -109h-99z" />
    <glyph glyph-name="Atilde" unicode="&#xc3;" horiz-adv-x="566" 
d="M474 0l-64 197h-254l-64 -197h-78l225 700h88l225 -700h-78zM387 268l-104 325l-104 -325h208zM227 852c21 0 39 -5 55 -14l30 -16c10 -5 18 -8 26 -8c17 0 32 12 39 36h65c-12 -59 -53 -102 -103 -102c-21 0 -39 5 -55 14l-30 16c-10 5 -18 8 -26 8
c-17 0 -32 -12 -39 -36h-65c12 59 53 102 103 102z" />
    <glyph glyph-name="Adieresis" unicode="&#xc4;" horiz-adv-x="566" 
d="M474 0l-64 197h-254l-64 -197h-78l225 700h88l225 -700h-78zM387 268l-104 325l-104 -325h208zM420 848v-97h-77v97h77zM223 848v-97h-77v97h77z" />
    <glyph glyph-name="Aring" unicode="&#xc5;" horiz-adv-x="566" 
d="M474 0l-64 197h-254l-64 -197h-78l225 700h88l225 -700h-78zM387 268l-104 325l-104 -325h208zM209 799c0 41 33 75 74 75s75 -34 75 -75s-34 -74 -75 -74s-74 33 -74 74zM257 799c0 -14 12 -26 26 -26s26 12 26 26s-12 26 -26 26s-26 -12 -26 -26z" />
    <glyph glyph-name="AE" unicode="&#xc6;" horiz-adv-x="839" 
d="M212 268h165v359zM775 0h-398v197h-198l-90 -197h-82l322 700h446v-76h-321v-232h321v-76h-321v-240h321v-76z" />
    <glyph glyph-name="Ccedilla" unicode="&#xc7;" horiz-adv-x="559" 
d="M193 -158l62 150c-118 12 -196 99 -196 235v246c0 147 92 237 226 237c128 0 217 -82 225 -217h-77c-8 93 -70 141 -148 141c-83 0 -149 -55 -149 -161v-246c0 -106 66 -161 149 -161c78 0 140 48 148 141h77c-7 -119 -77 -197 -181 -213l-36 -152h-100z" />
    <glyph glyph-name="Egrave" unicode="&#xc8;" horiz-adv-x="542" 
d="M157 316v-240h321v-76h-398v700h398v-76h-321v-232h321v-76h-321zM144 854h110l92 -109h-74z" />
    <glyph glyph-name="Eacute" unicode="&#xc9;" horiz-adv-x="542" 
d="M157 316v-240h321v-76h-398v700h398v-76h-321v-232h321v-76h-321zM304 854h110l-128 -109h-74z" />
    <glyph glyph-name="Ecircumflex" unicode="&#xca;" horiz-adv-x="542" 
d="M157 316v-240h321v-76h-398v700h398v-76h-321v-232h321v-76h-321zM338 745l-59 51l-59 -51h-99l125 109h66l125 -109h-99z" />
    <glyph glyph-name="Edieresis" unicode="&#xcb;" horiz-adv-x="542" 
d="M157 316v-240h321v-76h-398v700h398v-76h-321v-232h321v-76h-321zM416 848v-97h-77v97h77zM219 848v-97h-77v97h77z" />
    <glyph glyph-name="Igrave" unicode="&#xcc;" horiz-adv-x="237" 
d="M80 0v700h77v-700h-77zM-17 854h110l92 -109h-74z" />
    <glyph glyph-name="Iacute" unicode="&#xcd;" horiz-adv-x="237" 
d="M80 0v700h77v-700h-77zM143 854h110l-128 -109h-74z" />
    <glyph glyph-name="Icircumflex" unicode="&#xce;" horiz-adv-x="237" 
d="M80 0v700h77v-700h-77zM177 745l-59 51l-59 -51h-99l125 109h66l125 -109h-99z" />
    <glyph glyph-name="Idieresis" unicode="&#xcf;" horiz-adv-x="237" 
d="M80 0v700h77v-700h-77zM255 848v-97h-77v97h77zM58 848v-97h-77v97h77z" />
    <glyph glyph-name="Eth" unicode="&#xd0;" horiz-adv-x="602" 
d="M91 700h226c134 0 226 -90 226 -237v-226c0 -147 -92 -237 -226 -237h-226v323h-70v55h70v322zM317 624h-149v-246h149v-55h-149v-247h149c83 0 149 55 149 161v226c0 106 -66 160 -149 161z" />
    <glyph glyph-name="Ntilde" unicode="&#xd1;" horiz-adv-x="612" 
d="M532 700v-700h-77l-298 551v-551h-77v700h77l298 -551v551h77zM250 852c21 0 39 -5 55 -14l30 -16c10 -5 18 -8 26 -8c17 0 32 12 39 36h65c-12 -59 -53 -102 -103 -102c-21 0 -39 5 -55 14l-30 16c-10 5 -18 8 -26 8c-17 0 -32 -12 -39 -36h-65c12 59 53 102 103 102z
" />
    <glyph glyph-name="Ograve" unicode="&#xd2;" horiz-adv-x="570" 
d="M434 227v246c0 106 -66 161 -149 161s-149 -55 -149 -161v-246c0 -106 66 -161 149 -161s149 55 149 161zM511 473v-246c0 -147 -92 -237 -226 -237s-226 90 -226 237v246c0 147 92 237 226 237s226 -90 226 -237zM150 854h110l92 -109h-74z" />
    <glyph glyph-name="Oacute" unicode="&#xd3;" horiz-adv-x="570" 
d="M434 227v246c0 106 -66 161 -149 161s-149 -55 -149 -161v-246c0 -106 66 -161 149 -161s149 55 149 161zM511 473v-246c0 -147 -92 -237 -226 -237s-226 90 -226 237v246c0 147 92 237 226 237s226 -90 226 -237zM310 854h110l-128 -109h-74z" />
    <glyph glyph-name="Ocircumflex" unicode="&#xd4;" horiz-adv-x="570" 
d="M434 227v246c0 106 -66 161 -149 161s-149 -55 -149 -161v-246c0 -106 66 -161 149 -161s149 55 149 161zM511 473v-246c0 -147 -92 -237 -226 -237s-226 90 -226 237v246c0 147 92 237 226 237s226 -90 226 -237zM344 745l-59 51l-59 -51h-99l125 109h66l125 -109h-99z
" />
    <glyph glyph-name="Otilde" unicode="&#xd5;" horiz-adv-x="570" 
d="M434 227v246c0 106 -66 161 -149 161s-149 -55 -149 -161v-246c0 -106 66 -161 149 -161s149 55 149 161zM511 473v-246c0 -147 -92 -237 -226 -237s-226 90 -226 237v246c0 147 92 237 226 237s226 -90 226 -237zM229 852c21 0 39 -5 55 -14l30 -16c10 -5 18 -8 26 -8
c17 0 32 12 39 36h65c-12 -59 -53 -102 -103 -102c-21 0 -39 5 -55 14l-30 16c-10 5 -18 8 -26 8c-17 0 -32 -12 -39 -36h-65c12 59 53 102 103 102z" />
    <glyph glyph-name="Odieresis" unicode="&#xd6;" horiz-adv-x="570" 
d="M434 227v246c0 106 -66 161 -149 161s-149 -55 -149 -161v-246c0 -106 66 -161 149 -161s149 55 149 161zM511 473v-246c0 -147 -92 -237 -226 -237s-226 90 -226 237v246c0 147 92 237 226 237s226 -90 226 -237zM422 848v-97h-77v97h77zM225 848v-97h-77v97h77z" />
    <glyph glyph-name="multiply" unicode="&#xd7;" 
d="M71 118l162 162l-163 164l46 46l163 -164l164 164l46 -46l-164 -164l163 -162l-46 -46l-163 162l-162 -162z" />
    <glyph glyph-name="Oslash" unicode="&#xd8;" horiz-adv-x="576" 
d="M514 473v-246c0 -147 -92 -237 -226 -237c-57 0 -107 16 -145 46l-33 -59l-48 27l42 74c-27 39 -42 89 -42 149v246c0 147 92 237 226 237c57 0 107 -16 145 -47l34 61l47 -28l-42 -75c27 -38 42 -89 42 -148zM139 227c0 -26 3 -48 10 -68l244 434c-27 27 -64 41 -105 41
c-83 0 -149 -55 -149 -161v-246zM437 227v246c0 25 -4 47 -11 67l-243 -434c27 -26 64 -40 105 -40c83 0 149 55 149 161z" />
    <glyph glyph-name="Ugrave" unicode="&#xd9;" horiz-adv-x="594" 
d="M71 227v473h77v-473c0 -106 66 -161 149 -161s149 55 149 161v473h77v-473c0 -147 -92 -237 -226 -237s-226 90 -226 237zM162 854h110l92 -109h-74z" />
    <glyph glyph-name="Uacute" unicode="&#xda;" horiz-adv-x="594" 
d="M71 227v473h77v-473c0 -106 66 -161 149 -161s149 55 149 161v473h77v-473c0 -147 -92 -237 -226 -237s-226 90 -226 237zM322 854h110l-128 -109h-74z" />
    <glyph glyph-name="Ucircumflex" unicode="&#xdb;" horiz-adv-x="594" 
d="M71 227v473h77v-473c0 -106 66 -161 149 -161s149 55 149 161v473h77v-473c0 -147 -92 -237 -226 -237s-226 90 -226 237zM356 745l-59 51l-59 -51h-99l125 109h66l125 -109h-99z" />
    <glyph glyph-name="Udieresis" unicode="&#xdc;" horiz-adv-x="594" 
d="M71 227v473h77v-473c0 -106 66 -161 149 -161s149 55 149 161v473h77v-473c0 -147 -92 -237 -226 -237s-226 90 -226 237zM433 848v-97h-77v97h77zM236 848v-97h-77v97h77z" />
    <glyph glyph-name="Yacute" unicode="&#xdd;" horiz-adv-x="545" 
d="M311 278v-278h-77v279l-231 421h84l186 -339l185 339h84zM298 854h110l-128 -109h-74z" />
    <glyph glyph-name="Thorn" unicode="&#xde;" horiz-adv-x="551" 
d="M532 350c0 -124 -64 -214 -226 -214h-149v-136h-77v700h77v-136h149c162 0 226 -90 226 -214zM453 350c0 76 -39 138 -147 138h-149v-276h149c108 0 147 62 147 138z" />
    <glyph glyph-name="germandbls" unicode="&#xdf;" horiz-adv-x="527" 
d="M231 -5v75c14 -5 31 -8 51 -8c92 0 122 61 122 140c0 69 -39 139 -141 139h-4h-7h-21v72h21c67 0 102 36 102 112s-35 113 -102 113s-102 -37 -102 -113v-525h-75v525c0 141 81 185 177 185s177 -44 177 -185c0 -67 -18 -112 -48 -140c61 -33 98 -96 98 -183
c0 -140 -81 -212 -197 -212c-18 0 -35 2 -51 5z" />
    <glyph glyph-name="agrave" unicode="&#xe0;" horiz-adv-x="527" 
d="M257 458c-59 0 -112 -33 -124 -100h-77c13 129 111 172 201 172c96 0 202 -50 202 -202v-328h-75v53c-33 -43 -91 -63 -161 -63c-88 0 -171 47 -171 153c0 52 22 122 112 148c59 17 133 23 220 29v9c0 86 -60 129 -127 129zM384 186v67c-113 -8 -177 -15 -212 -34
c-38 -21 -45 -44 -45 -74c0 -47 36 -83 112 -83c81 0 145 43 145 124zM128 700h108l77 -129h-67z" />
    <glyph glyph-name="aacute" unicode="&#xe1;" horiz-adv-x="527" 
d="M257 458c-59 0 -112 -33 -124 -100h-77c13 129 111 172 201 172c96 0 202 -50 202 -202v-328h-75v53c-33 -43 -91 -63 -161 -63c-88 0 -171 47 -171 153c0 52 22 122 112 148c59 17 133 23 220 29v9c0 86 -60 129 -127 129zM384 186v67c-113 -8 -177 -15 -212 -34
c-38 -21 -45 -44 -45 -74c0 -47 36 -83 112 -83c81 0 145 43 145 124zM270 700h108l-118 -129h-67z" />
    <glyph glyph-name="acircumflex" unicode="&#xe2;" horiz-adv-x="527" 
d="M257 458c-59 0 -112 -33 -124 -100h-77c13 129 111 172 201 172c96 0 202 -50 202 -202v-328h-75v53c-33 -43 -91 -63 -161 -63c-88 0 -171 47 -171 153c0 52 22 122 112 148c59 17 133 23 220 29v9c0 86 -60 129 -127 129zM384 186v67c-113 -8 -177 -15 -212 -34
c-38 -21 -45 -44 -45 -74c0 -47 36 -83 112 -83c81 0 145 43 145 124zM293 700l125 -129h-89l-69 71l-69 -71h-89l125 129h66z" />
    <glyph glyph-name="atilde" unicode="&#xe3;" horiz-adv-x="527" 
d="M257 458c-59 0 -112 -33 -124 -100h-77c13 129 111 172 201 172c96 0 202 -50 202 -202v-328h-75v53c-33 -43 -91 -63 -161 -63c-88 0 -171 47 -171 153c0 52 22 122 112 148c59 17 133 23 220 29v9c0 86 -60 129 -127 129zM384 186v67c-113 -8 -177 -15 -212 -34
c-38 -21 -45 -44 -45 -74c0 -47 36 -83 112 -83c81 0 145 43 145 124zM159 586h-58c12 59 53 102 103 102c21 0 39 -5 55 -14l30 -17c8 -5 19 -9 31 -9c17 0 36 16 41 38h58c-12 -59 -53 -102 -103 -102c-21 0 -39 5 -55 14l-30 17c-8 5 -19 9 -31 9c-17 0 -36 -16 -41 -38z
" />
    <glyph glyph-name="adieresis" unicode="&#xe4;" horiz-adv-x="527" 
d="M257 458c-59 0 -112 -33 -124 -100h-77c13 129 111 172 201 172c96 0 202 -50 202 -202v-328h-75v53c-33 -43 -91 -63 -161 -63c-88 0 -171 47 -171 153c0 52 22 122 112 148c59 17 133 23 220 29v9c0 86 -60 129 -127 129zM384 186v67c-113 -8 -177 -15 -212 -34
c-38 -21 -45 -44 -45 -74c0 -47 36 -83 112 -83c81 0 145 43 145 124zM198 684v-97h-75v97h75zM397 684v-97h-75v97h75z" />
    <glyph glyph-name="aring" unicode="&#xe5;" horiz-adv-x="527" 
d="M257 458c-59 0 -112 -33 -124 -100h-77c13 129 111 172 201 172c96 0 202 -50 202 -202v-328h-75v53c-33 -43 -91 -63 -161 -63c-88 0 -171 47 -171 153c0 52 22 122 112 148c59 17 133 23 220 29v9c0 86 -60 129 -127 129zM384 186v67c-113 -8 -177 -15 -212 -34
c-38 -21 -45 -44 -45 -74c0 -47 36 -83 112 -83c81 0 145 43 145 124zM234 635c0 -15 13 -28 28 -28s28 13 28 28s-13 28 -28 28s-28 -13 -28 -28zM188 635c0 41 33 75 74 75s75 -34 75 -75s-34 -74 -75 -74s-74 33 -74 74z" />
    <glyph glyph-name="ae" unicode="&#xe6;" horiz-adv-x="844" 
d="M586 62c59 0 112 33 124 100h77c-13 -129 -111 -172 -201 -172c-69 0 -144 26 -180 97c-37 -73 -104 -97 -183 -97c-88 0 -171 47 -171 153c0 52 22 122 112 148c59 17 133 23 220 29v15c-3 82 -62 123 -127 123c-59 0 -112 -33 -124 -100h-77c13 129 111 172 201 172
c60 0 123 -19 164 -83c38 61 104 83 165 83c96 0 202 -50 202 -202v-87h-329v-50c0 -86 60 -129 127 -129zM384 186v67c-113 -8 -177 -15 -212 -34c-38 -21 -45 -44 -45 -74c0 -47 36 -83 112 -83c81 0 145 43 145 124zM713 310v19c0 86 -60 129 -127 129
s-127 -43 -127 -129v-19h254z" />
    <glyph glyph-name="ccedilla" unicode="&#xe7;" horiz-adv-x="515" 
d="M171 -158l67 149c-89 8 -177 61 -177 201v136c0 152 106 202 202 202c91 0 190 -44 201 -177h-76c-10 70 -65 105 -125 105c-67 0 -127 -43 -127 -129v-138c0 -86 60 -129 127 -129c60 0 115 35 125 105h76c-10 -113 -82 -162 -159 -174l-36 -151h-98z" />
    <glyph glyph-name="egrave" unicode="&#xe8;" horiz-adv-x="521" 
d="M263 62c59 0 112 33 124 100h77c-13 -129 -111 -172 -201 -172c-96 0 -202 50 -202 202v136c0 152 106 202 202 202s202 -50 202 -202v-87h-329v-50c0 -86 60 -129 127 -129zM390 310v19c0 86 -60 129 -127 129s-127 -43 -127 -129v-19h254zM140 700h108l77 -129h-67z
" />
    <glyph glyph-name="eacute" unicode="&#xe9;" horiz-adv-x="521" 
d="M263 62c59 0 112 33 124 100h77c-13 -129 -111 -172 -201 -172c-96 0 -202 50 -202 202v136c0 152 106 202 202 202s202 -50 202 -202v-87h-329v-50c0 -86 60 -129 127 -129zM390 310v19c0 86 -60 129 -127 129s-127 -43 -127 -129v-19h254zM278 700h108l-118 -129h-67z
" />
    <glyph glyph-name="ecircumflex" unicode="&#xea;" horiz-adv-x="521" 
d="M263 62c59 0 112 33 124 100h77c-13 -129 -111 -172 -201 -172c-96 0 -202 50 -202 202v136c0 152 106 202 202 202s202 -50 202 -202v-87h-329v-50c0 -86 60 -129 127 -129zM390 310v19c0 86 -60 129 -127 129s-127 -43 -127 -129v-19h254zM296 700l125 -129h-89l-69 71
l-69 -71h-89l125 129h66z" />
    <glyph glyph-name="edieresis" unicode="&#xeb;" horiz-adv-x="521" 
d="M263 62c59 0 112 33 124 100h77c-13 -129 -111 -172 -201 -172c-96 0 -202 50 -202 202v136c0 152 106 202 202 202s202 -50 202 -202v-87h-329v-50c0 -86 60 -129 127 -129zM390 310v19c0 86 -60 129 -127 129s-127 -43 -127 -129v-19h254zM201 684v-97h-75v97h75z
M400 684v-97h-75v97h75z" />
    <glyph glyph-name="igrave" unicode="&#xec;" horiz-adv-x="225" 
d="M150 516v-516h-75v516h75zM-11 700h108l77 -129h-67z" />
    <glyph glyph-name="iacute" unicode="&#xed;" horiz-adv-x="225" 
d="M150 516v-516h-75v516h75zM127 700h108l-118 -129h-67z" />
    <glyph glyph-name="icircumflex" unicode="&#xee;" horiz-adv-x="225" 
d="M150 516v-516h-75v516h75zM145 700l125 -129h-89l-69 71l-69 -71h-89l125 129h66z" />
    <glyph glyph-name="idieresis" unicode="&#xef;" horiz-adv-x="225" 
d="M150 516v-516h-75v516h75zM50 684v-97h-75v97h75zM249 684v-97h-75v97h75z" />
    <glyph glyph-name="eth" unicode="&#xf0;" horiz-adv-x="526" 
d="M250 700l44 -60h89v-53h-50l97 -133c22 -30 35 -72 35 -126v-136c0 -152 -106 -202 -202 -202s-202 50 -202 202v136c0 152 106 202 202 202c7 0 15 -1 22 -1l-42 58h-125v53h86l-43 60h89zM390 191v138c0 86 -60 129 -127 129s-127 -43 -127 -129v-138
c0 -86 60 -129 127 -129s127 43 127 129z" />
    <glyph glyph-name="ntilde" unicode="&#xf1;" horiz-adv-x="547" 
d="M277 530c96 0 202 -50 202 -202v-328h-75v329c0 86 -60 129 -127 129s-127 -43 -127 -129v-329h-75v516h75v-49c26 42 80 63 127 63zM176 586h-58c12 59 53 102 103 102c21 0 39 -5 55 -14l30 -17c8 -5 19 -9 31 -9c17 0 36 16 41 38h58c-12 -59 -53 -102 -103 -102
c-21 0 -39 5 -55 14l-30 17c-8 5 -19 9 -31 9c-17 0 -36 -16 -41 -38z" />
    <glyph glyph-name="ograve" unicode="&#xf2;" horiz-adv-x="526" 
d="M390 191v138c0 86 -60 129 -127 129s-127 -43 -127 -129v-138c0 -86 60 -129 127 -129s127 43 127 129zM465 328v-136c0 -152 -106 -202 -202 -202s-202 50 -202 202v136c0 152 106 202 202 202s202 -50 202 -202zM140 700h108l77 -129h-67z" />
    <glyph glyph-name="oacute" unicode="&#xf3;" horiz-adv-x="526" 
d="M390 191v138c0 86 -60 129 -127 129s-127 -43 -127 -129v-138c0 -86 60 -129 127 -129s127 43 127 129zM465 328v-136c0 -152 -106 -202 -202 -202s-202 50 -202 202v136c0 152 106 202 202 202s202 -50 202 -202zM278 700h108l-118 -129h-67z" />
    <glyph glyph-name="ocircumflex" unicode="&#xf4;" horiz-adv-x="526" 
d="M390 191v138c0 86 -60 129 -127 129s-127 -43 -127 -129v-138c0 -86 60 -129 127 -129s127 43 127 129zM465 328v-136c0 -152 -106 -202 -202 -202s-202 50 -202 202v136c0 152 106 202 202 202s202 -50 202 -202zM296 700l125 -129h-89l-69 71l-69 -71h-89l125 129h66z
" />
    <glyph glyph-name="otilde" unicode="&#xf5;" horiz-adv-x="526" 
d="M390 191v138c0 86 -60 129 -127 129s-127 -43 -127 -129v-138c0 -86 60 -129 127 -129s127 43 127 129zM465 328v-136c0 -152 -106 -202 -202 -202s-202 50 -202 202v136c0 152 106 202 202 202s202 -50 202 -202zM162 586h-58c12 59 53 102 103 102c21 0 39 -5 55 -14
l30 -17c8 -5 19 -9 31 -9c17 0 36 16 41 38h58c-12 -59 -53 -102 -103 -102c-21 0 -39 5 -55 14l-30 17c-8 5 -19 9 -31 9c-17 0 -36 -16 -41 -38z" />
    <glyph glyph-name="odieresis" unicode="&#xf6;" horiz-adv-x="526" 
d="M390 191v138c0 86 -60 129 -127 129s-127 -43 -127 -129v-138c0 -86 60 -129 127 -129s127 43 127 129zM465 328v-136c0 -152 -106 -202 -202 -202s-202 50 -202 202v136c0 152 106 202 202 202s202 -50 202 -202zM201 684v-97h-75v97h75zM400 684v-97h-75v97h75z" />
    <glyph glyph-name="divide" unicode="&#xf7;" 
d="M227 468c0 29 23 53 52 53s53 -24 53 -53s-24 -52 -53 -52s-52 23 -52 52zM227 92c0 29 23 53 52 53s53 -24 53 -53s-24 -52 -53 -52s-52 23 -52 52zM481 248h-404v65h404v-65z" />
    <glyph glyph-name="oslash" unicode="&#xf8;" horiz-adv-x="532" 
d="M468 328v-136c0 -152 -106 -202 -202 -202c-43 0 -89 10 -125 35l-33 -49l-44 29l38 57c-24 31 -38 73 -38 130v136c0 152 106 202 202 202c43 0 87 -10 124 -35l33 50l45 -30l-38 -57c23 -31 38 -74 38 -130zM393 191v138c0 22 -4 41 -11 57l-199 -297
c23 -18 52 -27 83 -27c67 0 127 43 127 129zM139 191c0 -22 4 -41 11 -57l198 298c-23 17 -52 26 -82 26c-67 0 -127 -43 -127 -129v-138z" />
    <glyph glyph-name="ugrave" unicode="&#xf9;" horiz-adv-x="541" 
d="M267 -10c-85 0 -199 46 -199 199v327h75v-322c0 -92 63 -132 124 -132c63 0 124 44 124 129v325h75v-516h-75v53c-26 -41 -80 -63 -124 -63zM144 700h108l77 -129h-67z" />
    <glyph glyph-name="uacute" unicode="&#xfa;" horiz-adv-x="541" 
d="M267 -10c-85 0 -199 46 -199 199v327h75v-322c0 -92 63 -132 124 -132c63 0 124 44 124 129v325h75v-516h-75v53c-26 -41 -80 -63 -124 -63zM282 700h108l-118 -129h-67z" />
    <glyph glyph-name="ucircumflex" unicode="&#xfb;" horiz-adv-x="541" 
d="M267 -10c-85 0 -199 46 -199 199v327h75v-322c0 -92 63 -132 124 -132c63 0 124 44 124 129v325h75v-516h-75v53c-26 -41 -80 -63 -124 -63zM300 700l125 -129h-89l-69 71l-69 -71h-89l125 129h66z" />
    <glyph glyph-name="udieresis" unicode="&#xfc;" horiz-adv-x="541" 
d="M267 -10c-85 0 -199 46 -199 199v327h75v-322c0 -92 63 -132 124 -132c63 0 124 44 124 129v325h75v-516h-75v53c-26 -41 -80 -63 -124 -63zM205 684v-97h-75v97h75zM404 684v-97h-75v97h75z" />
    <glyph glyph-name="yacute" unicode="&#xfd;" horiz-adv-x="468" 
d="M462 516l-234 -647c-14 -40 -49 -52 -114 -53h-29v72h38c32 0 39 12 45 30l27 74l-189 524h80l148 -419l148 419h80zM249 700h108l-118 -129h-67z" />
    <glyph glyph-name="thorn" unicode="&#xfe;" horiz-adv-x="540" 
d="M277 -10c-47 0 -101 21 -127 63v-237h-75v884h75v-233c26 42 80 63 127 63c96 0 202 -50 202 -202v-136c0 -152 -106 -202 -202 -202zM404 191v138c0 86 -60 129 -127 129s-127 -43 -127 -129v-138c0 -86 60 -129 127 -129s127 43 127 129z" />
    <glyph glyph-name="ydieresis" unicode="&#xff;" horiz-adv-x="468" 
d="M462 516l-234 -647c-14 -40 -49 -52 -114 -53h-29v72h38c32 0 39 12 45 30l27 74l-189 524h80l148 -419l148 419h80zM172 684v-97h-75v97h75zM371 684v-97h-75v97h75z" />
    <glyph glyph-name="Abreve" unicode="&#x102;" horiz-adv-x="566" 
d="M474 0l-64 197h-254l-64 -197h-78l225 700h88l225 -700h-78zM387 268l-104 325l-104 -325h208zM322 808c26 0 46 20 46 46h63c0 -60 -49 -109 -109 -109h-78c-60 0 -109 49 -109 109h63c0 -26 20 -46 46 -46h78z" />
    <glyph glyph-name="Amacron" unicode="&#x100;" horiz-adv-x="566" 
d="M474 0l-64 197h-254l-64 -197h-78l225 700h88l225 -700h-78zM387 268l-104 325l-104 -325h208zM134 766v67h298v-67h-298z" />
    <glyph glyph-name="Aogonek" unicode="&#x104;" horiz-adv-x="566" 
d="M552 0c-41 -30 -82 -61 -82 -97c0 -22 13 -29 30 -29c18 0 39 9 52 17v-62c-18 -12 -41 -18 -63 -18c-58 0 -96 28 -96 86c0 48 36 81 81 103l-64 197h-254l-64 -197h-78l225 700h88zM387 268l-104 325l-104 -325h208z" />
    <glyph glyph-name="Cacute" unicode="&#x106;" horiz-adv-x="559" 
d="M285 710c128 0 217 -82 225 -217h-77c-8 93 -70 141 -148 141c-83 0 -149 -55 -149 -161v-246c0 -106 66 -161 149 -161c78 0 140 48 148 141h77c-8 -135 -97 -217 -225 -217c-134 0 -226 90 -226 237v246c0 147 92 237 226 237zM309 854h110l-128 -109h-74z" />
    <glyph glyph-name="Ccaron" unicode="&#x10c;" horiz-adv-x="559" 
d="M285 710c128 0 217 -82 225 -217h-77c-8 93 -70 141 -148 141c-83 0 -149 -55 -149 -161v-246c0 -106 66 -161 149 -161c78 0 140 48 148 141h77c-8 -135 -97 -217 -225 -217c-134 0 -226 90 -226 237v246c0 147 92 237 226 237zM284 803l59 51h99l-125 -109h-66
l-125 109h99z" />
    <glyph glyph-name="Ccircumflex" unicode="&#x108;" horiz-adv-x="559" 
d="M285 710c128 0 217 -82 225 -217h-77c-8 93 -70 141 -148 141c-83 0 -149 -55 -149 -161v-246c0 -106 66 -161 149 -161c78 0 140 48 148 141h77c-8 -135 -97 -217 -225 -217c-134 0 -226 90 -226 237v246c0 147 92 237 226 237zM343 745l-59 51l-59 -51h-99l125 109h66
l125 -109h-99z" />
    <glyph glyph-name="Cdotaccent" unicode="&#x10a;" horiz-adv-x="559" 
d="M285 710c128 0 217 -82 225 -217h-77c-8 93 -70 141 -148 141c-83 0 -149 -55 -149 -161v-246c0 -106 66 -161 149 -161c78 0 140 48 148 141h77c-8 -135 -97 -217 -225 -217c-134 0 -226 90 -226 237v246c0 147 92 237 226 237zM323 848v-97h-77v97h77z" />
    <glyph glyph-name="Dcaron" unicode="&#x10e;" horiz-adv-x="591" 
d="M80 700h226c134 0 226 -90 226 -237v-226c0 -147 -92 -237 -226 -237h-226v700zM306 624h-149v-548h149c83 0 149 55 149 161v226c0 106 -66 160 -149 161zM286 803l59 51h99l-125 -109h-66l-125 109h99z" />
    <glyph glyph-name="Dcroat" unicode="&#x110;" horiz-adv-x="602" 
d="M91 700h226c134 0 226 -90 226 -237v-226c0 -147 -92 -237 -226 -237h-226v323h-70v55h70v322zM317 624h-149v-246h149v-55h-149v-247h149c83 0 149 55 149 161v226c0 106 -66 160 -149 161z" />
    <glyph glyph-name="Ebreve" unicode="&#x114;" horiz-adv-x="542" 
d="M157 316v-240h321v-76h-398v700h398v-76h-321v-232h321v-76h-321zM318 808c26 0 46 20 46 46h63c0 -60 -49 -109 -109 -109h-78c-60 0 -109 49 -109 109h63c0 -26 20 -46 46 -46h78z" />
    <glyph glyph-name="Ecaron" unicode="&#x11a;" horiz-adv-x="542" 
d="M157 316v-240h321v-76h-398v700h398v-76h-321v-232h321v-76h-321zM279 803l59 51h99l-125 -109h-66l-125 109h99z" />
    <glyph glyph-name="Emacron" unicode="&#x112;" horiz-adv-x="542" 
d="M157 316v-240h321v-76h-398v700h398v-76h-321v-232h321v-76h-321zM130 766v67h298v-67h-298z" />
    <glyph glyph-name="Eogonek" unicode="&#x118;" horiz-adv-x="542" 
d="M157 316v-240h321v-76c-41 -30 -82 -61 -82 -97c0 -22 13 -29 30 -29c18 0 39 9 52 17v-62c-18 -12 -41 -18 -63 -18c-58 0 -96 28 -96 86c0 48 37 81 82 103h-321v700h398v-76h-321v-232h321v-76h-321z" />
    <glyph glyph-name="Edotaccent" unicode="&#x116;" horiz-adv-x="542" 
d="M157 316v-240h321v-76h-398v700h398v-76h-321v-232h321v-76h-321zM318 848v-97h-77v97h77z" />
    <glyph glyph-name="Gbreve" unicode="&#x11e;" horiz-adv-x="566" 
d="M285 710c128 0 217 -82 225 -217h-77c-8 93 -70 141 -148 141c-83 0 -149 -55 -149 -161v-246c0 -106 66 -161 149 -161s149 55 149 161v69h-149v76h226v-145c0 -147 -92 -237 -226 -237s-226 90 -226 237v246c0 147 92 237 226 237zM324 808c26 0 46 20 46 46h63
c0 -60 -49 -109 -109 -109h-78c-60 0 -109 49 -109 109h63c0 -26 20 -46 46 -46h78z" />
    <glyph glyph-name="Gcircumflex" unicode="&#x11c;" horiz-adv-x="566" 
d="M285 710c128 0 217 -82 225 -217h-77c-8 93 -70 141 -148 141c-83 0 -149 -55 -149 -161v-246c0 -106 66 -161 149 -161s149 55 149 161v69h-149v76h226v-145c0 -147 -92 -237 -226 -237s-226 90 -226 237v246c0 147 92 237 226 237zM344 745l-59 51l-59 -51h-99l125 109
h66l125 -109h-99z" />
    <glyph glyph-name="Gcommaaccent" unicode="&#x122;" horiz-adv-x="566" 
d="M285 710c128 0 217 -82 225 -217h-77c-8 93 -70 141 -148 141c-83 0 -149 -55 -149 -161v-246c0 -106 66 -161 149 -161s149 55 149 161v69h-149v76h226v-145c0 -147 -92 -237 -226 -237s-226 90 -226 237v246c0 147 92 237 226 237zM238 -145v95h95v-95l-25 -84h-64
l25 84h-31z" />
    <glyph glyph-name="Gdotaccent" unicode="&#x120;" horiz-adv-x="566" 
d="M285 710c128 0 217 -82 225 -217h-77c-8 93 -70 141 -148 141c-83 0 -149 -55 -149 -161v-246c0 -106 66 -161 149 -161s149 55 149 161v69h-149v76h226v-145c0 -147 -92 -237 -226 -237s-226 90 -226 237v246c0 147 92 237 226 237zM324 848v-97h-77v97h77z" />
    <glyph glyph-name="Hbar" unicode="&#x126;" horiz-adv-x="612" 
d="M157 700v-126h298v126h77v-700h-77v316h-298v-316h-77v700h77zM455 392v127h-298v-127h298z" />
    <glyph glyph-name="Hcircumflex" unicode="&#x124;" horiz-adv-x="612" 
d="M455 392v308h77v-700h-77v316h-298v-316h-77v700h77v-308h298zM365 745l-59 51l-59 -51h-99l125 109h66l125 -109h-99z" />
    <glyph glyph-name="Ibreve" unicode="&#x12c;" horiz-adv-x="237" 
d="M80 0v700h77v-700h-77zM157 808c26 0 46 20 46 46h63c0 -60 -49 -109 -109 -109h-78c-60 0 -109 49 -109 109h63c0 -26 20 -46 46 -46h78z" />
    <glyph glyph-name="Idotaccent" unicode="&#x130;" horiz-adv-x="237" 
d="M80 0v700h77v-700h-77zM157 848v-97h-77v97h77z" />
    <glyph glyph-name="Imacron" unicode="&#x12a;" horiz-adv-x="237" 
d="M80 0v700h77v-700h-77zM-31 766v67h298v-67h-298z" />
    <glyph glyph-name="Iogonek" unicode="&#x12e;" horiz-adv-x="237" 
d="M80 0v700h77v-700c-41 -30 -82 -61 -82 -97c0 -22 13 -29 30 -29c18 0 39 9 52 17v-62c-18 -12 -41 -18 -63 -18c-58 0 -96 28 -96 86c0 48 37 81 82 103z" />
    <glyph glyph-name="Itilde" unicode="&#x128;" horiz-adv-x="237" 
d="M80 0v700h77v-700h-77zM62 852c21 0 39 -5 55 -14l30 -16c10 -5 18 -8 26 -8c17 0 32 12 39 36h65c-12 -59 -53 -102 -103 -102c-21 0 -39 5 -55 14l-30 16c-10 5 -18 8 -26 8c-17 0 -32 -12 -39 -36h-65c12 59 53 102 103 102z" />
    <glyph glyph-name="uni1ECA" unicode="&#x1eca;" horiz-adv-x="237" 
d="M80 0v700h77v-700h-77zM157 -50v-97h-77v97h77z" />
    <glyph glyph-name="Jcircumflex" unicode="&#x134;" horiz-adv-x="473" 
d="M14 192v8h77v-8c0 -77 51 -126 117 -126s117 49 117 126v508h77v-508c0 -150 -100 -202 -194 -202s-194 52 -194 202zM422 745l-59 51l-59 -51h-99l125 109h66l125 -109h-99z" />
    <glyph glyph-name="Kcommaaccent" unicode="&#x136;" horiz-adv-x="610" 
d="M157 206v-206h-77v700h77v-380l323 380h98l-246 -288l272 -412h-91l-232 352zM278 -145v95h95v-95l-25 -84h-64l25 84h-31z" />
    <glyph glyph-name="Lacute" unicode="&#x139;" horiz-adv-x="493" 
d="M80 0v700h77v-624h321v-76h-398zM143 854h110l-128 -109h-74z" />
    <glyph glyph-name="Lcaron" unicode="&#x13d;" horiz-adv-x="493" 
d="M401 700l-64 -158h-62l28 158h98zM80 0v700h77v-624h321v-76h-398z" />
    <glyph glyph-name="Lcommaaccent" unicode="&#x13b;" horiz-adv-x="493" 
d="M80 0v700h77v-624h321v-76h-398zM232 -145v95h95v-95l-25 -84h-64l25 84h-31z" />
    <glyph glyph-name="Ldot" unicode="&#x13f;" horiz-adv-x="493" 
d="M80 0v700h77v-624h321v-76h-398zM396 437v-97h-77v97h77z" />
    <glyph glyph-name="Lslash" unicode="&#x141;" horiz-adv-x="504" 
d="M91 0v272l-70 -39v65l70 39v363h77v-321l149 83v-65l-149 -83v-238h321v-76h-398z" />
    <glyph glyph-name="Eng" unicode="&#x14a;" horiz-adv-x="612" 
d="M338 -184h-31v76h31c61 0 109 42 116 109l-297 550v-551h-77v700h77l298 -551v551h77v-682c0 -150 -100 -202 -194 -202z" />
    <glyph glyph-name="Nacute" unicode="&#x143;" horiz-adv-x="612" 
d="M532 700v-700h-77l-298 551v-551h-77v700h77l298 -551v551h77zM331 854h110l-128 -109h-74z" />
    <glyph glyph-name="Ncaron" unicode="&#x147;" horiz-adv-x="612" 
d="M532 700v-700h-77l-298 551v-551h-77v700h77l298 -551v551h77zM305 803l59 51h99l-125 -109h-66l-125 109h99z" />
    <glyph glyph-name="Ncommaaccent" unicode="&#x145;" horiz-adv-x="612" 
d="M532 700v-700h-77l-298 551v-551h-77v700h77l298 -551v551h77zM259 -145v95h95v-95l-25 -84h-64l25 84h-31z" />
    <glyph glyph-name="OE" unicode="&#x152;" horiz-adv-x="896" 
d="M434 227v246c0 106 -66 161 -149 161s-149 -55 -149 -161v-246c0 -106 66 -161 149 -161s149 55 149 161zM434 0v49c-32 -36 -79 -59 -149 -59c-134 0 -226 90 -226 237v246c0 147 92 237 226 237c70 0 117 -23 149 -59v49h398v-76h-321v-232h321v-76h-321v-240h321v-76
h-398z" />
    <glyph glyph-name="Obreve" unicode="&#x14e;" horiz-adv-x="570" 
d="M434 227v246c0 106 -66 161 -149 161s-149 -55 -149 -161v-246c0 -106 66 -161 149 -161s149 55 149 161zM511 473v-246c0 -147 -92 -237 -226 -237s-226 90 -226 237v246c0 147 92 237 226 237s226 -90 226 -237zM324 808c26 0 46 20 46 46h63c0 -60 -49 -109 -109 -109
h-78c-60 0 -109 49 -109 109h63c0 -26 20 -46 46 -46h78z" />
    <glyph glyph-name="Ohungarumlaut" unicode="&#x150;" horiz-adv-x="570" 
d="M434 227v246c0 106 -66 161 -149 161s-149 -55 -149 -161v-246c0 -106 66 -161 149 -161s149 55 149 161zM511 473v-246c0 -147 -92 -237 -226 -237s-226 90 -226 237v246c0 147 92 237 226 237s226 -90 226 -237zM238 854h105l-118 -109h-69zM406 854h105l-118 -109h-69
z" />
    <glyph glyph-name="Omacron" unicode="&#x14c;" horiz-adv-x="570" 
d="M434 227v246c0 106 -66 161 -149 161s-149 -55 -149 -161v-246c0 -106 66 -161 149 -161s149 55 149 161zM511 473v-246c0 -147 -92 -237 -226 -237s-226 90 -226 237v246c0 147 92 237 226 237s226 -90 226 -237zM136 766v67h298v-67h-298z" />
    <glyph glyph-name="uni1ECC" unicode="&#x1ecc;" horiz-adv-x="570" 
d="M434 227v246c0 106 -66 161 -149 161s-149 -55 -149 -161v-246c0 -106 66 -161 149 -161s149 55 149 161zM511 473v-246c0 -147 -92 -237 -226 -237s-226 90 -226 237v246c0 147 92 237 226 237s226 -90 226 -237zM324 -50v-97h-77v97h77z" />
    <glyph glyph-name="Racute" unicode="&#x154;" horiz-adv-x="572" 
d="M268 317h-111v-317h-77v700h238c149 0 202 -99 202 -192c0 -85 -44 -173 -164 -189l187 -319h-89zM442 508c0 67 -45 116 -124 116h-161v-233h161c79 0 124 50 124 117zM291 854h110l-128 -109h-74z" />
    <glyph glyph-name="Rcaron" unicode="&#x158;" horiz-adv-x="572" 
d="M268 317h-111v-317h-77v700h238c149 0 202 -99 202 -192c0 -85 -44 -173 -164 -189l187 -319h-89zM442 508c0 67 -45 116 -124 116h-161v-233h161c79 0 124 50 124 117zM281 803l59 51h99l-125 -109h-66l-125 109h99z" />
    <glyph glyph-name="Rcommaaccent" unicode="&#x156;" horiz-adv-x="572" 
d="M268 317h-111v-317h-77v700h238c149 0 202 -99 202 -192c0 -85 -44 -173 -164 -189l187 -319h-89zM442 508c0 67 -45 116 -124 116h-161v-233h161c79 0 124 50 124 117zM248 -145v95h95v-95l-25 -84h-64l25 84h-31z" />
    <glyph glyph-name="Sacute" unicode="&#x15a;" horiz-adv-x="517" 
d="M263 -10c-127 0 -217 83 -227 217h79c12 -90 73 -141 148 -141c79 0 134 37 134 111c0 63 -34 101 -113 123l-89 25c-104 29 -147 114 -147 199c0 120 95 186 207 186c121 0 196 -68 211 -187h-79c-15 67 -57 111 -132 111c-84 0 -129 -49 -129 -110
c0 -64 32 -104 104 -124l82 -23c99 -28 163 -89 163 -200c0 -112 -72 -187 -212 -187zM280 854h110l-128 -109h-74z" />
    <glyph glyph-name="Scaron" unicode="&#x160;" horiz-adv-x="517" 
d="M263 -10c-127 0 -217 83 -227 217h79c12 -90 73 -141 148 -141c79 0 134 37 134 111c0 63 -34 101 -113 123l-89 25c-104 29 -147 114 -147 199c0 120 95 186 207 186c121 0 196 -68 211 -187h-79c-15 67 -57 111 -132 111c-84 0 -129 -49 -129 -110
c0 -64 32 -104 104 -124l82 -23c99 -28 163 -89 163 -200c0 -112 -72 -187 -212 -187zM255 803l59 51h99l-125 -109h-66l-125 109h99z" />
    <glyph glyph-name="Scedilla" unicode="&#x15e;" horiz-adv-x="517" 
d="M183 -158l62 149c-118 7 -200 88 -209 216h79c12 -90 73 -141 148 -141c79 0 134 37 134 111c0 63 -34 101 -113 123l-89 25c-104 29 -147 114 -147 199c0 120 95 186 207 186c121 0 196 -68 211 -187h-79c-15 67 -57 111 -132 111c-84 0 -129 -49 -129 -110
c0 -64 32 -104 104 -124l82 -23c99 -28 163 -89 163 -200c0 -96 -53 -165 -156 -182l-36 -153h-100z" />
    <glyph glyph-name="Scircumflex" unicode="&#x15c;" horiz-adv-x="517" 
d="M263 -10c-127 0 -217 83 -227 217h79c12 -90 73 -141 148 -141c79 0 134 37 134 111c0 63 -34 101 -113 123l-89 25c-104 29 -147 114 -147 199c0 120 95 186 207 186c121 0 196 -68 211 -187h-79c-15 67 -57 111 -132 111c-84 0 -129 -49 -129 -110
c0 -64 32 -104 104 -124l82 -23c99 -28 163 -89 163 -200c0 -112 -72 -187 -212 -187zM314 745l-59 51l-59 -51h-99l125 109h66l125 -109h-99z" />
    <glyph glyph-name="Scommaaccent" unicode="&#x218;" horiz-adv-x="517" 
d="M263 -10c-127 0 -217 83 -227 217h79c12 -90 73 -141 148 -141c79 0 134 37 134 111c0 63 -34 101 -113 123l-89 25c-104 29 -147 114 -147 199c0 120 95 186 207 186c121 0 196 -68 211 -187h-79c-15 67 -57 111 -132 111c-84 0 -129 -49 -129 -110
c0 -64 32 -104 104 -124l82 -23c99 -28 163 -89 163 -200c0 -112 -72 -187 -212 -187zM208 -145v95h95v-95l-25 -84h-64l25 84h-31z" />
    <glyph glyph-name="Tbar" unicode="&#x166;" horiz-adv-x="479" 
d="M201 624h-187v76h451v-76h-187v-246h117v-55h-117v-323h-77v323h-117v55h117v246z" />
    <glyph glyph-name="Tcaron" unicode="&#x164;" horiz-adv-x="479" 
d="M201 624h-187v76h451v-76h-187v-624h-77v624zM239 803l59 51h99l-125 -109h-66l-125 109h99z" />
    <glyph glyph-name="uni0162" unicode="&#x162;" horiz-adv-x="479" 
d="M201 624h-187v76h451v-76h-187v-624h-77v624zM192 -145v95h95v-95l-25 -84h-64l25 84h-31z" />
    <glyph glyph-name="Tcommaaccent" unicode="&#x21a;" horiz-adv-x="479" 
d="M201 624h-187v76h451v-76h-187v-624h-77v624zM192 -145v95h95v-95l-25 -84h-64l25 84h-31z" />
    <glyph glyph-name="Ubreve" unicode="&#x16c;" horiz-adv-x="594" 
d="M71 227v473h77v-473c0 -106 66 -161 149 -161s149 55 149 161v473h77v-473c0 -147 -92 -237 -226 -237s-226 90 -226 237zM336 808c26 0 46 20 46 46h63c0 -60 -49 -109 -109 -109h-78c-60 0 -109 49 -109 109h63c0 -26 20 -46 46 -46h78z" />
    <glyph glyph-name="Uhungarumlaut" unicode="&#x170;" horiz-adv-x="594" 
d="M71 227v473h77v-473c0 -106 66 -161 149 -161s149 55 149 161v473h77v-473c0 -147 -92 -237 -226 -237s-226 90 -226 237zM242 854h105l-118 -109h-69zM410 854h105l-118 -109h-69z" />
    <glyph glyph-name="Umacron" unicode="&#x16a;" horiz-adv-x="594" 
d="M71 227v473h77v-473c0 -106 66 -161 149 -161s149 55 149 161v473h77v-473c0 -147 -92 -237 -226 -237s-226 90 -226 237zM148 766v67h298v-67h-298z" />
    <glyph glyph-name="Uogonek" unicode="&#x172;" horiz-adv-x="594" 
d="M71 227v473h77v-473c0 -106 66 -161 149 -161s149 55 149 161v473h77v-473c0 -93 -36 -163 -100 -204c-45 -29 -110 -77 -110 -120c0 -22 13 -29 30 -29c18 0 39 9 52 17v-62c-18 -12 -41 -18 -63 -18c-58 0 -96 28 -96 86c0 41 29 72 63 93c-138 0 -228 90 -228 237z
" />
    <glyph glyph-name="Uring" unicode="&#x16e;" horiz-adv-x="594" 
d="M71 227v473h77v-473c0 -106 66 -161 149 -161s149 55 149 161v473h77v-473c0 -147 -92 -237 -226 -237s-226 90 -226 237zM223 799c0 41 33 75 74 75s75 -34 75 -75s-34 -74 -75 -74s-74 33 -74 74zM271 799c0 -14 12 -26 26 -26s26 12 26 26s-12 26 -26 26
s-26 -12 -26 -26z" />
    <glyph glyph-name="Utilde" unicode="&#x168;" horiz-adv-x="594" 
d="M71 227v473h77v-473c0 -106 66 -161 149 -161s149 55 149 161v473h77v-473c0 -147 -92 -237 -226 -237s-226 90 -226 237zM241 852c21 0 39 -5 55 -14l30 -16c10 -5 18 -8 26 -8c17 0 32 12 39 36h65c-12 -59 -53 -102 -103 -102c-21 0 -39 5 -55 14l-30 16
c-10 5 -18 8 -26 8c-17 0 -32 -12 -39 -36h-65c12 59 53 102 103 102z" />
    <glyph glyph-name="uni1EE4" unicode="&#x1ee4;" horiz-adv-x="594" 
d="M71 227v473h77v-473c0 -106 66 -161 149 -161s149 55 149 161v473h77v-473c0 -147 -92 -237 -226 -237s-226 90 -226 237zM336 -50v-97h-77v97h77z" />
    <glyph glyph-name="Wacute" unicode="&#x1e82;" horiz-adv-x="726" 
d="M496 0l-133 479l-133 -479h-74l-129 700h76l99 -546l124 446h74l124 -446l99 546h76l-129 -700h-74zM388 854h110l-128 -109h-74z" />
    <glyph glyph-name="Wcircumflex" unicode="&#x174;" horiz-adv-x="726" 
d="M496 0l-133 479l-133 -479h-74l-129 700h76l99 -546l124 446h74l124 -446l99 546h76l-129 -700h-74zM422 745l-59 51l-59 -51h-99l125 109h66l125 -109h-99z" />
    <glyph glyph-name="Wdieresis" unicode="&#x1e84;" horiz-adv-x="726" 
d="M496 0l-133 479l-133 -479h-74l-129 700h76l99 -546l124 446h74l124 -446l99 546h76l-129 -700h-74zM500 848v-97h-77v97h77zM303 848v-97h-77v97h77z" />
    <glyph glyph-name="Wgrave" unicode="&#x1e80;" horiz-adv-x="726" 
d="M496 0l-133 479l-133 -479h-74l-129 700h76l99 -546l124 446h74l124 -446l99 546h76l-129 -700h-74zM228 854h110l92 -109h-74z" />
    <glyph glyph-name="Ycircumflex" unicode="&#x176;" horiz-adv-x="545" 
d="M311 278v-278h-77v279l-231 421h84l186 -339l185 339h84zM331 745l-59 51l-59 -51h-99l125 109h66l125 -109h-99z" />
    <glyph glyph-name="Ydieresis" unicode="&#x178;" horiz-adv-x="545" 
d="M311 278v-278h-77v279l-231 421h84l186 -339l185 339h84zM410 848v-97h-77v97h77zM213 848v-97h-77v97h77z" />
    <glyph glyph-name="Ygrave" unicode="&#x1ef2;" horiz-adv-x="545" 
d="M311 278v-278h-77v279l-231 421h84l186 -339l185 339h84zM137 854h110l92 -109h-74z" />
    <glyph glyph-name="uni0232" unicode="&#x232;" horiz-adv-x="545" 
d="M311 278v-278h-77v279l-231 421h84l186 -339l185 339h84zM123 766v67h298v-67h-298z" />
    <glyph glyph-name="Zacute" unicode="&#x179;" horiz-adv-x="537" 
d="M496 0h-457v76l362 548h-357v76h447v-76l-362 -548h367v-76zM292 854h110l-128 -109h-74z" />
    <glyph glyph-name="Zcaron" unicode="&#x17d;" horiz-adv-x="537" 
d="M496 0h-457v76l362 548h-357v76h447v-76l-362 -548h367v-76zM267 803l59 51h99l-125 -109h-66l-125 109h99z" />
    <glyph glyph-name="Zdotaccent" unicode="&#x17b;" horiz-adv-x="537" 
d="M496 0h-457v76l362 548h-357v76h447v-76l-362 -548h367v-76zM306 848v-97h-77v97h77z" />
    <glyph glyph-name="abreve" unicode="&#x103;" horiz-adv-x="527" 
d="M257 458c-59 0 -112 -33 -124 -100h-77c13 129 111 172 201 172c96 0 202 -50 202 -202v-328h-75v53c-33 -43 -91 -63 -161 -63c-88 0 -171 47 -171 153c0 52 22 122 112 148c59 17 133 23 220 29v9c0 86 -60 129 -127 129zM384 186v67c-113 -8 -177 -15 -212 -34
c-38 -21 -45 -44 -45 -74c0 -47 36 -83 112 -83c81 0 145 43 145 124zM241 571c-71 0 -129 58 -129 129h61c0 -38 30 -68 68 -68h38c38 0 68 30 68 68h61c0 -71 -58 -129 -129 -129h-38z" />
    <glyph glyph-name="amacron" unicode="&#x101;" horiz-adv-x="527" 
d="M257 458c-59 0 -112 -33 -124 -100h-77c13 129 111 172 201 172c96 0 202 -50 202 -202v-328h-75v53c-33 -43 -91 -63 -161 -63c-88 0 -171 47 -171 153c0 52 22 122 112 148c59 17 133 23 220 29v9c0 86 -60 129 -127 129zM384 186v67c-113 -8 -177 -15 -212 -34
c-38 -21 -45 -44 -45 -74c0 -47 36 -83 112 -83c81 0 145 43 145 124zM111 603v65h298v-65h-298z" />
    <glyph glyph-name="aogonek" unicode="&#x105;" horiz-adv-x="527" 
d="M257 458c-59 0 -112 -33 -124 -100h-77c13 129 111 172 201 172c96 0 202 -50 202 -202v-328c-41 -30 -82 -61 -82 -97c0 -22 13 -31 30 -31c18 0 39 9 52 17v-60c-18 -12 -41 -18 -63 -18c-58 0 -94 28 -94 86c0 48 37 81 82 103v53c-33 -43 -91 -63 -161 -63
c-88 0 -171 47 -171 153c0 52 22 122 112 148c59 17 133 23 220 29v9c0 86 -60 129 -127 129zM384 186v67c-113 -8 -177 -15 -212 -34c-38 -21 -45 -44 -45 -74c0 -47 36 -83 112 -83c81 0 145 43 145 124z" />
    <glyph glyph-name="cacute" unicode="&#x107;" horiz-adv-x="515" 
d="M263 530c91 0 190 -44 201 -177h-76c-10 70 -65 105 -125 105c-67 0 -127 -43 -127 -129v-138c0 -86 60 -129 127 -129c60 0 115 35 125 105h76c-11 -133 -110 -177 -201 -177c-96 0 -202 49 -202 202v136c0 152 106 202 202 202zM278 700h108l-118 -129h-67z" />
    <glyph glyph-name="ccaron" unicode="&#x10d;" horiz-adv-x="515" 
d="M263 530c91 0 190 -44 201 -177h-76c-10 70 -65 105 -125 105c-67 0 -127 -43 -127 -129v-138c0 -86 60 -129 127 -129c60 0 115 35 125 105h76c-11 -133 -110 -177 -201 -177c-96 0 -202 49 -202 202v136c0 152 106 202 202 202zM420 700l-125 -129h-66l-125 129h89
l69 -71l69 71h89z" />
    <glyph glyph-name="ccircumflex" unicode="&#x109;" horiz-adv-x="515" 
d="M263 530c91 0 190 -44 201 -177h-76c-10 70 -65 105 -125 105c-67 0 -127 -43 -127 -129v-138c0 -86 60 -129 127 -129c60 0 115 35 125 105h76c-11 -133 -110 -177 -201 -177c-96 0 -202 49 -202 202v136c0 152 106 202 202 202zM295 700l125 -129h-89l-69 71l-69 -71
h-89l125 129h66z" />
    <glyph glyph-name="cdotaccent" unicode="&#x10b;" horiz-adv-x="515" 
d="M263 530c91 0 190 -44 201 -177h-76c-10 70 -65 105 -125 105c-67 0 -127 -43 -127 -129v-138c0 -86 60 -129 127 -129c60 0 115 35 125 105h76c-11 -133 -110 -177 -201 -177c-96 0 -202 49 -202 202v136c0 152 106 202 202 202zM300 684v-97h-75v97h75z" />
    <glyph glyph-name="dcaron" unicode="&#x10f;" horiz-adv-x="540" 
d="M619 700l-70 -158h-54l28 158h96zM263 -10c-96 0 -202 50 -202 202v136c0 152 106 202 202 202c47 0 101 -21 127 -63v233h75v-700h-75v53c-26 -42 -80 -63 -127 -63zM136 329v-138c0 -86 60 -129 127 -129s127 43 127 129v138c0 86 -60 129 -127 129s-127 -43 -127 -129
z" />
    <glyph glyph-name="dcroat" unicode="&#x111;" horiz-adv-x="541" 
d="M263 -10c-96 0 -202 50 -202 202v136c0 152 106 202 202 202c47 0 101 -21 127 -63v122h-127v53h127v58h75v-58h70v-53h-70v-589h-75v53c-26 -42 -80 -63 -127 -63zM136 329v-138c0 -86 60 -129 127 -129s127 43 127 129v138c0 86 -60 129 -127 129s-127 -43 -127 -129z
" />
    <glyph glyph-name="ebreve" unicode="&#x115;" horiz-adv-x="521" 
d="M263 62c59 0 112 33 124 100h77c-13 -129 -111 -172 -201 -172c-96 0 -202 50 -202 202v136c0 152 106 202 202 202s202 -50 202 -202v-87h-329v-50c0 -86 60 -129 127 -129zM390 310v19c0 86 -60 129 -127 129s-127 -43 -127 -129v-19h254zM244 571
c-71 0 -129 58 -129 129h61c0 -38 30 -68 68 -68h38c38 0 68 30 68 68h61c0 -71 -58 -129 -129 -129h-38z" />
    <glyph glyph-name="ecaron" unicode="&#x11b;" horiz-adv-x="521" 
d="M263 62c59 0 112 33 124 100h77c-13 -129 -111 -172 -201 -172c-96 0 -202 50 -202 202v136c0 152 106 202 202 202s202 -50 202 -202v-87h-329v-50c0 -86 60 -129 127 -129zM390 310v19c0 86 -60 129 -127 129s-127 -43 -127 -129v-19h254zM421 700l-125 -129h-66
l-125 129h89l69 -71l69 71h89z" />
    <glyph glyph-name="emacron" unicode="&#x113;" horiz-adv-x="521" 
d="M263 62c59 0 112 33 124 100h77c-13 -129 -111 -172 -201 -172c-96 0 -202 50 -202 202v136c0 152 106 202 202 202s202 -50 202 -202v-87h-329v-50c0 -86 60 -129 127 -129zM390 310v19c0 86 -60 129 -127 129s-127 -43 -127 -129v-19h254zM114 603v65h298v-65h-298z
" />
    <glyph glyph-name="eogonek" unicode="&#x119;" horiz-adv-x="521" 
d="M263 62c59 0 112 33 124 100h77c-5 -49 -23 -94 -63 -128c-43 -37 -112 -86 -112 -131c0 -22 13 -31 30 -31c18 0 39 9 52 17v-60c-18 -12 -41 -18 -63 -18c-58 0 -94 28 -94 86c0 42 27 72 64 94c-5 -1 -12 -1 -15 -1c-96 0 -202 50 -202 202v136c0 152 106 202 202 202
s202 -50 202 -202v-87h-329v-50c0 -86 60 -129 127 -129zM390 310v19c0 86 -60 129 -127 129s-127 -43 -127 -129v-19h254z" />
    <glyph glyph-name="edotaccent" unicode="&#x117;" horiz-adv-x="521" 
d="M263 62c59 0 112 33 124 100h77c-13 -129 -111 -172 -201 -172c-96 0 -202 50 -202 202v136c0 152 106 202 202 202s202 -50 202 -202v-87h-329v-50c0 -86 60 -129 127 -129zM390 310v19c0 86 -60 129 -127 129s-127 -43 -127 -129v-19h254zM301 684v-97h-75v97h75z" />
    <glyph glyph-name="gbreve" unicode="&#x11f;" horiz-adv-x="539" 
d="M262 -122c67 0 127 43 127 129v66c-26 -42 -80 -63 -127 -63c-96 0 -202 50 -202 202v116c0 152 106 202 202 202c47 0 101 -21 127 -63v49h75v-508c0 -153 -106 -202 -202 -202c-91 0 -190 44 -201 177h76c10 -70 65 -105 125 -105zM135 329v-118
c0 -86 60 -129 127 -129s127 43 127 129v118c0 86 -60 129 -127 129s-127 -43 -127 -129zM243 571c-71 0 -129 58 -129 129h61c0 -38 30 -68 68 -68h38c38 0 68 30 68 68h61c0 -71 -58 -129 -129 -129h-38z" />
    <glyph glyph-name="gcircumflex" unicode="&#x11d;" horiz-adv-x="539" 
d="M262 -122c67 0 127 43 127 129v66c-26 -42 -80 -63 -127 -63c-96 0 -202 50 -202 202v116c0 152 106 202 202 202c47 0 101 -21 127 -63v49h75v-508c0 -153 -106 -202 -202 -202c-91 0 -190 44 -201 177h76c10 -70 65 -105 125 -105zM135 329v-118
c0 -86 60 -129 127 -129s127 43 127 129v118c0 86 -60 129 -127 129s-127 -43 -127 -129zM295 700l125 -129h-89l-69 71l-69 -71h-89l125 129h66z" />
    <glyph glyph-name="gcommaaccent" unicode="&#x123;" horiz-adv-x="539" 
d="M262 -122c67 0 127 43 127 129v66c-26 -42 -80 -63 -127 -63c-96 0 -202 50 -202 202v116c0 152 106 202 202 202c47 0 101 -21 127 -63v49h75v-508c0 -153 -106 -202 -202 -202c-91 0 -190 44 -201 177h76c10 -70 65 -105 125 -105zM135 329v-118
c0 -86 60 -129 127 -129s127 43 127 129v118c0 86 -60 129 -127 129s-127 -43 -127 -129zM310 666v-95h-95v95l25 84h64l-25 -84h31z" />
    <glyph glyph-name="gdotaccent" unicode="&#x121;" horiz-adv-x="539" 
d="M262 -122c67 0 127 43 127 129v66c-26 -42 -80 -63 -127 -63c-96 0 -202 50 -202 202v116c0 152 106 202 202 202c47 0 101 -21 127 -63v49h75v-508c0 -153 -106 -202 -202 -202c-91 0 -190 44 -201 177h76c10 -70 65 -105 125 -105zM135 329v-118
c0 -86 60 -129 127 -129s127 43 127 129v118c0 86 -60 129 -127 129s-127 -43 -127 -129zM300 684v-97h-75v97h75z" />
    <glyph glyph-name="hbar" unicode="&#x127;" horiz-adv-x="547" 
d="M277 530c96 0 202 -50 202 -202v-328h-75v329c0 86 -60 129 -127 129s-127 -43 -127 -129v-329h-75v589h-70v53h70v58h75v-58h127v-53h-127v-122c26 42 80 63 127 63z" />
    <glyph glyph-name="hcircumflex" unicode="&#x125;" horiz-adv-x="547" 
d="M277 530c96 0 202 -50 202 -202v-328h-75v329c0 86 -60 129 -127 129s-127 -43 -127 -129v-329h-75v700h75v-233c26 42 80 63 127 63zM310 874l125 -129h-89l-69 71l-69 -71h-89l125 129h66z" />
    <glyph glyph-name="dotlessi" unicode="&#x131;" horiz-adv-x="225" 
d="M150 516v-516h-75v516h75z" />
    <glyph glyph-name="ibreve" unicode="&#x12d;" horiz-adv-x="225" 
d="M150 516v-516h-75v516h75zM93 571c-71 0 -129 58 -129 129h61c0 -38 30 -68 68 -68h38c38 0 68 30 68 68h61c0 -71 -58 -129 -129 -129h-38z" />
    <glyph glyph-name="imacron" unicode="&#x12b;" horiz-adv-x="225" 
d="M150 516v-516h-75v516h75zM-37 603v65h298v-65h-298z" />
    <glyph glyph-name="iogonek" unicode="&#x12f;" horiz-adv-x="225" 
d="M75 0v516h75v-516c-41 -30 -82 -61 -82 -97c0 -22 13 -31 30 -31c18 0 39 9 52 17v-60c-18 -12 -41 -18 -63 -18c-58 0 -94 28 -94 86c0 48 37 81 82 103zM150 700v-97h-75v97h75z" />
    <glyph glyph-name="itilde" unicode="&#x129;" horiz-adv-x="225" 
d="M150 516v-516h-75v516h75zM11 586h-58c12 59 53 102 103 102c21 0 39 -5 55 -14l30 -17c8 -5 19 -9 31 -9c17 0 36 16 41 38h58c-12 -59 -53 -102 -103 -102c-21 0 -39 5 -55 14l-30 17c-8 5 -19 9 -31 9c-17 0 -36 -16 -41 -38z" />
    <glyph glyph-name="uni1ECB" unicode="&#x1ecb;" horiz-adv-x="225" 
d="M150 700v-97h-75v97h75zM150 516v-516h-75v516h75zM150 -50v-97h-75v97h75z" />
    <glyph glyph-name="dotlessj" unicode="&#x237;" horiz-adv-x="225" 
d="M75 -67v583h75v-577c0 -88 -27 -123 -123 -123h-16v72h16c36 0 48 12 48 45z" />
    <glyph glyph-name="jcircumflex" unicode="&#x135;" horiz-adv-x="225" 
d="M75 -67v583h75v-577c0 -88 -27 -123 -123 -123h-16v72h16c36 0 48 12 48 45zM145 700l125 -129h-89l-69 71l-69 -71h-89l125 129h66z" />
    <glyph glyph-name="kcommaaccent" unicode="&#x137;" horiz-adv-x="505" 
d="M150 700v-428l225 244h93l-186 -202l213 -314h-88l-176 259l-81 -88v-171h-75v700h75zM221 -145v95h95v-95l-25 -84h-64l25 84h-31z" />
    <glyph glyph-name="lacute" unicode="&#x13a;" horiz-adv-x="254" 
d="M148 700v-583c0 -33 12 -45 48 -45h16v-72h-16c-96 0 -123 35 -123 123v577h75zM126 874h108l-118 -129h-67z" />
    <glyph glyph-name="lcaron" unicode="&#x13e;" horiz-adv-x="254" 
d="M302 700l-70 -158h-54l28 158h96zM148 700v-583c0 -33 12 -45 48 -45h16v-72h-16c-96 0 -123 35 -123 123v577h75z" />
    <glyph glyph-name="lcommaaccent" unicode="&#x13c;" horiz-adv-x="254" 
d="M148 700v-583c0 -33 12 -45 48 -45h16v-72h-16c-96 0 -123 35 -123 123v577h75zM95 -145v95h95v-95l-25 -84h-64l25 84h-31z" />
    <glyph glyph-name="ldot" unicode="&#x140;" horiz-adv-x="288" 
d="M148 700v-583c0 -33 12 -45 48 -45h16v-72h-16c-96 0 -123 35 -123 123v577h75zM293 434v-97h-75v97h75z" />
    <glyph glyph-name="lslash" unicode="&#x142;" horiz-adv-x="274" 
d="M158 700v-275l64 35v-60l-64 -35v-248c0 -33 12 -45 48 -45h16v-72h-16c-96 0 -123 35 -123 123v200l-64 -35v60l64 35v317h75z" />
    <glyph glyph-name="eng" unicode="&#x14b;" horiz-adv-x="547" 
d="M479 328v-389c0 -88 -27 -123 -123 -123h-16v72h16c36 0 48 12 48 45v396c0 86 -60 129 -127 129s-127 -43 -127 -129v-329h-75v516h75v-49c26 42 80 63 127 63c96 0 202 -50 202 -202z" />
    <glyph glyph-name="nacute" unicode="&#x144;" horiz-adv-x="547" 
d="M277 530c96 0 202 -50 202 -202v-328h-75v329c0 86 -60 129 -127 129s-127 -43 -127 -129v-329h-75v516h75v-49c26 42 80 63 127 63zM293 700h108l-118 -129h-67z" />
    <glyph glyph-name="ncaron" unicode="&#x148;" horiz-adv-x="547" 
d="M277 530c96 0 202 -50 202 -202v-328h-75v329c0 86 -60 129 -127 129s-127 -43 -127 -129v-329h-75v516h75v-49c26 42 80 63 127 63zM435 700l-125 -129h-66l-125 129h89l69 -71l69 71h89z" />
    <glyph glyph-name="ncommaaccent" unicode="&#x146;" horiz-adv-x="547" 
d="M277 530c96 0 202 -50 202 -202v-328h-75v329c0 86 -60 129 -127 129s-127 -43 -127 -129v-329h-75v516h75v-49c26 42 80 63 127 63zM230 -145v95h95v-95l-25 -84h-64l25 84h-31z" />
    <glyph glyph-name="oe" unicode="&#x153;" horiz-adv-x="850" 
d="M390 191v138c0 86 -60 129 -127 129s-127 -43 -127 -129v-138c0 -86 60 -129 127 -129s127 43 127 129zM592 62c59 0 112 33 124 100h77c-13 -129 -111 -172 -201 -172c-61 0 -127 22 -165 83c-41 -64 -104 -83 -164 -83c-96 0 -202 50 -202 202v136
c0 152 106 202 202 202c60 0 123 -19 164 -83c38 61 104 83 165 83c96 0 202 -50 202 -202v-87h-329v-50c0 -86 60 -129 127 -129zM719 310v19c0 86 -60 129 -127 129s-127 -43 -127 -129v-19h254z" />
    <glyph glyph-name="obreve" unicode="&#x14f;" horiz-adv-x="526" 
d="M390 191v138c0 86 -60 129 -127 129s-127 -43 -127 -129v-138c0 -86 60 -129 127 -129s127 43 127 129zM465 328v-136c0 -152 -106 -202 -202 -202s-202 50 -202 202v136c0 152 106 202 202 202s202 -50 202 -202zM244 571c-71 0 -129 58 -129 129h61
c0 -38 30 -68 68 -68h38c38 0 68 30 68 68h61c0 -71 -58 -129 -129 -129h-38z" />
    <glyph glyph-name="ohungarumlaut" unicode="&#x151;" horiz-adv-x="526" 
d="M390 191v138c0 86 -60 129 -127 129s-127 -43 -127 -129v-138c0 -86 60 -129 127 -129s127 43 127 129zM465 328v-136c0 -152 -106 -202 -202 -202s-202 50 -202 202v136c0 152 106 202 202 202s202 -50 202 -202zM194 700h103l-108 -129h-62zM362 700h103l-108 -129h-62
z" />
    <glyph glyph-name="omacron" unicode="&#x14d;" horiz-adv-x="526" 
d="M390 191v138c0 86 -60 129 -127 129s-127 -43 -127 -129v-138c0 -86 60 -129 127 -129s127 43 127 129zM465 328v-136c0 -152 -106 -202 -202 -202s-202 50 -202 202v136c0 152 106 202 202 202s202 -50 202 -202zM114 603v65h298v-65h-298z" />
    <glyph glyph-name="uni1ECD" unicode="&#x1ecd;" horiz-adv-x="526" 
d="M390 191v138c0 86 -60 129 -127 129s-127 -43 -127 -129v-138c0 -86 60 -129 127 -129s127 43 127 129zM465 328v-136c0 -152 -106 -202 -202 -202s-202 50 -202 202v136c0 152 106 202 202 202s202 -50 202 -202zM301 -50v-97h-75v97h75z" />
    <glyph glyph-name="racute" unicode="&#x155;" horiz-adv-x="326" 
d="M150 516v-54c26 42 80 63 127 63h33v-72h-33c-67 0 -127 -43 -127 -129v-324h-75v516h75zM208 700h108l-118 -129h-67z" />
    <glyph glyph-name="rcaron" unicode="&#x159;" horiz-adv-x="327" 
d="M150 516v-54c26 42 80 63 127 63h33v-72h-33c-67 0 -127 -43 -127 -129v-324h-75v516h75zM350 700l-125 -129h-66l-125 129h89l69 -71l69 71h89z" />
    <glyph glyph-name="rcommaaccent" unicode="&#x157;" horiz-adv-x="327" 
d="M150 516v-54c26 42 80 63 127 63h33v-72h-33c-67 0 -127 -43 -127 -129v-324h-75v516h75zM65 -145v95h95v-95l-25 -84h-64l25 84h-31z" />
    <glyph glyph-name="sacute" unicode="&#x15b;" horiz-adv-x="471" 
d="M415 365h-77c-9 60 -49 93 -113 93c-56 0 -97 -28 -97 -75c0 -43 29 -62 71 -72l97 -24c78 -19 132 -58 132 -153c0 -102 -77 -144 -182 -144c-108 0 -199 50 -207 175h77c7 -73 61 -103 130 -103c72 0 105 29 106 74c0 33 -15 62 -72 76l-101 25
c-56 13 -127 51 -127 143c0 95 79 150 174 150c104 0 181 -50 189 -165zM249 700h108l-118 -129h-67z" />
    <glyph glyph-name="scaron" unicode="&#x161;" horiz-adv-x="471" 
d="M415 365h-77c-9 60 -49 93 -113 93c-56 0 -97 -28 -97 -75c0 -43 29 -62 71 -72l97 -24c78 -19 132 -58 132 -153c0 -102 -77 -144 -182 -144c-108 0 -199 50 -207 175h77c7 -73 61 -103 130 -103c72 0 105 29 106 74c0 33 -15 62 -72 76l-101 25
c-56 13 -127 51 -127 143c0 95 79 150 174 150c104 0 181 -50 189 -165zM391 700l-125 -129h-66l-125 129h89l69 -71l69 71h89z" />
    <glyph glyph-name="scedilla" unicode="&#x15f;" horiz-adv-x="471" 
d="M152 -158l67 149c-96 8 -173 59 -180 174h77c7 -73 61 -103 130 -103c72 0 105 29 106 74c0 33 -15 62 -72 76l-101 25c-56 13 -127 51 -127 143c0 95 79 150 174 150c104 0 181 -50 189 -165h-77c-9 60 -49 93 -113 93c-56 0 -97 -28 -97 -75c0 -43 29 -62 71 -72
l97 -24c78 -19 132 -58 132 -153c0 -89 -58 -132 -142 -141l-36 -151h-98z" />
    <glyph glyph-name="scircumflex" unicode="&#x15d;" horiz-adv-x="471" 
d="M415 365h-77c-9 60 -49 93 -113 93c-56 0 -97 -28 -97 -75c0 -43 29 -62 71 -72l97 -24c78 -19 132 -58 132 -153c0 -102 -77 -144 -182 -144c-108 0 -199 50 -207 175h77c7 -73 61 -103 130 -103c72 0 105 29 106 74c0 33 -15 62 -72 76l-101 25
c-56 13 -127 51 -127 143c0 95 79 150 174 150c104 0 181 -50 189 -165zM266 700l125 -129h-89l-69 71l-69 -71h-89l125 129h66z" />
    <glyph glyph-name="scommaaccent" unicode="&#x219;" horiz-adv-x="471" 
d="M415 365h-77c-9 60 -49 93 -113 93c-56 0 -97 -28 -97 -75c0 -43 29 -62 71 -72l97 -24c78 -19 132 -58 132 -153c0 -102 -77 -144 -182 -144c-108 0 -199 50 -207 175h77c7 -73 61 -103 130 -103c72 0 105 29 106 74c0 33 -15 62 -72 76l-101 25
c-56 13 -127 51 -127 143c0 95 79 150 174 150c104 0 181 -50 189 -165zM186 -145v95h95v-95l-25 -84h-64l25 84h-31z" />
    <glyph glyph-name="tbar" unicode="&#x167;" horiz-adv-x="341" 
d="M174 444v-127h127v-53h-127v-147c0 -33 12 -45 48 -45h79v-72h-79c-96 0 -123 35 -123 123v141h-73v53h73v127h-73v72h73v117h75v-117h127v-72h-127z" />
    <glyph glyph-name="tcaron" unicode="&#x165;" horiz-adv-x="341" 
d="M348 700l-61 -129h-54l19 129h96zM174 444v-327c0 -33 12 -45 48 -45h79v-72h-79c-96 0 -123 35 -123 123v321h-73v72h73v117h75v-117h127v-72h-127z" />
    <glyph glyph-name="uni0163" unicode="&#x163;" horiz-adv-x="341" 
d="M174 444v-327c0 -33 12 -45 48 -45h79v-72h-79c-96 0 -123 35 -123 123v321h-73v72h73v117h75v-117h127v-72h-127zM153 -145v95h95v-95l-25 -84h-64l25 84h-31z" />
    <glyph glyph-name="tcommaaccent" unicode="&#x21b;" horiz-adv-x="341" 
d="M174 444v-327c0 -33 12 -45 48 -45h79v-72h-79c-96 0 -123 35 -123 123v321h-73v72h73v117h75v-117h127v-72h-127zM153 -145v95h95v-95l-25 -84h-64l25 84h-31z" />
    <glyph glyph-name="ubreve" unicode="&#x16d;" horiz-adv-x="541" 
d="M267 -10c-85 0 -199 46 -199 199v327h75v-322c0 -92 63 -132 124 -132c63 0 124 44 124 129v325h75v-516h-75v53c-26 -41 -80 -63 -124 -63zM248 571c-71 0 -129 58 -129 129h61c0 -38 30 -68 68 -68h38c38 0 68 30 68 68h61c0 -71 -58 -129 -129 -129h-38z" />
    <glyph glyph-name="uhungarumlaut" unicode="&#x171;" horiz-adv-x="541" 
d="M267 -10c-85 0 -199 46 -199 199v327h75v-322c0 -92 63 -132 124 -132c63 0 124 44 124 129v325h75v-516h-75v53c-26 -41 -80 -63 -124 -63zM195 700h103l-108 -129h-62zM363 700h103l-108 -129h-62z" />
    <glyph glyph-name="umacron" unicode="&#x16b;" horiz-adv-x="541" 
d="M267 -10c-85 0 -199 46 -199 199v327h75v-322c0 -92 63 -132 124 -132c63 0 124 44 124 129v325h75v-516h-75v53c-26 -41 -80 -63 -124 -63zM118 603v65h298v-65h-298z" />
    <glyph glyph-name="uogonek" unicode="&#x173;" horiz-adv-x="541" 
d="M391 0v53c-26 -41 -80 -63 -124 -63c-85 0 -199 46 -199 199v327h75v-322c0 -92 63 -132 124 -132c63 0 124 44 124 129v325h75v-516c-41 -30 -82 -61 -82 -97c0 -22 13 -31 30 -31c18 0 39 9 52 17v-60c-18 -12 -41 -18 -63 -18c-58 0 -94 28 -94 86c0 48 37 81 82 103z
" />
    <glyph glyph-name="uring" unicode="&#x16f;" horiz-adv-x="541" 
d="M267 -10c-85 0 -199 46 -199 199v327h75v-322c0 -92 63 -132 124 -132c63 0 124 44 124 129v325h75v-516h-75v53c-26 -41 -80 -63 -124 -63zM239 635c0 -15 13 -28 28 -28s28 13 28 28s-13 28 -28 28s-28 -13 -28 -28zM193 635c0 41 33 75 74 75s75 -34 75 -75
s-34 -74 -75 -74s-74 33 -74 74z" />
    <glyph glyph-name="utilde" unicode="&#x169;" horiz-adv-x="541" 
d="M267 -10c-85 0 -199 46 -199 199v327h75v-322c0 -92 63 -132 124 -132c63 0 124 44 124 129v325h75v-516h-75v53c-26 -41 -80 -63 -124 -63zM166 586h-58c12 59 53 102 103 102c21 0 39 -5 55 -14l30 -17c8 -5 19 -9 31 -9c17 0 36 16 41 38h58
c-12 -59 -53 -102 -103 -102c-21 0 -39 5 -55 14l-30 17c-8 5 -19 9 -31 9c-17 0 -36 -16 -41 -38z" />
    <glyph glyph-name="uni1EE5" unicode="&#x1ee5;" horiz-adv-x="541" 
d="M267 -10c-85 0 -199 46 -199 199v327h75v-322c0 -92 63 -132 124 -132c63 0 124 44 124 129v325h75v-516h-75v53c-26 -41 -80 -63 -124 -63zM305 -50v-97h-75v97h75z" />
    <glyph glyph-name="wacute" unicode="&#x1e83;" horiz-adv-x="684" 
d="M379 516l114 -402l100 402h78l-136 -516h-78l-115 405l-115 -405h-78l-136 516h78l100 -402l114 402h74zM358 700h108l-118 -129h-67z" />
    <glyph glyph-name="wcircumflex" unicode="&#x175;" horiz-adv-x="684" 
d="M379 516l114 -402l100 402h78l-136 -516h-78l-115 405l-115 -405h-78l-136 516h78l100 -402l114 402h74zM375 700l125 -129h-89l-69 71l-69 -71h-89l125 129h66z" />
    <glyph glyph-name="wdieresis" unicode="&#x1e85;" horiz-adv-x="684" 
d="M379 516l114 -402l100 402h78l-136 -516h-78l-115 405l-115 -405h-78l-136 516h78l100 -402l114 402h74zM280 684v-97h-75v97h75zM479 684v-97h-75v97h75z" />
    <glyph glyph-name="wgrave" unicode="&#x1e81;" horiz-adv-x="684" 
d="M379 516l114 -402l100 402h78l-136 -516h-78l-115 405l-115 -405h-78l-136 516h78l100 -402l114 402h74zM218 700h108l77 -129h-67z" />
    <glyph glyph-name="ycircumflex" unicode="&#x177;" horiz-adv-x="468" 
d="M462 516l-234 -647c-14 -40 -49 -52 -114 -53h-29v72h38c32 0 39 12 45 30l27 74l-189 524h80l148 -419l148 419h80zM267 700l125 -129h-89l-69 71l-69 -71h-89l125 129h66z" />
    <glyph glyph-name="ygrave" unicode="&#x1ef3;" horiz-adv-x="468" 
d="M462 516l-234 -647c-14 -40 -49 -52 -114 -53h-29v72h38c32 0 39 12 45 30l27 74l-189 524h80l148 -419l148 419h80zM110 700h108l77 -129h-67z" />
    <glyph glyph-name="uni0233" unicode="&#x233;" horiz-adv-x="468" 
d="M462 516l-234 -647c-14 -40 -49 -52 -114 -53h-29v72h38c32 0 39 12 45 30l27 74l-189 524h80l148 -419l148 419h80zM85 603v65h298v-65h-298z" />
    <glyph glyph-name="zacute" unicode="&#x17a;" horiz-adv-x="466" 
d="M421 444l-291 -372h298v-72h-389v72l291 372h-284v72h375v-72zM249 700h108l-118 -129h-67z" />
    <glyph glyph-name="zcaron" unicode="&#x17e;" horiz-adv-x="466" 
d="M421 444l-291 -372h298v-72h-389v72l291 372h-284v72h375v-72zM391 700l-125 -129h-66l-125 129h89l69 -71l69 71h89z" />
    <glyph glyph-name="zdotaccent" unicode="&#x17c;" horiz-adv-x="466" 
d="M421 444l-291 -372h298v-72h-389v72l291 372h-284v72h375v-72zM271 684v-97h-75v97h75z" />
    <glyph glyph-name="ellipsis" unicode="&#x2026;" horiz-adv-x="783" 
d="M339 0v105h105v-105h-105zM600 0v105h105v-105h-105zM78 0v105h105v-105h-105z" />
    <glyph glyph-name="endash" unicode="&#x2013;" horiz-adv-x="514" 
d="M459 248h-404v65h404v-65z" />
    <glyph glyph-name="emdash" unicode="&#x2014;" horiz-adv-x="813" 
d="M758 248h-703v65h703v-65z" />
    <glyph glyph-name="guilsinglleft" unicode="&#x2039;" horiz-adv-x="289" 
d="M224 89l-167 147v74l167 147v-87l-110 -97l110 -97v-87z" />
    <glyph glyph-name="guilsinglright" unicode="&#x203a;" horiz-adv-x="289" 
d="M232 236l-167 -147v87l110 97l-110 97v87l167 -147v-74z" />
    <glyph glyph-name="quoteleft" unicode="&#x2018;" horiz-adv-x="241" 
d="M173 606v-105h-105v105l35 94h64l-35 -94h41z" />
    <glyph glyph-name="quoteright" unicode="&#x2019;" horiz-adv-x="241" 
d="M68 595v105h105v-105l-35 -94h-64l35 94h-41z" />
    <glyph glyph-name="quotedblleft" unicode="&#x201c;" horiz-adv-x="424" 
d="M173 606v-105h-105v105l35 94h64l-35 -94h41zM356 606v-105h-105v105l35 94h64l-35 -94h41z" />
    <glyph glyph-name="quotedblright" unicode="&#x201d;" horiz-adv-x="424" 
d="M68 595v105h105v-105l-35 -94h-64l35 94h-41zM251 595v105h105v-105l-35 -94h-64l35 94h-41z" />
    <glyph glyph-name="quotesinglbase" unicode="&#x201a;" horiz-adv-x="241" 
d="M68 0v105h105v-105l-35 -94h-64l35 94h-41z" />
    <glyph glyph-name="quotedblbase" unicode="&#x201e;" horiz-adv-x="424" 
d="M68 0v105h105v-105l-35 -94h-64l35 94h-41zM251 0v105h105v-105l-35 -94h-64l35 94h-41z" />
    <glyph glyph-name="bullet" unicode="&#x2022;" horiz-adv-x="800" 
d="M232 298c0 93 75 168 168 168s168 -75 168 -168s-75 -168 -168 -168s-168 75 -168 168z" />
    <glyph glyph-name="dagger" unicode="&#x2020;" horiz-adv-x="583" 
d="M493 451h-169v-538h-65v538h-169v65h169v184h65v-184h169v-65z" />
    <glyph glyph-name="daggerdbl" unicode="&#x2021;" horiz-adv-x="583" 
d="M493 97h-169v-184h-65v184h-169v65h169v289h-169v65h169v184h65v-184h169v-65h-169v-289h169v-65z" />
    <glyph glyph-name="perthousand" unicode="&#x2030;" horiz-adv-x="1149" 
d="M954 57c38 0 62 20 62 65v162c0 45 -24 65 -62 65c-37 0 -61 -20 -61 -65v-162c0 -45 24 -65 61 -65zM954 -6c-51 0 -126 25 -126 126v166c0 101 75 126 126 126c52 0 127 -25 127 -126v-166c0 -101 -75 -126 -127 -126zM625 700h71l-481 -700h-71zM194 351
c38 0 62 20 62 65v162c0 45 -24 65 -62 65c-37 0 -61 -20 -61 -65v-162c0 -45 24 -65 61 -65zM194 288c-51 0 -126 25 -126 126v166c0 101 75 126 126 126c52 0 127 -25 127 -126v-166c0 -101 -75 -126 -127 -126zM645 57c38 0 62 20 62 65v162c0 45 -24 65 -62 65
c-37 0 -61 -20 -61 -65v-162c0 -45 24 -65 61 -65zM645 -6c-51 0 -126 25 -126 126v166c0 101 75 126 126 126c52 0 127 -25 127 -126v-166c0 -101 -75 -126 -127 -126z" />
    <glyph glyph-name="uni2117" unicode="&#x2117;" horiz-adv-x="810" 
d="M45 350c0 199 161 360 360 360s360 -161 360 -360s-161 -360 -360 -360s-360 161 -360 360zM110 350c0 -164 131 -296 295 -296s295 132 295 296s-131 296 -295 296s-295 -132 -295 -296zM276 141v418h165c96 0 142 -65 142 -139s-46 -139 -142 -139h-97v-140h-68z
M344 349h97c51 0 73 33 73 72c0 38 -22 72 -73 72h-97v-144z" />
    <glyph glyph-name="trademark" unicode="&#x2122;" horiz-adv-x="745" 
d="M122 294v342h-115v64h295v-64h-115v-342h-65zM355 294v406h65l107 -221l107 221h65v-406h-64v277l-81 -168h-53l-81 168v-277h-65z" />
    <glyph glyph-name="lozenge" unicode="&#x25ca;" 
d="M513 350l-203 -350h-62l-203 350l203 350h62zM121 350l158 -272l158 272l-158 272z" />
    <glyph glyph-name="afii61289" unicode="&#x2113;" horiz-adv-x="329" 
d="M76 138v59l-48 -38l-22 28l70 56v304c0 116 40 163 111 163c77 0 106 -63 106 -150c0 -96 -56 -226 -142 -302v-126c0 -67 26 -88 70 -88c18 0 40 4 63 9l9 -31c-38 -21 -74 -32 -106 -32c-80 0 -111 47 -111 148zM151 558v-251c59 63 108 166 108 250
c0 55 -12 98 -56 98c-31 0 -52 -22 -52 -97z" />
    <glyph glyph-name="afii61352" unicode="&#x2116;" horiz-adv-x="879" 
d="M532 700v-700h-77l-298 551v-551h-77v700h77l298 -551v551h77zM845 310h-253v55h253v-55zM719 458c37 0 61 20 61 65v58c0 44 -24 65 -61 65c-38 0 -62 -21 -62 -65v-58c0 -45 24 -65 62 -65zM719 395c-52 0 -127 25 -127 126v62c0 101 75 125 127 125
c51 0 126 -24 126 -125v-62c0 -101 -75 -126 -126 -126z" />
    <glyph glyph-name="apple" horiz-adv-x="629" 
d="M165 26c-37 8 -49 32 -49 78v256c-18 0 -31 9 -37 24c-15 6 -24 19 -24 37c0 11 4 21 11 28c-22 11 -36 33 -36 59c0 25 14 48 36 59c-7 7 -11 17 -11 28c0 20 13 37 32 40c8 27 33 48 63 48c16 0 32 -7 44 -17c9 25 33 44 61 44c23 0 43 -13 55 -31c8 4 18 7 29 7
c25 0 48 -15 59 -37c7 7 17 12 28 12c17 0 31 -10 37 -24c29 -7 51 -34 51 -64c0 -25 -14 -46 -34 -57v-38h4c62 0 80 -23 80 -80v-215c0 -57 -18 -80 -80 -80h-4c0 -46 -12 -69 -49 -77v-26h-266v26zM431 104v406c-11 3 -21 9 -29 17h-83c-12 -12 -28 -19 -46 -19
c-22 0 -41 10 -53 27c-5 -2 -10 -3 -16 -3c-12 0 -22 4 -29 11c-3 -5 -6 -10 -10 -15v-424c0 -25 8 -34 32 -34h202c24 0 32 9 32 34zM95 462v-19c-13 0 -21 -11 -21 -22c0 -12 9 -21 21 -21c0 -12 9 -21 21 -21v147c25 0 45 18 47 42v4h19c0 -13 10 -21 22 -21s21 9 21 21
h19c0 -10 -4 -19 -9 -26c8 -12 22 -19 38 -19c26 0 47 20 47 46h82c0 -26 20 -46 46 -46s47 20 47 46s-21 47 -47 47c0 12 -10 22 -22 22c-11 0 -21 -8 -21 -22h-19c0 26 -21 47 -47 47c-20 0 -37 -13 -43 -30c16 -5 28 -20 28 -38h-19c0 12 -10 21 -22 21s-21 -9 -21 -21
h-19c0 20 14 36 33 39c4 12 10 22 19 30c-8 14 -24 23 -40 23c-25 0 -45 -20 -46 -45c4 -9 7 -19 7 -29h-19c0 26 -21 47 -47 47c-20 0 -37 -12 -43 -30c17 -5 29 -20 29 -39h-19c0 12 -10 22 -22 22s-21 -10 -21 -22c0 -11 7 -20 17 -21h4v-19h-4c-24 -2 -42 -22 -42 -47
s18 -45 42 -46h4zM515 183v215c0 25 -8 34 -31 34h-4v-283h4c23 0 31 9 31 34zM206 103v375h15v-375h-15zM374 103v375h15v-375h-15zM318 103v375h15v-375h-15zM262 103v375h15v-375h-15z" />
    <glyph glyph-name="estimated" unicode="&#x212e;" horiz-adv-x="814" 
d="M177 290v-173c0 -10 5 -19 12 -25c23 -19 50 -35 78 -46c42 -16 90 -22 140 -22s98 6 140 22c37 15 70 36 98 64h50c-35 -42 -80 -75 -131 -95c-48 -19 -101 -25 -157 -25s-109 6 -157 25c-117 47 -205 158 -205 302s88 255 205 302c48 19 101 25 157 25s109 -6 157 -25
c117 -47 205 -158 205 -302v-17h-582c-6 0 -10 -4 -10 -10zM637 344v173c0 10 -5 19 -12 25c-23 19 -50 35 -78 46c-42 16 -90 22 -140 22s-98 -6 -140 -22c-28 -11 -55 -27 -78 -46c-7 -6 -12 -15 -12 -25v-173c0 -6 4 -10 10 -10h440c6 0 10 4 10 10z" />
    <glyph glyph-name="minus" unicode="&#x2212;" 
d="M481 248h-404v65h404v-65z" />
    <glyph glyph-name="lessequal" unicode="&#x2264;" 
d="M160 326l321 -127v-70l-404 160v74l404 160v-70zM481 0h-404v65h404v-65z" />
    <glyph glyph-name="greaterequal" unicode="&#x2265;" 
d="M77 199l321 127l-321 127v70l404 -160v-74l-404 -160v70zM481 0h-404v65h404v-65z" />
    <glyph glyph-name="notequal" unicode="&#x2260;" 
d="M481 140h-280l-77 -86l-47 42l39 44h-39v65h97l126 140h-223v65h281l76 85l47 -42l-39 -43h39v-65h-97l-125 -140h222v-65z" />
    <glyph glyph-name="approxequal" unicode="&#x2248;" 
d="M119 117l-42 46c44 49 94 65 132 65c69 0 97 -46 146 -46c26 0 48 13 84 46l42 -46c-44 -49 -94 -65 -132 -65c-69 0 -97 46 -146 46c-26 0 -48 -13 -84 -46zM119 322l-42 46c44 49 94 65 132 65c69 0 97 -46 146 -46c26 0 48 13 84 46l42 -46c-44 -49 -94 -65 -132 -65
c-69 0 -97 46 -146 46c-26 0 -48 -13 -84 -46z" />
    <glyph glyph-name="partialdiff" unicode="&#x2202;" horiz-adv-x="566" 
d="M385 200c4 19 9 48 9 57c0 67 -45 117 -112 117c-89 0 -145 -48 -164 -147c-4 -20 -8 -40 -8 -57c0 -67 45 -117 112 -117c89 0 142 47 163 147zM504 474l-53 -274c-31 -160 -129 -210 -235 -210c-108 0 -171 80 -171 179c0 18 3 39 7 58c34 159 130 210 236 210
c57 0 109 -28 130 -66l24 128c2 11 3 21 3 31c0 67 -45 117 -112 117c-87 0 -144 -48 -162 -147h-66c30 160 128 210 234 210c108 0 171 -80 171 -179c0 -18 -2 -38 -6 -57z" />
    <glyph glyph-name="product" unicode="&#x220f;" horiz-adv-x="612" 
d="M80 0v700h452v-700h-77v624h-298v-624h-77z" />
    <glyph glyph-name="radical" unicode="&#x221a;" horiz-adv-x="502" 
d="M457 700l-209 -700h-64l-71 236h-68v64h116l55 -184l175 584h66z" />
    <glyph glyph-name="summation" unicode="&#x2211;" horiz-adv-x="702" 
d="M391 258l-306 378v64h522v-64h-435l306 -378l-306 -378h435v-64h-522v64z" />
    <glyph glyph-name="integral" unicode="&#x222b;" horiz-adv-x="301" 
d="M183 585v-646c0 -88 -27 -123 -123 -123v64h6c41 0 52 16 52 51v646c0 88 27 123 123 123v-64h-6c-41 0 -52 -16 -52 -51z" />
    <glyph glyph-name="infinity" unicode="&#x221e;" 
d="M56 336c0 70 55 126 125 126c40 0 75 -18 98 -47c23 29 58 47 98 47c70 0 126 -56 126 -126s-56 -125 -126 -125c-40 0 -75 18 -98 46c-23 -29 -58 -46 -98 -46c-70 0 -125 55 -125 125zM317 336c0 -34 25 -61 60 -61s61 27 61 61s-26 62 -61 62s-60 -28 -60 -62z
M121 336c0 -34 25 -61 60 -61s61 27 61 61s-26 62 -61 62s-60 -28 -60 -62z" />
    <glyph glyph-name="Delta" unicode="&#x394;" horiz-adv-x="566" 
d="M552 0h-538l225 700h88zM449 76l-166 517l-167 -517h333z" />
    <glyph glyph-name="Delta" unicode="&#x2206;" horiz-adv-x="566" 
d="M552 0h-538l225 700h88zM449 76l-166 517l-167 -517h333z" />
    <glyph glyph-name="Omega" unicode="&#x3a9;" horiz-adv-x="562" 
d="M70 0v76h85v39c-62 39 -100 110 -100 204v154c0 147 92 237 226 237s226 -90 226 -237v-154c0 -94 -38 -165 -100 -204v-39h85v-76h-161v165c58 18 99 71 99 154v154c0 106 -66 161 -149 161s-149 -55 -149 -161v-154c0 -84 41 -136 99 -154v-165h-161z" />
    <glyph glyph-name="Omega" unicode="&#x2126;" horiz-adv-x="562" 
d="M70 0v76h85v39c-62 39 -100 110 -100 204v154c0 147 92 237 226 237s226 -90 226 -237v-154c0 -94 -38 -165 -100 -204v-39h85v-76h-161v165c58 18 99 71 99 154v154c0 106 -66 161 -149 161s-149 -55 -149 -161v-154c0 -84 41 -136 99 -154v-165h-161z" />
    <glyph glyph-name="pi" unicode="&#x3c0;" horiz-adv-x="606" 
d="M101 444h-73v72h550v-72h-73v-444h-75v444h-254v-444h-75v444z" />
    <glyph glyph-name="Euro" unicode="&#x20ac;" horiz-adv-x="583" 
d="M196 436h276l-13 -53h-263v-65h246l-14 -53h-232v-38c0 -108 68 -165 151 -165c48 0 91 19 119 57l61 -46c-40 -53 -103 -83 -180 -83c-134 0 -226 90 -226 237v38h-77l14 53h63v65h-77l13 53h64v37c0 147 92 237 226 237c77 0 140 -30 180 -83l-61 -46
c-28 38 -71 57 -119 57c-83 0 -151 -57 -151 -165v-37z" />
    <glyph glyph-name="fi" unicode="&#xfb01;" horiz-adv-x="542" 
d="M303 628h-79c-36 0 -48 -12 -48 -45v-67h127v-72h-127v-444h-75v444h-73v72h73v61c0 88 27 123 123 123h79v-72zM467 700v-97h-75v97h75zM467 516v-516h-75v516h75z" />
    <glyph glyph-name="fl" unicode="&#xfb02;" horiz-adv-x="571" 
d="M303 628h-79c-36 0 -48 -12 -48 -45v-67h127v-72h-127v-444h-75v444h-73v72h73v61c0 88 27 123 123 123h79v-72zM465 700v-583c0 -33 12 -45 48 -45h16v-72h-16c-96 0 -123 35 -123 123v577h75z" />
    <glyph glyph-name="uniFB00" unicode="&#xfb00;" horiz-adv-x="634" 
d="M303 628h-79c-36 0 -48 -12 -48 -45v-67h127v-72h-127v-444h-75v444h-73v72h73v61c0 88 27 123 123 123h79v-72zM620 628h-79c-36 0 -48 -12 -48 -45v-67h127v-72h-127v-444h-75v444h-73v72h73v61c0 88 27 123 123 123h79v-72z" />
    <glyph glyph-name="uniFB03" unicode="&#xfb03;" horiz-adv-x="859" 
d="M303 628h-79c-36 0 -48 -12 -48 -45v-67h127v-72h-127v-444h-75v444h-73v72h73v61c0 88 27 123 123 123h79v-72zM620 628h-79c-36 0 -48 -12 -48 -45v-67h127v-72h-127v-444h-75v444h-73v72h73v61c0 88 27 123 123 123h79v-72zM784 700v-97h-75v97h75zM784 516v-516h-75
v516h75z" />
    <glyph glyph-name="uniFB04" unicode="&#xfb04;" horiz-adv-x="888" 
d="M303 628h-79c-36 0 -48 -12 -48 -45v-67h127v-72h-127v-444h-75v444h-73v72h73v61c0 88 27 123 123 123h79v-72zM620 628h-79c-36 0 -48 -12 -48 -45v-67h127v-72h-127v-444h-75v444h-73v72h73v61c0 88 27 123 123 123h79v-72zM782 700v-583c0 -33 12 -45 48 -45h16v-72
h-16c-96 0 -123 35 -123 123v577h75z" />
    <glyph glyph-name="breve" unicode="&#x2d8;" horiz-adv-x="394" 
d="M178 571c-71 0 -129 58 -129 129h61c0 -38 30 -68 68 -68h38c38 0 68 30 68 68h61c0 -71 -58 -129 -129 -129h-38z" />
    <glyph glyph-name="caron" unicode="&#x2c7;" horiz-adv-x="432" 
d="M374 700l-125 -129h-66l-125 129h89l69 -71l69 71h89z" />
    <glyph glyph-name="circumflex" unicode="&#x2c6;" horiz-adv-x="432" 
d="M249 700l125 -129h-89l-69 71l-69 -71h-89l125 129h66z" />
    <glyph glyph-name="dotaccent" unicode="&#x2d9;" horiz-adv-x="183" 
d="M129 684v-97h-75v97h75z" />
    <glyph glyph-name="hungarumlaut" unicode="&#x2dd;" horiz-adv-x="457" 
d="M133 700h103l-108 -129h-62zM301 700h103l-108 -129h-62z" />
    <glyph glyph-name="commaaccent" horiz-adv-x="265" 
d="M85 -145v95h95v-95l-25 -84h-64l25 84h-31z" />
    <glyph glyph-name="ogonek" unicode="&#x2db;" horiz-adv-x="242" 
d="M202 0c-41 -30 -82 -61 -82 -97c0 -22 13 -31 30 -31c18 0 39 9 52 17v-60c-18 -12 -41 -18 -63 -18c-58 0 -94 28 -94 86c0 48 37 81 82 103h75z" />
    <glyph glyph-name="ring" unicode="&#x2da;" horiz-adv-x="245" 
d="M94 635c0 -15 13 -28 28 -28s28 13 28 28s-13 28 -28 28s-28 -13 -28 -28zM48 635c0 41 33 75 74 75s75 -34 75 -75s-34 -74 -75 -74s-74 33 -74 74z" />
    <glyph glyph-name="tilde" unicode="&#x2dc;" horiz-adv-x="440" 
d="M119 586h-58c12 59 53 102 103 102c21 0 39 -5 55 -14l30 -17c8 -5 19 -9 31 -9c17 0 36 16 41 38h58c-12 -59 -53 -102 -103 -102c-21 0 -39 5 -55 14l-30 17c-8 5 -19 9 -31 9c-17 0 -36 -16 -41 -38z" />
    <glyph glyph-name="uni032C" unicode="&#x32c;" horiz-adv-x="432" 
d="M374 0l-125 -129h-66l-125 129h89l69 -71l69 71h89z" />
    <glyph glyph-name="zero.slashed" horiz-adv-x="532" 
d="M468 508v-316c0 -152 -106 -202 -202 -202s-202 50 -202 202v316c0 152 106 202 202 202s202 -50 202 -202zM393 191v249l-254 -254c2 -83 61 -124 127 -124c67 0 127 43 127 129zM139 509v-248l254 254c-3 82 -62 123 -127 123c-67 0 -127 -43 -127 -129z" />
    <glyph glyph-name="one.tlf" 
d="M339 72h164v-72h-404v72h165v533l-134 -115v95l134 115h75v-628z" />
    <glyph glyph-name="two.tlf" 
d="M75 508c0 152 106 202 202 202s202 -51 202 -199c0 -84 -41 -146 -102 -213l-205 -226h307v-72h-404v72l249 274c44 48 80 105 80 166c0 82 -60 126 -127 126s-127 -43 -127 -129v-19h-75v18z" />
    <glyph glyph-name="three.tlf" 
d="M71 192v8h75v-9c0 -86 62 -129 132 -129c72 0 122 45 122 124c0 67 -46 130 -122 130h-50v72h50c69 0 122 45 122 126c0 78 -58 124 -127 124c-67 0 -127 -43 -127 -129v-9h-75v8c0 152 106 202 202 202c101 0 202 -57 202 -196c0 -78 -38 -138 -85 -162
c47 -26 85 -86 85 -166c0 -140 -101 -196 -197 -196c-99 0 -207 50 -207 202z" />
    <glyph glyph-name="four.tlf" 
d="M502 189h-73v-189h-75v189h-321v70l321 441h75v-441h73v-70zM119 259h235v322z" />
    <glyph glyph-name="five.tlf" 
d="M175 296h-75v404h368v-72h-293v-224c30 26 76 40 118 40c96 0 202 -50 202 -202v-50c0 -152 -106 -202 -202 -202s-202 50 -202 202v8h75v-9c0 -86 60 -129 127 -129s127 43 127 129v52c0 86 -60 129 -127 129c-51 0 -99 -25 -118 -76z" />
    <glyph glyph-name="six.tlf" 
d="M80 508c0 152 106 202 202 202s202 -50 202 -202v-8h-75v9c0 86 -60 129 -127 129s-127 -43 -127 -129v-121c26 30 80 49 127 49c96 0 202 -50 202 -202v-43c0 -152 -106 -202 -202 -202s-202 50 -202 202v316zM155 236v-45c0 -86 60 -129 127 -129s127 43 127 129v45
c0 86 -60 129 -127 129s-127 -43 -127 -129z" />
    <glyph glyph-name="seven.tlf" 
d="M470 628l-221 -628h-79l221 628h-319v72h398v-72z" />
    <glyph glyph-name="eight.tlf" 
d="M279 317c-67 0 -127 -50 -127 -128s60 -127 127 -127s127 49 127 127s-60 128 -127 128zM279 -10c-103 0 -202 62 -202 199c0 74 27 128 82 163c-45 36 -75 85 -75 161c0 138 97 197 195 197s195 -59 195 -197c0 -76 -30 -125 -75 -161c55 -35 82 -89 82 -163
c0 -137 -99 -199 -202 -199zM279 638c-76 0 -120 -52 -120 -125c0 -83 54 -125 120 -125s120 42 120 125c0 73 -44 125 -120 125z" />
    <glyph glyph-name="nine.tlf" 
d="M478 508v-316c0 -152 -106 -202 -202 -202s-202 50 -202 202v8h75v-9c0 -86 60 -129 127 -129s127 43 127 129v121c-26 -30 -80 -49 -127 -49c-96 0 -202 50 -202 202v43c0 152 106 202 202 202s202 -50 202 -202zM403 464v45c0 86 -60 129 -127 129s-127 -43 -127 -129
v-45c0 -86 60 -129 127 -129s127 43 127 129z" />
    <glyph glyph-name="zero.tlf" 
d="M406 191v318c0 86 -60 129 -127 129s-127 -43 -127 -129v-318c0 -86 60 -129 127 -129s127 43 127 129zM481 508v-316c0 -152 -106 -202 -202 -202s-202 50 -202 202v316c0 152 106 202 202 202s202 -50 202 -202z" />
    <glyph glyph-name="zero.slashed.tlf" 
d="M481 508v-316c0 -152 -106 -202 -202 -202s-202 50 -202 202v316c0 152 106 202 202 202s202 -50 202 -202zM406 191v249l-254 -254c2 -83 61 -124 127 -124c67 0 127 43 127 129zM152 509v-248l254 254c-3 82 -62 123 -127 123c-67 0 -127 -43 -127 -129z" />
    <glyph glyph-name="one.case" horiz-adv-x="353" 
d="M186 0v596l-134 -115v104l134 115h77v-700h-77z" />
    <glyph glyph-name="two.case" horiz-adv-x="516" 
d="M53 0v76l264 290c36 39 64 87 64 144c0 81 -59 124 -126 124c-66 0 -125 -42 -125 -127v-18h-77v17c0 155 107 204 202 204c96 0 203 -50 203 -201c0 -81 -31 -131 -87 -193l-218 -240h305v-76h-405z" />
    <glyph glyph-name="three.case" horiz-adv-x="522" 
d="M260 -10c-99 0 -208 49 -208 203v7h77v-8c0 -84 61 -126 130 -126c72 0 121 43 121 121c0 67 -46 127 -121 127h-50v75h50c69 0 121 45 121 123c0 76 -57 122 -126 122c-66 0 -125 -42 -125 -126v-8h-77v7c0 154 107 203 202 203c101 0 203 -57 203 -198
c0 -76 -37 -136 -85 -160c48 -26 85 -87 85 -165c0 -141 -101 -197 -197 -197z" />
    <glyph glyph-name="four.case" horiz-adv-x="523" 
d="M340 0v187h-320v76l320 437h77v-437h73v-76h-73v-187h-77zM111 263h229v308z" />
    <glyph glyph-name="five.case" horiz-adv-x="523" 
d="M272 -10c-96 0 -203 49 -203 203v7h77v-8c0 -84 59 -126 126 -126c66 0 125 42 125 125v51c0 85 -59 127 -126 127c-50 0 -98 -24 -116 -74h-77v405h369v-76h-292v-218c29 25 75 39 117 39c95 0 202 -49 202 -204v-49c0 -151 -106 -202 -202 -202z" />
    <glyph glyph-name="six.case" horiz-adv-x="537" 
d="M271 -10c-95 0 -202 49 -202 204v312c0 155 107 204 202 204c96 0 203 -49 203 -203v-7h-77v8c0 84 -59 126 -126 126c-66 0 -125 -42 -125 -127v-116c26 29 79 47 126 47c95 0 202 -49 202 -204v-40c0 -155 -107 -204 -203 -204zM271 66c67 0 126 42 126 127v42
c0 85 -59 127 -126 127c-66 0 -125 -42 -125 -127v-42c0 -85 59 -127 125 -127z" />
    <glyph glyph-name="seven.case" horiz-adv-x="451" 
d="M122 0l220 624h-319v76h399v-76l-220 -624h-80z" />
    <glyph glyph-name="eight.case" horiz-adv-x="535" 
d="M267 -10c-102 0 -202 60 -202 200c0 74 27 127 81 162c-45 37 -74 85 -74 160c0 140 98 198 195 198c98 0 196 -58 196 -198c0 -75 -29 -123 -74 -160c54 -35 81 -88 81 -162c0 -140 -100 -200 -203 -200zM267 66c67 0 126 47 126 124s-59 125 -126 125
c-66 0 -125 -48 -125 -125s59 -124 125 -124zM267 390c66 0 119 41 119 122c0 72 -44 122 -119 122c-74 0 -118 -50 -118 -122c0 -81 53 -122 118 -122z" />
    <glyph glyph-name="nine.case" horiz-adv-x="537" 
d="M265 -10c-95 0 -202 49 -202 203v7h77v-8c0 -84 59 -126 125 -126c67 0 126 42 126 127v116c-26 -29 -79 -47 -126 -47c-95 0 -202 49 -202 204v40c0 155 107 204 202 204c96 0 203 -49 203 -204v-312c0 -155 -107 -204 -203 -204zM265 338c67 0 126 42 126 127v42
c0 85 -59 127 -126 127c-66 0 -125 -42 -125 -127v-42c0 -85 59 -127 125 -127z" />
    <glyph glyph-name="zero.case" horiz-adv-x="543" 
d="M271 66c67 0 126 42 126 127v314c0 85 -59 127 -126 127c-66 0 -125 -42 -125 -127v-314c0 -85 59 -127 125 -127zM271 -10c-95 0 -202 49 -202 204v312c0 155 107 204 202 204c96 0 203 -49 203 -204v-312c0 -155 -107 -204 -203 -204z" />
    <glyph glyph-name="zero.slashed.case" horiz-adv-x="543" 
d="M271 -10c-95 0 -202 49 -202 204v312c0 155 107 204 202 204c96 0 203 -49 203 -204v-312c0 -155 -107 -204 -203 -204zM271 66c67 0 126 42 126 127v246l-251 -251c2 -82 60 -122 125 -122zM146 507v-244l251 251c-3 80 -61 120 -126 120c-66 0 -125 -42 -125 -127z" />
    <glyph glyph-name="uni21B2" unicode="&#x21b2;" horiz-adv-x="800" 
d="M167 243l208 -208l-45 -45l-285 285l285 285l45 -45l-208 -208h524v393h64v-457h-588z" />
    <glyph glyph-name="uni21B3" unicode="&#x21b3;" horiz-adv-x="800" 
d="M425 35l208 208h-588v457h64v-393h524l-208 208l45 45l285 -285l-285 -285z" />
    <glyph glyph-name="uni21B0" unicode="&#x21b0;" horiz-adv-x="800" 
d="M167 243l208 -208l-45 -45l-285 285l285 285l45 -45l-208 -208h588v-491h-64v427h-524z" />
    <glyph glyph-name="uni21B1" unicode="&#x21b1;" horiz-adv-x="800" 
d="M109 243v-427h-64v491h588l-208 208l45 45l285 -285l-285 -285l-45 45l208 208h-524z" />
    <glyph glyph-name="uni2190" unicode="&#x2190;" horiz-adv-x="800" 
d="M167 243l208 -208l-45 -45l-285 285l285 285l45 -45l-208 -208h588v-64h-588z" />
    <glyph glyph-name="uni2191" unicode="&#x2191;" horiz-adv-x="800" 
d="M368 588l-208 -208l-45 45l285 285l285 -285l-45 -45l-208 208v-588h-64v588z" />
    <glyph glyph-name="uni2192" unicode="&#x2192;" horiz-adv-x="800" 
d="M425 35l208 208h-588v64h588l-208 208l45 45l285 -285l-285 -285z" />
    <glyph glyph-name="uni2193" unicode="&#x2193;" horiz-adv-x="800" 
d="M160 320l208 -208v588h64v-588l208 208l45 -45l-285 -285l-285 285z" />
    <glyph glyph-name="uni2196" unicode="&#x2196;" horiz-adv-x="800" 
d="M195 463v-294h-64v403h403v-63h-294l470 -469l-45 -45z" />
    <glyph glyph-name="uni2197" unicode="&#x2197;" horiz-adv-x="800" 
d="M605 169v294l-470 -468l-45 45l470 469h-294v63h403v-403h-64z" />
    <glyph glyph-name="uni2198" unicode="&#x2198;" horiz-adv-x="800" 
d="M605 109v294h64v-403h-403v63h294l-470 469l45 45z" />
    <glyph glyph-name="uni2199" unicode="&#x2199;" horiz-adv-x="800" 
d="M195 403v-294l470 468l45 -45l-470 -469h294v-63h-403v403h64z" />
    <glyph glyph-name="uni25A0" unicode="&#x25a0;" horiz-adv-x="800" 
d="M142 0v516h516v-516h-516z" />
    <glyph glyph-name="uni25A1" unicode="&#x25a1;" horiz-adv-x="800" 
d="M142 0v516h516v-516h-516zM206 452v-388h388v388h-388z" />
    <glyph glyph-name="uni25CB" unicode="&#x25cb;" horiz-adv-x="800" 
d="M130 260c0 149 121 270 270 270s270 -121 270 -270s-121 -270 -270 -270s-270 121 -270 270zM194 260c0 -114 92 -206 206 -206s206 92 206 206s-92 206 -206 206s-206 -92 -206 -206z" />
    <glyph glyph-name="uni25CF" unicode="&#x25cf;" horiz-adv-x="800" 
d="M130 260c0 149 121 270 270 270s270 -121 270 -270s-121 -270 -270 -270s-270 121 -270 270z" />
    <glyph glyph-name="onethird" unicode="&#x2153;" horiz-adv-x="751" 
d="M144 294v322l-78 -67v84l78 67h65v-406h-65zM553 700h71l-481 -700h-71zM576 -6c-54 0 -130 24 -131 122h65c1 -40 28 -59 64 -59c35 0 59 18 59 56s-27 60 -62 60h-35v59h35c40 0 62 23 62 56c0 35 -24 61 -62 61c-36 0 -60 -19 -61 -59h-65c2 96 76 122 126 122
c51 0 127 -31 127 -124c0 -37 -19 -70 -48 -85c30 -16 48 -54 48 -90c0 -88 -64 -119 -122 -119z" />
    <glyph glyph-name="uni2155" unicode="&#x2155;" horiz-adv-x="749" 
d="M144 294v322l-78 -67v84l78 67h65v-406h-65zM553 700h71l-481 -700h-71zM586 -6c-54 0 -129 24 -131 122h65c1 -40 28 -59 64 -59s59 18 59 55v23c0 44 -24 65 -62 65c-27 0 -47 -12 -56 -34h-65v240h232v-63h-167v-101c12 12 40 21 64 21c46 0 119 -25 119 -126v-25
c0 -86 -63 -118 -122 -118z" />
    <glyph glyph-name="uni2159" unicode="&#x2159;" horiz-adv-x="750" 
d="M144 294v322l-78 -67v84l78 67h65v-406h-65zM553 700h71l-481 -700h-71zM576 -6c-51 0 -126 25 -126 126v166c0 101 75 126 126 126s125 -24 127 -122h-65c-2 40 -26 59 -62 59c-37 0 -61 -20 -61 -65v-45c14 11 40 19 66 19c45 0 122 -24 122 -125v-13
c0 -101 -75 -126 -127 -126zM576 57c38 0 62 20 62 65v9c0 44 -24 65 -62 65c-37 0 -61 -21 -61 -65v-9c0 -45 24 -65 61 -65z" />
    <glyph glyph-name="oneeighth" unicode="&#x215b;" horiz-adv-x="728" 
d="M144 294v322l-78 -67v84l78 67h65v-406h-65zM553 700h71l-481 -700h-71zM564 -6c-50 0 -127 28 -127 121c0 40 16 67 42 89c-26 24 -37 50 -37 89c0 92 72 119 122 119s122 -27 122 -119c0 -39 -11 -65 -37 -89c26 -22 41 -49 41 -89c0 -93 -76 -121 -126 -121zM564 57
c36 0 61 19 61 60c0 37 -25 59 -61 59s-61 -21 -61 -59c0 -42 25 -60 61 -60zM563 233c33 0 58 21 58 58c0 38 -27 58 -58 58c-32 0 -56 -20 -56 -58c0 -37 23 -58 56 -58z" />
    <glyph glyph-name="twothirds" unicode="&#x2154;" horiz-adv-x="809" 
d="M47 294v63l148 152c29 30 39 46 39 69c0 45 -24 65 -61 65s-61 -20 -61 -64v-4h-65v5c0 101 75 126 126 126s126 -25 126 -126c0 -43 -14 -70 -55 -112l-108 -111h163v-63h-252zM611 700h71l-481 -700h-71zM634 -6c-54 0 -130 24 -131 122h65c1 -40 28 -59 64 -59
c35 0 59 18 59 56s-27 60 -62 60h-35v59h35c40 0 62 23 62 56c0 35 -24 61 -62 61c-36 0 -60 -19 -61 -59h-65c2 96 76 122 126 122c51 0 127 -31 127 -124c0 -37 -19 -70 -48 -85c30 -16 48 -54 48 -90c0 -88 -64 -119 -122 -119z" />
    <glyph glyph-name="uni2156" unicode="&#x2156;" horiz-adv-x="807" 
d="M47 294v63l148 152c29 30 39 46 39 69c0 45 -24 65 -61 65s-61 -20 -61 -64v-4h-65v5c0 101 75 126 126 126s126 -25 126 -126c0 -43 -14 -70 -55 -112l-108 -111h163v-63h-252zM611 700h71l-481 -700h-71zM644 -6c-54 0 -129 24 -131 122h65c1 -40 28 -59 64 -59
s59 18 59 55v23c0 44 -24 65 -62 65c-27 0 -47 -12 -56 -34h-65v240h232v-63h-167v-101c12 12 40 21 64 21c46 0 119 -25 119 -126v-25c0 -86 -63 -118 -122 -118z" />
    <glyph glyph-name="uni2157" unicode="&#x2157;" horiz-adv-x="804" 
d="M177 288c-54 0 -130 24 -131 122h65c1 -40 28 -59 64 -59c35 0 59 18 59 56s-27 60 -62 60h-35v59h35c40 0 62 23 62 56c0 35 -24 61 -62 61c-36 0 -60 -19 -61 -59h-65c2 96 76 122 126 122c51 0 127 -31 127 -124c0 -37 -19 -70 -48 -85c30 -16 48 -54 48 -90
c0 -88 -64 -119 -122 -119zM608 700h71l-481 -700h-71zM641 -6c-54 0 -129 24 -131 122h65c1 -40 28 -59 64 -59s59 18 59 55v23c0 44 -24 65 -62 65c-27 0 -47 -12 -56 -34h-65v240h232v-63h-167v-101c12 12 40 21 64 21c46 0 119 -25 119 -126v-25
c0 -86 -63 -118 -122 -118z" />
    <glyph glyph-name="threeeighths" unicode="&#x215c;" horiz-adv-x="783" 
d="M177 288c-54 0 -130 24 -131 122h65c1 -40 28 -59 64 -59c35 0 59 18 59 56s-27 60 -62 60h-35v59h35c40 0 62 23 62 56c0 35 -24 61 -62 61c-36 0 -60 -19 -61 -59h-65c2 96 76 122 126 122c51 0 127 -31 127 -124c0 -37 -19 -70 -48 -85c30 -16 48 -54 48 -90
c0 -88 -64 -119 -122 -119zM608 700h71l-481 -700h-71zM619 -6c-50 0 -127 28 -127 121c0 40 16 67 42 89c-26 24 -37 50 -37 89c0 92 72 119 122 119s122 -27 122 -119c0 -39 -11 -65 -37 -89c26 -22 41 -49 41 -89c0 -93 -76 -121 -126 -121zM619 57c36 0 61 19 61 60
c0 37 -25 59 -61 59s-61 -21 -61 -59c0 -42 25 -60 61 -60zM618 233c33 0 58 21 58 58c0 38 -27 58 -58 58c-32 0 -56 -20 -56 -58c0 -37 23 -58 56 -58z" />
    <glyph glyph-name="uni2158" unicode="&#x2158;" horiz-adv-x="771" 
d="M176 294v98h-179v63l179 245h65v-245h43v-63h-43v-98h-65zM76 455h100v138zM575 700h71l-481 -700h-71zM608 -6c-54 0 -129 24 -131 122h65c1 -40 28 -59 64 -59s59 18 59 55v23c0 44 -24 65 -62 65c-27 0 -47 -12 -56 -34h-65v240h232v-63h-167v-101c12 12 40 21 64 21
c46 0 119 -25 119 -126v-25c0 -86 -63 -118 -122 -118z" />
    <glyph glyph-name="uni215A" unicode="&#x215a;" horiz-adv-x="803" 
d="M187 288c-54 0 -129 24 -131 122h65c1 -40 28 -59 64 -59s59 18 59 55v23c0 44 -24 65 -62 65c-27 0 -47 -12 -56 -34h-65v240h232v-63h-167v-101c12 12 40 21 64 21c46 0 119 -25 119 -126v-25c0 -86 -63 -118 -122 -118zM606 700h71l-481 -700h-71zM629 -6
c-51 0 -126 25 -126 126v166c0 101 75 126 126 126s125 -24 127 -122h-65c-2 40 -26 59 -62 59c-37 0 -61 -20 -61 -65v-45c14 11 40 19 66 19c45 0 122 -24 122 -125v-13c0 -101 -75 -126 -127 -126zM629 57c38 0 62 20 62 65v9c0 44 -24 65 -62 65c-37 0 -61 -21 -61 -65
v-9c0 -45 24 -65 61 -65z" />
    <glyph glyph-name="fiveeighths" unicode="&#x215d;" horiz-adv-x="781" 
d="M187 288c-54 0 -129 24 -131 122h65c1 -40 28 -59 64 -59s59 18 59 55v23c0 44 -24 65 -62 65c-27 0 -47 -12 -56 -34h-65v240h232v-63h-167v-101c12 12 40 21 64 21c46 0 119 -25 119 -126v-25c0 -86 -63 -118 -122 -118zM606 700h71l-481 -700h-71zM617 -6
c-50 0 -127 28 -127 121c0 40 16 67 42 89c-26 24 -37 50 -37 89c0 92 72 119 122 119s122 -27 122 -119c0 -39 -11 -65 -37 -89c26 -22 41 -49 41 -89c0 -93 -76 -121 -126 -121zM617 57c36 0 61 19 61 60c0 37 -25 59 -61 59s-61 -21 -61 -59c0 -42 25 -60 61 -60z
M616 233c33 0 58 21 58 58c0 38 -27 58 -58 58c-32 0 -56 -20 -56 -58c0 -37 23 -58 56 -58z" />
    <glyph glyph-name="seveneighths" unicode="&#x215e;" horiz-adv-x="712" 
d="M87 294l125 343h-183v63h250v-63l-125 -343h-67zM537 700h71l-481 -700h-71zM548 -6c-50 0 -127 28 -127 121c0 40 16 67 42 89c-26 24 -37 50 -37 89c0 92 72 119 122 119s122 -27 122 -119c0 -39 -11 -65 -37 -89c26 -22 41 -49 41 -89c0 -93 -76 -121 -126 -121z
M548 57c36 0 61 19 61 60c0 37 -25 59 -61 59s-61 -21 -61 -59c0 -42 25 -60 61 -60zM547 233c33 0 58 21 58 58c0 38 -27 58 -58 58c-32 0 -56 -20 -56 -58c0 -37 23 -58 56 -58z" />
    <glyph glyph-name="uni215F" unicode="&#x215f;" horiz-adv-x="399" 
d="M144 294v322l-78 -67v84l78 67h65v-406h-65zM553 700h71l-481 -700h-71z" />
    <glyph glyph-name="fraction" unicode="&#x2044;" horiz-adv-x="102" 
d="M256 700h71l-481 -700h-71z" />
    <glyph glyph-name="a.superior" horiz-adv-x="323" 
d="M132 395c-56 0 -103 27 -103 89c0 35 15 75 65 91c36 11 75 14 125 17c-3 36 -26 54 -60 54c-30 0 -50 -13 -59 -39h-66c11 81 77 101 125 101c51 0 126 -24 126 -125v-182h-65v28c-19 -23 -49 -34 -88 -34zM142 458c32 0 78 7 78 65v12c-51 -3 -92 -7 -114 -21
c-4 -2 -12 -9 -12 -24c0 -24 18 -32 48 -32z" />
    <glyph glyph-name="b.superior" horiz-adv-x="329" 
d="M176 395c-32 0 -62 18 -69 34v-28h-65v406h65v-132c7 15 37 33 69 33c51 0 119 -32 119 -125v-62c0 -93 -68 -126 -119 -126zM169 458c37 0 61 20 61 65v58c0 44 -24 64 -61 64c-38 0 -62 -20 -62 -64v-58c0 -45 24 -65 62 -65z" />
    <glyph glyph-name="c.superior" horiz-adv-x="315" 
d="M161 395c-52 0 -127 25 -127 126v62c0 101 75 125 127 125c48 0 118 -22 125 -109h-66c-6 32 -28 47 -59 47c-38 0 -62 -21 -62 -65v-58c0 -45 24 -65 62 -65c31 0 54 15 60 46h65c-7 -87 -77 -109 -125 -109z" />
    <glyph glyph-name="d.superior" horiz-adv-x="329" 
d="M153 395c-50 0 -119 33 -119 126v62c0 93 69 125 119 125c33 0 62 -18 69 -33v132h65v-406h-65v28c-7 -16 -36 -34 -69 -34zM156 458c37 0 66 20 66 65v58c0 44 -24 64 -61 64c-38 0 -62 -20 -62 -64v-58c0 -45 24 -65 57 -65z" />
    <glyph glyph-name="e.superior" horiz-adv-x="318" 
d="M161 395c-52 0 -127 25 -127 126v62c0 101 75 125 127 125c51 0 126 -24 126 -125v-55h-188v-5c0 -45 24 -65 62 -65c29 0 49 12 58 38h66c-11 -80 -77 -101 -124 -101zM99 585h123c-1 40 -25 61 -61 61c-38 0 -62 -21 -62 -61z" />
    <glyph glyph-name="f.superior" horiz-adv-x="203" 
d="M57 401v237h-42v62h42v36c0 46 23 71 72 71h67v-63h-46c-24 0 -28 -6 -28 -29v-15h74v-62h-74v-237h-65z" />
    <glyph glyph-name="g.superior" horiz-adv-x="328" 
d="M159 288c-48 0 -116 22 -125 108h66c6 -30 28 -45 59 -45c38 0 62 21 62 65v32c-7 -16 -37 -34 -69 -34c-51 0 -119 33 -119 126v43c0 93 68 125 119 125c32 0 62 -18 69 -33v25h65v-286c0 -101 -75 -126 -127 -126zM159 477c38 0 62 20 62 64v40c0 44 -24 64 -62 64
c-37 0 -61 -20 -61 -64v-40c0 -44 24 -64 61 -64z" />
    <glyph glyph-name="h.superior" horiz-adv-x="333" 
d="M42 401v406h65v-132c7 15 37 33 69 33c51 0 119 -32 119 -125v-182h-65v180c0 44 -24 64 -61 64c-38 0 -62 -20 -62 -64v-180h-65z" />
    <glyph glyph-name="i.superior" horiz-adv-x="149" 
d="M42 401v299h65v-299h-65zM42 744v63h65v-63h-65z" />
    <glyph glyph-name="j.superior" horiz-adv-x="149" 
d="M5 294v63h9c25 0 28 6 28 29v314h65v-334c0 -46 -23 -72 -71 -72h-31zM42 744v63h65v-63h-65z" />
    <glyph glyph-name="k.superior" horiz-adv-x="314" 
d="M107 807v-224l108 117h78l-108 -117l124 -182h-75l-92 135l-35 -38v-97h-65v406h65z" />
    <glyph glyph-name="l.superior" horiz-adv-x="166" 
d="M143 401h-31c-48 0 -71 25 -71 71v335h65v-314c0 -23 3 -29 28 -29h9v-63z" />
    <glyph glyph-name="m.superior" horiz-adv-x="511" 
d="M42 401v299h65v-25c6 14 36 33 66 33c27 0 65 -13 85 -41c20 28 60 41 91 41c55 0 124 -31 124 -125v-182h-65v179c0 46 -26 65 -59 65s-59 -19 -59 -64v-180h-65v179c0 46 -25 65 -59 65c-33 0 -59 -19 -59 -64v-180h-65z" />
    <glyph glyph-name="n.superior" unicode="&#x207f;" horiz-adv-x="333" 
d="M42 401v299h65v-25c7 15 37 33 69 33c51 0 119 -32 119 -125v-182h-65v180c0 44 -24 64 -61 64c-38 0 -62 -20 -62 -64v-180h-65z" />
    <glyph glyph-name="o.superior" horiz-adv-x="321" 
d="M161 458c37 0 61 20 61 65v58c0 44 -24 65 -61 65c-38 0 -62 -21 -62 -65v-58c0 -45 24 -65 62 -65zM161 395c-52 0 -127 25 -127 126v62c0 101 75 125 127 125c51 0 126 -24 126 -125v-62c0 -101 -75 -126 -126 -126z" />
    <glyph glyph-name="p.superior" horiz-adv-x="329" 
d="M42 294v406h65v-25c7 15 37 33 69 33c51 0 119 -32 119 -125v-62c0 -93 -68 -126 -119 -126c-32 0 -62 18 -69 34v-135h-65zM169 458c37 0 61 20 61 65v58c0 44 -24 64 -61 64c-38 0 -62 -20 -62 -64v-58c0 -45 24 -65 62 -65z" />
    <glyph glyph-name="q.superior" horiz-adv-x="329" 
d="M222 294v135c-7 -16 -36 -34 -69 -34c-50 0 -119 33 -119 126v62c0 93 69 125 119 125c33 0 62 -18 69 -33v25h65v-406h-65zM156 458c37 0 66 20 66 65v58c0 44 -24 64 -61 64c-38 0 -62 -20 -62 -64v-58c0 -45 24 -65 57 -65z" />
    <glyph glyph-name="r.superior" horiz-adv-x="209" 
d="M42 401v299h65v-28c7 16 37 34 69 34h24v-64h-31c-38 0 -62 -20 -62 -64v-177h-65z" />
    <glyph glyph-name="s.superior" horiz-adv-x="287" 
d="M151 395c-71 0 -126 34 -130 102h67c5 -27 33 -39 63 -39c24 0 47 4 47 28c0 20 -20 25 -37 29l-56 14c-41 11 -77 33 -77 91c0 60 48 88 110 88c66 0 110 -29 116 -95h-68c-4 24 -27 33 -52 33c-16 0 -40 -5 -40 -28c0 -16 17 -21 32 -24l54 -14c57 -15 83 -38 83 -96
c0 -59 -46 -89 -112 -89z" />
    <glyph glyph-name="t.superior" horiz-adv-x="217" 
d="M195 401h-68c-48 0 -71 25 -71 71v166h-42v62h42v68h65v-68h74v-62h-74v-145c0 -23 4 -29 28 -29h46v-63z" />
    <glyph glyph-name="u.superior" horiz-adv-x="330" 
d="M154 395c-53 0 -116 38 -116 126v179h65v-178c0 -43 24 -64 60 -64s60 20 60 65v177h65v-299h-65v28c-8 -16 -37 -34 -69 -34z" />
    <glyph glyph-name="v.superior" horiz-adv-x="283" 
d="M110 401l-108 299h68l72 -205l71 205h68l-108 -299h-63z" />
    <glyph glyph-name="w.superior" horiz-adv-x="406" 
d="M85 401l-79 299h67l47 -196l48 196h70l47 -196l48 196h66l-79 -299h-65l-52 216l-53 -216h-65z" />
    <glyph glyph-name="x.superior" horiz-adv-x="294" 
d="M7 401l102 154l-97 145h71l64 -97l64 97h71l-97 -145l101 -154h-71l-68 104l-68 -104h-72z" />
    <glyph glyph-name="y.superior" horiz-adv-x="283" 
d="M48 294v63h10c32 0 33 5 44 33l6 17l-106 293h68l72 -205l71 205h68l-132 -366c-9 -26 -31 -40 -66 -40h-35z" />
    <glyph glyph-name="z.superior" horiz-adv-x="265" 
d="M240 638l-137 -174h141v-63h-223v63l137 174h-133v62h215v-62z" />
    <glyph glyph-name="four.superior" unicode="&#x2074;" horiz-adv-x="309" 
d="M186 401v98h-179v63l179 245h65v-245h43v-63h-43v-98h-65zM86 562h100v138z" />
    <glyph glyph-name="five.superior" unicode="&#x2075;" horiz-adv-x="313" 
d="M167 395c-54 0 -129 24 -131 122h65c1 -40 28 -59 64 -59s59 18 59 55v23c0 44 -24 65 -62 65c-27 0 -47 -12 -56 -34h-65v240h232v-63h-167v-101c12 12 40 21 64 21c46 0 119 -25 119 -126v-25c0 -86 -63 -118 -122 -118z" />
    <glyph glyph-name="six.superior" unicode="&#x2076;" horiz-adv-x="321" 
d="M162 395c-51 0 -126 25 -126 126v166c0 101 75 126 126 126s125 -24 127 -122h-65c-2 40 -26 59 -62 59c-37 0 -61 -20 -61 -65v-45c14 11 40 19 66 19c45 0 122 -24 122 -125v-13c0 -101 -75 -126 -127 -126zM162 458c38 0 62 20 62 65v9c0 44 -24 65 -62 65
c-37 0 -61 -21 -61 -65v-9c0 -45 24 -65 61 -65z" />
    <glyph glyph-name="seven.superior" unicode="&#x2077;" horiz-adv-x="271" 
d="M67 401l125 343h-183v63h250v-63l-125 -343h-67z" />
    <glyph glyph-name="eight.superior" unicode="&#x2078;" horiz-adv-x="320" 
d="M160 395c-50 0 -127 28 -127 121c0 40 16 67 42 89c-26 24 -37 50 -37 89c0 92 72 119 122 119s122 -27 122 -119c0 -39 -11 -65 -37 -89c26 -22 41 -49 41 -89c0 -93 -76 -121 -126 -121zM160 458c36 0 61 19 61 60c0 37 -25 59 -61 59s-61 -21 -61 -59
c0 -42 25 -60 61 -60zM159 634c33 0 58 21 58 58c0 38 -27 58 -58 58c-32 0 -56 -20 -56 -58c0 -37 23 -58 56 -58z" />
    <glyph glyph-name="nine.superior" unicode="&#x2079;" horiz-adv-x="321" 
d="M159 395c-51 0 -125 24 -127 122h65c2 -40 26 -59 62 -59c37 0 61 20 61 65v45c-14 -11 -40 -19 -66 -19c-44 0 -122 24 -122 125v13c0 101 75 126 127 126c51 0 126 -25 126 -126v-166c0 -101 -75 -126 -126 -126zM159 611c37 0 61 21 61 65v9c0 45 -24 65 -61 65
c-38 0 -62 -20 -62 -65v-9c0 -44 24 -65 62 -65z" />
    <glyph glyph-name="zero.superior" unicode="&#x2070;" horiz-adv-x="325" 
d="M162 458c38 0 62 20 62 65v162c0 45 -24 65 -62 65c-37 0 -61 -20 -61 -65v-162c0 -45 24 -65 61 -65zM162 395c-51 0 -126 25 -126 126v166c0 101 75 126 126 126c52 0 127 -25 127 -126v-166c0 -101 -75 -126 -127 -126z" />
    <glyph glyph-name="zero.slashed.superior" horiz-adv-x="325" 
d="M162 395c-51 0 -126 25 -126 126v166c0 101 75 126 126 126c52 0 127 -25 127 -126v-166c0 -101 -75 -126 -127 -126zM162 458c38 0 62 20 62 65v115l-123 -123c2 -40 26 -57 61 -57zM101 685v-113l123 122c-3 38 -27 56 -62 56c-37 0 -61 -20 -61 -65z" />
    <glyph glyph-name="period.superior" horiz-adv-x="178" 
d="M48 401v82h82v-82h-82z" />
    <glyph glyph-name="hyphen.superior" horiz-adv-x="229" 
d="M31 536v56h168v-56h-168z" />
    <glyph glyph-name="comma.superior" horiz-adv-x="178" 
d="M48 401v82h82v-82l-23 -62h-48l23 62h-34z" />
    <glyph glyph-name="equal.superior" unicode="&#x207c;" horiz-adv-x="330" 
d="M38 467v56h253v-56h-253zM38 598v56h253v-56h-253z" />
    <glyph glyph-name="plus.superior" unicode="&#x207a;" horiz-adv-x="330" 
d="M38 536v56h99v98h56v-98h98v-56h-98v-99h-56v99h-99z" />
    <glyph glyph-name="minus.superior" unicode="&#x207b;" horiz-adv-x="330" 
d="M38 536v56h253v-56h-253z" />
    <glyph glyph-name="parenleft.superior" unicode="&#x207d;" horiz-adv-x="178" 
d="M157 313h-31c-49 0 -72 26 -72 72v351c0 46 23 71 72 71h31v-59h-15c-23 0 -28 -7 -28 -29v-317c0 -22 5 -30 28 -30h15v-59z" />
    <glyph glyph-name="parenright.superior" unicode="&#x207e;" horiz-adv-x="178" 
d="M21 313v59h15c23 0 28 8 28 30v317c0 22 -5 29 -28 29h-15v59h31c49 0 71 -25 71 -71v-351c0 -46 -22 -72 -71 -72h-31z" />
    <glyph glyph-name="a.inferior" horiz-adv-x="323" 
d="M132 -103c-56 0 -103 27 -103 89c0 35 15 75 65 91c36 11 75 14 125 17c-3 36 -26 54 -60 54c-30 0 -50 -13 -59 -39h-66c11 81 77 101 125 101c51 0 126 -24 126 -125v-182h-65v28c-19 -23 -49 -34 -88 -34zM142 -40c32 0 78 7 78 65v12c-51 -3 -92 -7 -114 -21
c-4 -2 -12 -9 -12 -24c0 -24 18 -32 48 -32z" />
    <glyph glyph-name="b.inferior" horiz-adv-x="329" 
d="M176 -103c-32 0 -62 18 -69 34v-28h-65v406h65v-132c7 15 37 33 69 33c51 0 119 -32 119 -125v-62c0 -93 -68 -126 -119 -126zM169 -40c37 0 61 20 61 65v58c0 44 -24 64 -61 64c-38 0 -62 -20 -62 -64v-58c0 -45 24 -65 62 -65z" />
    <glyph glyph-name="c.inferior" horiz-adv-x="315" 
d="M161 -103c-52 0 -127 25 -127 126v62c0 101 75 125 127 125c48 0 118 -22 125 -109h-66c-6 32 -28 47 -59 47c-38 0 -62 -21 -62 -65v-58c0 -45 24 -65 62 -65c31 0 54 15 60 46h65c-7 -87 -77 -109 -125 -109z" />
    <glyph glyph-name="d.inferior" horiz-adv-x="329" 
d="M153 -103c-50 0 -119 33 -119 126v62c0 93 69 125 119 125c33 0 62 -18 69 -33v132h65v-406h-65v28c-7 -16 -36 -34 -69 -34zM156 -40c37 0 66 20 66 65v58c0 44 -24 64 -61 64c-38 0 -62 -20 -62 -64v-58c0 -45 24 -65 57 -65z" />
    <glyph glyph-name="e.inferior" horiz-adv-x="318" 
d="M161 -103c-52 0 -127 25 -127 126v62c0 101 75 125 127 125c51 0 126 -24 126 -125v-55h-188v-5c0 -45 24 -65 62 -65c29 0 49 12 58 38h66c-11 -80 -77 -101 -124 -101zM99 87h123c-1 40 -25 61 -61 61c-38 0 -62 -21 -62 -61z" />
    <glyph glyph-name="f.inferior" horiz-adv-x="203" 
d="M57 -97v237h-42v62h42v36c0 46 23 71 72 71h67v-63h-46c-24 0 -28 -6 -28 -29v-15h74v-62h-74v-237h-65z" />
    <glyph glyph-name="g.inferior" horiz-adv-x="328" 
d="M159 -210c-48 0 -116 22 -125 108h66c6 -30 28 -45 59 -45c38 0 62 21 62 65v32c-7 -16 -37 -34 -69 -34c-51 0 -119 33 -119 126v43c0 93 68 125 119 125c32 0 62 -18 69 -33v25h65v-286c0 -101 -75 -126 -127 -126zM159 -21c38 0 62 20 62 64v40c0 44 -24 64 -62 64
c-37 0 -61 -20 -61 -64v-40c0 -44 24 -64 61 -64z" />
    <glyph glyph-name="h.inferior" horiz-adv-x="333" 
d="M42 -97v406h65v-132c7 15 37 33 69 33c51 0 119 -32 119 -125v-182h-65v180c0 44 -24 64 -61 64c-38 0 -62 -20 -62 -64v-180h-65z" />
    <glyph glyph-name="i.inferior" horiz-adv-x="149" 
d="M42 -97v299h65v-299h-65zM42 246v63h65v-63h-65z" />
    <glyph glyph-name="j.inferior" horiz-adv-x="149" 
d="M5 -204v63h9c25 0 28 6 28 29v314h65v-334c0 -46 -23 -72 -71 -72h-31zM42 246v63h65v-63h-65z" />
    <glyph glyph-name="k.inferior" horiz-adv-x="314" 
d="M107 309v-224l108 117h78l-108 -117l124 -182h-75l-92 135l-35 -38v-97h-65v406h65z" />
    <glyph glyph-name="l.inferior" horiz-adv-x="166" 
d="M143 -97h-31c-48 0 -71 25 -71 71v335h65v-314c0 -23 3 -29 28 -29h9v-63z" />
    <glyph glyph-name="m.inferior" horiz-adv-x="511" 
d="M42 -97v299h65v-25c6 14 36 33 66 33c27 0 65 -13 85 -41c20 28 60 41 91 41c55 0 124 -31 124 -125v-182h-65v179c0 46 -26 65 -59 65s-59 -19 -59 -64v-180h-65v179c0 46 -25 65 -59 65c-33 0 -59 -19 -59 -64v-180h-65z" />
    <glyph glyph-name="n.inferior" horiz-adv-x="333" 
d="M42 -97v299h65v-25c7 15 37 33 69 33c51 0 119 -32 119 -125v-182h-65v180c0 44 -24 64 -61 64c-38 0 -62 -20 -62 -64v-180h-65z" />
    <glyph glyph-name="o.inferior" horiz-adv-x="321" 
d="M161 -40c37 0 61 20 61 65v58c0 44 -24 65 -61 65c-38 0 -62 -21 -62 -65v-58c0 -45 24 -65 62 -65zM161 -103c-52 0 -127 25 -127 126v62c0 101 75 125 127 125c51 0 126 -24 126 -125v-62c0 -101 -75 -126 -126 -126z" />
    <glyph glyph-name="p.inferior" horiz-adv-x="329" 
d="M42 -204v406h65v-25c7 15 37 33 69 33c51 0 119 -32 119 -125v-62c0 -93 -68 -126 -119 -126c-32 0 -62 18 -69 34v-135h-65zM169 -40c37 0 61 20 61 65v58c0 44 -24 64 -61 64c-38 0 -62 -20 -62 -64v-58c0 -45 24 -65 62 -65z" />
    <glyph glyph-name="q.inferior" horiz-adv-x="329" 
d="M222 -204v135c-7 -16 -36 -34 -69 -34c-50 0 -119 33 -119 126v62c0 93 69 125 119 125c33 0 62 -18 69 -33v25h65v-406h-65zM156 -40c37 0 66 20 66 65v58c0 44 -24 64 -61 64c-38 0 -62 -20 -62 -64v-58c0 -45 24 -65 57 -65z" />
    <glyph glyph-name="r.inferior" horiz-adv-x="209" 
d="M42 -97v299h65v-28c7 16 37 34 69 34h24v-64h-31c-38 0 -62 -20 -62 -64v-177h-65z" />
    <glyph glyph-name="s.inferior" horiz-adv-x="287" 
d="M151 -103c-71 0 -126 34 -130 102h67c5 -27 33 -39 63 -39c24 0 47 4 47 28c0 20 -20 25 -37 29l-56 14c-41 11 -77 33 -77 91c0 60 48 88 110 88c66 0 110 -29 116 -95h-68c-4 24 -27 33 -52 33c-16 0 -40 -5 -40 -28c0 -16 17 -21 32 -24l54 -14c57 -15 83 -38 83 -96
c0 -59 -46 -89 -112 -89z" />
    <glyph glyph-name="t.inferior" horiz-adv-x="217" 
d="M195 -97h-68c-48 0 -71 25 -71 71v166h-42v62h42v68h65v-68h74v-62h-74v-145c0 -23 4 -29 28 -29h46v-63z" />
    <glyph glyph-name="u.inferior" horiz-adv-x="330" 
d="M154 -103c-53 0 -116 38 -116 126v179h65v-178c0 -43 24 -64 60 -64s60 20 60 65v177h65v-299h-65v28c-8 -16 -37 -34 -69 -34z" />
    <glyph glyph-name="v.inferior" horiz-adv-x="283" 
d="M110 -97l-108 299h68l72 -205l71 205h68l-108 -299h-63z" />
    <glyph glyph-name="w.inferior" horiz-adv-x="406" 
d="M85 -97l-79 299h67l47 -196l48 196h70l47 -196l48 196h66l-79 -299h-65l-52 216l-53 -216h-65z" />
    <glyph glyph-name="x.inferior" horiz-adv-x="294" 
d="M7 -97l102 154l-97 145h71l64 -97l64 97h71l-97 -145l101 -154h-71l-68 104l-68 -104h-72z" />
    <glyph glyph-name="y.inferior" horiz-adv-x="283" 
d="M48 -204v63h10c32 0 33 5 44 33l6 17l-106 293h68l72 -205l71 205h68l-132 -366c-9 -26 -31 -40 -66 -40h-35z" />
    <glyph glyph-name="z.inferior" horiz-adv-x="265" 
d="M240 140l-137 -174h141v-63h-223v63l137 174h-133v62h215v-62z" />
    <glyph glyph-name="one.inferior" unicode="&#x2081;" horiz-adv-x="217" 
d="M104 -97v322l-78 -67v84l78 67h65v-406h-65z" />
    <glyph glyph-name="two.inferior" unicode="&#x2082;" horiz-adv-x="309" 
d="M27 -97v63l148 152c29 30 39 46 39 69c0 45 -24 65 -61 65s-61 -20 -61 -64v-4h-65v5c0 101 75 126 126 126s126 -25 126 -126c0 -43 -14 -70 -55 -112l-108 -111h163v-63h-252z" />
    <glyph glyph-name="three.inferior" unicode="&#x2083;" horiz-adv-x="312" 
d="M157 -103c-54 0 -130 24 -131 122h65c1 -40 28 -59 64 -59c35 0 59 18 59 56s-27 60 -62 60h-35v59h35c40 0 62 23 62 56c0 35 -24 61 -62 61c-36 0 -60 -19 -61 -59h-65c2 96 76 122 126 122c51 0 127 -31 127 -124c0 -37 -19 -70 -48 -85c30 -16 48 -54 48 -90
c0 -88 -64 -119 -122 -119z" />
    <glyph glyph-name="four.inferior" unicode="&#x2084;" horiz-adv-x="309" 
d="M186 -97v98h-179v63l179 245h65v-245h43v-63h-43v-98h-65zM86 64h100v138z" />
    <glyph glyph-name="five.inferior" unicode="&#x2085;" horiz-adv-x="313" 
d="M167 -103c-54 0 -129 24 -131 122h65c1 -40 28 -59 64 -59s59 18 59 55v23c0 44 -24 65 -62 65c-27 0 -47 -12 -56 -34h-65v240h232v-63h-167v-101c12 12 40 21 64 21c46 0 119 -25 119 -126v-25c0 -86 -63 -118 -122 -118z" />
    <glyph glyph-name="six.inferior" unicode="&#x2086;" horiz-adv-x="321" 
d="M162 -103c-51 0 -126 25 -126 126v166c0 101 75 126 126 126s125 -24 127 -122h-65c-2 40 -26 59 -62 59c-37 0 -61 -20 -61 -65v-45c14 11 40 19 66 19c45 0 122 -24 122 -125v-13c0 -101 -75 -126 -127 -126zM162 -40c38 0 62 20 62 65v9c0 44 -24 65 -62 65
c-37 0 -61 -21 -61 -65v-9c0 -45 24 -65 61 -65z" />
    <glyph glyph-name="seven.inferior" unicode="&#x2087;" horiz-adv-x="271" 
d="M67 -97l125 343h-183v63h250v-63l-125 -343h-67z" />
    <glyph glyph-name="eight.inferior" unicode="&#x2088;" horiz-adv-x="320" 
d="M160 -103c-50 0 -127 28 -127 121c0 40 16 67 42 89c-26 24 -37 50 -37 89c0 92 72 119 122 119s122 -27 122 -119c0 -39 -11 -65 -37 -89c26 -22 41 -49 41 -89c0 -93 -76 -121 -126 -121zM160 -40c36 0 61 19 61 60c0 37 -25 59 -61 59s-61 -21 -61 -59
c0 -42 25 -60 61 -60zM159 136c33 0 58 21 58 58c0 38 -27 58 -58 58c-32 0 -56 -20 -56 -58c0 -37 23 -58 56 -58z" />
    <glyph glyph-name="nine.inferior" unicode="&#x2089;" horiz-adv-x="321" 
d="M159 -103c-51 0 -125 24 -127 122h65c2 -40 26 -59 62 -59c37 0 61 20 61 65v45c-14 -11 -40 -19 -66 -19c-44 0 -122 24 -122 125v13c0 101 75 126 127 126c51 0 126 -25 126 -126v-166c0 -101 -75 -126 -126 -126zM159 113c37 0 61 21 61 65v9c0 45 -24 65 -61 65
c-38 0 -62 -20 -62 -65v-9c0 -44 24 -65 62 -65z" />
    <glyph glyph-name="zero.inferior" unicode="&#x2080;" horiz-adv-x="325" 
d="M162 -40c38 0 62 20 62 65v162c0 45 -24 65 -62 65c-37 0 -61 -20 -61 -65v-162c0 -45 24 -65 61 -65zM162 -103c-51 0 -126 25 -126 126v166c0 101 75 126 126 126c52 0 127 -25 127 -126v-166c0 -101 -75 -126 -127 -126z" />
    <glyph glyph-name="zero.slashed.inferior" horiz-adv-x="325" 
d="M162 -103c-51 0 -126 25 -126 126v166c0 101 75 126 126 126c52 0 127 -25 127 -126v-166c0 -101 -75 -126 -127 -126zM162 -40c38 0 62 20 62 65v115l-123 -123c2 -40 26 -57 61 -57zM101 187v-113l123 122c-3 38 -27 56 -62 56c-37 0 -61 -20 -61 -65z" />
    <glyph glyph-name="period.inferior" horiz-adv-x="178" 
d="M48 -97v82h82v-82h-82z" />
    <glyph glyph-name="hyphen.inferior" horiz-adv-x="229" 
d="M31 38v56h168v-56h-168z" />
    <glyph glyph-name="comma.inferior" horiz-adv-x="178" 
d="M48 -97v82h82v-82l-23 -62h-48l23 62h-34z" />
    <glyph glyph-name="equal.inferior" horiz-adv-x="330" 
d="M38 -31v56h253v-56h-253zM38 100v56h253v-56h-253z" />
    <glyph glyph-name="plus.inferior" horiz-adv-x="330" 
d="M38 38v56h99v98h56v-98h98v-56h-98v-99h-56v99h-99z" />
    <glyph glyph-name="minus.inferior" horiz-adv-x="330" 
d="M38 38v56h253v-56h-253z" />
    <glyph glyph-name="parenleft.inferior" unicode="&#x208d;" horiz-adv-x="178" 
d="M157 -185h-31c-49 0 -72 26 -72 72v351c0 46 23 71 72 71h31v-59h-15c-23 0 -28 -7 -28 -29v-317c0 -22 5 -30 28 -30h15v-59z" />
    <glyph glyph-name="parenright.inferior" unicode="&#x208e;" horiz-adv-x="178" 
d="M21 -185v59h15c23 0 28 8 28 30v317c0 22 -5 29 -28 29h-15v59h31c49 0 71 -25 71 -71v-351c0 -46 -22 -72 -71 -72h-31z" />
    <glyph glyph-name="one.numerator" horiz-adv-x="297" 
d="M144 294v322l-78 -67v84l78 67h65v-406h-65z" />
    <glyph glyph-name="two.numerator" horiz-adv-x="355" 
d="M47 294v63l148 152c29 30 39 46 39 69c0 45 -24 65 -61 65s-61 -20 -61 -64v-4h-65v5c0 101 75 126 126 126s126 -25 126 -126c0 -43 -14 -70 -55 -112l-108 -111h163v-63h-252z" />
    <glyph glyph-name="three.numerator" horiz-adv-x="352" 
d="M177 288c-54 0 -130 24 -131 122h65c1 -40 28 -59 64 -59c35 0 59 18 59 56s-27 60 -62 60h-35v59h35c40 0 62 23 62 56c0 35 -24 61 -62 61c-36 0 -60 -19 -61 -59h-65c2 96 76 122 126 122c51 0 127 -31 127 -124c0 -37 -19 -70 -48 -85c30 -16 48 -54 48 -90
c0 -88 -64 -119 -122 -119z" />
    <glyph glyph-name="four.numerator" horiz-adv-x="319" 
d="M176 294v98h-179v63l179 245h65v-245h43v-63h-43v-98h-65zM76 455h100v138z" />
    <glyph glyph-name="five.numerator" horiz-adv-x="350" 
d="M187 288c-54 0 -129 24 -131 122h65c1 -40 28 -59 64 -59s59 18 59 55v23c0 44 -24 65 -62 65c-27 0 -47 -12 -56 -34h-65v240h232v-63h-167v-101c12 12 40 21 64 21c46 0 119 -25 119 -126v-25c0 -86 -63 -118 -122 -118z" />
    <glyph glyph-name="six.numerator" horiz-adv-x="351" 
d="M177 288c-51 0 -126 25 -126 126v166c0 101 75 126 126 126s125 -24 127 -122h-65c-2 40 -26 59 -62 59c-37 0 -61 -20 -61 -65v-45c14 11 40 19 66 19c45 0 122 -24 122 -125v-13c0 -101 -75 -126 -127 -126zM177 351c38 0 62 20 62 65v9c0 44 -24 65 -62 65
c-37 0 -61 -21 -61 -65v-9c0 -45 24 -65 61 -65z" />
    <glyph glyph-name="seven.numerator" horiz-adv-x="281" 
d="M87 294l125 343h-183v63h250v-63l-125 -343h-67z" />
    <glyph glyph-name="eight.numerator" horiz-adv-x="329" 
d="M165 288c-50 0 -127 28 -127 121c0 40 16 67 42 89c-26 24 -37 50 -37 89c0 92 72 119 122 119s122 -27 122 -119c0 -39 -11 -65 -37 -89c26 -22 41 -49 41 -89c0 -93 -76 -121 -126 -121zM165 351c36 0 61 19 61 60c0 37 -25 59 -61 59s-61 -21 -61 -59
c0 -42 25 -60 61 -60zM164 527c33 0 58 21 58 58c0 38 -27 58 -58 58c-32 0 -56 -20 -56 -58c0 -37 23 -58 56 -58z" />
    <glyph glyph-name="nine.numerator" horiz-adv-x="351" 
d="M174 288c-51 0 -125 24 -127 122h65c2 -40 26 -59 62 -59c37 0 61 20 61 65v45c-14 -11 -40 -19 -66 -19c-44 0 -122 24 -122 125v13c0 101 75 126 127 126c51 0 126 -25 126 -126v-166c0 -101 -75 -126 -126 -126zM174 504c37 0 61 21 61 65v9c0 45 -24 65 -61 65
c-38 0 -62 -20 -62 -65v-9c0 -44 24 -65 62 -65z" />
    <glyph glyph-name="zero.numerator" horiz-adv-x="355" 
d="M177 351c38 0 62 20 62 65v162c0 45 -24 65 -62 65c-37 0 -61 -20 -61 -65v-162c0 -45 24 -65 61 -65zM177 288c-51 0 -126 25 -126 126v166c0 101 75 126 126 126c52 0 127 -25 127 -126v-166c0 -101 -75 -126 -127 -126z" />
    <glyph glyph-name="zero.slashed.numerator" horiz-adv-x="355" 
d="M177 288c-51 0 -126 25 -126 126v166c0 101 75 126 126 126c52 0 127 -25 127 -126v-166c0 -101 -75 -126 -127 -126zM177 351c38 0 62 20 62 65v115l-123 -123c2 -40 26 -57 61 -57zM116 578v-113l123 122c-3 38 -27 56 -62 56c-37 0 -61 -20 -61 -65z" />
    <glyph glyph-name="one.denominator" horiz-adv-x="297" 
d="M144 0v322l-78 -67v84l78 67h65v-406h-65z" />
    <glyph glyph-name="two.denominator" horiz-adv-x="355" 
d="M47 0v63l148 152c29 30 39 46 39 69c0 45 -24 65 -61 65s-61 -20 -61 -64v-4h-65v5c0 101 75 126 126 126s126 -25 126 -126c0 -43 -14 -70 -55 -112l-108 -111h163v-63h-252z" />
    <glyph glyph-name="three.denominator" horiz-adv-x="352" 
d="M177 -6c-54 0 -130 24 -131 122h65c1 -40 28 -59 64 -59c35 0 59 18 59 56s-27 60 -62 60h-35v59h35c40 0 62 23 62 56c0 35 -24 61 -62 61c-36 0 -60 -19 -61 -59h-65c2 96 76 122 126 122c51 0 127 -31 127 -124c0 -37 -19 -70 -48 -85c30 -16 48 -54 48 -90
c0 -88 -64 -119 -122 -119z" />
    <glyph glyph-name="four.denominator" horiz-adv-x="319" 
d="M176 0v98h-179v63l179 245h65v-245h43v-63h-43v-98h-65zM76 161h100v138z" />
    <glyph glyph-name="five.denominator" horiz-adv-x="350" 
d="M187 -6c-54 0 -129 24 -131 122h65c1 -40 28 -59 64 -59s59 18 59 55v23c0 44 -24 65 -62 65c-27 0 -47 -12 -56 -34h-65v240h232v-63h-167v-101c12 12 40 21 64 21c46 0 119 -25 119 -126v-25c0 -86 -63 -118 -122 -118z" />
    <glyph glyph-name="six.denominator" horiz-adv-x="351" 
d="M177 -6c-51 0 -126 25 -126 126v166c0 101 75 126 126 126s125 -24 127 -122h-65c-2 40 -26 59 -62 59c-37 0 -61 -20 -61 -65v-45c14 11 40 19 66 19c45 0 122 -24 122 -125v-13c0 -101 -75 -126 -127 -126zM177 57c38 0 62 20 62 65v9c0 44 -24 65 -62 65
c-37 0 -61 -21 -61 -65v-9c0 -45 24 -65 61 -65z" />
    <glyph glyph-name="seven.denominator" horiz-adv-x="281" 
d="M87 0l125 343h-183v63h250v-63l-125 -343h-67z" />
    <glyph glyph-name="eight.denominator" horiz-adv-x="329" 
d="M165 -6c-50 0 -127 28 -127 121c0 40 16 67 42 89c-26 24 -37 50 -37 89c0 92 72 119 122 119s122 -27 122 -119c0 -39 -11 -65 -37 -89c26 -22 41 -49 41 -89c0 -93 -76 -121 -126 -121zM165 57c36 0 61 19 61 60c0 37 -25 59 -61 59s-61 -21 -61 -59
c0 -42 25 -60 61 -60zM164 233c33 0 58 21 58 58c0 38 -27 58 -58 58c-32 0 -56 -20 -56 -58c0 -37 23 -58 56 -58z" />
    <glyph glyph-name="nine.denominator" horiz-adv-x="351" 
d="M174 -6c-51 0 -125 24 -127 122h65c2 -40 26 -59 62 -59c37 0 61 20 61 65v45c-14 -11 -40 -19 -66 -19c-44 0 -122 24 -122 125v13c0 101 75 126 127 126c51 0 126 -25 126 -126v-166c0 -101 -75 -126 -126 -126zM174 210c37 0 61 21 61 65v9c0 45 -24 65 -61 65
c-38 0 -62 -20 -62 -65v-9c0 -44 24 -65 62 -65z" />
    <glyph glyph-name="zero.denominator" horiz-adv-x="355" 
d="M177 57c38 0 62 20 62 65v162c0 45 -24 65 -62 65c-37 0 -61 -20 -61 -65v-162c0 -45 24 -65 61 -65zM177 -6c-51 0 -126 25 -126 126v166c0 101 75 126 126 126c52 0 127 -25 127 -126v-166c0 -101 -75 -126 -127 -126z" />
    <glyph glyph-name="zero.slashed.denominator" horiz-adv-x="355" 
d="M177 -6c-51 0 -126 25 -126 126v166c0 101 75 126 126 126c52 0 127 -25 127 -126v-166c0 -101 -75 -126 -127 -126zM177 57c38 0 62 20 62 65v115l-123 -123c2 -40 26 -57 61 -57zM116 284v-113l123 122c-3 38 -27 56 -62 56c-37 0 -61 -20 -61 -65z" />
    <glyph glyph-name="ampersand.case" horiz-adv-x="604" 
d="M257 0c-101 0 -198 55 -198 194c0 72 37 132 84 158c-47 24 -84 81 -84 155c0 141 98 193 198 193h130v-76h-130c-69 0 -121 -42 -121 -117s52 -117 121 -117h130v80h77v-80h127v-76h-127v-314h-207zM257 76h130v238h-130c-77 0 -121 -46 -121 -119
c0 -74 44 -119 121 -119z" />
    <glyph glyph-name="hyphen.case" horiz-adv-x="410" 
d="M350 305h-290v65h290v-65z" />
    <glyph glyph-name="endash.case" horiz-adv-x="524" 
d="M464 305h-404v65h404v-65z" />
    <glyph glyph-name="emdash.case" horiz-adv-x="823" 
d="M763 305h-703v65h703v-65z" />
    <glyph glyph-name="question.case" horiz-adv-x="513" 
d="M210 210v22c0 54 17 81 58 118l60 54c20 20 47 58 47 103c0 85 -59 127 -126 127c-66 0 -125 -42 -125 -126v-8h-77v7c0 154 107 203 202 203c96 0 203 -49 203 -204c0 -60 -34 -119 -70 -153l-59 -54c-28 -25 -36 -40 -36 -68v-21h-77zM197 0v105h105v-105h-105z" />
    <glyph glyph-name="questiondown.case" horiz-adv-x="513" 
d="M303 490v-22c0 -54 -17 -81 -58 -118l-60 -54c-20 -20 -47 -58 -47 -103c0 -85 59 -127 126 -127c66 0 125 42 125 126v8h77v-7c0 -154 -107 -203 -202 -203c-96 0 -203 49 -203 204c0 60 34 119 70 153l59 54c28 25 36 40 36 68v21h77zM316 700v-105h-105v105h105z" />
    <glyph glyph-name="exclam.case" horiz-adv-x="285" 
d="M181 700v-490h-77v490h77zM90 0v105h105v-105h-105z" />
    <glyph glyph-name="exclamdown.case" horiz-adv-x="285" 
d="M181 490v-490h-77v490h77zM90 595v105h105v-105h-105z" />
    <glyph glyph-name="guilsinglleft.case" horiz-adv-x="299" 
d="M229 146l-167 147v74l167 147v-87l-110 -97l110 -97v-87z" />
    <glyph glyph-name="guilsinglright.case" horiz-adv-x="299" 
d="M237 293l-167 -147v87l110 97l-110 97v87l167 -147v-74z" />
    <glyph glyph-name="guillemotleft.case" horiz-adv-x="478" 
d="M229 146l-167 147v74l167 147v-87l-110 -97l110 -97v-87zM408 146l-167 147v74l167 147v-87l-110 -97l110 -97v-87z" />
    <glyph glyph-name="guillemotright.case" horiz-adv-x="478" 
d="M416 293l-167 -147v87l110 97l-110 97v87l167 -147v-74zM237 293l-167 -147v87l110 97l-110 97v87l167 -147v-74z" />
    <glyph glyph-name="parenleft.case" horiz-adv-x="284" 
d="M101 123v454c0 88 27 123 123 123h16v-64h-22c-41 0 -52 -16 -52 -51v-470c0 -35 11 -51 52 -51h22v-64h-16c-96 0 -123 35 -123 123z" />
    <glyph glyph-name="parenright.case" horiz-adv-x="284" 
d="M183 577v-454c0 -88 -27 -123 -123 -123h-16v64h22c41 0 52 16 52 51v470c0 35 -11 51 -52 51h-22v64h16c96 0 123 -35 123 -123z" />
    <glyph glyph-name="bracketleft.case" horiz-adv-x="284" 
d="M101 0v700h139v-64h-74v-572h74v-64h-139z" />
    <glyph glyph-name="bracketright.case" horiz-adv-x="284" 
d="M183 700v-700h-139v64h74v572h-74v64h139z" />
    <glyph glyph-name="braceleft.case" horiz-adv-x="316" 
d="M133 123v144c0 35 -11 51 -52 51h-22v64h22c41 0 52 16 52 51v144c0 88 27 123 123 123h16v-64h-22c-41 0 -52 -16 -52 -51v-144c0 -42 -4 -73 -33 -91c29 -18 33 -50 33 -91v-144c0 -35 11 -51 52 -51h22v-64h-16c-96 0 -123 35 -123 123z" />
    <glyph glyph-name="braceright.case" horiz-adv-x="316" 
d="M183 267v-144c0 -88 -27 -123 -123 -123h-16v64h22c41 0 52 16 52 51v144c0 41 4 73 33 91c-29 18 -33 49 -33 91v144c0 35 -11 51 -52 51h-22v64h16c96 0 123 -35 123 -123v-144c0 -35 11 -51 52 -51h22v-64h-22c-41 0 -52 -16 -52 -51z" />
    <glyph glyph-name="bar.case" horiz-adv-x="235" 
d="M85 0v700h65v-700h-65z" />
    <glyph glyph-name="brokenbar.case" horiz-adv-x="235" 
d="M150 700v-289h-65v289h65zM85 0v289h65v-289h-65z" />
    <glyph glyph-name="periodcentered.case" horiz-adv-x="295" 
d="M95 295v105h105v-105h-105z" />
    <glyph glyph-name="at.case" horiz-adv-x="898" 
d="M576 276v67c-113 -8 -177 -15 -212 -34c-38 -21 -45 -44 -45 -74c0 -47 36 -83 112 -83c81 0 145 43 145 124zM449 548c-59 0 -112 -33 -124 -100h-77c13 129 111 172 201 172c96 0 202 -50 202 -202v-217c0 -35 22 -57 54 -57s53 22 53 57v257c0 163 -144 278 -309 278
s-309 -115 -309 -278v-220c0 -163 144 -278 309 -278c70 0 137 20 191 57l35 -56c-62 -41 -140 -65 -226 -65c-210 0 -374 141 -374 342v220c0 201 164 342 374 342s374 -141 374 -342v-262c0 -78 -45 -116 -118 -116c-68 0 -107 25 -129 63c-33 -43 -91 -63 -161 -63
c-88 0 -171 47 -171 153c0 52 22 122 112 148c59 17 133 23 220 29v9c0 86 -60 129 -127 129z" />
    <glyph glyph-name="plus.case" 
d="M249 135v170h-172v65h172v169h65v-169h167v-65h-167v-170h-65z" />
    <glyph glyph-name="minus.case" 
d="M481 305h-404v65h404v-65z" />
    <glyph glyph-name="divide.case" 
d="M227 525c0 29 23 53 52 53s53 -24 53 -53s-24 -52 -53 -52s-52 23 -52 52zM227 149c0 29 23 53 52 53s53 -24 53 -53s-24 -52 -53 -52s-52 23 -52 52zM481 305h-404v65h404v-65z" />
    <glyph glyph-name="multiply.case" 
d="M71 175l162 162l-163 164l46 46l163 -164l164 164l46 -46l-164 -164l163 -162l-46 -46l-163 162l-162 -162z" />
    <glyph glyph-name="equal.case" 
d="M481 197h-404v65h404v-65zM481 402h-404v65h404v-65z" />
    <glyph glyph-name="plusminus.case" 
d="M481 364h-167v-144h-65v144h-172v65h172v144h65v-144h167v-65zM481 57h-404v65h404v-65z" />
    <glyph glyph-name="less.case" 
d="M145 316l336 -189v-75l-404 227v74l404 227v-75z" />
    <glyph glyph-name="greater.case" 
d="M77 127l336 189l-336 189v75l404 -227v-74l-404 -227v75z" />
    <glyph glyph-name="lessequal.case" 
d="M160 383l321 -127v-70l-404 160v74l404 160v-70zM481 57h-404v65h404v-65z" />
    <glyph glyph-name="greaterequal.case" 
d="M77 256l321 127l-321 127v70l404 -160v-74l-404 -160v70zM481 57h-404v65h404v-65z" />
    <glyph glyph-name="notequal.case" 
d="M481 197h-280l-77 -86l-47 42l39 44h-39v65h97l126 140h-223v65h281l76 85l47 -42l-39 -43h39v-65h-97l-125 -140h222v-65z" />
    <glyph glyph-name="acute.case" horiz-adv-x="321" 
d="M158 854h110l-128 -109h-74z" />
    <glyph glyph-name="breve.case" horiz-adv-x="394" 
d="M236 808c26 0 46 20 46 46h63c0 -60 -49 -109 -109 -109h-78c-60 0 -109 49 -109 109h63c0 -26 20 -46 46 -46h78z" />
    <glyph glyph-name="caron.case" horiz-adv-x="432" 
d="M216 803l59 51h99l-125 -109h-66l-125 109h99z" />
    <glyph glyph-name="cedilla.case" horiz-adv-x="270" 
d="M55 -158l66 158h72l-38 -158h-100z" />
    <glyph glyph-name="circumflex.case" horiz-adv-x="432" 
d="M275 745l-59 51l-59 -51h-99l125 109h66l125 -109h-99z" />
    <glyph glyph-name="dieresis.case" horiz-adv-x="408" 
d="M341 848v-97h-77v97h77zM144 848v-97h-77v97h77z" />
    <glyph glyph-name="dotaccent.case" horiz-adv-x="185" 
d="M131 848v-97h-77v97h77z" />
    <glyph glyph-name="grave.case" horiz-adv-x="321" 
d="M53 854h110l92 -109h-74z" />
    <glyph glyph-name="hungarumlaut.case" horiz-adv-x="474" 
d="M148 854h105l-118 -109h-69zM316 854h105l-118 -109h-69z" />
    <glyph glyph-name="macron.case" horiz-adv-x="426" 
d="M64 766v67h298v-67h-298z" />
    <glyph glyph-name="ogonek.case" horiz-adv-x="244" 
d="M204 0c-41 -30 -82 -61 -82 -97c0 -22 13 -29 30 -29c18 0 39 9 52 17v-62c-18 -12 -41 -18 -63 -18c-58 0 -96 28 -96 86c0 48 37 81 82 103h77z" />
    <glyph glyph-name="ring.case" horiz-adv-x="245" 
d="M48 799c0 41 33 75 74 75s75 -34 75 -75s-34 -74 -75 -74s-74 33 -74 74zM96 799c0 -14 12 -26 26 -26s26 12 26 26s-12 26 -26 26s-26 -12 -26 -26z" />
    <glyph glyph-name="tilde.case" horiz-adv-x="440" 
d="M164 852c21 0 39 -5 55 -14l30 -16c10 -5 18 -8 26 -8c17 0 32 12 39 36h65c-12 -59 -53 -102 -103 -102c-21 0 -39 5 -55 14l-30 16c-10 5 -18 8 -26 8c-17 0 -32 -12 -39 -36h-65c12 59 53 102 103 102z" />
    <glyph glyph-name="at.case.ss01" horiz-adv-x="898" 
d="M645 606v-405c0 -35 25 -57 57 -57s56 22 56 57v257c0 163 -144 278 -309 278s-309 -115 -309 -278v-220c0 -163 144 -278 309 -278c70 0 137 20 191 57l35 -56c-62 -41 -140 -65 -226 -65c-210 0 -374 141 -374 342v220c0 201 164 342 374 342s374 -141 374 -342v-262
c0 -78 -48 -116 -121 -116c-68 0 -110 25 -132 63c-26 -42 -80 -63 -127 -63c-96 0 -202 50 -202 202v136c0 152 106 202 202 202c47 0 101 -21 127 -63v49h75zM316 419v-138c0 -86 60 -129 127 -129s127 43 127 129v138c0 86 -60 129 -127 129s-127 -43 -127 -129z" />
    <glyph glyph-name="a.ss01" horiz-adv-x="540" 
d="M263 -10c-96 0 -202 50 -202 202v136c0 152 106 202 202 202c47 0 101 -21 127 -63v49h75v-516h-75v53c-26 -42 -80 -63 -127 -63zM136 329v-138c0 -86 60 -129 127 -129s127 43 127 129v138c0 86 -60 129 -127 129s-127 -43 -127 -129z" />
    <glyph glyph-name="aacute.ss01" horiz-adv-x="540" 
d="M263 -10c-96 0 -202 50 -202 202v136c0 152 106 202 202 202c47 0 101 -21 127 -63v49h75v-516h-75v53c-26 -42 -80 -63 -127 -63zM136 329v-138c0 -86 60 -129 127 -129s127 43 127 129v138c0 86 -60 129 -127 129s-127 -43 -127 -129zM279 700h108l-118 -129h-67z" />
    <glyph glyph-name="abreve.ss01" horiz-adv-x="540" 
d="M263 -10c-96 0 -202 50 -202 202v136c0 152 106 202 202 202c47 0 101 -21 127 -63v49h75v-516h-75v53c-26 -42 -80 -63 -127 -63zM136 329v-138c0 -86 60 -129 127 -129s127 43 127 129v138c0 86 -60 129 -127 129s-127 -43 -127 -129zM254 571c-71 0 -129 58 -129 129
h61c0 -38 30 -68 68 -68h38c38 0 68 30 68 68h61c0 -71 -58 -129 -129 -129h-38z" />
    <glyph glyph-name="acircumflex.ss01" horiz-adv-x="540" 
d="M263 -10c-96 0 -202 50 -202 202v136c0 152 106 202 202 202c47 0 101 -21 127 -63v49h75v-516h-75v53c-26 -42 -80 -63 -127 -63zM136 329v-138c0 -86 60 -129 127 -129s127 43 127 129v138c0 86 -60 129 -127 129s-127 -43 -127 -129zM296 700l125 -129h-89l-69 71
l-69 -71h-89l125 129h66z" />
    <glyph glyph-name="adieresis.ss01" horiz-adv-x="540" 
d="M263 -10c-96 0 -202 50 -202 202v136c0 152 106 202 202 202c47 0 101 -21 127 -63v49h75v-516h-75v53c-26 -42 -80 -63 -127 -63zM136 329v-138c0 -86 60 -129 127 -129s127 43 127 129v138c0 86 -60 129 -127 129s-127 -43 -127 -129zM201 684v-97h-75v97h75zM400 684
v-97h-75v97h75z" />
    <glyph glyph-name="agrave.ss01" horiz-adv-x="540" 
d="M263 -10c-96 0 -202 50 -202 202v136c0 152 106 202 202 202c47 0 101 -21 127 -63v49h75v-516h-75v53c-26 -42 -80 -63 -127 -63zM136 329v-138c0 -86 60 -129 127 -129s127 43 127 129v138c0 86 -60 129 -127 129s-127 -43 -127 -129zM139 700h108l77 -129h-67z" />
    <glyph glyph-name="amacron.ss01" horiz-adv-x="540" 
d="M263 -10c-96 0 -202 50 -202 202v136c0 152 106 202 202 202c47 0 101 -21 127 -63v49h75v-516h-75v53c-26 -42 -80 -63 -127 -63zM136 329v-138c0 -86 60 -129 127 -129s127 43 127 129v138c0 86 -60 129 -127 129s-127 -43 -127 -129zM114 603v65h298v-65h-298z" />
    <glyph glyph-name="aogonek.ss01" horiz-adv-x="540" 
d="M263 -10c-96 0 -202 50 -202 202v136c0 152 106 202 202 202c47 0 101 -21 127 -63v49h75v-516c-41 -30 -82 -61 -82 -97c0 -22 13 -31 30 -31c18 0 39 9 52 17v-60c-18 -12 -41 -18 -63 -18c-58 0 -94 28 -94 86c0 48 37 81 82 103v53c-26 -42 -80 -63 -127 -63z
M136 329v-138c0 -86 60 -129 127 -129s127 43 127 129v138c0 86 -60 129 -127 129s-127 -43 -127 -129z" />
    <glyph glyph-name="aring.ss01" horiz-adv-x="540" 
d="M263 -10c-96 0 -202 50 -202 202v136c0 152 106 202 202 202c47 0 101 -21 127 -63v49h75v-516h-75v53c-26 -42 -80 -63 -127 -63zM136 329v-138c0 -86 60 -129 127 -129s127 43 127 129v138c0 86 -60 129 -127 129s-127 -43 -127 -129zM235 635c0 -15 13 -28 28 -28
s28 13 28 28s-13 28 -28 28s-28 -13 -28 -28zM189 635c0 41 33 75 74 75s75 -34 75 -75s-34 -74 -75 -74s-74 33 -74 74z" />
    <glyph glyph-name="atilde.ss01" horiz-adv-x="540" 
d="M263 -10c-96 0 -202 50 -202 202v136c0 152 106 202 202 202c47 0 101 -21 127 -63v49h75v-516h-75v53c-26 -42 -80 -63 -127 -63zM136 329v-138c0 -86 60 -129 127 -129s127 43 127 129v138c0 86 -60 129 -127 129s-127 -43 -127 -129zM162 586h-58
c12 59 53 102 103 102c21 0 39 -5 55 -14l30 -17c8 -5 19 -9 31 -9c17 0 36 16 41 38h58c-12 -59 -53 -102 -103 -102c-21 0 -39 5 -55 14l-30 17c-8 5 -19 9 -31 9c-17 0 -36 -16 -41 -38z" />
    <glyph glyph-name="at.ss01" horiz-adv-x="888" 
d="M640 516v-405c0 -35 25 -57 57 -57s56 22 56 57v257c0 163 -144 278 -309 278s-309 -115 -309 -278v-220c0 -163 144 -278 309 -278c70 0 137 20 191 57l35 -56c-62 -41 -140 -65 -226 -65c-210 0 -374 141 -374 342v220c0 201 164 342 374 342s374 -141 374 -342v-262
c0 -78 -48 -116 -121 -116c-68 0 -110 25 -132 63c-26 -42 -80 -63 -127 -63c-96 0 -202 50 -202 202v136c0 152 106 202 202 202c47 0 101 -21 127 -63v49h75zM311 329v-138c0 -86 60 -129 127 -129s127 43 127 129v138c0 86 -60 129 -127 129s-127 -43 -127 -129z" />
    <glyph glyph-name="l.ss02" horiz-adv-x="225" 
d="M150 700v-700h-75v700h75z" />
    <glyph glyph-name="lacute.ss02" horiz-adv-x="225" 
d="M150 700v-700h-75v700h75zM128 874h108l-118 -129h-67z" />
    <glyph glyph-name="lcaron.ss02" horiz-adv-x="225" 
d="M304 700l-70 -158h-54l28 158h96zM150 700v-700h-75v700h75z" />
    <glyph glyph-name="lcommaaccent.ss02" horiz-adv-x="225" 
d="M150 700v-700h-75v700h75zM65 -145v95h95v-95l-25 -84h-64l25 84h-31z" />
    <glyph glyph-name="ldot.ss02" horiz-adv-x="290" 
d="M150 700v-700h-75v700h75zM295 397v-97h-75v97h75z" />
    <glyph glyph-name="lslash.ss02" horiz-adv-x="241" 
d="M158 700v-275l64 35v-60l-64 -35v-365h-75v323l-64 -35v60l64 35v317h75z" />
    <glyph glyph-name="fl.ss02" horiz-adv-x="542" 
d="M303 628h-79c-36 0 -48 -12 -48 -45v-67h127v-72h-127v-444h-75v444h-73v72h73v61c0 88 27 123 123 123h79v-72zM467 700v-700h-75v700h75z" />
    <glyph glyph-name="uniFB04.ss02" horiz-adv-x="859" 
d="M303 628h-79c-36 0 -48 -12 -48 -45v-67h127v-72h-127v-444h-75v444h-73v72h73v61c0 88 27 123 123 123h79v-72zM620 628h-79c-36 0 -48 -12 -48 -45v-67h127v-72h-127v-444h-75v444h-73v72h73v61c0 88 27 123 123 123h79v-72zM784 700v-700h-75v700h75z" />
    </font>
</defs>
</svg>
