<?xml version="1.0" standalone="no"?>
<!DOCTYPE svg PUBLIC "-//W3C//DTD SVG 1.1//EN" "http://www.w3.org/Graphics/SVG/1.1/DTD/svg11.dtd" >
<svg xmlns="http://www.w3.org/2000/svg" xmlns:xlink="http://www.w3.org/1999/xlink" version="1.1">
<metadata>
Created by FontForge 20170910 at Sun Sep 15 00:45:52 2013
 By Jimmy Wärting
Copyright (c) 2011 Swiss Typefaces Sa`rl. All rights reserved.
</metadata>
<defs>
<font id="SimplonNorm-BoldItalic" horiz-adv-x="558" >
  <font-face 
    font-family="Simplon Norm Bold Italic"
    font-weight="700"
    font-style="italic"
    font-stretch="normal"
    units-per-em="1000"
    panose-1="2 11 8 0 3 0 0 0 0 0"
    ascent="806"
    descent="-194"
    x-height="516"
    cap-height="700"
    bbox="-201 -304 1174 884"
    underline-thickness="100"
    underline-position="-100"
    slope="-12"
    stemh="116"
    stemv="130"
    unicode-range="U+0020-FB04"
  />
<missing-glyph horiz-adv-x="500" 
d="M388 0h-387l148 700h387zM221 646l56 -242l160 242h-216zM76 98l168 256l-59 256zM351 88l110 515l-170 -258zM99 54h215l-56 241z" />
    <glyph glyph-name=".notdef" horiz-adv-x="500" 
d="M388 0h-387l148 700h387zM221 646l56 -242l160 242h-216zM76 98l168 256l-59 256zM351 88l110 515l-170 -258zM99 54h215l-56 241z" />
    <glyph glyph-name=".null" horiz-adv-x="0" 
 />
    <glyph glyph-name="CR" horiz-adv-x="0" 
 />
    <glyph glyph-name="space" unicode=" " horiz-adv-x="210" 
 />
    <glyph glyph-name="exclam" unicode="!" horiz-adv-x="300" 
d="M310 700l-104 -490h-132l104 490h132zM14 0l35 160h160l-35 -160h-160z" />
    <glyph glyph-name="quotedbl" unicode="&#x22;" horiz-adv-x="492" 
d="M266 476h-132v224h132v-224zM497 476h-132v224h132v-224z" />
    <glyph glyph-name="numbersign" unicode="#" horiz-adv-x="699" 
d="M346 0l44 179h-129l-44 -179h-127l44 179h-62v120h92l26 102h-93v120h123l45 179h127l-45 -179h129l45 179h127l-45 -179h63v-120h-93l-26 -102h94v-120h-124l-44 -179h-127zM317 401l-26 -102h129l26 102h-129z" />
    <glyph glyph-name="dollar" unicode="$" horiz-adv-x="527" 
d="M167 -100l20 96c-98 19 -167 91 -167 192c0 11 0 22 2 33h129c-1 -6 -1 -12 -1 -18c0 -44 22 -79 61 -92l40 186l-34 12c-100 36 -127 122 -127 185c0 70 31 216 236 216c4 0 8 -1 12 -1l20 91h43l-21 -96c87 -20 155 -88 155 -179c0 -5 0 -7 -1 -16h-128v8
c0 39 -23 60 -50 70l-38 -178l27 -9c87 -31 125 -118 125 -184c0 -75 -28 -226 -227 -226h-14l-19 -90h-43zM218 505c0 -33 16 -62 60 -81l36 170c-51 0 -96 -30 -96 -89zM342 198c0 31 -12 63 -51 83l-38 -175c67 2 89 47 89 92z" />
    <glyph glyph-name="percent" unicode="%" horiz-adv-x="884" 
d="M649 700h106l-481 -700h-106zM222 369c32 0 47 18 53 47c14 62 36 162 36 175c0 17 -10 34 -44 34c-32 0 -47 -18 -54 -47c-14 -62 -35 -162 -35 -175c0 -17 10 -34 44 -34zM217 288c-72 0 -129 43 -129 112c0 28 29 162 31 173c18 85 56 133 153 133
c72 0 129 -43 129 -112c0 -28 -29 -162 -32 -173c-19 -84 -55 -133 -152 -133zM654 75c32 0 47 18 53 47c14 62 36 162 36 175c0 17 -10 34 -44 34c-32 0 -47 -18 -54 -47c-14 -62 -35 -162 -35 -175c0 -17 10 -34 44 -34zM649 -6c-72 0 -129 43 -129 112
c0 28 29 162 31 173c18 85 56 133 153 133c72 0 129 -43 129 -112c0 -28 -29 -162 -32 -173c-19 -84 -55 -133 -152 -133z" />
    <glyph glyph-name="ampersand" unicode="&#x26;" horiz-adv-x="612" 
d="M332 584c-92 -3 -119 -38 -119 -91c0 -42 30 -78 87 -86h96l18 81h132l-17 -81h121l-25 -116h-121l-61 -291h-223c-122 0 -200 86 -200 180c0 81 29 151 117 196c-32 27 -52 75 -52 120c0 136 98 204 263 204h111l-25 -116h-102zM224 116h111l37 175h-101
c-56 0 -123 -26 -123 -95c0 -44 27 -80 76 -80z" />
    <glyph glyph-name="quotesingle" unicode="'" horiz-adv-x="261" 
d="M266 476h-132v224h132v-224z" />
    <glyph glyph-name="parenleft" unicode="(" horiz-adv-x="298" 
d="M263 540c-106 -499 -118 -547 -118 -562c0 -19 11 -31 31 -31h36l-26 -119h-21c-99 0 -140 59 -140 130c0 68 22 135 122 610c20 93 48 132 160 132h64l-26 -119h-36c-32 0 -41 -17 -46 -41z" />
    <glyph glyph-name="parenright" unicode=")" horiz-adv-x="299" 
d="M38 -12c106 499 118 547 118 562c0 19 -11 31 -31 31h-36l26 119h21c99 0 140 -59 140 -130c0 -68 -22 -135 -122 -610c-20 -93 -48 -132 -160 -132h-64l26 119h36c32 0 41 17 46 41z" />
    <glyph glyph-name="asterisk" unicode="*" horiz-adv-x="536" 
d="M154 614l110 -38l26 124h120l-26 -124l126 38l14 -119l-128 -36l59 -112l-99 -63l-59 112l-100 -112l-89 77l100 112l-111 35z" />
    <glyph glyph-name="plus" unicode="+" 
d="M342 505v-170h170v-120h-170v-170h-120v170h-170v120h170v170h120z" />
    <glyph glyph-name="comma" unicode="," horiz-adv-x="300" 
d="M15 0l34 160h160l-34 -160l-68 -114h-94l68 114h-66z" />
    <glyph glyph-name="hyphen" unicode="-" horiz-adv-x="370" 
d="M55 335h290l-25 -120h-290z" />
    <glyph glyph-name="period" unicode="." horiz-adv-x="300" 
d="M15 0l34 160h160l-34 -160h-160z" />
    <glyph glyph-name="slash" unicode="/" horiz-adv-x="377" 
d="M-20 0l283 700h134l-283 -700h-134z" />
    <glyph glyph-name="zero" unicode="0" horiz-adv-x="556" 
d="M496 209c-33 -143 -99 -219 -252 -219c-123 0 -206 79 -206 183c0 48 50 278 59 318c33 143 99 219 252 219c123 0 206 -79 206 -183c0 -48 -50 -278 -59 -318zM230 498c-20 -94 -64 -290 -64 -318c0 -40 25 -74 88 -74c58 0 96 35 109 96c20 94 64 290 64 318
c0 40 -25 74 -88 74c-58 0 -96 -35 -109 -96z" />
    <glyph glyph-name="one" unicode="1" horiz-adv-x="366" 
d="M257 700h132l-148 -700h-132l112 530l-158 -116l36 170z" />
    <glyph glyph-name="two" unicode="2" horiz-adv-x="530" 
d="M538 527c0 -104 -54 -182 -137 -249l-199 -162h257l-24 -116h-459l24 116l319 260c51 42 91 86 91 144c0 40 -25 74 -88 74c-74 0 -105 -56 -113 -114h-131c30 148 97 230 254 230c123 0 206 -79 206 -183z" />
    <glyph glyph-name="three" unicode="3" horiz-adv-x="536" 
d="M229 -10c-129 0 -206 79 -206 183c0 6 1 21 2 27h128c-1 -6 -2 -16 -2 -20c0 -40 25 -74 88 -74c67 0 111 57 111 109c0 44 -33 76 -86 76h-58l25 116h58c71 0 123 46 123 113c0 40 -25 74 -88 74c-57 0 -96 -34 -109 -94h-131c34 137 100 210 250 210
c123 0 206 -79 206 -183c0 -91 -49 -161 -118 -190c32 -25 50 -70 50 -116c0 -144 -92 -231 -243 -231z" />
    <glyph glyph-name="four" unicode="4" horiz-adv-x="519" 
d="M484 160h-72l-34 -160h-132l34 160h-302l24 113l392 427h132l-91 -427h72zM168 273h135l43 194z" />
    <glyph glyph-name="five" unicode="5" horiz-adv-x="542" 
d="M364 202c15 70 15 71 15 77c0 33 -21 63 -78 63c-44 0 -85 -20 -104 -57h-134l88 415h424l-25 -116h-292l-32 -154c19 14 48 28 100 28c93 0 182 -74 182 -177c0 -15 -1 -22 -11 -72c-30 -142 -99 -219 -252 -219c-123 0 -206 79 -206 183c0 6 1 15 2 27h128
c-1 -9 -2 -16 -2 -20c0 -40 25 -74 88 -74c58 0 95 35 109 96z" />
    <glyph glyph-name="six" unicode="6" horiz-adv-x="546" 
d="M214 423c20 16 56 28 100 28c97 0 187 -71 187 -191c0 -16 -1 -33 -5 -51c-33 -142 -99 -219 -252 -219c-123 0 -205 79 -205 183c0 58 49 279 58 318c33 143 99 219 252 219c123 0 206 -79 206 -183c0 -6 -1 -15 -2 -27h-128c1 9 2 16 2 20c0 40 -25 74 -88 74
c-58 0 -94 -35 -109 -96c-5 -20 -10 -46 -16 -75zM175 239c-6 -29 -9 -51 -9 -59c0 -40 25 -74 88 -74c58 0 96 35 109 96c6 29 9 51 9 59c0 40 -25 74 -88 74c-58 0 -96 -35 -109 -96z" />
    <glyph glyph-name="seven" unicode="7" horiz-adv-x="464" 
d="M525 584l-343 -584h-148l343 584h-306l24 116h454z" />
    <glyph glyph-name="eight" unicode="8" horiz-adv-x="532" 
d="M100 483c0 93 49 227 235 227c121 0 202 -82 202 -184c0 -66 -25 -151 -104 -196c25 -32 40 -71 40 -117c0 -75 -36 -223 -234 -223c-121 0 -212 78 -212 193c0 54 19 148 106 195c-21 29 -33 66 -33 105zM155 193c0 -52 33 -87 92 -87c73 0 98 59 98 107
c0 52 -33 87 -92 87c-73 0 -98 -59 -98 -107zM409 514c0 47 -29 80 -83 80c-68 0 -98 -54 -98 -107c0 -47 29 -80 83 -80c68 0 98 54 98 107z" />
    <glyph glyph-name="nine" unicode="9" horiz-adv-x="546" 
d="M369 277c-20 -16 -56 -28 -100 -28c-97 0 -187 71 -187 191c0 16 1 33 5 51c33 142 99 219 252 219c123 0 205 -79 205 -183c0 -58 -49 -279 -58 -318c-33 -143 -99 -219 -252 -219c-123 0 -206 79 -206 183c0 6 1 15 2 27h128c-1 -9 -2 -16 -2 -20c0 -40 25 -74 88 -74
c58 0 94 35 109 96c5 20 10 46 16 75zM408 461c6 29 9 51 9 59c0 40 -25 74 -88 74c-58 0 -96 -35 -109 -96c-6 -29 -9 -51 -9 -59c0 -40 25 -74 88 -74c58 0 96 35 109 96z" />
    <glyph glyph-name="colon" unicode=":" horiz-adv-x="300" 
d="M91 356l34 160h160l-34 -160h-160zM15 0l34 160h160l-34 -160h-160z" />
    <glyph glyph-name="semicolon" unicode=";" horiz-adv-x="300" 
d="M91 356l34 160h160l-34 -160h-160zM15 0l34 160h160l-34 -160l-68 -114h-94l68 114h-66z" />
    <glyph glyph-name="less" unicode="&#x3c;" 
d="M201 259l311 -133v-131l-460 197v134l460 197v-131z" />
    <glyph glyph-name="equal" unicode="=" 
d="M512 335h-460v120h460v-120zM52 215h460v-120h-460v120z" />
    <glyph glyph-name="greater" unicode="&#x3e;" 
d="M52 126l311 133l-311 133v131l460 -197v-134l-460 -197v131z" />
    <glyph glyph-name="question" unicode="?" horiz-adv-x="527" 
d="M206 500h-131c34 137 100 210 250 210c123 0 206 -79 206 -183c0 -93 -34 -152 -105 -206l-62 -48c-32 -25 -47 -32 -54 -59l-1 -4h-132l5 22c12 54 30 83 88 128l62 48c52 40 71 57 71 106c0 46 -25 80 -88 80c-57 0 -96 -34 -109 -94zM118 0l34 160h160l-34 -160h-160z
" />
    <glyph glyph-name="at" unicode="@" horiz-adv-x="936" 
d="M234 143c0 75 26 120 98 154c51 24 154 32 232 38c-9 47 -42 76 -96 76c-46 0 -78 -22 -91 -57h-133c21 108 98 176 224 176c148 0 230 -94 230 -237v-148c0 -25 13 -34 30 -34s31 9 31 34v163c0 178 -104 281 -291 281s-291 -103 -291 -281v-100
c0 -178 104 -281 291 -281c73 0 133 16 179 45l60 -110c-68 -39 -150 -56 -239 -56c-226 0 -413 112 -413 405v94c0 293 187 405 413 405s413 -112 413 -405v-179c0 -78 -60 -136 -153 -136c-83 0 -131 23 -162 59c-26 -37 -77 -59 -141 -59c-121 0 -191 58 -191 153z
M394 202c-22 -11 -28 -22 -28 -44c0 -25 19 -52 78 -52c68 0 122 38 122 103v17c-75 -5 -147 -11 -172 -24z" />
    <glyph glyph-name="A" unicode="A" horiz-adv-x="625" 
d="M406 266l-33 229l-130 -229h163zM423 142h-251l-81 -142h-147l398 700h128l101 -700h-127z" />
    <glyph glyph-name="B" unicode="B" horiz-adv-x="626" 
d="M171 130h176c55 0 103 31 103 89c0 38 -23 70 -77 70h-169zM10 0l148 700h282c134 0 190 -97 190 -184c0 -64 -32 -140 -100 -176c34 -31 54 -70 54 -116c0 -148 -95 -224 -259 -224h-315zM232 419h165c59 0 99 38 99 85c0 35 -18 66 -75 66h-157z" />
    <glyph glyph-name="C" unicode="C" horiz-adv-x="605" 
d="M612 466h-132c2 12 2 14 2 17c0 63 -41 97 -115 97c-73 0 -130 -45 -148 -126c-5 -23 -48 -211 -48 -237c0 -63 41 -97 115 -97c69 0 124 41 145 114h135c-34 -147 -106 -244 -297 -244c-150 0 -232 95 -232 204c0 49 37 211 47 257c33 155 102 259 300 259
c150 0 232 -95 232 -204c0 -10 -1 -24 -4 -40z" />
    <glyph glyph-name="D" unicode="D" horiz-adv-x="636" 
d="M292 0h-282l148 700h245c150 0 232 -95 232 -204c0 -49 -33 -191 -43 -237c-33 -155 -102 -259 -300 -259zM170 130h139c73 0 130 45 148 126c5 23 44 191 44 217c0 63 -41 97 -115 97h-122z" />
    <glyph glyph-name="E" unicode="E" horiz-adv-x="539" 
d="M264 570l-32 -151h292l-28 -130h-292l-34 -159h292l-27 -130h-425l148 700h425l-28 -130h-291z" />
    <glyph glyph-name="F" unicode="F" horiz-adv-x="529" 
d="M264 570l-32 -151h292l-28 -130h-292l-61 -289h-133l148 700h426l-29 -130h-291z" />
    <glyph glyph-name="G" unicode="G" horiz-adv-x="613" 
d="M438 269h-130l28 130h264c-11 -59 -26 -124 -32 -150c-34 -155 -102 -259 -300 -259c-150 0 -232 95 -232 204c0 49 37 211 47 257c33 155 102 259 300 259c150 0 232 -95 232 -204c0 -7 -1 -16 -2 -27h-132v4c0 63 -41 97 -115 97c-73 0 -130 -45 -148 -126
c-5 -23 -48 -211 -48 -237c0 -63 41 -97 115 -97c73 0 130 45 148 126z" />
    <glyph glyph-name="H" unicode="H" horiz-adv-x="658" 
d="M494 419l59 281h133l-148 -700h-133l61 289h-262l-61 -289h-133l148 700h133l-59 -281h262z" />
    <glyph glyph-name="I" unicode="I" horiz-adv-x="263" 
d="M291 700l-148 -700h-133l148 700h133z" />
    <glyph glyph-name="J" unicode="J" horiz-adv-x="470" 
d="M270 204l105 496h133l-106 -500c-30 -139 -74 -210 -225 -210c-101 0 -187 70 -187 175c0 12 0 17 2 35h133c-1 -5 -1 -10 -1 -15c0 -41 26 -67 65 -67c52 0 71 40 81 86z" />
    <glyph glyph-name="K" unicode="K" horiz-adv-x="645" 
d="M184 197l-41 -197h-133l148 700h133l-59 -284l302 284h188l-308 -289l184 -411h-143l-141 316z" />
    <glyph glyph-name="L" unicode="L" horiz-adv-x="491" 
d="M292 700l-122 -570h292l-27 -130h-425l148 700h134z" />
    <glyph glyph-name="M" unicode="M" horiz-adv-x="743" 
d="M409 188h-104l-66 264l-96 -452h-133l148 700h131l91 -362l258 362h134l-149 -700h-133l92 429z" />
    <glyph glyph-name="N" unicode="N" horiz-adv-x="657" 
d="M686 700l-149 -700h-134l-159 475l-101 -475h-133l148 700h134l159 -475l101 475h134z" />
    <glyph glyph-name="O" unicode="O" horiz-adv-x="615" 
d="M84 451c33 155 102 259 300 259c150 0 232 -95 232 -204c0 -49 -37 -211 -47 -257c-33 -155 -102 -259 -300 -259c-150 0 -232 95 -232 204c0 49 37 211 47 257zM219 454c-5 -23 -48 -211 -48 -237c0 -63 41 -97 115 -97c73 0 130 45 148 126c5 23 48 211 48 237
c0 63 -41 97 -115 97c-73 0 -130 -45 -148 -126z" />
    <glyph glyph-name="P" unicode="P" horiz-adv-x="607" 
d="M217 347h145c71 0 142 46 142 124c0 47 -33 99 -104 99h-136zM189 217l-46 -217h-133l148 700h269c133 0 211 -112 211 -219c0 -169 -110 -264 -297 -264h-152z" />
    <glyph glyph-name="Q" unicode="Q" horiz-adv-x="626" 
d="M84 451c33 155 102 259 300 259c150 0 232 -95 232 -204c0 -49 -37 -211 -47 -257c-14 -66 -35 -123 -69 -167l38 -50l-96 -77l-42 55c-36 -13 -79 -20 -131 -20c-150 0 -232 95 -232 204c0 49 37 211 47 257zM219 454c-5 -23 -48 -211 -48 -237c0 -63 41 -97 115 -97
c10 0 19 0 29 2l-47 63l96 77l51 -67c8 15 15 32 19 51c5 23 48 211 48 237c0 63 -41 97 -115 97c-73 0 -130 -45 -148 -126z" />
    <glyph glyph-name="R" unicode="R" horiz-adv-x="618" 
d="M635 516c0 -73 -31 -197 -197 -223l110 -293h-137l-109 289h-98l-61 -289h-133l148 700h287c134 0 190 -97 190 -184zM232 419h170c59 0 99 38 99 85c0 35 -18 66 -75 66h-162z" />
    <glyph glyph-name="S" unicode="S" horiz-adv-x="541" 
d="M256 -10c-144 0 -242 89 -242 223v8h134v-7c0 -55 53 -94 123 -94c53 0 98 29 98 81c0 35 -15 69 -67 84l-86 25c-85 25 -136 91 -136 181c0 151 89 219 247 219c143 0 221 -101 221 -198v-10h-135c-9 45 -36 78 -101 78s-98 -30 -98 -75c0 -39 27 -66 58 -75l86 -25
c87 -25 145 -93 145 -182c0 -151 -82 -233 -247 -233z" />
    <glyph glyph-name="T" unicode="T" horiz-adv-x="526" 
d="M593 570h-195l-121 -570h-138l121 570h-195l27 130h529z" />
    <glyph glyph-name="U" unicode="U" horiz-adv-x="639" 
d="M182 217c0 -63 42 -97 116 -97c73 0 131 45 149 126c17 73 96 454 96 454h133s-80 -378 -95 -451c-32 -155 -102 -259 -300 -259c-150 0 -233 95 -233 204c0 49 37 211 100 506h133c-57 -269 -99 -457 -99 -483z" />
    <glyph glyph-name="V" unicode="V" horiz-adv-x="628" 
d="M292 196l281 504h150l-399 -700h-130l-101 700h131z" />
    <glyph glyph-name="W" unicode="W" horiz-adv-x="751" 
d="M410 0l-1 400l-178 -400h-145l20 700h129l-21 -480l170 380h130l-1 -371l181 471h140l-278 -700h-146z" />
    <glyph glyph-name="X" unicode="X" horiz-adv-x="622" 
d="M410 0l-100 238l-195 -238h-167l306 366l-143 334h140l94 -224l185 224h167l-297 -352l150 -348h-140z" />
    <glyph glyph-name="Y" unicode="Y" horiz-adv-x="605" 
d="M369 255l-54 -255h-134l54 255l-153 445h138l101 -304l230 304h161z" />
    <glyph glyph-name="Z" unicode="Z" horiz-adv-x="583" 
d="M503 0h-532l27 130l441 440h-342l27 130h522l-27 -130l-441 -440h352z" />
    <glyph glyph-name="bracketleft" unicode="[" horiz-adv-x="297" 
d="M270 581l-133 -634h74l-26 -119h-195l184 872h196l-26 -119h-74z" />
    <glyph glyph-name="backslash" unicode="\" horiz-adv-x="486" 
d="M188 700l283 -700h-134l-283 700h134z" />
    <glyph glyph-name="bracketright" unicode="]" horiz-adv-x="298" 
d="M30 -53l133 634h-74l26 119h196l-185 -872h-195l26 119h73z" />
    <glyph glyph-name="asciicircum" unicode="^" horiz-adv-x="626" 
d="M401 700l200 -400h-138l-125 250l-125 -250h-138l200 400h126z" />
    <glyph glyph-name="underscore" unicode="_" horiz-adv-x="430" 
d="M-77 -34h459l-25 -120h-459z" />
    <glyph glyph-name="grave" unicode="`" horiz-adv-x="321" 
d="M136 700h167l33 -129h-109z" />
    <glyph glyph-name="a" unicode="a" horiz-adv-x="555" 
d="M200 354h-133c36 115 103 176 240 176c124 0 206 -79 206 -195c0 -29 -13 -87 -21 -126l-45 -209h-132l12 53c-28 -39 -71 -63 -135 -63c-102 0 -171 68 -171 148c0 81 42 136 114 160c74 25 153 29 251 34v4c0 40 -23 78 -89 78c-44 0 -78 -23 -97 -60zM186 203
c-26 -11 -38 -25 -38 -51c0 -23 17 -49 72 -49c68 0 126 41 140 106l3 14c-76 -4 -149 -8 -177 -20z" />
    <glyph glyph-name="b" unicode="b" horiz-adv-x="564" 
d="M285 700l-49 -233c12 22 51 63 118 63c119 0 174 -103 174 -194c0 -33 -13 -97 -21 -137c-30 -143 -99 -209 -220 -209c-68 0 -114 31 -136 74l-14 -64h-132l148 700h132zM204 315c-19 -89 -24 -111 -24 -121c0 -49 22 -85 88 -85c58 0 96 35 109 96c19 89 24 111 24 121
c0 49 -22 85 -88 85c-58 0 -96 -35 -109 -96z" />
    <glyph glyph-name="c" unicode="c" horiz-adv-x="539" 
d="M514 336v-4h-128v4c0 41 -24 78 -88 78c-58 0 -96 -35 -109 -96c-19 -89 -26 -117 -26 -127c0 -49 22 -85 88 -85c53 0 89 30 105 82h132c-35 -129 -102 -198 -247 -198c-124 0 -206 79 -206 195c0 29 12 88 21 126c33 143 99 219 252 219c124 0 206 -79 206 -194z" />
    <glyph glyph-name="d" unicode="d" horiz-adv-x="563" 
d="M316 0l11 53c-12 -22 -51 -63 -118 -63c-119 0 -174 103 -174 194c0 33 13 97 21 137c30 143 99 209 220 209c68 0 114 -31 136 -74l52 244h132l-148 -700h-132zM359 205c19 89 24 111 24 121c0 49 -22 85 -88 85c-58 0 -96 -35 -109 -96c-19 -89 -24 -111 -24 -121
c0 -49 22 -85 88 -85c58 0 96 35 109 96z" />
    <glyph glyph-name="e" unicode="e" horiz-adv-x="546" 
d="M494 214h-328c-2 -11 -3 -19 -3 -23c0 -49 22 -85 88 -85c45 0 78 22 97 60h133c-36 -115 -103 -176 -240 -176c-124 0 -206 79 -206 195c0 29 12 88 21 126c33 143 99 219 252 219c124 0 206 -79 206 -195c0 -28 -11 -84 -20 -121zM386 320v9c0 49 -22 85 -88 85
c-57 0 -95 -36 -109 -94h197z" />
    <glyph glyph-name="f" unicode="f" horiz-adv-x="344" 
d="M415 584h-89c-32 0 -44 -20 -49 -44l-5 -24h128l-25 -116h-127l-85 -400h-132l85 400h-73l25 116h72l11 52c17 78 80 132 164 132h124z" />
    <glyph glyph-name="g" unicode="g" horiz-adv-x="561" 
d="M122 -3v-4c0 -35 26 -71 88 -71c58 0 96 35 109 96l15 72c-12 -22 -54 -63 -121 -63c-119 0 -174 103 -174 194c0 22 7 54 17 100c31 143 99 209 220 209c68 0 114 -31 136 -74l12 60h132l-104 -491c-30 -144 -99 -219 -252 -219c-124 0 -206 80 -206 187v4h128zM367 242
c11 56 16 74 16 84c0 49 -22 85 -88 85c-58 0 -96 -35 -109 -96c-13 -59 -16 -74 -16 -84c0 -49 22 -85 88 -85c58 0 97 35 109 96z" />
    <glyph glyph-name="h" unicode="h" horiz-adv-x="573" 
d="M508 199l-43 -199h-132l44 205c19 89 25 111 25 121c0 49 -22 85 -88 85c-58 0 -96 -35 -109 -96l-68 -315h-132l149 700h132l-50 -233c12 22 52 63 119 63c129 0 174 -103 174 -194c0 -33 -12 -97 -21 -137z" />
    <glyph glyph-name="i" unicode="i" horiz-adv-x="252" 
d="M286 700l-25 -117h-132l25 117h132zM247 516l-110 -516h-132l110 516h132z" />
    <glyph glyph-name="j" unicode="j" horiz-adv-x="251" 
d="M285 700l-24 -117h-132l24 117h132zM0 -24l114 540h132l-120 -568c-17 -78 -80 -132 -164 -132h-59l24 116h24c32 0 44 20 49 44z" />
    <glyph glyph-name="k" unicode="k" horiz-adv-x="538" 
d="M286 700l-74 -346l183 162h176l-230 -203l147 -313h-139l-107 226l-71 -64l-34 -162h-132l149 700h132z" />
    <glyph glyph-name="l" unicode="l" horiz-adv-x="280" 
d="M197 116h26l-24 -116h-34c-91 0 -128 52 -128 121c0 57 40 222 115 579h132c-93 -435 -117 -547 -117 -559c0 -15 10 -25 30 -25z" />
    <glyph glyph-name="m" unicode="m" horiz-adv-x="889" 
d="M205 320l-68 -320h-132l110 516h132l-11 -49c13 22 56 63 121 63c63 0 103 -31 123 -66c23 26 76 66 160 66c159 0 205 -105 205 -189c0 -35 -11 -92 -19 -132l-45 -209h-132l44 205c11 49 25 108 25 121c0 48 -22 85 -86 85c-50 0 -93 -33 -105 -91l-68 -320h-132
l44 205c11 49 25 108 25 121c0 48 -22 85 -86 85c-50 0 -93 -33 -105 -91z" />
    <glyph glyph-name="n" unicode="n" horiz-adv-x="573" 
d="M508 199l-43 -199h-132l44 205c19 89 25 111 25 121c0 49 -22 85 -88 85c-58 0 -96 -35 -109 -96l-68 -315h-132l110 516h132l-11 -49c12 22 52 63 119 63c129 0 174 -103 174 -194c0 -33 -12 -97 -21 -137z" />
    <glyph glyph-name="o" unicode="o" horiz-adv-x="549" 
d="M493 209c-33 -143 -99 -219 -252 -219c-124 0 -206 79 -206 195c0 29 12 88 21 126c33 143 99 219 252 219c124 0 206 -79 206 -195c0 -29 -12 -88 -21 -126zM189 318c-9 -40 -26 -115 -26 -133c0 -44 25 -79 88 -79c58 0 96 35 109 96c9 40 26 115 26 133
c0 44 -25 79 -88 79c-58 0 -95 -35 -109 -96z" />
    <glyph glyph-name="p" unicode="p" horiz-adv-x="565" 
d="M247 516l-10 -49c12 22 51 63 118 63c119 0 174 -103 174 -194c0 -33 -13 -97 -21 -137c-30 -143 -99 -209 -220 -209c-68 0 -114 31 -136 74l-53 -248h-132l148 700h132zM205 315c-19 -89 -24 -111 -24 -121c0 -49 22 -85 88 -85c58 0 96 35 109 96c19 89 24 111 24 121
c0 49 -22 85 -88 85c-58 0 -96 -35 -109 -96z" />
    <glyph glyph-name="q" unicode="q" horiz-adv-x="562" 
d="M277 -184l50 237c-12 -22 -51 -63 -118 -63c-119 0 -174 103 -174 194c0 33 13 97 21 137c30 143 99 209 220 209c68 0 114 -31 136 -74l13 60h132l-148 -700h-132zM359 205c19 89 24 111 24 121c0 49 -22 85 -88 85c-58 0 -96 -35 -109 -96c-19 -89 -24 -111 -24 -121
c0 -49 22 -85 88 -85c58 0 96 35 109 96z" />
    <glyph glyph-name="r" unicode="r" horiz-adv-x="364" 
d="M383 401h-72c-58 0 -96 -35 -109 -96l-65 -305h-132l110 516h132l-13 -54c12 22 52 63 119 63h56z" />
    <glyph glyph-name="s" unicode="s" horiz-adv-x="477" 
d="M208 -10c-114 0 -206 70 -206 168v9h128v-4c0 -37 43 -59 93 -59c33 0 76 12 76 44c0 25 -20 35 -46 42l-72 19c-65 17 -127 65 -127 147c0 119 92 174 209 174c91 0 189 -63 189 -159v-8h-128v3c-1 30 -37 50 -76 50c-38 0 -66 -16 -66 -43c0 -25 21 -35 39 -40l80 -21
c73 -19 128 -68 128 -144c0 -124 -79 -178 -221 -178z" />
    <glyph glyph-name="t" unicode="t" horiz-adv-x="367" 
d="M114 400h-73l24 116h73l25 117h132l-25 -117h127l-24 -116h-127c-41 -191 -53 -250 -53 -259c0 -15 10 -25 30 -25h89l-24 -116h-97c-91 0 -128 52 -128 121c0 38 17 123 51 279z" />
    <glyph glyph-name="u" unicode="u" horiz-adv-x="568" 
d="M259 109c54 0 92 36 105 96l67 311h132l-110 -516h-132l12 53c-10 -19 -54 -63 -119 -63c-116 0 -169 97 -169 189c0 35 10 92 19 132l44 205h132l-43 -201c-11 -49 -24 -108 -24 -121c0 -48 22 -85 86 -85z" />
    <glyph glyph-name="v" unicode="v" horiz-adv-x="490" 
d="M221 185l187 331h146l-295 -516h-136l-77 516h132z" />
    <glyph glyph-name="w" unicode="w" horiz-adv-x="704" 
d="M390 0l-13 359l-163 -359h-134l-27 516h130l12 -324l147 324h122l11 -316l144 316h142l-245 -516h-126z" />
    <glyph glyph-name="x" unicode="x" horiz-adv-x="506" 
d="M264 371l126 145h164l-229 -261l115 -255h-138l-63 146l-127 -146h-164l230 265l-114 251h137z" />
    <glyph glyph-name="y" unicode="y" horiz-adv-x="491" 
d="M122 4l-76 512h132l43 -325l182 325h151l-323 -565c-45 -78 -65 -135 -157 -135h-97l23 116h55c24 0 34 12 40 23z" />
    <glyph glyph-name="z" unicode="z" horiz-adv-x="442" 
d="M442 400l-274 -284h221l-24 -116h-394l25 116l274 284h-208l24 116h381z" />
    <glyph glyph-name="braceleft" unicode="{" horiz-adv-x="333" 
d="M60 -42c0 66 38 197 38 221c0 15 -7 24 -31 24h-36l25 122h36c32 0 42 17 47 41c13 59 27 124 43 202c19 93 48 132 160 132h64l-26 -119h-36c-32 0 -41 -17 -46 -41c-17 -84 -32 -147 -43 -205c-9 -46 -22 -64 -52 -79c12 -10 21 -24 21 -50c0 -30 -44 -205 -44 -228
c0 -19 11 -31 31 -31h36l-26 -119h-21c-99 0 -140 59 -140 130z" />
    <glyph glyph-name="bar" unicode="|" horiz-adv-x="252" 
d="M187 700v-800h-122v800h122z" />
    <glyph glyph-name="braceright" unicode="}" horiz-adv-x="333" 
d="M276 570c0 -66 -38 -197 -38 -221c0 -15 7 -24 31 -24h36l-25 -122h-36c-32 0 -42 -17 -47 -41c-13 -59 -27 -124 -43 -202c-19 -93 -48 -132 -160 -132h-64l26 119h36c32 0 41 17 46 41c17 84 32 147 43 205c9 46 22 64 52 79c-12 10 -21 24 -21 50c0 30 44 205 44 228
c0 19 -11 31 -31 31h-36l26 119h21c99 0 140 -59 140 -130z" />
    <glyph glyph-name="asciitilde" unicode="~" horiz-adv-x="550" 
d="M125 192l-77 85c55 61 112 81 158 81c62 0 95 -46 138 -46c29 0 52 13 87 46l77 -85c-55 -61 -112 -81 -158 -81c-62 0 -95 46 -138 46c-29 0 -52 -13 -87 -46z" />
    <glyph glyph-name="uni00A0" unicode="&#xa0;" horiz-adv-x="210" 
 />
    <glyph glyph-name="exclamdown" unicode="&#xa1;" horiz-adv-x="270" 
d="M-25 -184l104 490h132l-104 -490h-132zM271 516l-35 -160h-160l35 160h160z" />
    <glyph glyph-name="cent" unicode="&#xa2;" horiz-adv-x="550" 
d="M182 -100l153 720h43l-153 -720h-43zM521 336v-4h-128v4c0 41 -24 78 -88 78c-58 0 -96 -35 -109 -96c-19 -89 -26 -117 -26 -127c0 -49 22 -85 88 -85c53 0 89 30 105 82h132c-35 -129 -102 -198 -247 -198c-124 0 -206 79 -206 195c0 29 12 88 21 126
c33 143 99 219 252 219c124 0 206 -79 206 -194z" />
    <glyph glyph-name="sterling" unicode="&#xa3;" horiz-adv-x="614" 
d="M617 481h-128c3 19 5 33 5 39c0 40 -25 74 -88 74c-58 0 -96 -35 -109 -96l-23 -107h196l-17 -80h-196l-35 -164c-3 -15 -9 -28 -16 -31h338l-25 -116h-523l25 116h29c28 0 38 21 43 44l32 151h-64l17 80h64l22 100c31 143 99 219 252 219c123 0 206 -79 206 -183
c0 -9 -2 -26 -5 -46z" />
    <glyph glyph-name="currency" unicode="&#xa4;" horiz-adv-x="704" 
d="M613 37l-85 85c-45 -33 -100 -52 -160 -52c-61 0 -116 20 -161 53l-86 -86l-56 56l86 86c-34 45 -53 101 -53 161s19 115 53 160l-86 87l56 56l86 -87c45 34 100 54 161 54c60 0 115 -20 160 -53l85 86l56 -56l-85 -86c34 -45 54 -101 54 -161c0 -61 -20 -117 -54 -162
l85 -85zM217 340c0 -83 68 -151 151 -151s151 68 151 151s-68 151 -151 151s-151 -68 -151 -151z" />
    <glyph glyph-name="yen" unicode="&#xa5;" horiz-adv-x="648" 
d="M525 128h-163l-27 -128h-132l27 128h-164l17 80h164l10 47h-164l17 80h119l-126 365h134l104 -311l237 311h155l-282 -365h118l-17 -80h-163l-10 -47h163z" />
    <glyph glyph-name="brokenbar" unicode="&#xa6;" horiz-adv-x="252" 
d="M65 -100v339h122v-339h-122zM65 361v339h122v-339h-122z" />
    <glyph glyph-name="section" unicode="&#xa7;" horiz-adv-x="526" 
d="M3 -17h125c0 -35 36 -61 71 -61c41 0 73 22 73 65c0 31 -19 52 -47 63l-84 33c-60 24 -105 77 -105 162c0 95 46 151 118 181c-16 26 -26 56 -26 90c0 118 64 194 204 194c93 0 178 -59 184 -168h-125c-2 32 -36 52 -71 52c-41 0 -73 -22 -73 -65c0 -31 19 -52 47 -63
l84 -33c60 -24 105 -77 105 -162c0 -95 -47 -152 -119 -182c17 -25 27 -56 27 -89c0 -118 -64 -194 -204 -194c-93 0 -181 62 -184 177zM310 333l-31 12c-69 0 -123 -44 -123 -91c0 -35 16 -57 53 -71l30 -12c69 0 124 44 124 91c0 35 -16 57 -53 71z" />
    <glyph glyph-name="dieresis" unicode="&#xa8;" horiz-adv-x="432" 
d="M276 694l-25 -117h-132l25 117h132zM472 694l-25 -117h-132l25 117h132z" />
    <glyph glyph-name="copyright" unicode="&#xa9;" horiz-adv-x="780" 
d="M49 350c0 199 161 360 360 360s360 -161 360 -360s-161 -360 -360 -360s-360 161 -360 360zM157 350c0 -138 113 -251 252 -251s250 113 250 251s-111 251 -250 251s-252 -113 -252 -251zM409 168c-97 0 -146 57 -146 137v86c0 80 49 136 146 136c96 0 145 -54 147 -133
h-94c-3 24 -24 41 -53 41c-30 0 -53 -18 -53 -44v-86c0 -27 23 -45 53 -45c29 0 50 16 53 41h94c-2 -79 -51 -133 -147 -133z" />
    <glyph glyph-name="ordfeminine" unicode="&#xaa;" horiz-adv-x="336" 
d="M177 395c-58 0 -101 40 -101 89c0 45 26 79 61 92c46 16 86 18 146 21c-2 11 -8 31 -46 31c-18 0 -33 -10 -42 -23h-94c21 64 57 103 142 103c82 0 129 -53 129 -127c0 -14 -5 -39 -8 -54l-27 -126h-93l7 30c-17 -22 -38 -36 -74 -36zM196 473c37 0 68 23 75 54
c-36 0 -80 -5 -90 -9s-17 -13 -17 -24c0 -8 5 -21 32 -21z" />
    <glyph glyph-name="guillemotleft" unicode="&#xab;" horiz-adv-x="492" 
d="M176 61l-144 155l25 114l210 155l-38 -176l-69 -51l47 -51zM393 61l-144 155l25 114l210 155l-38 -176l-69 -51l47 -51z" />
    <glyph glyph-name="logicalnot" unicode="&#xac;" 
d="M52 335h460v-290h-120v170h-340v120z" />
    <glyph glyph-name="uni00AD" unicode="&#xad;" horiz-adv-x="370" 
d="M55 335h290l-25 -120h-290z" />
    <glyph glyph-name="registered" unicode="&#xae;" horiz-adv-x="780" 
d="M49 350c0 199 161 360 360 360s360 -161 360 -360s-161 -360 -360 -360s-360 161 -360 360zM157 350c0 -138 113 -251 252 -251s250 113 250 251s-111 251 -250 251s-252 -113 -252 -251zM567 173h-107l-76 130h-21v-130h-93v349h166c79 0 120 -40 120 -109
c0 -53 -24 -89 -70 -103zM363 430v-36h75c18 0 25 6 25 18s-7 18 -25 18h-75z" />
    <glyph glyph-name="macron" unicode="&#xaf;" horiz-adv-x="439" 
d="M140 688h341l-23 -104h-341z" />
    <glyph glyph-name="degree" unicode="&#xb0;" horiz-adv-x="383" 
d="M91 549c0 86 70 156 156 156s156 -70 156 -156s-70 -156 -156 -156s-156 70 -156 156zM188 549c0 -33 26 -60 59 -60s59 27 59 60s-26 60 -59 60s-59 -27 -59 -60z" />
    <glyph glyph-name="plusminus" unicode="&#xb1;" 
d="M222 280h-170v120h170v116h120v-116h170v-120h-170v-116h-120v116zM52 120h460v-120h-460v120z" />
    <glyph glyph-name="twosuperior" unicode="&#xb2;" horiz-adv-x="321" 
d="M46 401l17 80l188 147c29 23 46 43 46 70c0 17 -10 34 -44 34c-44 0 -53 -33 -56 -55h-92c17 84 55 136 153 136c72 0 129 -43 129 -112c0 -55 -27 -104 -78 -143l-102 -77h138l-16 -80h-283z" />
    <glyph glyph-name="threesuperior" unicode="&#xb3;" horiz-adv-x="325" 
d="M204 395c-78 0 -129 43 -129 112v10h91c0 -1 -1 -6 -1 -7c0 -17 10 -34 44 -34s54 27 54 50c0 22 -17 36 -45 36h-36l18 81h36c36 0 62 18 62 55c0 17 -10 34 -44 34c-29 0 -45 -14 -52 -38h-92c21 75 57 119 149 119c72 0 129 -43 129 -112c0 -49 -26 -90 -65 -106
c17 -15 25 -41 25 -66c0 -89 -58 -134 -144 -134z" />
    <glyph glyph-name="acute" unicode="&#xb4;" horiz-adv-x="321" 
d="M191 700h172l-118 -129h-114z" />
    <glyph glyph-name="mu" unicode="&#xb5;" horiz-adv-x="575" 
d="M237 -10c-51 0 -82 29 -88 64l-51 -238h-131l148 700h132l-43 -201c-11 -49 -24 -108 -24 -121c0 -48 21 -85 85 -85c56 0 93 36 106 96l67 311h132l-110 -516h-132l11 49c-13 -28 -47 -59 -102 -59z" />
    <glyph glyph-name="mu" unicode="&#x3bc;" horiz-adv-x="575" 
d="M237 -10c-51 0 -82 29 -88 64l-51 -238h-131l148 700h132l-43 -201c-11 -49 -24 -108 -24 -121c0 -48 21 -85 85 -85c56 0 93 36 106 96l67 311h132l-110 -516h-132l11 49c-13 -28 -47 -59 -102 -59z" />
    <glyph glyph-name="paragraph" unicode="&#xb6;" horiz-adv-x="650" 
d="M240 300h-10c-95 0 -161 82 -161 176c0 130 100 224 246 224h364l-167 -787h-122l141 665h-110l-141 -665h-122z" />
    <glyph glyph-name="periodcentered" unicode="&#xb7;" horiz-adv-x="310" 
d="M64 205l34 160h160l-34 -160h-160z" />
    <glyph glyph-name="cedilla" unicode="&#xb8;" horiz-adv-x="270" 
d="M-45 -158l57 158h111l-38 -158h-130z" />
    <glyph glyph-name="onesuperior" unicode="&#xb9;" horiz-adv-x="226" 
d="M123 401l61 288l-92 -68l25 118l92 68h93l-86 -406h-93z" />
    <glyph glyph-name="ordmasculine" unicode="&#xba;" horiz-adv-x="331" 
d="M219 476c28 0 44 17 50 45c5 19 13 57 13 64c0 20 -6 43 -46 43c-28 0 -43 -18 -50 -46c-5 -18 -13 -57 -13 -63c0 -21 6 -43 46 -43zM213 395c-82 0 -129 54 -129 127c0 15 4 41 8 54c19 82 54 132 150 132c82 0 129 -53 129 -127c0 -14 -4 -40 -8 -54
c-20 -81 -54 -132 -150 -132z" />
    <glyph glyph-name="guillemotright" unicode="&#xbb;" horiz-adv-x="492" 
d="M104 485l144 -155l-25 -114l-210 -155l38 176l69 51l-47 51zM321 485l144 -155l-25 -114l-210 -155l38 176l69 51l-47 51z" />
    <glyph glyph-name="onequarter" unicode="&#xbc;" horiz-adv-x="730" 
d="M120 294l61 288l-92 -68l25 118l92 68h93l-86 -406h-93zM545 700h106l-481 -700h-106zM515 0l18 84h-170l17 79l221 243h93l-52 -243h41l-15 -79h-42l-18 -84h-93zM497 163h52l18 78z" />
    <glyph glyph-name="onehalf" unicode="&#xbd;" horiz-adv-x="778" 
d="M120 294l61 288l-92 -68l25 118l92 68h93l-86 -406h-93zM545 700h106l-481 -700h-106zM393 0l17 80l188 147c29 23 46 43 46 70c0 17 -10 34 -44 34c-44 0 -53 -33 -56 -55h-92c17 84 55 136 153 136c72 0 129 -43 129 -112c0 -55 -27 -104 -78 -143l-102 -77h138
l-16 -80h-283z" />
    <glyph glyph-name="threequarters" unicode="&#xbe;" horiz-adv-x="829" 
d="M202 288c-78 0 -129 43 -129 112v10h91c0 -1 -1 -6 -1 -7c0 -17 10 -34 44 -34s54 27 54 50c0 22 -17 36 -45 36h-36l18 81h36c36 0 62 18 62 55c0 17 -10 34 -44 34c-29 0 -45 -14 -52 -38h-92c21 75 57 119 149 119c72 0 129 -43 129 -112c0 -49 -26 -90 -65 -106
c17 -15 25 -41 25 -66c0 -89 -58 -134 -144 -134zM644 700h106l-481 -700h-106zM613 0l18 84h-170l17 79l221 243h93l-52 -243h41l-15 -79h-42l-18 -84h-93zM595 163h52l18 78z" />
    <glyph glyph-name="questiondown" unicode="&#xbf;" horiz-adv-x="510" 
d="M313 16h131c-34 -137 -100 -210 -250 -210c-123 0 -206 79 -206 183c0 93 34 152 105 206l62 48c32 25 47 32 54 59l1 4h132l-5 -22c-12 -54 -30 -83 -88 -128l-62 -48c-52 -40 -71 -57 -71 -106c0 -46 25 -80 88 -80c57 0 96 34 109 94zM401 516l-34 -160h-160l34 160
h160z" />
    <glyph glyph-name="Agrave" unicode="&#xc0;" horiz-adv-x="625" 
d="M406 266l-33 229l-130 -229h163zM423 142h-251l-81 -142h-147l398 700h128l101 -700h-127zM260 854h169l52 -109h-116z" />
    <glyph glyph-name="Aacute" unicode="&#xc1;" horiz-adv-x="625" 
d="M406 266l-33 229l-130 -229h163zM423 142h-251l-81 -142h-147l398 700h128l101 -700h-127zM407 854h174l-128 -109h-121z" />
    <glyph glyph-name="Acircumflex" unicode="&#xc2;" horiz-adv-x="625" 
d="M406 266l-33 229l-130 -229h163zM423 142h-251l-81 -142h-147l398 700h128l101 -700h-127zM469 745l-37 35l-51 -35h-152l154 109h110l108 -109h-132z" />
    <glyph glyph-name="Atilde" unicode="&#xc3;" horiz-adv-x="625" 
d="M406 266l-33 229l-130 -229h163zM423 142h-251l-81 -142h-147l398 700h128l101 -700h-127zM505 864h104c-13 -70 -51 -130 -119 -130c-24 0 -39 3 -61 14l-27 13c-7 3 -13 4 -18 4c-14 0 -25 -10 -32 -29h-104c13 70 51 130 119 130c24 0 39 -3 61 -14l27 -13
c7 -3 13 -4 18 -4c14 0 25 10 32 29z" />
    <glyph glyph-name="Adieresis" unicode="&#xc4;" horiz-adv-x="625" 
d="M406 266l-33 229l-130 -229h163zM423 142h-251l-81 -142h-147l398 700h128l101 -700h-127zM409 858l-25 -117h-134l25 117h134zM605 858l-25 -117h-134l25 117h134z" />
    <glyph glyph-name="Aring" unicode="&#xc5;" horiz-adv-x="625" 
d="M406 266l-33 229l-130 -229h163zM423 142h-251l-81 -142h-147l398 700h128l101 -700h-127zM353 799c0 41 33 75 74 75s75 -34 75 -75s-34 -74 -75 -74s-74 33 -74 74zM409 799c0 -10 8 -18 18 -18s18 8 18 18s-8 18 -18 18s-18 -8 -18 -18z" />
    <glyph glyph-name="AE" unicode="&#xc6;" horiz-adv-x="878" 
d="M408 700h514l-28 -130h-291l-32 -151h292l-28 -130h-292l-34 -159h292l-27 -130h-425l34 159h-188l-107 -159h-150zM280 284h129l60 282z" />
    <glyph glyph-name="Ccedilla" unicode="&#xc7;" horiz-adv-x="605" 
d="M153 -158l51 155c-109 23 -167 105 -167 197c0 49 37 211 47 257c33 155 102 259 300 259c150 0 232 -95 232 -204c0 -10 -1 -24 -4 -40h-132c2 12 2 14 2 17c0 63 -41 97 -115 97c-73 0 -130 -45 -148 -126c-5 -23 -48 -211 -48 -237c0 -63 41 -97 115 -97
c69 0 124 41 145 114h135c-31 -133 -92 -225 -245 -241l-36 -151h-132z" />
    <glyph glyph-name="Egrave" unicode="&#xc8;" horiz-adv-x="539" 
d="M264 570l-32 -151h292l-28 -130h-292l-34 -159h292l-27 -130h-425l148 700h425l-28 -130h-291zM225 854h169l52 -109h-116z" />
    <glyph glyph-name="Eacute" unicode="&#xc9;" horiz-adv-x="539" 
d="M264 570l-32 -151h292l-28 -130h-292l-34 -159h292l-27 -130h-425l148 700h425l-28 -130h-291zM372 854h174l-128 -109h-121z" />
    <glyph glyph-name="Ecircumflex" unicode="&#xca;" horiz-adv-x="539" 
d="M264 570l-32 -151h292l-28 -130h-292l-34 -159h292l-27 -130h-425l148 700h425l-28 -130h-291zM433 745l-37 35l-51 -35h-152l154 109h110l108 -109h-132z" />
    <glyph glyph-name="Edieresis" unicode="&#xcb;" horiz-adv-x="539" 
d="M264 570l-32 -151h292l-28 -130h-292l-34 -159h292l-27 -130h-425l148 700h425l-28 -130h-291zM374 858l-25 -117h-134l25 117h134zM570 858l-25 -117h-134l25 117h134z" />
    <glyph glyph-name="Igrave" unicode="&#xcc;" horiz-adv-x="263" 
d="M291 700l-148 -700h-133l148 700h133zM79 854h169l52 -109h-116z" />
    <glyph glyph-name="Iacute" unicode="&#xcd;" horiz-adv-x="263" 
d="M291 700l-148 -700h-133l148 700h133zM226 854h174l-128 -109h-121z" />
    <glyph glyph-name="Icircumflex" unicode="&#xce;" horiz-adv-x="263" 
d="M291 700l-148 -700h-133l148 700h133zM288 745l-37 35l-51 -35h-152l154 109h110l108 -109h-132z" />
    <glyph glyph-name="Idieresis" unicode="&#xcf;" horiz-adv-x="263" 
d="M291 700l-148 -700h-133l148 700h133zM228 858l-25 -117h-134l25 117h134zM424 858l-25 -117h-134l25 117h134z" />
    <glyph glyph-name="Eth" unicode="&#xd0;" horiz-adv-x="647" 
d="M303 0h-282l64 303h-70l19 90h70l65 307h245c150 0 232 -95 232 -204c0 -49 -33 -191 -43 -237c-33 -155 -102 -259 -300 -259zM181 130h139c73 0 130 45 148 126c5 23 44 191 44 217c0 63 -41 97 -115 97h-122l-38 -177h130l-19 -90h-130z" />
    <glyph glyph-name="Ntilde" unicode="&#xd1;" horiz-adv-x="657" 
d="M686 700l-149 -700h-134l-159 475l-101 -475h-133l148 700h134l159 -475l101 475h134zM520 864h104c-13 -70 -51 -130 -119 -130c-24 0 -39 3 -61 14l-27 13c-7 3 -13 4 -18 4c-14 0 -25 -10 -32 -29h-104c13 70 51 130 119 130c24 0 39 -3 61 -14l27 -13
c7 -3 13 -4 18 -4c14 0 25 10 32 29z" />
    <glyph glyph-name="Ograve" unicode="&#xd2;" horiz-adv-x="615" 
d="M84 451c33 155 102 259 300 259c150 0 232 -95 232 -204c0 -49 -37 -211 -47 -257c-33 -155 -102 -259 -300 -259c-150 0 -232 95 -232 204c0 49 37 211 47 257zM219 454c-5 -23 -48 -211 -48 -237c0 -63 41 -97 115 -97c73 0 130 45 148 126c5 23 48 211 48 237
c0 63 -41 97 -115 97c-73 0 -130 -45 -148 -126zM255 854h169l52 -109h-116z" />
    <glyph glyph-name="Oacute" unicode="&#xd3;" horiz-adv-x="615" 
d="M84 451c33 155 102 259 300 259c150 0 232 -95 232 -204c0 -49 -37 -211 -47 -257c-33 -155 -102 -259 -300 -259c-150 0 -232 95 -232 204c0 49 37 211 47 257zM219 454c-5 -23 -48 -211 -48 -237c0 -63 41 -97 115 -97c73 0 130 45 148 126c5 23 48 211 48 237
c0 63 -41 97 -115 97c-73 0 -130 -45 -148 -126zM402 854h174l-128 -109h-121z" />
    <glyph glyph-name="Ocircumflex" unicode="&#xd4;" horiz-adv-x="615" 
d="M84 451c33 155 102 259 300 259c150 0 232 -95 232 -204c0 -49 -37 -211 -47 -257c-33 -155 -102 -259 -300 -259c-150 0 -232 95 -232 204c0 49 37 211 47 257zM219 454c-5 -23 -48 -211 -48 -237c0 -63 41 -97 115 -97c73 0 130 45 148 126c5 23 48 211 48 237
c0 63 -41 97 -115 97c-73 0 -130 -45 -148 -126zM464 745l-37 35l-51 -35h-152l154 109h110l108 -109h-132z" />
    <glyph glyph-name="Otilde" unicode="&#xd5;" horiz-adv-x="615" 
d="M84 451c33 155 102 259 300 259c150 0 232 -95 232 -204c0 -49 -37 -211 -47 -257c-33 -155 -102 -259 -300 -259c-150 0 -232 95 -232 204c0 49 37 211 47 257zM219 454c-5 -23 -48 -211 -48 -237c0 -63 41 -97 115 -97c73 0 130 45 148 126c5 23 48 211 48 237
c0 63 -41 97 -115 97c-73 0 -130 -45 -148 -126zM500 864h104c-13 -70 -51 -130 -119 -130c-24 0 -39 3 -61 14l-27 13c-7 3 -13 4 -18 4c-14 0 -25 -10 -32 -29h-104c13 70 51 130 119 130c24 0 39 -3 61 -14l27 -13c7 -3 13 -4 18 -4c14 0 25 10 32 29z" />
    <glyph glyph-name="Odieresis" unicode="&#xd6;" horiz-adv-x="615" 
d="M84 451c33 155 102 259 300 259c150 0 232 -95 232 -204c0 -49 -37 -211 -47 -257c-33 -155 -102 -259 -300 -259c-150 0 -232 95 -232 204c0 49 37 211 47 257zM219 454c-5 -23 -48 -211 -48 -237c0 -63 41 -97 115 -97c73 0 130 45 148 126c5 23 48 211 48 237
c0 63 -41 97 -115 97c-73 0 -130 -45 -148 -126zM404 858l-25 -117h-134l25 117h134zM600 858l-25 -117h-134l25 117h134z" />
    <glyph glyph-name="multiply" unicode="&#xd7;" 
d="M510 419l-144 -144l144 -143l-85 -85l-144 143l-143 -143l-85 85l143 143l-143 144l85 85l143 -144l144 144z" />
    <glyph glyph-name="Oslash" unicode="&#xd8;" horiz-adv-x="621" 
d="M87 451c33 155 102 259 300 259c61 0 111 -16 149 -42l62 75l73 -49l-76 -92c16 -29 24 -62 24 -96c0 -49 -37 -211 -47 -257c-33 -155 -102 -259 -300 -259c-61 0 -111 16 -149 42l-61 -74l-73 48l75 91c-16 29 -24 62 -24 97c0 49 37 211 47 257zM222 454
c-5 -21 -39 -172 -47 -223l272 330c-19 12 -45 19 -77 19c-73 0 -130 -45 -148 -126zM437 246c4 20 38 168 46 221l-271 -328c19 -13 45 -19 77 -19c73 0 130 45 148 126z" />
    <glyph glyph-name="Ugrave" unicode="&#xd9;" horiz-adv-x="639" 
d="M182 217c0 -63 42 -97 116 -97c73 0 131 45 149 126c17 73 96 454 96 454h133s-80 -378 -95 -451c-32 -155 -102 -259 -300 -259c-150 0 -233 95 -233 204c0 49 37 211 100 506h133c-57 -269 -99 -457 -99 -483zM265 854h169l52 -109h-116z" />
    <glyph glyph-name="Uacute" unicode="&#xda;" horiz-adv-x="639" 
d="M182 217c0 -63 42 -97 116 -97c73 0 131 45 149 126c17 73 96 454 96 454h133s-80 -378 -95 -451c-32 -155 -102 -259 -300 -259c-150 0 -233 95 -233 204c0 49 37 211 100 506h133c-57 -269 -99 -457 -99 -483zM413 854h174l-128 -109h-121z" />
    <glyph glyph-name="Ucircumflex" unicode="&#xdb;" horiz-adv-x="639" 
d="M182 217c0 -63 42 -97 116 -97c73 0 131 45 149 126c17 73 96 454 96 454h133s-80 -378 -95 -451c-32 -155 -102 -259 -300 -259c-150 0 -233 95 -233 204c0 49 37 211 100 506h133c-57 -269 -99 -457 -99 -483zM475 745l-37 35l-51 -35h-152l154 109h110l108 -109h-132z
" />
    <glyph glyph-name="Udieresis" unicode="&#xdc;" horiz-adv-x="639" 
d="M182 217c0 -63 42 -97 116 -97c73 0 131 45 149 126c17 73 96 454 96 454h133s-80 -378 -95 -451c-32 -155 -102 -259 -300 -259c-150 0 -233 95 -233 204c0 49 37 211 100 506h133c-57 -269 -99 -457 -99 -483zM415 858l-25 -117h-134l25 117h134zM611 858l-25 -117
h-134l25 117h134z" />
    <glyph glyph-name="Yacute" unicode="&#xdd;" horiz-adv-x="605" 
d="M369 255l-54 -255h-134l54 255l-153 445h138l101 -304l230 304h161zM398 854h174l-128 -109h-121z" />
    <glyph glyph-name="Thorn" unicode="&#xde;" horiz-adv-x="597" 
d="M194 240h145c71 0 142 46 142 124c0 47 -33 99 -104 99h-136zM166 110l-23 -110h-133l148 700h133l-23 -107h136c133 0 211 -112 211 -219c0 -169 -110 -264 -297 -264h-152z" />
    <glyph glyph-name="germandbls" unicode="&#xdf;" horiz-adv-x="553" 
d="M289 322h-37l23 106h25c53 0 97 53 97 100c0 36 -27 66 -66 66c-47 0 -76 -33 -85 -77l-110 -517h-131l110 518c27 129 85 192 231 192c117 0 179 -104 179 -177c0 -81 -36 -127 -75 -156c47 -38 64 -93 64 -141c0 -162 -102 -246 -265 -246c-20 0 -49 2 -66 5l27 125
c12 -11 32 -14 54 -14c67 0 122 48 122 118c0 56 -41 98 -97 98z" />
    <glyph glyph-name="agrave" unicode="&#xe0;" horiz-adv-x="555" 
d="M200 354h-133c36 115 103 176 240 176c124 0 206 -79 206 -195c0 -29 -13 -87 -21 -126l-45 -209h-132l12 53c-28 -39 -71 -63 -135 -63c-102 0 -171 68 -171 148c0 81 42 136 114 160c74 25 153 29 251 34v4c0 40 -23 78 -89 78c-44 0 -78 -23 -97 -60zM186 203
c-26 -11 -38 -25 -38 -51c0 -23 17 -49 72 -49c68 0 126 41 140 106l3 14c-76 -4 -149 -8 -177 -20zM206 700h167l33 -129h-109z" />
    <glyph glyph-name="aacute" unicode="&#xe1;" horiz-adv-x="555" 
d="M200 354h-133c36 115 103 176 240 176c124 0 206 -79 206 -195c0 -29 -13 -87 -21 -126l-45 -209h-132l12 53c-28 -39 -71 -63 -135 -63c-102 0 -171 68 -171 148c0 81 42 136 114 160c74 25 153 29 251 34v4c0 40 -23 78 -89 78c-44 0 -78 -23 -97 -60zM186 203
c-26 -11 -38 -25 -38 -51c0 -23 17 -49 72 -49c68 0 126 41 140 106l3 14c-76 -4 -149 -8 -177 -20zM321 700h172l-118 -129h-114z" />
    <glyph glyph-name="acircumflex" unicode="&#xe2;" horiz-adv-x="555" 
d="M200 354h-133c36 115 103 176 240 176c124 0 206 -79 206 -195c0 -29 -13 -87 -21 -126l-45 -209h-132l12 53c-28 -39 -71 -63 -135 -63c-102 0 -171 68 -171 148c0 81 42 136 114 160c74 25 153 29 251 34v4c0 40 -23 78 -89 78c-44 0 -78 -23 -97 -60zM186 203
c-26 -11 -38 -25 -38 -51c0 -23 17 -49 72 -49c68 0 126 41 140 106l3 14c-76 -4 -149 -8 -177 -20zM434 700l99 -129h-128l-39 45l-58 -45h-147l153 129h120z" />
    <glyph glyph-name="atilde" unicode="&#xe3;" horiz-adv-x="555" 
d="M200 354h-133c36 115 103 176 240 176c124 0 206 -79 206 -195c0 -29 -13 -87 -21 -126l-45 -209h-132l12 53c-28 -39 -71 -63 -135 -63c-102 0 -171 68 -171 148c0 81 42 136 114 160c74 25 153 29 251 34v4c0 40 -23 78 -89 78c-44 0 -78 -23 -97 -60zM186 203
c-26 -11 -38 -25 -38 -51c0 -23 17 -49 72 -49c68 0 126 41 140 106l3 14c-76 -4 -149 -8 -177 -20zM279 572h-97c13 70 51 130 119 130c24 0 39 -4 61 -15l27 -13c7 -3 14 -5 24 -5s25 8 32 31h98c-13 -70 -51 -130 -119 -130c-24 0 -39 4 -61 15l-27 13c-7 3 -14 5 -24 5
s-25 -8 -33 -31z" />
    <glyph glyph-name="adieresis" unicode="&#xe4;" horiz-adv-x="555" 
d="M200 354h-133c36 115 103 176 240 176c124 0 206 -79 206 -195c0 -29 -13 -87 -21 -126l-45 -209h-132l12 53c-28 -39 -71 -63 -135 -63c-102 0 -171 68 -171 148c0 81 42 136 114 160c74 25 153 29 251 34v4c0 40 -23 78 -89 78c-44 0 -78 -23 -97 -60zM186 203
c-26 -11 -38 -25 -38 -51c0 -23 17 -49 72 -49c68 0 126 41 140 106l3 14c-76 -4 -149 -8 -177 -20zM340 694l-25 -117h-132l25 117h132zM536 694l-25 -117h-132l25 117h132z" />
    <glyph glyph-name="aring" unicode="&#xe5;" horiz-adv-x="555" 
d="M200 354h-133c36 115 103 176 240 176c124 0 206 -79 206 -195c0 -29 -13 -87 -21 -126l-45 -209h-132l12 53c-28 -39 -71 -63 -135 -63c-102 0 -171 68 -171 148c0 81 42 136 114 160c74 25 153 29 251 34v4c0 40 -23 78 -89 78c-44 0 -78 -23 -97 -60zM186 203
c-26 -11 -38 -25 -38 -51c0 -23 17 -49 72 -49c68 0 126 41 140 106l3 14c-76 -4 -149 -8 -177 -20zM287 635c0 41 33 75 74 75s75 -34 75 -75s-34 -74 -75 -74s-74 33 -74 74zM341 635c0 -11 9 -20 20 -20s20 9 20 20s-9 20 -20 20s-20 -9 -20 -20z" />
    <glyph glyph-name="ae" unicode="&#xe6;" horiz-adv-x="872" 
d="M386 332v4c0 40 -23 78 -89 78c-44 0 -78 -23 -97 -60h-133c36 115 103 176 240 176c64 0 120 -27 153 -66c33 36 86 66 174 66c124 0 206 -79 206 -195c0 -28 -11 -84 -20 -121h-328c-2 -11 -3 -19 -3 -23c0 -49 22 -85 88 -85c45 0 78 22 97 60h133
c-36 -115 -103 -176 -240 -176c-84 0 -147 35 -181 93c-36 -53 -96 -93 -194 -93c-102 0 -171 68 -171 148c0 81 42 136 114 160c74 25 153 29 251 34zM186 203c-26 -11 -38 -25 -38 -51c0 -23 17 -49 72 -49c68 0 126 41 140 106l3 14c-76 -4 -149 -8 -177 -20zM712 320v9
c0 49 -22 85 -88 85c-57 0 -95 -36 -109 -94h197z" />
    <glyph glyph-name="ccedilla" unicode="&#xe7;" horiz-adv-x="539" 
d="M117 -158l56 157c-85 23 -138 92 -138 186c0 29 12 88 21 126c33 143 99 219 252 219c124 0 206 -79 206 -194v-4h-128v4c0 41 -24 78 -88 78c-58 0 -96 -35 -109 -96c-19 -89 -26 -117 -26 -127c0 -49 22 -85 88 -85c53 0 89 30 105 82h132c-32 -116 -89 -184 -205 -196
l-36 -150h-130z" />
    <glyph glyph-name="egrave" unicode="&#xe8;" horiz-adv-x="546" 
d="M494 214h-328c-2 -11 -3 -19 -3 -23c0 -49 22 -85 88 -85c45 0 78 22 97 60h133c-36 -115 -103 -176 -240 -176c-124 0 -206 79 -206 195c0 29 12 88 21 126c33 143 99 219 252 219c124 0 206 -79 206 -195c0 -28 -11 -84 -20 -121zM386 320v9c0 49 -22 85 -88 85
c-57 0 -95 -36 -109 -94h197zM211 700h167l33 -129h-109z" />
    <glyph glyph-name="eacute" unicode="&#xe9;" horiz-adv-x="546" 
d="M494 214h-328c-2 -11 -3 -19 -3 -23c0 -49 22 -85 88 -85c45 0 78 22 97 60h133c-36 -115 -103 -176 -240 -176c-124 0 -206 79 -206 195c0 29 12 88 21 126c33 143 99 219 252 219c124 0 206 -79 206 -195c0 -28 -11 -84 -20 -121zM386 320v9c0 49 -22 85 -88 85
c-57 0 -95 -36 -109 -94h197zM325 700h172l-118 -129h-114z" />
    <glyph glyph-name="ecircumflex" unicode="&#xea;" horiz-adv-x="546" 
d="M494 214h-328c-2 -11 -3 -19 -3 -23c0 -49 22 -85 88 -85c45 0 78 22 97 60h133c-36 -115 -103 -176 -240 -176c-124 0 -206 79 -206 195c0 29 12 88 21 126c33 143 99 219 252 219c124 0 206 -79 206 -195c0 -28 -11 -84 -20 -121zM386 320v9c0 49 -22 85 -88 85
c-57 0 -95 -36 -109 -94h197zM428 700l99 -129h-128l-39 45l-58 -45h-147l153 129h120z" />
    <glyph glyph-name="edieresis" unicode="&#xeb;" horiz-adv-x="546" 
d="M494 214h-328c-2 -11 -3 -19 -3 -23c0 -49 22 -85 88 -85c45 0 78 22 97 60h133c-36 -115 -103 -176 -240 -176c-124 0 -206 79 -206 195c0 29 12 88 21 126c33 143 99 219 252 219c124 0 206 -79 206 -195c0 -28 -11 -84 -20 -121zM386 320v9c0 49 -22 85 -88 85
c-57 0 -95 -36 -109 -94h197zM334 694l-25 -117h-132l25 117h132zM530 694l-25 -117h-132l25 117h132z" />
    <glyph glyph-name="igrave" unicode="&#xec;" horiz-adv-x="252" 
d="M247 516l-110 -516h-132l110 516h132zM62 700h167l33 -129h-109z" />
    <glyph glyph-name="iacute" unicode="&#xed;" horiz-adv-x="252" 
d="M247 516l-110 -516h-132l110 516h132zM175 700h172l-118 -129h-114z" />
    <glyph glyph-name="icircumflex" unicode="&#xee;" horiz-adv-x="312" 
d="M277 516l-110 -516h-132l110 516h132zM309 700l99 -129h-128l-39 45l-58 -45h-147l153 129h120z" />
    <glyph glyph-name="idieresis" unicode="&#xef;" horiz-adv-x="292" 
d="M267 516l-110 -516h-132l110 516h132zM207 694l-25 -117h-132l25 117h132zM403 694l-25 -117h-132l25 117h132z" />
    <glyph glyph-name="eth" unicode="&#xf0;" horiz-adv-x="549" 
d="M493 209c-33 -143 -99 -219 -252 -219c-124 0 -206 79 -206 195c0 29 12 88 21 126c32 138 94 214 239 219l-18 35h-142l17 80h83l-28 55h145l28 -55h107l-17 -80h-49l59 -114c17 -34 34 -61 34 -116c0 -29 -12 -88 -21 -126zM189 318c-9 -40 -26 -115 -26 -133
c0 -44 25 -79 88 -79c58 0 96 35 109 96c9 40 26 115 26 133c0 44 -25 79 -88 79c-58 0 -95 -35 -109 -96z" />
    <glyph glyph-name="ntilde" unicode="&#xf1;" horiz-adv-x="573" 
d="M508 199l-43 -199h-132l44 205c19 89 25 111 25 121c0 49 -22 85 -88 85c-58 0 -96 -35 -109 -96l-68 -315h-132l110 516h132l-11 -49c12 22 52 63 119 63c129 0 174 -103 174 -194c0 -33 -12 -97 -21 -137zM288 572h-97c13 70 51 130 119 130c24 0 39 -4 61 -15l27 -13
c7 -3 14 -5 24 -5s25 8 32 31h98c-13 -70 -51 -130 -119 -130c-24 0 -39 4 -61 15l-27 13c-7 3 -14 5 -24 5s-25 -8 -33 -31z" />
    <glyph glyph-name="ograve" unicode="&#xf2;" horiz-adv-x="549" 
d="M493 209c-33 -143 -99 -219 -252 -219c-124 0 -206 79 -206 195c0 29 12 88 21 126c33 143 99 219 252 219c124 0 206 -79 206 -195c0 -29 -12 -88 -21 -126zM189 318c-9 -40 -26 -115 -26 -133c0 -44 25 -79 88 -79c58 0 96 35 109 96c9 40 26 115 26 133
c0 44 -25 79 -88 79c-58 0 -95 -35 -109 -96zM210 700h167l33 -129h-109z" />
    <glyph glyph-name="oacute" unicode="&#xf3;" horiz-adv-x="549" 
d="M493 209c-33 -143 -99 -219 -252 -219c-124 0 -206 79 -206 195c0 29 12 88 21 126c33 143 99 219 252 219c124 0 206 -79 206 -195c0 -29 -12 -88 -21 -126zM189 318c-9 -40 -26 -115 -26 -133c0 -44 25 -79 88 -79c58 0 96 35 109 96c9 40 26 115 26 133
c0 44 -25 79 -88 79c-58 0 -95 -35 -109 -96zM324 700h172l-118 -129h-114z" />
    <glyph glyph-name="ocircumflex" unicode="&#xf4;" horiz-adv-x="549" 
d="M493 209c-33 -143 -99 -219 -252 -219c-124 0 -206 79 -206 195c0 29 12 88 21 126c33 143 99 219 252 219c124 0 206 -79 206 -195c0 -29 -12 -88 -21 -126zM189 318c-9 -40 -26 -115 -26 -133c0 -44 25 -79 88 -79c58 0 96 35 109 96c9 40 26 115 26 133
c0 44 -25 79 -88 79c-58 0 -95 -35 -109 -96zM428 700l99 -129h-128l-39 45l-58 -45h-147l153 129h120z" />
    <glyph glyph-name="otilde" unicode="&#xf5;" horiz-adv-x="549" 
d="M493 209c-33 -143 -99 -219 -252 -219c-124 0 -206 79 -206 195c0 29 12 88 21 126c33 143 99 219 252 219c124 0 206 -79 206 -195c0 -29 -12 -88 -21 -126zM189 318c-9 -40 -26 -115 -26 -133c0 -44 25 -79 88 -79c58 0 96 35 109 96c9 40 26 115 26 133
c0 44 -25 79 -88 79c-58 0 -95 -35 -109 -96zM272 572h-97c13 70 51 130 119 130c24 0 39 -4 61 -15l27 -13c7 -3 14 -5 24 -5s25 8 32 31h98c-13 -70 -51 -130 -119 -130c-24 0 -39 4 -61 15l-27 13c-7 3 -14 5 -24 5s-25 -8 -33 -31z" />
    <glyph glyph-name="odieresis" unicode="&#xf6;" horiz-adv-x="549" 
d="M493 209c-33 -143 -99 -219 -252 -219c-124 0 -206 79 -206 195c0 29 12 88 21 126c33 143 99 219 252 219c124 0 206 -79 206 -195c0 -29 -12 -88 -21 -126zM189 318c-9 -40 -26 -115 -26 -133c0 -44 25 -79 88 -79c58 0 96 35 109 96c9 40 26 115 26 133
c0 44 -25 79 -88 79c-58 0 -95 -35 -109 -96zM335 694l-25 -117h-132l25 117h132zM531 694l-25 -117h-132l25 117h132z" />
    <glyph glyph-name="divide" unicode="&#xf7;" 
d="M209 449c0 40 33 72 73 72s72 -32 72 -72s-32 -73 -72 -73s-73 33 -73 73zM209 102c0 40 33 72 73 72s72 -32 72 -72s-32 -73 -72 -73s-73 33 -73 73zM52 335h460v-120h-460v120z" />
    <glyph glyph-name="oslash" unicode="&#xf8;" horiz-adv-x="555" 
d="M496 209c-33 -143 -99 -219 -252 -219c-51 0 -95 13 -129 37l-63 -69l-61 46l72 79c-16 29 -25 63 -25 102c0 29 12 88 21 126c33 143 99 219 252 219c51 0 95 -14 129 -38l64 70l61 -46l-74 -80c17 -29 26 -63 26 -101c0 -29 -12 -88 -21 -126zM192 318
c-8 -35 -22 -96 -26 -123l190 206c-14 8 -32 13 -55 13c-58 0 -95 -35 -109 -96zM363 202c7 34 21 93 25 121l-189 -205c14 -8 32 -12 55 -12c58 0 96 35 109 96z" />
    <glyph glyph-name="ugrave" unicode="&#xf9;" horiz-adv-x="568" 
d="M259 109c54 0 92 36 105 96l67 311h132l-110 -516h-132l12 53c-10 -19 -54 -63 -119 -63c-116 0 -169 97 -169 189c0 35 10 92 19 132l44 205h132l-43 -201c-11 -49 -24 -108 -24 -121c0 -48 22 -85 86 -85zM218 700h167l33 -129h-109z" />
    <glyph glyph-name="uacute" unicode="&#xfa;" horiz-adv-x="568" 
d="M259 109c54 0 92 36 105 96l67 311h132l-110 -516h-132l12 53c-10 -19 -54 -63 -119 -63c-116 0 -169 97 -169 189c0 35 10 92 19 132l44 205h132l-43 -201c-11 -49 -24 -108 -24 -121c0 -48 22 -85 86 -85zM331 700h172l-118 -129h-114z" />
    <glyph glyph-name="ucircumflex" unicode="&#xfb;" horiz-adv-x="568" 
d="M259 109c54 0 92 36 105 96l67 311h132l-110 -516h-132l12 53c-10 -19 -54 -63 -119 -63c-116 0 -169 97 -169 189c0 35 10 92 19 132l44 205h132l-43 -201c-11 -49 -24 -108 -24 -121c0 -48 22 -85 86 -85zM435 700l99 -129h-128l-39 45l-58 -45h-147l153 129h120z" />
    <glyph glyph-name="udieresis" unicode="&#xfc;" horiz-adv-x="568" 
d="M259 109c54 0 92 36 105 96l67 311h132l-110 -516h-132l12 53c-10 -19 -54 -63 -119 -63c-116 0 -169 97 -169 189c0 35 10 92 19 132l44 205h132l-43 -201c-11 -49 -24 -108 -24 -121c0 -48 22 -85 86 -85zM341 694l-25 -117h-132l25 117h132zM537 694l-25 -117h-132
l25 117h132z" />
    <glyph glyph-name="yacute" unicode="&#xfd;" horiz-adv-x="491" 
d="M122 4l-76 512h132l43 -325l182 325h151l-323 -565c-45 -78 -65 -135 -157 -135h-97l23 116h55c24 0 34 12 40 23zM295 700h172l-118 -129h-114z" />
    <glyph glyph-name="thorn" unicode="&#xfe;" horiz-adv-x="564" 
d="M286 700l-50 -233c12 22 51 63 118 63c119 0 174 -103 174 -194c0 -33 -13 -97 -21 -137c-30 -143 -99 -209 -220 -209c-68 0 -114 31 -136 74l-53 -248h-132l188 884h132zM204 315c-19 -89 -24 -111 -24 -121c0 -49 22 -85 88 -85c58 0 96 35 109 96
c19 89 24 111 24 121c0 49 -22 85 -88 85c-58 0 -96 -35 -109 -96z" />
    <glyph glyph-name="ydieresis" unicode="&#xff;" horiz-adv-x="491" 
d="M122 4l-76 512h132l43 -325l182 325h151l-323 -565c-45 -78 -65 -135 -157 -135h-97l23 116h55c24 0 34 12 40 23zM306 694l-25 -117h-132l25 117h132zM502 694l-25 -117h-132l25 117h132z" />
    <glyph glyph-name="Abreve" unicode="&#x102;" horiz-adv-x="625" 
d="M406 266l-33 229l-130 -229h163zM423 142h-251l-81 -142h-147l398 700h128l101 -700h-127zM484 830c13 0 26 11 29 24h101c-13 -61 -72 -109 -133 -109h-132c-61 0 -100 48 -87 109h89c-3 -13 6 -24 19 -24h114z" />
    <glyph glyph-name="Amacron" unicode="&#x100;" horiz-adv-x="625" 
d="M406 266l-33 229l-130 -229h163zM423 142h-251l-81 -142h-147l398 700h128l101 -700h-127zM269 853h341l-23 -106h-341z" />
    <glyph glyph-name="Aogonek" unicode="&#x104;" horiz-adv-x="625" 
d="M444 0l-21 142h-251l-81 -142h-147l398 700h128l101 -700c-55 -33 -97 -54 -97 -79c0 -11 9 -15 23 -15c20 0 44 9 57 15l-20 -92c-19 -10 -50 -18 -85 -18c-55 0 -116 29 -116 88c0 47 46 83 111 101zM406 266l-33 229l-130 -229h163z" />
    <glyph glyph-name="Cacute" unicode="&#x106;" horiz-adv-x="605" 
d="M612 466h-132c2 12 2 14 2 17c0 63 -41 97 -115 97c-73 0 -130 -45 -148 -126c-5 -23 -48 -211 -48 -237c0 -63 41 -97 115 -97c69 0 124 41 145 114h135c-34 -147 -106 -244 -297 -244c-150 0 -232 95 -232 204c0 49 37 211 47 257c33 155 102 259 300 259
c150 0 232 -95 232 -204c0 -10 -1 -24 -4 -40zM402 854h174l-128 -109h-121z" />
    <glyph glyph-name="Ccaron" unicode="&#x10c;" horiz-adv-x="605" 
d="M612 466h-132c2 12 2 14 2 17c0 63 -41 97 -115 97c-73 0 -130 -45 -148 -126c-5 -23 -48 -211 -48 -237c0 -63 41 -97 115 -97c69 0 124 41 145 114h135c-34 -147 -106 -244 -297 -244c-150 0 -232 95 -232 204c0 49 37 211 47 257c33 155 102 259 300 259
c150 0 232 -95 232 -204c0 -10 -1 -24 -4 -40zM379 854l37 -35l51 35h152l-154 -109h-110l-108 109h132z" />
    <glyph glyph-name="Ccircumflex" unicode="&#x108;" horiz-adv-x="605" 
d="M612 466h-132c2 12 2 14 2 17c0 63 -41 97 -115 97c-73 0 -130 -45 -148 -126c-5 -23 -48 -211 -48 -237c0 -63 41 -97 115 -97c69 0 124 41 145 114h135c-34 -147 -106 -244 -297 -244c-150 0 -232 95 -232 204c0 49 37 211 47 257c33 155 102 259 300 259
c150 0 232 -95 232 -204c0 -10 -1 -24 -4 -40zM463 745l-37 35l-51 -35h-152l154 109h110l108 -109h-132z" />
    <glyph glyph-name="Cdotaccent" unicode="&#x10a;" horiz-adv-x="605" 
d="M612 466h-132c2 12 2 14 2 17c0 63 -41 97 -115 97c-73 0 -130 -45 -148 -126c-5 -23 -48 -211 -48 -237c0 -63 41 -97 115 -97c69 0 124 41 145 114h135c-34 -147 -106 -244 -297 -244c-150 0 -232 95 -232 204c0 49 37 211 47 257c33 155 102 259 300 259
c150 0 232 -95 232 -204c0 -10 -1 -24 -4 -40zM502 858l-25 -117h-134l25 117h134z" />
    <glyph glyph-name="Dcaron" unicode="&#x10e;" horiz-adv-x="636" 
d="M292 0h-282l148 700h245c150 0 232 -95 232 -204c0 -49 -33 -191 -43 -237c-33 -155 -102 -259 -300 -259zM170 130h139c73 0 130 45 148 126c5 23 44 191 44 217c0 63 -41 97 -115 97h-122zM365 854l37 -35l51 35h152l-154 -109h-110l-108 109h132z" />
    <glyph glyph-name="Dcroat" unicode="&#x110;" horiz-adv-x="647" 
d="M303 0h-282l64 303h-70l19 90h70l65 307h245c150 0 232 -95 232 -204c0 -49 -33 -191 -43 -237c-33 -155 -102 -259 -300 -259zM181 130h139c73 0 130 45 148 126c5 23 44 191 44 217c0 63 -41 97 -115 97h-122l-38 -177h130l-19 -90h-130z" />
    <glyph glyph-name="Ebreve" unicode="&#x114;" horiz-adv-x="539" 
d="M264 570l-32 -151h292l-28 -130h-292l-34 -159h292l-27 -130h-425l148 700h425l-28 -130h-291zM449 830c13 0 26 11 29 24h101c-13 -61 -72 -109 -133 -109h-132c-61 0 -100 48 -87 109h89c-3 -13 6 -24 19 -24h114z" />
    <glyph glyph-name="Ecaron" unicode="&#x11a;" horiz-adv-x="539" 
d="M264 570l-32 -151h292l-28 -130h-292l-34 -159h292l-27 -130h-425l148 700h425l-28 -130h-291zM324 755l-99 129h128l39 -45l58 45h147l-153 -129h-120z" />
    <glyph glyph-name="Emacron" unicode="&#x112;" horiz-adv-x="539" 
d="M264 570l-32 -151h292l-28 -130h-292l-34 -159h292l-27 -130h-425l148 700h425l-28 -130h-291zM234 853h341l-23 -106h-341z" />
    <glyph glyph-name="Eogonek" unicode="&#x118;" horiz-adv-x="539" 
d="M305 0h-295l148 700h425l-28 -130h-291l-32 -151h292l-28 -130h-292l-34 -159h292l-27 -130c-55 -33 -97 -54 -97 -79c0 -11 9 -15 23 -15c20 0 44 9 57 15l-20 -92c-19 -10 -50 -18 -85 -18c-55 0 -116 29 -116 88c0 47 44 81 108 101z" />
    <glyph glyph-name="Edotaccent" unicode="&#x116;" horiz-adv-x="539" 
d="M264 570l-32 -151h292l-28 -130h-292l-34 -159h292l-27 -130h-425l148 700h425l-28 -130h-291zM472 858l-25 -117h-134l25 117h134z" />
    <glyph glyph-name="Gbreve" unicode="&#x11e;" horiz-adv-x="613" 
d="M438 269h-130l28 130h264c-11 -59 -26 -124 -32 -150c-34 -155 -102 -259 -300 -259c-150 0 -232 95 -232 204c0 49 37 211 47 257c33 155 102 259 300 259c150 0 232 -95 232 -204c0 -7 -1 -16 -2 -27h-132v4c0 63 -41 97 -115 97c-73 0 -130 -45 -148 -126
c-5 -23 -48 -211 -48 -237c0 -63 41 -97 115 -97c73 0 130 45 148 126zM478 830c13 0 26 11 29 24h101c-13 -61 -72 -109 -133 -109h-132c-61 0 -100 48 -87 109h89c-3 -13 6 -24 19 -24h114z" />
    <glyph glyph-name="Gcircumflex" unicode="&#x11c;" horiz-adv-x="613" 
d="M438 269h-130l28 130h264c-11 -59 -26 -124 -32 -150c-34 -155 -102 -259 -300 -259c-150 0 -232 95 -232 204c0 49 37 211 47 257c33 155 102 259 300 259c150 0 232 -95 232 -204c0 -7 -1 -16 -2 -27h-132v4c0 63 -41 97 -115 97c-73 0 -130 -45 -148 -126
c-5 -23 -48 -211 -48 -237c0 -63 41 -97 115 -97c73 0 130 45 148 126zM463 745l-37 35l-51 -35h-152l154 109h110l108 -109h-132z" />
    <glyph glyph-name="Gcommaaccent" unicode="&#x122;" horiz-adv-x="613" 
d="M438 269h-130l28 130h264c-11 -59 -26 -124 -32 -150c-34 -155 -102 -259 -300 -259c-150 0 -232 95 -232 204c0 49 37 211 47 257c33 155 102 259 300 259c150 0 232 -95 232 -204c0 -7 -1 -16 -2 -27h-132v4c0 63 -41 97 -115 97c-73 0 -130 -45 -148 -126
c-5 -23 -48 -211 -48 -237c0 -63 41 -97 115 -97c73 0 130 45 148 126zM135 -200l31 150h150l-31 -150l-55 -104h-94l55 104h-56z" />
    <glyph glyph-name="Gdotaccent" unicode="&#x120;" horiz-adv-x="613" 
d="M438 269h-130l28 130h264c-11 -59 -26 -124 -32 -150c-34 -155 -102 -259 -300 -259c-150 0 -232 95 -232 204c0 49 37 211 47 257c33 155 102 259 300 259c150 0 232 -95 232 -204c0 -7 -1 -16 -2 -27h-132v4c0 63 -41 97 -115 97c-73 0 -130 -45 -148 -126
c-5 -23 -48 -211 -48 -237c0 -63 41 -97 115 -97c73 0 130 45 148 126zM501 858l-25 -117h-134l25 117h134z" />
    <glyph glyph-name="Hbar" unicode="&#x126;" horiz-adv-x="658" 
d="M291 700l-20 -95h262l20 95h133l-148 -700h-133l61 289h-262l-61 -289h-133l148 700h133zM494 419l20 96h-262l-20 -96h262z" />
    <glyph glyph-name="Hcircumflex" unicode="&#x124;" horiz-adv-x="658" 
d="M494 419l59 281h133l-148 -700h-133l61 289h-262l-61 -289h-133l148 700h133l-59 -281h262zM485 745l-37 35l-51 -35h-152l154 109h110l108 -109h-132z" />
    <glyph glyph-name="Ibreve" unicode="&#x12c;" horiz-adv-x="263" 
d="M291 700l-148 -700h-133l148 700h133zM303 830c13 0 26 11 29 24h101c-13 -61 -72 -109 -133 -109h-132c-61 0 -100 48 -87 109h89c-3 -13 6 -24 19 -24h114z" />
    <glyph glyph-name="Idotaccent" unicode="&#x130;" horiz-adv-x="263" 
d="M291 700l-148 -700h-133l148 700h133zM326 858l-25 -117h-134l25 117h134z" />
    <glyph glyph-name="Imacron" unicode="&#x12a;" horiz-adv-x="263" 
d="M291 700l-148 -700h-133l148 700h133zM92 872h341l-23 -104h-341z" />
    <glyph glyph-name="Iogonek" unicode="&#x12e;" horiz-adv-x="263" 
d="M10 0l148 700h133l-148 -700c-55 -33 -97 -54 -97 -79c0 -11 9 -15 23 -15c20 0 44 9 57 15l-20 -92c-19 -10 -50 -18 -85 -18c-55 0 -116 29 -116 88c0 47 41 81 105 101z" />
    <glyph glyph-name="Itilde" unicode="&#x128;" horiz-adv-x="263" 
d="M291 700l-148 -700h-133l148 700h133zM324 864h104c-13 -70 -51 -130 -119 -130c-24 0 -39 3 -61 14l-27 13c-7 3 -13 4 -18 4c-14 0 -25 -10 -32 -29h-104c13 70 51 130 119 130c24 0 39 -3 61 -14l27 -13c7 -3 13 -4 18 -4c14 0 25 10 32 29z" />
    <glyph glyph-name="uni1ECA" unicode="&#x1eca;" horiz-adv-x="263" 
d="M291 700l-148 -700h-133l148 700h133zM134 -50l-25 -117h-134l25 117h134z" />
    <glyph glyph-name="Jcircumflex" unicode="&#x134;" horiz-adv-x="470" 
d="M270 204l105 496h133l-106 -500c-30 -139 -74 -210 -225 -210c-101 0 -187 70 -187 175c0 12 0 17 2 35h133c-1 -5 -1 -10 -1 -15c0 -41 26 -67 65 -67c52 0 71 40 81 86zM504 745l-37 35l-51 -35h-152l154 109h110l108 -109h-132z" />
    <glyph glyph-name="Kcommaaccent" unicode="&#x136;" horiz-adv-x="645" 
d="M184 197l-41 -197h-133l148 700h133l-59 -284l302 284h188l-308 -289l184 -411h-143l-141 316zM164 -200l31 150h150l-31 -150l-55 -104h-94l55 104h-56z" />
    <glyph glyph-name="Lacute" unicode="&#x139;" horiz-adv-x="491" 
d="M292 700l-122 -570h292l-27 -130h-425l148 700h134zM226 854h174l-128 -109h-121z" />
    <glyph glyph-name="Lcaron" unicode="&#x13d;" horiz-adv-x="491" 
d="M570 700l-114 -158h-116l61 158h169zM292 700l-122 -570h292l-27 -130h-425l148 700h134z" />
    <glyph glyph-name="Lcommaaccent" unicode="&#x13b;" horiz-adv-x="491" 
d="M292 700l-122 -570h292l-27 -130h-425l148 700h134zM107 -200l31 150h150l-31 -150l-55 -104h-94l55 104h-56z" />
    <glyph glyph-name="Ldot" unicode="&#x13f;" horiz-adv-x="491" 
d="M292 700l-122 -570h292l-27 -130h-425l148 700h134zM489 475l-25 -117h-134l25 117h134z" />
    <glyph glyph-name="Lslash" unicode="&#x141;" horiz-adv-x="502" 
d="M303 700l-57 -264l145 73l-24 -112l-145 -73l-41 -194h292l-27 -130h-425l53 249l-79 -39l24 112l78 39l72 339h134z" />
    <glyph glyph-name="Eng" unicode="&#x14a;" horiz-adv-x="657" 
d="M686 700l-149 -700c-26 -123 -96 -184 -219 -184h-82l27 130h63c40 0 63 23 77 54l-159 475l-101 -475h-133l148 700h134l159 -475l101 475h134z" />
    <glyph glyph-name="Nacute" unicode="&#x143;" horiz-adv-x="657" 
d="M686 700l-149 -700h-134l-159 475l-101 -475h-133l148 700h134l159 -475l101 475h134zM423 854h174l-128 -109h-121z" />
    <glyph glyph-name="Ncaron" unicode="&#x147;" horiz-adv-x="657" 
d="M686 700l-149 -700h-134l-159 475l-101 -475h-133l148 700h134l159 -475l101 475h134zM400 854l37 -35l51 35h152l-154 -109h-110l-108 109h132z" />
    <glyph glyph-name="Ncommaaccent" unicode="&#x145;" horiz-adv-x="657" 
d="M686 700l-149 -700h-134l-159 475l-101 -475h-133l148 700h134l159 -475l101 475h134zM157 -200l31 150h150l-31 -150l-55 -104h-94l55 104h-56z" />
    <glyph glyph-name="OE" unicode="&#x152;" horiz-adv-x="912" 
d="M637 570l-32 -151h292l-28 -130h-292l-34 -159h292l-27 -130h-425l5 23c-29 -21 -75 -33 -119 -33c-150 0 -232 95 -232 204c0 49 37 211 47 257c33 155 106 259 290 259c85 0 132 -34 148 -53l9 43h425l-28 -130h-291zM219 454c-5 -23 -48 -211 -48 -237
c0 -63 41 -97 115 -97c73 0 130 45 148 126c5 23 48 211 48 237c0 63 -41 97 -115 97c-73 0 -130 -45 -148 -126z" />
    <glyph glyph-name="Obreve" unicode="&#x14e;" horiz-adv-x="615" 
d="M84 451c33 155 102 259 300 259c150 0 232 -95 232 -204c0 -49 -37 -211 -47 -257c-33 -155 -102 -259 -300 -259c-150 0 -232 95 -232 204c0 49 37 211 47 257zM219 454c-5 -23 -48 -211 -48 -237c0 -63 41 -97 115 -97c73 0 130 45 148 126c5 23 48 211 48 237
c0 63 -41 97 -115 97c-73 0 -130 -45 -148 -126zM479 830c13 0 26 11 29 24h101c-13 -61 -72 -109 -133 -109h-132c-61 0 -100 48 -87 109h89c-3 -13 6 -24 19 -24h114z" />
    <glyph glyph-name="Ohungarumlaut" unicode="&#x150;" horiz-adv-x="615" 
d="M84 451c33 155 102 259 300 259c150 0 232 -95 232 -204c0 -49 -37 -211 -47 -257c-33 -155 -102 -259 -300 -259c-150 0 -232 95 -232 204c0 49 37 211 47 257zM219 454c-5 -23 -48 -211 -48 -237c0 -63 41 -97 115 -97c73 0 130 45 148 126c5 23 48 211 48 237
c0 63 -41 97 -115 97c-73 0 -130 -45 -148 -126zM313 854h169l-118 -109h-116zM505 854h169l-118 -109h-116z" />
    <glyph glyph-name="Omacron" unicode="&#x14c;" horiz-adv-x="615" 
d="M84 451c33 155 102 259 300 259c150 0 232 -95 232 -204c0 -49 -37 -211 -47 -257c-33 -155 -102 -259 -300 -259c-150 0 -232 95 -232 204c0 49 37 211 47 257zM219 454c-5 -23 -48 -211 -48 -237c0 -63 41 -97 115 -97c73 0 130 45 148 126c5 23 48 211 48 237
c0 63 -41 97 -115 97c-73 0 -130 -45 -148 -126zM264 853h341l-23 -106h-341z" />
    <glyph glyph-name="uni1ECC" unicode="&#x1ecc;" horiz-adv-x="615" 
d="M84 451c33 155 102 259 300 259c150 0 232 -95 232 -204c0 -49 -37 -211 -47 -257c-33 -155 -102 -259 -300 -259c-150 0 -232 95 -232 204c0 49 37 211 47 257zM219 454c-5 -23 -48 -211 -48 -237c0 -63 41 -97 115 -97c73 0 130 45 148 126c5 23 48 211 48 237
c0 63 -41 97 -115 97c-73 0 -130 -45 -148 -126zM308 -50l-25 -117h-134l25 117h134z" />
    <glyph glyph-name="Racute" unicode="&#x154;" horiz-adv-x="618" 
d="M635 516c0 -73 -31 -197 -197 -223l110 -293h-137l-109 289h-98l-61 -289h-133l148 700h287c134 0 190 -97 190 -184zM232 419h170c59 0 99 38 99 85c0 35 -18 66 -75 66h-162zM389 854h174l-128 -109h-121z" />
    <glyph glyph-name="Rcaron" unicode="&#x158;" horiz-adv-x="618" 
d="M635 516c0 -73 -31 -197 -197 -223l110 -293h-137l-109 289h-98l-61 -289h-133l148 700h287c134 0 190 -97 190 -184zM232 419h170c59 0 99 38 99 85c0 35 -18 66 -75 66h-162zM365 854l37 -35l51 35h152l-154 -109h-110l-108 109h132z" />
    <glyph glyph-name="Rcommaaccent" unicode="&#x156;" horiz-adv-x="618" 
d="M635 516c0 -73 -31 -197 -197 -223l110 -293h-137l-109 289h-98l-61 -289h-133l148 700h287c134 0 190 -97 190 -184zM232 419h170c59 0 99 38 99 85c0 35 -18 66 -75 66h-162zM143 -200l31 150h150l-31 -150l-55 -104h-94l55 104h-56z" />
    <glyph glyph-name="Sacute" unicode="&#x15a;" horiz-adv-x="541" 
d="M256 -10c-144 0 -242 89 -242 223v8h134v-7c0 -55 53 -94 123 -94c53 0 98 29 98 81c0 35 -15 69 -67 84l-86 25c-85 25 -136 91 -136 181c0 151 89 219 247 219c143 0 221 -101 221 -198v-10h-135c-9 45 -36 78 -101 78s-98 -30 -98 -75c0 -39 27 -66 58 -75l86 -25
c87 -25 145 -93 145 -182c0 -151 -82 -233 -247 -233zM362 854h174l-128 -109h-121z" />
    <glyph glyph-name="Scaron" unicode="&#x160;" horiz-adv-x="541" 
d="M256 -10c-144 0 -242 89 -242 223v8h134v-7c0 -55 53 -94 123 -94c53 0 98 29 98 81c0 35 -15 69 -67 84l-86 25c-85 25 -136 91 -136 181c0 151 89 219 247 219c143 0 221 -101 221 -198v-10h-135c-9 45 -36 78 -101 78s-98 -30 -98 -75c0 -39 27 -66 58 -75l86 -25
c87 -25 145 -93 145 -182c0 -151 -82 -233 -247 -233zM339 854l37 -35l51 35h152l-154 -109h-110l-108 109h132z" />
    <glyph glyph-name="Scedilla" unicode="&#x15e;" horiz-adv-x="541" 
d="M138 -158l51 155c-107 23 -175 104 -175 216v8h134v-7c0 -55 53 -94 123 -94c53 0 98 29 98 81c0 35 -15 69 -67 84l-86 25c-85 25 -136 91 -136 181c0 151 89 219 247 219c143 0 221 -101 221 -198v-10h-135c-9 45 -36 78 -101 78s-98 -30 -98 -75c0 -39 27 -66 58 -75
l86 -25c87 -25 145 -93 145 -182c0 -135 -66 -215 -197 -230l-36 -151h-132z" />
    <glyph glyph-name="Scircumflex" unicode="&#x15c;" horiz-adv-x="541" 
d="M256 -10c-144 0 -242 89 -242 223v8h134v-7c0 -55 53 -94 123 -94c53 0 98 29 98 81c0 35 -15 69 -67 84l-86 25c-85 25 -136 91 -136 181c0 151 89 219 247 219c143 0 221 -101 221 -198v-10h-135c-9 45 -36 78 -101 78s-98 -30 -98 -75c0 -39 27 -66 58 -75l86 -25
c87 -25 145 -93 145 -182c0 -151 -82 -233 -247 -233zM424 745l-37 35l-51 -35h-152l154 109h110l108 -109h-132z" />
    <glyph glyph-name="Scommaaccent" unicode="&#x218;" horiz-adv-x="541" 
d="M256 -10c-144 0 -242 89 -242 223v8h134v-7c0 -55 53 -94 123 -94c53 0 98 29 98 81c0 35 -15 69 -67 84l-86 25c-85 25 -136 91 -136 181c0 151 89 219 247 219c143 0 221 -101 221 -198v-10h-135c-9 45 -36 78 -101 78s-98 -30 -98 -75c0 -39 27 -66 58 -75l86 -25
c87 -25 145 -93 145 -182c0 -151 -82 -233 -247 -233zM116 -200l31 150h150l-31 -150l-55 -104h-94l55 104h-56z" />
    <glyph glyph-name="Tbar" unicode="&#x166;" horiz-adv-x="525" 
d="M591 570h-195l-38 -177h125l-19 -90h-125l-64 -303h-138l64 303h-125l19 90h125l38 177h-195l27 130h529z" />
    <glyph glyph-name="Tcaron" unicode="&#x164;" horiz-adv-x="526" 
d="M593 570h-195l-121 -570h-138l121 570h-195l27 130h529zM335 854l37 -35l51 35h152l-154 -109h-110l-108 109h132z" />
    <glyph glyph-name="uni0162" unicode="&#x162;" horiz-adv-x="526" 
d="M593 570h-195l-121 -570h-138l121 570h-195l27 130h529zM92 -200l31 150h150l-31 -150l-55 -104h-94l55 104h-56z" />
    <glyph glyph-name="Tcommaaccent" unicode="&#x21a;" horiz-adv-x="526" 
d="M593 570h-195l-121 -570h-138l121 570h-195l27 130h529zM92 -200l31 150h150l-31 -150l-55 -104h-94l55 104h-56z" />
    <glyph glyph-name="Ubreve" unicode="&#x16c;" horiz-adv-x="639" 
d="M182 217c0 -63 42 -97 116 -97c73 0 131 45 149 126c17 73 96 454 96 454h133s-80 -378 -95 -451c-32 -155 -102 -259 -300 -259c-150 0 -233 95 -233 204c0 49 37 211 100 506h133c-57 -269 -99 -457 -99 -483zM490 830c13 0 26 11 29 24h101
c-13 -61 -72 -109 -133 -109h-132c-61 0 -100 48 -87 109h89c-3 -13 6 -24 19 -24h114z" />
    <glyph glyph-name="Uhungarumlaut" unicode="&#x170;" horiz-adv-x="639" 
d="M182 217c0 -63 42 -97 116 -97c73 0 131 45 149 126c17 73 96 454 96 454h133s-80 -378 -95 -451c-32 -155 -102 -259 -300 -259c-150 0 -233 95 -233 204c0 49 37 211 100 506h133c-57 -269 -99 -457 -99 -483zM313 854h169l-118 -109h-116zM505 854h169l-118 -109h-116
z" />
    <glyph glyph-name="Umacron" unicode="&#x16a;" horiz-adv-x="639" 
d="M182 217c0 -63 42 -97 116 -97c73 0 131 45 149 126c17 73 96 454 96 454h133s-80 -378 -95 -451c-32 -155 -102 -259 -300 -259c-150 0 -233 95 -233 204c0 49 37 211 100 506h133c-57 -269 -99 -457 -99 -483zM275 853h341l-23 -106h-341z" />
    <glyph glyph-name="Uogonek" unicode="&#x172;" horiz-adv-x="639" 
d="M182 217c0 -63 42 -97 116 -97c73 0 131 45 149 126c17 73 96 454 96 454h133s-80 -378 -95 -451c-20 -98 -56 -175 -128 -219c-54 -33 -147 -74 -147 -109c0 -11 9 -15 23 -15c20 0 44 9 57 15l-20 -92c-19 -10 -50 -18 -85 -18c-55 0 -116 29 -116 88c0 41 33 72 84 93
c-130 12 -201 101 -201 202c0 49 37 211 100 506h133c-57 -269 -99 -457 -99 -483z" />
    <glyph glyph-name="Uring" unicode="&#x16e;" horiz-adv-x="639" 
d="M182 217c0 -63 42 -97 116 -97c73 0 131 45 149 126c17 73 96 454 96 454h133s-80 -378 -95 -451c-32 -155 -102 -259 -300 -259c-150 0 -233 95 -233 204c0 49 37 211 100 506h133c-57 -269 -99 -457 -99 -483zM350 799c0 41 33 75 74 75s75 -34 75 -75s-34 -74 -75 -74
s-74 33 -74 74zM406 799c0 -10 8 -18 18 -18s18 8 18 18s-8 18 -18 18s-18 -8 -18 -18z" />
    <glyph glyph-name="Utilde" unicode="&#x168;" horiz-adv-x="639" 
d="M182 217c0 -63 42 -97 116 -97c73 0 131 45 149 126c17 73 96 454 96 454h133s-80 -378 -95 -451c-32 -155 -102 -259 -300 -259c-150 0 -233 95 -233 204c0 49 37 211 100 506h133c-57 -269 -99 -457 -99 -483zM511 864h104c-13 -70 -51 -130 -119 -130
c-24 0 -39 3 -61 14l-27 13c-7 3 -13 4 -18 4c-14 0 -25 -10 -32 -29h-104c13 70 51 130 119 130c24 0 39 -3 61 -14l27 -13c7 -3 13 -4 18 -4c14 0 25 10 32 29z" />
    <glyph glyph-name="uni1EE4" unicode="&#x1ee4;" horiz-adv-x="639" 
d="M182 217c0 -63 42 -97 116 -97c73 0 131 45 149 126c17 73 96 454 96 454h133s-80 -378 -95 -451c-32 -155 -102 -259 -300 -259c-150 0 -233 95 -233 204c0 49 37 211 100 506h133c-57 -269 -99 -457 -99 -483zM319 -50l-25 -117h-134l25 117h134z" />
    <glyph glyph-name="Wacute" unicode="&#x1e82;" horiz-adv-x="751" 
d="M408 0l-1 400l-178 -400h-145l20 700h129l-21 -480l170 380h130l-1 -371l181 471h140l-278 -700h-146zM469 854h174l-128 -109h-121z" />
    <glyph glyph-name="Wcircumflex" unicode="&#x174;" horiz-adv-x="751" 
d="M410 0l-1 400l-178 -400h-145l20 700h129l-21 -480l170 380h130l-1 -371l181 471h140l-278 -700h-146zM533 745l-37 35l-51 -35h-152l154 109h110l108 -109h-132z" />
    <glyph glyph-name="Wdieresis" unicode="&#x1e84;" horiz-adv-x="751" 
d="M410 0l-1 400l-178 -400h-145l20 700h129l-21 -480l170 380h130l-1 -371l181 471h140l-278 -700h-146zM473 858l-25 -117h-134l25 117h134zM669 858l-25 -117h-134l25 117h134z" />
    <glyph glyph-name="Wgrave" unicode="&#x1e80;" horiz-adv-x="751" 
d="M410 0l-1 400l-178 -400h-145l20 700h129l-21 -480l170 380h130l-1 -371l181 471h140l-278 -700h-146zM324 854h169l52 -109h-116z" />
    <glyph glyph-name="Ycircumflex" unicode="&#x176;" horiz-adv-x="605" 
d="M369 255l-54 -255h-134l54 255l-153 445h138l101 -304l230 304h161zM460 745l-37 35l-51 -35h-152l154 109h110l108 -109h-132z" />
    <glyph glyph-name="Ydieresis" unicode="&#x178;" horiz-adv-x="605" 
d="M369 255l-54 -255h-134l54 255l-153 445h138l101 -304l230 304h161zM400 858l-25 -117h-134l25 117h134zM596 858l-25 -117h-134l25 117h134z" />
    <glyph glyph-name="Ygrave" unicode="&#x1ef2;" horiz-adv-x="605" 
d="M369 255l-54 -255h-134l54 255l-153 445h138l101 -304l230 304h161zM251 854h169l52 -109h-116z" />
    <glyph glyph-name="uni0232" unicode="&#x232;" horiz-adv-x="605" 
d="M369 255l-54 -255h-134l54 255l-153 445h138l101 -304l230 304h161zM260 853h341l-23 -106h-341z" />
    <glyph glyph-name="Zacute" unicode="&#x179;" horiz-adv-x="583" 
d="M503 0h-532l27 130l441 440h-342l27 130h522l-27 -130l-441 -440h352zM386 854h174l-128 -109h-121z" />
    <glyph glyph-name="Zcaron" unicode="&#x17d;" horiz-adv-x="583" 
d="M503 0h-532l27 130l441 440h-342l27 130h522l-27 -130l-441 -440h352zM363 854l37 -35l51 35h152l-154 -109h-110l-108 109h132z" />
    <glyph glyph-name="Zdotaccent" unicode="&#x17b;" horiz-adv-x="583" 
d="M503 0h-532l27 130l441 440h-342l27 130h522l-27 -130l-441 -440h352zM485 858l-25 -117h-134l25 117h134z" />
    <glyph glyph-name="abreve" unicode="&#x103;" horiz-adv-x="555" 
d="M200 354h-133c36 115 103 176 240 176c124 0 206 -79 206 -195c0 -29 -13 -87 -21 -126l-45 -209h-132l12 53c-28 -39 -71 -63 -135 -63c-102 0 -171 68 -171 148c0 81 42 136 114 160c74 25 153 29 251 34v4c0 40 -23 78 -89 78c-44 0 -78 -23 -97 -60zM186 203
c-26 -11 -38 -25 -38 -51c0 -23 17 -49 72 -49c68 0 126 41 140 106l3 14c-76 -4 -149 -8 -177 -20zM300 571c-62 0 -105 45 -105 103c0 9 1 17 3 26h87c-1 -4 -1 -9 -1 -10c0 -14 12 -26 30 -26h94c20 0 39 16 43 36h99c-15 -71 -85 -129 -156 -129h-94z" />
    <glyph glyph-name="amacron" unicode="&#x101;" horiz-adv-x="555" 
d="M200 354h-133c36 115 103 176 240 176c124 0 206 -79 206 -195c0 -29 -13 -87 -21 -126l-45 -209h-132l12 53c-28 -39 -71 -63 -135 -63c-102 0 -171 68 -171 148c0 81 42 136 114 160c74 25 153 29 251 34v4c0 40 -23 78 -89 78c-44 0 -78 -23 -97 -60zM186 203
c-26 -11 -38 -25 -38 -51c0 -23 17 -49 72 -49c68 0 126 41 140 106l3 14c-76 -4 -149 -8 -177 -20zM203 688h341l-23 -104h-341z" />
    <glyph glyph-name="aogonek" unicode="&#x105;" horiz-adv-x="555" 
d="M315 0l12 53c-28 -39 -71 -63 -135 -63c-102 0 -171 68 -171 148c0 81 42 136 114 160c74 25 153 29 251 34v4c0 40 -23 78 -89 78c-44 0 -78 -23 -97 -60h-133c36 115 103 176 240 176c124 0 206 -79 206 -195c0 -29 -13 -87 -21 -126l-45 -209c-55 -33 -99 -54 -99 -79
c0 -11 9 -17 25 -17c20 0 44 11 57 17l-20 -92c-19 -10 -50 -18 -85 -18c-55 0 -116 29 -116 88c0 47 42 81 106 101zM186 203c-26 -11 -38 -25 -38 -51c0 -23 17 -49 72 -49c68 0 126 41 140 106l3 14c-76 -4 -149 -8 -177 -20z" />
    <glyph glyph-name="cacute" unicode="&#x107;" horiz-adv-x="539" 
d="M514 336v-4h-128v4c0 41 -24 78 -88 78c-58 0 -96 -35 -109 -96c-19 -89 -26 -117 -26 -127c0 -49 22 -85 88 -85c53 0 89 30 105 82h132c-35 -129 -102 -198 -247 -198c-124 0 -206 79 -206 195c0 29 12 88 21 126c33 143 99 219 252 219c124 0 206 -79 206 -194z
M324 700h172l-118 -129h-114z" />
    <glyph glyph-name="ccaron" unicode="&#x10d;" horiz-adv-x="539" 
d="M514 336v-4h-128v4c0 41 -24 78 -88 78c-58 0 -96 -35 -109 -96c-19 -89 -26 -117 -26 -127c0 -49 22 -85 88 -85c53 0 89 30 105 82h132c-35 -129 -102 -198 -247 -198c-124 0 -206 79 -206 195c0 29 12 88 21 126c33 143 99 219 252 219c124 0 206 -79 206 -194z
M281 571l-99 129h128l39 -45l58 45h147l-153 -129h-120z" />
    <glyph glyph-name="ccircumflex" unicode="&#x109;" horiz-adv-x="539" 
d="M514 336v-4h-128v4c0 41 -24 78 -88 78c-58 0 -96 -35 -109 -96c-19 -89 -26 -117 -26 -127c0 -49 22 -85 88 -85c53 0 89 30 105 82h132c-35 -129 -102 -198 -247 -198c-124 0 -206 79 -206 195c0 29 12 88 21 126c33 143 99 219 252 219c124 0 206 -79 206 -194z
M428 700l99 -129h-128l-39 45l-58 -45h-147l153 129h120z" />
    <glyph glyph-name="cdotaccent" unicode="&#x10b;" horiz-adv-x="539" 
d="M514 336v-4h-128v4c0 41 -24 78 -88 78c-58 0 -96 -35 -109 -96c-19 -89 -26 -117 -26 -127c0 -49 22 -85 88 -85c53 0 89 30 105 82h132c-35 -129 -102 -198 -247 -198c-124 0 -206 79 -206 195c0 29 12 88 21 126c33 143 99 219 252 219c124 0 206 -79 206 -194z
M432 694l-25 -117h-132l25 117h132z" />
    <glyph glyph-name="dcaron" unicode="&#x10f;" horiz-adv-x="563" 
d="M821 700l-119 -158h-109l61 158h167zM316 0l11 53c-12 -22 -51 -63 -118 -63c-119 0 -174 103 -174 194c0 33 13 97 21 137c30 143 99 209 220 209c68 0 114 -31 136 -74l52 244h132l-148 -700h-132zM359 205c19 89 24 111 24 121c0 49 -22 85 -88 85
c-58 0 -96 -35 -109 -96c-19 -89 -24 -111 -24 -121c0 -49 22 -85 88 -85c58 0 96 35 109 96z" />
    <glyph glyph-name="dcroat" unicode="&#x111;" horiz-adv-x="563" 
d="M316 0l11 53c-12 -22 -51 -63 -118 -63c-119 0 -174 103 -174 194c0 33 13 97 21 137c30 143 99 209 220 209c68 0 114 -31 136 -74l23 109h-133l17 80h133l12 55h132l-12 -55h70l-17 -80h-70l-119 -565h-132zM359 205c19 89 24 111 24 121c0 49 -22 85 -88 85
c-58 0 -96 -35 -109 -96c-19 -89 -24 -111 -24 -121c0 -49 22 -85 88 -85c58 0 96 35 109 96z" />
    <glyph glyph-name="ebreve" unicode="&#x115;" horiz-adv-x="546" 
d="M494 214h-328c-2 -11 -3 -19 -3 -23c0 -49 22 -85 88 -85c45 0 78 22 97 60h133c-36 -115 -103 -176 -240 -176c-124 0 -206 79 -206 195c0 29 12 88 21 126c33 143 99 219 252 219c124 0 206 -79 206 -195c0 -28 -11 -84 -20 -121zM386 320v9c0 49 -22 85 -88 85
c-57 0 -95 -36 -109 -94h197zM294 571c-62 0 -105 45 -105 103c0 9 1 17 3 26h87c-1 -4 -1 -9 -1 -10c0 -14 12 -26 30 -26h94c20 0 39 16 43 36h99c-15 -71 -85 -129 -156 -129h-94z" />
    <glyph glyph-name="ecaron" unicode="&#x11b;" horiz-adv-x="546" 
d="M494 214h-328c-2 -11 -3 -19 -3 -23c0 -49 22 -85 88 -85c45 0 78 22 97 60h133c-36 -115 -103 -176 -240 -176c-124 0 -206 79 -206 195c0 29 12 88 21 126c33 143 99 219 252 219c124 0 206 -79 206 -195c0 -28 -11 -84 -20 -121zM386 320v9c0 49 -22 85 -88 85
c-57 0 -95 -36 -109 -94h197zM281 571l-99 129h128l39 -45l58 45h147l-153 -129h-120z" />
    <glyph glyph-name="emacron" unicode="&#x113;" horiz-adv-x="546" 
d="M494 214h-328c-2 -11 -3 -19 -3 -23c0 -49 22 -85 88 -85c45 0 78 22 97 60h133c-36 -115 -103 -176 -240 -176c-124 0 -206 79 -206 195c0 29 12 88 21 126c33 143 99 219 252 219c124 0 206 -79 206 -195c0 -28 -11 -84 -20 -121zM386 320v9c0 49 -22 85 -88 85
c-57 0 -95 -36 -109 -94h197zM197 688h341l-23 -104h-341z" />
    <glyph glyph-name="eogonek" unicode="&#x119;" horiz-adv-x="546" 
d="M494 214h-328c-2 -11 -3 -19 -3 -23c0 -49 22 -85 88 -85c45 0 78 22 97 60h133c-20 -65 -52 -114 -96 -141c-54 -33 -142 -69 -142 -104c0 -11 9 -17 25 -17c20 0 44 11 57 17l-20 -92c-19 -10 -50 -18 -85 -18c-55 0 -116 29 -116 88c0 43 34 75 88 95
c-96 18 -157 91 -157 191c0 29 12 88 21 126c33 143 99 219 252 219c124 0 206 -79 206 -195c0 -28 -11 -84 -20 -121zM386 320v9c0 49 -22 85 -88 85c-57 0 -95 -36 -109 -94h197z" />
    <glyph glyph-name="edotaccent" unicode="&#x117;" horiz-adv-x="546" 
d="M494 214h-328c-2 -11 -3 -19 -3 -23c0 -49 22 -85 88 -85c45 0 78 22 97 60h133c-36 -115 -103 -176 -240 -176c-124 0 -206 79 -206 195c0 29 12 88 21 126c33 143 99 219 252 219c124 0 206 -79 206 -195c0 -28 -11 -84 -20 -121zM386 320v9c0 49 -22 85 -88 85
c-57 0 -95 -36 -109 -94h197zM432 694l-25 -117h-132l25 117h132z" />
    <glyph glyph-name="gbreve" unicode="&#x11f;" horiz-adv-x="561" 
d="M122 -3v-4c0 -35 26 -71 88 -71c58 0 96 35 109 96l15 72c-12 -22 -54 -63 -121 -63c-119 0 -174 103 -174 194c0 22 7 54 17 100c31 143 99 209 220 209c68 0 114 -31 136 -74l12 60h132l-104 -491c-30 -144 -99 -219 -252 -219c-124 0 -206 80 -206 187v4h128zM367 242
c11 56 16 74 16 84c0 49 -22 85 -88 85c-58 0 -96 -35 -109 -96c-13 -59 -16 -74 -16 -84c0 -49 22 -85 88 -85c58 0 97 35 109 96zM292 571c-62 0 -105 45 -105 103c0 9 1 17 3 26h87c-1 -4 -1 -9 -1 -10c0 -14 12 -26 30 -26h94c20 0 39 16 43 36h99
c-15 -71 -85 -129 -156 -129h-94z" />
    <glyph glyph-name="gcircumflex" unicode="&#x11d;" horiz-adv-x="561" 
d="M122 -3v-4c0 -35 26 -71 88 -71c58 0 96 35 109 96l15 72c-12 -22 -54 -63 -121 -63c-119 0 -174 103 -174 194c0 22 7 54 17 100c31 143 99 209 220 209c68 0 114 -31 136 -74l12 60h132l-104 -491c-30 -144 -99 -219 -252 -219c-124 0 -206 80 -206 187v4h128zM367 242
c11 56 16 74 16 84c0 49 -22 85 -88 85c-58 0 -96 -35 -109 -96c-13 -59 -16 -74 -16 -84c0 -49 22 -85 88 -85c58 0 97 35 109 96zM425 700l99 -129h-128l-39 45l-58 -45h-147l153 129h120z" />
    <glyph glyph-name="gcommaaccent" unicode="&#x123;" horiz-adv-x="561" 
d="M122 -3v-4c0 -35 26 -71 88 -71c58 0 96 35 109 96l15 72c-12 -22 -54 -63 -121 -63c-119 0 -174 103 -174 194c0 22 7 54 17 100c31 143 99 209 220 209c68 0 114 -31 136 -74l12 60h132l-104 -491c-30 -144 -99 -219 -252 -219c-124 0 -206 80 -206 187v4h128zM367 242
c11 56 16 74 16 84c0 49 -22 85 -88 85c-58 0 -96 -35 -109 -96c-13 -59 -16 -74 -16 -84c0 -49 22 -85 88 -85c58 0 97 35 109 96zM444 721l-31 -150h-150l31 150l55 104h94l-55 -104h56z" />
    <glyph glyph-name="gdotaccent" unicode="&#x121;" horiz-adv-x="561" 
d="M122 -3v-4c0 -35 26 -71 88 -71c58 0 96 35 109 96l15 72c-12 -22 -54 -63 -121 -63c-119 0 -174 103 -174 194c0 22 7 54 17 100c31 143 99 209 220 209c68 0 114 -31 136 -74l12 60h132l-104 -491c-30 -144 -99 -219 -252 -219c-124 0 -206 80 -206 187v4h128zM367 242
c11 56 16 74 16 84c0 49 -22 85 -88 85c-58 0 -96 -35 -109 -96c-13 -59 -16 -74 -16 -84c0 -49 22 -85 88 -85c58 0 97 35 109 96zM430 694l-25 -117h-132l25 117h132z" />
    <glyph glyph-name="hbar" unicode="&#x127;" horiz-adv-x="573" 
d="M508 199l-43 -199h-132l44 205c19 89 25 111 25 121c0 49 -22 85 -88 85c-58 0 -96 -35 -109 -96l-68 -315h-132l121 570h-69l17 80h69l11 50h132l-11 -50h121l-17 -80h-121l-22 -103c12 22 52 63 119 63c129 0 174 -103 174 -194c0 -33 -12 -97 -21 -137z" />
    <glyph glyph-name="hcircumflex" unicode="&#x125;" horiz-adv-x="573" 
d="M508 199l-43 -199h-132l44 205c19 89 25 111 25 121c0 49 -22 85 -88 85c-58 0 -96 -35 -109 -96l-68 -315h-132l149 700h132l-50 -233c12 22 52 63 119 63c129 0 174 -103 174 -194c0 -33 -12 -97 -21 -137zM481 874l99 -129h-128l-39 45l-58 -45h-147l153 129h120z" />
    <glyph glyph-name="dotlessi" unicode="&#x131;" horiz-adv-x="252" 
d="M247 516l-110 -516h-132l110 516h132z" />
    <glyph glyph-name="ibreve" unicode="&#x12d;" horiz-adv-x="292" 
d="M267 516l-110 -516h-132l110 516h132zM166 571c-62 0 -105 45 -105 103c0 9 1 17 3 26h87c-1 -4 -1 -9 -1 -10c0 -14 12 -26 30 -26h94c20 0 39 16 43 36h99c-15 -71 -85 -129 -156 -129h-94z" />
    <glyph glyph-name="imacron" unicode="&#x12b;" horiz-adv-x="292" 
d="M267 516l-110 -516h-132l110 516h132zM69 688h341l-23 -104h-341z" />
    <glyph glyph-name="iogonek" unicode="&#x12f;" horiz-adv-x="252" 
d="M5 0l110 516h132l-110 -516c-55 -33 -99 -54 -99 -79c0 -11 9 -17 25 -17c20 0 44 11 57 17l-20 -92c-19 -10 -50 -18 -85 -18c-55 0 -116 29 -116 88c0 47 43 81 106 101zM286 700l-25 -117h-132l25 117h132z" />
    <glyph glyph-name="itilde" unicode="&#x129;" horiz-adv-x="292" 
d="M267 516l-110 -516h-132l110 516h132zM143 572h-97c13 70 51 130 119 130c24 0 39 -4 61 -15l27 -13c7 -3 14 -5 24 -5s25 8 32 31h98c-13 -70 -51 -130 -119 -130c-24 0 -39 4 -61 15l-27 13c-7 3 -14 5 -24 5s-25 -8 -33 -31z" />
    <glyph glyph-name="uni1ECB" unicode="&#x1ecb;" horiz-adv-x="252" 
d="M286 700l-25 -117h-132l25 117h132zM247 516l-110 -516h-132l110 516h132zM125 -50l-25 -117h-132l25 117h132z" />
    <glyph glyph-name="dotlessj" unicode="&#x237;" horiz-adv-x="251" 
d="M0 -24l114 540h132l-120 -568c-17 -78 -80 -132 -164 -132h-59l24 116h24c32 0 44 20 49 44z" />
    <glyph glyph-name="jcircumflex" unicode="&#x135;" horiz-adv-x="312" 
d="M277 516l-120 -568c-18 -83 -68 -132 -160 -132h-63l24 116h25c32 0 42 17 47 41l115 543h132zM310 700l99 -129h-128l-39 45l-58 -45h-147l153 129h120z" />
    <glyph glyph-name="kcommaaccent" unicode="&#x137;" horiz-adv-x="538" 
d="M286 700l-74 -346l183 162h176l-230 -203l147 -313h-139l-107 226l-71 -64l-34 -162h-132l149 700h132zM109 -200l31 150h150l-31 -150l-55 -104h-94l55 104h-56z" />
    <glyph glyph-name="lacute" unicode="&#x13a;" horiz-adv-x="280" 
d="M197 116h26l-24 -116h-34c-91 0 -128 52 -128 121c0 57 40 222 115 579h132c-93 -435 -117 -547 -117 -559c0 -15 10 -25 30 -25zM211 874h172l-118 -129h-114z" />
    <glyph glyph-name="lcaron" unicode="&#x13e;" horiz-adv-x="280" 
d="M508 700l-119 -158h-109l61 158h167zM197 116h26l-24 -116h-34c-91 0 -128 52 -128 121c0 57 40 222 115 579h132c-93 -435 -117 -547 -117 -559c0 -15 10 -25 30 -25z" />
    <glyph glyph-name="lcommaaccent" unicode="&#x13c;" horiz-adv-x="280" 
d="M197 116h26l-24 -116h-34c-91 0 -128 52 -128 121c0 57 40 222 115 579h132c-93 -435 -117 -547 -117 -559c0 -15 10 -25 30 -25zM-15 -200l31 150h150l-31 -150l-55 -104h-94l55 104h-56z" />
    <glyph glyph-name="ldot" unicode="&#x140;" horiz-adv-x="361" 
d="M197 116h26l-24 -116h-34c-91 0 -128 52 -128 121c0 57 40 222 115 579h132c-93 -435 -117 -547 -117 -559c0 -15 10 -25 30 -25zM417 468l-25 -117h-132l25 117h132z" />
    <glyph glyph-name="lslash" unicode="&#x142;" horiz-adv-x="300" 
d="M207 116h26l-24 -116h-34c-91 0 -128 52 -128 121c0 28 9 82 28 170l-71 -35l22 101l70 35c17 82 39 183 66 308h132l-50 -233l72 36l-22 -101l-72 -36c-35 -164 -45 -217 -45 -225c0 -15 10 -25 30 -25z" />
    <glyph glyph-name="eng" unicode="&#x14b;" horiz-adv-x="573" 
d="M508 199l-54 -251c-18 -83 -68 -132 -160 -132h-63l24 116h25c32 0 42 17 47 41l50 232c19 89 25 111 25 121c0 49 -22 85 -88 85c-58 0 -96 -35 -109 -96l-68 -315h-132l110 516h132l-11 -49c12 22 52 63 119 63c129 0 174 -103 174 -194c0 -33 -12 -97 -21 -137z" />
    <glyph glyph-name="nacute" unicode="&#x144;" horiz-adv-x="573" 
d="M508 199l-43 -199h-132l44 205c19 89 25 111 25 121c0 49 -22 85 -88 85c-58 0 -96 -35 -109 -96l-68 -315h-132l110 516h132l-11 -49c12 22 52 63 119 63c129 0 174 -103 174 -194c0 -33 -12 -97 -21 -137zM339 700h172l-118 -129h-114z" />
    <glyph glyph-name="ncaron" unicode="&#x148;" horiz-adv-x="573" 
d="M508 199l-43 -199h-132l44 205c19 89 25 111 25 121c0 49 -22 85 -88 85c-58 0 -96 -35 -109 -96l-68 -315h-132l110 516h132l-11 -49c12 22 52 63 119 63c129 0 174 -103 174 -194c0 -33 -12 -97 -21 -137zM297 571l-99 129h128l39 -45l58 45h147l-153 -129h-120z" />
    <glyph glyph-name="ncommaaccent" unicode="&#x146;" horiz-adv-x="573" 
d="M508 199l-43 -199h-132l44 205c19 89 25 111 25 121c0 49 -22 85 -88 85c-58 0 -96 -35 -109 -96l-68 -315h-132l110 516h132l-11 -49c12 22 52 63 119 63c129 0 174 -103 174 -194c0 -33 -12 -97 -21 -137zM119 -200l31 150h150l-31 -150l-55 -104h-94l55 104h-56z" />
    <glyph glyph-name="oe" unicode="&#x153;" horiz-adv-x="873" 
d="M568 -10c-64 0 -120 27 -153 66c-33 -36 -86 -66 -174 -66c-124 0 -206 79 -206 195c0 29 12 88 21 126c33 143 99 219 252 219c64 0 120 -27 153 -66c33 36 86 66 174 66c124 0 206 -79 206 -195c0 -28 -11 -84 -20 -121h-328c-2 -11 -3 -19 -3 -23c0 -49 22 -85 88 -85
c45 0 78 22 97 60h133c-36 -115 -103 -176 -240 -176zM189 318c-9 -40 -26 -115 -26 -133c0 -44 25 -79 88 -79c58 0 96 35 109 96c9 40 26 115 26 133c0 44 -25 79 -88 79c-58 0 -95 -35 -109 -96zM713 320v9c0 49 -22 85 -88 85c-57 0 -95 -36 -109 -94h197z" />
    <glyph glyph-name="obreve" unicode="&#x14f;" horiz-adv-x="549" 
d="M493 209c-33 -143 -99 -219 -252 -219c-124 0 -206 79 -206 195c0 29 12 88 21 126c33 143 99 219 252 219c124 0 206 -79 206 -195c0 -29 -12 -88 -21 -126zM189 318c-9 -40 -26 -115 -26 -133c0 -44 25 -79 88 -79c58 0 96 35 109 96c9 40 26 115 26 133
c0 44 -25 79 -88 79c-58 0 -95 -35 -109 -96zM294 571c-62 0 -105 45 -105 103c0 9 1 17 3 26h87c-1 -4 -1 -9 -1 -10c0 -14 12 -26 30 -26h94c20 0 39 16 43 36h99c-15 -71 -85 -129 -156 -129h-94z" />
    <glyph glyph-name="ohungarumlaut" unicode="&#x151;" horiz-adv-x="549" 
d="M493 209c-33 -143 -99 -219 -252 -219c-124 0 -206 79 -206 195c0 29 12 88 21 126c33 143 99 219 252 219c124 0 206 -79 206 -195c0 -29 -12 -88 -21 -126zM189 318c-9 -40 -26 -115 -26 -133c0 -44 25 -79 88 -79c58 0 96 35 109 96c9 40 26 115 26 133
c0 44 -25 79 -88 79c-58 0 -95 -35 -109 -96zM213 700h167l-108 -129h-109zM405 700h167l-108 -129h-109z" />
    <glyph glyph-name="omacron" unicode="&#x14d;" horiz-adv-x="549" 
d="M493 209c-33 -143 -99 -219 -252 -219c-124 0 -206 79 -206 195c0 29 12 88 21 126c33 143 99 219 252 219c124 0 206 -79 206 -195c0 -29 -12 -88 -21 -126zM189 318c-9 -40 -26 -115 -26 -133c0 -44 25 -79 88 -79c58 0 96 35 109 96c9 40 26 115 26 133
c0 44 -25 79 -88 79c-58 0 -95 -35 -109 -96zM196 688h341l-23 -104h-341z" />
    <glyph glyph-name="uni1ECD" unicode="&#x1ecd;" horiz-adv-x="549" 
d="M493 209c-33 -143 -99 -219 -252 -219c-124 0 -206 79 -206 195c0 29 12 88 21 126c33 143 99 219 252 219c124 0 206 -79 206 -195c0 -29 -12 -88 -21 -126zM189 318c-9 -40 -26 -115 -26 -133c0 -44 25 -79 88 -79c58 0 96 35 109 96c9 40 26 115 26 133
c0 44 -25 79 -88 79c-58 0 -95 -35 -109 -96zM275 -50l-25 -117h-132l25 117h132z" />
    <glyph glyph-name="racute" unicode="&#x155;" horiz-adv-x="364" 
d="M383 401h-72c-58 0 -96 -35 -109 -96l-65 -305h-132l110 516h132l-13 -54c12 22 52 63 119 63h56zM255 700h172l-118 -129h-114z" />
    <glyph glyph-name="rcaron" unicode="&#x159;" horiz-adv-x="364" 
d="M383 401h-72c-58 0 -96 -35 -109 -96l-65 -305h-132l110 516h132l-13 -54c12 22 52 63 119 63h56zM213 571l-99 129h128l39 -45l58 45h147l-153 -129h-120z" />
    <glyph glyph-name="rcommaaccent" unicode="&#x157;" horiz-adv-x="364" 
d="M383 401h-72c-58 0 -96 -35 -109 -96l-65 -305h-132l110 516h132l-13 -54c12 22 52 63 119 63h56zM-46 -200l31 150h150l-31 -150l-55 -104h-94l55 104h-56z" />
    <glyph glyph-name="sacute" unicode="&#x15b;" horiz-adv-x="477" 
d="M208 -10c-114 0 -206 70 -206 168v9h128v-4c0 -37 43 -59 93 -59c33 0 76 12 76 44c0 25 -20 35 -46 42l-72 19c-65 17 -127 65 -127 147c0 119 92 174 209 174c91 0 189 -63 189 -159v-8h-128v3c-1 30 -37 50 -76 50c-38 0 -66 -16 -66 -43c0 -25 21 -35 39 -40l80 -21
c73 -19 128 -68 128 -144c0 -124 -79 -178 -221 -178zM283 700h172l-118 -129h-114z" />
    <glyph glyph-name="scaron" unicode="&#x161;" horiz-adv-x="477" 
d="M208 -10c-114 0 -206 70 -206 168v9h128v-4c0 -37 43 -59 93 -59c33 0 76 12 76 44c0 25 -20 35 -46 42l-72 19c-65 17 -127 65 -127 147c0 119 92 174 209 174c91 0 189 -63 189 -159v-8h-128v3c-1 30 -37 50 -76 50c-38 0 -66 -16 -66 -43c0 -25 21 -35 39 -40l80 -21
c73 -19 128 -68 128 -144c0 -124 -79 -178 -221 -178zM240 571l-99 129h128l39 -45l58 45h147l-153 -129h-120z" />
    <glyph glyph-name="scedilla" unicode="&#x15f;" horiz-adv-x="477" 
d="M91 -158l56 155c-84 20 -145 81 -145 161v9h128v-4c0 -37 43 -59 93 -59c33 0 76 12 76 44c0 25 -20 35 -46 42l-72 19c-65 17 -127 65 -127 147c0 119 92 174 209 174c91 0 189 -63 189 -159v-8h-128v3c-1 30 -37 50 -76 50c-38 0 -66 -16 -66 -43c0 -25 21 -35 39 -40
l80 -21c73 -19 128 -68 128 -144c0 -109 -61 -164 -172 -175l-36 -151h-130z" />
    <glyph glyph-name="scircumflex" unicode="&#x15d;" horiz-adv-x="477" 
d="M208 -10c-114 0 -206 70 -206 168v9h128v-4c0 -37 43 -59 93 -59c33 0 76 12 76 44c0 25 -20 35 -46 42l-72 19c-65 17 -127 65 -127 147c0 119 92 174 209 174c91 0 189 -63 189 -159v-8h-128v3c-1 30 -37 50 -76 50c-38 0 -66 -16 -66 -43c0 -25 21 -35 39 -40l80 -21
c73 -19 128 -68 128 -144c0 -124 -79 -178 -221 -178zM387 700l99 -129h-128l-39 45l-58 -45h-147l153 129h120z" />
    <glyph glyph-name="scommaaccent" unicode="&#x219;" horiz-adv-x="477" 
d="M208 -10c-114 0 -206 70 -206 168v9h128v-4c0 -37 43 -59 93 -59c33 0 76 12 76 44c0 25 -20 35 -46 42l-72 19c-65 17 -127 65 -127 147c0 119 92 174 209 174c91 0 189 -63 189 -159v-8h-128v3c-1 30 -37 50 -76 50c-38 0 -66 -16 -66 -43c0 -25 21 -35 39 -40l80 -21
c73 -19 128 -68 128 -144c0 -124 -79 -178 -221 -178zM81 -200l31 150h150l-31 -150l-55 -104h-94l55 104h-56z" />
    <glyph glyph-name="tbar" unicode="&#x167;" horiz-adv-x="368" 
d="M115 400h-73l24 116h73l25 117h132l-25 -117h127l-24 -116h-127l-18 -83h127l-17 -80h-127c-14 -65 -18 -91 -18 -96c0 -15 10 -25 30 -25h89l-24 -116h-97c-91 0 -128 52 -128 121c0 21 5 59 16 116h-73l17 80h73z" />
    <glyph glyph-name="tcaron" unicode="&#x165;" horiz-adv-x="367" 
d="M546 700l-103 -129h-109l45 129h167zM114 400h-73l24 116h73l25 117h132l-25 -117h127l-24 -116h-127c-41 -191 -53 -250 -53 -259c0 -15 10 -25 30 -25h89l-24 -116h-97c-91 0 -128 52 -128 121c0 38 17 123 51 279z" />
    <glyph glyph-name="uni0163" unicode="&#x163;" horiz-adv-x="367" 
d="M114 400h-73l24 116h73l25 117h132l-25 -117h127l-24 -116h-127c-41 -191 -53 -250 -53 -259c0 -15 10 -25 30 -25h89l-24 -116h-97c-91 0 -128 52 -128 121c0 38 17 123 51 279zM41 -200l31 150h150l-31 -150l-55 -104h-94l55 104h-56z" />
    <glyph glyph-name="tcommaaccent" unicode="&#x21b;" horiz-adv-x="367" 
d="M114 400h-73l24 116h73l25 117h132l-25 -117h127l-24 -116h-127c-41 -191 -53 -250 -53 -259c0 -15 10 -25 30 -25h89l-24 -116h-97c-91 0 -128 52 -128 121c0 38 17 123 51 279zM41 -200l31 150h150l-31 -150l-55 -104h-94l55 104h-56z" />
    <glyph glyph-name="ubreve" unicode="&#x16d;" horiz-adv-x="568" 
d="M259 109c54 0 92 36 105 96l67 311h132l-110 -516h-132l12 53c-10 -19 -54 -63 -119 -63c-116 0 -169 97 -169 189c0 35 10 92 19 132l44 205h132l-43 -201c-11 -49 -24 -108 -24 -121c0 -48 22 -85 86 -85zM300 571c-62 0 -105 45 -105 103c0 9 1 17 3 26h87
c-1 -4 -1 -9 -1 -10c0 -14 12 -26 30 -26h94c20 0 39 16 43 36h99c-15 -71 -85 -129 -156 -129h-94z" />
    <glyph glyph-name="uhungarumlaut" unicode="&#x171;" horiz-adv-x="568" 
d="M259 109c54 0 92 36 105 96l67 311h132l-110 -516h-132l12 53c-10 -19 -54 -63 -119 -63c-116 0 -169 97 -169 189c0 35 10 92 19 132l44 205h132l-43 -201c-11 -49 -24 -108 -24 -121c0 -48 22 -85 86 -85zM215 700h167l-108 -129h-109zM407 700h167l-108 -129h-109z
" />
    <glyph glyph-name="umacron" unicode="&#x16b;" horiz-adv-x="568" 
d="M259 109c54 0 92 36 105 96l67 311h132l-110 -516h-132l12 53c-10 -19 -54 -63 -119 -63c-116 0 -169 97 -169 189c0 35 10 92 19 132l44 205h132l-43 -201c-11 -49 -24 -108 -24 -121c0 -48 22 -85 86 -85zM203 688h341l-23 -104h-341z" />
    <glyph glyph-name="uogonek" unicode="&#x173;" horiz-adv-x="568" 
d="M321 0l12 53c-10 -19 -54 -63 -119 -63c-116 0 -169 97 -169 189c0 35 10 92 19 132l44 205h132l-43 -201c-11 -49 -24 -108 -24 -121c0 -48 22 -85 86 -85c54 0 92 36 105 96l67 311h132l-110 -516c-55 -33 -99 -54 -99 -79c0 -11 9 -17 25 -17c20 0 44 11 57 17
l-20 -92c-19 -10 -50 -18 -85 -18c-55 0 -116 29 -116 88c0 47 42 81 106 101z" />
    <glyph glyph-name="uring" unicode="&#x16f;" horiz-adv-x="568" 
d="M259 109c54 0 92 36 105 96l67 311h132l-110 -516h-132l12 53c-10 -19 -54 -63 -119 -63c-116 0 -169 97 -169 189c0 35 10 92 19 132l44 205h132l-43 -201c-11 -49 -24 -108 -24 -121c0 -48 22 -85 86 -85zM276 635c0 41 33 75 74 75s75 -34 75 -75s-34 -74 -75 -74
s-74 33 -74 74zM330 635c0 -11 9 -20 20 -20s20 9 20 20s-9 20 -20 20s-20 -9 -20 -20z" />
    <glyph glyph-name="utilde" unicode="&#x169;" horiz-adv-x="568" 
d="M259 109c54 0 92 36 105 96l67 311h132l-110 -516h-132l12 53c-10 -19 -54 -63 -119 -63c-116 0 -169 97 -169 189c0 35 10 92 19 132l44 205h132l-43 -201c-11 -49 -24 -108 -24 -121c0 -48 22 -85 86 -85zM278 572h-97c13 70 51 130 119 130c24 0 39 -4 61 -15l27 -13
c7 -3 14 -5 24 -5s25 8 32 31h98c-13 -70 -51 -130 -119 -130c-24 0 -39 4 -61 15l-27 13c-7 3 -14 5 -24 5s-25 -8 -33 -31z" />
    <glyph glyph-name="uni1EE5" unicode="&#x1ee5;" horiz-adv-x="568" 
d="M259 109c54 0 92 36 105 96l67 311h132l-110 -516h-132l12 53c-10 -19 -54 -63 -119 -63c-116 0 -169 97 -169 189c0 35 10 92 19 132l44 205h132l-43 -201c-11 -49 -24 -108 -24 -121c0 -48 22 -85 86 -85zM282 -50l-25 -117h-132l25 117h132z" />
    <glyph glyph-name="wacute" unicode="&#x1e83;" horiz-adv-x="704" 
d="M390 0l-13 359l-163 -359h-134l-27 516h130l12 -324l147 324h122l11 -316l144 316h142l-245 -516h-126zM401 700h172l-118 -129h-114z" />
    <glyph glyph-name="wcircumflex" unicode="&#x175;" horiz-adv-x="704" 
d="M390 0l-13 359l-163 -359h-134l-27 516h130l12 -324l147 324h122l11 -316l144 316h142l-245 -516h-126zM505 700l99 -129h-128l-39 45l-58 -45h-147l153 129h120z" />
    <glyph glyph-name="wdieresis" unicode="&#x1e85;" horiz-adv-x="704" 
d="M390 0l-13 359l-163 -359h-134l-27 516h130l12 -324l147 324h122l11 -316l144 316h142l-245 -516h-126zM413 694l-25 -117h-132l25 117h132zM609 694l-25 -117h-132l25 117h132z" />
    <glyph glyph-name="wgrave" unicode="&#x1e81;" horiz-adv-x="704" 
d="M390 0l-13 359l-163 -359h-134l-27 516h130l12 -324l147 324h122l11 -316l144 316h142l-245 -516h-126zM278 700h167l33 -129h-109z" />
    <glyph glyph-name="ycircumflex" unicode="&#x177;" horiz-adv-x="491" 
d="M122 4l-76 512h132l43 -325l182 325h151l-323 -565c-45 -78 -65 -135 -157 -135h-97l23 116h55c24 0 34 12 40 23zM399 700l99 -129h-128l-39 45l-58 -45h-147l153 129h120z" />
    <glyph glyph-name="ygrave" unicode="&#x1ef3;" horiz-adv-x="491" 
d="M122 4l-76 512h132l43 -325l182 325h151l-323 -565c-45 -78 -65 -135 -157 -135h-97l23 116h55c24 0 34 12 40 23zM172 700h167l33 -129h-109z" />
    <glyph glyph-name="uni0233" unicode="&#x233;" horiz-adv-x="491" 
d="M122 4l-76 512h132l43 -325l182 325h151l-323 -565c-45 -78 -65 -135 -157 -135h-97l23 116h55c24 0 34 12 40 23zM167 688h341l-23 -104h-341z" />
    <glyph glyph-name="zacute" unicode="&#x17a;" horiz-adv-x="442" 
d="M442 400l-274 -284h221l-24 -116h-394l25 116l274 284h-208l24 116h381zM270 700h172l-118 -129h-114z" />
    <glyph glyph-name="zcaron" unicode="&#x17e;" horiz-adv-x="442" 
d="M442 400l-274 -284h221l-24 -116h-394l25 116l274 284h-208l24 116h381zM228 571l-99 129h128l39 -45l58 45h147l-153 -129h-120z" />
    <glyph glyph-name="zdotaccent" unicode="&#x17c;" horiz-adv-x="442" 
d="M442 400l-274 -284h221l-24 -116h-394l25 116l274 284h-208l24 116h381zM380 694l-25 -117h-132l25 117h132z" />
    <glyph glyph-name="ellipsis" unicode="&#x2026;" horiz-adv-x="858" 
d="M293 0l34 160h160l-34 -160h-160zM579 0l34 160h160l-34 -160h-160zM7 0l34 160h160l-34 -160h-160z" />
    <glyph glyph-name="endash" unicode="&#x2013;" horiz-adv-x="540" 
d="M55 335h460l-25 -120h-460z" />
    <glyph glyph-name="emdash" unicode="&#x2014;" horiz-adv-x="856" 
d="M55 335h776l-25 -120h-776z" />
    <glyph glyph-name="guilsinglleft" unicode="&#x2039;" horiz-adv-x="275" 
d="M176 61l-144 155l25 114l210 155l-38 -176l-69 -51l47 -51z" />
    <glyph glyph-name="guilsinglright" unicode="&#x203a;" horiz-adv-x="275" 
d="M104 485l144 -155l-25 -114l-210 -155l38 176l69 51l-47 51z" />
    <glyph glyph-name="quoteleft" unicode="&#x2018;" horiz-adv-x="266" 
d="M282 586l-34 -160h-160l34 160l68 114h94l-68 -114h66z" />
    <glyph glyph-name="quoteright" unicode="&#x2019;" horiz-adv-x="266" 
d="M112 540l34 160h160l-34 -160l-68 -114h-94l67 114h-65z" />
    <glyph glyph-name="quotedblleft" unicode="&#x201c;" horiz-adv-x="506" 
d="M282 586l-34 -160h-160l34 160l68 114h94l-68 -114h66zM522 586l-34 -160h-160l34 160l68 114h94l-68 -114h66z" />
    <glyph glyph-name="quotedblright" unicode="&#x201d;" horiz-adv-x="506" 
d="M352 540l34 160h160l-34 -160l-68 -114h-94l68 114h-66zM112 540l34 160h160l-34 -160l-68 -114h-94l68 114h-66z" />
    <glyph glyph-name="quotesinglbase" unicode="&#x201a;" horiz-adv-x="266" 
d="M-2 0l34 160h160l-34 -160l-68 -114h-94l67 114h-65z" />
    <glyph glyph-name="quotedblbase" unicode="&#x201e;" horiz-adv-x="506" 
d="M238 0l34 160h160l-34 -160l-68 -114h-94l67 114h-65zM-2 0l34 160h160l-34 -160l-68 -114h-94l67 114h-65z" />
    <glyph glyph-name="bullet" unicode="&#x2022;" horiz-adv-x="800" 
d="M250 298c0 93 75 168 168 168s168 -75 168 -168s-75 -168 -168 -168s-168 75 -168 168z" />
    <glyph glyph-name="dagger" unicode="&#x2020;" horiz-adv-x="610" 
d="M130 516h169l39 184h122l-39 -184h169l-24 -117h-170l-103 -486h-122l103 486h-168z" />
    <glyph glyph-name="daggerdbl" unicode="&#x2021;" horiz-adv-x="610" 
d="M130 516h169l39 184h122l-39 -184h169l-24 -117h-170l-39 -185h168l-24 -117h-169l-39 -184h-122l39 184h-169l24 117h170l39 185h-168z" />
    <glyph glyph-name="perthousand" unicode="&#x2030;" horiz-adv-x="1225" 
d="M995 75c32 0 47 18 53 47c14 62 36 162 36 175c0 17 -10 34 -44 34c-32 0 -47 -18 -54 -47c-14 -62 -35 -162 -35 -175c0 -17 10 -34 44 -34zM990 -6c-72 0 -129 43 -129 112c0 28 29 162 31 173c18 85 56 133 153 133c72 0 129 -43 129 -112c0 -28 -29 -162 -32 -173
c-19 -84 -55 -133 -152 -133zM649 700h106l-481 -700h-106zM222 369c32 0 47 18 53 47c14 62 36 162 36 175c0 17 -10 34 -44 34c-32 0 -47 -18 -54 -47c-14 -62 -35 -162 -35 -175c0 -17 10 -34 44 -34zM217 288c-72 0 -129 43 -129 112c0 28 29 162 31 173
c18 85 56 133 153 133c72 0 129 -43 129 -112c0 -28 -29 -162 -32 -173c-19 -84 -55 -133 -152 -133zM654 75c32 0 47 18 53 47c14 62 36 162 36 175c0 17 -10 34 -44 34c-32 0 -47 -18 -54 -47c-14 -62 -35 -162 -35 -175c0 -17 10 -34 44 -34zM649 -6
c-72 0 -129 43 -129 112c0 28 29 162 31 173c18 85 56 133 153 133c72 0 129 -43 129 -112c0 -28 -29 -162 -32 -173c-19 -84 -55 -133 -152 -133z" />
    <glyph glyph-name="uni2117" unicode="&#x2117;" horiz-adv-x="780" 
d="M285 173v349h162c101 0 134 -71 134 -133c0 -61 -33 -135 -134 -135h-69v-81h-93zM378 347h69c35 0 41 29 41 42c0 12 -6 41 -41 41h-69v-83zM49 350c0 199 161 360 360 360s360 -161 360 -360s-161 -360 -360 -360s-360 161 -360 360zM157 350c0 -138 113 -251 252 -251
s250 113 250 251s-111 251 -250 251s-252 -113 -252 -251z" />
    <glyph glyph-name="trademark" unicode="&#x2122;" horiz-adv-x="763" 
d="M179 294v317h-115v89h323v-89h-115v-317h-93zM424 294v406h89l95 -195l94 195h90v-406h-90v234l-60 -125h-69l-60 125v-234h-89z" />
    <glyph glyph-name="lozenge" unicode="&#x25ca;" horiz-adv-x="568" 
d="M557 350l-203 -350h-102l-203 350l203 350h102zM190 350l113 -195l113 195l-113 195z" />
    <glyph glyph-name="afii61289" unicode="&#x2113;" horiz-adv-x="356" 
d="M124 550c24 111 71 160 166 160c78 0 116 -42 116 -108c0 -126 -106 -268 -213 -346c-29 -136 -30 -141 -30 -160c0 -40 20 -55 55 -55c18 0 41 7 65 12l3 -31c-39 -24 -86 -32 -127 -32c-70 0 -127 40 -127 110c0 10 1 22 6 48l-54 -37l-16 31l80 55zM250 521l-45 -212
c67 60 155 168 155 242c0 27 -10 54 -42 54s-55 -21 -68 -84z" />
    <glyph glyph-name="afii61352" unicode="&#x2116;" horiz-adv-x="961" 
d="M675 365h282l-19 -90h-282zM847 476c28 0 44 17 50 45c5 19 13 57 13 64c0 20 -6 43 -46 43c-28 0 -43 -18 -50 -46c-5 -18 -13 -57 -13 -63c0 -21 6 -43 46 -43zM841 395c-82 0 -129 54 -129 127c0 15 4 41 8 54c19 82 54 132 150 132c82 0 129 -53 129 -127
c0 -14 -4 -40 -8 -54c-20 -81 -54 -132 -150 -132zM686 700l-149 -700h-134l-159 475l-101 -475h-133l148 700h134l159 -475l101 475h134z" />
    <glyph glyph-name="apple" horiz-adv-x="598" 
d="M167 26c-37 8 -49 32 -49 78v256c-18 0 -31 9 -37 24c-15 6 -24 19 -24 37c0 11 4 21 11 28c-22 11 -36 33 -36 59c0 25 14 48 36 59c-7 7 -11 17 -11 28c0 20 13 37 32 40c8 27 33 48 63 48c16 0 32 -7 44 -17c9 25 33 44 61 44c23 0 43 -13 55 -31c8 4 18 7 29 7
c25 0 48 -15 59 -37c7 7 17 12 28 12c17 0 31 -10 37 -24c29 -7 51 -34 51 -64c0 -25 -14 -46 -34 -57v-38h4c62 0 80 -23 80 -80v-215c0 -57 -18 -80 -80 -80h-4c0 -46 -12 -69 -49 -77v-26h-266v26zM433 104v406c-11 3 -21 9 -29 17h-83c-12 -12 -28 -19 -46 -19
c-22 0 -41 10 -53 27c-5 -2 -10 -3 -16 -3c-12 0 -22 4 -29 11c-3 -5 -6 -10 -10 -15v-424c0 -25 8 -34 32 -34h202c24 0 32 9 32 34zM97 462v-19c-13 0 -21 -11 -21 -22c0 -12 9 -21 21 -21c0 -12 9 -21 21 -21v147c25 0 45 18 47 42v4h19c0 -13 10 -21 22 -21s21 9 21 21
h19c0 -10 -4 -19 -9 -26c8 -12 22 -19 38 -19c26 0 47 20 47 46h82c0 -26 20 -46 46 -46s47 20 47 46s-21 47 -47 47c0 12 -10 22 -22 22c-11 0 -21 -8 -21 -22h-19c0 26 -21 47 -47 47c-20 0 -37 -13 -43 -30c16 -5 28 -20 28 -38h-19c0 12 -10 21 -22 21s-21 -9 -21 -21
h-19c0 20 14 36 33 39c4 12 10 22 19 30c-8 14 -24 23 -40 23c-25 0 -45 -20 -46 -45c4 -9 7 -19 7 -29h-19c0 26 -21 47 -47 47c-20 0 -37 -12 -43 -30c17 -5 29 -20 29 -39h-19c0 12 -10 22 -22 22s-21 -10 -21 -22c0 -11 7 -20 17 -21h4v-19h-4c-24 -2 -42 -22 -42 -47
s18 -45 42 -46h4zM517 183v215c0 25 -8 34 -31 34h-4v-283h4c23 0 31 9 31 34zM208 103v375h15v-375h-15zM376 103v375h15v-375h-15zM320 103v375h15v-375h-15zM264 103v375h15v-375h-15z" />
    <glyph glyph-name="estimated" unicode="&#x212e;" horiz-adv-x="784" 
d="M174 290v-173c0 -10 5 -19 12 -25c23 -19 50 -35 78 -46c42 -16 90 -22 140 -22s98 6 140 22c37 15 70 36 98 64h50c-35 -42 -80 -75 -131 -95c-48 -19 -101 -25 -157 -25s-109 6 -157 25c-117 47 -205 158 -205 302s88 255 205 302c48 19 101 25 157 25s109 -6 157 -25
c117 -47 205 -158 205 -302v-17h-582c-6 0 -10 -4 -10 -10zM634 344v173c0 10 -5 19 -12 25c-23 19 -50 35 -78 46c-42 16 -90 22 -140 22s-98 -6 -140 -22c-28 -11 -55 -27 -78 -46c-7 -6 -12 -15 -12 -25v-173c0 -6 4 -10 10 -10h440c6 0 10 4 10 10z" />
    <glyph glyph-name="minus" unicode="&#x2212;" 
d="M52 335h460v-120h-460v120z" />
    <glyph glyph-name="lessequal" unicode="&#x2264;" 
d="M512 151l-460 119v134l460 119v-125l-237 -61l237 -61v-125zM52 120h460v-120h-460v120z" />
    <glyph glyph-name="greaterequal" unicode="&#x2265;" 
d="M512 270l-460 -119v125l237 61l-237 61v125l460 -119v-134zM52 120h460v-120h-460v120z" />
    <glyph glyph-name="notequal" unicode="&#x2260;" 
d="M52 215h122l76 120h-198v120h274l87 136l99 -63l-47 -73h47v-120h-123l-76 -120h199v-120h-275l-86 -135l-99 63l46 72h-46v120z" />
    <glyph glyph-name="approxequal" unicode="&#x2248;" 
d="M129 312l-77 85c55 61 112 81 158 81c62 0 95 -46 138 -46c29 0 52 13 87 46l77 -85c-55 -61 -112 -81 -158 -81c-62 0 -95 46 -138 46c-29 0 -52 -13 -87 -46zM129 72l-77 85c55 61 112 81 158 81c62 0 95 -46 138 -46c29 0 52 13 87 46l77 -85
c-55 -61 -112 -81 -158 -81c-62 0 -95 46 -138 46c-29 0 -52 -13 -87 -46z" />
    <glyph glyph-name="partialdiff" unicode="&#x2202;" horiz-adv-x="588" 
d="M380 200c3 9 9 40 9 48c0 52 -35 81 -88 81c-66 0 -102 -33 -120 -88c-3 -9 -9 -40 -9 -48c0 -52 35 -81 88 -81c66 0 102 33 120 88zM424 412l14 69c2 9 3 18 3 26c0 52 -35 81 -88 81c-66 0 -105 -31 -120 -88h-126c34 132 108 210 262 210c122 0 196 -85 196 -191
c0 -19 -3 -39 -7 -61l-52 -258c-27 -134 -108 -210 -262 -210c-122 0 -196 85 -196 191c0 19 3 39 7 60c26 134 108 210 262 210c44 0 84 -16 107 -39z" />
    <glyph glyph-name="product" unicode="&#x220f;" horiz-adv-x="643" 
d="M84 0v700h513v-700h-135v566h-243v-566h-135z" />
    <glyph glyph-name="radical" unicode="&#x221a;" horiz-adv-x="571" 
d="M559 700l-209 -700h-180l-54 178h-68v122h157l55 -184l174 584h125z" />
    <glyph glyph-name="summation" unicode="&#x2211;" horiz-adv-x="692" 
d="M486 258l-255 -320h381v-122h-542v122l255 320l-255 320v122h542v-122h-381z" />
    <glyph glyph-name="integral" unicode="&#x222b;" horiz-adv-x="288" 
d="M224 537v-589c0 -83 -40 -132 -132 -132h-28v122c32 0 38 17 38 41v589c0 83 40 132 132 132h28v-122c-32 0 -38 -17 -38 -41z" />
    <glyph glyph-name="infinity" unicode="&#x221e;" 
d="M73 336c0 70 55 126 125 126c39 0 74 -18 97 -45c23 27 57 45 96 45c70 0 126 -56 126 -126s-56 -125 -126 -125c-39 0 -73 17 -96 44c-23 -27 -58 -44 -97 -44c-70 0 -125 55 -125 125zM161 336c0 -20 17 -37 37 -37s38 16 38 37s-17 38 -38 38s-37 -18 -37 -38z
M354 336c0 -20 17 -37 37 -37s38 16 38 37s-17 38 -38 38s-37 -18 -37 -38z" />
    <glyph glyph-name="Delta" unicode="&#x394;" horiz-adv-x="628" 
d="M599 0h-630l250 700h130zM284 487l-127 -354h253z" />
    <glyph glyph-name="Delta" unicode="&#x2206;" horiz-adv-x="628" 
d="M599 0h-630l250 700h130zM284 487l-127 -354h253z" />
    <glyph glyph-name="Omega" unicode="&#x3a9;" horiz-adv-x="608" 
d="M296 0l46 219c52 14 91 56 105 120c5 23 29 118 29 144c0 63 -41 97 -115 97c-73 0 -130 -45 -148 -126c-5 -23 -29 -118 -29 -144c0 -45 20 -75 59 -89l-47 -221h-208l28 130h110c-50 38 -76 95 -76 157c0 49 18 118 28 164c33 155 102 259 300 259
c150 0 232 -95 232 -204c0 -49 -18 -118 -28 -164c-20 -93 -52 -167 -118 -212h69l-28 -130h-209z" />
    <glyph glyph-name="Omega" unicode="&#x2126;" horiz-adv-x="608" 
d="M296 0l46 219c52 14 91 56 105 120c5 23 29 118 29 144c0 63 -41 97 -115 97c-73 0 -130 -45 -148 -126c-5 -23 -29 -118 -29 -144c0 -45 20 -75 59 -89l-47 -221h-208l28 130h110c-50 38 -76 95 -76 157c0 49 18 118 28 164c33 155 102 259 300 259
c150 0 232 -95 232 -204c0 -49 -18 -118 -28 -164c-20 -93 -52 -167 -118 -212h69l-28 -130h-209z" />
    <glyph glyph-name="pi" unicode="&#x3c0;" horiz-adv-x="632" 
d="M116 400h-73l25 116h606l-25 -116h-73l-84 -400h-132l84 400h-196l-84 -400h-132z" />
    <glyph glyph-name="Euro" unicode="&#x20ac;" horiz-adv-x="615" 
d="M438 238h-186c-3 -17 -3 -23 -3 -30c0 -77 35 -102 107 -102c42 0 84 19 114 49l77 -91c-55 -48 -120 -74 -206 -74c-127 0 -220 71 -220 206c0 12 0 26 2 42h-83l38 80h59c3 18 7 40 13 65h-81l38 80h60s1 1 1 2c30 135 94 245 273 245c109 0 174 -59 198 -97l-96 -76
c-17 30 -55 57 -110 57c-72 0 -114 -40 -132 -125l-2 -6h246l-38 -80h-225c-5 -26 -10 -47 -14 -65h208z" />
    <glyph glyph-name="fi" unicode="&#xfb01;" horiz-adv-x="596" 
d="M415 584h-89c-32 0 -44 -20 -49 -44l-5 -24h128l-25 -116h-127l-85 -400h-132l85 400h-73l25 116h72l11 52c17 78 80 132 164 132h124zM630 700l-25 -117h-132l25 117h132zM591 516l-110 -516h-132l110 516h132z" />
    <glyph glyph-name="fl" unicode="&#xfb02;" horiz-adv-x="624" 
d="M415 584h-89c-32 0 -44 -20 -49 -44l-5 -24h128l-25 -116h-127l-85 -400h-132l85 400h-73l25 116h72l11 52c17 78 80 132 164 132h124zM541 116h26l-24 -116h-34c-91 0 -128 52 -128 121c0 57 40 222 115 579h132c-93 -435 -117 -547 -117 -559c0 -15 10 -25 30 -25z" />
    <glyph glyph-name="uniFB00" unicode="&#xfb00;" horiz-adv-x="688" 
d="M460 400h-212l-85 -400h-132l85 400h-73l25 116h72l11 52c17 78 80 132 164 132h124l-24 -116h-89c-32 0 -44 -20 -49 -44l-5 -24h212l11 52c17 78 80 132 164 132h124l-24 -116h-89c-32 0 -44 -20 -49 -44l-5 -24h128l-25 -116h-127l-85 -400h-132z" />
    <glyph glyph-name="uniFB03" unicode="&#xfb03;" horiz-adv-x="940" 
d="M460 400h-212l-85 -400h-132l85 400h-73l25 116h72l11 52c17 78 80 132 164 132h124l-24 -116h-89c-32 0 -44 -20 -49 -44l-5 -24h212l11 52c17 78 80 132 164 132h124l-24 -116h-89c-32 0 -44 -20 -49 -44l-5 -24h128l-25 -116h-127l-85 -400h-132zM974 700l-25 -117
h-132l25 117h132zM935 516l-110 -516h-132l110 516h132z" />
    <glyph glyph-name="uniFB04" unicode="&#xfb04;" horiz-adv-x="968" 
d="M460 400h-212l-85 -400h-132l85 400h-73l25 116h72l11 52c17 78 80 132 164 132h124l-24 -116h-89c-32 0 -44 -20 -49 -44l-5 -24h212l11 52c17 78 80 132 164 132h124l-24 -116h-89c-32 0 -44 -20 -49 -44l-5 -24h128l-25 -116h-127l-85 -400h-132zM885 116h26l-24 -116
h-34c-91 0 -128 52 -128 121c0 57 40 222 115 579h132c-93 -435 -117 -547 -117 -559c0 -15 10 -25 30 -25z" />
    <glyph glyph-name="breve" unicode="&#x2d8;" horiz-adv-x="420" 
d="M229 571c-62 0 -105 45 -105 103c0 9 1 17 3 26h87c-1 -4 -1 -9 -1 -10c0 -14 12 -26 30 -26h94c20 0 39 16 43 36h99c-15 -71 -85 -129 -156 -129h-94z" />
    <glyph glyph-name="caron" unicode="&#x2c7;" horiz-adv-x="458" 
d="M235 571l-99 129h128l39 -45l58 45h147l-153 -129h-120z" />
    <glyph glyph-name="circumflex" unicode="&#x2c6;" horiz-adv-x="458" 
d="M382 700l99 -129h-128l-39 45l-58 -45h-147l153 129h120z" />
    <glyph glyph-name="dotaccent" unicode="&#x2d9;" horiz-adv-x="210" 
d="M263 694l-25 -117h-132l25 117h132z" />
    <glyph glyph-name="hungarumlaut" unicode="&#x2dd;" horiz-adv-x="499" 
d="M182 700h167l-108 -129h-109zM374 700h167l-108 -129h-109z" />
    <glyph glyph-name="commaaccent" horiz-adv-x="290" 
d="M-20 -200l31 150h150l-31 -150l-55 -104h-94l55 104h-56z" />
    <glyph glyph-name="ogonek" unicode="&#x2db;" horiz-adv-x="269" 
d="M47 0h132c-55 -33 -99 -54 -99 -79c0 -11 9 -17 25 -17c20 0 44 11 57 17l-20 -92c-19 -10 -50 -18 -85 -18c-55 0 -116 29 -116 88c0 47 42 81 106 101z" />
    <glyph glyph-name="ring" unicode="&#x2da;" horiz-adv-x="215" 
d="M113 635c0 41 33 75 74 75s75 -34 75 -75s-34 -74 -75 -74s-74 33 -74 74zM167 635c0 -11 9 -20 20 -20s20 9 20 20s-9 20 -20 20s-20 -9 -20 -20z" />
    <glyph glyph-name="tilde" unicode="&#x2dc;" horiz-adv-x="453" 
d="M223 572h-97c13 70 51 130 119 130c24 0 39 -4 61 -15l27 -13c7 -3 14 -5 24 -5s25 8 32 31h98c-13 -70 -51 -130 -119 -130c-24 0 -39 4 -61 15l-27 13c-7 3 -14 5 -24 5s-25 -8 -33 -31z" />
    <glyph glyph-name="uni032C" unicode="&#x32c;" horiz-adv-x="458" 
d="M80 -129l-99 129h128l39 -45l58 45h147l-153 -129h-120z" />
    <glyph glyph-name="zero.slashed" horiz-adv-x="556" 
d="M496 209c-33 -143 -99 -219 -252 -219c-123 0 -206 79 -206 183c0 48 50 278 59 318c33 143 99 219 252 219c123 0 206 -79 206 -183c0 -48 -50 -278 -59 -318zM363 202l40 185l-236 -194c-1 -6 -1 -11 -1 -13c0 -40 25 -74 88 -74c58 0 96 35 109 96zM230 498
c-10 -48 -27 -121 -40 -186l236 195c1 5 1 10 1 13c0 40 -25 74 -88 74c-58 0 -96 -35 -109 -96z" />
    <glyph glyph-name="one.tlf" 
d="M205 116l87 414l-158 -116l36 170l158 116h132l-123 -584h165l-25 -116h-459l24 116h163z" />
    <glyph glyph-name="two.tlf" 
d="M552 527c0 -104 -54 -182 -137 -249l-199 -162h257l-24 -116h-459l24 116l319 260c51 42 91 86 91 144c0 40 -25 74 -88 74c-74 0 -105 -56 -113 -114h-131c30 148 97 230 254 230c123 0 206 -79 206 -183z" />
    <glyph glyph-name="three.tlf" 
d="M236 -10c-129 0 -206 79 -206 183c0 6 1 21 2 27h128c-1 -6 -2 -16 -2 -20c0 -40 25 -74 88 -74c67 0 111 57 111 109c0 44 -33 76 -86 76h-58l25 116h58c71 0 123 46 123 113c0 40 -25 74 -88 74c-57 0 -96 -34 -109 -94h-131c34 137 100 210 250 210
c123 0 206 -79 206 -183c0 -91 -49 -161 -118 -190c32 -25 50 -70 50 -116c0 -144 -92 -231 -243 -231z" />
    <glyph glyph-name="four.tlf" 
d="M498 160h-72l-34 -160h-132l34 160h-302l24 113l392 427h132l-91 -427h72zM182 273h135l43 194z" />
    <glyph glyph-name="five.tlf" 
d="M378 202c15 70 15 71 15 77c0 33 -21 63 -78 63c-44 0 -85 -20 -104 -57h-134l88 415h424l-25 -116h-292l-32 -154c19 14 48 28 100 28c93 0 182 -74 182 -177c0 -15 -1 -22 -11 -72c-30 -142 -99 -219 -252 -219c-123 0 -206 79 -206 183c0 6 1 15 2 27h128
c-1 -9 -2 -16 -2 -20c0 -40 25 -74 88 -74c58 0 95 35 109 96z" />
    <glyph glyph-name="six.tlf" 
d="M220 423c20 16 56 28 100 28c97 0 187 -71 187 -191c0 -16 -1 -33 -5 -51c-33 -142 -99 -219 -252 -219c-123 0 -205 79 -205 183c0 58 49 279 58 318c33 143 99 219 252 219c123 0 206 -79 206 -183c0 -6 -1 -15 -2 -27h-128c1 9 2 16 2 20c0 40 -25 74 -88 74
c-58 0 -94 -35 -109 -96c-5 -20 -10 -46 -16 -75zM181 239c-6 -29 -9 -51 -9 -59c0 -40 25 -74 88 -74c58 0 96 35 109 96c6 29 9 51 9 59c0 40 -25 74 -88 74c-58 0 -96 -35 -109 -96z" />
    <glyph glyph-name="seven.tlf" 
d="M566 584l-343 -584h-148l343 584h-306l24 116h454z" />
    <glyph glyph-name="eight.tlf" 
d="M116 483c0 93 49 227 235 227c121 0 202 -82 202 -184c0 -66 -25 -151 -104 -196c25 -32 40 -71 40 -117c0 -75 -36 -223 -234 -223c-121 0 -212 78 -212 193c0 54 19 148 106 195c-21 29 -33 66 -33 105zM171 193c0 -52 33 -87 92 -87c73 0 98 59 98 107
c0 52 -33 87 -92 87c-73 0 -98 -59 -98 -107zM425 514c0 47 -29 80 -83 80c-68 0 -98 -54 -98 -107c0 -47 29 -80 83 -80c68 0 98 54 98 107z" />
    <glyph glyph-name="nine.tlf" 
d="M379 277c-20 -16 -56 -28 -100 -28c-97 0 -187 71 -187 191c0 16 1 33 5 51c33 142 99 219 252 219c123 0 205 -79 205 -183c0 -58 -49 -279 -58 -318c-33 -143 -99 -219 -252 -219c-123 0 -206 79 -206 183c0 6 1 15 2 27h128c-1 -9 -2 -16 -2 -20c0 -40 25 -74 88 -74
c58 0 94 35 109 96c5 20 10 46 16 75zM418 461c6 29 9 51 9 59c0 40 -25 74 -88 74c-58 0 -96 -35 -109 -96c-6 -29 -9 -51 -9 -59c0 -40 25 -74 88 -74c58 0 96 35 109 96z" />
    <glyph glyph-name="zero.tlf" 
d="M497 209c-33 -143 -99 -219 -252 -219c-123 0 -206 79 -206 183c0 48 50 278 59 318c33 143 99 219 252 219c123 0 206 -79 206 -183c0 -48 -50 -278 -59 -318zM231 498c-20 -94 -64 -290 -64 -318c0 -40 25 -74 88 -74c58 0 96 35 109 96c20 94 64 290 64 318
c0 40 -25 74 -88 74c-58 0 -96 -35 -109 -96z" />
    <glyph glyph-name="zero.slashed.tlf" 
d="M496 209c-33 -143 -99 -219 -252 -219c-123 0 -206 79 -206 183c0 48 50 278 59 318c33 143 99 219 252 219c123 0 206 -79 206 -183c0 -48 -50 -278 -59 -318zM230 498c-10 -48 -27 -122 -40 -187l236 195c1 6 1 11 1 14c0 40 -25 74 -88 74c-58 0 -96 -35 -109 -96z
M363 202c10 47 26 120 39 184l-235 -194c-1 -5 -1 -10 -1 -12c0 -40 25 -74 88 -74c58 0 96 35 109 96z" />
    <glyph glyph-name="one.case" horiz-adv-x="378" 
d="M114 0l112 510l-158 -116l36 190l158 116h134l-148 -700h-134z" />
    <glyph glyph-name="two.case" horiz-adv-x="542" 
d="M-19 0l25 130l319 255c51 41 90 79 90 131c0 33 -24 64 -87 64c-74 0 -104 -57 -112 -103h-133c30 147 97 233 255 233c123 0 207 -76 207 -189c0 -98 -50 -184 -137 -247l-197 -144h256l-25 -130h-461z" />
    <glyph glyph-name="three.case" horiz-adv-x="547" 
d="M235 -10c-130 0 -207 76 -207 189c0 5 1 17 1 21h130c0 -3 -1 -12 -1 -16c0 -33 24 -64 87 -64c66 0 109 50 109 95c0 41 -32 68 -85 68h-58l25 130h58c71 0 122 37 122 103c0 33 -24 64 -87 64c-56 0 -95 -28 -107 -77h-134c35 132 100 207 251 207
c123 0 207 -76 207 -189c0 -87 -48 -157 -117 -186c31 -25 49 -70 49 -114c0 -150 -92 -231 -243 -231z" />
    <glyph glyph-name="four.case" horiz-adv-x="531" 
d="M251 0l33 151h-301l25 127l391 422h134l-91 -422h72l-23 -127h-72l-34 -151h-134zM176 278h135l41 190z" />
    <glyph glyph-name="five.case" horiz-adv-x="553" 
d="M251 -10c-123 0 -207 76 -207 189c0 5 0 10 1 21h130c0 -7 -1 -12 -1 -16c0 -33 24 -64 87 -64c57 0 95 31 107 84c10 45 15 70 15 75c0 28 -20 53 -76 53c-44 0 -85 -17 -104 -50h-136l88 418h426l-25 -130h-292l-31 -130c19 10 47 22 99 22c92 0 182 -70 182 -180
c0 -15 -1 -20 -10 -67c-29 -143 -99 -225 -253 -225z" />
    <glyph glyph-name="six.case" horiz-adv-x="557" 
d="M250 -10c-123 0 -206 76 -206 189c0 61 49 280 57 306c33 144 99 225 253 225c123 0 207 -76 207 -189c0 -5 -1 -11 -2 -21h-130c1 7 2 12 2 16c0 33 -24 64 -87 64c-58 0 -94 -32 -108 -86l-15 -60c20 12 55 21 99 21c96 0 187 -66 187 -199c0 -16 -1 -29 -4 -41
c-34 -143 -99 -225 -253 -225zM260 120c57 0 95 32 107 86c6 24 9 45 9 52c0 37 -24 67 -87 67c-57 0 -95 -32 -108 -86c-5 -28 -8 -47 -8 -55c0 -33 24 -64 87 -64z" />
    <glyph glyph-name="seven.case" horiz-adv-x="476" 
d="M40 0l342 570h-306l24 130h456l-24 -130l-342 -570h-150z" />
    <glyph glyph-name="eight.case" horiz-adv-x="543" 
d="M245 -10c-121 0 -213 73 -213 199c0 42 18 139 103 190c-20 30 -30 65 -30 105c0 82 48 226 235 226c122 0 203 -81 203 -191c0 -57 -23 -143 -99 -191c22 -31 35 -70 35 -116c0 -58 -34 -222 -234 -222zM253 120c73 0 96 59 96 95c0 49 -32 79 -91 79
c-73 0 -96 -59 -96 -95c0 -49 32 -79 91 -79zM317 414c67 0 96 48 96 93c0 42 -28 73 -82 73c-67 0 -96 -49 -96 -94c0 -42 28 -72 82 -72z" />
    <glyph glyph-name="nine.case" horiz-adv-x="557" 
d="M344 710c123 0 206 -76 206 -189c0 -61 -49 -280 -57 -306c-33 -144 -99 -225 -253 -225c-123 0 -207 76 -207 189c0 5 1 11 2 21h130c-1 -7 -2 -12 -2 -16c0 -33 24 -64 87 -64c58 0 94 32 108 86l15 60c-20 -12 -55 -21 -99 -21c-96 0 -187 66 -187 199c0 9 2 34 5 46
c34 143 98 220 252 220zM334 580c-57 0 -95 -32 -107 -86c-6 -24 -9 -45 -9 -52c0 -37 24 -67 87 -67c57 0 95 32 108 86c5 28 8 47 8 55c0 33 -24 64 -87 64z" />
    <glyph glyph-name="zero.case" horiz-adv-x="567" 
d="M236 494c-22 -102 -63 -285 -63 -310c0 -33 24 -64 87 -64c58 0 95 32 107 86c22 102 64 285 64 310c0 33 -24 64 -87 64c-58 0 -96 -32 -108 -86zM503 215c-38 -143 -99 -225 -253 -225c-123 0 -207 76 -207 189c0 48 51 279 58 306c38 143 99 225 253 225
c123 0 207 -76 207 -189c0 -48 -51 -279 -58 -306z" />
    <glyph glyph-name="zero.slashed.case" horiz-adv-x="567" 
d="M503 215c-38 -143 -99 -225 -253 -225c-123 0 -207 76 -207 189c0 48 51 279 58 306c38 143 99 225 253 225c123 0 207 -76 207 -189c0 -48 -51 -279 -58 -306zM236 494c-11 -49 -26 -116 -38 -175l232 192c0 2 1 3 1 5c0 33 -24 64 -87 64c-58 0 -96 -32 -108 -86z
M367 206c10 48 25 114 38 173l-232 -191v-4c0 -33 24 -64 87 -64c58 0 95 32 107 86z" />
    <glyph glyph-name="uni21B2" unicode="&#x21b2;" horiz-adv-x="800" 
d="M755 700v-463h-481l161 -161l-84 -86l-306 306l306 306l84 -86l-160 -160h361v344h119z" />
    <glyph glyph-name="uni21B3" unicode="&#x21b3;" horiz-adv-x="800" 
d="M45 237v463h119v-344h361l-160 160l84 86l306 -306l-306 -306l-84 86l161 161h-481z" />
    <glyph glyph-name="uni21B0" unicode="&#x21b0;" horiz-adv-x="800" 
d="M274 237l161 -161l-84 -86l-306 306l306 306l84 -86l-160 -160h480v-540h-119v421h-362z" />
    <glyph glyph-name="uni21B1" unicode="&#x21b1;" horiz-adv-x="800" 
d="M365 76l161 161h-362v-421h-119v540h480l-160 160l84 86l306 -306l-306 -306z" />
    <glyph glyph-name="uni2190" unicode="&#x2190;" horiz-adv-x="800" 
d="M274 237l161 -161l-84 -86l-306 306l306 306l84 -86l-160 -160h480v-119h-481z" />
    <glyph glyph-name="uni2191" unicode="&#x2191;" horiz-adv-x="800" 
d="M341 481l-161 -161l-86 84l306 306l306 -306l-86 -84l-160 160v-480h-119v481z" />
    <glyph glyph-name="uni2192" unicode="&#x2192;" horiz-adv-x="800" 
d="M365 76l161 161h-481v119h480l-160 160l84 86l306 -306l-306 -306z" />
    <glyph glyph-name="uni2193" unicode="&#x2193;" horiz-adv-x="800" 
d="M180 380l161 -161v481h119v-480l160 160l86 -84l-306 -306l-306 306z" />
    <glyph glyph-name="uni2196" unicode="&#x2196;" horiz-adv-x="800" 
d="M251 368v-229h-120v433h433v-121h-228l373 -372l-84 -84z" />
    <glyph glyph-name="uni2197" unicode="&#x2197;" horiz-adv-x="800" 
d="M549 139v229l-374 -373l-84 84l373 372h-228v121h433v-433h-120z" />
    <glyph glyph-name="uni2198" unicode="&#x2198;" horiz-adv-x="800" 
d="M549 204v229h120v-433h-433v121h228l-373 372l84 84z" />
    <glyph glyph-name="uni2199" unicode="&#x2199;" horiz-adv-x="800" 
d="M251 433v-229l374 373l84 -84l-373 -372h228v-121h-433v433h120z" />
    <glyph glyph-name="uni25A0" unicode="&#x25a0;" horiz-adv-x="800" 
d="M142 0v516h516v-516h-516z" />
    <glyph glyph-name="uni25A1" unicode="&#x25a1;" horiz-adv-x="800" 
d="M142 0v516h516v-516h-516zM261 397v-278h278v278h-278z" />
    <glyph glyph-name="uni25CB" unicode="&#x25cb;" horiz-adv-x="800" 
d="M130 260c0 149 121 270 270 270s270 -121 270 -270s-121 -270 -270 -270s-270 121 -270 270zM249 260c0 -83 68 -151 151 -151s151 68 151 151s-68 151 -151 151s-151 -68 -151 -151z" />
    <glyph glyph-name="uni25CF" unicode="&#x25cf;" horiz-adv-x="800" 
d="M130 260c0 149 121 270 270 270s270 -121 270 -270s-121 -270 -270 -270s-270 121 -270 270z" />
    <glyph glyph-name="onethird" unicode="&#x2153;" horiz-adv-x="776" 
d="M120 294l61 288l-92 -68l25 118l92 68h93l-86 -406h-93zM545 700h106l-481 -700h-106zM550 -6c-78 0 -129 43 -129 112v10h91c0 -1 -1 -6 -1 -7c0 -17 10 -34 44 -34s54 27 54 50c0 22 -17 36 -45 36h-36l18 81h36c36 0 62 18 62 55c0 17 -10 34 -44 34
c-29 0 -45 -14 -52 -38h-92c21 75 57 119 149 119c72 0 129 -43 129 -112c0 -49 -26 -90 -65 -106c17 -15 25 -41 25 -66c0 -89 -58 -134 -144 -134z" />
    <glyph glyph-name="uni2155" unicode="&#x2155;" horiz-adv-x="777" 
d="M120 294l61 288l-92 -68l25 118l92 68h93l-86 -406h-93zM545 700h106l-481 -700h-106zM560 -6c-72 0 -129 43 -129 112v10h91c0 -3 -1 -6 -1 -7c0 -17 10 -34 44 -34c32 0 47 17 53 44c7 33 9 41 9 43c0 14 -8 27 -35 27c-24 0 -46 -9 -55 -27h-94l52 244h262l-18 -80
h-169l-13 -67c10 4 22 11 53 11c46 0 108 -39 108 -106c0 -9 0 -11 -5 -37c-18 -83 -56 -133 -153 -133z" />
    <glyph glyph-name="uni2159" unicode="&#x2159;" horiz-adv-x="772" 
d="M120 294l61 288l-92 -68l25 118l92 68h93l-86 -406h-93zM545 700h106l-481 -700h-106zM554 -6c-72 0 -129 43 -129 112c0 36 29 163 31 173c20 84 56 133 153 133c72 0 129 -43 129 -112v-10h-90v7c0 17 -10 34 -44 34c-32 0 -48 -18 -54 -47l-6 -28c11 6 27 10 51 10
c52 0 109 -38 109 -120c0 -9 -1 -27 -4 -38c-16 -60 -47 -114 -146 -114zM559 75c32 0 47 18 53 47c3 11 5 22 5 26c0 21 -12 37 -44 37s-48 -18 -54 -47c-3 -15 -4 -25 -4 -29c0 -17 10 -34 44 -34z" />
    <glyph glyph-name="oneeighth" unicode="&#x215b;" horiz-adv-x="744" 
d="M120 294l61 288l-92 -68l25 118l92 68h93l-86 -406h-93zM545 700h106l-481 -700h-106zM542 -6c-68 0 -131 40 -131 118c0 19 5 78 58 109c-11 17 -17 38 -17 61c0 43 20 130 139 130c75 0 128 -47 128 -114c0 -30 -10 -82 -57 -110c12 -18 20 -40 20 -66
c0 -27 -11 -128 -140 -128zM546 75c43 0 45 34 45 50c0 28 -17 44 -44 44c-43 0 -46 -35 -46 -51c0 -27 17 -43 45 -43zM584 242c36 0 45 26 45 49s-12 40 -42 40c-35 0 -44 -26 -44 -49s11 -40 41 -40z" />
    <glyph glyph-name="twothirds" unicode="&#x2154;" horiz-adv-x="877" 
d="M44 294l17 80l188 147c29 23 46 43 46 70c0 17 -10 34 -44 34c-44 0 -53 -33 -56 -55h-92c17 84 55 136 153 136c72 0 129 -43 129 -112c0 -55 -27 -104 -78 -143l-102 -77h138l-16 -80h-283zM647 700h106l-481 -700h-106zM651 -6c-78 0 -129 43 -129 112v10h91
c0 -1 -1 -6 -1 -7c0 -17 10 -34 44 -34s54 27 54 50c0 22 -17 36 -45 36h-36l18 81h36c36 0 62 18 62 55c0 17 -10 34 -44 34c-29 0 -45 -14 -52 -38h-92c21 75 57 119 149 119c72 0 129 -43 129 -112c0 -49 -26 -90 -65 -106c17 -15 25 -41 25 -66
c0 -89 -58 -134 -144 -134z" />
    <glyph glyph-name="uni2156" unicode="&#x2156;" horiz-adv-x="878" 
d="M44 294l17 80l188 147c29 23 46 43 46 70c0 17 -10 34 -44 34c-44 0 -53 -33 -56 -55h-92c17 84 55 136 153 136c72 0 129 -43 129 -112c0 -55 -27 -104 -78 -143l-102 -77h138l-16 -80h-283zM647 700h106l-481 -700h-106zM661 -6c-72 0 -129 43 -129 112v10h91
c0 -3 -1 -6 -1 -7c0 -17 10 -34 44 -34c32 0 47 17 53 44c7 33 9 41 9 43c0 14 -8 27 -35 27c-24 0 -46 -9 -55 -27h-94l52 244h262l-18 -80h-169l-13 -67c10 4 22 11 53 11c46 0 108 -39 108 -106c0 -9 0 -11 -5 -37c-18 -83 -56 -133 -153 -133z" />
    <glyph glyph-name="uni2157" unicode="&#x2157;" horiz-adv-x="875" 
d="M202 288c-78 0 -129 43 -129 112v10h91c0 -1 -1 -6 -1 -7c0 -17 10 -34 44 -34s54 27 54 50c0 22 -17 36 -45 36h-36l18 81h36c36 0 62 18 62 55c0 17 -10 34 -44 34c-29 0 -45 -14 -52 -38h-92c21 75 57 119 149 119c72 0 129 -43 129 -112c0 -49 -26 -90 -65 -106
c17 -15 25 -41 25 -66c0 -89 -58 -134 -144 -134zM644 700h106l-481 -700h-106zM658 -6c-72 0 -129 43 -129 112v10h91c0 -3 -1 -6 -1 -7c0 -17 10 -34 44 -34c32 0 47 17 53 44c7 33 9 41 9 43c0 14 -8 27 -35 27c-24 0 -46 -9 -55 -27h-94l52 244h262l-18 -80h-169
l-13 -67c10 4 22 11 53 11c46 0 108 -39 108 -106c0 -9 0 -11 -5 -37c-18 -83 -56 -133 -153 -133z" />
    <glyph glyph-name="threeeighths" unicode="&#x215c;" horiz-adv-x="843" 
d="M202 288c-78 0 -129 43 -129 112v10h91c0 -1 -1 -6 -1 -7c0 -17 10 -34 44 -34s54 27 54 50c0 22 -17 36 -45 36h-36l18 81h36c36 0 62 18 62 55c0 17 -10 34 -44 34c-29 0 -45 -14 -52 -38h-92c21 75 57 119 149 119c72 0 129 -43 129 -112c0 -49 -26 -90 -65 -106
c17 -15 25 -41 25 -66c0 -89 -58 -134 -144 -134zM644 700h106l-481 -700h-106zM640 -6c-68 0 -131 40 -131 118c0 19 5 78 58 109c-11 17 -17 38 -17 61c0 43 20 130 139 130c75 0 128 -47 128 -114c0 -30 -10 -82 -57 -110c12 -18 20 -40 20 -66c0 -27 -11 -128 -140 -128
zM644 75c43 0 45 34 45 50c0 28 -17 44 -44 44c-43 0 -46 -35 -46 -51c0 -27 17 -43 45 -43zM682 242c36 0 45 26 45 49s-12 40 -42 40c-35 0 -44 -26 -44 -49s11 -40 41 -40z" />
    <glyph glyph-name="uni2158" unicode="&#x2158;" horiz-adv-x="830" 
d="M166 294l18 84h-170l17 79l221 243h93l-52 -243h41l-15 -79h-42l-18 -84h-93zM148 457h52l18 78zM599 700h106l-481 -700h-106zM613 -6c-72 0 -129 43 -129 112v10h91c0 -3 -1 -6 -1 -7c0 -17 10 -34 44 -34c32 0 47 17 53 44c7 33 9 41 9 43c0 14 -8 27 -35 27
c-24 0 -46 -9 -55 -27h-94l52 244h262l-18 -80h-169l-13 -67c10 4 22 11 53 11c46 0 108 -39 108 -106c0 -9 0 -11 -5 -37c-18 -83 -56 -133 -153 -133z" />
    <glyph glyph-name="uni215A" unicode="&#x215a;" horiz-adv-x="871" 
d="M211 288c-72 0 -129 43 -129 112v10h91c0 -3 -1 -6 -1 -7c0 -17 10 -34 44 -34c32 0 47 17 53 44c7 33 9 41 9 43c0 14 -8 27 -35 27c-24 0 -46 -9 -55 -27h-94l52 244h262l-18 -80h-169l-13 -67c10 4 22 11 53 11c46 0 108 -39 108 -106c0 -9 0 -11 -5 -37
c-18 -83 -56 -133 -153 -133zM645 700h106l-481 -700h-106zM653 -6c-72 0 -129 43 -129 112c0 36 29 163 31 173c20 84 56 133 153 133c72 0 129 -43 129 -112v-10h-90v7c0 17 -10 34 -44 34c-32 0 -48 -18 -54 -47l-6 -28c11 6 27 10 51 10c52 0 109 -38 109 -120
c0 -9 -1 -27 -4 -38c-16 -60 -47 -114 -146 -114zM658 75c32 0 47 18 53 47c3 11 5 22 5 26c0 21 -12 37 -44 37s-48 -18 -54 -47c-3 -15 -4 -25 -4 -29c0 -17 10 -34 44 -34z" />
    <glyph glyph-name="fiveeighths" unicode="&#x215d;" horiz-adv-x="844" 
d="M211 288c-72 0 -129 43 -129 112v10h91c0 -3 -1 -6 -1 -7c0 -17 10 -34 44 -34c32 0 47 17 53 44c7 33 9 41 9 43c0 14 -8 27 -35 27c-24 0 -46 -9 -55 -27h-94l52 244h262l-18 -80h-169l-13 -67c10 4 22 11 53 11c46 0 108 -39 108 -106c0 -9 0 -11 -5 -37
c-18 -83 -56 -133 -153 -133zM645 700h106l-481 -700h-106zM641 -6c-68 0 -131 40 -131 118c0 19 5 78 58 109c-11 17 -17 38 -17 61c0 43 20 130 139 130c75 0 128 -47 128 -114c0 -30 -10 -82 -57 -110c12 -18 20 -40 20 -66c0 -27 -11 -128 -140 -128zM645 75
c43 0 45 34 45 50c0 28 -17 44 -44 44c-43 0 -46 -35 -46 -51c0 -27 17 -43 45 -43zM683 242c36 0 45 26 45 49s-12 40 -42 40c-35 0 -44 -26 -44 -49s11 -40 41 -40z" />
    <glyph glyph-name="seveneighths" unicode="&#x215e;" horiz-adv-x="770" 
d="M79 294l195 326h-177l16 80h280l-17 -80l-195 -326h-102zM572 700h106l-481 -700h-106zM568 -6c-68 0 -131 40 -131 118c0 19 5 78 58 109c-11 17 -17 38 -17 61c0 43 20 130 139 130c75 0 128 -47 128 -114c0 -30 -10 -82 -57 -110c12 -18 20 -40 20 -66
c0 -27 -11 -128 -140 -128zM572 75c43 0 45 34 45 50c0 28 -17 44 -44 44c-43 0 -46 -35 -46 -51c0 -27 17 -43 45 -43zM610 242c36 0 45 26 45 49s-12 40 -42 40c-35 0 -44 -26 -44 -49s11 -40 41 -40z" />
    <glyph glyph-name="uni215F" unicode="&#x215f;" horiz-adv-x="411" 
d="M120 294l61 288l-92 -68l25 118l92 68h93l-86 -406h-93zM545 700h106l-481 -700h-106z" />
    <glyph glyph-name="fraction" unicode="&#x2044;" horiz-adv-x="145" 
d="M280 700h106l-481 -700h-106z" />
    <glyph glyph-name="a.superior" horiz-adv-x="336" 
d="M177 395c-58 0 -101 40 -101 89c0 45 26 79 61 92c46 16 86 18 146 21c-2 11 -8 31 -46 31c-18 0 -33 -10 -42 -23h-94c21 64 57 103 142 103c82 0 129 -53 129 -127c0 -14 -5 -39 -8 -54l-27 -126h-93l7 30c-17 -22 -38 -36 -74 -36zM196 473c37 0 68 23 75 54
c-36 0 -80 -5 -90 -9s-17 -13 -17 -24c0 -8 5 -21 32 -21z" />
    <glyph glyph-name="b.superior" horiz-adv-x="340" 
d="M229 478c28 0 45 18 51 46c8 36 11 48 11 53c0 25 -4 48 -46 48c-28 0 -44 -17 -50 -45c-8 -38 -11 -51 -11 -59c0 -20 5 -43 45 -43zM247 395c-42 0 -69 18 -82 43l-8 -37h-93l85 406h93l-28 -135c4 10 24 36 62 36c80 0 103 -74 103 -126c0 -18 -5 -48 -8 -64
c-17 -81 -53 -123 -124 -123z" />
    <glyph glyph-name="c.superior" horiz-adv-x="326" 
d="M213 395c-82 0 -129 54 -129 127c0 15 4 41 8 54c19 82 54 132 150 132c85 0 129 -58 129 -121h-88c-2 14 -5 41 -47 41c-28 0 -44 -18 -50 -46c-7 -33 -13 -57 -13 -65c0 -16 4 -41 46 -41c26 0 41 15 48 40h94c-21 -75 -57 -121 -148 -121z" />
    <glyph glyph-name="d.superior" horiz-adv-x="339" 
d="M218 478c28 0 44 18 50 46c8 35 11 49 11 53c0 25 -3 48 -46 48c-27 0 -44 -17 -50 -45c-8 -36 -11 -53 -11 -58c0 -18 4 -44 46 -44zM187 395c-80 0 -103 74 -103 126c0 19 5 49 8 64c17 82 53 123 124 123c42 0 69 -18 82 -43l30 142h93l-85 -406h-93l6 30
c-4 -9 -24 -36 -62 -36z" />
    <glyph glyph-name="e.superior" horiz-adv-x="330" 
d="M213 395c-82 0 -129 54 -129 127c0 15 4 41 8 54c19 82 54 132 150 132c82 0 129 -53 129 -127c0 -16 -6 -48 -10 -64h-188c0 -14 4 -41 46 -41c19 0 32 9 42 22h94c-21 -63 -57 -103 -142 -103zM187 590h94c0 11 -2 38 -45 38c-24 0 -41 -15 -49 -38z" />
    <glyph glyph-name="f.superior" horiz-adv-x="213" 
d="M78 401l47 219h-42l17 80h41l6 28c10 42 58 79 100 79h85l-17 -80h-55c-17 0 -23 -15 -24 -20l-1 -7h74l-17 -80h-74l-47 -219h-93z" />
    <glyph glyph-name="g.superior" horiz-adv-x="338" 
d="M224 505c31 0 42 18 50 45c5 17 5 26 5 30c0 25 -5 45 -45 45c-28 0 -45 -17 -51 -45c-2 -10 -5 -26 -5 -31c0 -25 9 -44 46 -44zM189 288c-79 0 -130 53 -130 115h90c0 -9 6 -34 46 -34c27 0 44 18 50 46l9 43c-4 -10 -26 -36 -65 -36c-80 0 -102 74 -102 126
c0 8 1 19 5 37c18 82 53 123 125 123c41 0 68 -18 81 -43l7 35h93l-59 -280c-17 -82 -54 -132 -150 -132z" />
    <glyph glyph-name="h.superior" horiz-adv-x="346" 
d="M64 401l86 406h93l-29 -135c4 10 24 36 63 36c89 0 103 -74 103 -126c0 -18 -4 -48 -8 -64l-25 -117h-93l26 123c5 23 11 47 11 53c0 26 -3 48 -45 48c-28 0 -44 -17 -50 -45l-39 -179h-93z" />
    <glyph glyph-name="i.superior" horiz-adv-x="160" 
d="M64 401l63 299h93l-63 -299h-93zM134 733l16 74h93l-16 -74h-93z" />
    <glyph glyph-name="j.superior" horiz-adv-x="159" 
d="M4 294l17 81h16c18 0 24 13 26 25l63 300h94l-69 -327c-9 -42 -39 -79 -100 -79h-47zM134 733l15 74h93l-15 -74h-93z" />
    <glyph glyph-name="k.superior" horiz-adv-x="328" 
d="M243 807l-38 -179l81 72h124l-134 -118l86 -181h-98l-57 120l-31 -29l-19 -91h-93l86 406h93z" />
    <glyph glyph-name="l.superior" horiz-adv-x="176" 
d="M193 401h-25c-60 0 -83 35 -83 80c0 39 30 164 64 326h93c-45 -208 -65 -304 -65 -312s5 -14 14 -14h18z" />
    <glyph glyph-name="m.superior" horiz-adv-x="534" 
d="M64 401l63 299h93l-6 -28c4 8 28 36 69 36c37 0 57 -19 65 -36c8 8 37 36 90 36c115 0 130 -76 130 -121c0 -20 -3 -44 -6 -60l-27 -126h-93l26 123c6 26 12 47 12 53c0 24 -4 48 -45 48c-24 0 -44 -14 -50 -41l-39 -183h-93l26 123c6 26 12 48 12 53c0 24 -4 48 -45 48
c-24 0 -44 -14 -50 -41l-39 -183h-93z" />
    <glyph glyph-name="n.superior" unicode="&#x207f;" horiz-adv-x="346" 
d="M64 401l63 299h93l-6 -28c4 10 24 36 63 36c89 0 103 -74 103 -126c0 -18 -4 -48 -8 -64l-25 -117h-93l26 123c8 37 12 50 12 54c0 24 -4 47 -46 47c-28 0 -44 -17 -50 -45l-39 -179h-93z" />
    <glyph glyph-name="o.superior" horiz-adv-x="331" 
d="M219 476c28 0 44 17 50 45c5 19 13 57 13 64c0 20 -6 43 -46 43c-28 0 -43 -18 -50 -46c-5 -18 -13 -57 -13 -63c0 -21 6 -43 46 -43zM213 395c-82 0 -129 54 -129 127c0 15 4 41 8 54c19 82 54 132 150 132c82 0 129 -53 129 -127c0 -14 -4 -40 -8 -54
c-20 -81 -54 -132 -150 -132z" />
    <glyph glyph-name="p.superior" horiz-adv-x="341" 
d="M230 478c28 0 45 18 51 46c8 37 11 51 11 58c0 18 -4 43 -46 43c-28 0 -43 -17 -50 -45c-8 -34 -12 -52 -12 -58c0 -19 4 -44 46 -44zM42 294l85 406h93l-5 -28c4 10 23 36 62 36c80 0 103 -74 103 -126c0 -18 -5 -48 -8 -64c-17 -81 -53 -123 -125 -123
c-41 0 -68 18 -81 43l-31 -144h-93z" />
    <glyph glyph-name="q.superior" horiz-adv-x="338" 
d="M218 478c28 0 44 18 50 46c7 34 11 50 11 54c0 24 -3 47 -46 47c-27 0 -44 -17 -50 -45s-11 -47 -11 -53c0 -25 4 -49 46 -49zM220 294l29 137c-4 -9 -24 -36 -62 -36c-80 0 -103 74 -103 126c0 19 5 49 8 64c17 82 53 123 124 123c42 0 69 -18 82 -43l8 35h93l-86 -406
h-93z" />
    <glyph glyph-name="r.superior" horiz-adv-x="228" 
d="M157 401h-93l63 299h93l-7 -30c3 9 24 36 63 36h39l-19 -88h-52c-28 0 -45 -17 -51 -46z" />
    <glyph glyph-name="s.superior" horiz-adv-x="284" 
d="M185 395c-72 0 -124 47 -124 99v4h90c0 -13 20 -24 44 -24c15 0 35 4 35 15s-13 12 -20 14l-43 10c-38 10 -79 38 -79 90c0 77 61 105 128 105c50 0 115 -37 115 -93v-4h-90c0 10 -17 19 -37 19c-18 0 -27 -6 -27 -14c0 -13 14 -14 17 -15l50 -12c43 -11 77 -41 77 -88
c0 -79 -50 -106 -136 -106z" />
    <glyph glyph-name="t.superior" horiz-adv-x="226" 
d="M244 401h-61c-60 0 -83 35 -83 80c0 25 12 85 24 139h-42l16 80h42l15 68h93l-15 -68h74l-16 -80h-74c-15 -70 -25 -119 -25 -125c0 -8 6 -14 14 -14h54z" />
    <glyph glyph-name="u.superior" horiz-adv-x="343" 
d="M190 395c-78 0 -100 69 -100 122c0 20 3 44 7 59l26 124h93l-25 -120c-7 -26 -11 -51 -11 -53c0 -24 4 -49 45 -49c24 0 41 18 47 46l39 176h93l-64 -299h-93l7 29c-4 -8 -28 -35 -64 -35z" />
    <glyph glyph-name="v.superior" horiz-adv-x="297" 
d="M132 401l-45 299h94l19 -164l94 164h103l-171 -299h-94z" />
    <glyph glyph-name="w.superior" horiz-adv-x="420" 
d="M107 401l-16 299h93l5 -168l71 168h83l2 -158l70 158h102l-143 -299h-87l-3 193l-83 -193h-94z" />
    <glyph glyph-name="x.superior" horiz-adv-x="309" 
d="M31 401l133 155l-66 144h97l29 -69l60 69h117l-134 -153l66 -146h-98l-28 68l-59 -68h-117z" />
    <glyph glyph-name="y.superior" horiz-adv-x="298" 
d="M47 294l16 81h37c11 0 17 6 19 11l12 21l-43 293h93l20 -159l88 159h108l-173 -304c-32 -56 -40 -102 -101 -102h-76z" />
    <glyph glyph-name="z.superior" horiz-adv-x="255" 
d="M316 620l-134 -139h108l-16 -80h-230l17 80l133 139h-100l16 80h223z" />
    <glyph glyph-name="four.superior" unicode="&#x2074;" horiz-adv-x="309" 
d="M198 401l18 84h-170l17 79l221 243h93l-52 -243h41l-15 -79h-42l-18 -84h-93zM180 564h52l18 78z" />
    <glyph glyph-name="five.superior" unicode="&#x2075;" horiz-adv-x="329" 
d="M213 395c-72 0 -129 43 -129 112v10h91c0 -3 -1 -6 -1 -7c0 -17 10 -34 44 -34c32 0 47 17 53 44c7 33 9 41 9 43c0 14 -8 27 -35 27c-24 0 -46 -9 -55 -27h-94l52 244h262l-18 -80h-169l-13 -67c10 4 22 11 53 11c46 0 108 -39 108 -106c0 -9 0 -11 -5 -37
c-18 -83 -56 -133 -153 -133z" />
    <glyph glyph-name="six.superior" unicode="&#x2076;" horiz-adv-x="331" 
d="M213 395c-72 0 -129 43 -129 112c0 36 29 163 31 173c20 84 56 133 153 133c72 0 129 -43 129 -112v-10h-90v7c0 17 -10 34 -44 34c-32 0 -48 -18 -54 -47l-6 -28c11 6 27 10 51 10c52 0 109 -38 109 -120c0 -9 -1 -27 -4 -38c-16 -60 -47 -114 -146 -114zM218 476
c32 0 47 18 53 47c3 11 5 22 5 26c0 21 -12 37 -44 37s-48 -18 -54 -47c-3 -15 -4 -25 -4 -29c0 -17 10 -34 44 -34z" />
    <glyph glyph-name="seven.superior" unicode="&#x2077;" horiz-adv-x="282" 
d="M81 401l195 326h-177l16 80h280l-17 -80l-195 -326h-102z" />
    <glyph glyph-name="eight.superior" unicode="&#x2078;" horiz-adv-x="323" 
d="M210 395c-68 0 -131 40 -131 118c0 19 5 78 58 109c-11 17 -17 38 -17 61c0 43 20 130 139 130c75 0 128 -47 128 -114c0 -30 -10 -82 -57 -110c12 -18 20 -40 20 -66c0 -27 -11 -128 -140 -128zM214 476c43 0 45 34 45 50c0 28 -17 44 -44 44c-43 0 -46 -35 -46 -51
c0 -27 17 -43 45 -43zM252 643c36 0 45 26 45 49s-12 40 -42 40c-35 0 -44 -26 -44 -49s11 -40 41 -40z" />
    <glyph glyph-name="nine.superior" unicode="&#x2079;" horiz-adv-x="331" 
d="M262 813c72 0 129 -43 129 -112c0 -36 -29 -163 -31 -173c-20 -84 -56 -133 -153 -133c-72 0 -129 43 -129 112v10h90v-7c0 -17 10 -34 44 -34c32 0 48 18 54 47l6 28c-11 -6 -27 -10 -51 -10c-52 0 -109 38 -109 120c0 9 1 27 4 38c16 60 47 114 146 114zM257 732
c-32 0 -47 -18 -53 -47c-3 -11 -5 -22 -5 -26c0 -21 12 -37 44 -37s48 18 54 47c3 15 4 25 4 29c0 17 -10 34 -44 34z" />
    <glyph glyph-name="zero.superior" unicode="&#x2070;" horiz-adv-x="336" 
d="M218 476c32 0 47 18 53 47c14 62 36 162 36 175c0 17 -10 34 -44 34c-32 0 -47 -18 -54 -47c-14 -62 -35 -162 -35 -175c0 -17 10 -34 44 -34zM213 395c-72 0 -129 43 -129 112c0 28 29 162 31 173c18 85 56 133 153 133c72 0 129 -43 129 -112c0 -28 -29 -162 -32 -173
c-19 -84 -55 -133 -152 -133z" />
    <glyph glyph-name="zero.slashed.superior" horiz-adv-x="336" 
d="M213 395c-72 0 -129 43 -129 112c0 28 29 162 31 173c18 85 56 133 153 133c72 0 129 -43 129 -112c0 -28 -29 -162 -32 -173c-19 -84 -55 -133 -152 -133zM209 685l-20 -90l117 97c1 2 1 5 1 6c0 17 -10 34 -44 34c-32 0 -47 -18 -54 -47zM218 476c32 0 47 18 53 47
l20 89l-117 -97v-5c0 -17 10 -34 44 -34z" />
    <glyph glyph-name="period.superior" horiz-adv-x="187" 
d="M69 401l23 109h109l-23 -109h-109z" />
    <glyph glyph-name="hyphen.superior" horiz-adv-x="212" 
d="M76 516l18 86h168l-18 -86h-168z" />
    <glyph glyph-name="comma.superior" horiz-adv-x="187" 
d="M69 401l23 109h109l-23 -109l-43 -72h-63l43 72h-46z" />
    <glyph glyph-name="equal.superior" unicode="&#x207c;" horiz-adv-x="330" 
d="M86 443v86h284v-86h-284zM86 592v86h284v-86h-284z" />
    <glyph glyph-name="plus.superior" unicode="&#x207a;" horiz-adv-x="330" 
d="M86 516v86h98v99h86v-99h100v-86h-100v-98h-86v98h-98z" />
    <glyph glyph-name="minus.superior" unicode="&#x207b;" horiz-adv-x="330" 
d="M86 516v86h284v-86h-284z" />
    <glyph glyph-name="parenleft.superior" unicode="&#x207d;" horiz-adv-x="186" 
d="M182 284h-14c-67 0 -93 41 -93 87c0 53 16 113 70 356c11 52 30 80 96 80h51l-18 -85h-25c-16 0 -20 -11 -22 -22c-56 -262 -66 -305 -66 -313c0 -10 5 -17 14 -17h25z" />
    <glyph glyph-name="parenright.superior" unicode="&#x207e;" horiz-adv-x="187" 
d="M67 284h-51l18 86h25c16 0 20 11 23 21c55 262 65 305 65 314s-5 17 -14 17h-25l18 85h14c67 0 93 -41 93 -86c0 -53 -17 -113 -70 -356c-12 -53 -30 -81 -96 -81z" />
    <glyph glyph-name="a.inferior" horiz-adv-x="336" 
d="M71 -103c-58 0 -101 40 -101 89c0 45 26 79 61 92c46 16 86 18 146 21c-2 11 -8 31 -46 31c-18 0 -33 -10 -42 -23h-94c21 64 57 103 142 103c82 0 129 -53 129 -127c0 -14 -5 -39 -8 -54l-27 -126h-93l7 30c-17 -22 -38 -36 -74 -36zM90 -25c37 0 68 23 75 54
c-36 0 -80 -5 -90 -9s-17 -13 -17 -24c0 -8 5 -21 32 -21z" />
    <glyph glyph-name="b.inferior" horiz-adv-x="340" 
d="M123 -20c28 0 45 18 51 46c8 36 11 48 11 53c0 25 -4 48 -46 48c-28 0 -44 -17 -50 -45c-8 -38 -11 -51 -11 -59c0 -20 5 -43 45 -43zM141 -103c-42 0 -69 18 -82 43l-8 -37h-93l85 406h93l-28 -135c4 10 24 36 62 36c80 0 103 -74 103 -126c0 -18 -5 -48 -8 -64
c-17 -81 -53 -123 -124 -123z" />
    <glyph glyph-name="c.inferior" horiz-adv-x="326" 
d="M107 -103c-82 0 -129 54 -129 127c0 15 4 41 8 54c19 82 54 132 150 132c85 0 129 -58 129 -121h-88c-2 14 -5 41 -47 41c-28 0 -44 -18 -50 -46c-7 -33 -13 -57 -13 -65c0 -16 4 -41 46 -41c26 0 41 15 48 40h94c-21 -75 -57 -121 -148 -121z" />
    <glyph glyph-name="d.inferior" horiz-adv-x="339" 
d="M112 -20c28 0 44 18 50 46c8 35 11 49 11 53c0 25 -3 48 -46 48c-27 0 -44 -17 -50 -45c-8 -36 -11 -53 -11 -58c0 -18 4 -44 46 -44zM81 -103c-80 0 -103 74 -103 126c0 19 5 49 8 64c17 82 53 123 124 123c42 0 69 -18 82 -43l30 142h93l-85 -406h-93l6 30
c-4 -9 -24 -36 -62 -36z" />
    <glyph glyph-name="e.inferior" horiz-adv-x="330" 
d="M107 -103c-82 0 -129 54 -129 127c0 15 4 41 8 54c19 82 54 132 150 132c82 0 129 -53 129 -127c0 -16 -6 -48 -10 -64h-188c0 -14 4 -41 46 -41c19 0 32 9 42 22h94c-21 -63 -57 -103 -142 -103zM81 92h94c0 11 -2 38 -45 38c-24 0 -41 -15 -49 -38z" />
    <glyph glyph-name="f.inferior" horiz-adv-x="213" 
d="M-28 -97l47 219h-42l17 80h41l6 28c10 42 58 79 100 79h85l-17 -80h-55c-17 0 -23 -15 -24 -20l-1 -7h74l-17 -80h-74l-47 -219h-93z" />
    <glyph glyph-name="g.inferior" horiz-adv-x="338" 
d="M118 7c31 0 42 18 50 45c5 17 5 26 5 30c0 25 -5 45 -45 45c-28 0 -45 -17 -51 -45c-2 -10 -5 -26 -5 -31c0 -25 9 -44 46 -44zM83 -210c-79 0 -130 53 -130 115h90c0 -9 6 -34 46 -34c27 0 44 18 50 46l9 43c-4 -10 -26 -36 -65 -36c-80 0 -102 74 -102 126
c0 8 1 19 5 37c18 82 53 123 125 123c41 0 68 -18 81 -43l7 35h93l-59 -280c-17 -82 -54 -132 -150 -132z" />
    <glyph glyph-name="h.inferior" horiz-adv-x="346" 
d="M-42 -97l86 406h93l-29 -135c4 10 24 36 63 36c89 0 103 -74 103 -126c0 -18 -4 -48 -8 -64l-25 -117h-93l26 123c5 23 11 47 11 53c0 26 -3 48 -45 48c-28 0 -44 -17 -50 -45l-39 -179h-93z" />
    <glyph glyph-name="i.inferior" horiz-adv-x="160" 
d="M-42 -97l63 299h93l-63 -299h-93zM28 235l16 74h93l-16 -74h-93z" />
    <glyph glyph-name="j.inferior" horiz-adv-x="159" 
d="M-102 -204l17 81h16c18 0 24 13 26 25l63 300h94l-69 -327c-9 -42 -39 -79 -100 -79h-47zM28 235l15 74h93l-15 -74h-93z" />
    <glyph glyph-name="k.inferior" horiz-adv-x="328" 
d="M137 309l-38 -179l81 72h124l-134 -118l86 -181h-98l-57 120l-31 -29l-19 -91h-93l86 406h93z" />
    <glyph glyph-name="l.inferior" horiz-adv-x="176" 
d="M87 -97h-25c-60 0 -83 35 -83 80c0 39 30 164 64 326h93c-45 -208 -65 -304 -65 -312s5 -14 14 -14h18z" />
    <glyph glyph-name="m.inferior" horiz-adv-x="534" 
d="M-42 -97l63 299h93l-6 -28c4 8 28 36 69 36c37 0 57 -19 65 -36c8 8 37 36 90 36c115 0 130 -76 130 -121c0 -20 -3 -44 -6 -60l-27 -126h-93l26 123c6 26 12 47 12 53c0 24 -4 48 -45 48c-24 0 -44 -14 -50 -41l-39 -183h-93l26 123c6 26 12 48 12 53c0 24 -4 48 -45 48
c-24 0 -44 -14 -50 -41l-39 -183h-93z" />
    <glyph glyph-name="n.inferior" horiz-adv-x="346" 
d="M-42 -97l63 299h93l-6 -28c4 10 24 36 63 36c89 0 103 -74 103 -126c0 -18 -4 -48 -8 -64l-25 -117h-93l26 123c8 37 12 50 12 54c0 24 -4 47 -46 47c-28 0 -44 -17 -50 -45l-39 -179h-93z" />
    <glyph glyph-name="o.inferior" horiz-adv-x="331" 
d="M113 -22c28 0 44 17 50 45c5 19 13 57 13 64c0 20 -6 43 -46 43c-28 0 -43 -18 -50 -46c-5 -18 -13 -57 -13 -63c0 -21 6 -43 46 -43zM107 -103c-82 0 -129 54 -129 127c0 15 4 41 8 54c19 82 54 132 150 132c82 0 129 -53 129 -127c0 -14 -4 -40 -8 -54
c-20 -81 -54 -132 -150 -132z" />
    <glyph glyph-name="p.inferior" horiz-adv-x="341" 
d="M124 -20c28 0 45 18 51 46c8 37 11 51 11 58c0 18 -4 43 -46 43c-28 0 -43 -17 -50 -45c-8 -34 -12 -52 -12 -58c0 -19 4 -44 46 -44zM-64 -204l85 406h93l-5 -28c4 10 23 36 62 36c80 0 103 -74 103 -126c0 -18 -5 -48 -8 -64c-17 -81 -53 -123 -125 -123
c-41 0 -68 18 -81 43l-31 -144h-93z" />
    <glyph glyph-name="q.inferior" horiz-adv-x="338" 
d="M112 -20c28 0 44 18 50 46c7 34 11 50 11 54c0 24 -3 47 -46 47c-27 0 -44 -17 -50 -45s-11 -47 -11 -53c0 -25 4 -49 46 -49zM114 -204l29 137c-4 -9 -24 -36 -62 -36c-80 0 -103 74 -103 126c0 19 5 49 8 64c17 82 53 123 124 123c42 0 69 -18 82 -43l8 35h93l-86 -406
h-93z" />
    <glyph glyph-name="r.inferior" horiz-adv-x="228" 
d="M51 -97h-93l63 299h93l-7 -30c3 9 24 36 63 36h39l-19 -88h-52c-28 0 -45 -17 -51 -46z" />
    <glyph glyph-name="s.inferior" horiz-adv-x="284" 
d="M79 -103c-72 0 -124 47 -124 99v4h90c0 -13 20 -24 44 -24c15 0 35 4 35 15s-13 12 -20 14l-43 10c-38 10 -79 38 -79 90c0 77 61 105 128 105c50 0 115 -37 115 -93v-4h-90c0 10 -17 19 -37 19c-18 0 -27 -6 -27 -14c0 -13 14 -14 17 -15l50 -12c43 -11 77 -41 77 -88
c0 -79 -50 -106 -136 -106z" />
    <glyph glyph-name="t.inferior" horiz-adv-x="226" 
d="M138 -97h-61c-60 0 -83 35 -83 80c0 25 12 85 24 139h-42l16 80h42l15 68h93l-15 -68h74l-16 -80h-74c-15 -70 -25 -119 -25 -125c0 -8 6 -14 14 -14h54z" />
    <glyph glyph-name="u.inferior" horiz-adv-x="343" 
d="M84 -103c-78 0 -100 69 -100 122c0 20 3 44 7 59l26 124h93l-25 -120c-7 -26 -11 -51 -11 -53c0 -24 4 -49 45 -49c24 0 41 18 47 46l39 176h93l-64 -299h-93l7 29c-4 -8 -28 -35 -64 -35z" />
    <glyph glyph-name="v.inferior" horiz-adv-x="297" 
d="M26 -97l-45 299h94l19 -164l94 164h103l-171 -299h-94z" />
    <glyph glyph-name="w.inferior" horiz-adv-x="420" 
d="M1 -97l-16 299h93l5 -168l71 168h83l2 -158l70 158h102l-143 -299h-87l-3 193l-83 -193h-94z" />
    <glyph glyph-name="x.inferior" horiz-adv-x="309" 
d="M-75 -97l133 155l-66 144h97l29 -69l60 69h117l-134 -153l66 -146h-98l-28 68l-59 -68h-117z" />
    <glyph glyph-name="y.inferior" horiz-adv-x="298" 
d="M-59 -204l16 81h37c11 0 17 6 19 11l12 21l-43 293h93l20 -159l88 159h108l-173 -304c-32 -56 -40 -102 -101 -102h-76z" />
    <glyph glyph-name="z.inferior" horiz-adv-x="255" 
d="M210 122l-134 -139h108l-16 -80h-230l17 80l133 139h-100l16 80h223z" />
    <glyph glyph-name="one.inferior" unicode="&#x2081;" horiz-adv-x="226" 
d="M17 -97l61 288l-92 -68l25 118l92 68h93l-86 -406h-93z" />
    <glyph glyph-name="two.inferior" unicode="&#x2082;" horiz-adv-x="321" 
d="M-60 -97l17 80l188 147c29 23 46 43 46 70c0 17 -10 34 -44 34c-44 0 -53 -33 -56 -55h-92c17 84 55 136 153 136c72 0 129 -43 129 -112c0 -55 -27 -104 -78 -143l-102 -77h138l-16 -80h-283z" />
    <glyph glyph-name="three.inferior" unicode="&#x2083;" horiz-adv-x="325" 
d="M98 -103c-78 0 -129 43 -129 112v10h91c0 -1 -1 -6 -1 -7c0 -17 10 -34 44 -34s54 27 54 50c0 22 -17 36 -45 36h-36l18 81h36c36 0 62 18 62 55c0 17 -10 34 -44 34c-29 0 -45 -14 -52 -38h-92c21 75 57 119 149 119c72 0 129 -43 129 -112c0 -49 -26 -90 -65 -106
c17 -15 25 -41 25 -66c0 -89 -58 -134 -144 -134z" />
    <glyph glyph-name="four.inferior" unicode="&#x2084;" horiz-adv-x="309" 
d="M92 -97l18 84h-170l17 79l221 243h93l-52 -243h41l-15 -79h-42l-18 -84h-93zM74 66h52l18 78z" />
    <glyph glyph-name="five.inferior" unicode="&#x2085;" horiz-adv-x="329" 
d="M107 -103c-72 0 -129 43 -129 112v10h91c0 -3 -1 -6 -1 -7c0 -17 10 -34 44 -34c32 0 47 17 53 44c7 33 9 41 9 43c0 14 -8 27 -35 27c-24 0 -46 -9 -55 -27h-94l52 244h262l-18 -80h-169l-13 -67c10 4 22 11 53 11c46 0 108 -39 108 -106c0 -9 0 -11 -5 -37
c-18 -83 -56 -133 -153 -133z" />
    <glyph glyph-name="six.inferior" unicode="&#x2086;" horiz-adv-x="331" 
d="M107 -103c-72 0 -129 43 -129 112c0 36 29 163 31 173c20 84 56 133 153 133c72 0 129 -43 129 -112v-10h-90v7c0 17 -10 34 -44 34c-32 0 -48 -18 -54 -47l-6 -28c11 6 27 10 51 10c52 0 109 -38 109 -120c0 -9 -1 -27 -4 -38c-16 -60 -47 -114 -146 -114zM112 -22
c32 0 47 18 53 47c3 11 5 22 5 26c0 21 -12 37 -44 37s-48 -18 -54 -47c-3 -15 -4 -25 -4 -29c0 -17 10 -34 44 -34z" />
    <glyph glyph-name="seven.inferior" unicode="&#x2087;" horiz-adv-x="282" 
d="M-25 -97l195 326h-177l16 80h280l-17 -80l-195 -326h-102z" />
    <glyph glyph-name="eight.inferior" unicode="&#x2088;" horiz-adv-x="323" 
d="M104 -103c-68 0 -131 40 -131 118c0 19 5 78 58 109c-11 17 -17 38 -17 61c0 43 20 130 139 130c75 0 128 -47 128 -114c0 -30 -10 -82 -57 -110c12 -18 20 -40 20 -66c0 -27 -11 -128 -140 -128zM108 -22c43 0 45 34 45 50c0 28 -17 44 -44 44c-43 0 -46 -35 -46 -51
c0 -27 17 -43 45 -43zM146 145c36 0 45 26 45 49s-12 40 -42 40c-35 0 -44 -26 -44 -49s11 -40 41 -40z" />
    <glyph glyph-name="nine.inferior" unicode="&#x2089;" horiz-adv-x="331" 
d="M156 315c72 0 129 -43 129 -112c0 -36 -29 -163 -31 -173c-20 -84 -56 -133 -153 -133c-72 0 -129 43 -129 112v10h90v-7c0 -17 10 -34 44 -34c32 0 48 18 54 47l6 28c-11 -6 -27 -10 -51 -10c-52 0 -109 38 -109 120c0 9 1 27 4 38c16 60 47 114 146 114zM151 234
c-32 0 -47 -18 -53 -47c-3 -11 -5 -22 -5 -26c0 -21 12 -37 44 -37s48 18 54 47c3 15 4 25 4 29c0 17 -10 34 -44 34z" />
    <glyph glyph-name="zero.inferior" unicode="&#x2080;" horiz-adv-x="336" 
d="M112 -22c32 0 47 18 53 47c14 62 36 162 36 175c0 17 -10 34 -44 34c-32 0 -47 -18 -54 -47c-14 -62 -35 -162 -35 -175c0 -17 10 -34 44 -34zM107 -103c-72 0 -129 43 -129 112c0 28 29 162 31 173c18 85 56 133 153 133c72 0 129 -43 129 -112c0 -28 -29 -162 -32 -173
c-19 -84 -55 -133 -152 -133z" />
    <glyph glyph-name="zero.slashed.inferior" horiz-adv-x="336" 
d="M107 -103c-72 0 -129 43 -129 112c0 28 29 162 31 173c18 85 56 133 153 133c72 0 129 -43 129 -112c0 -28 -29 -162 -32 -173c-19 -84 -55 -133 -152 -133zM103 187l-20 -90l117 97c1 2 1 5 1 6c0 17 -10 34 -44 34c-32 0 -47 -18 -54 -47zM112 -22c32 0 47 18 53 47
l20 89l-117 -97v-5c0 -17 10 -34 44 -34z" />
    <glyph glyph-name="period.inferior" horiz-adv-x="187" 
d="M-37 -97l23 109h109l-23 -109h-109z" />
    <glyph glyph-name="hyphen.inferior" horiz-adv-x="212" 
d="M-30 18l18 86h168l-18 -86h-168z" />
    <glyph glyph-name="comma.inferior" horiz-adv-x="187" 
d="M-37 -97l23 109h109l-23 -109l-43 -72h-63l43 72h-46z" />
    <glyph glyph-name="equal.inferior" horiz-adv-x="330" 
d="M-20 -55v86h284v-86h-284zM-20 94v86h284v-86h-284z" />
    <glyph glyph-name="plus.inferior" horiz-adv-x="330" 
d="M-20 18v86h98v99h86v-99h100v-86h-100v-98h-86v98h-98z" />
    <glyph glyph-name="minus.inferior" horiz-adv-x="330" 
d="M-20 18v86h284v-86h-284z" />
    <glyph glyph-name="parenleft.inferior" unicode="&#x208d;" horiz-adv-x="186" 
d="M76 -214h-14c-67 0 -93 41 -93 87c0 53 16 113 70 356c11 52 30 80 96 80h51l-18 -85h-25c-16 0 -20 -11 -22 -22c-56 -262 -66 -305 -66 -313c0 -10 5 -17 14 -17h25z" />
    <glyph glyph-name="parenright.inferior" unicode="&#x208e;" horiz-adv-x="187" 
d="M-39 -214h-51l18 86h25c16 0 20 11 23 21c55 262 65 305 65 314s-5 17 -14 17h-25l18 85h14c67 0 93 -41 93 -86c0 -53 -17 -113 -70 -356c-12 -53 -30 -81 -96 -81z" />
    <glyph glyph-name="one.numerator" horiz-adv-x="266" 
d="M120 294l61 288l-92 -68l25 118l92 68h93l-86 -406h-93z" />
    <glyph glyph-name="two.numerator" horiz-adv-x="367" 
d="M44 294l17 80l188 147c29 23 46 43 46 70c0 17 -10 34 -44 34c-44 0 -53 -33 -56 -55h-92c17 84 55 136 153 136c72 0 129 -43 129 -112c0 -55 -27 -104 -78 -143l-102 -77h138l-16 -80h-283z" />
    <glyph glyph-name="three.numerator" horiz-adv-x="365" 
d="M202 288c-78 0 -129 43 -129 112v10h91c0 -1 -1 -6 -1 -7c0 -17 10 -34 44 -34s54 27 54 50c0 22 -17 36 -45 36h-36l18 81h36c36 0 62 18 62 55c0 17 -10 34 -44 34c-29 0 -45 -14 -52 -38h-92c21 75 57 119 149 119c72 0 129 -43 129 -112c0 -49 -26 -90 -65 -106
c17 -15 25 -41 25 -66c0 -89 -58 -134 -144 -134z" />
    <glyph glyph-name="four.numerator" horiz-adv-x="319" 
d="M166 294l18 84h-170l17 79l221 243h93l-52 -243h41l-15 -79h-42l-18 -84h-93zM148 457h52l18 78z" />
    <glyph glyph-name="five.numerator" horiz-adv-x="366" 
d="M211 288c-72 0 -129 43 -129 112v10h91c0 -3 -1 -6 -1 -7c0 -17 10 -34 44 -34c32 0 47 17 53 44c7 33 9 41 9 43c0 14 -8 27 -35 27c-24 0 -46 -9 -55 -27h-94l52 244h262l-18 -80h-169l-13 -67c10 4 22 11 53 11c46 0 108 -39 108 -106c0 -9 0 -11 -5 -37
c-18 -83 -56 -133 -153 -133z" />
    <glyph glyph-name="six.numerator" horiz-adv-x="361" 
d="M206 288c-72 0 -129 43 -129 112c0 36 29 163 31 173c20 84 56 133 153 133c72 0 129 -43 129 -112v-10h-90v7c0 17 -10 34 -44 34c-32 0 -48 -18 -54 -47l-6 -28c11 6 27 10 51 10c52 0 109 -38 109 -120c0 -9 -1 -27 -4 -38c-16 -60 -47 -114 -146 -114zM211 369
c32 0 47 18 53 47c3 11 5 22 5 26c0 21 -12 37 -44 37s-48 -18 -54 -47c-3 -15 -4 -25 -4 -29c0 -17 10 -34 44 -34z" />
    <glyph glyph-name="seven.numerator" horiz-adv-x="292" 
d="M79 294l195 326h-177l16 80h280l-17 -80l-195 -326h-102z" />
    <glyph glyph-name="eight.numerator" horiz-adv-x="333" 
d="M193 288c-68 0 -131 40 -131 118c0 19 5 78 58 109c-11 17 -17 38 -17 61c0 43 20 130 139 130c75 0 128 -47 128 -114c0 -30 -10 -82 -57 -110c12 -18 20 -40 20 -66c0 -27 -11 -128 -140 -128zM197 369c43 0 45 34 45 50c0 28 -17 44 -44 44c-43 0 -46 -35 -46 -51
c0 -27 17 -43 45 -43zM235 536c36 0 45 26 45 49s-12 40 -42 40c-35 0 -44 -26 -44 -49s11 -40 41 -40z" />
    <glyph glyph-name="nine.numerator" horiz-adv-x="361" 
d="M255 706c72 0 129 -43 129 -112c0 -36 -29 -163 -31 -173c-20 -84 -56 -133 -153 -133c-72 0 -129 43 -129 112v10h90v-7c0 -17 10 -34 44 -34c32 0 48 18 54 47l6 28c-11 -6 -27 -10 -51 -10c-52 0 -109 38 -109 120c0 9 1 27 4 38c16 60 47 114 146 114zM250 625
c-32 0 -47 -18 -53 -47c-3 -11 -5 -22 -5 -26c0 -21 12 -37 44 -37s48 18 54 47c3 15 4 25 4 29c0 17 -10 34 -44 34z" />
    <glyph glyph-name="zero.numerator" horiz-adv-x="366" 
d="M211 369c32 0 47 18 53 47c14 62 36 162 36 175c0 17 -10 34 -44 34c-32 0 -47 -18 -54 -47c-14 -62 -35 -162 -35 -175c0 -17 10 -34 44 -34zM206 288c-72 0 -129 43 -129 112c0 28 29 162 31 173c18 85 56 133 153 133c72 0 129 -43 129 -112c0 -28 -29 -162 -32 -173
c-19 -84 -55 -133 -152 -133z" />
    <glyph glyph-name="zero.slashed.numerator" horiz-adv-x="366" 
d="M206 288c-72 0 -129 43 -129 112c0 28 29 162 31 173c18 85 56 133 153 133c72 0 129 -43 129 -112c0 -28 -29 -162 -32 -173c-19 -84 -55 -133 -152 -133zM202 578l-20 -90l117 97c1 2 1 5 1 6c0 17 -10 34 -44 34c-32 0 -47 -18 -54 -47zM211 369c32 0 47 18 53 47
l20 89l-117 -97v-5c0 -17 10 -34 44 -34z" />
    <glyph glyph-name="one.denominator" horiz-adv-x="266" 
d="M58 0l61 288l-92 -68l25 118l92 68h93l-86 -406h-93z" />
    <glyph glyph-name="two.denominator" horiz-adv-x="367" 
d="M-18 0l17 80l188 147c29 23 46 43 46 70c0 17 -10 34 -44 34c-44 0 -53 -33 -56 -55h-92c17 84 55 136 153 136c72 0 129 -43 129 -112c0 -55 -27 -104 -78 -143l-102 -77h138l-16 -80h-283z" />
    <glyph glyph-name="three.denominator" horiz-adv-x="365" 
d="M139 -6c-78 0 -129 43 -129 112v10h91c0 -1 -1 -6 -1 -7c0 -17 10 -34 44 -34s54 27 54 50c0 22 -17 36 -45 36h-36l18 81h36c36 0 62 18 62 55c0 17 -10 34 -44 34c-29 0 -45 -14 -52 -38h-92c21 75 57 119 149 119c72 0 129 -43 129 -112c0 -49 -26 -90 -65 -106
c17 -15 25 -41 25 -66c0 -89 -58 -134 -144 -134z" />
    <glyph glyph-name="four.denominator" horiz-adv-x="319" 
d="M104 0l18 84h-170l17 79l221 243h93l-52 -243h41l-15 -79h-42l-18 -84h-93zM86 163h52l18 78z" />
    <glyph glyph-name="five.denominator" horiz-adv-x="366" 
d="M149 -6c-72 0 -129 43 -129 112v10h91c0 -3 -1 -6 -1 -7c0 -17 10 -34 44 -34c32 0 47 17 53 44c7 33 9 41 9 43c0 14 -8 27 -35 27c-24 0 -46 -9 -55 -27h-94l52 244h262l-18 -80h-169l-13 -67c10 4 22 11 53 11c46 0 108 -39 108 -106c0 -9 0 -11 -5 -37
c-18 -83 -56 -133 -153 -133z" />
    <glyph glyph-name="six.denominator" horiz-adv-x="361" 
d="M143 -6c-72 0 -129 43 -129 112c0 36 29 163 31 173c20 84 56 133 153 133c72 0 129 -43 129 -112v-10h-90v7c0 17 -10 34 -44 34c-32 0 -48 -18 -54 -47l-6 -28c11 6 27 10 51 10c52 0 109 -38 109 -120c0 -9 -1 -27 -4 -38c-16 -60 -47 -114 -146 -114zM148 75
c32 0 47 18 53 47c3 11 5 22 5 26c0 21 -12 37 -44 37s-48 -18 -54 -47c-3 -15 -4 -25 -4 -29c0 -17 10 -34 44 -34z" />
    <glyph glyph-name="seven.denominator" horiz-adv-x="292" 
d="M16 0l195 326h-177l16 80h280l-17 -80l-195 -326h-102z" />
    <glyph glyph-name="eight.denominator" horiz-adv-x="333" 
d="M131 -6c-68 0 -131 40 -131 118c0 19 5 78 58 109c-11 17 -17 38 -17 61c0 43 20 130 139 130c75 0 128 -47 128 -114c0 -30 -10 -82 -57 -110c12 -18 20 -40 20 -66c0 -27 -11 -128 -140 -128zM135 75c43 0 45 34 45 50c0 28 -17 44 -44 44c-43 0 -46 -35 -46 -51
c0 -27 17 -43 45 -43zM173 242c36 0 45 26 45 49s-12 40 -42 40c-35 0 -44 -26 -44 -49s11 -40 41 -40z" />
    <glyph glyph-name="nine.denominator" horiz-adv-x="361" 
d="M192 412c72 0 129 -43 129 -112c0 -36 -29 -163 -31 -173c-20 -84 -56 -133 -153 -133c-72 0 -129 43 -129 112v10h90v-7c0 -17 10 -34 44 -34c32 0 48 18 54 47l6 28c-11 -6 -27 -10 -51 -10c-52 0 -109 38 -109 120c0 9 1 27 4 38c16 60 47 114 146 114zM187 331
c-32 0 -47 -18 -53 -47c-3 -11 -5 -22 -5 -26c0 -21 12 -37 44 -37s48 18 54 47c3 15 4 25 4 29c0 17 -10 34 -44 34z" />
    <glyph glyph-name="zero.denominator" horiz-adv-x="366" 
d="M148 75c32 0 47 18 53 47c14 62 36 162 36 175c0 17 -10 34 -44 34c-32 0 -47 -18 -54 -47c-14 -62 -35 -162 -35 -175c0 -17 10 -34 44 -34zM143 -6c-72 0 -129 43 -129 112c0 28 29 162 31 173c18 85 56 133 153 133c72 0 129 -43 129 -112c0 -28 -29 -162 -32 -173
c-19 -84 -55 -133 -152 -133z" />
    <glyph glyph-name="zero.slashed.denominator" horiz-adv-x="366" 
d="M143 -6c-72 0 -129 43 -129 112c0 28 29 162 31 173c18 85 56 133 153 133c72 0 129 -43 129 -112c0 -28 -29 -162 -32 -173c-19 -84 -55 -133 -152 -133zM139 284l-20 -90l117 97c1 2 1 5 1 6c0 17 -10 34 -44 34c-32 0 -47 -18 -54 -47zM148 75c32 0 47 18 53 47l20 89
l-117 -97v-5c0 -17 10 -34 44 -34z" />
    <glyph glyph-name="ampersand.case" horiz-adv-x="624" 
d="M227 0c-123 0 -202 96 -202 186c0 77 29 147 117 193c-32 28 -52 76 -52 118c0 134 98 203 264 203h110l-25 -130h-101c-93 0 -118 -37 -118 -78c0 -36 29 -78 87 -78h95l17 80h135l-17 -80h120l-25 -131h-123l-59 -283h-223zM230 130h111l33 153h-97
c-55 0 -122 -18 -122 -80c0 -40 27 -73 75 -73z" />
    <glyph glyph-name="hyphen.case" horiz-adv-x="379" 
d="M73 392h290l-25 -120h-290z" />
    <glyph glyph-name="endash.case" horiz-adv-x="549" 
d="M73 392h460l-25 -120h-460z" />
    <glyph glyph-name="emdash.case" horiz-adv-x="865" 
d="M73 392h776l-25 -120h-776z" />
    <glyph glyph-name="question.case" horiz-adv-x="539" 
d="M213 500h-133c34 133 100 210 251 210c123 0 207 -76 207 -189c0 -94 -33 -150 -105 -211l-62 -46c-31 -23 -47 -27 -55 -54h-134l5 22c12 54 28 85 88 129l62 46c53 46 71 66 71 101c0 41 -24 72 -87 72c-56 0 -95 -26 -108 -80zM123 0l34 160h160l-34 -160h-160z" />
    <glyph glyph-name="questiondown.case" horiz-adv-x="539" 
d="M357 200h133c-34 -133 -100 -210 -251 -210c-123 0 -207 76 -207 189c0 94 33 150 105 211l62 46c31 23 47 27 55 54h134l-5 -22c-12 -54 -28 -85 -88 -129l-62 -46c-53 -46 -71 -66 -71 -101c0 -41 24 -72 87 -72c56 0 95 26 108 80zM447 700l-34 -160h-160l34 160h160z
" />
    <glyph glyph-name="exclam.case" horiz-adv-x="310" 
d="M316 700l-104 -490h-134l104 490h134zM19 0l35 160h160l-35 -160h-160z" />
    <glyph glyph-name="exclamdown.case" horiz-adv-x="310" 
d="M33 0l104 490h134l-104 -490h-134zM330 700l-35 -160h-160l35 160h160z" />
    <glyph glyph-name="guilsinglleft.case" horiz-adv-x="279" 
d="M193 118l-144 155l25 114l210 155l-38 -176l-69 -51l47 -51z" />
    <glyph glyph-name="guilsinglright.case" horiz-adv-x="279" 
d="M115 542l144 -155l-25 -114l-210 -155l38 176l69 51l-47 51z" />
    <glyph glyph-name="guillemotleft.case" horiz-adv-x="496" 
d="M193 118l-144 155l25 114l210 155l-38 -176l-69 -51l47 -51zM410 118l-144 155l25 114l210 155l-38 -176l-69 -51l47 -51z" />
    <glyph glyph-name="guillemotright.case" horiz-adv-x="496" 
d="M115 542l144 -155l-25 -114l-210 -155l38 176l69 51l-47 51zM332 542l144 -155l-25 -114l-210 -155l38 176l69 51l-47 51z" />
    <glyph glyph-name="parenleft.case" horiz-adv-x="309" 
d="M269 540c-27 -129 -82 -375 -82 -390c0 -19 11 -31 31 -31h36l-26 -119h-21c-99 0 -140 59 -140 130c0 68 51 251 86 438c18 94 48 132 160 132h64l-26 -119h-36c-32 0 -41 -17 -46 -41z" />
    <glyph glyph-name="parenright.case" horiz-adv-x="308" 
d="M80 160c27 129 82 375 82 390c0 19 -11 31 -31 31h-36l26 119h21c99 0 140 -59 140 -130c0 -68 -51 -251 -86 -438c-18 -94 -48 -132 -160 -132h-64l26 119h36c32 0 41 17 46 41z" />
    <glyph glyph-name="bracketleft.case" horiz-adv-x="309" 
d="M276 581l-97 -462h74l-26 -119h-195l148 700h196l-26 -119h-74z" />
    <glyph glyph-name="bracketright.case" horiz-adv-x="310" 
d="M72 119l97 462h-74l26 119h195l-148 -700h-196l26 119h74z" />
    <glyph glyph-name="braceleft.case" horiz-adv-x="342" 
d="M99 130c0 66 20 111 20 135c0 15 -7 24 -31 24h-36l25 122h36c32 0 42 17 47 41c13 59 9 38 25 116c19 93 48 132 160 132h64l-26 -119h-36c-32 0 -41 -17 -46 -41c-17 -84 -14 -61 -25 -119c-9 -46 -22 -64 -52 -79c12 -10 21 -24 21 -50c0 -30 -26 -119 -26 -142
c0 -19 11 -31 31 -31h36l-26 -119h-21c-99 0 -140 59 -140 130z" />
    <glyph glyph-name="braceright.case" horiz-adv-x="343" 
d="M282 570c0 -66 -20 -111 -20 -135c0 -15 7 -24 31 -24h36l-25 -122h-36c-32 0 -42 -17 -47 -41c-13 -59 -9 -38 -25 -116c-19 -93 -48 -132 -160 -132h-64l26 119h36c32 0 41 17 46 41c17 84 14 61 25 119c9 46 22 64 52 79c-12 10 -21 24 -21 50c0 30 26 119 26 142
c0 19 -11 31 -31 31h-36l26 119h21c99 0 140 -59 140 -130z" />
    <glyph glyph-name="bar.case" horiz-adv-x="262" 
d="M211 700v-700h-122v700h122z" />
    <glyph glyph-name="brokenbar.case" horiz-adv-x="262" 
d="M89 0v289h122v-289h-122zM89 411v289h122v-289h-122z" />
    <glyph glyph-name="periodcentered.case" horiz-adv-x="319" 
d="M80 262l35 160h160l-35 -160h-160z" />
    <glyph glyph-name="at.case" horiz-adv-x="946" 
d="M253 235c0 75 26 120 98 154c51 24 154 32 232 38c-9 47 -42 76 -96 76c-46 0 -78 -22 -91 -57h-133c21 108 98 176 224 176c148 0 230 -94 230 -237v-148c0 -25 13 -34 30 -34s31 9 31 34v163c0 178 -104 281 -291 281s-291 -103 -291 -281v-100
c0 -178 104 -281 291 -281c73 0 133 16 179 45l60 -110c-68 -39 -150 -56 -239 -56c-226 0 -413 112 -413 405v94c0 293 187 405 413 405s413 -112 413 -405v-179c0 -78 -60 -136 -153 -136c-83 0 -131 23 -162 59c-26 -37 -77 -59 -141 -59c-121 0 -191 58 -191 153z
M413 294c-22 -11 -28 -22 -28 -44c0 -25 19 -52 78 -52c68 0 122 38 122 103v17c-75 -5 -147 -11 -172 -24z" />
    <glyph glyph-name="plus.case" 
d="M354 562v-170h170v-120h-170v-170h-120v170h-170v120h170v170h120z" />
    <glyph glyph-name="minus.case" 
d="M64 392h460v-120h-460v120z" />
    <glyph glyph-name="divide.case" 
d="M221 506c0 40 33 72 73 72s72 -32 72 -72s-32 -73 -72 -73s-73 33 -73 73zM221 159c0 40 33 72 73 72s72 -32 72 -72s-32 -73 -72 -73s-73 33 -73 73zM64 392h460v-120h-460v120z" />
    <glyph glyph-name="multiply.case" 
d="M523 476l-144 -144l144 -143l-85 -85l-144 143l-143 -143l-85 85l143 143l-143 144l85 85l143 -144l144 144z" />
    <glyph glyph-name="equal.case" 
d="M524 392h-460v120h460v-120zM64 272h460v-120h-460v120z" />
    <glyph glyph-name="plusminus.case" 
d="M234 337h-170v120h170v116h120v-116h170v-120h-170v-116h-120v116zM64 177h460v-120h-460v120z" />
    <glyph glyph-name="less.case" 
d="M213 316l311 -133v-131l-460 197v134l460 197v-131z" />
    <glyph glyph-name="greater.case" 
d="M64 183l311 133l-311 133v131l460 -197v-134l-460 -197v131z" />
    <glyph glyph-name="lessequal.case" 
d="M524 208l-460 119v134l460 119v-125l-237 -61l237 -61v-125zM64 177h460v-120h-460v120z" />
    <glyph glyph-name="greaterequal.case" 
d="M524 327l-460 -119v125l237 61l-237 61v125l460 -119v-134zM64 177h460v-120h-460v120z" />
    <glyph glyph-name="notequal.case" 
d="M64 272h122l76 120h-198v120h274l87 136l99 -63l-47 -73h47v-120h-123l-76 -120h199v-120h-275l-86 -135l-99 63l46 72h-46v120z" />
    <glyph glyph-name="acute.case" horiz-adv-x="338" 
d="M241 854h174l-128 -109h-121z" />
    <glyph glyph-name="breve.case" horiz-adv-x="420" 
d="M382 830c13 0 26 11 29 24h101c-13 -61 -72 -109 -133 -109h-132c-61 0 -100 48 -87 109h89c-3 -13 6 -24 19 -24h114z" />
    <glyph glyph-name="caron.case" horiz-adv-x="458" 
d="M301 854l37 -35l51 35h152l-154 -109h-110l-108 109h132z" />
    <glyph glyph-name="cedilla.case" horiz-adv-x="272" 
d="M-45 -158l52 158h118l-38 -158h-132z" />
    <glyph glyph-name="circumflex.case" horiz-adv-x="458" 
d="M386 745l-37 35l-51 -35h-152l154 109h110l108 -109h-132z" />
    <glyph glyph-name="dieresis.case" horiz-adv-x="434" 
d="M313 858l-25 -117h-134l25 117h134zM509 858l-25 -117h-134l25 117h134z" />
    <glyph glyph-name="dotaccent.case" horiz-adv-x="212" 
d="M300 858l-25 -117h-134l25 117h134z" />
    <glyph glyph-name="grave.case" horiz-adv-x="338" 
d="M169 854h169l52 -109h-116z" />
    <glyph glyph-name="hungarumlaut.case" horiz-adv-x="516" 
d="M232 854h169l-118 -109h-116zM424 854h169l-118 -109h-116z" />
    <glyph glyph-name="macron.case" horiz-adv-x="439" 
d="M175 853h341l-23 -106h-341z" />
    <glyph glyph-name="ogonek.case" horiz-adv-x="271" 
d="M51 0h130c-55 -33 -97 -54 -97 -79c0 -11 9 -15 23 -15c20 0 44 9 57 15l-20 -92c-19 -10 -50 -18 -85 -18c-55 0 -116 29 -116 88c0 47 44 81 108 101z" />
    <glyph glyph-name="ring.case" horiz-adv-x="215" 
d="M148 799c0 41 33 75 74 75s75 -34 75 -75s-34 -74 -75 -74s-74 33 -74 74zM204 799c0 -10 8 -18 18 -18s18 8 18 18s-8 18 -18 18s-18 -8 -18 -18z" />
    <glyph glyph-name="tilde.case" horiz-adv-x="453" 
d="M418 864h104c-13 -70 -51 -130 -119 -130c-24 0 -39 3 -61 14l-27 13c-7 3 -13 4 -18 4c-14 0 -25 -10 -32 -29h-104c13 70 51 130 119 130c24 0 39 -3 61 -14l27 -13c7 -3 13 -4 18 -4c14 0 25 10 32 29z" />
    <glyph glyph-name="at.case.ss01" horiz-adv-x="946" 
d="M697 608v-371c0 -25 23 -34 40 -34s41 9 41 34v163c0 178 -104 281 -291 281s-291 -103 -291 -281v-100c0 -178 104 -281 291 -281c73 0 133 16 179 45l60 -110c-68 -39 -150 -56 -239 -56c-226 0 -413 112 -413 405v94c0 293 187 405 413 405s413 -112 413 -405v-179
c0 -78 -70 -136 -163 -136c-83 0 -141 23 -172 59c-23 -35 -75 -59 -121 -59c-105 0 -207 72 -207 224v92c0 152 102 224 207 224c46 0 98 -24 121 -59v45h132zM369 393v-82c0 -70 48 -100 98 -100s98 30 98 100v82c0 70 -48 100 -98 100s-98 -30 -98 -100z" />
    <glyph glyph-name="a.ss01" horiz-adv-x="562" 
d="M316 0l11 53c-12 -22 -51 -63 -118 -63c-119 0 -174 103 -174 194c0 33 13 97 21 137c30 143 99 209 220 209c68 0 114 -31 136 -74l13 60h132l-109 -516h-132zM359 205c19 89 24 111 24 121c0 49 -22 85 -88 85c-58 0 -96 -35 -109 -96c-19 -89 -24 -111 -24 -121
c0 -49 22 -85 88 -85c58 0 96 35 109 96z" />
    <glyph glyph-name="aacute.ss01" horiz-adv-x="562" 
d="M316 0l11 53c-12 -22 -51 -63 -118 -63c-119 0 -174 103 -174 194c0 33 13 97 21 137c30 143 99 209 220 209c68 0 114 -31 136 -74l13 60h132l-109 -516h-132zM359 205c19 89 24 111 24 121c0 49 -22 85 -88 85c-58 0 -96 -35 -109 -96c-19 -89 -24 -111 -24 -121
c0 -49 22 -85 88 -85c58 0 96 35 109 96zM322 700h172l-118 -129h-114z" />
    <glyph glyph-name="abreve.ss01" horiz-adv-x="562" 
d="M316 0l11 53c-12 -22 -51 -63 -118 -63c-119 0 -174 103 -174 194c0 33 13 97 21 137c30 143 99 209 220 209c68 0 114 -31 136 -74l13 60h132l-109 -516h-132zM359 205c19 89 24 111 24 121c0 49 -22 85 -88 85c-58 0 -96 -35 -109 -96c-19 -89 -24 -111 -24 -121
c0 -49 22 -85 88 -85c58 0 96 35 109 96zM307 571c-62 0 -105 45 -105 103c0 9 1 17 3 26h87c-1 -4 -1 -9 -1 -10c0 -14 12 -26 30 -26h94c20 0 39 16 43 36h99c-15 -71 -85 -129 -156 -129h-94z" />
    <glyph glyph-name="acircumflex.ss01" horiz-adv-x="562" 
d="M316 0l11 53c-12 -22 -51 -63 -118 -63c-119 0 -174 103 -174 194c0 33 13 97 21 137c30 143 99 209 220 209c68 0 114 -31 136 -74l13 60h132l-109 -516h-132zM359 205c19 89 24 111 24 121c0 49 -22 85 -88 85c-58 0 -96 -35 -109 -96c-19 -89 -24 -111 -24 -121
c0 -49 22 -85 88 -85c58 0 96 35 109 96zM426 700l99 -129h-128l-39 45l-58 -45h-147l153 129h120z" />
    <glyph glyph-name="adieresis.ss01" horiz-adv-x="562" 
d="M316 0l11 53c-12 -22 -51 -63 -118 -63c-119 0 -174 103 -174 194c0 33 13 97 21 137c30 143 99 209 220 209c68 0 114 -31 136 -74l13 60h132l-109 -516h-132zM359 205c19 89 24 111 24 121c0 49 -22 85 -88 85c-58 0 -96 -35 -109 -96c-19 -89 -24 -111 -24 -121
c0 -49 22 -85 88 -85c58 0 96 35 109 96zM333 694l-25 -117h-132l25 117h132zM529 694l-25 -117h-132l25 117h132z" />
    <glyph glyph-name="agrave.ss01" horiz-adv-x="562" 
d="M316 0l11 53c-12 -22 -51 -63 -118 -63c-119 0 -174 103 -174 194c0 33 13 97 21 137c30 143 99 209 220 209c68 0 114 -31 136 -74l13 60h132l-109 -516h-132zM359 205c19 89 24 111 24 121c0 49 -22 85 -88 85c-58 0 -96 -35 -109 -96c-19 -89 -24 -111 -24 -121
c0 -49 22 -85 88 -85c58 0 96 35 109 96zM199 700h167l33 -129h-109z" />
    <glyph glyph-name="amacron.ss01" horiz-adv-x="562" 
d="M316 0l11 53c-12 -22 -51 -63 -118 -63c-119 0 -174 103 -174 194c0 33 13 97 21 137c30 143 99 209 220 209c68 0 114 -31 136 -74l13 60h132l-109 -516h-132zM359 205c19 89 24 111 24 121c0 49 -22 85 -88 85c-58 0 -96 -35 -109 -96c-19 -89 -24 -111 -24 -121
c0 -49 22 -85 88 -85c58 0 96 35 109 96zM210 688h341l-23 -104h-341z" />
    <glyph glyph-name="aogonek.ss01" horiz-adv-x="562" 
d="M316 0l11 53c-12 -22 -51 -63 -118 -63c-119 0 -174 103 -174 194c0 33 13 97 21 137c30 143 99 209 220 209c68 0 114 -31 136 -74l13 60h132l-109 -516c-55 -33 -99 -54 -99 -79c0 -11 9 -17 25 -17c20 0 44 11 57 17l-20 -92c-19 -10 -50 -18 -85 -18
c-55 0 -116 29 -116 88c0 47 42 81 106 101zM359 205c19 89 24 111 24 121c0 49 -22 85 -88 85c-58 0 -96 -35 -109 -96c-19 -89 -24 -111 -24 -121c0 -49 22 -85 88 -85c58 0 96 35 109 96z" />
    <glyph glyph-name="aring.ss01" horiz-adv-x="562" 
d="M316 0l11 53c-12 -22 -51 -63 -118 -63c-119 0 -174 103 -174 194c0 33 13 97 21 137c30 143 99 209 220 209c68 0 114 -31 136 -74l13 60h132l-109 -516h-132zM359 205c19 89 24 111 24 121c0 49 -22 85 -88 85c-58 0 -96 -35 -109 -96c-19 -89 -24 -111 -24 -121
c0 -49 22 -85 88 -85c58 0 96 35 109 96zM278 635c0 41 33 75 74 75s75 -34 75 -75s-34 -74 -75 -74s-74 33 -74 74zM332 635c0 -11 9 -20 20 -20s20 9 20 20s-9 20 -20 20s-20 -9 -20 -20z" />
    <glyph glyph-name="atilde.ss01" horiz-adv-x="562" 
d="M316 0l11 53c-12 -22 -51 -63 -118 -63c-119 0 -174 103 -174 194c0 33 13 97 21 137c30 143 99 209 220 209c68 0 114 -31 136 -74l13 60h132l-109 -516h-132zM359 205c19 89 24 111 24 121c0 49 -22 85 -88 85c-58 0 -96 -35 -109 -96c-19 -89 -24 -111 -24 -121
c0 -49 22 -85 88 -85c58 0 96 35 109 96zM269 572h-97c13 70 51 130 119 130c24 0 39 -4 61 -15l27 -13c7 -3 14 -5 24 -5s25 8 32 31h98c-13 -70 -51 -130 -119 -130c-24 0 -39 4 -61 15l-27 13c-7 3 -14 5 -24 5s-25 -8 -33 -31z" />
    <glyph glyph-name="at.ss01" horiz-adv-x="936" 
d="M678 516v-371c0 -25 23 -34 40 -34s41 9 41 34v163c0 178 -104 281 -291 281s-291 -103 -291 -281v-100c0 -178 104 -281 291 -281c73 0 133 16 179 45l60 -110c-68 -39 -150 -56 -239 -56c-226 0 -413 112 -413 405v94c0 293 187 405 413 405s413 -112 413 -405v-179
c0 -78 -70 -136 -163 -136c-83 0 -141 23 -172 59c-23 -35 -75 -59 -121 -59c-105 0 -207 72 -207 224v92c0 152 102 224 207 224c46 0 98 -24 121 -59v45h132zM350 301v-82c0 -70 48 -100 98 -100s98 30 98 100v82c0 70 -48 100 -98 100s-98 -30 -98 -100z" />
    <glyph glyph-name="l.ss02" horiz-adv-x="252" 
d="M137 0h-132l149 700h132z" />
    <glyph glyph-name="lacute.ss02" horiz-adv-x="252" 
d="M137 0h-132l149 700h132zM212 874h172l-118 -129h-114z" />
    <glyph glyph-name="lcaron.ss02" horiz-adv-x="252" 
d="M509 700l-119 -158h-109l61 158h167zM137 0h-132l149 700h132z" />
    <glyph glyph-name="lcommaaccent.ss02" horiz-adv-x="252" 
d="M137 0h-132l149 700h132zM-46 -200l31 150h150l-31 -150l-55 -104h-94l55 104h-56z" />
    <glyph glyph-name="ldot.ss02" horiz-adv-x="364" 
d="M137 0h-132l149 700h132zM405 410l-25 -117h-132l25 117h132z" />
    <glyph glyph-name="lslash.ss02" horiz-adv-x="268" 
d="M145 0h-132l62 293l-72 -36l22 98l71 36l66 309h132l-50 -235l71 36l-22 -98l-70 -35z" />
    <glyph glyph-name="fl.ss02" horiz-adv-x="596" 
d="M415 584h-89c-32 0 -44 -20 -49 -44l-5 -24h128l-25 -116h-127l-85 -400h-132l85 400h-73l25 116h72l11 52c17 78 80 132 164 132h124zM481 0h-132l149 700h132z" />
    <glyph glyph-name="uniFB04.ss02" horiz-adv-x="940" 
d="M460 400h-212l-85 -400h-132l85 400h-73l25 116h72l11 52c17 78 80 132 164 132h124l-24 -116h-89c-32 0 -44 -20 -49 -44l-5 -24h212l11 52c17 78 80 132 164 132h124l-24 -116h-89c-32 0 -44 -20 -49 -44l-5 -24h128l-25 -116h-127l-85 -400h-132zM825 0h-132l149 700
h132z" />
    </font>
</defs>
</svg>
