<?xml version="1.0" standalone="yes"?><svg xmlns="http://www.w3.org/2000/svg" xmlns:xlink="http://www.w3.org/1999/xlink" viewBox="0 -26 512 512" style="zoom: 1;"><rect stroke="none" x="-16.88414px" height="483.707672px" y="-13.222809px" id="rect1" stroke-width="3px" width="553.069519px" fill="#46b3a5" transform=""></rect><path d="M256,100 c-5.519531,0 -10,4.480469 -10,10 s4.480469,10 10,10 s10,-4.480469 10,-10 s-4.480469,-10 -10,-10 m0,0 "></path><path d="M90,280 c5.519531,0 10,-4.480469 10,-10 s-4.480469,-10 -10,-10 s-10,4.480469 -10,10 s4.480469,10 10,10 m0,0 "></path><path d="M336,0.912659 c-90.027344,0 -163.917969,62.070312 -169.632812,140.253906 c-85.738282,4.300782 -166.367188,66.125 -166.367188,149.746094 c0,34.945312 13.828125,68.804688 39,95.632812 c4.980469,20.53125 -1.066406,42.292969 -16.070312,57.296876 c-2.859376,2.859374 -3.714844,7.160156 -2.167969,10.898437 c1.546875,3.734375 5.191406,6.171875 9.238281,6.171875 c28.519531,0 56.003906,-11.183594 76.425781,-30.890625 c19.894531,6.78125 45.851563,10.890625 69.574219,10.890625 c90.015625,0 163.898438,-62.054688 169.628906,-140.222656 c20.9375,-.929688 42.714844,-4.796875 59.945313,-10.667969 c20.421875,19.707031 47.90625,30.890625 76.425781,30.890625 c4.046875,0 7.691406,-2.4375 9.238281,-6.171875 c1.546875,-3.738281 .691407,-8.039063 -2.167969,-10.898437 c-15.003906,-15.003907 -21.050781,-36.765626 -16.070312,-57.296876 c25.171875,-26.828124 39,-60.6875 39,-95.632812 c0,-86.886719 -86.839844,-150 -176,-150 m-160,420 c-23.601562,0 -50.496094,-4.632812 -68.511719,-11.800781 c-3.859375,-1.539063 -8.269531,-.527344 -11.078125,2.539062 c-12.074218,13.199219 -27.773437,22.402344 -44.878906,26.632813 c9.425781,-18.058594 11.832031,-39.347656 6.097656,-59.519532 c-.453125,-1.589843 -1.292968,-3.042968 -2.445312,-4.226562 c-22.6875,-23.367188 -35.183594,-53.066406 -35.183594,-83.625 c0,-70.46875 71.4375,-130 156,-130 c79.851562,0 150,55.527344 150,130 c0,71.683594 -67.289062,130 -150,130 m280.816406,-186.375 c-1.152344,1.1875 -1.992187,2.640625 -2.445312,4.226562 c-5.734375,20.171876 -3.328125,41.460938 6.097656,59.519532 c-17.105469,-4.226563 -32.804688,-13.433594 -44.878906,-26.632813 c-2.808594,-3.0625 -7.21875,-4.078125 -11.078125,-2.539062 c-15.613281,6.210937 -37.886719,10.511719 -58.914063,11.550781 c-2.921875,-37.816406 -21.785156,-73.359375 -54.035156,-99.75 h130.4375 c5.523438,0 10,-4.476562 10,-10 s-4.476562,-10 -10,-10 h-161.160156 c-22.699219,-11.554688 -48.1875,-18.292969 -74.421875,-19.707031 c5.746093,-67.164063 70.640625,-120.292969 149.582031,-120.292969 c84.5625,0 156,59.53125 156,130 c0,30.558594 -12.496094,60.257812 -35.183594,83.625 m0,0 "></path><path d="M256,260 h-126 c-5.523438,0 -10,4.476562 -10,10 s4.476562,10 10,10 h126 c5.523438,0 10,-4.476562 10,-10 s-4.476562,-10 -10,-10 m0,0 "></path><path d="M256,320 h-166 c-5.523438,0 -10,4.476562 -10,10 s4.476562,10 10,10 h166 c5.523438,0 10,-4.476562 10,-10 s-4.476562,-10 -10,-10 m0,0 "></path><path d="M422,100 h-126 c-5.523438,0 -10,4.476562 -10,10 s4.476562,10 10,10 h126 c5.523438,0 10,-4.476562 10,-10 s-4.476562,-10 -10,-10 m0,0 "></path></svg>