<?xml version="1.0" encoding="utf-8"?>
<!-- Svg Vector Icons : http://www.onlinewebfonts.com/icon -->
<!DOCTYPE svg PUBLIC "-//W3C//DTD SVG 1.1//EN" "http://www.w3.org/Graphics/SVG/1.1/DTD/svg11.dtd">
<svg version="1.1" xmlns="http://www.w3.org/2000/svg" xmlns:xlink="http://www.w3.org/1999/xlink" x="0px" y="0px" viewBox="0 0 1000 1000" enable-background="new 0 0 1000 1000" xml:space="preserve">
<metadata> Svg Vector Icons : http://www.onlinewebfonts.com/icon </metadata>
<g><path d="M423.2,532.4l-320.1,28.7c-16.7,1.5-31,13.3-35.7,29.5c-4.6,16.2,1.3,33.8,14.6,43.9l73.7,55.7L22,824c-7.7,7.7-12,18-12,28.9c0,10.9,4.3,21.2,12,28.9l96.2,96.2c7.7,7.7,18,12,28.9,12c10.9,0,21.2-4.3,28.9-12l133.8-133.8l55.7,73.7c7.7,10.2,19.9,16.3,32.6,16.3c3.8,0,7.6-0.5,11.3-1.6c16.4-4.7,27.9-18.7,29.5-35.7l28.7-320.1c1.1-12.1-3.2-24-11.8-32.6C447.2,535.7,435.6,531.4,423.2,532.4z M421.2,895.3c-0.9,9.6-7.4,17.6-16.7,20.2c-2.1,0.6-4.2,0.9-6.4,0.9c-7.2,0-14.1-3.4-18.5-9.2l-68-89.9L163.5,965.5c-8.8,8.8-24.1,8.8-32.8,0l-96.2-96.2c-4.4-4.4-6.8-10.2-6.8-16.4c0-6.2,2.4-12,6.8-16.4l148.1-148.1l-89.9-68c-7.6-5.7-10.9-15.7-8.3-24.9c2.6-9.2,10.8-15.9,20.2-16.7l320.1-28.7c0.7-0.1,1.4-0.1,2.1-0.1c6.2,0,12,2.4,16.4,6.8c4.9,4.9,7.3,11.6,6.7,18.5L421.2,895.3z"/><path d="M598.9,410c2.3,0,4.5-0.9,6.3-2.6l227-227c3.5-3.4,3.4-9,0-12.5c-3.4-3.5-9-3.5-12.5,0l-227,227c-3.5,3.4-3.5,9,0,12.5C594.3,409.1,596.6,410,598.9,410z"/><path d="M451.1,348.8c4.9,0,8.8-4,8.8-8.8V18.8c0-4.9-3.9-8.8-8.8-8.8c-4.9,0-8.8,4-8.8,8.8v321.1C442.3,344.8,446.2,348.8,451.1,348.8z"/><path d="M297.1,407.4c1.7,1.7,4,2.6,6.3,2.6c2.3,0,4.5-0.9,6.3-2.6c3.5-3.4,3.5-9,0-12.5l-227-227c-3.4-3.5-9-3.4-12.5,0c-3.5,3.4-3.5,9,0,12.5L297.1,407.4z"/><path d="M981.2,540H660.1c-4.9,0-8.8,4-8.8,8.8c0,4.9,4,8.8,8.8,8.8h321.1c4.9,0,8.8-4,8.8-8.8C990,544,986,540,981.2,540z"/><path d="M605.1,690.4c-3.4-3.5-9-3.5-12.5,0c-3.5,3.4-3.5,9,0,12.5l227,227c1.7,1.7,4,2.6,6.3,2.6c2.3,0,4.5-0.9,6.3-2.6c3.5-3.4,3.5-9,0-12.5L605.1,690.4z"/></g>
</svg>