<?xml version="1.0" encoding="UTF-8" standalone="no"?>
<!-- Created with Inkscape (http://www.inkscape.org/) -->

<svg
   width="304.75882mm"
   height="51.854824mm"
   viewBox="0 0 304.75882 51.854824"
   version="1.1"
   id="svg1294"
   inkscape:version="1.1.1 (3bf5ae0d25, 2021-09-20)"
   sodipodi:docname="header-logo-youchoose.svg"
   xmlns:inkscape="http://www.inkscape.org/namespaces/inkscape"
   xmlns:sodipodi="http://sodipodi.sourceforge.net/DTD/sodipodi-0.dtd"
   xmlns="http://www.w3.org/2000/svg"
   xmlns:svg="http://www.w3.org/2000/svg">
  <sodipodi:namedview
     id="namedview1296"
     pagecolor="#ffffff"
     bordercolor="#666666"
     borderopacity="1.0"
     inkscape:pageshadow="2"
     inkscape:pageopacity="0.0"
     inkscape:pagecheckerboard="0"
     inkscape:document-units="mm"
     showgrid="false"
     inkscape:zoom="0.672594"
     inkscape:cx="526.32049"
     inkscape:cy="191.79475"
     inkscape:window-width="3840"
     inkscape:window-height="2131"
     inkscape:window-x="1920"
     inkscape:window-y="0"
     inkscape:window-maximized="1"
     inkscape:current-layer="layer1" />
  <defs
     id="defs1291" />
  <g
     inkscape:label="Layer 1"
     inkscape:groupmode="layer"
     id="layer1"
     transform="translate(34.336126,-97.709497)">
    <path
       inkscape:connector-curvature="0"
       id="path887-5-1-3"
       style="font-style:normal;font-variant:normal;font-weight:bold;font-stretch:semi-condensed;font-size:40px;line-height:1.25;font-family:'Trade Gothic LT Std';-inkscape-font-specification:'Trade Gothic LT Std Bold Semi-Condensed';letter-spacing:0px;word-spacing:0px;fill:#1a030e;fill-opacity:1;stroke:none;stroke-width:1.32063"
       d="m 30.407383,110.89615 h -7.76532 l 10.40658,22.71482 v 15.42499 h 7.28984 v -15.42499 l 10.40658,-22.71482 h -7.76532 l -6.18053,15.37216 z" />
    <path
       inkscape:connector-curvature="0"
       id="path889-9-5-5"
       style="font-style:normal;font-variant:normal;font-weight:bold;font-stretch:semi-condensed;font-size:40px;line-height:1.25;font-family:'Trade Gothic LT Std';-inkscape-font-specification:'Trade Gothic LT Std Bold Semi-Condensed';letter-spacing:0px;word-spacing:0px;fill:#1a030e;fill-opacity:1;stroke:none;stroke-width:1.32063"
       d="m 49.654243,138.6822 c 0,7.60685 3.90904,10.882 10.56499,10.882 6.65601,0 10.56506,-3.27515 10.56506,-10.882 v -8.02943 c 0,-7.60679 -3.90905,-10.88194 -10.56506,-10.88194 -6.65595,0 -10.56499,3.27515 -10.56499,10.88194 z m 6.65595,-9.7198 c 0,-2.21867 1.58472,-3.3808 3.90904,-3.3808 2.32432,0 3.9091,1.16213 3.9091,3.3808 v 11.41023 c 0,2.21867 -1.58478,3.3808 -3.9091,3.3808 -2.32432,0 -3.90904,-1.16213 -3.90904,-3.3808 z" />
    <path
       inkscape:connector-curvature="0"
       id="path891-2-5-6"
       style="font-style:normal;font-variant:normal;font-weight:bold;font-stretch:semi-condensed;font-size:40px;line-height:1.25;font-family:'Trade Gothic LT Std';-inkscape-font-specification:'Trade Gothic LT Std Bold Semi-Condensed';letter-spacing:0px;word-spacing:0px;fill:#1a030e;fill-opacity:1;stroke:none;stroke-width:1.32063"
       d="m 87.821633,120.29907 v 21.71117 c -1.42631,1.26778 -2.95821,2.58838 -4.33169,2.58838 -1.79602,0 -2.42997,-1.26778 -2.42997,-3.1695 v -21.13005 h -6.65595 v 21.86964 c 0,5.33535 2.11302,7.39549 6.18053,7.39549 2.74692,0 5.01841,-1.69037 7.44838,-3.80339 v 3.27515 h 6.44465 v -28.73689 z" />
    <path
       inkscape:connector-curvature="0"
       id="path893-2-4-2"
       style="font-style:normal;font-variant:normal;font-weight:bold;font-stretch:semi-condensed;font-size:40px;line-height:1.25;font-family:'Trade Gothic LT Std';-inkscape-font-specification:'Trade Gothic LT Std Bold Semi-Condensed';letter-spacing:0px;word-spacing:0px;fill:#1a030e;fill-opacity:1;stroke:none;stroke-width:1.32063"
       d="m 108.3084,122.20074 c 0,-4.22599 1.8489,-5.38812 4.75429,-5.38812 2.90567,0 4.75452,1.16213 4.75452,5.38812 v 1.05654 h 7.28983 v -0.10553 c 0,-9.40287 -4.96551,-12.78373 -12.04435,-12.78373 -7.07855,0 -12.04413,3.38086 -12.04413,12.78373 v 13.6289 c 0,9.40287 4.96558,12.78367 12.04413,12.78367 7.07884,0 12.04435,-3.3808 12.04435,-12.78367 v -1.58478 h -7.28983 v 2.53562 c 0,4.22604 -1.84885,5.38817 -4.75452,5.38817 -2.90539,0 -4.75429,-1.16213 -4.75429,-5.38817 z" />
    <path
       inkscape:connector-curvature="0"
       id="path895-8-7-9"
       style="font-style:normal;font-variant:normal;font-weight:bold;font-stretch:semi-condensed;font-size:40px;line-height:1.25;font-family:'Trade Gothic LT Std';-inkscape-font-specification:'Trade Gothic LT Std Bold Semi-Condensed';letter-spacing:0px;word-spacing:0px;fill:#1a030e;fill-opacity:1;stroke:none;stroke-width:1.32063"
       d="m 136.11329,149.03596 v -21.71117 c 1.42631,-1.26778 2.9582,-2.58844 4.3317,-2.58844 1.79601,0 2.4299,1.26784 2.4299,3.16951 v 21.1301 h 6.65601 v -21.86964 c 0,-5.33535 -2.11301,-7.39549 -6.18054,-7.39549 -2.74691,0 -5.0184,1.69037 -7.23707,3.80339 v -12.67807 h -6.65595 v 38.13981 z" />
    <path
       inkscape:connector-curvature="0"
       id="path897-9-6-1"
       style="font-style:normal;font-variant:normal;font-weight:bold;font-stretch:semi-condensed;font-size:40px;line-height:1.25;font-family:'Trade Gothic LT Std';-inkscape-font-specification:'Trade Gothic LT Std Bold Semi-Condensed';letter-spacing:0px;word-spacing:0px;fill:#1a030e;fill-opacity:1;stroke:none;stroke-width:1.32063"
       d="m 153.15081,138.6822 c 0,7.60685 3.9091,10.882 10.56506,10.882 6.65601,0 10.56504,-3.27515 10.56504,-10.882 v -8.02943 c 0,-7.60679 -3.90903,-10.88194 -10.56504,-10.88194 -6.65596,0 -10.56506,3.27515 -10.56506,10.88194 z m 6.65601,-9.7198 c 0,-2.21867 1.58473,-3.3808 3.90905,-3.3808 2.32426,0 3.90904,1.16213 3.90904,3.3808 v 11.41023 c 0,2.21867 -1.58478,3.3808 -3.90904,3.3808 -2.32432,0 -3.90905,-1.16213 -3.90905,-3.3808 z" />
    <path
       inkscape:connector-curvature="0"
       id="path899-7-5-2"
       style="font-style:normal;font-variant:normal;font-weight:bold;font-stretch:semi-condensed;font-size:40px;line-height:1.25;font-family:'Trade Gothic LT Std';-inkscape-font-specification:'Trade Gothic LT Std Bold Semi-Condensed';letter-spacing:0px;word-spacing:0px;fill:#1a030e;fill-opacity:1;stroke:none;stroke-width:1.32063"
       d="m 178.10279,138.6822 c 0,7.60685 3.90909,10.882 10.56506,10.882 6.65601,0 10.56505,-3.27515 10.56505,-10.882 v -8.02943 c 0,-7.60679 -3.90904,-10.88194 -10.56505,-10.88194 -6.65597,0 -10.56506,3.27515 -10.56506,10.88194 z m 6.65601,-9.7198 c 0,-2.21867 1.58473,-3.3808 3.90905,-3.3808 2.32432,0 3.90903,1.16213 3.90903,3.3808 v 11.41023 c 0,2.21867 -1.58471,3.3808 -3.90903,3.3808 -2.32432,0 -3.90905,-1.16213 -3.90905,-3.3808 z" />
    <path
       inkscape:connector-curvature="0"
       id="path901-3-6-7"
       style="font-style:normal;font-variant:normal;font-weight:bold;font-stretch:semi-condensed;font-size:40px;line-height:1.25;font-family:'Trade Gothic LT Std';-inkscape-font-specification:'Trade Gothic LT Std Bold Semi-Condensed';letter-spacing:0px;word-spacing:0px;fill:#1a030e;fill-opacity:1;stroke:none;stroke-width:1.32063"
       d="m 221.75491,126.95502 c -1.63755,-4.33169 -5.07123,-7.18419 -10.03675,-7.18419 -4.70146,0 -9.08599,2.58838 -9.08599,8.02938 0,9.66704 12.99503,8.34644 12.99503,13.84026 0,1.58472 -1.21496,2.53556 -3.22233,2.53556 -2.64126,0 -4.2788,-1.7432 -4.85987,-4.43729 l -5.9693,1.63755 c 3.22232,7.18425 6.81442,8.18791 10.82917,8.18791 5.54665,0 9.5614,-3.01103 9.5614,-8.71615 0,-8.55768 -12.99502,-8.66333 -12.99502,-13.10067 0,-1.47907 1.16212,-2.58844 2.69408,-2.58844 2.00738,0 3.69775,1.26784 4.59576,3.9091 z" />
    <path
       inkscape:connector-curvature="0"
       id="path903-6-9-0"
       style="font-style:normal;font-variant:normal;font-weight:bold;font-stretch:semi-condensed;font-size:40px;line-height:1.25;font-family:'Trade Gothic LT Std';-inkscape-font-specification:'Trade Gothic LT Std Bold Semi-Condensed';letter-spacing:0px;word-spacing:0px;fill:#1a030e;fill-opacity:1;stroke:none;stroke-width:1.32063"
       d="m 246.17865,136.25224 v -6.70878 c 0,-5.86359 -4.38445,-9.77263 -10.56499,-9.77263 -6.33907,0 -10.56506,3.90904 -10.56506,10.19522 v 9.40293 c 0,6.28618 4.22599,10.19522 10.56506,10.19522 6.70877,0 10.24811,-3.48645 10.56499,-9.40286 h -6.65595 c 0,2.21867 -1.1093,4.01469 -3.90904,4.01469 -2.21868,0 -3.90911,-1.26778 -3.90911,-4.12034 v -3.80345 z m -14.4741,-5.38818 v -1.58472 c 0,-2.53561 1.21502,-4.1204 3.90911,-4.1204 2.69408,0 3.90904,1.58479 3.90904,4.1204 v 1.58472 z" />
    <g
       aria-label="AI"
       transform="matrix(0.66361223,0,0,0.66361223,662.8715,-191.10683)"
       style="font-style:normal;font-weight:normal;font-size:40px;line-height:1.25;font-family:sans-serif;letter-spacing:0px;word-spacing:0px;fill:#808080;fill-opacity:1;stroke:none"
       id="flowRoot906-1-3-9">
      <path
         d="m -601.34273,463.21852 h 3.12 l -9,-28 h -3.52 l -9,28 h 3.12 l 2.56,-7.88 h 10.16 z m -3.48,-10.72 h -8.32 l 4.16,-13 z"
         style="font-style:normal;font-variant:normal;font-weight:normal;font-stretch:normal;font-family:'Simplon Norm';-inkscape-font-specification:'Simplon Norm';fill:#808080"
         id="path958-2-7-3"
         inkscape:connector-curvature="0" />
      <path
         d="m -594.46273,463.21852 h 3.08 v -28 h -3.08 z"
         style="font-style:normal;font-variant:normal;font-weight:normal;font-stretch:normal;font-family:'Simplon Norm';-inkscape-font-specification:'Simplon Norm';fill:#808080"
         id="path960-9-4-60"
         inkscape:connector-curvature="0" />
    </g>
    <path
       style="color:#000000;font-style:normal;font-variant:normal;font-weight:normal;font-stretch:normal;font-size:medium;line-height:normal;font-family:sans-serif;font-variant-ligatures:normal;font-variant-position:normal;font-variant-caps:normal;font-variant-numeric:normal;font-variant-alternates:normal;font-feature-settings:normal;text-indent:0;text-align:start;text-decoration:none;text-decoration-line:none;text-decoration-style:solid;text-decoration-color:#000000;letter-spacing:normal;word-spacing:normal;text-transform:none;writing-mode:lr-tb;direction:ltr;text-orientation:mixed;dominant-baseline:auto;baseline-shift:baseline;text-anchor:start;white-space:normal;shape-padding:0;clip-rule:nonzero;display:inline;overflow:visible;visibility:visible;isolation:auto;mix-blend-mode:normal;color-interpolation:sRGB;color-interpolation-filters:linearRGB;solid-color:#000000;solid-opacity:1;vector-effect:none;fill:#e33180;fill-opacity:1;fill-rule:nonzero;stroke:none;stroke-width:2.53457;stroke-linecap:butt;stroke-linejoin:round;stroke-miterlimit:4;stroke-dasharray:none;stroke-dashoffset:0;stroke-opacity:1;color-rendering:auto;image-rendering:auto;shape-rendering:auto;text-rendering:auto;enable-background:accumulate"
       d="m -14.181158,121.62847 c -0.697055,0.002 -1.261619,0.56662 -1.263672,1.26367 l -0.0293,14.40625 c -0.0023,0.97964 1.060159,1.59145 1.90625,1.09766 l 12.80468328,-7.46875 c 0.85164,-0.49789 0.83303,-1.73498 -0.0332,-2.20703 L -13.571782,121.78082 c -0.187125,-0.10111 -0.396685,-0.1535 -0.609376,-0.15235 z"
       id="path876-3-5-6"
       inkscape:connector-curvature="0"
       sodipodi:nodetypes="cccccccc" />
    <g
       id="g2563"
       style="fill:#1a030e;fill-opacity:1"
       transform="translate(60.213373,38.745654)">
      <path
         inkscape:connector-curvature="0"
         id="path882-3-3-6-5"
         d="m -70.703125,72.388672 c -3.733023,0.364533 -6.446127,2.373766 -8.601563,4.720703 -4.310871,4.693875 -6.990938,10.591163 -13.978515,12.353516 a 1.6754815,1.6754815 0 0 0 -0.03516,3.240234 c 6.995291,1.921379 9.657351,7.815715 13.992187,12.472655 2.167418,2.32847 4.904237,4.30365 8.66211,4.65625 3.757872,0.3526 8.324245,-0.82845 14.457031,-4.0918 l -1.574219,-2.95703 c -5.814466,3.09397 -9.77553,3.97512 -12.570312,3.71289 -2.794783,-0.26223 -4.637755,-1.57981 -6.521485,-3.60351 -3.107305,-3.338198 -5.964016,-8.680798 -11.599609,-11.76758 5.655589,-2.99916 8.53621,-8.372072 11.636718,-11.748047 1.881195,-2.04833 3.709902,-3.384084 6.457032,-3.652344 2.747129,-0.268259 6.644814,0.61435 12.376953,3.751953 l 1.609375,-2.939453 c -6.055562,-3.314636 -10.577524,-4.51297 -14.310547,-4.148437 z"
         style="color:#000000;font-style:normal;font-variant:normal;font-weight:normal;font-stretch:normal;font-size:medium;line-height:normal;font-family:sans-serif;font-variant-ligatures:normal;font-variant-position:normal;font-variant-caps:normal;font-variant-numeric:normal;font-variant-alternates:normal;font-feature-settings:normal;text-indent:0;text-align:start;text-decoration:none;text-decoration-line:none;text-decoration-style:solid;text-decoration-color:#000000;letter-spacing:normal;word-spacing:normal;text-transform:none;writing-mode:lr-tb;direction:ltr;text-orientation:mixed;dominant-baseline:auto;baseline-shift:baseline;text-anchor:start;white-space:normal;shape-padding:0;clip-rule:nonzero;display:inline;overflow:visible;visibility:visible;opacity:1;isolation:auto;mix-blend-mode:normal;color-interpolation:sRGB;color-interpolation-filters:linearRGB;solid-color:#000000;solid-opacity:1;vector-effect:none;fill:#1a030e;fill-opacity:1;fill-rule:nonzero;stroke:none;stroke-width:3.35063;stroke-linecap:butt;stroke-linejoin:round;stroke-miterlimit:4;stroke-dasharray:none;stroke-dashoffset:0;stroke-opacity:1;color-rendering:auto;image-rendering:auto;shape-rendering:auto;text-rendering:auto;enable-background:accumulate" />
      <path
         sodipodi:nodetypes="ccccccccc"
         inkscape:connector-curvature="0"
         id="path876-3-5-6-2"
         d="m -56.804688,98.390625 c -0.673352,0.01165 -1.213064,0.560922 -1.21289,1.234375 l 0.0059,8.79883 c 0.0011,0.95566 1.041054,1.54761 1.863281,1.06055 l 7.867188,-4.66211 c 0.830823,-0.49222 0.800038,-1.70487 -0.05469,-2.1543 l -7.873046,-4.13672 c -0.183611,-0.09615 -0.388478,-0.144511 -0.595704,-0.140625 z"
         style="color:#000000;font-style:normal;font-variant:normal;font-weight:normal;font-stretch:normal;font-size:medium;line-height:normal;font-family:sans-serif;font-variant-ligatures:normal;font-variant-position:normal;font-variant-caps:normal;font-variant-numeric:normal;font-variant-alternates:normal;font-feature-settings:normal;text-indent:0;text-align:start;text-decoration:none;text-decoration-line:none;text-decoration-style:solid;text-decoration-color:#000000;letter-spacing:normal;word-spacing:normal;text-transform:none;writing-mode:lr-tb;direction:ltr;text-orientation:mixed;dominant-baseline:auto;baseline-shift:baseline;text-anchor:start;white-space:normal;shape-padding:0;clip-rule:nonzero;display:inline;overflow:visible;visibility:visible;opacity:1;isolation:auto;mix-blend-mode:normal;color-interpolation:sRGB;color-interpolation-filters:linearRGB;solid-color:#000000;solid-opacity:1;vector-effect:none;fill:#1a030e;fill-opacity:1;fill-rule:nonzero;stroke:none;stroke-width:2.46823;stroke-linecap:butt;stroke-linejoin:round;stroke-miterlimit:4;stroke-dasharray:none;stroke-dashoffset:0;stroke-opacity:1;color-rendering:auto;image-rendering:auto;shape-rendering:auto;text-rendering:auto;enable-background:accumulate" />
      <path
         sodipodi:nodetypes="sssss"
         inkscape:connector-curvature="0"
         id="path1095"
         d="m -53.222656,73.253906 c -2.758268,0 -5,2.243686 -5,5.001953 -10e-7,2.758268 2.241732,5.000001 5,5 2.758267,0 5.001953,-2.241732 5.001953,-5 0,-2.758267 -2.243686,-5.001952 -5.001953,-5.001953 z"
         style="color:#000000;font-style:normal;font-variant:normal;font-weight:normal;font-stretch:normal;font-size:medium;line-height:normal;font-family:sans-serif;font-variant-ligatures:normal;font-variant-position:normal;font-variant-caps:normal;font-variant-numeric:normal;font-variant-alternates:normal;font-feature-settings:normal;text-indent:0;text-align:start;text-decoration:none;text-decoration-line:none;text-decoration-style:solid;text-decoration-color:#000000;letter-spacing:normal;word-spacing:normal;text-transform:none;writing-mode:lr-tb;direction:ltr;text-orientation:mixed;dominant-baseline:auto;baseline-shift:baseline;text-anchor:start;white-space:normal;shape-padding:0;clip-rule:nonzero;display:inline;overflow:visible;visibility:visible;opacity:1;isolation:auto;mix-blend-mode:normal;color-interpolation:sRGB;color-interpolation-filters:linearRGB;solid-color:#000000;solid-opacity:1;vector-effect:none;fill:#1a030e;fill-opacity:1;fill-rule:nonzero;stroke:none;stroke-width:0.647128;stroke-linecap:round;stroke-linejoin:round;stroke-miterlimit:4;stroke-dasharray:none;stroke-dashoffset:0;stroke-opacity:1;color-rendering:auto;image-rendering:auto;shape-rendering:auto;text-rendering:auto;enable-background:accumulate" />
    </g>
    <g
       id="g995"
       style="fill:#5b5f6f;fill-opacity:1"
       transform="translate(60.213373,38.745654)">
      <g
         id="g989"
         style="fill:#5b5f6f;fill-opacity:1">
        <g
           aria-label="AI"
           transform="matrix(0.66361223,0,0,0.66361223,602.65813,-229.85249)"
           style="font-style:normal;font-weight:normal;font-size:40px;line-height:1.25;font-family:sans-serif;letter-spacing:0px;word-spacing:0px;fill:#5b5f6f;fill-opacity:1;stroke:none"
           id="g937">
          <path
             d="m -601.34273,463.21852 h 3.12 l -9,-28 h -3.52 l -9,28 h 3.12 l 2.56,-7.88 h 10.16 z m -3.48,-10.72 h -8.32 l 4.16,-13 z"
             style="font-style:normal;font-variant:normal;font-weight:normal;font-stretch:normal;font-family:'Simplon Norm';-inkscape-font-specification:'Simplon Norm';fill:#5b5f6f;fill-opacity:1"
             id="path933"
             inkscape:connector-curvature="0" />
          <path
             d="m -594.46273,463.21852 h 3.08 v -28 h -3.08 z"
             style="font-style:normal;font-variant:normal;font-weight:normal;font-stretch:normal;font-family:'Simplon Norm';-inkscape-font-specification:'Simplon Norm';fill:#5b5f6f;fill-opacity:1"
             id="path935"
             inkscape:connector-curvature="0" />
        </g>
      </g>
    </g>
  </g>
</svg>
