<?xml version="1.0" encoding="utf-8"?>
<!-- Generator: Adobe Illustrator 16.0.0, SVG Export Plug-In . SVG Version: 6.00 Build 0)  -->
<!DOCTYPE svg PUBLIC "-//W3C//DTD SVG 1.1//EN" "http://www.w3.org/Graphics/SVG/1.1/DTD/svg11.dtd">
<svg version="1.1"
	 id="Layer_1" inkscape:version="0.92.3 (2405546, 2018-03-11)" sodipodi:docname="header-logo-pornhub-w.svg" xmlns:dc="http://purl.org/dc/elements/1.1/" xmlns:cc="http://creativecommons.org/ns#" xmlns:rdf="http://www.w3.org/1999/02/22-rdf-syntax-ns#" xmlns:svg="http://www.w3.org/2000/svg" xmlns:sodipodi="http://sodipodi.sourceforge.net/DTD/sodipodi-0.dtd" xmlns:inkscape="http://www.inkscape.org/namespaces/inkscape"
	 xmlns="http://www.w3.org/2000/svg" xmlns:xlink="http://www.w3.org/1999/xlink" x="0px" y="0px" width="1031.25px"
	 height="232.5px" viewBox="0 0 1031.25 232.5" enable-background="new 0 0 1031.25 232.5" xml:space="preserve">
<sodipodi:namedview  units="cm" inkscape:current-layer="layer4" inkscape:window-maximized="1" inkscape:window-y="27" inkscape:window-x="49" inkscape:window-height="1025" inkscape:window-width="1871" inkscape:pageshadow="2" inkscape:pageopacity="0" inkscape:cy="227.11052" inkscape:cx="183.7985" inkscape:zoom="0.36750954" showgrid="false" guidetolerance="10" gridtolerance="10" pagecolor="#ffffff" bordercolor="#666666" borderopacity="1" objecttolerance="10" id="namedview4730">
	</sodipodi:namedview>
<title  id="title4669">TrackingExposed</title>
<g id="layer4" inkscape:groupmode="layer" inkscape:label="pornhub">
	<path id="path15009" inkscape:connector-curvature="0" fill="#FFFFFF" d="M302.58,135.326v59.535h-14.489v-59.535h-20.476v-13.965
		h55.44v13.965H302.58z"/>
	<path id="path15011" inkscape:connector-curvature="0" fill="#FFFFFF" d="M330.151,194.861h-13.86v-54.181h13.86v5.88
		c1.575-3.675,6.195-6.824,12.6-6.824h4.2v13.545h-6.51c-5.25,0-10.29,3.254-10.29,10.5V194.861z"/>
	<path id="path15013" inkscape:connector-curvature="0" fill="#FFFFFF" d="M383.168,159.58c-0.945-4.935-4.305-7.875-10.08-7.875
		c-4.935,0-8.19,2.311-9.555,6h-13.965c2.204-11.34,10.079-18.479,23.52-18.479c15.54,0,24.15,9.87,24.15,24.886v30.75h-13.86
		v-6.195c-2.521,4.095-6.75,7.244-15.12,7.244c-12.6,0-19.74-6-19.74-16.064c0-7.98,2.73-12.495,10.29-16.17
		c5.25-2.415,16.17-3.465,24.36-3.99V159.58z M362.378,178.271c0,2.625,1.995,5.46,8.19,5.46c7.14,0,12.81-3.99,12.81-10.814v-1.785
		c-7.98,0.525-15.435,1.154-18.06,2.52C362.904,174.806,362.378,175.855,362.378,178.271z"/>
	<path id="path15015" inkscape:connector-curvature="0" fill="#FFFFFF" d="M450.465,175.121
		c-1.574,12.914-9.66,20.789-23.939,20.789c-15.54,0-24.15-9.869-24.15-24.885v-6.93c0-15,8.61-24.885,24.15-24.885
		c14.25,0,22.365,7.875,23.939,20.789h-13.859c-0.84-5.039-4.2-8.295-10.08-8.295c-6.75,0-10.29,4.201-10.29,10.605v10.5
		c0,6.405,3.57,10.605,10.29,10.605c5.88,0,9.345-3.15,10.08-8.295H450.465z"/>
	<path id="path15017" inkscape:connector-curvature="0" fill="#FFFFFF" d="M469.223,159.58l17.325-18.899h16.8l-19.635,21.315
		l22.5,32.865h-16.275l-15.54-22.681l-5.145,5.67v17.011h-13.891v-73.5h13.86V159.58z"/>
	<path id="path15019" inkscape:connector-curvature="0" fill="#FFFFFF" d="M522.615,133.646h-13.89v-12.284h13.859L522.615,133.646z
		 M522.615,194.861h-13.89v-54.181h13.859L522.615,194.861z"/>
	<path id="path15021" inkscape:connector-curvature="0" fill="#FFFFFF" d="M578.318,194.861h-13.859v-31.605
		c0-7.245-5.04-10.5-10.29-10.5s-10.29,3.255-10.29,10.5v31.605h-13.86v-54.181h13.86v4.763c2.52-3.676,7.77-6.195,12.705-6.195
		c11.024,0,21.75,7.561,21.75,23.52L578.318,194.861z"/>
	<path id="path15023" inkscape:connector-curvature="0" fill="#FFFFFF" d="M597.398,195.176c1.155,4.725,4.41,7.561,9.976,7.561
		c6.75,0,10.29-4.201,10.29-10.605v-6.301c-2.521,3.676-7.771,6.195-12.705,6.195c-11.025,0-21.75-7.56-21.75-23.52v-5.775
		c0-15.96,10.71-23.52,21.75-23.52c4.935,0,10.185,2.52,12.705,6.195v-4.726h13.859v49.665c0,15-8.609,24.885-24.149,24.885
		c-13.966,0-22.155-7.56-23.836-20.055H597.398z M597.083,167.98c0,7.245,5.04,10.5,10.29,10.5s10.29-3.255,10.29-10.5v-4.725
		c0-7.245-5.04-10.5-10.29-10.5s-10.29,3.255-10.29,10.5V167.98z"/>
	<path id="path15025" inkscape:connector-curvature="0" fill="#FFFFFF" d="M674.476,150.761h30.659v13.965h-30.659v16.17h30.659
		v13.966h-44.729v-73.5h44.729v13.965h-30.659V150.761z"/>
	<path id="path15027" inkscape:connector-curvature="0" fill="#FFFFFF" d="M743.941,140.681h15.75l-17.535,26.354l18.375,27.826
		h-15.855l-10.71-16.591l-10.739,16.591h-15.825l18.375-27.826l-17.55-26.354h15.75l9.975,15.33L743.941,140.681z"/>
	<path id="path15029" inkscape:connector-curvature="0" fill="#FFFFFF" d="M777.226,214.181h-13.875v-73.5h13.875v4.763
		c2.52-3.676,7.77-6.195,12.704-6.195c11.025,0,21.75,7.561,21.75,23.52v9.66c0,15.961-10.71,23.521-21.75,23.521
		c-4.935,0-10.185-2.521-12.704-6.194V214.181z M797.805,163.256c0-7.245-5.039-10.5-10.289-10.5s-10.29,3.255-10.29,10.5v8.609
		c0,7.246,5.04,10.5,10.29,10.5s10.289-3.254,10.289-10.5V163.256z"/>
	<path id="path15031" inkscape:connector-curvature="0" fill="#FFFFFF" d="M815.986,164.096c0-15,8.61-24.885,24.149-24.885
		c15.54,0,24.15,9.869,24.15,24.885v6.93c0,15-8.61,24.885-24.15,24.885c-15.539,0-24.149-9.869-24.149-24.885V164.096z
		 M850.426,162.311c0-6.404-3.578-10.605-10.291-10.605c-6.712,0-10.289,4.201-10.289,10.605v10.5
		c0,6.405,3.569,10.605,10.289,10.605c6.721,0,10.291-4.2,10.291-10.605V162.311z"/>
	<path id="path15033" inkscape:connector-curvature="0" fill="#FFFFFF" d="M867.308,177.326h13.86c0.524,4.199,5.67,6.09,10.08,6.09
		c2.729,0,6.824-0.631,6.824-4.2c0-2.101-1.574-3.466-4.83-4.2l-11.34-2.52c-5.88-1.365-13.335-6-13.335-16.59
		s9.556-16.695,20.686-16.695c10.92,0,20.159,5.25,21,17.535h-14.176c-0.75-3.465-3.75-5.041-7.245-5.041
		c-4.095,0-6.3,1.576-6.404,4.096c-0.105,2.52,1.785,3.465,4.2,3.99l12.18,2.729c5.88,1.365,13.125,5.46,13.125,16.695
		c0,12.18-9.87,16.694-21.105,16.694C879.593,195.91,867.832,190.24,867.308,177.326L867.308,177.326z"/>
	<path id="path15035" inkscape:connector-curvature="0" fill="#FFFFFF" d="M929.003,172.496v0.314
		c0,6.405,3.569,10.605,10.29,10.605c4.935,0,8.189-2.311,9.555-6h14.07c-2.205,11.34-10.186,18.479-23.625,18.479
		c-15.54,0-24.15-9.87-24.15-24.885v-6.931c0-15,8.61-24.885,24.15-24.885s24.149,9.871,24.149,24.885v8.4L929.003,172.496z
		 M929.003,160.945v0.105h20.475v-0.105c-0.42-5.774-3.885-9.24-10.185-9.24S929.528,155.381,929.003,160.945L929.003,160.945z"/>
	<path id="path15037" inkscape:connector-curvature="0" fill="#FFFFFF" d="M1001.978,189.693c-2.52,3.675-7.77,6.195-12.705,6.195
		c-11.024,0-21.75-7.561-21.75-23.521v-9.638c0-15.96,10.71-23.52,21.75-23.52c4.936,0,10.186,2.52,12.705,6.195v-24.045h13.86v73.5
		h-13.86V189.693z M981.398,171.844c0,7.244,5.04,10.5,10.29,10.5s10.29-3.256,10.29-10.5v-8.588c0-7.245-5.04-10.5-10.29-10.5
		s-10.29,3.255-10.29,10.5V171.844z"/>
	<path id="path15039" inkscape:connector-curvature="0" fill="#FFFFFF" d="M228.038,113.943
		C228.034,54.73,182.24,5.601,123.173,1.443v15.87c49.771,4.043,89.032,45.833,89.032,96.63c0,50.797-39.262,92.588-89.032,96.63
		v15.87C182.24,222.285,228.034,173.156,228.038,113.943z"/>
	<path id="path15041" inkscape:connector-curvature="0" fill="#FFFFFF" d="M18.308,113.943c0-50.798,39.263-92.587,89.033-96.63
		V1.443C45.208,5.81-1.62,59.718,2.747,121.85c3.939,56.053,48.541,100.654,104.594,104.594v-15.87
		C57.571,206.531,18.308,164.74,18.308,113.943z"/>
	<path id="path15043" inkscape:connector-curvature="0" fill="#FFFFFF" d="M76.673,47.118
		c-34.237,19.777-47.989,62.229-31.853,98.325l13.815-7.98c-13.013-31.266,1.786-67.161,33.053-80.173
		c25.692-10.692,55.364-2.742,72.27,19.364l13.822-7.973C154.582,36.646,110.922,27.335,76.673,47.118L76.673,47.118z"/>
	<path id="path15045" inkscape:connector-curvature="0" fill="#FFFFFF" d="M145.928,167.066
		c-26.695,15.357-60.637,8.574-79.38-15.863l-13.822,7.973c25.014,34.511,73.268,42.21,107.778,17.196
		c29.548-21.417,40.057-60.602,25.189-93.929l-13.815,7.95C183.672,118.842,172.575,151.627,145.928,167.066L145.928,167.066z"/>
	<path id="path15047" inkscape:connector-curvature="0" fill="#FFFFFF" d="M136.029,77.943c-17.231-9.943-39.092-6.28-52.141,8.737
		l14.13,8.16c10.537-9.524,26.8-8.702,36.324,1.835c5.542,6.132,7.8,14.555,6.066,22.637l14.13,8.153
		C161.018,108.656,153.257,87.892,136.029,77.943L136.029,77.943z"/>
	<path id="path15049" inkscape:connector-curvature="0" fill="#FFFFFF" d="M102.398,136.219
		c-9.652-5.588-14.614-16.752-12.292-27.661l-14.13-8.115c-7.476,21.695,4.053,45.344,25.748,52.818
		c16.021,5.52,33.789,0.758,44.901-12.033l-14.137-8.16C124.198,140.521,112.052,141.793,102.398,136.219z"/>
</g>
<g>
	<path fill="#F5A200" d="M307.022,67.554c-0.951-4.861-4.438-7.925-10.144-7.925c-4.861,0-8.242,2.325-9.616,6.023h-14.054
		c2.219-11.412,10.355-18.597,23.669-18.597c15.639,0,24.303,9.933,24.303,25.043v30.96h-13.948v-6.234
		c-2.536,4.121-6.869,7.291-15.216,7.291c-12.469,0-19.865-6.129-19.865-16.167c0-7.925,2.747-12.68,10.355-16.273
		c5.389-2.536,16.273-3.381,24.515-4.015V67.554z M286.1,86.362c0,2.642,2.008,5.495,8.242,5.495
		c7.186,0,12.892-4.015,12.892-10.884v-1.796c-7.925,0.528-15.533,1.163-18.175,2.536C286.734,82.875,286.1,84.038,286.1,86.362z"/>
	<path fill="#F5A200" d="M379.876,103.058h-13.948V71.252c0-7.291-5.072-10.567-10.038-10.567c-4.967,0-10.039,3.276-10.039,10.567
		v31.806h-13.948V48.533h13.948v4.544c2.642-3.698,7.608-6.023,12.363-6.023c5.706,0,10.883,2.113,14.688,7.185
		c3.91-4.755,9.51-7.185,17.012-7.185c13.843,0,23.987,7.713,23.987,23.669v32.334h-13.948V71.252
		c0-7.291-5.072-10.567-10.039-10.567c-4.966,0-10.038,3.276-10.038,10.567V103.058z"/>
	<path fill="#F5A200" d="M457.229,67.554c-0.951-4.861-4.438-7.925-10.144-7.925c-4.861,0-8.242,2.325-9.616,6.023h-14.054
		c2.219-11.412,10.355-18.597,23.669-18.597c15.639,0,24.303,9.933,24.303,25.043v30.96H457.44v-6.234
		c-2.536,4.121-6.869,7.291-15.216,7.291c-12.469,0-19.865-6.129-19.865-16.167c0-7.925,2.747-12.68,10.355-16.273
		c5.389-2.536,16.273-3.381,24.515-4.015V67.554z M436.306,86.362c0,2.642,2.008,5.495,8.242,5.495
		c7.186,0,12.892-4.015,12.892-10.884v-1.796c-7.925,0.528-15.533,1.163-18.175,2.536C436.941,82.875,436.306,84.038,436.306,86.362
		z"/>
	<path fill="#F5A200" d="M496.47,90.483h24.198v12.574h-41.739V90.483l23.458-29.375h-22.718V48.533h40.259v12.575L496.47,90.483z"
		/>
	<path fill="#F5A200" d="M526.602,72.097c0-15.11,8.665-25.043,24.304-25.043s24.303,9.933,24.303,25.043v6.974
		c0,15.11-8.664,25.043-24.303,25.043s-24.304-9.933-24.304-25.043V72.097z M561.261,70.301c0-6.446-3.699-10.672-10.355-10.672
		c-6.657,0-10.355,4.227-10.355,10.672v10.567c0,6.445,3.698,10.672,10.355,10.672c6.656,0,10.355-4.227,10.355-10.672V70.301z"/>
	<path fill="#F5A200" d="M633.332,103.058h-13.948V71.252c0-7.397-5.072-10.567-10.355-10.567s-10.355,3.17-10.355,10.567v31.806
		h-13.948V48.533h13.948v4.755c2.431-3.699,7.925-6.234,12.786-6.234c11.095,0,21.873,7.608,21.873,23.669V103.058z"/>
</g>
</svg>
