<?xml version="1.0" encoding="UTF-8" standalone="no"?>
<svg
   xmlns:dc="http://purl.org/dc/elements/1.1/"
   xmlns:cc="http://creativecommons.org/ns#"
   xmlns:rdf="http://www.w3.org/1999/02/22-rdf-syntax-ns#"
   xmlns:svg="http://www.w3.org/2000/svg"
   xmlns="http://www.w3.org/2000/svg"
   xmlns:sodipodi="http://sodipodi.sourceforge.net/DTD/sodipodi-0.dtd"
   xmlns:inkscape="http://www.inkscape.org/namespaces/inkscape"
   width="55.898846mm"
   height="7.9374995mm"
   viewBox="0 0 55.898845 7.9374996"
   version="1.1"
   id="svg911"
   sodipodi:docname="header-logo-youchoose.svg"
   inkscape:version="0.92.4 (5da689c313, 2019-01-14)">
  <sodipodi:namedview
     pagecolor="#ffffff"
     bordercolor="#666666"
     borderopacity="1"
     objecttolerance="10"
     gridtolerance="10"
     guidetolerance="10"
     inkscape:pageopacity="0"
     inkscape:pageshadow="2"
     inkscape:window-width="1888"
     inkscape:window-height="1049"
     id="namedview26406"
     showgrid="false"
     inkscape:zoom="1.3142985"
     inkscape:cx="175.02276"
     inkscape:cy="-54.213056"
     inkscape:window-x="30"
     inkscape:window-y="0"
     inkscape:window-maximized="0"
     inkscape:current-layer="svg911"
     showguides="true"
     inkscape:guide-bbox="true">
    <sodipodi:guide
       position="-4.3836879,12.243592"
       orientation="0,1"
       id="guide916"
       inkscape:locked="false" />
    <sodipodi:guide
       position="228.77841,-21.065279"
       orientation="0,1"
       id="guide931"
       inkscape:locked="false" />
    <sodipodi:guide
       position="44.671191,-67.697692"
       orientation="1,0"
       id="guide933"
       inkscape:locked="false" />
    <sodipodi:guide
       position="222.72225,-61.035922"
       orientation="1,0"
       id="guide935"
       inkscape:locked="false" />
  </sodipodi:namedview>
  <defs
     id="defs905" />
  <metadata
     id="metadata908">
    <rdf:RDF>
      <cc:Work
         rdf:about="">
        <dc:format>image/svg+xml</dc:format>
        <dc:type
           rdf:resource="http://purl.org/dc/dcmitype/StillImage" />
        <dc:title></dc:title>
      </cc:Work>
    </rdf:RDF>
  </metadata>
  <path
     inkscape:connector-curvature="0"
     id="rect1795-5"
     d="m 1.6988691,0.30071261 c 2.4300846,-0.2017125 4.8891308,-0.2296579 7.3911103,0 0.9087945,0.083419 1.5747106,0.73858289 1.6592136,1.64727829 0.132418,1.4239476 0.184296,2.8277587 0.03018,4.1800741 -0.103337,0.9067435 -0.727966,1.5504132 -1.6354288,1.6472765 -2.5083254,0.2677355 -4.9537071,0.1578078 -7.3911093,0 C 0.84212816,7.7163778 0.20675652,7.0336392 0.0936221,6.128065 -0.06784121,4.8356416 0.01918993,3.3775576 0.06344113,1.9479909 0.09167698,1.0358116 0.78938077,0.37620591 1.6988691,0.30071261 Z"
     style="fill:#e33180;fill-opacity:1;stroke:none;stroke-width:0.10289127;stroke-linecap:round;stroke-miterlimit:4;stroke-dasharray:none;stroke-opacity:1" />
  <path
     inkscape:connector-curvature="0"
     id="path1798-6"
     d="M 4.3053823,2.3784989 4.3323672,5.697558 7.1657106,4.159456 Z"
     style="fill:#ffffff;fill-opacity:1;stroke:none;stroke-width:0.06262405px;stroke-linecap:butt;stroke-linejoin:miter;stroke-opacity:1" />
  <flowRoot
     transform="matrix(0.17638896,0,0,0.17638896,-20.403148,-72.64451)"
     style="font-style:normal;font-weight:normal;font-size:40px;line-height:1.25;font-family:sans-serif;letter-spacing:0px;word-spacing:0px;fill:#000000;fill-opacity:1;stroke:none"
     id="flowRoot3250"
     xml:space="preserve"><flowRegion
       id="flowRegion3252"><rect
         y="274.62756"
         x="58.54261"
         height="159.04076"
         width="644.9444"
         id="rect3254" /></flowRegion><flowPara
       id="flowPara3256" /></flowRoot>  <flowRoot
     transform="matrix(0.17638896,0,0,0.17638896,-20.403148,-72.64451)"
     style="font-style:normal;font-weight:normal;font-size:40px;line-height:1.25;font-family:sans-serif;letter-spacing:0px;word-spacing:0px;fill:#000000;fill-opacity:1;stroke:none"
     id="flowRoot3258"
     xml:space="preserve"><flowRegion
       id="flowRegion3260"><rect
         y="298.04459"
         x="136.59943"
         height="152.21078"
         width="565.91193"
         id="rect3262" /></flowRegion><flowPara
       id="flowPara3264" /></flowRoot>  <flowRoot
     transform="matrix(0.26171867,0,0,0.26171867,2.618406,0.59099071)"
     style="font-style:normal;font-weight:normal;font-size:40px;line-height:1.25;font-family:sans-serif;letter-spacing:0px;word-spacing:0px;fill:#000000;fill-opacity:1;stroke:none"
     id="flowRoot3340"
     xml:space="preserve"><flowRegion
       id="flowRegion3342"><rect
         y="-66.516045"
         x="-8.7813911"
         height="58.54261"
         width="583.47467"
         id="rect3344" /></flowRegion><flowPara
       style="font-style:normal;font-variant:normal;font-weight:bold;font-stretch:normal;font-family:'Simplon Norm';-inkscape-font-specification:'Simplon Norm Bold';letter-spacing:21.72005463px"
       id="flowPara3346" /></flowRoot>  <path
     inkscape:connector-curvature="0"
     id="path887"
     style="font-style:normal;font-variant:normal;font-weight:bold;font-stretch:semi-condensed;font-size:40px;line-height:1.25;font-family:'Trade Gothic LT Std';-inkscape-font-specification:'Trade Gothic LT Std Bold Semi-Condensed';letter-spacing:0px;word-spacing:0px;fill:#000000;fill-opacity:1;stroke:none;stroke-width:0.22650482"
     d="m 14.19354,1.1585839 h -1.331847 l 1.784858,3.8958818 v 2.6455758 h 1.250307 V 5.0544657 l 1.784857,-3.8958818 h -1.331849 l -1.060043,2.6365149 z" />
  <path
     inkscape:connector-curvature="0"
     id="path889"
     style="font-style:normal;font-variant:normal;font-weight:bold;font-stretch:semi-condensed;font-size:40px;line-height:1.25;font-family:'Trade Gothic LT Std';-inkscape-font-specification:'Trade Gothic LT Std Bold Semi-Condensed';letter-spacing:0px;word-spacing:0px;fill:#000000;fill-opacity:1;stroke:none;stroke-width:0.22650482"
     d="m 17.494621,5.9242449 c 0,1.3046662 0.670454,1.8663991 1.81204,1.8663991 1.141583,0 1.812035,-0.5617329 1.812035,-1.8663991 V 4.5470961 c 0,-1.3046693 -0.670452,-1.8663993 -1.812035,-1.8663993 -1.141586,0 -1.81204,0.56173 -1.81204,1.8663993 z m 1.141583,-1.6670764 c 0,-0.3805278 0.271806,-0.579851 0.670457,-0.579851 0.398646,0 0.670452,0.1993232 0.670452,0.579851 v 1.9570016 c 0,0.3805288 -0.271806,0.5798522 -0.670452,0.5798522 -0.398651,0 -0.670457,-0.1993234 -0.670457,-0.5798522 z" />
  <path
     inkscape:connector-curvature="0"
     id="path891"
     style="font-style:normal;font-variant:normal;font-weight:bold;font-stretch:semi-condensed;font-size:40px;line-height:1.25;font-family:'Trade Gothic LT Std';-inkscape-font-specification:'Trade Gothic LT Std Bold Semi-Condensed';letter-spacing:0px;word-spacing:0px;fill:#000000;fill-opacity:1;stroke:none;stroke-width:0.22650482"
     d="m 24.040814,2.771299 v 3.723738 c -0.244625,0.2174436 -0.507372,0.4439487 -0.742937,0.4439487 -0.308046,0 -0.416767,-0.2174442 -0.416767,-0.5436112 V 2.771299 h -1.141586 v 3.7509181 c 0,0.9150799 0.362409,1.2684269 1.060044,1.2684269 0.47113,0 0.860717,-0.2899261 1.277487,-0.6523355 v 0.561733 h 1.105343 V 2.771299 Z" />
  <path
     inkscape:connector-curvature="0"
     id="path893"
     style="font-style:normal;font-variant:normal;font-weight:bold;font-stretch:semi-condensed;font-size:40px;line-height:1.25;font-family:'Trade Gothic LT Std';-inkscape-font-specification:'Trade Gothic LT Std Bold Semi-Condensed';letter-spacing:0px;word-spacing:0px;fill:#000000;fill-opacity:1;stroke:none;stroke-width:0.22650482"
     d="m 27.554559,3.0974641 c 0,-0.7248137 0.317107,-0.9241388 0.815419,-0.9241388 0.498356,0 0.815458,0.1993251 0.815458,0.9241388 v 0.1812046 h 1.250307 v -0.01813 c 0,-1.6127134 -0.851659,-2.192566 -2.065765,-2.192566 -1.214066,0 -2.065726,0.5798526 -2.065726,2.192566 V 5.598068 c 0,1.6127147 0.85166,2.1925661 2.065726,2.1925661 1.214106,0 2.065765,-0.5798514 2.065765,-2.1925661 V 5.3262642 h -1.250307 v 0.434887 c 0,0.7248164 -0.317102,0.9241392 -0.815458,0.9241392 -0.498312,0 -0.815419,-0.1993228 -0.815419,-0.9241392 z" />
  <path
     inkscape:connector-curvature="0"
     id="path895"
     style="font-style:normal;font-variant:normal;font-weight:bold;font-stretch:semi-condensed;font-size:40px;line-height:1.25;font-family:'Trade Gothic LT Std';-inkscape-font-specification:'Trade Gothic LT Std Bold Semi-Condensed';letter-spacing:0px;word-spacing:0px;fill:#000000;fill-opacity:1;stroke:none;stroke-width:0.22650482"
     d="m 32.323449,7.7000415 v -3.723738 c 0.244626,-0.2174441 0.50737,-0.4439489 0.742934,-0.4439489 0.308047,0 0.416771,0.2174441 0.416771,0.5436114 v 3.6240755 h 1.141583 V 3.949122 c 0,-0.9150788 -0.362407,-1.2684252 -1.060042,-1.2684252 -0.471129,0 -0.860717,0.2899255 -1.241246,0.6523323 V 1.1585839 h -1.141586 v 6.5414576 z" />
  <path
     inkscape:connector-curvature="0"
     id="path897"
     style="font-style:normal;font-variant:normal;font-weight:bold;font-stretch:semi-condensed;font-size:40px;line-height:1.25;font-family:'Trade Gothic LT Std';-inkscape-font-specification:'Trade Gothic LT Std Bold Semi-Condensed';letter-spacing:0px;word-spacing:0px;fill:#000000;fill-opacity:1;stroke:none;stroke-width:0.22650482"
     d="m 35.245597,5.9242449 c 0,1.3046662 0.670454,1.8663991 1.812039,1.8663991 1.141584,0 1.812039,-0.5617329 1.812039,-1.8663991 V 4.5470961 c 0,-1.3046693 -0.670455,-1.8663993 -1.812039,-1.8663993 -1.141585,0 -1.812039,0.56173 -1.812039,1.8663993 z m 1.141586,-1.6670764 c 0,-0.3805278 0.271803,-0.579851 0.670453,-0.579851 0.398645,0 0.670453,0.1993232 0.670453,0.579851 v 1.9570016 c 0,0.3805288 -0.271808,0.5798522 -0.670453,0.5798522 -0.39865,0 -0.670453,-0.1993234 -0.670453,-0.5798522 z" />
  <path
     inkscape:connector-curvature="0"
     id="path899"
     style="font-style:normal;font-variant:normal;font-weight:bold;font-stretch:semi-condensed;font-size:40px;line-height:1.25;font-family:'Trade Gothic LT Std';-inkscape-font-specification:'Trade Gothic LT Std Bold Semi-Condensed';letter-spacing:0px;word-spacing:0px;fill:#000000;fill-opacity:1;stroke:none;stroke-width:0.22650482"
     d="m 39.525177,5.9242449 c 0,1.3046662 0.670457,1.8663991 1.812039,1.8663991 1.141586,0 1.81204,-0.5617329 1.81204,-1.8663991 V 4.5470961 c 0,-1.3046693 -0.670454,-1.8663993 -1.81204,-1.8663993 -1.141582,0 -1.812039,0.56173 -1.812039,1.8663993 z m 1.141586,-1.6670764 c 0,-0.3805278 0.271805,-0.579851 0.670453,-0.579851 0.39865,0 0.670456,0.1993232 0.670456,0.579851 v 1.9570016 c 0,0.3805288 -0.271806,0.5798522 -0.670456,0.5798522 -0.398648,0 -0.670453,-0.1993234 -0.670453,-0.5798522 z" />
  <path
     inkscape:connector-curvature="0"
     id="path901"
     style="font-style:normal;font-variant:normal;font-weight:bold;font-stretch:semi-condensed;font-size:40px;line-height:1.25;font-family:'Trade Gothic LT Std';-inkscape-font-specification:'Trade Gothic LT Std Bold Semi-Condensed';letter-spacing:0px;word-spacing:0px;fill:#000000;fill-opacity:1;stroke:none;stroke-width:0.22650482"
     d="M 47.01207,3.9128823 C 46.731205,3.1699454 46.142291,2.6806968 45.290633,2.6806968 c -0.806356,0 -1.558354,0.4439487 -1.558354,1.3771485 0,1.6580161 2.228808,1.431511 2.228808,2.3737718 0,0.2718034 -0.208384,0.434887 -0.55267,0.434887 -0.453009,0 -0.733876,-0.2989853 -0.833535,-0.7610548 l -1.023803,0.2808651 c 0.552672,1.2321852 1.168762,1.4043296 1.857338,1.4043296 0.951322,0 1.639896,-0.5164312 1.639896,-1.494932 0,-1.467751 -2.228812,-1.4858718 -2.228812,-2.2469274 0,-0.2536858 0.199328,-0.4439486 0.462071,-0.4439486 0.344288,0 0.634215,0.2174441 0.788239,0.6704534 z" />
  <path
     inkscape:connector-curvature="0"
     id="path903"
     style="font-style:normal;font-variant:normal;font-weight:bold;font-stretch:semi-condensed;font-size:40px;line-height:1.25;font-family:'Trade Gothic LT Std';-inkscape-font-specification:'Trade Gothic LT Std Bold Semi-Condensed';letter-spacing:0px;word-spacing:0px;fill:#000000;fill-opacity:1;stroke:none;stroke-width:0.22650482"
     d="M 51.201051,5.5074745 V 4.3568314 c 0,-1.0056813 -0.751995,-1.6761346 -1.812037,-1.6761346 -1.087226,0 -1.812037,0.6704533 -1.812037,1.748616 v 1.6127156 c 0,1.0781626 0.724811,1.7486156 1.812037,1.7486156 1.150646,0 1.757677,-0.5979721 1.812037,-1.6127129 h -1.141583 c 0,0.3805278 -0.190262,0.688573 -0.670454,0.688573 -0.380527,0 -0.670455,-0.2174436 -0.670455,-0.706694 V 5.5074745 Z M 48.718559,4.5833356 V 4.3115315 c 0,-0.4348908 0.208384,-0.7066955 0.670455,-0.7066955 0.462071,0 0.670454,0.2718047 0.670454,0.7066955 v 0.2718041 z" />
  <g
     aria-label="AI"
     transform="matrix(0.11381792,0,0,0.11381792,123.2088,-49.535667)"
     style="font-style:normal;font-weight:normal;font-size:40px;line-height:1.25;font-family:sans-serif;letter-spacing:0px;word-spacing:0px;fill:#808080;fill-opacity:1;stroke:none"
     id="flowRoot906">
    <path
       d="m -601.34273,463.21852 h 3.12 l -9,-28 h -3.52 l -9,28 h 3.12 l 2.56,-7.88 h 10.16 z m -3.48,-10.72 h -8.32 l 4.16,-13 z"
       style="font-style:normal;font-variant:normal;font-weight:normal;font-stretch:normal;font-family:'Simplon Norm';-inkscape-font-specification:'Simplon Norm';fill:#808080"
       id="path958"
       inkscape:connector-curvature="0" />
    <path
       d="m -594.46273,463.21852 h 3.08 v -28 h -3.08 z"
       style="font-style:normal;font-variant:normal;font-weight:normal;font-stretch:normal;font-family:'Simplon Norm';-inkscape-font-specification:'Simplon Norm';fill:#808080"
       id="path960"
       inkscape:connector-curvature="0" />
  </g>
</svg>
