<?xml version="1.0" encoding="iso-8859-1" standalone="yes"?><!-- Generator: Adobe Illustrator 19.0.0, SVG Export Plug-In . SVG Version: 6.00 Build 0)  --><svg xmlns="http://www.w3.org/2000/svg" xmlns:xlink="http://www.w3.org/1999/xlink" version="1.1" id="Capa_1" x="0px" y="0px" viewBox="0 0 512 512" style="enable-background:new 0 0 512 512;zoom: 1;" xml:space="preserve"><g><path style="fill:#50b9af; " d="M102.400002,8.532999 V460.799988 c-0.069,23.536 -19.131,42.598 -42.667,42.667 h392.533 c11.293,0 22.124,-4.486 30.109,-12.472 c7.985,-7.985 12.472,-18.816 12.472,-30.109 V8.532999 H102.400002  z "></path><linearGradient id="SVGID_1_" gradientUnits="userSpaceOnUse" x1="-48.8832" y1="652.6286" x2="-47.8503" y2="651.7918" gradientTransform="matrix(400.9806 0 0 -494.9333 19667.3105 323061.0313)"><stop style="stop-color:#9bc9c5; " offset="0"></stop><stop offset="0.1717" style="stop-color:#9bc9c5; "></stop><stop offset="0.2" style="stop-color:#9bc9c5; "></stop><stop offset="0.2001" style="stop-color:#DAE4F4"></stop><stop offset="0.2007" style="stop-color:#EBEBF4"></stop><stop offset="0.2014" style="stop-color:#F6F1F4"></stop><stop offset="0.2023" style="stop-color:#FDF4F4"></stop><stop offset="0.205" style="stop-color:#FFF5F4"></stop><stop offset="0.2522" style="stop-color:#FFF5F4"></stop><stop offset="0.26" style="stop-color:#FFF5F4"></stop><stop offset="0.26" style="stop-color:#9bc9c5; "></stop><stop offset="0.3974" style="stop-color:#9bc9c5; "></stop><stop offset="0.42" style="stop-color:#9bc9c5; "></stop><stop offset="0.4201" style="stop-color:#DAE4F4"></stop><stop offset="0.4207" style="stop-color:#EBEBF4"></stop><stop offset="0.4214" style="stop-color:#F6F1F4"></stop><stop offset="0.4223" style="stop-color:#FDF4F4"></stop><stop offset="0.425" style="stop-color:#FFF5F4"></stop><stop offset="0.4894" style="stop-color:#FFF5F4"></stop><stop offset="0.5" style="stop-color:#FFF5F4"></stop><stop offset="0.5" style="stop-color:#F9F2F4"></stop><stop offset="0.5001" style="stop-color:#E8EBF4"></stop><stop offset="0.5003" style="stop-color:#DDE5F4"></stop><stop offset="0.5005" style="stop-color:#D6E2F4"></stop><stop offset="0.501" style="stop-color:#9bc9c5; "></stop><stop offset="0.7062" style="stop-color:#9bc9c5; "></stop><stop offset="0.74" style="stop-color:#9bc9c5; "></stop><stop offset="0.741" style="stop-color:#FFF5F4"></stop><stop offset="0.8346" style="stop-color:#FFF5F4"></stop><stop offset="0.85" style="stop-color:#FFF5F4"></stop><stop offset="0.851" style="stop-color:#9bc9c5; "></stop></linearGradient><path style="fill:url(#SVGID_1_);" d="M110.932999,8.533 V460.799988 c-0.069,23.536 -19.131,42.598 -42.667,42.667 h358.4 c11.293,0 22.124,-4.486 30.109,-12.472 c7.985,-7.985 12.472,-18.816 12.472,-30.109 V8.533 H110.932999  z "></path><path style="fill:#83e3da; " d="M17.066999,264.53299 H102.400002 V460.799988 c0,11.316 -4.495,22.168 -12.497,30.17 s-18.854,12.497 -30.17,12.497 l0,0 c-23.564,0 -42.667,-19.103 -42.667,-42.667 V264.53299  z "></path><rect x="204.8" y="42.667" style="fill:#50b9af; " width="187.733" height="34.133"></rect><rect x="204.8" y="42.667" style="fill:#83e3da; " width="162.133" height="34.133"></rect><rect y="145.067001px" style="fill:#50b9af; " x="153.600006px" width="102.4" height="102.4"></rect><rect y="145.067001px" style="fill:#83e3da; " x="153.600006px" width="76.8" height="102.4"></rect><rect y="349.867004px" style="fill:#50b9af; " x="341.333008px" width="102.4" height="102.4"></rect><rect y="349.867004px" style="fill:#83e3da; " x="340.420349px" width="76.8" height="102.4"></rect><path style="fill:#FFFFFF;" d="M17.067,264.533h25.6v230.4h-7.706c-4.746,0-9.297-1.885-12.653-5.241 c-3.356-3.356-5.241-7.907-5.241-12.653V264.533z"></path><g><path d="M59.733,512 c-28.264,-0.031 -51.169,-22.936 -51.2,-51.2 V264.533 c-0.001,-2.264 0.897,-4.435 2.498,-6.035 s3.772,-2.499 6.035,-2.498 H102.4 c2.264,-0.001 4.435,0.897 6.035,2.498 c1.601,1.601 2.499,3.772 2.498,6.035 V460.8 C110.902,489.064 87.998,511.969 59.733,512  z M25.6,273.067 V460.8 c0,18.851 15.282,34.133 34.133,34.133 s34.133,-15.282 34.133,-34.133 V273.067 H25.6  z " style="fill:#000000; "></path><path style="fill:#000000; " d="M452.267,512 H59.733 c-4.713,0 -8.533,-3.82 -8.533,-8.533 s3.821,-8.533 8.533,-8.533 c18.844,-0.019 34.115,-15.29 34.133,-34.133 V8.533 c-0.001,-2.264 0.897,-4.435 2.498,-6.035 C97.965,0.897 100.136,-0.001 102.4,0 h392.45 c2.264,-0.001 4.435,0.897 6.035,2.498 c1.601,1.601 2.499,3.772 2.498,6.035 v452.35 C503.35,489.1 480.484,511.966 452.267,512  z M97.867,494.933 h354.4 c18.796,-0.021 34.029,-15.254 34.05,-34.05 V17.067 H110.933 V460.8 C110.941,473.401 106.287,485.559 97.867,494.933  z "></path><path style="fill:#000000; " d="M256,256 H153.600006 c-2.264,0.001 -4.435,-0.897 -6.035,-2.498 s-2.499,-3.772 -2.498,-6.035 v-102.4 c-0.001,-2.264 0.897,-4.435 2.498,-6.035 s3.772,-2.499 6.035,-2.498 H256 c2.264,-0.001 4.435,0.897 6.035,2.498 s2.499,3.772 2.498,6.035 v102.4 c0.001,2.264 -0.897,4.435 -2.498,6.035 S258.264008,256.001007 256,256  z M162.132996,238.932999 h85.333 V153.600006 h-85.333 V238.932999  z "></path><path style="fill:#000000; " d="M443.733002,153.600006 H307.200012 c-4.713,0 -8.533,-3.821 -8.533,-8.533 c0,-4.713 3.82,-8.533 8.533,-8.533 h136.533 c4.713,0 8.533,3.821 8.533,8.533 C452.266998,149.779007 448.446014,153.600006 443.733002,153.600006  z "></path><path style="fill:#000000; " d="M443.733002,204.800003 H307.200012 c-4.713,0 -8.533,-3.821 -8.533,-8.533 s3.82,-8.533 8.533,-8.533 h136.533 c4.713,0 8.533,3.821 8.533,8.533 S448.446014,204.800003 443.733002,204.800003  z "></path><path style="fill:#000000; " d="M443.733002,256 H307.200012 c-4.713,0 -8.533,-3.82 -8.533,-8.533 c0,-4.713 3.82,-8.533 8.533,-8.533 h136.533 c4.713,0 8.533,3.821 8.533,8.533 C452.266998,252.179993 448.446014,256 443.733002,256  z "></path><path d="M443.733002,307.200012 h-281.6 c-4.713,0 -8.533,-3.82 -8.533,-8.533 s3.821,-8.533 8.533,-8.533 h281.6 c4.713,0 8.533,3.82 8.533,8.533 S448.446014,307.200012 443.733002,307.200012  z " style="fill:#000000; "></path><path style="fill:#000000; " d="M290.132996,358.399994 h-128 c-4.713,0 -8.533,-3.821 -8.533,-8.533 c0,-4.713 3.821,-8.533 8.533,-8.533 h128 c4.713,0 8.533,3.821 8.533,8.533 C298.666992,354.57901 294.846008,358.399994 290.132996,358.399994  z "></path><path style="fill:#000000; " d="M290.132996,409.600006 h-128 c-4.713,0 -8.533,-3.821 -8.533,-8.533 s3.821,-8.533 8.533,-8.533 h128 c4.713,0 8.533,3.82 8.533,8.533 S294.846008,409.600006 290.132996,409.600006  z "></path><path style="fill:#000000; " d="M290.132996,460.799988 h-128 c-4.713,0 -8.533,-3.82 -8.533,-8.533 s3.821,-8.533 8.533,-8.533 h128 c4.713,0 8.533,3.82 8.533,8.533 S294.846008,460.799988 290.132996,460.799988  z "></path><path style="fill:#000000; " d="M443.733002,459.887329 h-102.4 c-2.264,0.001 -4.435,-0.897 -6.035,-2.498 c-1.601,-1.601 -2.499,-3.772 -2.498,-6.035 v-102.4 c-0.001,-2.264 0.897,-4.435 2.498,-6.035 c1.601,-1.601 3.772,-2.499 6.035,-2.498 h102.4 c2.264,-0.001 4.435,0.897 6.035,2.498 c1.601,1.601 2.499,3.772 2.498,6.035 v102.4 c0.001,2.264 -0.897,4.435 -2.498,6.035 C448.167999,458.990356 445.997009,459.888336 443.733002,459.887329  z M349.867004,442.820343 H435.200012 V357.487335 h-85.333 V442.820343  z "></path><path style="fill:#000000; " d="M494.933014,119.467003 H102.400002 c-4.713,0 -8.533,-3.821 -8.533,-8.533 c0,-4.713 3.821,-8.533 8.533,-8.533 h392.533 c4.713,0 8.533,3.821 8.533,8.533 C503.46701,115.646004 499.645996,119.467003 494.933014,119.467003  z "></path><path style="fill:#000000; " d="M392.53299,85.333 H204.800003 c-2.264,0.001 -4.435,-0.897 -6.035,-2.498 c-1.601,-1.601 -2.499,-3.772 -2.498,-6.035 V42.667 c-0.001,-2.264 0.897,-4.435 2.498,-6.035 c1.601,-1.601 3.772,-2.499 6.035,-2.498 h187.733 c2.264,-0.001 4.435,0.897 6.035,2.498 c1.601,1.601 2.499,3.772 2.498,6.035 V76.800003 c0.001,2.264 -0.897,4.435 -2.498,6.035 C396.967987,84.435997 394.796997,85.334999 392.53299,85.333 L392.53299,85.333  z M213.332993,68.266998 H384 V51.200001 H213.332993 V68.266998  z "></path></g></g><g></g><g></g><g></g><g></g><g></g><g></g><g></g><g></g><g></g><g></g><g></g><g></g><g></g><g></g><g></g></svg>